<svg width="701" height="279" viewBox="0 0 701 279" fill="none" xmlns="http://www.w3.org/2000/svg"><path fill-rule="evenodd" clip-rule="evenodd" d="M613.434 253.068V.265h1.142v252.803h-1.142zm-57.575 0V.265H557v252.803h-1.141zm-115.184 0V.265h1.142v252.803h-1.142zm-57.575 0V.265h1.141v252.803H383.1zm-176.094 0V.265h1.141v252.803h-1.141zm-57.575 0V.265h1.141v252.803h-1.141zm-117.387 0V.265h1.14v252.803h-1.14zm638.966-.265V0h1.14v252.803h-1.14zm-172.759 0V0h1.141v252.803h-1.141zm-172.728 0V0h1.141v252.803h-1.141zm-60.941 0V0h1.141v252.803h-1.141zm-172.726 0V0h1.142v252.803h-1.142z" fill="#D9E1E7" fill-opacity=".4"/><path fill-rule="evenodd" clip-rule="evenodd" d="M32.706 254.064v-1.241h639.466v1.241H32.706zm-.662-65.03v-1.24H671.51v1.24H32.044zm.662-62.598v-1.24h639.466v1.24H32.706zm0-62.598v-1.24h639.466v1.24H32.706zM32.044 1.24V0H671.51v1.24H32.044z" fill="#D9E1E7" fill-opacity=".4"/><path d="M7.554 9.933v1.04H.362v-.746L4.82 3.33h1.033L4.744 5.326 1.798 9.933h5.756zM6.166 3.33v9.953H4.901V3.33h1.265zm8.784 4.183v1.518c0 .816-.073 1.504-.219 2.064-.145.56-.355 1.012-.629 1.354-.273.341-.603.59-.99.745a3.54 3.54 0 01-1.3.225c-.382 0-.736-.047-1.06-.143a2.516 2.516 0 01-.874-.458 2.777 2.777 0 01-.656-.834 4.474 4.474 0 01-.417-1.244 8.964 8.964 0 01-.144-1.71V7.514c0-.816.073-1.5.219-2.05.15-.552.362-.994.636-1.327.273-.337.601-.579.984-.724.387-.146.82-.22 1.299-.22.387 0 .743.049 1.066.144.328.092.62.24.875.445.255.2.472.47.65.806.182.333.32.741.417 1.224.095.483.143 1.05.143 1.702zm-1.27 1.723V7.3c0-.446-.028-.838-.082-1.176a3.696 3.696 0 00-.226-.875 1.732 1.732 0 00-.383-.587c-.15-.15-.326-.26-.526-.329a1.891 1.891 0 00-.663-.109c-.301 0-.568.057-.8.171a1.45 1.45 0 00-.588.526c-.155.242-.273.559-.355.95a7.09 7.09 0 00-.123 1.43v1.934c0 .446.025.84.075 1.182.055.342.134.639.24.89.104.245.232.448.382.607.15.16.323.279.52.356.2.073.421.11.662.11.31 0 .582-.06.814-.178.232-.119.426-.303.581-.554.16-.255.278-.581.355-.978.078-.4.117-.88.117-1.435zm4.306-6.453v10.5h-1.271v-10.5h1.271zm4.519 3.103l-3.227 3.452-1.804 1.873-.103-1.346 1.292-1.545 2.297-2.434h1.545zm-1.155 7.397l-2.64-3.528.656-1.128 3.473 4.656h-1.49zM2.673 71.684h.902c.442 0 .807-.073 1.094-.219.292-.15.508-.353.65-.608.145-.26.218-.552.218-.875 0-.383-.064-.704-.191-.964a1.28 1.28 0 00-.575-.588c-.255-.132-.578-.198-.97-.198-.356 0-.67.07-.944.212-.268.137-.48.332-.635.588-.15.255-.226.556-.226.902H.731c0-.506.128-.966.383-1.38a2.754 2.754 0 011.073-.992c.465-.246 1.003-.37 1.614-.37.601 0 1.128.108 1.579.322.451.21.802.524 1.053.944.25.414.376.931.376 1.551 0 .25-.06.52-.178.807a2.386 2.386 0 01-.54.793 2.788 2.788 0 01-.944.608c-.387.155-.852.233-1.394.233h-1.08v-.766zm0 1.04v-.76h1.08c.633 0 1.157.076 1.572.226.415.15.74.35.978.602.241.25.41.526.506.827.1.296.15.592.15.888 0 .465-.08.878-.24 1.238a2.52 2.52 0 01-.662.916c-.283.25-.616.44-.998.567-.383.128-.8.191-1.251.191a3.98 3.98 0 01-1.224-.184 3.17 3.17 0 01-1.005-.533 2.496 2.496 0 01-.683-.868 2.73 2.73 0 01-.247-1.183h1.265c0 .346.075.65.226.91a1.6 1.6 0 00.656.607c.287.142.624.212 1.012.212.387 0 .72-.066.998-.198.282-.137.499-.342.65-.615.154-.273.231-.618.231-1.032 0-.415-.086-.755-.26-1.019a1.524 1.524 0 00-.738-.595c-.314-.132-.685-.198-1.114-.198h-.902zm12.277-1.21v1.517c0 .816-.073 1.504-.219 2.064-.145.56-.355 1.012-.629 1.354-.273.341-.603.59-.99.745a3.54 3.54 0 01-1.3.225c-.382 0-.736-.047-1.06-.143a2.516 2.516 0 01-.874-.458 2.777 2.777 0 01-.656-.834 4.474 4.474 0 01-.417-1.244 8.964 8.964 0 01-.144-1.71v-1.517c0-.816.073-1.5.219-2.05.15-.552.362-.994.636-1.327.273-.337.601-.578.984-.724.387-.146.82-.22 1.299-.22.387 0 .743.049 1.066.144.328.092.62.24.875.445.255.2.472.47.65.806.182.333.32.741.417 1.224.095.483.143 1.05.143 1.702zm-1.271 1.722V71.3c0-.446-.028-.838-.082-1.175a3.696 3.696 0 00-.226-.876 1.732 1.732 0 00-.383-.587c-.15-.15-.326-.26-.526-.328a1.891 1.891 0 00-.663-.11c-.301 0-.568.057-.8.171a1.45 1.45 0 00-.588.526c-.155.242-.273.559-.355.95a7.09 7.09 0 00-.123 1.43v1.934c0 .447.025.84.075 1.182.055.342.134.638.24.89.104.245.232.448.382.607.15.16.323.278.52.356.2.073.421.11.662.11.31 0 .582-.06.814-.178.232-.119.426-.303.581-.554.16-.255.278-.581.355-.978.078-.4.117-.88.117-1.435zm4.306-6.453v10.5h-1.271v-10.5h1.271zm4.519 3.103l-3.227 3.452-1.804 1.873-.103-1.346 1.292-1.545 2.297-2.434h1.545zm-1.155 7.397l-2.639-3.528.656-1.128 3.473 4.656h-1.49zm-14 62.961v1.039H.834v-.909l3.26-3.63c.402-.447.712-.825.93-1.135.224-.315.379-.595.465-.841.091-.251.137-.506.137-.766 0-.328-.068-.624-.205-.888a1.54 1.54 0 00-.588-.643c-.26-.159-.574-.239-.943-.239-.442 0-.812.087-1.108.26-.291.168-.51.405-.656.711a2.412 2.412 0 00-.219 1.052H.643c0-.56.123-1.073.369-1.538.246-.465.61-.834 1.093-1.107.484-.278 1.078-.417 1.785-.417.629 0 1.166.112 1.613.335a2.36 2.36 0 011.025.93c.242.396.363.861.363 1.394a2.8 2.8 0 01-.15.889 4.48 4.48 0 01-.404.888 6.84 6.84 0 01-.595.875c-.223.288-.462.57-.718.848l-2.666 2.892h4.99zm7.601-4.731v1.518c0 .816-.073 1.504-.219 2.064-.145.561-.355 1.012-.629 1.354-.273.342-.603.59-.99.745a3.54 3.54 0 01-1.3.225c-.382 0-.736-.047-1.06-.143a2.515 2.515 0 01-.874-.458 2.772 2.772 0 01-.656-.834 4.483 4.483 0 01-.417-1.244 8.973 8.973 0 01-.144-1.709v-1.518c0-.816.073-1.499.219-2.051.15-.551.362-.993.636-1.326.273-.337.601-.579.984-.724a3.66 3.66 0 011.299-.219c.387 0 .743.048 1.066.143.328.092.62.24.875.445.255.2.472.469.65.806.182.333.32.741.417 1.224.095.483.143 1.05.143 1.702zm-1.271 1.723v-1.935c0-.446-.028-.838-.082-1.176a3.713 3.713 0 00-.226-.875 1.729 1.729 0 00-.383-.587 1.355 1.355 0 00-.526-.329 1.912 1.912 0 00-.663-.109c-.301 0-.568.057-.8.171a1.437 1.437 0 00-.588.526c-.155.242-.273.559-.355.951a7.08 7.08 0 00-.123 1.428v1.935c0 .446.025.841.075 1.182.055.342.134.638.24.889.104.246.232.449.382.609.15.159.323.278.52.355.2.073.421.109.662.109.31 0 .582-.059.814-.177.232-.119.426-.303.581-.554.16-.255.278-.581.355-.978a7.62 7.62 0 00.117-1.435zm4.306-6.453v10.5h-1.271v-10.5h1.271zm4.519 3.103l-3.227 3.452-1.804 1.873-.103-1.346 1.292-1.545 2.297-2.434h1.545zm-1.155 7.397l-2.639-3.528.656-1.128 3.473 4.656h-1.49zM4.983 195.275v10.008H3.72v-8.429l-2.55.93v-1.142l3.616-1.367h.198zm9.967 4.238v1.518c0 .816-.073 1.504-.219 2.064-.145.561-.355 1.012-.629 1.354-.273.342-.603.59-.99.745a3.54 3.54 0 01-1.3.225c-.382 0-.736-.047-1.06-.143a2.515 2.515 0 01-.874-.458 2.772 2.772 0 01-.656-.834 4.483 4.483 0 01-.417-1.244 8.973 8.973 0 01-.144-1.709v-1.518c0-.816.073-1.499.219-2.051.15-.551.362-.993.636-1.326.273-.337.601-.579.984-.724a3.66 3.66 0 011.299-.219c.387 0 .743.048 1.066.143.328.092.62.24.875.445.255.2.472.469.65.806.182.333.32.741.417 1.224.095.483.143 1.05.143 1.702zm-1.271 1.723v-1.935c0-.446-.028-.838-.082-1.176a3.713 3.713 0 00-.226-.875 1.729 1.729 0 00-.383-.587 1.355 1.355 0 00-.526-.329 1.912 1.912 0 00-.663-.109c-.301 0-.568.057-.8.171a1.437 1.437 0 00-.588.526c-.155.242-.273.559-.355.951a7.08 7.08 0 00-.123 1.428v1.935c0 .446.025.841.075 1.182.055.342.134.638.24.889.104.246.232.449.382.609.15.159.323.278.52.355.2.073.421.109.662.109.31 0 .582-.059.814-.177.232-.119.426-.303.581-.554.16-.255.278-.581.355-.978a7.62 7.62 0 00.117-1.435zm4.306-6.453v10.5h-1.271v-10.5h1.271zm4.519 3.103l-3.227 3.452-1.804 1.873-.103-1.346 1.292-1.545 2.297-2.434h1.545zm-1.155 7.397l-2.639-3.528.656-1.128 3.473 4.656h-1.49zm-14.274 58.23v1.518c0 .816-.073 1.504-.219 2.064-.145.561-.355 1.012-.628 1.354-.274.342-.604.59-.992.745a3.53 3.53 0 01-1.298.225c-.383 0-.737-.047-1.06-.143a2.514 2.514 0 01-.875-.458 2.772 2.772 0 01-.656-.834 4.483 4.483 0 01-.417-1.244 8.973 8.973 0 01-.144-1.709v-1.518c0-.816.073-1.499.219-2.051.15-.551.362-.993.636-1.326.273-.337.601-.579.984-.724a3.66 3.66 0 011.299-.219c.387 0 .743.048 1.066.143.328.092.62.24.875.445.255.2.472.469.65.806.182.333.32.741.417 1.224.095.483.143 1.05.143 1.702zm-1.271 1.723v-1.935c0-.446-.028-.838-.082-1.176a3.711 3.711 0 00-.226-.875 1.728 1.728 0 00-.383-.587 1.354 1.354 0 00-.526-.329 1.913 1.913 0 00-.663-.109c-.3 0-.568.057-.8.171a1.437 1.437 0 00-.588.526c-.155.242-.273.559-.355.951a7.083 7.083 0 00-.123 1.428v1.935c0 .446.025.841.075 1.182.054.342.134.638.24.889.104.246.231.449.382.609.15.159.323.278.52.355.2.073.421.109.663.109.31 0 .58-.059.813-.177.232-.119.426-.303.581-.554.16-.255.278-.581.356-.978.077-.401.116-.879.116-1.435zm76.063 6.155c0 .519-.121.961-.363 1.324a2.272 2.272 0 01-.973.82 3.241 3.241 0 01-1.377.281 3.28 3.28 0 01-1.383-.281 2.272 2.272 0 01-.972-.82c-.239-.363-.358-.805-.358-1.324 0-.34.065-.651.194-.932a2.26 2.26 0 01.556-.744 2.55 2.55 0 01.856-.486 3.252 3.252 0 011.096-.176c.523 0 .99.101 1.4.304.41.2.732.475.967.827a2.1 2.1 0 01.357 1.207zm-1.09-.024c0-.316-.068-.596-.205-.838a1.452 1.452 0 00-.574-.574 1.73 1.73 0 00-.856-.205c-.332 0-.619.068-.86.205a1.434 1.434 0 00-.557.574c-.133.242-.2.522-.2.838 0 .328.065.61.194.844.132.23.32.408.562.533.246.121.537.182.873.182.336 0 .625-.061.867-.182.242-.125.428-.303.557-.533.133-.234.2-.516.2-.844zm.89-3.978c0 .414-.109.787-.327 1.119a2.276 2.276 0 01-.897.785 2.824 2.824 0 01-1.289.287c-.488 0-.924-.096-1.306-.287a2.233 2.233 0 01-.891-.785 2.016 2.016 0 01-.322-1.119c0-.496.107-.918.322-1.266.219-.348.518-.613.896-.797.38-.183.81-.275 1.295-.275.489 0 .922.092 1.301.275.379.184.676.449.89.797.22.348.329.77.329 1.266zm-1.083.017c0-.285-.06-.537-.182-.756a1.335 1.335 0 00-.504-.515 1.429 1.429 0 00-.75-.194c-.285 0-.535.061-.75.182a1.26 1.26 0 00-.498.504 1.627 1.627 0 00-.175.779c0 .293.058.549.175.768a1.3 1.3 0 00.504.51c.215.121.465.181.75.181s.533-.06.744-.181c.215-.122.383-.291.504-.51.121-.219.182-.475.182-.768zm6.545-2.238l-3.557 9.264h-.931l3.562-9.264h.926zm4.629-.047v8.578h-1.084v-7.224l-2.186.796v-.978l3.1-1.172h.17zm78.554 7.963c0 .52-.121.961-.364 1.325a2.27 2.27 0 01-.972.82 3.24 3.24 0 01-1.377.281 3.28 3.28 0 01-1.383-.281 2.278 2.278 0 01-.973-.82c-.238-.364-.357-.805-.357-1.325 0-.339.064-.65.193-.931.133-.285.319-.533.557-.744.242-.211.527-.373.855-.487a3.28 3.28 0 011.096-.175c.524 0 .99.101 1.401.304.41.199.732.475.966.826.239.352.358.754.358 1.207zm-1.09-.023c0-.316-.068-.596-.205-.838a1.454 1.454 0 00-.574-.574 1.732 1.732 0 00-.856-.205 1.72 1.72 0 00-.861.205 1.438 1.438 0 00-.557.574 1.713 1.713 0 00-.199.838c0 .328.064.609.193.844.133.23.321.408.563.533.246.121.537.182.873.182.336 0 .625-.061.867-.182.242-.125.428-.303.557-.533.133-.235.199-.516.199-.844zm.891-3.978c0 .414-.11.787-.329 1.119a2.276 2.276 0 01-.896.785 2.826 2.826 0 01-1.289.287 2.89 2.89 0 01-1.307-.287 2.232 2.232 0 01-.89-.785 2.015 2.015 0 01-.323-1.119c0-.497.108-.918.323-1.266.218-.348.517-.613.896-.797a2.93 2.93 0 011.295-.275c.488 0 .922.091 1.301.275.379.184.676.449.89.797.219.348.329.769.329 1.266zm-1.084.017c0-.285-.061-.537-.182-.756a1.327 1.327 0 00-.504-.515 1.43 1.43 0 00-.75-.194c-.285 0-.535.061-.75.182a1.258 1.258 0 00-.498.504 1.629 1.629 0 00-.176.779c0 .293.059.549.176.768.121.218.289.388.504.509.215.122.465.182.75.182s.533-.06.744-.182c.215-.121.383-.291.504-.509.121-.219.182-.475.182-.768zm6.544-2.238l-3.556 9.263h-.932l3.563-9.263h.925zm6.657 7.64v.891h-5.584v-.779l2.795-3.112c.343-.382.609-.707.797-.972.191-.27.324-.51.398-.721.078-.215.117-.434.117-.656 0-.281-.058-.535-.176-.762a1.318 1.318 0 00-.504-.551 1.52 1.52 0 00-.808-.205c-.379 0-.695.074-.949.223-.25.144-.438.348-.563.609a2.073 2.073 0 00-.187.903h-1.084c0-.481.105-.92.316-1.319.211-.398.524-.715.938-.949.414-.238.923-.357 1.529-.357.539 0 1 .095 1.383.287.383.187.675.453.879.797.207.339.31.738.31 1.195a2.4 2.4 0 01-.129.762 3.88 3.88 0 01-.345.761 5.988 5.988 0 01-.51.75c-.192.246-.397.489-.615.727l-2.286 2.478h4.278zm93.225-2.115c0 .519-.121.961-.363 1.324a2.278 2.278 0 01-.973.82 3.24 3.24 0 01-1.377.281 3.28 3.28 0 01-1.383-.281 2.27 2.27 0 01-.972-.82c-.239-.363-.358-.805-.358-1.324 0-.34.065-.651.194-.932a2.25 2.25 0 01.556-.744c.242-.211.528-.373.856-.486a3.25 3.25 0 011.095-.176c.524 0 .991.101 1.401.305.41.199.732.474.967.826.238.351.357.754.357 1.207zm-1.09-.024c0-.316-.068-.595-.205-.838a1.454 1.454 0 00-.574-.574 1.73 1.73 0 00-.856-.205 1.72 1.72 0 00-.861.205 1.438 1.438 0 00-.557.574 1.727 1.727 0 00-.199.838c0 .328.065.61.194.844.132.231.32.408.562.533.246.121.537.182.873.182.336 0 .625-.061.867-.182a1.31 1.31 0 00.557-.533c.133-.234.199-.516.199-.844zm.891-3.978c0 .414-.11.787-.328 1.119a2.279 2.279 0 01-.897.785 2.823 2.823 0 01-1.289.287 2.89 2.89 0 01-1.307-.287 2.237 2.237 0 01-.89-.785 2.014 2.014 0 01-.322-1.119c0-.496.107-.918.322-1.266.219-.348.517-.613.896-.797a2.943 2.943 0 011.295-.275c.488 0 .922.092 1.301.275a2.1 2.1 0 01.891.797c.218.348.328.77.328 1.266zm-1.084.017c0-.285-.061-.537-.182-.756a1.334 1.334 0 00-.504-.515 1.43 1.43 0 00-.75-.193c-.285 0-.535.06-.75.181a1.258 1.258 0 00-.498.504 1.632 1.632 0 00-.176.779c0 .293.059.549.176.768.121.219.289.389.504.51.215.121.465.181.75.181s.533-.06.744-.181c.215-.121.383-.291.504-.51.121-.219.182-.475.182-.768zm6.545-2.238l-3.557 9.264h-.932l3.563-9.264h.926zm2.648 3.732h.774c.378 0 .691-.062.937-.187.25-.129.436-.303.557-.521.125-.223.187-.473.187-.75 0-.329-.054-.604-.164-.827a1.102 1.102 0 00-.492-.504c-.219-.113-.496-.169-.832-.169-.305 0-.574.06-.809.181-.23.117-.412.285-.545.504a1.496 1.496 0 00-.193.773h-1.084c0-.433.109-.828.328-1.183.219-.356.526-.639.92-.85.399-.211.859-.316 1.383-.316.516 0 .967.092 1.353.275.387.18.688.449.903.809.215.355.322.799.322 1.33 0 .215-.051.445-.152.691a2.043 2.043 0 01-.463.68 2.396 2.396 0 01-.809.522c-.332.132-.73.199-1.195.199h-.926v-.657zm0 .891v-.65h.926c.543 0 .992.064 1.348.193.355.129.634.301.837.516.207.215.352.451.434.709.086.254.129.507.129.761 0 .399-.068.752-.205 1.061-.133.309-.322.57-.568.785a2.432 2.432 0 01-.856.486c-.328.11-.686.164-1.072.164-.371 0-.721-.052-1.049-.158a2.712 2.712 0 01-.861-.457 2.13 2.13 0 01-.586-.744 2.337 2.337 0 01-.211-1.014h1.084c0 .297.064.557.193.78.133.222.32.396.563.521.246.121.535.182.867.182.332 0 .617-.057.855-.17.242-.117.428-.293.557-.527.133-.235.199-.53.199-.885 0-.356-.074-.647-.223-.873a1.3 1.3 0 00-.632-.51 2.461 2.461 0 00-.955-.17h-.774zm85.217.604c0 .519-.121.961-.363 1.324a2.278 2.278 0 01-.973.82 3.24 3.24 0 01-1.377.281 3.28 3.28 0 01-1.383-.281 2.278 2.278 0 01-.973-.82c-.238-.363-.357-.805-.357-1.324 0-.34.065-.651.193-.932.133-.285.319-.533.557-.744.242-.211.527-.373.856-.486a3.25 3.25 0 011.095-.176c.524 0 .99.101 1.401.304.41.2.732.475.966.827.239.351.358.754.358 1.207zm-1.09-.024c0-.316-.068-.596-.205-.838a1.454 1.454 0 00-.574-.574 1.732 1.732 0 00-.856-.205 1.72 1.72 0 00-.861.205 1.438 1.438 0 00-.557.574 1.713 1.713 0 00-.199.838c0 .328.065.61.193.844.133.23.321.408.563.533.246.121.537.182.873.182.336 0 .625-.061.867-.182.242-.125.428-.303.557-.533.133-.234.199-.516.199-.844zm.891-3.978c0 .414-.11.787-.328 1.119a2.279 2.279 0 01-.897.785 2.826 2.826 0 01-1.289.287 2.89 2.89 0 01-1.307-.287 2.23 2.23 0 01-.89-.785 2.015 2.015 0 01-.323-1.119c0-.496.108-.918.323-1.266.218-.348.517-.613.896-.797a2.943 2.943 0 011.295-.275c.488 0 .922.092 1.301.275a2.1 2.1 0 01.891.797c.218.348.328.77.328 1.266zm-1.084.017c0-.285-.061-.537-.182-.756a1.334 1.334 0 00-.504-.515 1.43 1.43 0 00-.75-.194c-.285 0-.535.061-.75.182a1.258 1.258 0 00-.498.504 1.629 1.629 0 00-.176.779c0 .293.059.549.176.768.121.219.289.388.504.51.215.121.465.181.75.181s.533-.06.744-.181c.215-.122.383-.291.504-.51.121-.219.182-.475.182-.768zm6.545-2.238l-3.557 9.264h-.932l3.563-9.264h.926zm6.832 5.66v.891h-6.164v-.639l3.82-5.912h.885l-.95 1.711-2.525 3.949h4.934zm-1.19-5.66v8.531h-1.084v-8.531h1.084zm84.226 6.223c0 .519-.121.961-.363 1.324a2.278 2.278 0 01-.973.82 3.24 3.24 0 01-1.377.281 3.28 3.28 0 01-1.383-.281 2.27 2.27 0 01-.972-.82c-.239-.363-.358-.805-.358-1.324 0-.34.065-.651.193-.932.133-.285.319-.533.557-.744.242-.211.527-.373.856-.486a3.25 3.25 0 011.095-.176c.524 0 .991.101 1.401.304.41.2.732.475.966.827.239.351.358.754.358 1.207zm-1.09-.024c0-.316-.068-.596-.205-.838a1.454 1.454 0 00-.574-.574 1.73 1.73 0 00-.856-.205 1.72 1.72 0 00-.861.205 1.438 1.438 0 00-.557.574 1.724 1.724 0 00-.199.838c0 .328.065.61.193.844.133.23.321.408.563.533.246.121.537.182.873.182.336 0 .625-.061.867-.182.242-.125.428-.303.557-.533.133-.234.199-.516.199-.844zm.891-3.978c0 .414-.11.787-.328 1.119a2.279 2.279 0 01-.897.785 2.826 2.826 0 01-1.289.287 2.89 2.89 0 01-1.307-.287 2.23 2.23 0 01-.89-.785 2.015 2.015 0 01-.323-1.119c0-.496.108-.918.323-1.266.219-.348.517-.613.896-.797a2.943 2.943 0 011.295-.275c.488 0 .922.092 1.301.275a2.1 2.1 0 01.891.797c.218.348.328.77.328 1.266zm-1.084.017c0-.285-.061-.537-.182-.756a1.334 1.334 0 00-.504-.515 1.43 1.43 0 00-.75-.194c-.285 0-.535.061-.75.182a1.258 1.258 0 00-.498.504 1.629 1.629 0 00-.176.779c0 .293.059.549.176.768.121.219.289.388.504.51.215.121.465.181.75.181s.533-.06.744-.181c.215-.122.383-.291.504-.51.121-.219.182-.475.182-.768zm6.545-2.238l-3.557 9.264h-.932l3.563-9.264h.926zm2.437 4.471l-.867-.223.428-4.248h4.377v1.002h-3.457l-.258 2.32c.156-.09.353-.174.592-.252a2.71 2.71 0 01.832-.117c.394 0 .748.068 1.06.205.313.133.578.324.797.574.223.25.393.551.51.903.117.351.176.744.176 1.177 0 .411-.057.788-.17 1.131-.11.344-.276.645-.498.903a2.234 2.234 0 01-.844.591c-.336.141-.733.211-1.19.211-.343 0-.67-.046-.978-.14a2.507 2.507 0 01-.82-.44 2.362 2.362 0 01-.586-.738 2.948 2.948 0 01-.282-1.043h1.032c.047.32.14.59.281.809.141.218.324.384.551.498.23.109.498.164.802.164.258 0 .487-.045.686-.135a1.37 1.37 0 00.504-.387c.137-.168.24-.371.31-.609.075-.238.112-.506.112-.803 0-.269-.037-.519-.112-.75a1.707 1.707 0 00-.334-.603 1.46 1.46 0 00-.533-.399 1.72 1.72 0 00-.726-.146c-.364 0-.639.049-.827.146a3.188 3.188 0 00-.568.399zm75.413 1.752c0 .519-.121.961-.363 1.324a2.272 2.272 0 01-.973.82 3.24 3.24 0 01-1.377.281 3.28 3.28 0 01-1.382-.281 2.266 2.266 0 01-.973-.82c-.238-.363-.358-.805-.358-1.324 0-.34.065-.651.194-.932.133-.285.318-.533.556-.744.243-.211.528-.373.856-.486a3.251 3.251 0 011.096-.176c.523 0 .99.101 1.4.304.41.2.732.475.967.827.238.351.357.754.357 1.207zm-1.09-.024c0-.316-.068-.596-.205-.838a1.447 1.447 0 00-.574-.574 1.728 1.728 0 00-.855-.205c-.332 0-.62.068-.862.205a1.43 1.43 0 00-.556.574c-.133.242-.2.522-.2.838 0 .328.065.61.194.844.133.23.32.408.562.533.246.121.537.182.873.182.336 0 .625-.061.868-.182.242-.125.427-.303.556-.533.133-.234.199-.516.199-.844zm.891-3.978c0 .414-.109.787-.328 1.119a2.279 2.279 0 01-.897.785 2.823 2.823 0 01-1.289.287c-.488 0-.923-.096-1.306-.287a2.234 2.234 0 01-.891-.785 2.014 2.014 0 01-.322-1.119c0-.496.107-.918.322-1.266a2.14 2.14 0 01.897-.797c.378-.183.81-.275 1.294-.275.489 0 .922.092 1.301.275a2.1 2.1 0 01.891.797c.219.348.328.77.328 1.266zm-1.084.017c0-.285-.061-.537-.182-.756a1.334 1.334 0 00-.504-.515 1.425 1.425 0 00-.75-.194c-.285 0-.535.061-.75.182-.21.117-.376.285-.498.504a1.629 1.629 0 00-.175.779c0 .293.058.549.175.768a1.3 1.3 0 00.504.51c.215.121.465.181.75.181s.534-.06.744-.181c.215-.122.383-.291.504-.51.121-.219.182-.475.182-.768zm6.545-2.238l-3.557 9.264h-.931l3.562-9.264h.926zm5.226-.012h.094v.92h-.094c-.574 0-1.054.094-1.441.281a2.36 2.36 0 00-.92.745c-.226.308-.39.656-.492 1.043a4.769 4.769 0 00-.147 1.177v1.254c0 .379.045.715.135 1.008.09.289.213.533.369.732.157.2.332.35.528.452.199.101.406.152.621.152.25 0 .473-.047.668-.141.195-.097.359-.232.492-.404.137-.176.24-.383.311-.621.07-.238.105-.5.105-.785 0-.254-.031-.498-.094-.733a1.932 1.932 0 00-.287-.632 1.366 1.366 0 00-1.172-.604c-.3 0-.582.074-.843.223a1.915 1.915 0 00-.639.574c-.164.234-.258.49-.281.767l-.575-.005c.055-.438.157-.811.305-1.12.152-.312.34-.566.563-.761a2.13 2.13 0 01.755-.434c.282-.094.579-.14.891-.14.426 0 .793.08 1.102.24.308.16.562.375.761.644.2.266.346.567.44.903.097.332.146.673.146 1.025 0 .402-.056.779-.17 1.131-.113.351-.283.66-.509.926a2.308 2.308 0 01-.827.621 2.754 2.754 0 01-1.142.222c-.461 0-.863-.093-1.207-.281a2.579 2.579 0 01-.856-.762 3.479 3.479 0 01-.509-1.054 4.149 4.149 0 01-.17-1.178v-.51c0-.601.06-1.191.181-1.769.121-.578.33-1.102.627-1.571a3.229 3.229 0 011.248-1.119c.532-.277 1.209-.416 2.033-.416zm91.652 6.235c0 .519-.121.961-.363 1.324a2.278 2.278 0 01-.973.82 3.24 3.24 0 01-1.377.281 3.28 3.28 0 01-1.383-.281 2.27 2.27 0 01-.972-.82c-.239-.363-.358-.805-.358-1.324 0-.34.065-.651.193-.932.133-.285.319-.533.557-.744.242-.211.527-.373.856-.486a3.25 3.25 0 011.095-.176c.524 0 .99.101 1.401.304.41.2.732.475.966.827.239.351.358.754.358 1.207zm-1.09-.024c0-.316-.068-.596-.205-.838a1.454 1.454 0 00-.574-.574 1.732 1.732 0 00-.856-.205 1.72 1.72 0 00-.861.205 1.438 1.438 0 00-.557.574 1.713 1.713 0 00-.199.838c0 .328.065.61.193.844.133.23.321.408.563.533.246.121.537.182.873.182.336 0 .625-.061.867-.182.242-.125.428-.303.557-.533.133-.234.199-.516.199-.844zm.891-3.978c0 .414-.11.787-.328 1.119a2.279 2.279 0 01-.897.785 2.826 2.826 0 01-1.289.287 2.89 2.89 0 01-1.307-.287 2.23 2.23 0 01-.89-.785 2.015 2.015 0 01-.323-1.119c0-.496.108-.918.323-1.266.218-.348.517-.613.896-.797a2.943 2.943 0 011.295-.275c.488 0 .922.092 1.301.275a2.1 2.1 0 01.891.797c.218.348.328.77.328 1.266zm-1.084.017c0-.285-.061-.537-.182-.756a1.334 1.334 0 00-.504-.515 1.43 1.43 0 00-.75-.194c-.285 0-.535.061-.75.182a1.258 1.258 0 00-.498.504 1.629 1.629 0 00-.176.779c0 .293.059.549.176.768.121.219.289.388.504.51.215.121.465.181.75.181s.533-.06.744-.181c.215-.122.383-.291.504-.51.121-.219.182-.475.182-.768zm6.545-2.238l-3.557 9.264h-.932l3.563-9.264h.926zm6.58 0v.609l-3.534 7.922h-1.142l3.527-7.64h-4.617v-.891h5.766z" fill="#7C7C7C"/><path opacity=".36" fill-rule="evenodd" clip-rule="evenodd" d="M517.989 55.283c-39.681 0-57.537 126.145-92.601 126.145-35.126 0-26.88-15.004-71.114-38.247-28.216-14.827-47.77-17.511-65.938-17.511-10.313 0-20.18.865-30.929.865-29.684 0-46.13-36.856-84.077-36.856-37.946 0-90.164 45.761-104.033 53.501-12.486 6.969-31.909 7.317-35.658 7.317H33v70.786h637.731l.269-32.878c-43.152 0-75.964-31.643-85.866-45.225-9.901-13.582-37.239-87.896-66.936-87.896h-.214" fill="url(#paint0_linear_197_8394)"/><path d="M671 188.283c-42.565 0-75.727-30.255-87.316-46.253-2.513-3.471-5.978-10.476-10.363-19.344-12.651-25.583-33.828-68.403-55.113-68.403h-.189c-19.292 0-33.729 33.239-47.692 65.387-13.757 31.674-26.751 61.591-44.922 61.591-21.162 0-27.274-5.455-37.395-14.49-10.301-9.567-21.937-17.718-34.576-24.222-35.701-18.885-57.286-17.966-80.14-16.989-5.114.219-10.395.444-15.864.444-14.537 0-25.799-8.355-37.722-17.201-13.185-9.782-26.82-19.897-46.35-19.897-28.83 0-66.13 27.187-88.415 43.431-6.431 4.688-11.506 8.39-14.715 10.19-14.139 7.943-36.292 7.611-37.228 7.593" stroke="#0788DE"/><path d="M519.714 60.447c3.654 0 6.714-2.894 6.714-6.582 0-3.689-3.06-6.582-6.714-6.582-3.654 0-6.714 2.893-6.714 6.582 0 3.688 3.06 6.582 6.714 6.582z" fill="#fff" stroke="#0788DE" stroke-width="4"/><defs><linearGradient id="paint0_linear_197_8394" x1="352" y1="55.283" x2="352" y2="221.283" gradientUnits="userSpaceOnUse"><stop stop-color="#0383DB"/><stop offset="1" stop-color="#199DE9" stop-opacity="0"/></linearGradient></defs></svg>