<svg width="1209" height="252" viewBox="0 0 1209 252" fill="none" xmlns="http://www.w3.org/2000/svg"><path fill-rule="evenodd" clip-rule="evenodd" d="M1081.88 220a.989.989 0 01-.99-.992V1.222a.989.989 0 111.98 0v217.786c0 .548-.44.992-.99.992zm-100.108 0a.992.992 0 01-.992-.992V1.222a.992.992 0 011.983 0v217.786a.992.992 0 01-.991.992zm-200.275 0a.992.992 0 01-.992-.992V1.222a.992.992 0 011.984 0v217.786a.992.992 0 01-.992.992zm-100.11 0a.992.992 0 01-.991-.992V1.222a.992.992 0 111.983 0v217.786a.992.992 0 01-.992.992zm-306.179 0a.992.992 0 01-.991-.992V1.222a.992.992 0 111.983 0v217.786a.992.992 0 01-.992.992zm-100.109 0a.992.992 0 01-.992-.992V1.222a.992.992 0 011.983 0v217.786a.992.992 0 01-.991.992zm-204.107 0a.992.992 0 01-.992-.992V1.222a.992.992 0 011.983 0v217.786a.992.992 0 01-.991.992zm1110.998-.23a.989.989 0 01-.99-.992V.992a.989.989 0 111.98 0v217.786c0 .548-.44.992-.99.992zm-300.384 0a.992.992 0 01-.992-.992V.992a.992.992 0 011.984 0v217.786a.992.992 0 01-.992.992zm-300.327 0a.992.992 0 01-.991-.992V.992a.992.992 0 111.983 0v217.786a.992.992 0 01-.992.992zm-105.962 0a.992.992 0 01-.991-.992V.992a.992.992 0 111.983 0v217.786a.992.992 0 01-.992.992zm-300.326 0a.992.992 0 01-.992-.992V.992a.992.992 0 011.983 0v217.786a.992.992 0 01-.991.992z" fill="#D9E1E7" fill-opacity=".4"/><path fill-rule="evenodd" clip-rule="evenodd" d="M71.665 221a.515.515 0 010-1.03H1182.51c.28 0 .51.231.51.515 0 .284-.23.515-.51.515H71.665zm-1.15-54.01a.514.514 0 110-1.029H1181.36a.514.514 0 010 1.029H70.514zm1.15-51.99a.514.514 0 110-1.029H1182.51c.28 0 .51.23.51.515 0 .284-.23.514-.51.514H71.665zm0-51.99a.515.515 0 010-1.03H1182.51c.28 0 .51.23.51.515 0 .284-.23.515-.51.515H71.665zm-1.15-51.99a.515.515 0 010-1.03H1181.36c.28 0 .51.23.51.515 0 .284-.23.515-.51.515H70.515z" fill="#D9E1E7" fill-opacity=".4"/><path d="M28.117 11.922c0 .693-.161 1.281-.484 1.765a3.03 3.03 0 01-1.297 1.094c-.542.25-1.154.375-1.836.375-.682 0-1.297-.125-1.844-.375a3.03 3.03 0 01-1.297-1.094c-.317-.484-.476-1.072-.476-1.765 0-.453.086-.867.258-1.242a3.01 3.01 0 01.742-.992 3.41 3.41 0 011.14-.649c.443-.156.93-.234 1.461-.234.698 0 1.32.135 1.868.406.546.266.976.633 1.289 1.101a2.8 2.8 0 01.476 1.61zm-1.453-.031a2.24 2.24 0 00-.273-1.118 1.934 1.934 0 00-.766-.765 2.31 2.31 0 00-1.14-.274c-.443 0-.826.092-1.15.274a1.91 1.91 0 00-.741.765 2.286 2.286 0 00-.266 1.118c0 .437.086.812.258 1.125.177.307.427.544.75.71.328.162.716.243 1.164.243.448 0 .833-.081 1.156-.242.323-.167.57-.404.742-.711.178-.313.266-.688.266-1.125zm1.188-5.305c0 .552-.146 1.05-.438 1.492a3.04 3.04 0 01-1.195 1.047c-.506.255-1.078.383-1.719.383-.651 0-1.232-.128-1.742-.383a2.98 2.98 0 01-1.188-1.047 2.688 2.688 0 01-.43-1.492c0-.662.144-1.224.43-1.688a2.85 2.85 0 011.196-1.062c.505-.245 1.08-.367 1.726-.367.651 0 1.23.122 1.735.367.505.245.9.599 1.187 1.062.292.464.438 1.026.438 1.688zm-1.446.023c0-.38-.08-.716-.242-1.007a1.777 1.777 0 00-.672-.688 1.906 1.906 0 00-1-.258c-.38 0-.713.081-1 .242a1.69 1.69 0 00-.664.672c-.156.292-.234.638-.234 1.04 0 .39.078.731.234 1.023.162.291.386.518.672.68.287.161.62.242 1 .242s.71-.081.992-.242a1.73 1.73 0 00.672-.68 2.08 2.08 0 00.242-1.024zm10.68 1.797v1.735c0 .932-.083 1.718-.25 2.359-.167.64-.406 1.156-.719 1.547-.312.39-.69.674-1.133.851a4.033 4.033 0 01-1.484.258 4.22 4.22 0 01-1.21-.164 2.876 2.876 0 01-1-.523 3.174 3.174 0 01-.75-.953c-.21-.391-.368-.865-.477-1.422a10.245 10.245 0 01-.165-1.953V8.406c0-.932.084-1.713.25-2.344.172-.63.415-1.135.727-1.515A2.645 2.645 0 0132 3.719c.443-.167.938-.25 1.484-.25.443 0 .85.054 1.22.164a2.76 2.76 0 011 .508c.29.229.538.536.741.921.209.38.367.847.477 1.399.11.552.164 1.2.164 1.945zm-1.453 1.969v-2.21c0-.511-.031-.96-.094-1.345a4.222 4.222 0 00-.258-1c-.114-.276-.26-.5-.437-.672a1.545 1.545 0 00-.602-.375 2.162 2.162 0 00-.758-.125 2.05 2.05 0 00-.914.196c-.265.125-.49.325-.672.601-.177.276-.312.638-.406 1.086-.094.448-.14.992-.14 1.633v2.211c0 .51.028.96.085 1.352.063.39.154.729.274 1.015.12.281.266.513.437.695.172.183.37.318.594.407.23.083.482.125.758.125.354 0 .664-.068.93-.203.265-.136.487-.347.664-.633.182-.292.317-.664.406-1.117a8.777 8.777 0 00.133-1.641zm3.187-3.96v-.603c0-.432.094-.825.282-1.18.187-.353.455-.637.804-.85.35-.214.763-.321 1.242-.321.49 0 .907.107 1.25.32.35.214.618.498.805.852.188.354.281.747.281 1.18v.601c0 .422-.093.81-.28 1.164a2.122 2.122 0 01-.798.852c-.343.213-.758.32-1.242.32s-.904-.107-1.258-.32a2.179 2.179 0 01-.804-.852 2.45 2.45 0 01-.282-1.164zm1.086-.603v.602c0 .24.044.466.133.68.094.213.234.388.422.523.187.13.422.196.703.196.281 0 .513-.066.695-.196.183-.135.318-.31.407-.523.088-.214.132-.44.132-.68v-.601a1.69 1.69 0 00-.14-.688 1.145 1.145 0 00-.414-.523c-.183-.136-.414-.204-.696-.204-.276 0-.507.068-.695.204-.182.13-.32.304-.414.523a1.776 1.776 0 00-.133.688zm4.453 7.008v-.61c0-.426.094-.817.282-1.17.187-.355.455-.639.804-.852.35-.214.763-.32 1.242-.32.49 0 .907.106 1.25.32.35.213.618.497.805.851.188.354.281.745.281 1.172v.61c0 .426-.093.817-.28 1.171a2.123 2.123 0 01-.798.852c-.343.213-.758.32-1.242.32s-.9-.107-1.25-.32a2.238 2.238 0 01-.812-.852 2.465 2.465 0 01-.282-1.172zm1.086-.61v.61c0 .24.045.47.133.688.094.213.234.388.422.523.188.13.422.196.703.196.281 0 .513-.066.695-.196a1.2 1.2 0 00.414-.523c.089-.214.133-.443.133-.688v-.61c0-.244-.047-.473-.14-.687a1.152 1.152 0 00-.414-.515c-.183-.136-.417-.203-.703-.203-.277 0-.508.067-.696.203a1.23 1.23 0 00-.414.515 1.778 1.778 0 00-.133.688zm1.602-6.968l-5.555 8.89-.812-.515 5.554-8.89.813.515zM26.492 57.61h.125v1.226h-.125c-.765 0-1.406.125-1.922.375a3.144 3.144 0 00-1.226.992 4.095 4.095 0 00-.657 1.39 6.39 6.39 0 00-.195 1.571v1.672c0 .505.06.953.18 1.344.12.385.284.71.492.976.208.266.443.466.703.602.266.135.542.203.828.203.334 0 .63-.063.89-.188.261-.13.48-.31.657-.539.182-.234.32-.51.414-.828.094-.318.14-.666.14-1.047 0-.338-.04-.664-.124-.976a2.606 2.606 0 00-.383-.844 1.84 1.84 0 00-.648-.586 1.813 1.813 0 00-.914-.219c-.401 0-.776.1-1.125.297a2.56 2.56 0 00-.852.766 2.058 2.058 0 00-.375 1.023l-.766-.007c.073-.584.209-1.081.407-1.493a3.18 3.18 0 01.75-1.015 2.84 2.84 0 011.007-.578 3.73 3.73 0 011.188-.188c.568 0 1.057.107 1.469.32.411.214.75.5 1.015.86.266.354.461.755.586 1.203.13.443.196.898.196 1.367A4.89 4.89 0 0128 66.797c-.151.469-.378.88-.68 1.234-.297.354-.664.63-1.101.828-.438.198-.946.297-1.524.297-.614 0-1.15-.125-1.61-.375a3.447 3.447 0 01-1.14-1.015 4.633 4.633 0 01-.68-1.407 5.56 5.56 0 01-.226-1.57v-.68c0-.802.08-1.588.242-2.359a6.3 6.3 0 01.836-2.094c.401-.625.956-1.122 1.664-1.492.709-.37 1.612-.555 2.711-.555zm10.594 4.796v1.735c0 .932-.083 1.718-.25 2.359-.167.64-.406 1.156-.719 1.547-.312.39-.69.674-1.133.851a4.033 4.033 0 01-1.484.258 4.22 4.22 0 01-1.21-.164 2.876 2.876 0 01-1-.523 3.174 3.174 0 01-.75-.953c-.21-.391-.368-.865-.477-1.422a10.245 10.245 0 01-.165-1.953v-1.735c0-.932.084-1.713.25-2.343.172-.63.415-1.136.727-1.516A2.645 2.645 0 0132 57.719c.443-.167.938-.25 1.484-.25.443 0 .85.054 1.22.164a2.76 2.76 0 011 .508c.29.229.538.536.741.922.209.38.367.846.477 1.398.11.552.164 1.2.164 1.945zm-1.453 1.969v-2.21c0-.511-.031-.96-.094-1.345a4.223 4.223 0 00-.258-1c-.114-.276-.26-.5-.437-.672a1.547 1.547 0 00-.602-.375 2.162 2.162 0 00-.758-.125 2.05 2.05 0 00-.914.196c-.265.125-.49.325-.672.601-.177.276-.312.638-.406 1.086-.094.448-.14.992-.14 1.633v2.211c0 .51.028.96.085 1.352.063.39.154.729.274 1.015.12.281.266.513.437.695.172.183.37.318.594.407.23.083.482.125.758.125.354 0 .664-.068.93-.203.265-.136.487-.347.664-.633.182-.292.317-.664.406-1.117a8.777 8.777 0 00.133-1.641zm3.187-3.96v-.602c0-.433.094-.826.282-1.18a2.18 2.18 0 01.804-.852c.35-.213.763-.32 1.242-.32.49 0 .907.107 1.25.32.35.214.618.498.805.852.188.354.281.747.281 1.18v.601c0 .422-.093.81-.28 1.164a2.123 2.123 0 01-.798.852c-.343.213-.758.32-1.242.32s-.904-.107-1.258-.32a2.18 2.18 0 01-.804-.852 2.449 2.449 0 01-.282-1.164zm1.086-.602v.601c0 .24.044.466.133.68.094.213.234.388.422.523.187.13.422.196.703.196.281 0 .513-.066.695-.196.183-.135.318-.31.407-.523.088-.214.132-.44.132-.68v-.602a1.69 1.69 0 00-.14-.687 1.145 1.145 0 00-.414-.523c-.183-.136-.414-.204-.696-.204-.276 0-.507.068-.695.204-.182.13-.32.304-.414.523a1.776 1.776 0 00-.133.688zm4.453 7.007v-.61c0-.426.094-.817.282-1.17.187-.355.455-.639.804-.853.35-.213.763-.32 1.242-.32.49 0 .907.107 1.25.32.35.214.618.498.805.852.188.354.281.745.281 1.172v.61c0 .426-.093.817-.28 1.171a2.123 2.123 0 01-.798.852c-.343.213-.758.32-1.242.32s-.9-.107-1.25-.32a2.238 2.238 0 01-.812-.852 2.465 2.465 0 01-.282-1.172zm1.086-.61v.61c0 .24.045.47.133.688.094.213.234.388.422.523.188.13.422.196.703.196.281 0 .513-.066.695-.196a1.2 1.2 0 00.414-.523c.089-.214.133-.443.133-.688v-.61c0-.244-.047-.473-.14-.687a1.152 1.152 0 00-.414-.515c-.183-.136-.417-.203-.703-.203-.277 0-.508.067-.696.203a1.23 1.23 0 00-.414.515 1.778 1.778 0 00-.133.688zm1.602-6.968l-5.555 8.89-.812-.515 5.554-8.89.813.515zm-18.414 60.93v1.187h-8.219v-.851l5.094-7.883h1.18l-1.266 2.281-3.367 5.266h6.578zm-1.586-7.547V124h-1.445v-11.375h1.445zm10.039 4.781v1.735c0 .932-.083 1.718-.25 2.359-.167.641-.406 1.156-.719 1.547a2.73 2.73 0 01-1.133.851 4.03 4.03 0 01-1.484.258 4.22 4.22 0 01-1.21-.164 2.876 2.876 0 01-1-.523 3.183 3.183 0 01-.75-.953c-.21-.391-.368-.865-.477-1.422a10.254 10.254 0 01-.165-1.953v-1.735c0-.932.084-1.713.25-2.344.172-.63.415-1.135.727-1.515a2.635 2.635 0 011.125-.828c.443-.167.938-.25 1.484-.25.443 0 .85.054 1.22.164a2.76 2.76 0 011 .508c.29.229.538.536.741.921.209.381.367.847.477 1.399.11.552.164 1.2.164 1.945zm-1.453 1.969v-2.211a8.5 8.5 0 00-.094-1.344 4.23 4.23 0 00-.258-1 1.98 1.98 0 00-.437-.672 1.566 1.566 0 00-.602-.375 2.17 2.17 0 00-.758-.125c-.343 0-.648.066-.914.196-.265.125-.49.325-.672.601-.177.276-.312.638-.406 1.086-.094.448-.14.992-.14 1.633v2.211c0 .51.028.961.085 1.352.063.39.154.729.274 1.015.12.281.266.513.437.696.172.182.37.317.594.406.23.083.482.125.758.125.354 0 .664-.068.93-.203.265-.136.487-.347.664-.633.182-.292.317-.664.406-1.117a8.79 8.79 0 00.133-1.641zm3.187-3.961v-.602c0-.432.094-.825.282-1.179.187-.354.455-.638.804-.852.35-.213.763-.32 1.242-.32.49 0 .907.107 1.25.32.35.214.618.498.805.852.188.354.281.747.281 1.179v.602c0 .422-.093.81-.28 1.164a2.128 2.128 0 01-.798.852c-.343.213-.758.32-1.242.32s-.904-.107-1.258-.32a2.184 2.184 0 01-.804-.852 2.448 2.448 0 01-.282-1.164zm1.086-.602v.602c0 .24.044.466.133.68.094.213.234.388.422.523.187.13.422.195.703.195.281 0 .513-.065.695-.195.183-.135.318-.31.407-.523.088-.214.132-.44.132-.68v-.602c0-.244-.046-.473-.14-.687a1.142 1.142 0 00-.414-.523c-.183-.136-.414-.204-.696-.204-.276 0-.507.068-.695.204-.182.13-.32.304-.414.523a1.778 1.778 0 00-.133.687zm4.453 7.008v-.609c0-.427.094-.818.282-1.172a2.17 2.17 0 01.804-.851c.35-.214.763-.321 1.242-.321.49 0 .907.107 1.25.321.35.213.618.497.805.851.188.354.281.745.281 1.172v.609c0 .427-.093.818-.28 1.172a2.128 2.128 0 01-.798.852c-.343.213-.758.32-1.242.32s-.9-.107-1.25-.32a2.243 2.243 0 01-.812-.852 2.466 2.466 0 01-.282-1.172zm1.086-.609v.609c0 .24.045.469.133.688.094.213.234.388.422.523.188.13.422.196.703.196.281 0 .513-.066.695-.196a1.2 1.2 0 00.414-.523c.089-.214.133-.443.133-.688v-.609c0-.245-.047-.474-.14-.688a1.152 1.152 0 00-.414-.515c-.183-.136-.417-.203-.703-.203-.277 0-.508.067-.696.203a1.23 1.23 0 00-.414.515 1.781 1.781 0 00-.133.688zm1.602-6.969l-5.555 8.891-.812-.516 5.554-8.89.813.515zm-18.649 64.57V180h-7.445v-1.039l3.727-4.149c.458-.51.812-.942 1.062-1.296.255-.36.432-.68.531-.961.105-.287.157-.578.157-.875a2.17 2.17 0 00-.235-1.016 1.755 1.755 0 00-.672-.734c-.296-.183-.656-.274-1.078-.274-.505 0-.927.099-1.265.297a1.83 1.83 0 00-.75.813 2.76 2.76 0 00-.25 1.203h-1.446a3.7 3.7 0 01.422-1.758 3.115 3.115 0 011.25-1.266c.552-.317 1.232-.476 2.04-.476.718 0 1.333.127 1.843.383.51.25.901.604 1.172 1.062.276.453.414.984.414 1.594 0 .333-.057.672-.172 1.015-.11.339-.263.678-.46 1.016-.194.339-.42.672-.68 1a15.66 15.66 0 01-.82.969l-3.048 3.304h5.703zm8.688-5.406v1.735c0 .932-.083 1.718-.25 2.359-.167.641-.406 1.156-.719 1.547a2.73 2.73 0 01-1.133.851 4.03 4.03 0 01-1.484.258 4.22 4.22 0 01-1.21-.164 2.876 2.876 0 01-1-.523 3.183 3.183 0 01-.75-.953c-.21-.391-.368-.865-.477-1.422a10.254 10.254 0 01-.165-1.953v-1.735c0-.932.084-1.713.25-2.344.172-.63.415-1.135.727-1.515a2.635 2.635 0 011.125-.828c.443-.167.938-.25 1.484-.25.443 0 .85.054 1.22.164a2.76 2.76 0 011 .508c.29.229.538.536.741.921.209.381.367.847.477 1.399.11.552.164 1.2.164 1.945zm-1.453 1.969v-2.211a8.5 8.5 0 00-.094-1.344 4.23 4.23 0 00-.258-1 1.98 1.98 0 00-.437-.672 1.566 1.566 0 00-.602-.375 2.17 2.17 0 00-.758-.125c-.343 0-.648.066-.914.196-.265.125-.49.325-.672.601-.177.276-.312.638-.406 1.086-.094.448-.14.992-.14 1.633v2.211c0 .51.028.961.085 1.352.063.39.154.729.274 1.015.12.281.266.513.437.696.172.182.37.317.594.406.23.083.482.125.758.125.354 0 .664-.068.93-.203.265-.136.487-.347.664-.633.182-.292.317-.664.406-1.117a8.79 8.79 0 00.133-1.641zm3.187-3.961v-.602c0-.432.094-.825.282-1.179.187-.354.455-.638.804-.852.35-.213.763-.32 1.242-.32.49 0 .907.107 1.25.32.35.214.618.498.805.852.188.354.281.747.281 1.179v.602c0 .422-.093.81-.28 1.164a2.128 2.128 0 01-.798.852c-.343.213-.758.32-1.242.32s-.904-.107-1.258-.32a2.184 2.184 0 01-.804-.852 2.448 2.448 0 01-.282-1.164zm1.086-.602v.602c0 .24.044.466.133.68.094.213.234.388.422.523.187.13.422.195.703.195.281 0 .513-.065.695-.195.183-.135.318-.31.407-.523.088-.214.132-.44.132-.68v-.602c0-.244-.046-.473-.14-.687a1.142 1.142 0 00-.414-.523c-.183-.136-.414-.204-.696-.204-.276 0-.507.068-.695.204-.182.13-.32.304-.414.523a1.778 1.778 0 00-.133.687zm4.453 7.008v-.609c0-.427.094-.818.282-1.172a2.17 2.17 0 01.804-.851c.35-.214.763-.321 1.242-.321.49 0 .907.107 1.25.321.35.213.618.497.805.851.188.354.281.745.281 1.172v.609c0 .427-.093.818-.28 1.172a2.128 2.128 0 01-.798.852c-.343.213-.758.32-1.242.32s-.9-.107-1.25-.32a2.243 2.243 0 01-.812-.852 2.466 2.466 0 01-.282-1.172zm1.086-.609v.609c0 .24.045.469.133.688.094.213.234.388.422.523.188.13.422.196.703.196.281 0 .513-.066.695-.196a1.2 1.2 0 00.414-.523c.089-.214.133-.443.133-.688v-.609c0-.245-.047-.474-.14-.688a1.152 1.152 0 00-.414-.515c-.183-.136-.417-.203-.703-.203-.277 0-.508.067-.696.203a1.23 1.23 0 00-.414.515 1.781 1.781 0 00-.133.688zm1.602-6.969l-5.555 8.891-.812-.516 5.554-8.89.813.515zm2.039 61.164v1.735c0 .932-.083 1.718-.25 2.359-.167.641-.406 1.156-.719 1.547a2.73 2.73 0 01-1.133.851 4.03 4.03 0 01-1.484.258 4.22 4.22 0 01-1.21-.164 2.876 2.876 0 01-1-.523 3.183 3.183 0 01-.75-.953c-.21-.391-.368-.865-.477-1.422a10.254 10.254 0 01-.165-1.953v-1.735c0-.932.084-1.713.25-2.344.172-.63.414-1.135.727-1.515a2.635 2.635 0 011.125-.828c.443-.167.938-.25 1.484-.25.443 0 .85.054 1.22.164a2.76 2.76 0 011 .508c.29.229.538.536.741.921.209.381.367.847.477 1.399.11.552.164 1.2.164 1.945zm-1.453 1.969v-2.211a8.5 8.5 0 00-.094-1.344 4.23 4.23 0 00-.258-1 1.98 1.98 0 00-.437-.672 1.566 1.566 0 00-.602-.375 2.17 2.17 0 00-.758-.125c-.343 0-.648.066-.914.196-.265.125-.49.325-.672.601-.177.276-.312.638-.406 1.086-.094.448-.14.992-.14 1.633v2.211c0 .51.028.961.086 1.352.062.39.153.729.273 1.015.12.281.266.513.437.696.172.182.37.317.594.406.23.083.482.125.758.125.354 0 .664-.068.93-.203.265-.136.487-.347.664-.633.182-.292.317-.664.406-1.117a8.79 8.79 0 00.133-1.641zm47.904 13.817c-2.192 0-4.096-1.008-4.096-2.928 0-1.36 1.104-2.336 2.4-2.768-1.2-.384-2.224-1.168-2.224-2.528 0-1.968 2.016-2.8 3.92-2.8 1.872 0 3.92.832 3.92 2.8 0 1.36-1.04 2.144-2.24 2.528 1.296.432 2.4 1.408 2.4 2.768 0 1.904-1.904 2.928-4.08 2.928zm0-6.432c.656-.112 2.016-.496 2.016-1.504 0-.896-.88-1.424-2.016-1.424-1.168 0-2.032.528-2.032 1.424 0 1.008 1.376 1.392 2.032 1.504zm0 4.768c1.184 0 2.192-.576 2.192-1.504 0-1.104-1.536-1.6-2.192-1.68-.672.08-2.208.576-2.208 1.68 0 .928.992 1.504 2.208 1.504zm5.995 1.792h-1.248l3.792-11.312h1.248l-3.792 11.312zm8.743-.32h-1.872v-8.24l-1.744 1.808-1.088-1.136 3.072-3.104h1.632V247zm197.993.192c-2.192 0-4.096-1.008-4.096-2.928 0-1.36 1.104-2.336 2.4-2.768-1.2-.384-2.224-1.168-2.224-2.528 0-1.968 2.016-2.8 3.92-2.8 1.872 0 3.92.832 3.92 2.8 0 1.36-1.04 2.144-2.24 2.528 1.296.432 2.4 1.408 2.4 2.768 0 1.904-1.904 2.928-4.08 2.928zm0-6.432c.656-.112 2.016-.496 2.016-1.504 0-.896-.88-1.424-2.016-1.424-1.168 0-2.032.528-2.032 1.424 0 1.008 1.376 1.392 2.032 1.504zm0 4.768c1.184 0 2.192-.576 2.192-1.504 0-1.104-1.536-1.6-2.192-1.68-.672.08-2.208.576-2.208 1.68 0 .928.992 1.504 2.208 1.504zm5.996 1.792h-1.248l3.792-11.312h1.248l-3.792 11.312zm12.327-.32h-7.728v-1.472c4.144-3.136 5.76-4.528 5.76-6.064 0-1.12-.96-1.632-1.936-1.632-1.248 0-2.208.512-2.88 1.28l-1.088-1.232c.944-1.136 2.448-1.712 3.936-1.712 2.064 0 3.872 1.168 3.872 3.296 0 1.968-1.808 3.728-4.672 5.888h4.736V247zm198.409.192c-2.192 0-4.096-1.008-4.096-2.928 0-1.36 1.104-2.336 2.4-2.768-1.2-.384-2.224-1.168-2.224-2.528 0-1.968 2.016-2.8 3.92-2.8 1.872 0 3.92.832 3.92 2.8 0 1.36-1.04 2.144-2.24 2.528 1.296.432 2.4 1.408 2.4 2.768 0 1.904-1.904 2.928-4.08 2.928zm0-6.432c.656-.112 2.016-.496 2.016-1.504 0-.896-.88-1.424-2.016-1.424-1.168 0-2.032.528-2.032 1.424 0 1.008 1.376 1.392 2.032 1.504zm0 4.768c1.184 0 2.192-.576 2.192-1.504 0-1.104-1.536-1.6-2.192-1.68-.672.08-2.208.576-2.208 1.68 0 .928.992 1.504 2.208 1.504zm5.996 1.792h-1.248l3.792-11.312h1.248l-3.792 11.312zm8.215-.128c-1.904 0-3.312-.768-4.032-1.728l1.008-1.232c.688.8 1.824 1.296 2.96 1.296 1.408 0 2.224-.64 2.224-1.632 0-1.056-.848-1.504-2.368-1.504-.448 0-1.072 0-1.232.016v-1.68c.192.016.816.016 1.232.016 1.248 0 2.192-.432 2.192-1.408 0-.992-.96-1.504-2.16-1.504-1.088 0-1.984.416-2.752 1.184l-.96-1.168c.816-.96 2.112-1.68 3.888-1.68 2.304 0 3.856 1.088 3.856 2.88 0 1.424-1.216 2.256-2.32 2.448 1.04.096 2.48.944 2.48 2.592 0 1.808-1.552 3.104-4.016 3.104zm201.521 0c-2.192 0-4.096-1.008-4.096-2.928 0-1.36 1.104-2.336 2.4-2.768-1.2-.384-2.224-1.168-2.224-2.528 0-1.968 2.016-2.8 3.92-2.8 1.872 0 3.92.832 3.92 2.8 0 1.36-1.04 2.144-2.24 2.528 1.296.432 2.4 1.408 2.4 2.768 0 1.904-1.904 2.928-4.08 2.928zm0-6.432c.656-.112 2.016-.496 2.016-1.504 0-.896-.88-1.424-2.016-1.424-1.168 0-2.032.528-2.032 1.424 0 1.008 1.376 1.392 2.032 1.504zm0 4.768c1.184 0 2.192-.576 2.192-1.504 0-1.104-1.536-1.6-2.192-1.68-.672.08-2.208.576-2.208 1.68 0 .928.992 1.504 2.208 1.504zm5.996 1.792h-1.248l3.792-11.312h1.248l-3.792 11.312zm11.207-.32h-1.872v-2.416h-5.088v-1.504l4.384-6.752h2.576v6.608h1.424v1.648h-1.424V247zm-1.872-4.064v-4.928l-3.248 4.928h3.248zm200.401 4.256c-2.192 0-4.096-1.008-4.096-2.928 0-1.36 1.104-2.336 2.4-2.768-1.2-.384-2.224-1.168-2.224-2.528 0-1.968 2.016-2.8 3.92-2.8 1.872 0 3.92.832 3.92 2.8 0 1.36-1.04 2.144-2.24 2.528 1.296.432 2.4 1.408 2.4 2.768 0 1.904-1.904 2.928-4.08 2.928zm0-6.432c.656-.112 2.016-.496 2.016-1.504 0-.896-.88-1.424-2.016-1.424-1.168 0-2.032.528-2.032 1.424 0 1.008 1.376 1.392 2.032 1.504zm0 4.768c1.184 0 2.192-.576 2.192-1.504 0-1.104-1.536-1.6-2.192-1.68-.672.08-2.208.576-2.208 1.68 0 .928.992 1.504 2.208 1.504zm5.996 1.792h-1.248l3.792-11.312h1.248l-3.792 11.312zm8.663-.128c-1.84 0-3.104-.624-3.968-1.648l1.072-1.28c.72.816 1.68 1.264 2.88 1.264 1.344 0 2.192-.832 2.192-1.872 0-1.152-.832-1.904-2.144-1.904-.912 0-1.664.288-2.336.928l-1.328-.384v-5.968h6.992v1.648h-5.12v3.088c.512-.512 1.392-.928 2.416-.928 1.792 0 3.408 1.264 3.408 3.44 0 2.224-1.68 3.616-4.064 3.616zm202.077 0c-2.2 0-4.1-1.008-4.1-2.928 0-1.36 1.1-2.336 2.4-2.768-1.2-.384-2.22-1.168-2.22-2.528 0-1.968 2.01-2.8 3.92-2.8 1.87 0 3.92.832 3.92 2.8 0 1.36-1.04 2.144-2.24 2.528 1.29.432 2.4 1.408 2.4 2.768 0 1.904-1.91 2.928-4.08 2.928zm0-6.432c.65-.112 2.01-.496 2.01-1.504 0-.896-.88-1.424-2.01-1.424-1.17 0-2.04.528-2.04 1.424 0 1.008 1.38 1.392 2.04 1.504zm0 4.768c1.18 0 2.19-.576 2.19-1.504 0-1.104-1.54-1.6-2.19-1.68-.68.08-2.21.576-2.21 1.68 0 .928.99 1.504 2.21 1.504zm5.99 1.792h-1.25l3.8-11.312h1.24l-3.79 11.312zm7.78-.32h-2.04l4.03-9.024h-5.54v-1.648h7.7v1.296l-4.15 9.376z" fill="#7C7C7C"/><path fill-rule="evenodd" clip-rule="evenodd" d="M413.798 58.392c-.107 0-.214.009-.315.026-4.231.678-8.284 1.581-12.081 2.69-.38.107-.56.32-.439.52.12.201.511.339.954.337a6.943 6.943 0 001.018-.211 97.16 97.16 0 0111.174-2.46c.249-.038.455-.121.573-.23.118-.11.138-.238.055-.355-.135-.188-.511-.316-.935-.318m35.924 4.554a1.7 1.7 0 00-.694.133c-.189.085-.297.203-.3.325-.002.123.101.24.286.328 3.018 1.46 5.767 3.038 8.218 4.717.135.09.332.153.554.181.172.022.346.004.518-.02.206-.03.423-.057.588-.183a.381.381 0 00.131-.16c.047-.121-.01-.246-.159-.347-2.517-1.721-5.338-3.34-8.433-4.838a1.705 1.705 0 00-.706-.138m-58.513 1.682a1.82 1.82 0 00-.626.103 172.271 172.271 0 00-9.9 4.134c-.19.084-.299.201-.303.324-.004.123.097.24.281.328.114.055.254.095.406.118.202.03.406.003.606-.035a3.27 3.27 0 00.75-.236 170.603 170.603 0 019.41-3.916c.323-.123.445-.328.306-.513-.14-.184-.511-.308-.928-.308m73.753 8.339c-.348 0-.671.087-.848.228-.178.141-.185.315-.019.46a108.788 108.788 0 015.998 5.463c.166.161.514.263.896.263l.426-.043c.491-.11.701-.386.468-.617a111.418 111.418 0 00-6.054-5.513c-.175-.148-.507-.24-.867-.24m-92.774.194c-.278 0-.543.054-.731.15a260.917 260.917 0 00-8.716 4.657c-.169.093-.251.215-.228.337a.28.28 0 00.057.12c.146.184.408.213.639.253.193.033.389.056.582.028a1.4 1.4 0 00.464-.143 264.861 264.861 0 018.66-4.625c.265-.135.333-.331.175-.5-.158-.167-.513-.275-.904-.274m-16.997 9.429c-.303 0-.59.065-.777.177a362.857 362.857 0 00-8.016 4.913c-.16.097-.229.22-.192.342a.34.34 0 00.113.158c.158.134.376.162.581.194.184.029.37.05.554.024a1.34 1.34 0 00.517-.169 380.547 380.547 0 017.984-4.893c.233-.14.277-.329.111-.488-.166-.16-.511-.26-.888-.26m121.229 1.487c-.134 0-.266.012-.389.036-.24.048-.43.14-.527.253-.097.114-.094.242.01.355a231.139 231.139 0 015.053 5.687c.151.175.514.29.918.29l.369-.033c.245-.044.441-.133.545-.246.103-.114.104-.242.003-.356a229.2 229.2 0 00-5.053-5.709c-.162-.168-.52-.276-.914-.273m-136.981 8.406c-.32 0-.621.072-.807.195a549.73 549.73 0 00-7.548 5.067c-.149.1-.205.224-.156.345.024.06.074.116.144.166.163.116.369.142.567.17.174.026.35.044.524.022.223-.029.421-.094.557-.185a520.637 520.637 0 017.527-5.055c.213-.14.24-.326.07-.48-.169-.154-.508-.25-.876-.25m697.04.99h-.12c-4.49.156-8.89.658-13.04 1.489-.43.085-.68.302-.58.52.09.216.5.37.97.368l.39-.036c3.94-.792 8.13-1.271 12.4-1.419.26-.008.51-.064.68-.157.17-.092.26-.213.24-.335-.01-.24-.43-.433-.94-.433m13 .663c-.49 0-.91.169-.98.398-.06.229.24.446.71.508 3.96.542 7.77 1.311 11.32 2.29.33.09.66.158 1 .202.35-.001.67-.087.85-.227.13-.105.17-.231.11-.35-.07-.119-.23-.22-.45-.283-3.85-1.086-7.98-1.934-12.28-2.521a2.269 2.269 0 00-.28-.018M486.3 95.51c-.119 0-.238.01-.35.03-.246.042-.445.129-.553.24-.107.113-.114.24-.018.355a326.822 326.822 0 014.6 5.774c.144.183.516.304.931.305l.341-.028c.508-.088.769-.353.583-.593a343.303 343.303 0 00-4.612-5.785c-.149-.18-.518-.298-.928-.297m526.066 2.509c-.21 0-.41.032-.58.091a96.81 96.81 0 00-10 4.125c-.18.087-.28.206-.28.329 0 .027.01.054.02.08.09.236.41.269.66.317.21.039.42.067.63.034.15-.023.28-.062.39-.115a95.767 95.767 0 019.76-4.03c.21-.072.35-.182.39-.304.04-.121-.03-.245-.19-.342-.19-.116-.49-.184-.8-.183m59.83 2.205c-.42-.001-.79.119-.93.302-.15.182-.03.386.28.513 3.3 1.334 6.43 2.755 9.38 4.257.11.059.26.102.42.127.2.031.41.004.61-.033.24-.044.54-.074.66-.291l.03-.096c.01-.123-.09-.243-.27-.332-3-1.529-6.18-2.975-9.54-4.332a1.72 1.72 0 00-.64-.113m-747.67 2.426c-.328 0-.636.075-.822.201a428.975 428.975 0 01-7.534 5.057c-.152.1-.213.224-.169.346.119.325.576.325.918.375l.058.009c.32.001.621-.072.804-.195a445.55 445.55 0 007.561-5.072c.206-.142.228-.326.055-.478-.172-.151-.509-.245-.875-.244m669.278 4.091c-.302.001-.588.065-.777.175a136.908 136.908 0 00-7.841 5.008c-.132.093-.184.2-.161.304.079.366.61.362.981.415.327 0 .633-.076.819-.202a134.874 134.874 0 017.752-4.956c.234-.139.277-.329.111-.488-.165-.159-.51-.26-.888-.259m-498.463.355c-.319 0-.618.073-.804.195-.185.122-.234.278-.131.42 1.503 2.008 2.94 3.95 4.311 5.824.137.189.514.315.937.313l.321-.024c.248-.039.452-.123.568-.233.116-.11.133-.238.048-.354a944.518 944.518 0 00-4.317-5.832c-.139-.185-.512-.309-.931-.309m594.831 2.13c-.22 0-.43.033-.61.095-.2.076-.34.187-.37.308-.03.122.04.245.2.342 2.56 1.531 5.17 3.195 7.76 4.952.13.09.33.154.54.183.18.024.36.004.54-.022.2-.028.4-.054.56-.168a.336.336 0 00.15-.171c.05-.121-.01-.246-.16-.347a166.521 166.521 0 00-7.83-4.996c-.19-.112-.47-.178-.78-.177m-780.965 3.49c-.311-.002-.605.066-.791.183a567.018 567.018 0 01-7.969 4.921c-.161.097-.233.22-.199.341a.318.318 0 00.101.151c.158.144.385.172.596.206.19.03.383.052.573.024.193-.029.365-.085.49-.162a574.456 574.456 0 007.98-4.929c.16-.097.229-.221.193-.342-.037-.122-.176-.232-.387-.304a1.832 1.832 0 00-.583-.092m669.668 4.2c-.345-.001-.666.083-.848.221a206.385 206.385 0 00-6.658 5.352c-.129.107-.161.234-.088.352.073.118.245.218.476.276l.483.059c.357 0 .687-.091.864-.236a200.985 200.985 0 016.624-5.323c.184-.143.189-.322.014-.467-.175-.146-.504-.236-.86-.235m-474.936 1.84c-.112 0-.223.009-.329.026-.249.039-.455.122-.571.233-.116.11-.131.238-.043.354a296.95 296.95 0 004.375 5.825c.142.184.514.307.931.307l.34-.028c.246-.042.447-.127.559-.238.111-.111.124-.238.036-.354a269.453 269.453 0 01-4.367-5.813c-.137-.187-.511-.312-.931-.312m601.252.605c-.19 0-.37.024-.52.068-.23.064-.39.168-.45.288-.06.12-.01.246.12.351l.2.152c2.2 1.654 4.41 3.377 6.59 5.128.18.143.5.231.85.23l.5-.063c.23-.061.39-.161.46-.28.07-.119.03-.245-.1-.351a269.509 269.509 0 00-6.62-5.155l-.2-.145c-.18-.138-.5-.221-.84-.219m-812.118 3.148c-.301-.001-.587.062-.777.172a692.38 692.38 0 01-8.309 4.781c-.169.094-.25.215-.225.338a.293.293 0 00.069.131c.151.171.401.2.626.238.194.032.392.056.586.027.181-.026.345-.077.47-.146a658.61 658.61 0 008.327-4.791c.237-.14.283-.331.116-.491-.165-.161-.513-.262-.893-.261m672.87 5.187c-.369-.001-.708.095-.879.248a348.963 348.963 0 00-6.025 5.505c-.119.109-.14.237-.057.353.083.116.263.213.498.266l.444.05c.373 0 .716-.099.886-.255a362.824 362.824 0 016.013-5.49c.122-.109.147-.236.069-.353-.079-.117-.254-.215-.486-.272a2.048 2.048 0 00-.459-.053m152.524 2.34c-.16 0-.33.02-.47.058-.23.058-.4.157-.47.275-.08.117-.05.244.08.351 2.11 1.795 4.17 3.606 6.2 5.433.17.154.5.251.87.251l.46-.052c.23-.055.41-.152.49-.269.08-.118.06-.245-.07-.354-2.03-1.834-4.1-3.651-6.22-5.452-.17-.149-.51-.241-.87-.241m-605.482.313a2.04 2.04 0 00-.371.033c-.243.046-.437.135-.54.248-.102.114-.104.242-.004.356 1.908 2.191 3.704 4.039 5.485 5.648.169.154.508.251.878.251l.457-.051c.234-.056.411-.153.491-.27.08-.117.056-.245-.067-.353-1.75-1.585-3.518-3.407-5.407-5.575-.153-.175-.517-.289-.92-.287m-236.707 1.665c-.29-.001-.565.059-.754.162a746.607 746.607 0 01-8.612 4.648c-.176.091-.266.212-.248.335a.252.252 0 00.046.112c.138.199.413.227.652.269.194.034.393.059.589.031.172-.025.328-.072.45-.138a819.627 819.627 0 008.629-4.655c.249-.138.305-.33.144-.494-.161-.163-.51-.268-.894-.268m348.192 5.135c-.361-.006-.701.081-.886.226-.185.146-.185.328 0 .474.185.146.525.233.886.226 4.326-.005 8.637.233 12.842.709l.233.014c.506.007.94-.169 1.001-.406.062-.236-.269-.455-.765-.507a117.714 117.714 0 00-13.305-.737m-13.13.557c-.057 0-.114.002-.171.006-4.368.364-8.69.841-12.946 1.427-.472.064-.771.281-.701.51.069.228.486.397.977.396l.276-.017a238.247 238.247 0 0112.736-1.405c.505-.04.859-.255.815-.495-.044-.24-.472-.423-.984-.422m342.724 1.023c-.379 0-.724.103-.888.263-1.594 1.524-3.166 3.042-4.715 4.536l-1.058 1.019c-.114.111-.13.238-.043.354.086.116.268.211.504.264l.432.046c.379-.001.725-.102.892-.262l1.055-1.019c1.555-1.495 3.125-3.007 4.711-4.535.146-.144.125-.313-.056-.448s-.496-.218-.836-.218m-304.237 1.342c-.454-.001-.851.144-.96.351-.109.207.097.423.499.522 3.696.924 7.2 2.009 10.466 3.24.217.082.442.143.672.181.185.031.374.053.56.028.297-.041.543-.147.651-.288.141-.185.019-.392-.305-.516-3.462-1.32-7.186-2.481-11.121-3.467a2 2 0 00-.46-.054m480.788.919c-.15 0-.3.016-.43.046-.23.053-.41.148-.5.264-.09.116-.07.243.05.354 1.94 1.849 3.84 3.706 5.71 5.568.16.163.51.266.9.267l.42-.045c.23-.051.42-.145.51-.26.09-.116.07-.243-.04-.354a338.587 338.587 0 00-5.73-5.58c-.17-.158-.51-.258-.89-.257m-544.669.046a2.1 2.1 0 00-.33.026 747.044 747.044 0 00-12.375 2.191c-.442.079-.699.297-.61.516.089.219.499.377.974.374l.363-.031c4.649-.859 8.68-1.572 12.319-2.182.246-.041.447-.126.56-.237.112-.11.126-.237.038-.353-.143-.184-.518-.306-.937-.306m-60.468.12a1.733 1.733 0 00-.62.104c-.206.076-.338.188-.365.311-.028.122.051.245.219.34 2.785 1.68 6.309 3.059 10.332 4.042l.441.048c.457.001.854-.146.96-.354.106-.209-.107-.424-.515-.52-3.771-.924-7.073-2.22-9.68-3.799-.191-.109-.477-.172-.778-.171m-266.601.119a1.665 1.665 0 00-.737.151 981.102 981.102 0 01-8.913 4.546c-.18.089-.277.209-.267.331a.226.226 0 00.027.092c.115.223.415.253.662.298.2.037.405.065.606.034.159-.024.305-.067.42-.126a961.395 961.395 0 008.94-4.554c.176-.091.268-.211.255-.333-.013-.123-.129-.238-.323-.32a1.771 1.771 0 00-.666-.119m302.336 4.059c-.094 0-.188.006-.279.018-4.129.595-8.407.93-12.723.996-.352.001-.675.09-.849.234-.173.144-.17.32.008.462.179.143.505.229.857.228h.013c4.493-.066 8.947-.412 13.245-1.03.476-.062.779-.281.71-.51-.07-.23-.49-.4-.984-.398m109.199 2.359c-.251 0-.494.045-.678.125-.194.083-.307.199-.315.322-.008.123.09.243.271.331a124.59 124.59 0 018.512 4.656c.127.075.298.129.489.156.19.027.383.005.573-.026.218-.035.454-.063.612-.217a.313.313 0 00.089-.143c.031-.123-.044-.246-.209-.341a127.356 127.356 0 00-8.625-4.716 1.672 1.672 0 00-.721-.146m272.1 2.146c-.377-.001-.724.098-.896.256a350.217 350.217 0 01-5.924 5.509c-.12.11-.143.237-.063.354.08.117.256.214.489.27l.455.051c.369 0 .708-.096.878-.25a359.627 359.627 0 005.945-5.524c.116-.111.133-.238.048-.355-.085-.116-.265-.212-.501-.266a2.052 2.052 0 00-.429-.044m-701.623.479c-.272 0-.532.052-.72.143a1068.74 1068.74 0 01-9.167 4.436c-.275.134-.354.332-.199.503.155.171.512.283.908.283.267 0 .522-.051.709-.14a858.174 858.174 0 009.182-4.444c.273-.133.349-.33.193-.501-.155-.17-.512-.28-.906-.28m900.938 1.854c-.34-.001-.65.078-.83.21-.19.131-.21.297-.08.441 1.82 1.886 3.58 3.77 5.29 5.649.16.171.52.281.91.281l.39-.037c.24-.048.43-.139.53-.252.1-.114.09-.242-.01-.355-1.72-1.882-3.49-3.77-5.3-5.664-.16-.168-.51-.275-.9-.274m-455.082 5.184c-.199 0-.394.028-.56.08-.216.069-.365.176-.414.297-.048.121.008.246.156.347a166.55 166.55 0 013.681 2.58 47.227 47.227 0 003.887 2.508c.129.075.302.128.494.154.188.026.378.003.565-.028.224-.037.471-.065.627-.231a.3.3 0 00.076-.134c.029-.122-.049-.245-.215-.34a46.686 46.686 0 01-3.77-2.432 169.396 169.396 0 00-3.704-2.601c-.186-.126-.492-.201-.818-.201m-464.327 1.788c-.261 0-.513.047-.699.134-3.136 1.465-6.267 2.91-9.394 4.332-.285.133-.373.332-.221.507.112.128.336.223.606.265.203.031.409.003.611-.035.258-.049.509-.129.748-.238a1271.46 1271.46 0 009.053-4.176c.185-.086.289-.204.289-.327 0-.122-.104-.24-.289-.327a1.727 1.727 0 00-.702-.133m707.877 1.643c-.356-.001-.686.089-.865.233-2.137 1.746-4.065 3.224-5.925 4.521-.329.227-.663.457-1.009.676-.154.099-.216.224-.173.345a.355.355 0 00.117.155c.165.135.389.162.6.193.177.027.357.046.535.023.213-.028.402-.089.534-.175.358-.231.708-.467 1.047-.702 1.886-1.315 3.851-2.812 6.004-4.578.173-.143.17-.319-.006-.462-.177-.142-.502-.229-.853-.229m221.919 2.735c-.13 0-.25.012-.37.034-.25.046-.44.135-.54.25-.11.113-.1.242 0 .355 1.68 1.921 3.32 3.828 4.92 5.72.15.177.51.294.92.292l.36-.031c.25-.045.44-.134.55-.246.1-.113.1-.241.01-.355a364.027 364.027 0 00-4.93-5.733c-.16-.174-.52-.287-.92-.286m-448.809 3.332c-.283 0-.553.057-.742.156-.175.092-.265.212-.248.335.016.122.137.237.336.317 3.19 1.303 6.554 2.51 10.07 3.612.351.11.711.19 1.076.24.437.002.824-.131.951-.327.128-.197-.036-.409-.401-.522a124.817 124.817 0 01-10.387-3.696 1.761 1.761 0 00-.655-.115m-499.901.912a1.694 1.694 0 00-.68.128 1355.483 1355.483 0 01-9.599 4.231c-.297.13-.394.332-.245.509.111.131.34.229.617.271.199.029.402.003.6-.033.251-.047.497-.122.731-.224 3.069-1.339 6.157-2.701 9.264-4.085.192-.084.304-.201.31-.324.006-.123-.094-.242-.277-.33a1.712 1.712 0 00-.719-.143m710.911 2.801c-.239 0-.471.04-.652.114a101.12 101.12 0 01-10.484 3.602c-.378.108-.555.321-.434.521.121.199.511.336.953.335a6.832 6.832 0 001.021-.213 103.471 103.471 0 0010.255-3.549c.307-.128.413-.332.267-.512-.146-.18-.514-.298-.924-.297m-189.133 3.139c-.369 0-.709.096-.882.249-.123.109-.147.237-.067.354.08.117.258.214.493.269 3.792.913 7.854 1.79 12.065 2.597l.377.034c.474.003.884-.153.977-.371.092-.218-.16-.436-.6-.518a257.96 257.96 0 01-11.91-2.563 1.923 1.923 0 00-.451-.052m436.616 1.3c-.12 0-.24.01-.35.03-.25.041-.45.127-.56.24-.11.112-.12.241-.02.356a463.97 463.97 0 014.59 5.781c.14.184.52.306.93.305l.34-.027c.24-.041.44-.127.56-.238.11-.111.12-.238.03-.354-1.48-1.899-3.01-3.83-4.6-5.794-.15-.18-.52-.299-.92-.299m-977.713 1.181a1.732 1.732 0 00-.671.122 1302.15 1302.15 0 01-9.793 4.135c-.308.127-.414.331-.267.511.11.136.348.236.634.276.193.027.388.003.58-.031a3.46 3.46 0 00.718-.211c3.126-1.306 6.28-2.638 9.464-3.999.298-.129.397-.331.25-.508-.147-.178-.511-.295-.917-.295m707.909.887c-.138 0-.274.014-.401.04a229.22 229.22 0 01-12.228 2.19c-.462.07-.747.287-.671.513.077.225.492.39.978.389l.305-.023c4.222-.638 8.37-1.38 12.427-2.222.429-.088.665-.306.565-.521-.1-.215-.509-.367-.977-.363m-142.438 1.319c-.426.001-.804.13-.936.321-.083.117-.062.244.058.353.12.109.329.191.579.227 4.107.621 8.398 1.196 12.757 1.707l.242.015c.507.007.943-.168 1.006-.405.062-.237-.269-.457-.765-.508a397.162 397.162 0 01-12.634-1.689 2.053 2.053 0 00-.307-.023m117.392 2.537a1.907 1.907 0 00-.227.012c-4.167.457-8.501.85-12.89 1.175-.502.041-.856.254-.816.493.041.238.463.423.972.425h.155c4.437-.33 8.822-.73 13.022-1.187.256-.026.479-.099.619-.203.139-.105.183-.231.121-.351-.105-.209-.503-.358-.962-.358m-91.83.48c-.494.01-.896.191-.938.422-.043.231.288.442.771.491 4.275.377 8.683.704 13.089.973h.131c.519.001.949-.188.983-.431.034-.244-.34-.457-.855-.489-4.373-.266-8.746-.59-12.983-.963a2.083 2.083 0 00-.194-.009m65.754 1.469h-.074c-4.317.183-8.728.318-13.121.386-.53.013-.942.22-.933.469.009.249.436.45.966.455l.033.001c4.433-.072 8.884-.203 13.234-.393.261-.009.504-.067.673-.161.169-.095.249-.217.222-.34-.035-.243-.479-.429-.998-.418m-39.61.126c-.51.001-.926.191-.94.43-.038.256.369.478.912.498 4.408.154 8.867.255 13.251.298h.02c.529-.006.952-.208.958-.457.005-.249-.408-.455-.937-.467a517.057 517.057 0 01-13.142-.298 2.48 2.48 0 00-.122 0m-636.881 1.415c-.24-.001-.472.04-.653.114a1692.43 1692.43 0 01-9.974 4.044c-.312.127-.424.331-.279.513.109.137.346.239.634.281.193.028.388.003.58-.03.237-.041.469-.107.693-.197 3.166-1.273 6.383-2.578 9.652-3.915.309-.127.418-.331.273-.511-.145-.181-.514-.3-.924-.299m1006.439 2.185c-.32 0-.62.073-.81.195-.18.122-.23.279-.13.421 1.5 2 2.93 3.945 4.29 5.834.14.188.52.315.94.314l.32-.023c.25-.038.45-.122.57-.232.11-.111.13-.238.05-.355-1.37-1.886-2.8-3.834-4.3-5.842-.14-.186-.51-.31-.93-.31m-1026.487 5.863c-.235 0-.462.038-.642.109-3.46 1.364-6.84 2.682-10.139 3.952-.204.077-.333.189-.359.311-.025.123.055.244.223.338.124.071.287.121.468.148.195.029.393.005.588-.028.224-.038.444-.099.657-.181 3.203-1.233 6.482-2.51 9.839-3.832.325-.124.447-.332.304-.517-.143-.185-.52-.307-.939-.304m1034.927 5.841c-.1 0-.21.008-.31.024-.25.037-.45.119-.57.228-.12.109-.15.236-.07.353 1.44 2.068 2.77 4.035 4 5.88.13.193.51.325.95.325l.29-.02c.25-.036.46-.118.58-.227.13-.108.15-.236.07-.354a352.652 352.652 0 00-4-5.889c-.13-.191-.51-.321-.93-.321M124.055 200.33c-.226 0-.445.036-.62.103-3.58 1.352-7.02 2.638-10.319 3.858-.207.075-.34.187-.37.309-.03.122.046.245.211.34.129.075.301.128.493.155.188.027.379.005.566-.026a3.51 3.51 0 00.653-.172 1955.01 1955.01 0 0010.012-3.744c.204-.076.334-.188.362-.31.028-.122-.048-.244-.213-.34-.19-.109-.476-.173-.777-.172m-20.728 7.668c-.218 0-.43.033-.604.095-3.79 1.37-7.3 2.624-10.496 3.754-.338.12-.475.328-.34.517.107.148.362.258.672.298.175.023.353.003.528-.024.225-.034.445-.089.66-.165a1603.3 1603.3 0 0010.189-3.645c.335-.122.468-.329.33-.517-.137-.188-.514-.313-.937-.312m1083.893 2.1c-.31 0-.61.069-.79.186-.19.116-.25.267-.16.407 1.46 2.299 2.69 4.291 3.67 5.929.12.199.51.337.96.337l.26-.017c.26-.033.47-.112.6-.219s.16-.234.09-.352a272.05 272.05 0 00-3.69-5.94c-.13-.196-.51-.33-.95-.331M82.217 215.451c-.21.001-.414.033-.583.091-6.802 2.337-10.703 3.607-10.742 3.62-.215.069-.363.175-.41.295-.047.12.01.244.16.344.138.094.343.159.573.186.16.018.32.001.48-.022.215-.031.428-.081.635-.149a831.032 831.032 0 0010.48-3.532c.343-.118.485-.327.352-.517-.132-.19-.51-.318-.936-.318M426.659 57.503a1.566 1.566 0 00-.612.124c-.269.124-.294.516-.032.653.175.092.422.146.685.15 4.254.123 8.399.68 12.145 1.635l.47.057c.453 0 .849-.144.96-.35.11-.206-.092-.421-.491-.521-3.999-1.02-8.426-1.614-12.967-1.742a2.034 2.034 0 00-.156-.007" fill="#F8CF61"/><path fill-rule="evenodd" clip-rule="evenodd" d="M71.387 219.539c-.27-.049-.484-.144-.597-.264-.112-.12-.112-.255 0-.375a621.5 621.5 0 015.67-6.041c.175-.183.58-.301 1.028-.299.14.001.28.013.41.038.557.105.82.39.588.639a646.64 646.64 0 00-5.666 6.035c-.172.184-.578.303-1.026.302l-.407-.035zm1117.973-.151c-4.47-.836-8.95-1.796-13.3-2.851-.35-.084-.57-.243-.57-.418-.01-.174.19-.338.52-.428.34-.091.76-.095 1.1-.011 4.26 1.032 8.63 1.969 13.1 2.805.48.091.75.32.65.547-.11.227-.55.391-1.07.392l-.43-.036zm-416.481-3.319a.42.42 0 01-.05.003c-.59-.006-1.065-.219-1.072-.482-.007-.267.47-.488 1.07-.494 4.809-.056 9.588-.349 14.25-.875.09-.01.183-.015.275-.015.501-.002.938.149 1.058.366.071.126.027.259-.122.37-.15.111-.393.191-.675.222-4.82.545-9.762.848-14.734.905zm-14.827-.677c-4.854-.511-9.54-1.299-13.942-2.343-.446-.105-.673-.333-.549-.551.123-.217.565-.369 1.071-.369.18.001.358.021.517.058 4.232 1.005 8.739 1.763 13.408 2.254.547.055.912.285.847.533-.065.247-.539.433-1.1.432l-.252-.014zm407.838-1.095c-4.47-.837-8.95-1.796-13.3-2.85-.34-.084-.56-.243-.57-.418-.01-.174.19-.337.52-.428.34-.091.76-.096 1.1-.012a253.12 253.12 0 0013.11 2.806c.47.092.74.32.64.547-.11.227-.55.391-1.07.392l-.43-.037zm-365.758-1.584l-.001-.003c-.251-.245-.011-.534.539-.647 4.379-.906 8.596-1.96 12.615-3.152.183-.053.397-.082.616-.082.486-.001.916.14 1.058.346.142.207-.037.43-.442.55a158.356 158.356 0 01-12.913 3.225l-.462.046c-.431.003-.825-.107-1.009-.28l-.001-.003zm-67.814-3.387a3.826 3.826 0 01-.784-.221c-3.554-1.427-6.799-3-9.693-4.697-.367-.214-.275-.52.205-.684.193-.064.428-.099.67-.099.342-.001.665.069.872.19 2.912 1.707 6.19 3.285 9.786 4.712.343.134.463.349.3.54-.121.142-.382.248-.697.292a2.148 2.148 0 01-.659-.033zm408.282-1.205a8.057 8.057 0 01-1.23-.262 229.002 229.002 0 01-11.24-3.721c-.23-.081-.37-.199-.4-.328-.03-.129.05-.258.24-.359.21-.115.52-.182.86-.182.25 0 .49.038.68.108a225.1 225.1 0 0011.71 3.851c.4.12.58.342.43.548-.14.206-.56.346-1.05.345zm-1057.892-.442c-.271-.049-.486-.144-.599-.264-.112-.12-.112-.255.001-.375a663.119 663.119 0 015.671-6.043c.152-.162.487-.275.878-.297.39-.023.779.05 1.016.19.238.14.29.325.135.487a613.355 613.355 0 00-5.667 6.034c-.17.183-.571.302-1.017.302l-.418-.034zm742.014-1.989v-.003c-.191-.097-.287-.224-.266-.353.021-.128.157-.249.378-.333a150.685 150.685 0 0010.472-4.485c.207-.1.499-.156.805-.155.437-.001.833.115 1.006.294.174.178.092.386-.208.527a149.613 149.613 0 01-10.24 4.407 4.088 4.088 0 01-.797.217l-.252.041a.592.592 0 01-.119.01c-.299-.005-.58-.064-.778-.165l-.001-.002zm292.348-5.878l-.01-.001a199.626 199.626 0 01-10.26-4.692c-.26-.13-.35-.312-.23-.478.12-.166.43-.291.82-.327.38-.037.78.021 1.04.15a198.74 198.74 0 0010.16 4.64c.42.189.42.49.01.681-.41.191-1.08.203-1.53.027zm-403.317-.9l-.003-.004a121.275 121.275 0 01-6.989-5.763c-.27-.241-.049-.534.493-.654.152-.036.321-.053.492-.053.419.001.8.107.986.274a116.984 116.984 0 006.926 5.708c.304.233.127.532-.396.668l-.555.067c-.39.001-.752-.091-.952-.239-.002-.001-.002-.002-.002-.004zm131.546-2.578c-.25-.038-.525-.065-.704-.244-.16-.159-.122-.351.135-.499a136.299 136.299 0 008.466-5.268c.216-.147.591-.231.985-.222.394.01.746.113.924.269.178.157.155.344-.061.491a134.773 134.773 0 01-8.567 5.331c-.143.081-.34.14-.56.169a2.212 2.212 0 01-.618-.027zm-751.53-.696c-.556-.107-.813-.393-.575-.639a748.271 748.271 0 015.899-5.989c.173-.178.567-.294 1.004-.294.154 0 .306.015.445.043.555.109.805.398.561.645a890.197 890.197 0 00-5.893 5.983c-.173.179-.57.295-1.008.295l-.433-.044zM1097.3 190.12a180.464 180.464 0 01-8.74-5.258c-.35-.222-.22-.527.27-.681.19-.055.4-.085.62-.086.36-.001.7.077.91.209 2.78 1.788 5.7 3.54 8.66 5.213.26.147.3.34.14.5-.18.177-.45.204-.7.242l-.12.018c-.13.02-.25.032-.38.021-.26-.02-.5-.083-.66-.177v-.001zm-396.785-2.895v-.001a172.992 172.992 0 01-5.687-6.024c-.227-.251.046-.536.61-.637.564-.101 1.204.021 1.431.271a174.652 174.652 0 005.659 5.997c.241.245-.009.531-.561.639l-.443.043c-.435.001-.83-.112-1.01-.288h.001zm160.669-1.773c-.255-.063-.442-.169-.521-.293-.079-.126-.043-.259.1-.372a121.024 121.024 0 005.066-4.246l1.69-1.508c.175-.157.525-.26.918-.27.392-.011.768.072.985.218.217.145.243.332.068.489l-1.694 1.508a122.354 122.354 0 01-5.113 4.291c-.195.154-.563.249-.961.249l-.538-.066zm-755.524-1.765c-.266-.053-.473-.151-.576-.272-.102-.121-.093-.256.028-.374a755.898 755.898 0 016.135-5.941c.18-.172.568-.283.996-.284.16 0 .319.016.464.048.264.054.469.153.569.275.1.121.087.255-.036.373a750.623 750.623 0 00-6.124 5.933c-.18.175-.571.287-1.002.287l-.454-.045zm974.87-4.302v-.001a168.635 168.635 0 01-7.36-5.659c-.29-.238-.09-.534.44-.664.16-.039.35-.059.53-.059.4 0 .77.098.96.255a168.56 168.56 0 007.31 5.613c.16.117.2.253.13.377-.2.335-.68.319-1.07.367-.38.001-.73-.085-.94-.229zm-390.998-4.279h.001a457.368 457.368 0 01-5.078-6.121c-.1-.122-.087-.257.037-.374.123-.117.346-.208.62-.252.119-.021.245-.03.372-.03.463.001.877.129 1.039.322a489.753 489.753 0 005.068 6.117c.102.121.093.255-.028.373s-.342.209-.615.254l-.386.033c-.461-.001-.872-.129-1.03-.321v-.001zm184.971-1.266c-.262-.056-.463-.157-.558-.279-.094-.123-.075-.257.053-.373 2.154-1.959 4.293-3.913 6.416-5.862.172-.157.52-.262.912-.275.393-.013.771.069.992.214.221.145.251.331.08.488-2.129 1.948-4.27 3.903-6.423 5.865-.184.168-.568.274-.988.274l-.484-.052zm-756.478-2c-.549-.116-.782-.407-.522-.652a728.35 728.35 0 016.39-5.887c.185-.167.567-.273.986-.274.169 0 .337.018.488.052.545.119.77.412.503.654a641.763 641.763 0 00-6.379 5.876c-.183.171-.569.28-.994.28l-.472-.049zm948.415-3.917v-.003a156.216 156.216 0 01-6.15-5.931c-.24-.246.01-.531.56-.639.14-.026.29-.039.45-.04.43.001.83.116 1 .295 1.97 2.009 4.03 3.993 6.11 5.892.27.242.04.534-.5.652l-.48.051c-.42 0-.81-.106-.99-.274v-.003zm-387-5.065c.001 0 .002-.002.001-.003a325.332 325.332 0 00-5.13-6.096c-.141-.163-.076-.347.172-.482.247-.136.638-.203 1.026-.176.388.028.714.145.855.308a320.466 320.466 0 015.152 6.116c.206.254-.088.534-.657.627l-.378.029c-.466.002-.884-.127-1.043-.321-.001-.001 0-.003.002-.002zm207.896-.744c-.262-.057-.463-.157-.558-.28-.094-.122-.075-.257.053-.373 2.159-1.972 4.311-3.924 6.456-5.855.269-.243.928-.342 1.472-.222.544.119.767.412.499.654a1262.03 1262.03 0 00-6.451 5.851c-.186.168-.57.274-.99.274l-.481-.049zm-756.416-2.009c-.261-.058-.459-.159-.551-.282-.092-.123-.071-.257.06-.372a753.438 753.438 0 016.675-5.821c.18-.156.533-.256.925-.265.392-.008.765.077.977.224.213.147.233.333.053.488a598.42 598.42 0 00-6.663 5.812c-.184.167-.565.273-.983.274l-.493-.058zm923.57-4.091c-2.03-2.056-4.04-4.03-6.03-5.921-.17-.159-.13-.344.09-.488.23-.144.61-.222 1-.208.39.015.73.122.9.28 2 1.9 4.01 3.882 6.05 5.946.12.118.13.253.02.374-.1.121-.31.218-.58.27l-.44.041c-.44 0-.84-.118-1.02-.299l.01.005zm-385.66-5.282v-.001c-2.11-2.194-4.105-4.122-6.104-5.89-.176-.156-.151-.342.065-.487.216-.146.591-.23.983-.219.392.01.741.112.917.269a102.369 102.369 0 016.16 5.945c.237.248-.023.534-.579.639l-.434.04c-.438 0-.835-.116-1.009-.295-.001-.001 0-.001.001-.001zm231.501-.301c-.541-.122-.756-.416-.481-.656a470.337 470.337 0 016.756-5.796c.296-.227.941-.308 1.462-.186.521.123.731.406.478.642a426.555 426.555 0 00-6.737 5.78c-.188.163-.567.266-.98.266l-.498-.05zm-755.94-1.931c-.257-.061-.449-.166-.533-.29-.085-.124-.055-.258.083-.372a564.07 564.07 0 017.008-5.744c.195-.157.566-.254.968-.254.184 0 .365.021.525.061.257.063.446.168.528.292.081.125.047.259-.095.372a538.15 538.15 0 00-6.991 5.734c-.192.159-.565.258-.971.258l-.522-.057zm340.028-2.767c-.569-.035-.981-.258-.947-.513.033-.255.502-.455 1.076-.459.057 0 .113.002.169.005 4.227.256 8.487.385 12.753.387l1.688-.007h.117c.589.021 1.036.245 1.014.508-.022.262-.505.471-1.097.472l-1.722.008a217.673 217.673 0 01-13.051-.401zm28.251-.613c.002 0 .003-.002.002-.004-.092-.265.314-.515.911-.559 4.779-.352 9.504-.834 14.15-1.443.102-.015.209-.022.316-.022.546.001 1.006.181 1.082.421.075.24-.257.469-.78.537a254.106 254.106 0 01-14.412 1.472l-.179.005c-.537.002-.999-.169-1.093-.403 0-.002.001-.004.003-.004zm529.41-.882s.01-.001 0-.002a220.245 220.245 0 00-6.77-5.748c-.14-.114-.17-.248-.09-.372.08-.125.27-.229.53-.291.16-.04.34-.061.52-.061.41 0 .78.098.97.255a227.46 227.46 0 016.82 5.784c.13.115.15.25.06.372-.09.123-.29.224-.55.282l-.5.053c-.42.003-.8-.102-.99-.269v-.003zm-572.139.115c-4.73-.62-9.367-1.374-13.88-2.257-.369-.068-.627-.218-.674-.394-.048-.176.123-.35.446-.454a2.308 2.308 0 011.109-.047c4.428.867 8.977 1.606 13.619 2.212.528.068.862.298.783.54-.079.241-.546.421-1.095.419l-.308-.019zm70.907-2.74c.001 0 .002-.001.001-.002-.108-.12-.104-.254.011-.374.116-.12.335-.214.608-.262 4.29-.772 8.756-1.674 13.267-2.679.152-.034.32-.052.491-.052.508 0 .951.156 1.069.375.117.221-.12.448-.575.55a337.583 337.583 0 01-13.426 2.712l-.411.036c-.453.004-.863-.116-1.036-.302-.001-.001 0-.002.001-.002zm114.728-2.399v-.002c-2.58-1.807-5.52-3.509-8.785-5.082-.414-.198-.39-.507.053-.691a2.03 2.03 0 01.786-.133c.292.005.568.061.766.156 3.357 1.618 6.38 3.367 9.035 5.225.158.109.212.241.151.368-.171.35-.674.333-1.059.384l-.016.002c-.377.001-.729-.084-.932-.225-.001-.001 0-.002.001-.002zm-212.691-.068a280.068 280.068 0 01-12.492-3.478c-.462-.157-.567-.447-.24-.661.327-.215.972-.278 1.472-.145a276.968 276.968 0 0012.342 3.435c.434.11.647.335.519.549-.128.214-.564.364-1.063.364l-.538-.064zm471.188-.232c-.525-.134-.709-.431-.41-.666a225.69 225.69 0 017.459-5.634c.207-.149.576-.238.97-.233.393.005.75.103.937.257.187.154.175.341-.032.489a218.763 218.763 0 00-7.421 5.602c-.194.153-.56.248-.956.248l-.547-.063zm-755.518-1.851c-.254-.063-.441-.17-.518-.295-.077-.125-.039-.259.107-.371 2.442-1.898 4.91-3.78 7.404-5.647.199-.149.559-.241.949-.241.197 0 .39.024.558.069.522.139.694.438.384.67a478.6 478.6 0 00-7.392 5.632c-.194.153-.559.247-.954.246l-.538-.063zm408.599-1.189c.002.001.002-.001.001-.002-.293-.233-.113-.528.407-.663 2.053-.53 4.128-1.082 6.226-1.657 2.19-.598 4.327-1.154 6.412-1.666a2.22 2.22 0 01.528-.063c.5.001.937.151 1.063.367.127.215-.089.441-.525.551a261.916 261.916 0 00-6.327 1.643c-2.11.579-4.202 1.135-6.275 1.67l-.552.067c-.396 0-.762-.093-.959-.245-.001-.001 0-.002.001-.002zM1028 132.869v-.001a145.657 145.657 0 00-7.97-5.418c-.17-.106-.24-.237-.19-.365.05-.128.21-.241.45-.316.19-.058.41-.09.64-.091.36-.001.69.077.9.207a146.62 146.62 0 018.06 5.477c.16.119.2.257.12.381-.2.331-.68.315-1.06.363-.39 0-.75-.089-.95-.236v-.001zm-609.115-1a4.05 4.05 0 01-.745-.182 401.338 401.338 0 01-11.024-4.014c-.297-.115-.436-.291-.362-.462.073-.172.347-.313.718-.371.371-.058.784-.023 1.082.091a394.473 394.473 0 0011.305 4.108c.37.128.516.347.364.544-.119.154-.399.268-.738.311-.2.026-.401.004-.6-.025zm216.843-1.723c-4.1-1.057-8.611-1.76-13.298-2.071-.601-.041-1.015-.29-.926-.558.078-.239.538-.415 1.08-.416.058.001.116.002.173.006 4.959.33 9.733 1.073 14.071 2.191.431.11.641.336.512.55-.129.214-.564.362-1.062.363l-.55-.065zm-42.798-.459c.001.001.003-.001.002-.003-.104-.119-.098-.251.016-.368.116-.119.333-.212.604-.26a148.15 148.15 0 0114.289-1.825c.049-.004.1-.005.15-.004.544-.006 1.017.165 1.117.403.049.128-.019.26-.188.365-.169.107-.426.178-.714.2-4.739.377-9.379.97-13.847 1.768l-.411.034c-.45 0-.854-.122-1.02-.307-.001-.001 0-.003.002-.003zm337.165-1.777c-.424-.059-1.083-.052-1.104-.479-.006-.1.058-.202.196-.29a130.966 130.966 0 018.956-5.215c.21-.109.517-.171.84-.171.261 0 .514.04.715.114.464.174.521.483.13.689a124.284 124.284 0 00-8.83 5.142c-.207.132-.544.21-.903.21zm-756.551-2.075c-.248-.067-.425-.177-.491-.302-.067-.126-.018-.258.135-.369a371.186 371.186 0 017.895-5.516c.203-.138.55-.222.922-.222.214 0 .424.027.604.078.507.149.649.452.318.678a401.41 401.41 0 00-7.87 5.496c-.199.145-.553.232-.934.231l-.579-.074zm222.599-2.505v-.001a570.401 570.401 0 01-10.658-4.49c-.282-.122-.395-.301-.299-.471.097-.169.389-.302.767-.35.378-.047.784-.001 1.066.121a588.68 588.68 0 0010.613 4.473c.289.118.414.296.328.466-.086.17-.37.307-.745.359-.374.052-.783.012-1.071-.106l-.001-.001zm614.987-.992c-3.13-1.634-6.54-3.161-10.19-4.564-.3-.113-.44-.289-.37-.461.07-.172.34-.313.71-.371.37-.059.79-.025 1.09.089 3.73 1.437 7.22 3 10.42 4.674.26.133.33.31.22.466-.16.218-.47.244-.73.288l-.32.052-.01.001c-.32 0-.62-.063-.83-.172 0-.001 0-.002.01-.002zm-62.787-4.45c-.193-.097-.29-.225-.271-.354.019-.13.152-.25.372-.336 3.712-1.479 7.856-2.73 12.32-3.718.148-.031.31-.047.474-.047.514-.001.96.156 1.074.379.115.223-.134.45-.597.548-4.126.917-7.967 2.067-11.428 3.421-.261.102-.53.177-.807.223a2.132 2.132 0 01-.622.032 1.61 1.61 0 01-.525-.153l.01.005zm-758.212-2.915c-.377-.053-.88-.042-1.027-.393-.053-.128.011-.26.177-.366a345.111 345.111 0 018.542-5.331c.208-.124.536-.197.885-.197.415 0 .794.104.981.268.187.165.15.363-.096.511a345.502 345.502 0 00-8.503 5.304c-.204.132-.542.211-.903.211l-.056-.007zm184.944-.74v-.001a865.83 865.83 0 01-10.202-4.686c-.271-.126-.369-.307-.259-.475.111-.168.414-.296.796-.337.382-.041.784.011 1.055.138a886.634 886.634 0 0010.18 4.677c.275.125.379.305.274.473-.105.169-.405.299-.786.343-.38.043-.783-.007-1.058-.131v-.001zm613.925.04c-4.208-.897-8.805-1.373-13.47-1.396-.627.004-1.154-.209-1.207-.486-.026-.125.066-.249.254-.341.172-.085.409-.138.663-.147a.07.07 0 01.073.071c0 .082.113.102.141.025l.016-.045a.079.079 0 01.076-.053c4.98.024 9.887.531 14.38 1.486.467.098.721.325.609.549-.111.224-.558.383-1.073.383l-.462-.046zm-634.179-9.479a1717.244 1717.244 0 01-9.936-4.796c-.403-.2-.368-.508.08-.69.447-.18 1.139-.167 1.551.03 3.357 1.637 6.663 3.234 9.915 4.791.274.127.372.31.257.479-.115.169-.425.296-.812.335-.386.039-.789-.018-1.055-.149 0-.001 0 0 0 0zm-147.503-.365c-.254-.039-.536-.065-.712-.252-.148-.159-.104-.348.153-.492a276.244 276.244 0 019.421-5.035c.209-.107.513-.169.832-.168.264 0 .519.043.716.12.221.085.356.206.376.335.02.13-.077.257-.269.354a267.921 267.921 0 00-9.353 5.002 1.576 1.576 0 01-.553.163 2.199 2.199 0 01-.611-.027zm127.717-9.265v-.002c-3.203-1.584-6.462-3.2-9.777-4.85-.29-.143-.363-.35-.185-.526.177-.177.572-.29 1.007-.29.314 0 .614.06.821.166 3.311 1.649 6.57 3.266 9.778 4.85.251.126.331.293.246.445-.135.244-.469.27-.744.317l-.316.053a.087.087 0 01-.016.002c-.311-.001-.607-.06-.815-.163l.001-.002zM226.2 94.528v-.002c-.431-.189-.438-.497-.015-.69a210.996 210.996 0 0110.718-4.507c.198-.078.453-.12.717-.12.319 0 .622.061.832.168.192.097.289.224.269.354-.02.129-.156.249-.376.333a210.864 210.864 0 00-10.593 4.457c-.425.192-1.118.195-1.553.008l.001-.001zm22.039-8.58v-.001c-.34-.221-.218-.523.276-.678a150.328 150.328 0 0112.712-3.352c.149-.032.314-.05.481-.05.511 0 .955.157 1.069.38.115.221-.129.449-.589.549-4.207.921-8.25 1.983-12.096 3.176a4.257 4.257 0 01-.649.148l-.29.042a.098.098 0 01-.016.001c-.36 0-.697-.08-.899-.213-.001 0 0-.002.001-.001zm67.438-.247a4.057 4.057 0 01-.816-.227c-3.452-1.362-7.292-2.516-11.421-3.434-.462-.099-.708-.327-.593-.549.115-.222.561-.379 1.074-.378.168 0 .334.018.486.05 4.469.991 8.614 2.249 12.32 3.737.342.135.46.35.297.54-.123.144-.389.25-.709.294a2.152 2.152 0 01-.638-.033zm-41.372-5.413c.002.001.005-.002.003-.005-.058-.124-.005-.254.15-.361.157-.11.406-.187.691-.214 3.4-.339 6.873-.512 10.357-.516 1.517 0 3.032.035 4.54.106.391.013.736.119.905.275.169.158.137.343-.084.487-.222.143-.599.224-.989.21h-.068a87.856 87.856 0 00-4.312-.103c-3.316.004-6.621.17-9.856.494l-.236.012c-.525.007-.987-.153-1.105-.38-.002-.003.001-.006.004-.005z" fill="#6B75CA"/><path fill-rule="evenodd" clip-rule="evenodd" d="M71.794 219.574c-.27-.036-.554-.069-.776-.228a.816.816 0 01-.228-.24.554.554 0 010-.586 918.767 918.767 0 015.67-9.449c.175-.286.58-.471 1.028-.467.14 0 .28.02.41.058.557.165.82.611.588 1a979.488 979.488 0 00-5.666 9.439c-.172.288-.578.475-1.026.473zm1117.986-.234a5.45 5.45 0 01-.83-.178 182.534 182.534 0 01-12.9-4.338c-.34-.132-.56-.381-.57-.653-.01-.274.2-.529.53-.671a1.53 1.53 0 011.1-.017c4.26 1.615 8.63 3.08 13.1 4.388.48.143.75.5.65.856-.11.355-.56.611-1.08.613zm-416.913-5.246a.122.122 0 01-.026.003c-.595-.005-1.077-.339-1.084-.755-.007-.417.47-.762 1.07-.772a91.625 91.625 0 0014.25-1.368c.09-.015.183-.023.275-.024.501-.003.938.234 1.058.572a.571.571 0 01-.122.579c-.15.174-.393.299-.675.348a94.584 94.584 0 01-14.746 1.417zm-14.815-1.06c-4.854-.8-9.54-2.032-13.942-3.665-.446-.165-.673-.521-.549-.862.123-.34.565-.578 1.071-.577.18.001.358.032.517.091 4.232 1.572 8.739 2.756 13.408 3.525.547.086.912.445.847.833-.065.387-.539.678-1.1.676l-.252-.021zm408.258-1.656a5.576 5.576 0 01-.83-.179 181.578 181.578 0 01-12.89-4.337c-.35-.13-.56-.379-.57-.652-.01-.273.19-.529.52-.671a1.53 1.53 0 011.1-.018c4.26 1.614 8.63 3.079 13.1 4.389.48.143.75.5.65.856-.11.354-.55.61-1.08.612zm-366.178-2.536l-.002-.004c-.25-.383-.01-.835.54-1.012a111.997 111.997 0 0012.615-4.931c.183-.083.397-.128.616-.128.486-.002.916.218 1.058.541.142.324-.037.673-.442.86a114.018 114.018 0 01-12.685 4.97 3.13 3.13 0 01-.466.112 1.562 1.562 0 01-.447.021c-.34-.046-.634-.202-.786-.424l-.001-.005zm-67.829-5.302a2.649 2.649 0 01-.728-.316c-3.57-2.239-6.828-4.707-9.733-7.371-.367-.335-.275-.813.205-1.07a1.46 1.46 0 01.67-.156c.342-.001.665.109.872.298 2.912 2.671 6.19 5.139 9.786 7.37.343.21.463.546.3.844-.118.218-.37.381-.676.453-.23.054-.468.009-.696-.052zm408.017-1.938a2.9 2.9 0 01-.66-.216 177.65 177.65 0 01-11.53-5.957c-.23-.127-.37-.311-.4-.513-.03-.201.05-.403.24-.56.21-.18.52-.285.86-.286.25.001.49.06.68.17a175.04 175.04 0 0011.71 6.022c.4.188.58.536.43.858-.11.256-.4.447-.76.514-.19.035-.38.007-.57-.032zm-1057.196-.58c-.278-.035-.57-.067-.798-.233a.804.804 0 01-.219-.233.551.551 0 01.001-.586 973.747 973.747 0 015.671-9.453c.152-.253.487-.43.878-.465.39-.035.779.079 1.016.298.238.219.29.509.135.761a924.788 924.788 0 00-5.667 9.438c-.17.287-.571.473-1.017.473zm741.598-3.164c.001-.002 0-.003-.001-.004-.19-.152-.286-.351-.265-.552.021-.202.157-.39.378-.522a130.117 130.117 0 0010.472-7.015c.207-.156.499-.244.805-.243.437 0 .833.181 1.006.46.174.279.092.604-.208.825a129.943 129.943 0 01-10.279 6.915 2.729 2.729 0 01-.743.313l-.201.052a.782.782 0 01-.254.029 1.298 1.298 0 01-.709-.254l-.001-.004zm292.348-9.194l-.01-.001a177.95 177.95 0 01-10.26-7.339c-.26-.203-.35-.488-.23-.748.12-.26.43-.454.82-.511.38-.058.78.032 1.04.235 3.29 2.53 6.71 4.972 10.16 7.258.42.294.42.765.01 1.065-.41.298-1.08.317-1.53.042v-.001zm-403.317-1.407c-.001-.003-.001-.006-.003-.008a154.401 154.401 0 01-6.989-9.012c-.27-.377-.049-.835.493-1.023.152-.056.321-.084.492-.084.419.002.8.168.986.429a149.128 149.128 0 006.926 8.928c.247.296.177.66-.14.901-.156.119-.354.162-.546.199l-.051.009a1.332 1.332 0 01-.431.026c-.304-.041-.572-.17-.735-.358a.019.019 0 01-.002-.007zm131.534-4.036c-.242-.058-.498-.127-.652-.322-.205-.259-.182-.588.095-.837a145.015 145.015 0 008.466-8.24c.216-.229.591-.362.985-.346.394.015.746.175.924.42.178.245.155.537-.061.767a143.212 143.212 0 01-8.567 8.338c-.14.125-.331.215-.544.261-.213.046-.434.009-.646-.041zm-751.518-1.086c-.556-.167-.813-.614-.575-1 1.868-2.999 3.837-6.131 5.899-9.367.173-.279.567-.459 1.004-.46.154 0 .306.023.445.068.555.171.805.622.561 1.008a1307.208 1307.208 0 00-5.893 9.358c-.113.183-.322.324-.575.4-.28.083-.578.039-.866-.007zm1003.531-8.63a188.725 188.725 0 01-8.74-8.224c-.35-.347-.22-.824.27-1.065.19-.086.4-.134.62-.135.36-.001.7.121.91.326a184.87 184.87 0 008.66 8.154c.28.248.3.579.1.839-.16.193-.41.262-.65.319l-.03.009c-.19.045-.39.077-.58.04a1.168 1.168 0 01-.56-.262v-.001zm-396.785-4.529v-.001a258.077 258.077 0 01-5.687-9.423c-.227-.392.046-.838.61-.995.564-.158 1.204.032 1.431.424a262.652 262.652 0 005.659 9.38c.208.331.05.71-.352.916a1.392 1.392 0 01-.431.117l-.178.027a.51.51 0 01-.087.006c-.417-.01-.792-.184-.966-.45l.001-.001zm160.932-2.722c-.175-.034-.353-.074-.5-.175a.77.77 0 01-.284-.335.565.565 0 01.1-.582 155.972 155.972 0 005.066-6.641l1.69-2.358c.175-.246.525-.407.918-.423.392-.017.768.113.985.341.217.228.243.519.068.764l-1.694 2.36a157.764 157.764 0 01-5.113 6.712c-.148.183-.397.313-.682.365a1.523 1.523 0 01-.554-.028zm-755.566-2.777a1.368 1.368 0 01-.428-.118.873.873 0 01-.369-.342.555.555 0 01.028-.585c1.977-3.03 4.023-6.128 6.135-9.292.18-.27.568-.443.996-.445.16.001.319.026.464.075.264.085.469.24.569.43.1.19.087.4-.036.584-2.106 3.156-4.148 6.25-6.124 9.281-.147.222-.433.379-.767.43a1.532 1.532 0 01-.468-.018zm974.649-6.763v-.001a204.859 204.859 0 01-7.36-8.852c-.29-.371-.09-.836.44-1.038.16-.061.35-.093.53-.093.4.001.77.155.96.4 2.36 2.999 4.82 5.955 7.31 8.778.25.288.2.648-.1.893-.16.13-.36.178-.56.218l-.25.049a.276.276 0 01-.05.005c-.38-.004-.72-.139-.92-.359zm-390.998-6.693h.001a736.095 736.095 0 01-5.078-9.575c-.1-.19-.087-.4.037-.584.123-.184.346-.326.62-.395.119-.031.245-.047.372-.046.463.001.877.202 1.039.504a789.689 789.689 0 005.068 9.567.551.551 0 01-.028.583c-.121.184-.342.328-.615.398l-.386.051c-.461 0-.873-.201-1.03-.502v-.001zm185.208-1.941a1.353 1.353 0 01-.456-.136.833.833 0 01-.339-.34.558.558 0 01.053-.584c2.154-3.063 4.293-6.119 6.416-9.168.172-.246.52-.41.912-.43.393-.02.771.107.992.334.221.227.251.518.08.764-2.129 3.046-4.27 6.104-6.423 9.174-.147.209-.42.356-.737.408a1.518 1.518 0 01-.498-.022zm-756.486-3.13a1.344 1.344 0 01-.442-.13c-.392-.216-.533-.599-.309-.927 2.079-3.032 4.209-6.102 6.39-9.208.185-.262.567-.427.985-.428.17 0 .338.028.489.081.545.186.77.644.503 1.022a870.261 870.261 0 00-6.379 9.192c-.147.214-.425.366-.749.418a1.511 1.511 0 01-.488-.02zm948.186-6.164v-.004a221.24 221.24 0 01-6.15-9.277c-.24-.386.01-.832.56-1 .14-.041.29-.062.45-.063.43.001.83.182 1 .462 1.97 3.141 4.03 6.245 6.11 9.215.23.322.1.7-.28.92-.14.082-.3.114-.47.141l-.19.031a.455.455 0 01-.09.007c-.4-.011-.76-.175-.94-.428v-.004zm-387-7.923c.001 0 .003-.001.002-.003a526.302 526.302 0 00-5.131-9.536c-.141-.255-.076-.543.172-.755.247-.212.638-.317 1.026-.274.388.043.714.226.855.481a511.476 511.476 0 015.152 9.567c.206.397-.088.835-.658.98l-.377.046c-.467.003-.885-.199-1.043-.504-.001-.001 0-.003.002-.002zm208.14-1.124c-.162-.027-.326-.058-.468-.14a.825.825 0 01-.334-.337.556.556 0 01.053-.583c2.159-3.085 4.311-6.138 6.456-9.159.269-.379.928-.534 1.472-.347.544.187.767.645.499 1.024a1656.51 1656.51 0 00-6.451 9.152c-.15.211-.428.36-.75.409a1.53 1.53 0 01-.477-.019zm-756.438-3.14a1.327 1.327 0 01-.428-.134.824.824 0 01-.345-.348.553.553 0 01.06-.582c2.19-3.023 4.415-6.058 6.675-9.106.18-.242.533-.4.925-.413.392-.013.765.12.977.35.213.229.233.521.053.763a777.427 777.427 0 00-6.663 9.092c-.143.202-.404.347-.71.403-.18.032-.364.008-.544-.025zm923.348-6.439a379.57 379.57 0 00-6.03-9.262c-.17-.248-.13-.539.09-.763.23-.225.61-.348 1-.325.39.023.73.19.9.438 2 2.972 4.01 6.072 6.05 9.3a.54.54 0 01.02.585.814.814 0 01-.37.338c-.13.069-.29.096-.43.117-.15.021-.3.037-.44.016-.35-.05-.65-.217-.8-.452l.01.008zm-385.658-8.263c.001.001.002 0 .001-.001-2.11-3.432-4.105-6.447-6.104-9.214-.176-.244-.151-.534.065-.762.216-.228.591-.358.983-.342.391.016.741.176.917.421 2.022 2.795 4.039 5.836 6.16 9.299.171.28.083.592-.19.805-.229.18-.534.216-.823.256-.439 0-.835-.181-1.01-.461l.001-.001zm231.77-.428c-.181-.028-.364-.063-.518-.161-.353-.226-.462-.596-.234-.908a618.942 618.942 0 016.756-9.066c.296-.354.941-.481 1.462-.29s.731.635.478 1.004a563.281 563.281 0 00-6.737 9.04c-.153.207-.43.353-.75.4a1.493 1.493 0 01-.457-.019zm-755.94-3.017c-.18-.031-.364-.069-.516-.171a.774.774 0 01-.288-.329.558.558 0 01.083-.582c2.302-3 4.638-5.995 7.008-8.984.195-.246.566-.398.968-.398.184 0 .365.034.525.097.257.097.446.26.528.456a.56.56 0 01-.095.582 682.645 682.645 0 00-6.991 8.968c-.151.196-.415.334-.718.383a1.527 1.527 0 01-.504-.022zm339.757-4.374c-.569-.055-.981-.404-.947-.803.033-.398.502-.711 1.076-.718.057 0 .113.003.169.008a136.1 136.1 0 0012.753.606l1.688-.011h.117c.589.033 1.036.383 1.014.794-.022.41-.505.737-1.097.739l-1.722.011a139.045 139.045 0 01-13.051-.626zm28.253-.959c.002 0 .003-.001.003-.003-.095-.417.312-.808.91-.876a163.788 163.788 0 0014.149-2.258c.103-.023.209-.034.317-.035.545.002 1.006.283 1.081.659.076.376-.256.734-.78.84a165.795 165.795 0 01-14.412 2.302l-.178.009c-.539.002-1.001-.265-1.093-.634-.001-.002.001-.004.003-.004zm529.408-1.378c.01 0 .01-.002.01-.003a303.097 303.097 0 00-6.78-8.992.566.566 0 01-.09-.582c.08-.194.27-.358.53-.455.16-.063.34-.095.52-.095.41 0 .78.153.97.4a294.29 294.29 0 016.82 9.046c.13.18.15.39.06.582a.77.77 0 01-.32.332c-.15.09-.32.124-.49.152l-.2.034a.372.372 0 01-.08.006c-.4-.006-.77-.168-.95-.422v-.003zm-572.139.178a150.796 150.796 0 01-13.88-3.53c-.369-.105-.627-.34-.674-.616-.048-.276.123-.547.446-.71a1.511 1.511 0 011.109-.073 146.913 146.913 0 0013.619 3.459c.528.106.862.467.783.845-.079.377-.546.658-1.095.656l-.308-.031zm70.907-4.285l.002-.002a.553.553 0 01.01-.586c.115-.188.335-.336.608-.41a229.999 229.999 0 0013.267-4.19c.152-.054.32-.082.49-.082.509 0 .952.244 1.069.587.118.345-.119.7-.574.86a233.031 233.031 0 01-13.426 4.242l-.411.057c-.453.005-.864-.183-1.037-.475 0 0 .001-.002.002-.001zm114.728-3.753c.001 0 .002 0 .001-.002-2.58-2.828-5.521-5.489-8.787-7.95-.413-.31-.389-.792.054-1.08.211-.14.495-.215.786-.209.292.007.568.095.766.244 3.356 2.531 6.38 5.266 9.035 8.173.158.17.212.377.151.576a.698.698 0 01-.212.311c-.159.14-.372.191-.579.234l-.259.053a.245.245 0 01-.051.005c-.368-.004-.709-.137-.907-.353-.001 0 0-.002.002-.002zm-212.419-.055a2.863 2.863 0 01-.533-.154 208.079 208.079 0 01-12.233-5.336c-.462-.246-.567-.7-.24-1.035.327-.335.972-.434 1.472-.227a204.378 204.378 0 0012.342 5.373c.434.172.647.524.519.86-.104.273-.414.479-.796.545a1.5 1.5 0 01-.531-.026zm471.204-.362c-.191-.034-.387-.076-.544-.192-.321-.238-.397-.603-.154-.901a272.1 272.1 0 017.459-8.814c.207-.233.576-.371.97-.364.393.008.75.161.937.403.187.24.175.532-.032.764a260.914 260.914 0 00-7.421 8.763c-.15.185-.404.316-.695.366-.172.03-.348.006-.52-.025zM158.837 90.57c-.188-.034-.38-.075-.534-.187a.756.756 0 01-.266-.327.562.562 0 01.107-.58 629.856 629.856 0 017.404-8.832c.199-.233.559-.377.949-.377.197 0 .39.037.558.108.522.217.694.685.384 1.048a585.77 585.77 0 00-7.392 8.809c-.151.185-.405.316-.696.364a1.51 1.51 0 01-.514-.026zm408.317-1.912c.002.001.003 0 .002-.002-.294-.365-.114-.827.406-1.038a321.513 321.513 0 006.226-2.591c2.19-.937 4.327-1.805 6.412-2.606.161-.064.343-.098.528-.099.5.002.937.237 1.064.574.126.337-.09.69-.526.861a195.247 195.247 0 00-6.327 2.57 314.65 314.65 0 01-6.006 2.505 2.94 2.94 0 01-.553.162l-.254.048a.143.143 0 01-.029.002c-.39-.002-.75-.148-.944-.384-.001-.001 0-.003.001-.002zm460.846-4.7v-.001a168.432 168.432 0 00-7.97-8.475c-.17-.166-.24-.37-.19-.57.05-.2.21-.378.45-.494.19-.092.41-.142.63-.143.36-.002.7.12.91.323 2.64 2.613 5.35 5.494 8.06 8.568.25.288.19.645-.1.89-.16.133-.37.18-.57.22l-.26.05a.29.29 0 01-.02.002c-.39 0-.74-.141-.94-.37zM418.875 82.39a2.78 2.78 0 01-.702-.266 323.724 323.724 0 01-11.055-6.295c-.297-.18-.436-.455-.362-.723.073-.268.347-.49.718-.58.372-.09.784-.036 1.082.143a320.75 320.75 0 0011.305 6.426c.37.2.516.542.364.85-.117.237-.39.414-.723.484-.207.043-.421.008-.627-.04zm217.14-2.64a3.01 3.01 0 01-.561-.162c-4.026-1.593-8.442-2.655-13.025-3.13-.601-.064-1.015-.454-.926-.872.078-.374.538-.65 1.08-.651.058 0 .116.003.173.01 4.959.514 9.733 1.677 14.071 3.425.431.173.641.526.512.86-.105.274-.415.48-.797.545-.175.03-.353.007-.527-.025zm-43.085-.77c.001 0 .003-.001.002-.003a.552.552 0 01.016-.578c.116-.186.333-.332.604-.406a98.122 98.122 0 0114.289-2.856c.049-.005.1-.007.15-.006.544-.008 1.017.26 1.117.631.049.2-.019.406-.188.572-.169.165-.426.278-.714.311a95.379 95.379 0 00-13.847 2.765l-.411.055c-.451 0-.856-.192-1.021-.482a.002.002 0 01.003-.003zm336.865-2.846c-.224-.05-.458-.108-.617-.273-.246-.254-.257-.597.009-.865 3.037-3.012 6.049-5.757 8.956-8.155.21-.171.517-.269.84-.269.261 0 .514.063.715.179.464.272.521.755.129 1.078-2.874 2.362-5.839 5.067-8.829 8.042-.147.146-.359.25-.598.298-.2.04-.406.008-.605-.035zm-755.952-3.12c-.199-.039-.404-.086-.56-.215a.711.711 0 01-.23-.317c-.067-.197-.018-.404.135-.576a425.424 425.424 0 017.895-8.629c.203-.216.55-.347.922-.347.214 0 .424.043.604.123.507.232.649.705.318 1.06a460.663 460.663 0 00-7.87 8.597c-.149.168-.383.287-.65.336-.187.034-.378.006-.564-.031zm222.3-3.978v-.001a495.276 495.276 0 01-10.658-7.023c-.282-.191-.395-.471-.299-.736.097-.265.389-.474.767-.548.378-.074.784-.002 1.066.188a504.515 504.515 0 0010.613 6.997c.289.184.414.463.328.729-.086.266-.37.48-.745.562-.374.082-.782.017-1.071-.167l-.001-.001zm614.977-1.555v-.001c-3.12-2.555-6.53-4.94-10.18-7.134-.3-.178-.44-.452-.36-.72.07-.27.34-.49.71-.582.37-.091.78-.038 1.08.14a89.053 89.053 0 0110.43 7.31c.28.232.33.548.17.809-.15.22-.42.3-.67.367l-.33.083a1.325 1.325 0 01-.85-.271s0-.001 0 0zm-62.777-6.957c-.193-.152-.29-.351-.271-.554.019-.202.152-.391.372-.525 3.712-2.314 7.856-4.27 12.32-5.816.148-.048.31-.073.474-.073.514-.002.96.244 1.074.593.114.348-.134.704-.597.858-4.142 1.439-7.997 3.245-11.468 5.374a2.773 2.773 0 01-.751.32c-.216.056-.441.097-.659.05a1.195 1.195 0 01-.504-.235l.01.008zm-758.46-4.614c-.212-.047-.431-.102-.588-.252a.67.67 0 01-.191-.308c-.053-.2.011-.406.177-.573a365.65 365.65 0 018.542-8.337c.208-.194.536-.309.885-.31.415.002.794.164.981.421.187.258.15.567-.096.8a366.018 366.018 0 00-8.503 8.295c-.144.146-.356.25-.594.3-.203.041-.411.008-.613-.036zm185.191-1.103v-.002a769.937 769.937 0 01-10.202-7.33c-.271-.197-.369-.48-.259-.742.111-.262.414-.463.796-.528.381-.064.784.018 1.055.216a779.268 779.268 0 0010.18 7.316c.275.195.379.477.274.74-.105.264-.405.468-.786.536-.38.068-.783-.01-1.058-.204v-.002zm614.169.1a3.028 3.028 0 01-.473-.114c-4.144-1.353-8.658-2.072-13.238-2.107-.627.006-1.154-.327-1.207-.76-.026-.196.066-.39.254-.534.17-.132.405-.214.657-.23a.075.075 0 01.079.076c0 .093.133.108.154.018l.007-.034a.082.082 0 01.081-.063c4.976.038 9.881.832 14.371 2.325.467.152.72.508.609.858-.095.298-.433.523-.85.583a1.506 1.506 0 01-.444-.018zM354.821 40.044a1552.404 1552.404 0 01-9.936-7.501c-.403-.314-.368-.795.08-1.078.447-.283 1.139-.263 1.551.045 3.357 2.561 6.663 5.06 9.915 7.495.274.199.372.485.257.749-.115.263-.425.464-.812.524-.386.06-.789-.029-1.055-.234zm-147.516-.574c-.245-.058-.506-.129-.658-.33-.195-.26-.166-.586.112-.83a268.503 268.503 0 019.421-7.875c.209-.168.513-.264.832-.263.264 0 .519.067.716.189.221.132.356.32.376.523.02.202-.077.401-.269.553a261.205 261.205 0 00-9.353 7.823c-.14.121-.328.209-.537.253-.211.045-.429.008-.64-.043zm127.728-14.487l.001-.002a4122.796 4122.796 0 01-9.778-7.587c-.29-.225-.363-.547-.185-.824.177-.276.572-.454 1.007-.453.314 0 .614.094.821.26 3.311 2.578 6.57 5.108 9.778 7.586.285.224.349.532.202.792-.133.238-.42.325-.684.395l-.323.085a.127.127 0 01-.034.005 1.358 1.358 0 01-.805-.257zM226.2 23.986v-.002c-.431-.296-.438-.778-.015-1.08a181.188 181.188 0 0110.718-7.049c.198-.122.453-.189.717-.188.319 0 .622.096.832.263.192.152.289.35.269.553-.02.202-.156.39-.376.522a181.1 181.1 0 00-10.593 6.97c-.425.3-1.118.306-1.553.013l.001-.002zm22.035-13.418c.001 0 .002-.001.001-.002-.341-.346-.219-.82.275-1.06a110.133 110.133 0 0112.712-5.243 1.47 1.47 0 01.481-.08c.511.002.955.247 1.069.594.115.347-.129.703-.589.859a107.648 107.648 0 00-12.118 4.98 2.882 2.882 0 01-.617.217l-.292.067a.142.142 0 01-.031.003c-.358-.003-.692-.127-.893-.334-.001 0 .001-.002.002-.001zm67.426-.39a2.768 2.768 0 01-.758-.326c-3.464-2.14-7.318-3.955-11.463-5.397-.462-.154-.708-.51-.593-.858.115-.347.561-.593 1.074-.591.168 0 .334.027.486.077 4.469 1.55 8.614 3.518 12.32 5.846.342.211.46.547.297.844-.121.22-.377.385-.688.455-.223.05-.454.008-.675-.05zm-41.356-8.463c.002.001.005-.002.004-.005-.06-.195-.006-.4.149-.569.157-.17.406-.291.691-.334 3.4-.53 6.873-.8 10.357-.807 1.517 0 3.032.054 4.54.166.391.02.736.185.905.43.169.247.137.537-.084.761-.222.225-.599.35-.989.33h-.068a56.229 56.229 0 00-4.312-.162 64.736 64.736 0 00-9.856.772l-.236.02c-.527.01-.99-.24-1.106-.598-.001-.003.002-.006.005-.004z" fill="#6CD5B1"/></svg>