<svg width="199" height="195" viewBox="0 0 199 195" fill="none" xmlns="http://www.w3.org/2000/svg"><path d="M39.485 175.268c-11.656-8.638-21.227-19.685-28.034-32.356A95.991 95.991 0 01.104 101.95l31.965-1.431a65.125 65.125 0 007.699 27.789c4.617 8.596 11.11 16.09 19.018 21.95l-19.301 25.01z" fill="#FF7CC3"/><path d="M39.302 175.132c15.3 11.392 33.64 18.199 52.803 19.598 19.162 1.4 38.329-2.668 55.183-11.712l-15.368-27.502c-11.434 6.135-24.437 8.895-37.437 7.945-13-.949-25.442-5.567-35.821-13.295l-19.36 24.966z" fill="#FFA167"/><path d="M146.439 183.469c13.705-7.185 25.501-17.416 34.444-29.874 8.942-12.457 14.782-26.794 17.051-41.861l-31.656-4.578a65.397 65.397 0 01-11.568 28.399c-6.066 8.451-14.069 15.392-23.366 20.266l15.095 27.648z" fill="#50D8BB"/><path d="M197.789 112.668a95.666 95.666 0 00-5.443-50.223c-6.284-15.982-16.754-30.06-30.355-40.817C148.39 10.871 132.136 3.815 114.868 1.17A101.406 101.406 0 0063.62 6.56l11.54 29.246a68.793 68.793 0 0134.765-3.657c11.716 1.795 22.742 6.582 31.969 13.88 9.227 7.297 16.33 16.847 20.593 27.69a64.893 64.893 0 013.692 34.071l31.61 4.878z" fill="#A3A1FB"/><path d="M66.021 5.685c-20.484 7.172-38.006 20.724-49.883 38.583C4.263 62.126-1.314 83.306.263 104.566l31.914-2.272c-1.069-14.423 2.714-28.792 10.771-40.907 8.057-12.115 19.944-21.31 33.841-26.175L66.021 5.685z" fill="#81C9FF"/></svg>