<svg width="854" height="285" viewBox="0 0 854 285" fill="none" xmlns="http://www.w3.org/2000/svg"><path stroke="#E3ECF4" stroke-dasharray="4 4" d="M51 19.5h790.666M51 64.1h790.666M51 108.7h790.666M51 153.3h790.666M51 197.9h790.666M51 242.5h790.666"/><path d="M4.271 10.422V19H3.188v-7.225l-2.186.797v-.978l3.1-1.172h.17zm8.544 3.633v1.3c0 .7-.063 1.29-.188 1.77s-.305.867-.54 1.16a2.052 2.052 0 01-.849.639 3.021 3.021 0 01-1.113.193c-.328 0-.63-.04-.908-.123a2.157 2.157 0 01-.75-.392 2.38 2.38 0 01-.563-.715 3.835 3.835 0 01-.357-1.067 7.685 7.685 0 01-.123-1.465v-1.3c0-.7.062-1.285.187-1.758.13-.473.31-.852.545-1.137.235-.289.516-.496.844-.62a3.14 3.14 0 011.113-.188c.332 0 .637.04.914.123.282.078.532.205.75.38.22.172.405.403.557.692.156.285.275.635.357 1.049.082.414.123.9.123 1.459zm-1.09 1.476v-1.658c0-.383-.024-.719-.07-1.008a3.167 3.167 0 00-.194-.75 1.483 1.483 0 00-.328-.504 1.159 1.159 0 00-.451-.28 1.62 1.62 0 00-.569-.095 1.54 1.54 0 00-.685.147 1.23 1.23 0 00-.504.451c-.133.207-.235.479-.305.814a6.08 6.08 0 00-.105 1.225v1.658c0 .383.021.721.064 1.014.047.293.115.547.205.762.09.21.2.384.328.521.13.137.278.238.446.305.172.062.361.094.568.094.266 0 .498-.051.697-.153.2-.101.366-.26.498-.474.137-.22.239-.498.305-.838.066-.344.1-.754.1-1.23zm7.84-1.476v1.3c0 .7-.063 1.29-.188 1.77s-.305.867-.54 1.16a2.052 2.052 0 01-.849.639 3.021 3.021 0 01-1.113.193c-.328 0-.63-.04-.908-.123a2.156 2.156 0 01-.75-.392 2.379 2.379 0 01-.563-.715 3.832 3.832 0 01-.357-1.067 7.678 7.678 0 01-.123-1.465v-1.3c0-.7.062-1.285.187-1.758.13-.473.31-.852.545-1.137.235-.289.516-.496.844-.62a3.14 3.14 0 011.113-.188c.332 0 .637.04.914.123.282.078.532.205.75.38.22.172.405.403.557.692.156.285.275.635.357 1.049.082.414.123.9.123 1.459zm-1.09 1.476v-1.658c0-.383-.024-.719-.07-1.008a3.167 3.167 0 00-.194-.75 1.483 1.483 0 00-.328-.504 1.159 1.159 0 00-.451-.28 1.62 1.62 0 00-.569-.095 1.54 1.54 0 00-.685.147c-.2.094-.368.244-.504.451-.133.207-.234.479-.305.814-.07.336-.105.745-.105 1.225v1.658c0 .383.021.721.064 1.014.047.293.115.547.205.762.09.21.2.384.328.521.13.137.278.238.446.305.172.062.361.094.568.094.266 0 .498-.051.697-.153.2-.101.366-.26.498-.474.137-.22.239-.498.305-.838.066-.344.1-.754.1-1.23zm7.84-1.476v1.3c0 .7-.063 1.29-.188 1.77s-.305.867-.54 1.16a2.052 2.052 0 01-.849.639 3.021 3.021 0 01-1.113.193c-.328 0-.63-.04-.908-.123a2.156 2.156 0 01-.75-.392 2.379 2.379 0 01-.563-.715 3.832 3.832 0 01-.357-1.067 7.678 7.678 0 01-.123-1.465v-1.3c0-.7.062-1.285.187-1.758.13-.473.31-.852.545-1.137.235-.289.516-.496.844-.62a3.14 3.14 0 011.113-.188c.332 0 .637.04.914.123.282.078.532.205.75.38.22.172.405.403.557.692.156.285.275.635.357 1.049.082.414.123.9.123 1.459zm-1.09 1.476v-1.658c0-.383-.024-.719-.07-1.008a3.167 3.167 0 00-.194-.75 1.483 1.483 0 00-.328-.504 1.159 1.159 0 00-.451-.28 1.62 1.62 0 00-.569-.095 1.54 1.54 0 00-.685.147 1.23 1.23 0 00-.504.451c-.133.207-.235.479-.305.814-.07.336-.105.745-.105 1.225v1.658c0 .383.021.721.064 1.014.047.293.115.547.205.762.09.21.2.384.328.521.13.137.278.238.446.305.172.062.361.094.568.094.266 0 .498-.051.697-.153.2-.101.366-.26.498-.474.137-.22.239-.498.305-.838.066-.344.1-.754.1-1.23zM8.83 59.94l-.867-.223.428-4.248h4.377v1.002H9.31l-.258 2.32c.156-.09.353-.174.592-.252.242-.078.52-.117.832-.117.394 0 .748.068 1.06.205.313.133.578.324.797.574.223.25.393.551.51.902.117.352.176.745.176 1.178 0 .41-.057.787-.17 1.131-.11.344-.276.645-.498.903a2.24 2.24 0 01-.844.591c-.336.14-.733.211-1.19.211a3.35 3.35 0 01-.978-.14 2.52 2.52 0 01-.82-.44 2.38 2.38 0 01-.586-.738 2.963 2.963 0 01-.282-1.043h1.032c.046.32.14.59.28.809.141.218.325.384.552.498.23.109.498.164.802.164.258 0 .487-.045.686-.135.2-.09.367-.219.504-.387s.24-.371.31-.61c.075-.238.112-.505.112-.802 0-.27-.037-.52-.112-.75a1.718 1.718 0 00-.334-.603 1.464 1.464 0 00-.533-.399 1.713 1.713 0 00-.726-.146c-.364 0-.64.048-.827.146a3.16 3.16 0 00-.568.399zm10.734-.885v1.3c0 .7-.062 1.29-.187 1.77s-.305.867-.54 1.16a2.052 2.052 0 01-.849.639 3.021 3.021 0 01-1.113.193c-.328 0-.63-.04-.908-.123a2.158 2.158 0 01-.75-.392 2.379 2.379 0 01-.563-.715 3.832 3.832 0 01-.357-1.067 7.678 7.678 0 01-.123-1.465v-1.3c0-.7.062-1.285.187-1.758.13-.473.31-.852.545-1.137.235-.289.516-.496.844-.62a3.14 3.14 0 011.113-.188c.332 0 .637.04.914.123.282.078.532.205.75.38.22.172.405.403.557.692.156.285.275.635.357 1.049.082.414.123.9.123 1.459zm-1.09 1.476v-1.658c0-.383-.023-.719-.07-1.008a3.167 3.167 0 00-.193-.75 1.483 1.483 0 00-.328-.504 1.159 1.159 0 00-.451-.28 1.62 1.62 0 00-.569-.095 1.54 1.54 0 00-.685.147c-.2.094-.368.244-.504.451-.133.207-.234.478-.305.814-.07.336-.105.745-.105 1.225v1.658c0 .383.021.721.064 1.014.047.293.115.547.205.762.09.21.2.384.328.521.13.137.278.238.446.305.172.062.361.094.568.094.266 0 .498-.051.697-.153.2-.101.366-.26.498-.474.137-.22.239-.498.305-.838.066-.344.1-.754.1-1.23zm7.84-1.476v1.3c0 .7-.062 1.29-.187 1.77s-.305.867-.54 1.16a2.052 2.052 0 01-.849.639 3.021 3.021 0 01-1.113.193c-.328 0-.63-.04-.908-.123a2.158 2.158 0 01-.75-.392 2.379 2.379 0 01-.563-.715 3.832 3.832 0 01-.357-1.067 7.678 7.678 0 01-.123-1.465v-1.3c0-.7.062-1.285.187-1.758.13-.473.31-.852.545-1.137.235-.289.516-.496.844-.62a3.14 3.14 0 011.113-.188c.332 0 .637.04.914.123.282.078.532.205.75.38.22.172.405.403.557.692.156.285.275.635.357 1.049.082.414.123.9.123 1.459zm-1.09 1.476v-1.658c0-.383-.023-.719-.07-1.008a3.167 3.167 0 00-.193-.75 1.483 1.483 0 00-.328-.504 1.159 1.159 0 00-.451-.28 1.62 1.62 0 00-.569-.095 1.54 1.54 0 00-.685.147 1.23 1.23 0 00-.504.451c-.133.207-.235.478-.305.814-.07.336-.105.745-.105 1.225v1.658c0 .383.021.721.064 1.014.047.293.115.547.205.762.09.21.2.384.328.521.13.137.278.238.446.305.172.062.361.094.568.094.266 0 .498-.051.697-.153.2-.101.366-.26.498-.474.137-.22.239-.498.305-.838.066-.344.1-.754.1-1.23zm-16.183 43.67h.773c.38 0 .692-.062.938-.187a1.29 1.29 0 00.557-.522c.125-.222.187-.472.187-.75 0-.328-.055-.603-.164-.826a1.095 1.095 0 00-.492-.504c-.219-.113-.496-.17-.832-.17a1.74 1.74 0 00-.809.182c-.23.117-.412.285-.545.504a1.492 1.492 0 00-.193.773H7.377c0-.433.11-.828.328-1.183.219-.356.525-.639.92-.85.398-.211.86-.316 1.383-.316.515 0 .967.091 1.353.275.387.18.688.449.903.809.215.355.322.798.322 1.33 0 .214-.05.445-.152.691a2.05 2.05 0 01-.463.68 2.393 2.393 0 01-.809.521c-.332.133-.73.199-1.195.199H9.04v-.656zm0 .891v-.651h.926c.543 0 .992.065 1.348.194.355.129.634.301.837.515.207.215.352.452.434.709.086.254.129.508.129.762 0 .399-.069.752-.205 1.061a2.16 2.16 0 01-.569.785 2.421 2.421 0 01-.855.486 3.382 3.382 0 01-1.072.164c-.371 0-.721-.053-1.05-.158a2.711 2.711 0 01-.86-.457 2.138 2.138 0 01-.586-.744 2.342 2.342 0 01-.211-1.014H8.39c0 .297.064.557.193.779.133.223.32.397.562.522.247.121.536.182.868.182.332 0 .617-.057.855-.17.242-.118.428-.293.557-.528.133-.234.199-.529.199-.884 0-.356-.074-.647-.223-.874-.148-.23-.359-.4-.632-.509a2.441 2.441 0 00-.956-.17H9.04zm10.523-1.037v1.3c0 .7-.062 1.29-.187 1.77s-.305.867-.54 1.16a2.054 2.054 0 01-.849.639 3.021 3.021 0 01-1.113.193c-.328 0-.63-.041-.908-.123a2.167 2.167 0 01-.75-.392 2.384 2.384 0 01-.563-.715 3.837 3.837 0 01-.357-1.067 7.678 7.678 0 01-.123-1.465v-1.3c0-.7.062-1.285.187-1.758.13-.473.31-.852.545-1.137a1.99 1.99 0 01.844-.621 3.14 3.14 0 011.113-.187c.332 0 .637.041.914.123.282.078.532.205.75.38.22.172.405.403.557.692.156.285.275.635.357 1.049.082.414.123.9.123 1.459zm-1.09 1.476v-1.658c0-.383-.023-.719-.07-1.008a3.165 3.165 0 00-.193-.75 1.485 1.485 0 00-.328-.504 1.162 1.162 0 00-.451-.281 1.632 1.632 0 00-.569-.094 1.53 1.53 0 00-.685.147c-.2.094-.368.244-.504.451-.133.207-.234.478-.305.814a6.09 6.09 0 00-.105 1.225v1.658c0 .383.021.721.064 1.014.047.293.115.547.205.762.09.211.2.384.328.521.13.137.278.238.446.305.172.062.361.094.568.094.266 0 .498-.051.697-.153.2-.101.366-.26.498-.474.137-.219.239-.498.305-.838.066-.344.1-.754.1-1.231zm7.84-1.476v1.3c0 .7-.062 1.29-.187 1.77s-.305.867-.54 1.16a2.054 2.054 0 01-.849.639 3.021 3.021 0 01-1.113.193c-.328 0-.63-.041-.908-.123a2.167 2.167 0 01-.75-.392 2.384 2.384 0 01-.563-.715 3.837 3.837 0 01-.357-1.067 7.678 7.678 0 01-.123-1.465v-1.3c0-.7.062-1.285.187-1.758.13-.473.31-.852.545-1.137a1.99 1.99 0 01.844-.621 3.14 3.14 0 011.113-.187c.332 0 .637.041.914.123.282.078.532.205.75.38.22.172.405.403.557.692.156.285.275.635.357 1.049.082.414.123.9.123 1.459zm-1.09 1.476v-1.658c0-.383-.023-.719-.07-1.008a3.165 3.165 0 00-.193-.75 1.485 1.485 0 00-.328-.504 1.162 1.162 0 00-.451-.281 1.632 1.632 0 00-.569-.094 1.53 1.53 0 00-.685.147 1.23 1.23 0 00-.504.451c-.133.207-.235.478-.305.814a6.09 6.09 0 00-.105 1.225v1.658c0 .383.021.721.064 1.014.047.293.115.547.205.762.09.211.2.384.328.521.13.137.278.238.446.305.172.062.361.094.568.094.266 0 .498-.051.697-.153.2-.101.366-.26.498-.474.137-.219.239-.498.305-.838.066-.344.1-.754.1-1.231zm-12.175 47.578V154H7.465v-.779l2.795-3.112c.344-.382.61-.707.797-.972.191-.27.324-.51.398-.721a1.91 1.91 0 00.117-.656c0-.281-.058-.535-.175-.762a1.323 1.323 0 00-.504-.551 1.523 1.523 0 00-.809-.205c-.379 0-.695.074-.95.223-.25.144-.437.347-.562.609a2.073 2.073 0 00-.187.903H7.3c0-.481.105-.92.316-1.319.211-.398.524-.715.938-.949.414-.238.924-.357 1.529-.357.539 0 1 .095 1.383.287.383.187.676.453.879.797.207.339.31.738.31 1.195a2.4 2.4 0 01-.129.762 3.882 3.882 0 01-.345.761 5.9 5.9 0 01-.51.75c-.192.246-.397.489-.615.727l-2.286 2.478h4.278zm6.515-4.054v1.3c0 .7-.062 1.29-.187 1.77s-.305.867-.54 1.16a2.054 2.054 0 01-.849.639 3.021 3.021 0 01-1.113.193c-.328 0-.63-.041-.908-.123a2.167 2.167 0 01-.75-.392 2.384 2.384 0 01-.563-.715 3.837 3.837 0 01-.357-1.067 7.678 7.678 0 01-.123-1.465v-1.3c0-.7.062-1.285.187-1.758.13-.473.31-.852.545-1.137a1.99 1.99 0 01.844-.621 3.14 3.14 0 011.113-.187c.332 0 .637.041.914.123.282.078.532.205.75.38.22.172.405.403.557.692.156.285.275.635.357 1.049.082.414.123.9.123 1.459zm-1.09 1.476v-1.658c0-.383-.023-.719-.07-1.008a3.165 3.165 0 00-.193-.75 1.485 1.485 0 00-.328-.504 1.162 1.162 0 00-.451-.281 1.632 1.632 0 00-.569-.094 1.53 1.53 0 00-.685.147c-.2.094-.368.244-.504.451-.133.207-.234.478-.305.814a6.09 6.09 0 00-.105 1.225v1.658c0 .383.021.721.064 1.014.047.293.115.547.205.762.09.211.2.384.328.521.13.137.278.238.446.305.172.062.361.094.568.094.266 0 .498-.051.697-.153.2-.101.366-.26.498-.474.137-.219.239-.498.305-.838.066-.344.1-.754.1-1.231zm7.84-1.476v1.3c0 .7-.062 1.29-.187 1.77s-.305.867-.54 1.16a2.054 2.054 0 01-.849.639 3.021 3.021 0 01-1.113.193c-.328 0-.63-.041-.908-.123a2.167 2.167 0 01-.75-.392 2.384 2.384 0 01-.563-.715 3.837 3.837 0 01-.357-1.067 7.678 7.678 0 01-.123-1.465v-1.3c0-.7.062-1.285.187-1.758.13-.473.31-.852.545-1.137a1.99 1.99 0 01.844-.621 3.14 3.14 0 011.113-.187c.332 0 .637.041.914.123.282.078.532.205.75.38.22.172.405.403.557.692.156.285.275.635.357 1.049.082.414.123.9.123 1.459zm-1.09 1.476v-1.658c0-.383-.023-.719-.07-1.008a3.165 3.165 0 00-.193-.75 1.485 1.485 0 00-.328-.504 1.162 1.162 0 00-.451-.281 1.632 1.632 0 00-.569-.094 1.53 1.53 0 00-.685.147 1.23 1.23 0 00-.504.451c-.133.207-.235.478-.305.814a6.09 6.09 0 00-.105 1.225v1.658c0 .383.021.721.064 1.014.047.293.115.547.205.762.09.211.2.384.328.521.13.137.278.238.446.305.172.062.361.094.568.094.266 0 .498-.051.697-.153.2-.101.366-.26.498-.474.137-.219.239-.498.305-.838.066-.344.1-.754.1-1.231zm-14.203 39.891V199H9.938v-7.225l-2.185.797v-.978l3.1-1.172h.17zm8.543 3.633v1.3c0 .7-.062 1.29-.187 1.77s-.305.867-.54 1.16a2.054 2.054 0 01-.849.639 3.021 3.021 0 01-1.113.193c-.328 0-.63-.041-.908-.123a2.167 2.167 0 01-.75-.392 2.384 2.384 0 01-.563-.715 3.837 3.837 0 01-.357-1.067 7.678 7.678 0 01-.123-1.465v-1.3c0-.7.062-1.285.187-1.758.13-.473.31-.852.545-1.137a1.99 1.99 0 01.844-.621 3.14 3.14 0 011.113-.187c.332 0 .637.041.914.123.282.078.532.205.75.38.22.172.405.403.557.692.156.285.275.635.357 1.049.082.414.123.9.123 1.459zm-1.09 1.476v-1.658c0-.383-.023-.719-.07-1.008a3.165 3.165 0 00-.193-.75 1.485 1.485 0 00-.328-.504 1.162 1.162 0 00-.451-.281 1.632 1.632 0 00-.569-.094 1.53 1.53 0 00-.685.147c-.2.094-.368.244-.504.451-.133.207-.234.478-.305.814a6.09 6.09 0 00-.105 1.225v1.658c0 .383.021.721.064 1.014.047.293.115.547.205.762.09.211.2.384.328.521.13.137.278.238.446.305.172.062.361.094.568.094.266 0 .498-.051.697-.153.2-.101.366-.26.498-.474.137-.219.239-.498.305-.838.066-.344.1-.754.1-1.231zm7.84-1.476v1.3c0 .7-.062 1.29-.187 1.77s-.305.867-.54 1.16a2.054 2.054 0 01-.849.639 3.021 3.021 0 01-1.113.193c-.328 0-.63-.041-.908-.123a2.167 2.167 0 01-.75-.392 2.384 2.384 0 01-.563-.715 3.837 3.837 0 01-.357-1.067 7.678 7.678 0 01-.123-1.465v-1.3c0-.7.062-1.285.187-1.758.13-.473.31-.852.545-1.137a1.99 1.99 0 01.844-.621 3.14 3.14 0 011.113-.187c.332 0 .637.041.914.123.282.078.532.205.75.38.22.172.405.403.557.692.156.285.275.635.357 1.049.082.414.123.9.123 1.459zm-1.09 1.476v-1.658c0-.383-.023-.719-.07-1.008a3.165 3.165 0 00-.193-.75 1.485 1.485 0 00-.328-.504 1.162 1.162 0 00-.451-.281 1.632 1.632 0 00-.569-.094 1.53 1.53 0 00-.685.147 1.23 1.23 0 00-.504.451c-.133.207-.235.478-.305.814a6.09 6.09 0 00-.105 1.225v1.658c0 .383.021.721.064 1.014.047.293.115.547.205.762.09.211.2.384.328.521.13.137.278.238.446.305.172.062.361.094.568.094.266 0 .498-.051.697-.153.2-.101.366-.26.498-.474.137-.219.239-.498.305-.838.066-.344.1-.754.1-1.231zm1.09 43.524v1.3c0 .7-.062 1.29-.187 1.77s-.305.867-.54 1.16a2.054 2.054 0 01-.849.639 3.021 3.021 0 01-1.113.193c-.328 0-.63-.041-.908-.123a2.167 2.167 0 01-.75-.392 2.384 2.384 0 01-.563-.715 3.837 3.837 0 01-.357-1.067 7.678 7.678 0 01-.123-1.465v-1.3c0-.7.062-1.285.187-1.758.13-.473.31-.852.545-1.137a1.99 1.99 0 01.844-.621 3.14 3.14 0 011.113-.187c.332 0 .637.041.914.123.282.078.532.205.75.38.22.172.405.403.557.692.156.285.275.635.357 1.049.082.414.123.9.123 1.459zm-1.09 1.476v-1.658c0-.383-.023-.719-.07-1.008a3.165 3.165 0 00-.193-.75 1.485 1.485 0 00-.328-.504 1.162 1.162 0 00-.451-.281 1.632 1.632 0 00-.569-.094 1.53 1.53 0 00-.685.147 1.23 1.23 0 00-.504.451c-.133.207-.235.478-.305.814a6.09 6.09 0 00-.105 1.225v1.658c0 .383.021.721.064 1.014.047.293.115.547.205.762.09.211.2.384.328.521.13.137.278.238.446.305.172.062.361.094.568.094.266 0 .498-.051.697-.153.2-.101.366-.26.498-.474.137-.219.239-.498.305-.838.066-.344.1-.754.1-1.231z" fill="#434343"/><rect x="51" y="169" width="36" height="76" rx="2" fill="url(#paint0_linear_198_17735)"/><rect x="176" y="202" width="36" height="43" rx="2" fill="url(#paint1_linear_198_17735)"/><rect x="301" y="103" width="36" height="142" rx="2" fill="url(#paint2_linear_198_17735)"/><rect x="426" y="64" width="36" height="181" rx="2" fill="url(#paint3_linear_198_17735)"/><rect x="551" y="114" width="36" height="131" rx="2" fill="url(#paint4_linear_198_17735)"/><rect x="676" y="92" width="36" height="153" rx="2" fill="url(#paint5_linear_198_17735)"/><rect x="801" y="148" width="36" height="97" rx="2" fill="url(#paint6_linear_198_17735)"/><path d="M63.63 271.691c0 .52-.12.961-.362 1.325a2.279 2.279 0 01-.973.82 3.256 3.256 0 01-1.377.281c-.512 0-.973-.094-1.383-.281a2.279 2.279 0 01-.972-.82c-.239-.364-.358-.805-.358-1.325 0-.339.065-.65.193-.931.133-.285.319-.533.557-.744a2.57 2.57 0 01.855-.487 3.278 3.278 0 011.096-.175c.524 0 .99.101 1.4.304.41.199.733.475.967.826.239.352.358.754.358 1.207zm-1.089-.023c0-.316-.068-.596-.205-.838a1.452 1.452 0 00-.574-.574 1.73 1.73 0 00-.856-.205 1.72 1.72 0 00-.861.205 1.434 1.434 0 00-.557.574 1.713 1.713 0 00-.199.838c0 .328.064.609.193.844.133.23.32.408.563.533.246.121.537.182.873.182.336 0 .625-.061.867-.182.242-.125.428-.303.557-.533.133-.235.199-.516.199-.844zm.89-3.979c0 .415-.109.788-.328 1.12a2.283 2.283 0 01-.896.785 2.824 2.824 0 01-1.289.287 2.89 2.89 0 01-1.307-.287 2.24 2.24 0 01-.89-.785 2.017 2.017 0 01-.323-1.12c0-.496.108-.918.323-1.265.219-.348.517-.613.896-.797a2.93 2.93 0 011.295-.275c.488 0 .922.091 1.3.275.38.184.677.449.891.797.22.347.329.769.329 1.265zm-1.083.018c0-.285-.06-.537-.182-.756a1.328 1.328 0 00-.504-.515 1.429 1.429 0 00-.75-.194c-.285 0-.535.061-.75.182a1.26 1.26 0 00-.498.504 1.624 1.624 0 00-.176.779c0 .293.059.549.176.768.121.218.29.388.504.509.215.121.465.182.75.182s.533-.061.744-.182c.215-.121.383-.291.504-.509.121-.219.182-.475.182-.768zm6.545-2.238l-3.557 9.263h-.932l3.563-9.263h.926zm4.629-.047V274h-1.085v-7.225l-2.185.797v-.978l3.1-1.172h.17zm115.442 6.269c0 .52-.121.961-.363 1.325a2.279 2.279 0 01-.973.82 3.255 3.255 0 01-1.377.281c-.511 0-.972-.094-1.383-.281a2.276 2.276 0 01-.972-.82c-.238-.364-.358-.805-.358-1.325 0-.339.065-.65.194-.931.133-.285.318-.533.556-.744.243-.211.528-.373.856-.487a3.277 3.277 0 011.096-.175c.523 0 .99.101 1.4.304.41.199.732.475.967.826.238.352.357.754.357 1.207zm-1.09-.023c0-.316-.068-.596-.205-.838a1.447 1.447 0 00-.574-.574 1.728 1.728 0 00-.855-.205c-.332 0-.62.068-.862.205a1.43 1.43 0 00-.556.574c-.133.242-.2.522-.2.838 0 .328.065.609.194.844.133.23.32.408.562.533.246.121.537.182.873.182.336 0 .625-.061.867-.182a1.31 1.31 0 00.557-.533c.133-.235.199-.516.199-.844zm.891-3.979c0 .415-.109.788-.328 1.12a2.286 2.286 0 01-.897.785 2.823 2.823 0 01-1.289.287c-.488 0-.924-.096-1.306-.287a2.241 2.241 0 01-.891-.785 2.015 2.015 0 01-.322-1.12c0-.496.107-.918.322-1.265a2.14 2.14 0 01.897-.797c.378-.184.81-.275 1.294-.275.489 0 .922.091 1.301.275a2.1 2.1 0 01.891.797c.219.347.328.769.328 1.265zm-1.084.018c0-.285-.061-.537-.182-.756a1.327 1.327 0 00-.504-.515 1.425 1.425 0 00-.75-.194c-.285 0-.535.061-.75.182-.21.117-.377.285-.498.504a1.626 1.626 0 00-.175.779c0 .293.058.549.175.768.121.218.289.388.504.509.215.121.465.182.75.182s.534-.061.744-.182c.215-.121.383-.291.504-.509.121-.219.182-.475.182-.768zm6.545-2.238l-3.557 9.263h-.931l3.562-9.263h.926zm6.656 7.64V274h-5.584v-.779l2.795-3.112c.344-.382.609-.707.797-.972.191-.27.324-.51.398-.721a1.89 1.89 0 00.118-.656c0-.281-.059-.535-.176-.762a1.318 1.318 0 00-.504-.551 1.524 1.524 0 00-.809-.205c-.379 0-.695.074-.949.223-.25.144-.437.347-.562.609a2.073 2.073 0 00-.188.903h-1.084c0-.481.106-.92.317-1.319.21-.398.523-.715.937-.949.414-.238.924-.357 1.529-.357.539 0 1 .095 1.383.287.383.187.676.453.879.797.207.339.311.738.311 1.195a2.4 2.4 0 01-.129.762 3.913 3.913 0 01-.346.761 5.882 5.882 0 01-.51.75 11.39 11.39 0 01-.615.727l-2.285 2.478h4.277zm113.416-1.418c0 .52-.122.961-.364 1.325a2.276 2.276 0 01-.972.82 3.262 3.262 0 01-1.377.281c-.512 0-.973-.094-1.383-.281a2.279 2.279 0 01-.973-.82c-.238-.364-.357-.805-.357-1.325 0-.339.064-.65.193-.931.133-.285.318-.533.557-.744.242-.211.527-.373.855-.487a3.277 3.277 0 011.096-.175c.523 0 .99.101 1.4.304.41.199.733.475.967.826.238.352.358.754.358 1.207zm-1.09-.023c0-.316-.069-.596-.205-.838a1.456 1.456 0 00-.575-.574 1.728 1.728 0 00-.855-.205 1.72 1.72 0 00-.861.205 1.432 1.432 0 00-.557.574 1.713 1.713 0 00-.199.838c0 .328.064.609.193.844.133.23.32.408.563.533.246.121.537.182.873.182.336 0 .625-.061.867-.182.242-.125.428-.303.556-.533.133-.235.2-.516.2-.844zm.89-3.979c0 .415-.109.788-.328 1.12a2.283 2.283 0 01-.896.785 2.826 2.826 0 01-1.289.287c-.489 0-.924-.096-1.307-.287a2.241 2.241 0 01-.891-.785 2.023 2.023 0 01-.322-1.12c0-.496.108-.918.322-1.265a2.14 2.14 0 01.897-.797c.379-.184.81-.275 1.295-.275.488 0 .922.091 1.301.275.378.184.675.449.89.797.219.347.328.769.328 1.265zm-1.084.018c0-.285-.06-.537-.181-.756a1.327 1.327 0 00-.504-.515 1.43 1.43 0 00-.75-.194c-.285 0-.535.061-.75.182a1.258 1.258 0 00-.498.504 1.626 1.626 0 00-.176.779c0 .293.059.549.176.768.121.218.289.388.504.509.214.121.464.182.75.182.285 0 .533-.061.744-.182.215-.121.383-.291.504-.509.121-.219.181-.475.181-.768zm6.545-2.238l-3.556 9.263h-.932l3.562-9.263h.926zm2.649 3.732h.773c.379 0 .692-.062.938-.187.25-.129.435-.303.556-.522.125-.222.188-.472.188-.75 0-.328-.055-.603-.164-.826a1.102 1.102 0 00-.492-.504c-.219-.113-.497-.17-.833-.17-.304 0-.574.061-.808.182a1.325 1.325 0 00-.545.504 1.49 1.49 0 00-.193.773h-1.084c0-.433.109-.828.328-1.183.219-.356.525-.639.92-.85.398-.211.859-.316 1.382-.316.516 0 .967.091 1.354.275.387.18.688.449.902.809.215.355.323.798.323 1.33 0 .214-.051.445-.153.691a2.038 2.038 0 01-.463.68 2.39 2.39 0 01-.808.521c-.332.133-.731.199-1.196.199h-.925v-.656zm0 .891v-.651h.925c.543 0 .993.065 1.348.194.356.129.635.301.838.515.207.215.352.452.434.709.086.254.129.508.129.762 0 .399-.069.752-.206 1.061-.132.308-.322.57-.568.785a2.419 2.419 0 01-.855.486 3.39 3.39 0 01-1.073.164c-.371 0-.72-.053-1.048-.158a2.706 2.706 0 01-.862-.457 2.142 2.142 0 01-.586-.744 2.351 2.351 0 01-.211-1.014h1.084c0 .297.065.557.194.779.132.223.32.397.562.522.246.121.535.182.867.182.332 0 .618-.057.856-.17a1.23 1.23 0 00.556-.528c.133-.234.2-.529.2-.884 0-.356-.075-.647-.223-.874-.148-.23-.359-.4-.633-.509a2.44 2.44 0 00-.955-.17h-.773zm117.423 1.599c0 .52-.121.961-.363 1.325a2.285 2.285 0 01-.973.82 3.255 3.255 0 01-1.377.281c-.512 0-.973-.094-1.383-.281a2.285 2.285 0 01-.973-.82c-.238-.364-.357-.805-.357-1.325 0-.339.065-.65.193-.931.133-.285.319-.533.557-.744.242-.211.527-.373.856-.487a3.275 3.275 0 011.095-.175c.524 0 .99.101 1.401.304.41.199.732.475.966.826.239.352.358.754.358 1.207zm-1.09-.023c0-.316-.068-.596-.205-.838a1.454 1.454 0 00-.574-.574 1.732 1.732 0 00-.856-.205 1.72 1.72 0 00-.861.205 1.438 1.438 0 00-.557.574 1.713 1.713 0 00-.199.838c0 .328.065.609.193.844.133.23.321.408.563.533.246.121.537.182.873.182.336 0 .625-.061.867-.182.242-.125.428-.303.557-.533.133-.235.199-.516.199-.844zm.891-3.979c0 .415-.11.788-.328 1.12a2.286 2.286 0 01-.897.785 2.826 2.826 0 01-1.289.287 2.89 2.89 0 01-1.307-.287 2.238 2.238 0 01-.89-.785 2.016 2.016 0 01-.323-1.12c0-.496.108-.918.323-1.265.218-.348.517-.613.896-.797a2.93 2.93 0 011.295-.275c.488 0 .922.091 1.301.275a2.1 2.1 0 01.891.797c.218.347.328.769.328 1.265zm-1.084.018c0-.285-.061-.537-.182-.756a1.327 1.327 0 00-.504-.515 1.43 1.43 0 00-.75-.194c-.285 0-.535.061-.75.182a1.258 1.258 0 00-.498.504 1.626 1.626 0 00-.176.779c0 .293.059.549.176.768.121.218.289.388.504.509.215.121.465.182.75.182s.533-.061.744-.182c.215-.121.383-.291.504-.509.121-.219.182-.475.182-.768zm6.545-2.238l-3.557 9.263h-.932l3.563-9.263h.926zm6.832 5.66v.891h-6.164v-.639l3.82-5.912h.885l-.95 1.711-2.525 3.949h4.934zm-1.19-5.66V274h-1.084v-8.531h1.084zm114.429 6.222c0 .52-.121.961-.363 1.325a2.279 2.279 0 01-.973.82 3.255 3.255 0 01-1.377.281c-.511 0-.972-.094-1.382-.281a2.273 2.273 0 01-.973-.82c-.238-.364-.358-.805-.358-1.325 0-.339.065-.65.194-.931.133-.285.318-.533.556-.744.243-.211.528-.373.856-.487a3.277 3.277 0 011.096-.175c.523 0 .99.101 1.4.304.41.199.732.475.967.826.238.352.357.754.357 1.207zm-1.09-.023c0-.316-.068-.596-.205-.838a1.447 1.447 0 00-.574-.574 1.728 1.728 0 00-.855-.205c-.332 0-.62.068-.862.205a1.43 1.43 0 00-.556.574c-.133.242-.2.522-.2.838 0 .328.065.609.194.844.133.23.32.408.562.533.246.121.537.182.873.182.336 0 .625-.061.868-.182.242-.125.427-.303.556-.533.133-.235.199-.516.199-.844zm.891-3.979c0 .415-.109.788-.328 1.12a2.286 2.286 0 01-.897.785 2.823 2.823 0 01-1.289.287c-.488 0-.923-.096-1.306-.287a2.241 2.241 0 01-.891-.785 2.015 2.015 0 01-.322-1.12c0-.496.107-.918.322-1.265a2.14 2.14 0 01.897-.797c.378-.184.81-.275 1.294-.275.489 0 .922.091 1.301.275a2.1 2.1 0 01.891.797c.219.347.328.769.328 1.265zm-1.084.018c0-.285-.061-.537-.182-.756a1.327 1.327 0 00-.504-.515 1.425 1.425 0 00-.75-.194c-.285 0-.535.061-.75.182-.21.117-.376.285-.498.504a1.626 1.626 0 00-.175.779c0 .293.058.549.175.768.122.218.289.388.504.509.215.121.465.182.75.182s.534-.061.744-.182c.215-.121.383-.291.504-.509.121-.219.182-.475.182-.768zm6.545-2.238l-3.557 9.263h-.931l3.562-9.263h.926zm2.437 4.47l-.867-.222.428-4.248h4.377v1.002h-3.457l-.258 2.32c.156-.09.354-.174.592-.252a2.71 2.71 0 01.832-.117c.394 0 .748.068 1.06.205.313.133.579.324.797.574.223.25.393.551.51.903.117.351.176.744.176 1.177 0 .41-.057.787-.17 1.131a2.52 2.52 0 01-.498.902 2.236 2.236 0 01-.844.592c-.336.141-.732.211-1.189.211-.344 0-.67-.047-.979-.14a2.536 2.536 0 01-.82-.44 2.376 2.376 0 01-.586-.738 2.975 2.975 0 01-.281-1.043h1.031c.047.32.141.59.281.808.141.219.324.385.551.498.23.11.498.165.803.165.258 0 .486-.045.685-.135a1.37 1.37 0 00.504-.387c.137-.168.24-.371.311-.609.074-.239.111-.506.111-.803 0-.27-.037-.52-.111-.75a1.719 1.719 0 00-.334-.604 1.485 1.485 0 00-.533-.398 1.71 1.71 0 00-.727-.146c-.363 0-.639.048-.826.146-.184.098-.373.23-.569.398zm117.635 1.752c0 .52-.122.961-.364 1.325a2.276 2.276 0 01-.972.82 3.262 3.262 0 01-1.377.281c-.512 0-.973-.094-1.383-.281a2.279 2.279 0 01-.973-.82c-.238-.364-.357-.805-.357-1.325 0-.339.064-.65.193-.931.133-.285.318-.533.557-.744.242-.211.527-.373.855-.487a3.277 3.277 0 011.096-.175c.523 0 .99.101 1.4.304.41.199.733.475.967.826.238.352.358.754.358 1.207zm-1.09-.023c0-.316-.069-.596-.205-.838a1.456 1.456 0 00-.575-.574 1.728 1.728 0 00-.855-.205 1.72 1.72 0 00-.861.205 1.432 1.432 0 00-.557.574 1.713 1.713 0 00-.199.838c0 .328.064.609.193.844.133.23.32.408.563.533.246.121.537.182.873.182.336 0 .625-.061.867-.182.242-.125.428-.303.556-.533.133-.235.2-.516.2-.844zm.89-3.979c0 .415-.109.788-.328 1.12a2.283 2.283 0 01-.896.785 2.826 2.826 0 01-1.289.287c-.489 0-.924-.096-1.307-.287a2.241 2.241 0 01-.891-.785 2.023 2.023 0 01-.322-1.12c0-.496.108-.918.322-1.265a2.14 2.14 0 01.897-.797c.379-.184.81-.275 1.295-.275.488 0 .922.091 1.301.275.378.184.675.449.89.797.219.347.328.769.328 1.265zm-1.084.018c0-.285-.06-.537-.181-.756a1.327 1.327 0 00-.504-.515 1.43 1.43 0 00-.75-.194c-.285 0-.535.061-.75.182a1.258 1.258 0 00-.498.504 1.626 1.626 0 00-.176.779c0 .293.059.549.176.768.121.218.289.388.504.509.214.121.464.182.75.182.285 0 .533-.061.744-.182.215-.121.383-.291.504-.509.121-.219.181-.475.181-.768zm6.545-2.238l-3.556 9.263h-.932l3.562-9.263h.926zm5.227-.012h.094v.92h-.094c-.574 0-1.055.094-1.442.281a2.375 2.375 0 00-.92.744c-.226.309-.39.657-.492 1.043a4.83 4.83 0 00-.146 1.178v1.254c0 .379.045.715.135 1.008.089.289.212.533.369.732.156.199.332.35.527.451.199.102.406.153.621.153.25 0 .473-.047.668-.141.195-.098.36-.232.492-.404a1.85 1.85 0 00.311-.621c.07-.239.105-.5.105-.785 0-.254-.031-.499-.093-.733a1.97 1.97 0 00-.288-.633 1.372 1.372 0 00-1.171-.603c-.301 0-.582.074-.844.222a1.918 1.918 0 00-.639.575c-.164.234-.258.49-.281.767l-.574-.006c.054-.437.156-.81.304-1.119.153-.312.34-.566.563-.761.226-.2.478-.344.756-.434.281-.094.578-.141.89-.141.426 0 .793.08 1.102.241.309.16.562.375.762.644.199.266.345.566.439.902.098.332.147.674.147 1.026 0 .402-.057.779-.17 1.131a2.69 2.69 0 01-.51.925 2.305 2.305 0 01-.826.622 2.755 2.755 0 01-1.143.222c-.461 0-.863-.094-1.207-.281a2.566 2.566 0 01-.855-.762 3.458 3.458 0 01-.51-1.054 4.185 4.185 0 01-.17-1.178v-.51c0-.602.061-1.191.182-1.77a4.71 4.71 0 01.627-1.57 3.2 3.2 0 011.248-1.119c.531-.277 1.209-.416 2.033-.416zm114.845 6.234c0 .52-.121.961-.363 1.325a2.285 2.285 0 01-.973.82 3.255 3.255 0 01-1.377.281c-.512 0-.973-.094-1.383-.281a2.285 2.285 0 01-.973-.82c-.238-.364-.357-.805-.357-1.325 0-.339.065-.65.193-.931.133-.285.319-.533.557-.744.242-.211.527-.373.856-.487a3.275 3.275 0 011.095-.175c.524 0 .99.101 1.401.304.41.199.732.475.966.826.239.352.358.754.358 1.207zm-1.09-.023c0-.316-.068-.596-.205-.838a1.454 1.454 0 00-.574-.574 1.732 1.732 0 00-.856-.205 1.72 1.72 0 00-.861.205 1.438 1.438 0 00-.557.574 1.713 1.713 0 00-.199.838c0 .328.065.609.193.844.133.23.321.408.563.533.246.121.537.182.873.182.336 0 .625-.061.867-.182.242-.125.428-.303.557-.533.133-.235.199-.516.199-.844zm.891-3.979c0 .415-.11.788-.328 1.12a2.286 2.286 0 01-.897.785 2.826 2.826 0 01-1.289.287 2.89 2.89 0 01-1.307-.287 2.238 2.238 0 01-.89-.785 2.016 2.016 0 01-.323-1.12c0-.496.108-.918.323-1.265.218-.348.517-.613.896-.797a2.93 2.93 0 011.295-.275c.488 0 .922.091 1.301.275a2.1 2.1 0 01.891.797c.218.347.328.769.328 1.265zm-1.084.018c0-.285-.061-.537-.182-.756a1.327 1.327 0 00-.504-.515 1.43 1.43 0 00-.75-.194c-.285 0-.535.061-.75.182a1.258 1.258 0 00-.498.504 1.626 1.626 0 00-.176.779c0 .293.059.549.176.768.121.218.289.388.504.509.215.121.465.182.75.182s.533-.061.744-.182c.215-.121.383-.291.504-.509.121-.219.182-.475.182-.768zm6.545-2.238l-3.557 9.263h-.932l3.563-9.263h.926zm6.58 0v.609L823.939 274h-1.142l3.527-7.641h-4.617v-.89h5.766z" fill="#434343"/><defs><linearGradient id="paint0_linear_198_17735" x1="69" y1="169" x2="69" y2="245" gradientUnits="userSpaceOnUse"><stop stop-color="#E1E3F5"/><stop offset="1" stop-color="#A3A0FB"/></linearGradient><linearGradient id="paint1_linear_198_17735" x1="194" y1="202" x2="194" y2="245" gradientUnits="userSpaceOnUse"><stop stop-color="#E1E3F5"/><stop offset="1" stop-color="#A3A0FB"/></linearGradient><linearGradient id="paint2_linear_198_17735" x1="319" y1="103" x2="319" y2="245" gradientUnits="userSpaceOnUse"><stop stop-color="#E1E3F5"/><stop offset="1" stop-color="#A3A0FB"/></linearGradient><linearGradient id="paint3_linear_198_17735" x1="444" y1="64" x2="444" y2="245" gradientUnits="userSpaceOnUse"><stop stop-color="#E1E3F5"/><stop offset="1" stop-color="#A3A0FB"/></linearGradient><linearGradient id="paint4_linear_198_17735" x1="569" y1="114" x2="569" y2="245" gradientUnits="userSpaceOnUse"><stop stop-color="#E1E3F5"/><stop offset="1" stop-color="#A3A0FB"/></linearGradient><linearGradient id="paint5_linear_198_17735" x1="694" y1="92" x2="694" y2="245" gradientUnits="userSpaceOnUse"><stop stop-color="#E1E3F5"/><stop offset="1" stop-color="#A3A0FB"/></linearGradient><linearGradient id="paint6_linear_198_17735" x1="819" y1="148" x2="819" y2="245" gradientUnits="userSpaceOnUse"><stop stop-color="#E1E3F5"/><stop offset="1" stop-color="#A3A0FB"/></linearGradient></defs></svg>