<svg width="572" height="194" viewBox="0 0 572 194" fill="none" xmlns="http://www.w3.org/2000/svg"><path d="M15.5.5v160m90-160v160m90-160v160m90-160v160m90-160v160m90-160v160m90-160v160" opacity=".06" stroke="#707070"/><path d="M5.546 182.891v5.029c0 .459-.096.853-.288 1.182a1.86 1.86 0 01-.791.742 2.58 2.58 0 01-1.167.254c-.446 0-.838-.077-1.177-.23a1.759 1.759 0 01-.786-.688c-.189-.31-.283-.692-.283-1.148H2c0 .433.117.759.352.977.234.218.55.327.947.327.25 0 .473-.054.669-.161.195-.111.348-.272.459-.484.114-.214.17-.472.17-.771v-5.029h.948zm5.478 5.957c0 .185.017.377.05.576.032.195.077.361.136.498V190h-.952a2.07 2.07 0 01-.127-.552 2.12 2.12 0 01-.66.474 1.983 1.983 0 01-.84.176c-.35 0-.663-.069-.937-.205-.27-.14-.48-.329-.63-.567a1.475 1.475 0 01-.22-.791c0-.374.097-.692.289-.952.195-.26.47-.456.825-.586.358-.133.78-.2 1.265-.2h.888v-.42c0-.322-.096-.575-.288-.757-.189-.185-.462-.278-.82-.278a1.41 1.41 0 00-.586.117.976.976 0 00-.405.308.68.68 0 00-.142.415h-.913c0-.258.088-.507.264-.747.175-.241.423-.437.742-.586a2.5 2.5 0 011.094-.23c.39 0 .732.067 1.025.2.296.131.527.329.693.596.166.264.25.588.25.972v2.461zm-2.26.468a1.542 1.542 0 001.05-.4c.13-.12.229-.251.297-.391v-1.093H9.37c-.52 0-.92.083-1.196.249a.79.79 0 00-.415.727.92.92 0 00.117.464.845.845 0 00.342.327c.15.078.332.117.547.117zm6.147-4.697c1.13 0 1.694.64 1.694 1.919V190h-.913v-3.472c0-.403-.088-.696-.263-.879-.173-.182-.435-.273-.786-.273-.28 0-.533.076-.757.229a1.627 1.627 0 00-.528.616V190h-.913v-5.283h.865l.029.649c.192-.237.421-.421.688-.552.267-.13.562-.195.884-.195zm7.51 5.381v-6.03l-1.816.669v-.816l2.587-.971h.142V190h-.913zm4.34-7.109h3.648v.825h-2.876l-.21 1.948a2.268 2.268 0 011.182-.308c.433 0 .807.098 1.123.293.319.192.563.468.732.826.173.358.26.778.26 1.259 0 .463-.085.873-.255 1.231a1.88 1.88 0 01-.757.835c-.335.198-.748.298-1.24.298-.394 0-.752-.074-1.074-.22a1.93 1.93 0 01-.786-.659c-.202-.296-.322-.659-.361-1.089h.864c.055.404.198.711.43.923.234.208.543.312.927.312.28 0 .52-.065.718-.195a1.25 1.25 0 00.459-.562c.107-.244.161-.532.161-.864 0-.303-.055-.573-.166-.81a1.298 1.298 0 00-.488-.567 1.37 1.37 0 00-.762-.205 1.9 1.9 0 00-.488.054 1.1 1.1 0 00-.337.141 3.293 3.293 0 00-.332.259l-.733-.185.362-3.54zm67.785 0v5.029c0 .459-.096.853-.288 1.182a1.86 1.86 0 01-.791.742 2.579 2.579 0 01-1.167.254c-.446 0-.838-.077-1.177-.23a1.76 1.76 0 01-.786-.688c-.189-.31-.283-.692-.283-1.148H91c0 .433.117.759.352.977.234.218.55.327.947.327.25 0 .473-.054.669-.161.195-.111.348-.272.459-.484.114-.214.17-.472.17-.771v-5.029h.948zm5.478 5.957c0 .185.017.377.049.576.033.195.078.361.137.498V190h-.952a2.07 2.07 0 01-.127-.552 2.12 2.12 0 01-.66.474 1.983 1.983 0 01-.84.176c-.35 0-.663-.069-.937-.205-.27-.14-.48-.329-.63-.567a1.475 1.475 0 01-.22-.791c0-.374.097-.692.289-.952.195-.26.47-.456.825-.586.358-.133.78-.2 1.265-.2h.888v-.42c0-.322-.096-.575-.288-.757-.189-.185-.462-.278-.82-.278a1.41 1.41 0 00-.586.117.977.977 0 00-.405.308.68.68 0 00-.142.415h-.913c0-.258.088-.507.264-.747.175-.241.423-.437.742-.586a2.5 2.5 0 011.094-.23c.39 0 .732.067 1.025.2.296.131.527.329.693.596.166.264.249.588.249.972v2.461zm-2.26.468a1.542 1.542 0 001.05-.4c.13-.12.229-.251.297-.391v-1.093h-.742c-.52 0-.92.083-1.196.249a.79.79 0 00-.415.727.92.92 0 00.117.464.846.846 0 00.342.327c.15.078.332.117.547.117zm6.147-4.697c1.13 0 1.694.64 1.694 1.919V190h-.913v-3.472c0-.403-.088-.696-.263-.879-.173-.182-.435-.273-.786-.273-.28 0-.533.076-.757.229a1.63 1.63 0 00-.528.616V190h-.913v-5.283h.865l.029.649c.192-.237.421-.421.688-.552.267-.13.562-.195.884-.195zm7.51 5.381v-6.03l-1.817.669v-.816l2.588-.971h.142V190h-.913zm5.22 0h-.957l2.934-6.377h-3.843v-.732h4.81v.503L116.641 190zm69.905-7.109v5.029c0 .459-.096.853-.288 1.182a1.864 1.864 0 01-.791.742 2.582 2.582 0 01-1.167.254c-.446 0-.838-.077-1.177-.23a1.761 1.761 0 01-.786-.688c-.189-.31-.283-.692-.283-1.148h.947c0 .433.117.759.352.977.234.218.55.327.947.327.25 0 .473-.054.669-.161.195-.111.348-.272.459-.484.114-.214.171-.472.171-.771v-5.029h.947zm5.478 5.957c0 .185.017.377.049.576.033.195.078.361.137.498V190h-.952a2.032 2.032 0 01-.127-.552 2.117 2.117 0 01-.659.474 1.984 1.984 0 01-.84.176 2.08 2.08 0 01-.938-.205c-.27-.14-.48-.329-.63-.567a1.479 1.479 0 01-.219-.791c0-.374.096-.692.288-.952.195-.26.47-.456.825-.586.358-.133.78-.2 1.265-.2h.888v-.42c0-.322-.096-.575-.288-.757-.189-.185-.462-.278-.82-.278a1.41 1.41 0 00-.586.117.968.968 0 00-.405.308.677.677 0 00-.142.415h-.913c0-.258.088-.507.264-.747.175-.241.423-.437.742-.586.319-.153.683-.23 1.094-.23.39 0 .732.067 1.025.2.296.131.527.329.693.596.166.264.249.588.249.972v2.461zm-2.26.468c.208 0 .402-.035.581-.107.182-.075.338-.173.468-.293.131-.12.23-.251.298-.391v-1.093h-.742c-.521 0-.919.083-1.196.249a.79.79 0 00-.415.727.92.92 0 00.117.464.844.844 0 00.342.327c.15.078.332.117.547.117zm6.147-4.697c1.13 0 1.694.64 1.694 1.919V190h-.913v-3.472c0-.403-.088-.696-.263-.879-.173-.182-.435-.273-.786-.273-.28 0-.533.076-.757.229a1.63 1.63 0 00-.528.616V190h-.913v-5.283h.865l.029.649c.192-.237.421-.421.688-.552.267-.13.562-.195.884-.195zm7.51 5.381v-6.03l-1.817.669v-.816l2.588-.971h.142V190h-.913zm6.841-3.662c.371.159.664.392.879.698.218.306.327.653.327 1.04 0 .42-.1.783-.298 1.089a1.866 1.866 0 01-.806.698 2.74 2.74 0 01-1.157.235c-.43 0-.817-.078-1.162-.235a1.88 1.88 0 01-.806-.693c-.195-.306-.293-.671-.293-1.094 0-.39.106-.739.318-1.045.211-.309.503-.542.874-.698a1.846 1.846 0 01-.757-.649 1.693 1.693 0 01-.274-.943c0-.403.09-.752.269-1.045.179-.296.426-.521.742-.674a2.488 2.488 0 011.089-.229c.407 0 .768.078 1.084.234.316.153.563.376.742.669.179.293.269.642.269 1.045 0 .349-.093.663-.279.943-.185.28-.439.498-.761.654zm-1.055-2.813c-.234 0-.441.051-.62.152a1.07 1.07 0 00-.42.429 1.373 1.373 0 00-.146.65c0 .244.048.457.146.64.098.182.236.323.415.424.182.101.391.152.625.152.234 0 .441-.051.62-.152a1.04 1.04 0 00.415-.424c.098-.183.147-.396.147-.64 0-.235-.051-.444-.152-.63a1.053 1.053 0 00-.415-.439 1.167 1.167 0 00-.615-.162zm0 5.84c.42 0 .749-.115.986-.346.241-.232.362-.552.362-.962 0-.261-.057-.494-.171-.699a1.198 1.198 0 00-.484-.478 1.421 1.421 0 00-.703-.171c-.27 0-.506.057-.708.171a1.177 1.177 0 00-.468.478 1.46 1.46 0 00-.162.699c0 .41.119.73.357.962.241.231.571.346.991.346zm66.339-6.474v5.029c0 .459-.096.853-.288 1.182a1.864 1.864 0 01-.791.742 2.582 2.582 0 01-1.167.254c-.446 0-.838-.077-1.177-.23a1.761 1.761 0 01-.786-.688c-.189-.31-.283-.692-.283-1.148h.947c0 .433.117.759.352.977.234.218.55.327.947.327.25 0 .473-.054.669-.161.195-.111.348-.272.459-.484.114-.214.171-.472.171-.771v-5.029h.947zm5.478 5.957c0 .185.017.377.049.576.033.195.078.361.137.498V190h-.952a2.032 2.032 0 01-.127-.552 2.117 2.117 0 01-.659.474 1.984 1.984 0 01-.84.176 2.08 2.08 0 01-.938-.205c-.27-.14-.48-.329-.63-.567a1.479 1.479 0 01-.219-.791c0-.374.096-.692.288-.952.195-.26.47-.456.825-.586.358-.133.78-.2 1.265-.2h.888v-.42c0-.322-.096-.575-.288-.757-.189-.185-.462-.278-.82-.278a1.41 1.41 0 00-.586.117.968.968 0 00-.405.308.677.677 0 00-.142.415h-.913c0-.258.088-.507.264-.747.175-.241.423-.437.742-.586.319-.153.683-.23 1.094-.23.39 0 .732.067 1.025.2.296.131.527.329.693.596.166.264.249.588.249.972v2.461zm-2.26.468c.208 0 .402-.035.581-.107.182-.075.338-.173.468-.293.131-.12.23-.251.298-.391v-1.093h-.742c-.521 0-.919.083-1.196.249a.79.79 0 00-.415.727.92.92 0 00.117.464.844.844 0 00.342.327c.15.078.332.117.547.117zm6.147-4.697c1.13 0 1.694.64 1.694 1.919V190h-.913v-3.472c0-.403-.088-.696-.263-.879-.173-.182-.435-.273-.786-.273-.28 0-.533.076-.757.229a1.63 1.63 0 00-.528.616V190h-.913v-5.283h.865l.029.649c.192-.237.421-.421.688-.552.267-.13.562-.195.884-.195zm7.51 5.381v-6.03l-1.817.669v-.816l2.588-.971h.142V190h-.913zm5.669-7.207c.517 0 .945.135 1.284.405.342.267.591.617.747 1.05.16.433.239.905.239 1.416v.337c0 .736-.084 1.395-.254 1.978a2.794 2.794 0 01-1.001 1.455c-.498.384-1.207.576-2.128.576h-.093v-.762h.093c.898 0 1.526-.215 1.884-.644.362-.433.557-1.01.586-1.729a2.2 2.2 0 01-.688.547 1.85 1.85 0 01-.845.2c-.446 0-.822-.112-1.128-.337a2.056 2.056 0 01-.683-.884 3.025 3.025 0 01-.22-1.152c0-.459.084-.874.254-1.245.169-.374.42-.669.752-.884.332-.218.732-.327 1.201-.327zm-.029 4.087c.299 0 .574-.091.825-.274.254-.185.442-.419.566-.703v-.356c0-.417-.062-.776-.185-1.079-.124-.306-.29-.537-.498-.694a1.099 1.099 0 00-.679-.239c-.27 0-.505.072-.703.215-.199.143-.35.342-.454.596a2.19 2.19 0 00-.157.854c0 .293.048.568.142.825.098.254.242.461.435.621.195.156.431.234.708.234zm66.485-3.989v5.029c0 .459-.096.853-.288 1.182a1.864 1.864 0 01-.791.742 2.582 2.582 0 01-1.167.254c-.446 0-.838-.077-1.177-.23a1.761 1.761 0 01-.786-.688c-.189-.31-.283-.692-.283-1.148h.947c0 .433.117.759.352.977.234.218.55.327.947.327.25 0 .473-.054.669-.161.195-.111.348-.272.459-.484.114-.214.171-.472.171-.771v-5.029h.947zm5.478 5.957c0 .185.017.377.049.576.033.195.078.361.137.498V190h-.952a2.032 2.032 0 01-.127-.552 2.117 2.117 0 01-.659.474 1.984 1.984 0 01-.84.176 2.08 2.08 0 01-.938-.205c-.27-.14-.48-.329-.63-.567a1.479 1.479 0 01-.219-.791c0-.374.096-.692.288-.952.195-.26.47-.456.825-.586.358-.133.78-.2 1.265-.2h.888v-.42c0-.322-.096-.575-.288-.757-.189-.185-.462-.278-.82-.278a1.41 1.41 0 00-.586.117.968.968 0 00-.405.308.677.677 0 00-.142.415h-.913c0-.258.088-.507.264-.747.175-.241.423-.437.742-.586.319-.153.683-.23 1.094-.23.39 0 .732.067 1.025.2.296.131.527.329.693.596.166.264.249.588.249.972v2.461zm-2.26.468c.208 0 .402-.035.581-.107.182-.075.338-.173.468-.293.131-.12.23-.251.298-.391v-1.093h-.742c-.521 0-.919.083-1.196.249a.79.79 0 00-.415.727.92.92 0 00.117.464.844.844 0 00.342.327c.15.078.332.117.547.117zm6.147-4.697c1.13 0 1.694.64 1.694 1.919V190h-.913v-3.472c0-.403-.088-.696-.263-.879-.173-.182-.435-.273-.786-.273-.28 0-.533.076-.757.229a1.63 1.63 0 00-.528.616V190h-.913v-5.283h.865l.029.649c.192-.237.421-.421.688-.552.267-.13.562-.195.884-.195zM379.36 190v-.645l2.329-2.592c.29-.323.513-.593.669-.811.157-.221.266-.42.328-.596.065-.179.097-.364.097-.556a1.41 1.41 0 00-.146-.645 1.101 1.101 0 00-.425-.459 1.234 1.234 0 00-.659-.171c-.463 0-.814.132-1.055.396s-.361.617-.361 1.059h-.913c0-.406.089-.776.268-1.108.179-.332.445-.594.796-.786.352-.195.773-.293 1.265-.293.439 0 .82.08 1.142.239.323.156.57.378.743.664a1.9 1.9 0 01.258.996c0 .391-.12.795-.361 1.211a7.354 7.354 0 01-.972 1.289l-1.904 2.076h3.564V190h-4.663zm10.088-3.032c0 1.113-.192 1.914-.576 2.402-.381.485-.934.728-1.66.728-.723 0-1.279-.244-1.67-.733-.391-.488-.586-1.287-.586-2.397v-1.089c0-1.107.192-1.898.576-2.373.388-.475.944-.713 1.67-.713.729 0 1.286.238 1.67.713.384.475.576 1.266.576 2.373v1.089zm-.913-1.24c0-.782-.111-1.343-.332-1.685-.218-.345-.552-.518-1.001-.518-.443 0-.776.173-1.001.518-.221.345-.332.907-.332 1.685v1.381c0 .778.114 1.35.342 1.714.228.362.561.542 1.001.542.446 0 .778-.179.996-.537.218-.361.327-.934.327-1.719v-1.381zm67.011-2.837v5.029c0 .459-.096.853-.288 1.182a1.864 1.864 0 01-.791.742 2.582 2.582 0 01-1.167.254c-.446 0-.838-.077-1.177-.23a1.761 1.761 0 01-.786-.688c-.189-.31-.283-.692-.283-1.148h.947c0 .433.117.759.352.977.234.218.55.327.947.327.25 0 .473-.054.669-.161.195-.111.348-.272.459-.484.114-.214.171-.472.171-.771v-5.029h.947zm5.478 5.957c0 .185.017.377.049.576.033.195.078.361.137.498V190h-.952a2.032 2.032 0 01-.127-.552 2.117 2.117 0 01-.659.474 1.984 1.984 0 01-.84.176 2.08 2.08 0 01-.938-.205c-.27-.14-.48-.329-.63-.567a1.479 1.479 0 01-.219-.791c0-.374.096-.692.288-.952.195-.26.47-.456.825-.586.358-.133.78-.2 1.265-.2h.888v-.42c0-.322-.096-.575-.288-.757-.189-.185-.462-.278-.82-.278a1.41 1.41 0 00-.586.117.968.968 0 00-.405.308.677.677 0 00-.142.415h-.913c0-.258.088-.507.264-.747.175-.241.423-.437.742-.586.319-.153.683-.23 1.094-.23.39 0 .732.067 1.025.2.296.131.527.329.693.596.166.264.249.588.249.972v2.461zm-2.26.468c.208 0 .402-.035.581-.107.182-.075.338-.173.468-.293.131-.12.23-.251.298-.391v-1.093h-.742c-.521 0-.919.083-1.196.249a.79.79 0 00-.415.727.92.92 0 00.117.464.844.844 0 00.342.327c.15.078.332.117.547.117zm6.147-4.697c1.13 0 1.694.64 1.694 1.919V190h-.913v-3.472c0-.403-.088-.696-.263-.879-.173-.182-.435-.273-.786-.273-.28 0-.533.076-.757.229a1.63 1.63 0 00-.528.616V190h-.913v-5.283h.865l.029.649c.192-.237.421-.421.688-.552.267-.13.562-.195.884-.195zM470.36 190v-.645l2.329-2.592c.29-.323.513-.593.669-.811.157-.221.266-.42.328-.596.065-.179.097-.364.097-.556a1.41 1.41 0 00-.146-.645 1.101 1.101 0 00-.425-.459 1.234 1.234 0 00-.659-.171c-.463 0-.814.132-1.055.396s-.361.617-.361 1.059h-.913c0-.406.089-.776.268-1.108.179-.332.445-.594.796-.786.352-.195.773-.293 1.265-.293.439 0 .82.08 1.142.239.323.156.57.378.743.664a1.9 1.9 0 01.258.996c0 .391-.12.795-.361 1.211a7.354 7.354 0 01-.972 1.289l-1.904 2.076h3.564V190h-4.663zm7.686 0v-6.03l-1.817.669v-.816l2.588-.971h.142V190h-.913zm67.5-7.109v5.029c0 .459-.096.853-.288 1.182a1.864 1.864 0 01-.791.742 2.582 2.582 0 01-1.167.254c-.446 0-.838-.077-1.177-.23a1.761 1.761 0 01-.786-.688c-.189-.31-.283-.692-.283-1.148h.947c0 .433.117.759.352.977.234.218.55.327.947.327.25 0 .473-.054.669-.161.195-.111.348-.272.459-.484.114-.214.171-.472.171-.771v-5.029h.947zm5.478 5.957c0 .185.017.377.049.576.033.195.078.361.137.498V190h-.952a2.032 2.032 0 01-.127-.552 2.117 2.117 0 01-.659.474 1.984 1.984 0 01-.84.176 2.08 2.08 0 01-.938-.205c-.27-.14-.48-.329-.63-.567a1.479 1.479 0 01-.219-.791c0-.374.096-.692.288-.952.195-.26.47-.456.825-.586.358-.133.78-.2 1.265-.2h.888v-.42c0-.322-.096-.575-.288-.757-.189-.185-.462-.278-.82-.278a1.41 1.41 0 00-.586.117.968.968 0 00-.405.308.677.677 0 00-.142.415h-.913c0-.258.088-.507.264-.747.175-.241.423-.437.742-.586.319-.153.683-.23 1.094-.23.39 0 .732.067 1.025.2.296.131.527.329.693.596.166.264.249.588.249.972v2.461zm-2.26.468c.208 0 .402-.035.581-.107.182-.075.338-.173.468-.293.131-.12.23-.251.298-.391v-1.093h-.742c-.521 0-.919.083-1.196.249a.79.79 0 00-.415.727.92.92 0 00.117.464.844.844 0 00.342.327c.15.078.332.117.547.117zm6.147-4.697c1.13 0 1.694.64 1.694 1.919V190h-.913v-3.472c0-.403-.088-.696-.263-.879-.173-.182-.435-.273-.786-.273-.28 0-.533.076-.757.229a1.63 1.63 0 00-.528.616V190h-.913v-5.283h.865l.029.649c.192-.237.421-.421.688-.552.267-.13.562-.195.884-.195zM560.36 190v-.645l2.329-2.592c.29-.323.513-.593.669-.811.157-.221.266-.42.328-.596.065-.179.097-.364.097-.556a1.41 1.41 0 00-.146-.645 1.101 1.101 0 00-.425-.459 1.234 1.234 0 00-.659-.171c-.463 0-.814.132-1.055.396s-.361.617-.361 1.059h-.913c0-.406.089-.776.268-1.108.179-.332.445-.594.796-.786.352-.195.773-.293 1.265-.293.439 0 .82.08 1.142.239.323.156.57.378.743.664a1.9 1.9 0 01.258.996c0 .391-.12.795-.361 1.211a7.354 7.354 0 01-.972 1.289l-1.904 2.076h3.564V190h-4.663zm5.625 0v-.645l2.329-2.592c.29-.323.513-.593.669-.811.157-.221.266-.42.328-.596.065-.179.097-.364.097-.556a1.41 1.41 0 00-.146-.645 1.101 1.101 0 00-.425-.459 1.234 1.234 0 00-.659-.171c-.463 0-.814.132-1.055.396s-.361.617-.361 1.059h-.913c0-.406.089-.776.268-1.108.179-.332.445-.594.796-.786.352-.195.773-.293 1.265-.293.439 0 .82.08 1.142.239.323.156.57.378.742.664.173.287.259.619.259.996 0 .391-.12.795-.361 1.211a7.354 7.354 0 01-.972 1.289l-1.904 2.076h3.564V190h-4.663z" fill="#4D4F5C"/><path d="M9.4 160.5h17.253m5.074 0H48.98m5.074 0h17.253m5.073 0h17.254m5.074 0h17.253m5.074 0h17.253m5.074 0h17.253m5.074 0h17.253m5.074 0h17.253m5.074 0h17.253m5.074 0h17.253m5.074 0h17.253m5.074 0h17.253m5.074 0h17.253m5.074 0h17.253m5.074 0h17.253m5.074 0h17.253m5.074 0h17.253m5.074 0h17.253m5.074 0h17.253m5.074 0h17.253m5.073 0h17.253m5.074 0h17.253m5.074 0h17.253m5.074 0H562.5" opacity=".69" stroke="#AFB1B7"/><path d="M183 154h-18v7h18v-7zm23 0h-18v7h18v-7zm22 0h-18v7h18v-7zm22 0h-18v7h18v-7zm23 0h-18v7h18v-7zm22 0h-18v7h18v-7zm22 0h-18v7h18v-7zm23-1h-18v8h18v-8zm22-2h-18v10h18v-10zm22-3h-18v13h18v-13zm23-2h-18v15h18v-15zm22-3h-18v18h18v-18zm22-4h-18v22h18v-22zm23-3h-18v25h18v-25zm22-11h-18v36h18v-36zm22-2h-18v38h18v-38zm23-2h-18v40h18v-40zm22-3h-18v43h18v-43z" fill="#FF8373"/><path d="M16 94.5h270.6l86-12.3 89.6-22.4h91.6" stroke="#DDD"/><path d="M196.2 94.5h90.4l86-12.3 89.6-22.4h91.6" stroke="#F8CF61"/><path d="M16 98a3 3 0 100-6 3 3 0 000 6z" fill="#fff"/><path d="M16 97.5a2.5 2.5 0 100-5 2.5 2.5 0 000 5z" stroke="#DDD"/><path d="M36 98a3 3 0 100-6 3 3 0 000 6z" fill="#fff"/><path d="M36 97.5a2.5 2.5 0 100-5 2.5 2.5 0 000 5z" stroke="#DDD"/><path d="M60 98a3 3 0 100-6 3 3 0 000 6z" fill="#fff"/><path d="M60 97.5a2.5 2.5 0 100-5 2.5 2.5 0 000 5z" stroke="#DDD"/><path d="M84 98a3 3 0 100-6 3 3 0 000 6z" fill="#fff"/><path d="M84 97.5a2.5 2.5 0 100-5 2.5 2.5 0 000 5z" stroke="#DDD"/><path d="M105 98a3 3 0 100-6 3 3 0 000 6z" fill="#fff"/><path d="M105 97.5a2.5 2.5 0 100-5 2.5 2.5 0 000 5z" stroke="#DDD"/><path d="M129 98a3 3 0 100-6 3 3 0 000 6z" fill="#fff"/><path d="M129 97.5a2.5 2.5 0 100-5 2.5 2.5 0 000 5z" stroke="#DDD"/><path d="M150 98a3 3 0 100-6 3 3 0 000 6z" fill="#fff"/><path d="M150 97.5a2.5 2.5 0 100-5 2.5 2.5 0 000 5z" stroke="#DDD"/><path d="M174 98a3 3 0 100-6 3 3 0 000 6z" fill="#fff"/><path d="M174 97.5a2.5 2.5 0 100-5 2.5 2.5 0 000 5z" stroke="#DDD"/><path d="M195 98a3 3 0 100-6 3 3 0 000 6z" fill="#fff"/><path d="M195 97.5a2.5 2.5 0 100-5 2.5 2.5 0 000 5z" stroke="#F8CF61"/><path d="M219 98a3 3 0 100-6 3 3 0 000 6z" fill="#fff"/><path d="M219 97.5a2.5 2.5 0 100-5 2.5 2.5 0 000 5z" stroke="#F8CF61"/><path d="M241 98a3 3 0 100-6 3 3 0 000 6z" fill="#fff"/><path d="M241 97.5a2.5 2.5 0 100-5 2.5 2.5 0 000 5z" stroke="#F8CF61"/><path d="M261 98a3 3 0 100-6 3 3 0 000 6z" fill="#fff"/><path d="M261 97.5a2.5 2.5 0 100-5 2.5 2.5 0 000 5z" stroke="#F8CF61"/><path d="M285 98a3 3 0 100-6 3 3 0 000 6z" fill="#fff"/><path d="M285 97.5a2.5 2.5 0 100-5 2.5 2.5 0 000 5z" stroke="#F8CF61"/><path d="M305 95a3 3 0 100-6 3 3 0 000 6z" fill="#fff"/><path d="M305 94.5a2.5 2.5 0 100-5 2.5 2.5 0 000 5z" stroke="#F8CF61"/><path d="M328 91a3 3 0 100-6 3 3 0 000 6z" fill="#fff"/><path d="M328 90.5a2.5 2.5 0 100-5 2.5 2.5 0 000 5z" stroke="#F8CF61"/><path d="M353 88a3 3 0 100-6 3 3 0 000 6z" fill="#fff"/><path d="M353 87.5a2.5 2.5 0 100-5 2.5 2.5 0 000 5z" stroke="#F8CF61"/><path d="M375 85a3 3 0 100-6 3 3 0 000 6z" fill="#fff"/><path d="M375 84.5a2.5 2.5 0 100-5 2.5 2.5 0 000 5z" stroke="#F8CF61"/><path d="M398 79a3 3 0 100-6 3 3 0 000 6z" fill="#fff"/><path d="M398 78.5a2.5 2.5 0 100-5 2.5 2.5 0 000 5z" stroke="#F8CF61"/><path d="M420 74a3 3 0 100-6 3 3 0 000 6z" fill="#fff"/><path d="M420 73.5a2.5 2.5 0 100-5 2.5 2.5 0 000 5z" stroke="#F8CF61"/><path d="M442 68a3 3 0 100-6 3 3 0 000 6z" fill="#fff"/><path d="M442 67.5a2.5 2.5 0 100-5 2.5 2.5 0 000 5z" stroke="#F8CF61"/><path d="M465 63a3 3 0 100-6 3 3 0 000 6z" fill="#fff"/><path d="M465 62.5a2.5 2.5 0 100-5 2.5 2.5 0 000 5z" stroke="#F8CF61"/><path d="M484 63a3 3 0 100-6 3 3 0 000 6z" fill="#fff"/><path d="M484 62.5a2.5 2.5 0 100-5 2.5 2.5 0 000 5z" stroke="#F8CF61"/><path d="M506 63a3 3 0 100-6 3 3 0 000 6z" fill="#fff"/><path d="M506 62.5a2.5 2.5 0 100-5 2.5 2.5 0 000 5z" stroke="#F8CF61"/><path d="M529 63a3 3 0 100-6 3 3 0 000 6z" fill="#fff"/><path d="M529 62.5a2.5 2.5 0 100-5 2.5 2.5 0 000 5z" stroke="#F8CF61"/><path d="M554 63a3 3 0 100-6 3 3 0 000 6z" fill="#fff"/><path d="M554 62.5a2.5 2.5 0 100-5 2.5 2.5 0 000 5z" stroke="#F8CF61"/><path d="M16 93.5h270.6" stroke="#DDD"/><path d="M196.2 93.5h90.4l86-14.46 89.6-35.74h91.6" stroke="#A3A0FB"/><path d="M16 97a3 3 0 100-6 3 3 0 000 6z" fill="#fff"/><path d="M16 96.5a2.5 2.5 0 100-5 2.5 2.5 0 000 5z" stroke="#DDD"/><path d="M36 97a3 3 0 100-6 3 3 0 000 6z" fill="#fff"/><path d="M36 96.5a2.5 2.5 0 100-5 2.5 2.5 0 000 5z" stroke="#DDD"/><path d="M60 97a3 3 0 100-6 3 3 0 000 6z" fill="#fff"/><path d="M60 96.5a2.5 2.5 0 100-5 2.5 2.5 0 000 5z" stroke="#DDD"/><path d="M84 97a3 3 0 100-6 3 3 0 000 6z" fill="#fff"/><path d="M84 96.5a2.5 2.5 0 100-5 2.5 2.5 0 000 5z" stroke="#DDD"/><path d="M105 97a3 3 0 100-6 3 3 0 000 6z" fill="#fff"/><path d="M105 96.5a2.5 2.5 0 100-5 2.5 2.5 0 000 5z" stroke="#DDD"/><path d="M129 97a3 3 0 100-6 3 3 0 000 6z" fill="#fff"/><path d="M129 96.5a2.5 2.5 0 100-5 2.5 2.5 0 000 5z" stroke="#DDD"/><path d="M150 97a3 3 0 100-6 3 3 0 000 6z" fill="#fff"/><path d="M150 96.5a2.5 2.5 0 100-5 2.5 2.5 0 000 5z" stroke="#DDD"/><path d="M174 97a3 3 0 100-6 3 3 0 000 6z" fill="#fff"/><path d="M174 96.5a2.5 2.5 0 100-5 2.5 2.5 0 000 5z" stroke="#DDD"/><path d="M195 97a3 3 0 100-6 3 3 0 000 6z" fill="#fff"/><path d="M195 96.5a2.5 2.5 0 100-5 2.5 2.5 0 000 5z" stroke="#A3A0FB"/><path d="M219 97a3 3 0 100-6 3 3 0 000 6z" fill="#fff"/><path d="M219 96.5a2.5 2.5 0 100-5 2.5 2.5 0 000 5z" stroke="#A3A0FB"/><path d="M241 97a3 3 0 100-6 3 3 0 000 6z" fill="#fff"/><path d="M241 96.5a2.5 2.5 0 100-5 2.5 2.5 0 000 5z" stroke="#A3A0FB"/><path d="M261 97a3 3 0 100-6 3 3 0 000 6z" fill="#fff"/><path d="M261 96.5a2.5 2.5 0 100-5 2.5 2.5 0 000 5z" stroke="#A3A0FB"/><path d="M285 97a3 3 0 100-6 3 3 0 000 6z" fill="#fff"/><path d="M285 96.5a2.5 2.5 0 100-5 2.5 2.5 0 000 5z" stroke="#A3A0FB"/><path d="M305 94a3 3 0 100-6 3 3 0 000 6z" fill="#fff"/><path d="M305 93.5a2.5 2.5 0 100-5 2.5 2.5 0 000 5z" stroke="#A3A0FB"/><path d="M328 90a3 3 0 100-6 3 3 0 000 6z" fill="#fff"/><path d="M328 89.5a2.5 2.5 0 100-5 2.5 2.5 0 000 5z" stroke="#A3A0FB"/><path d="M353 85a3 3 0 100-6 3 3 0 000 6z" fill="#fff"/><path d="M353 84.5a2.5 2.5 0 100-5 2.5 2.5 0 000 5z" stroke="#A3A0FB"/><path d="M375 82a3 3 0 100-6 3 3 0 000 6z" fill="#fff"/><path d="M375 81.5a2.5 2.5 0 100-5 2.5 2.5 0 000 5z" stroke="#A3A0FB"/><path d="M398 71a3 3 0 100-6 3 3 0 000 6z" fill="#fff"/><path d="M398 70.5a2.5 2.5 0 100-5 2.5 2.5 0 000 5z" stroke="#A3A0FB"/><path d="M420 63a3 3 0 100-6 3 3 0 000 6z" fill="#fff"/><path d="M420 62.5a2.5 2.5 0 100-5 2.5 2.5 0 000 5z" stroke="#A3A0FB"/><path d="M442 54a3 3 0 100-6 3 3 0 000 6z" fill="#fff"/><path d="M442 53.5a2.5 2.5 0 100-5 2.5 2.5 0 000 5z" stroke="#A3A0FB"/><path d="M465 47a3 3 0 100-6 3 3 0 000 6z" fill="#fff"/><path d="M465 46.5a2.5 2.5 0 100-5 2.5 2.5 0 000 5z" stroke="#A3A0FB"/><path d="M484 47a3 3 0 100-6 3 3 0 000 6z" fill="#fff"/><path d="M484 46.5a2.5 2.5 0 100-5 2.5 2.5 0 000 5z" stroke="#A3A0FB"/><path d="M506 47a3 3 0 100-6 3 3 0 000 6z" fill="#fff"/><path d="M506 46.5a2.5 2.5 0 100-5 2.5 2.5 0 000 5z" stroke="#A3A0FB"/><path d="M529 47a3 3 0 100-6 3 3 0 000 6z" fill="#fff"/><path d="M529 46.5a2.5 2.5 0 100-5 2.5 2.5 0 000 5z" stroke="#A3A0FB"/><path d="M554 47a3 3 0 100-6 3 3 0 000 6z" fill="#fff"/><path d="M554 46.5a2.5 2.5 0 100-5 2.5 2.5 0 000 5z" stroke="#A3A0FB"/></svg>