<svg width="739" height="352" viewBox="0 0 739 352" fill="none" xmlns="http://www.w3.org/2000/svg"><path d="M137.198 346h-4.976v-1.066h4.976V346zm-4.717 0h-1.326v-9.953h1.326V346zm5.695-3.773c0-.716.136-1.356.41-1.921a3.263 3.263 0 011.162-1.34c.501-.333 1.096-.499 1.784-.499.697 0 1.299.166 1.805.499.506.328.893.775 1.162 1.34.273.565.41 1.205.41 1.921v.157c0 .711-.137 1.351-.41 1.921a3.205 3.205 0 01-1.162 1.34c-.501.328-1.098.492-1.791.492-.693 0-1.292-.164-1.798-.492a3.269 3.269 0 01-1.162-1.34c-.274-.57-.41-1.21-.41-1.921v-.157zm1.278.157c0 .487.078.939.233 1.353.154.415.385.748.69.998.31.251.699.376 1.169.376.465 0 .85-.125 1.155-.376.31-.25.542-.583.697-.998.155-.414.233-.866.233-1.353v-.157c0-.488-.078-.939-.233-1.354a2.275 2.275 0 00-.697-.998c-.31-.255-.699-.383-1.169-.383-.46 0-.845.128-1.155.383-.31.251-.542.583-.697.998a3.93 3.93 0 00-.226 1.354v.157zm10.821-3.78h.841l-.164 1.216-1.934 6.18h-.814l.171-1.326 1.9-6.07zm-1.545 6.138l.11 1.258h-.855l-2.146-7.396h1.271l1.62 6.138zm5.743-6.138h1.264L153.591 346h-.848l.185-1.299 1.545-6.097zm-1.306 5.974l.205 1.422h-.813l-1.99-6.193-.157-1.203h.896l1.859 5.974zm6.938 1.559c-.688 0-1.287-.153-1.797-.458-.506-.31-.9-.734-1.183-1.272-.278-.538-.417-1.153-.417-1.845v-.294c0-.803.153-1.486.458-2.051.31-.57.711-1.003 1.203-1.299a2.987 2.987 0 011.572-.451c.711 0 1.29.159 1.737.478.451.315.781.745.991 1.292.214.543.321 1.158.321 1.846v.567h-5.523v-1.025h4.245v-.096a3.278 3.278 0 00-.198-.957 1.72 1.72 0 00-.547-.772c-.251-.205-.593-.308-1.026-.308-.382 0-.722.11-1.018.328-.292.215-.522.529-.691.944-.164.41-.246.911-.246 1.504v.294c0 .469.087.897.26 1.285.173.382.424.69.752.923.328.227.72.341 1.176.341.446 0 .825-.091 1.135-.273.309-.182.581-.426.813-.732l.773.602c-.237.365-.579.695-1.026.991-.442.292-1.03.438-1.764.438zm8.668-2.099c0-.182-.041-.351-.123-.506-.077-.159-.237-.303-.478-.43-.242-.133-.606-.249-1.094-.349a7.438 7.438 0 01-1.422-.431c-.396-.177-.704-.403-.923-.676-.214-.274-.321-.613-.321-1.019 0-.392.112-.75.335-1.073.228-.328.547-.59.957-.786.415-.201.898-.301 1.449-.301.593 0 1.099.105 1.518.314.424.205.747.483.971.834.223.347.335.732.335 1.156h-1.279c0-.306-.134-.595-.403-.869-.264-.273-.645-.41-1.142-.41-.346 0-.629.055-.847.164a1.08 1.08 0 00-.472.41 1.015 1.015 0 00-.144.52c0 .182.046.342.137.478.091.133.258.251.499.356.246.105.602.21 1.067.314.606.137 1.105.301 1.497.493.392.191.683.426.875.704.191.278.287.617.287 1.018 0 .429-.119.809-.356 1.142-.237.328-.569.585-.998.772-.428.183-.932.274-1.51.274-.652 0-1.204-.116-1.655-.349-.451-.232-.793-.531-1.025-.895a2.157 2.157 0 01-.349-1.169h1.279c.022.346.123.622.3.827.183.2.404.344.663.43.265.087.527.13.787.13.346 0 .635-.045.868-.136.237-.096.414-.224.533-.383a.9.9 0 00.184-.554zm6.037-4.471h-4.006v-.963h4.006v.963zm-1.381-2.761v7.362c0 .255.038.447.116.574a.553.553 0 00.301.253c.123.041.255.062.396.062.105 0 .214-.009.328-.028.119-.018.205-.034.26-.048l.007 1.019c-.1.032-.233.062-.397.089a3 3 0 01-.581.048 1.97 1.97 0 01-.854-.185 1.373 1.373 0 01-.622-.615c-.155-.292-.233-.684-.233-1.176v-7.355h1.279zM186.273 346h-5.256v-1.066h5.256V346zm-4.997 0h-1.326v-9.953h1.326V346zm4.3-4.607h-4.559v-1.067h4.559v1.067zm.629-4.273h-5.188v-1.073h5.188v1.073zm2.782 8.88h-1.278v-7.396h1.21l.068 1.579V346zm-.834-4.006c.009-.674.139-1.276.39-1.805a3.06 3.06 0 011.046-1.257c.451-.31.975-.465 1.572-.465.488 0 .907.091 1.258.273.355.178.629.463.82.855.196.392.294.911.294 1.558V346h-1.278v-4.86c0-.388-.057-.7-.171-.937a1.018 1.018 0 00-.492-.513c-.219-.109-.488-.164-.807-.164a1.82 1.82 0 00-.854.199 2.043 2.043 0 00-.663.546 2.56 2.56 0 00-.431.8c-.1.297-.15.611-.15.944l-.534-.021zm13.248-3.39v7.239c0 .651-.134 1.207-.403 1.668-.264.46-.633.809-1.107 1.046-.47.241-1.012.362-1.627.362a4 4 0 01-.903-.123 3.664 3.664 0 01-1.011-.403 2.53 2.53 0 01-.828-.759l.664-.745c.309.373.633.633.97.779.342.15.679.226 1.012.226.597 0 1.071-.171 1.422-.513.355-.337.533-.83.533-1.477v-5.674l.116-1.626h1.162zm-6.255 3.636c0-.752.119-1.41.356-1.975.237-.57.574-1.012 1.012-1.327.437-.314.957-.471 1.558-.471.465 0 .871.082 1.217.246.351.159.647.392.889.697.246.305.44.675.581 1.108.146.433.246.92.301 1.462v.664c-.069.715-.221 1.335-.458 1.859-.233.519-.559.923-.978 1.21-.419.282-.941.424-1.565.424-.593 0-1.108-.162-1.545-.486-.433-.328-.771-.774-1.012-1.339-.237-.566-.356-1.208-.356-1.928v-.144zm1.279.144c0 .492.066.941.198 1.346.137.406.349.732.636.978.287.242.658.362 1.114.362.419 0 .763-.089 1.032-.266.269-.178.486-.413.65-.704.164-.292.291-.609.383-.951v-1.661a3.997 3.997 0 00-.233-.724 2.222 2.222 0 00-.396-.629 1.793 1.793 0 00-.602-.445 1.914 1.914 0 00-.82-.164c-.461 0-.837.123-1.128.37-.287.246-.499.576-.636.991-.132.41-.198.861-.198 1.353v.144zm11.245-1.456c0-.442-.132-.793-.397-1.053-.259-.264-.644-.396-1.155-.396-.314 0-.592.054-.834.164a1.415 1.415 0 00-.554.43.956.956 0 00-.198.581h-1.278c0-.355.121-.699.362-1.032.242-.337.581-.613 1.019-.827.442-.219.961-.328 1.558-.328.538 0 1.014.091 1.429.273.415.183.738.458.971.827.237.365.355.823.355 1.374v3.446c0 .246.021.508.062.786.045.278.111.517.198.718V346h-1.333a2.343 2.343 0 01-.15-.581 4.615 4.615 0 01-.055-.684v-3.807zm.232 1.476h-1.271c-.72 0-1.276.114-1.668.342-.392.228-.588.57-.588 1.025 0 .356.118.657.355.903.242.246.593.369 1.053.369a2.095 2.095 0 001.73-.855c.173-.241.266-.473.28-.697l.547.609a1.842 1.842 0 01-.26.635 3.09 3.09 0 01-1.401 1.197 2.73 2.73 0 01-1.08.205c-.502 0-.941-.096-1.32-.287a2.25 2.25 0 01-.875-.793 2.07 2.07 0 01-.307-1.108c0-.797.3-1.401.902-1.811.602-.415 1.411-.622 2.427-.622h1.463l.013.888zm8.99-3.8v7.239c0 .651-.135 1.207-.404 1.668-.264.46-.633.809-1.107 1.046-.47.241-1.012.362-1.627.362-.255 0-.556-.041-.902-.123a3.67 3.67 0 01-1.012-.403 2.528 2.528 0 01-.827-.759l.663-.745c.31.373.633.633.97.779.342.15.68.226 1.012.226.597 0 1.071-.171 1.422-.513.356-.337.533-.83.533-1.477v-5.674l.116-1.626h1.163zm-6.255 3.636c0-.752.118-1.41.355-1.975.237-.57.574-1.012 1.012-1.327.437-.314.957-.471 1.558-.471.465 0 .871.082 1.217.246.351.159.647.392.889.697.246.305.44.675.581 1.108.146.433.246.92.301 1.462v.664c-.069.715-.221 1.335-.458 1.859-.233.519-.558.923-.978 1.21-.419.282-.941.424-1.565.424-.593 0-1.108-.162-1.545-.486-.433-.328-.77-.774-1.012-1.339-.237-.566-.355-1.208-.355-1.928v-.144zm1.278.144c0 .492.066.941.198 1.346.137.406.349.732.636.978.287.242.659.362 1.114.362.42 0 .764-.089 1.033-.266.268-.178.485-.413.649-.704a4.07 4.07 0 00.383-.951v-1.661a3.92 3.92 0 00-.233-.724 2.222 2.222 0 00-.396-.629 1.793 1.793 0 00-.602-.445 1.914 1.914 0 00-.82-.164c-.46 0-.836.123-1.128.37-.287.246-.499.576-.636.991-.132.41-.198.861-.198 1.353v.144zm9.96 3.753c-.688 0-1.287-.153-1.798-.458-.506-.31-.9-.734-1.182-1.272-.278-.538-.417-1.153-.417-1.845v-.294c0-.803.152-1.486.458-2.051.309-.57.71-1.003 1.203-1.299a2.984 2.984 0 011.572-.451c.711 0 1.29.159 1.736.478.451.315.782.745.991 1.292.215.543.322 1.158.322 1.846v.567h-5.524v-1.025h4.245v-.096a3.278 3.278 0 00-.198-.957 1.712 1.712 0 00-.547-.772c-.25-.205-.592-.308-1.025-.308-.383 0-.722.11-1.019.328-.291.215-.521.529-.69.944-.164.41-.246.911-.246 1.504v.294c0 .469.086.897.26 1.285.173.382.423.69.752.923.328.227.72.341 1.175.341.447 0 .825-.091 1.135-.273.31-.182.581-.426.814-.732l.772.602c-.237.365-.579.695-1.025.991-.442.292-1.03.438-1.764.438zm5.633-.137h-1.279v-7.396h1.21l.069 1.469V346zm-.855-4.006c.005-.674.119-1.276.342-1.805a2.846 2.846 0 011.005-1.257c.447-.31 1-.465 1.661-.465.693 0 1.265.203 1.716.608.451.406.677 1.071.677 1.996V346h-1.279v-4.867c0-.388-.066-.697-.198-.93a1.125 1.125 0 00-.547-.513 1.98 1.98 0 00-.834-.164c-.369 0-.679.066-.929.199a1.595 1.595 0 00-.595.546c-.151.233-.26.5-.328.8a4.469 4.469 0 00-.096.944l-.595-.021zm4.533-.417a3.582 3.582 0 01.341-1.517c.228-.474.561-.857.998-1.149.438-.296.971-.444 1.6-.444.529 0 .978.093 1.347.28.369.187.649.476.84.868.192.392.288.9.288 1.525V346h-1.279v-4.874c0-.415-.066-.738-.198-.971a1.035 1.035 0 00-.547-.485 2.158 2.158 0 00-.827-.144c-.278 0-.524.048-.738.144a1.54 1.54 0 00-.533.396 1.8 1.8 0 00-.329.568 2.102 2.102 0 00-.109.683l-.854.26zm10.404 4.56c-.688 0-1.288-.153-1.798-.458-.506-.31-.9-.734-1.183-1.272-.278-.538-.417-1.153-.417-1.845v-.294c0-.803.153-1.486.458-2.051.31-.57.711-1.003 1.204-1.299a2.982 2.982 0 011.572-.451c.711 0 1.289.159 1.736.478.451.315.782.745.991 1.292.215.543.322 1.158.322 1.846v.567h-5.524v-1.025h4.245v-.096a3.278 3.278 0 00-.198-.957 1.712 1.712 0 00-.547-.772c-.25-.205-.592-.308-1.025-.308-.383 0-.723.11-1.019.328-.291.215-.522.529-.69.944-.164.41-.246.911-.246 1.504v.294c0 .469.086.897.259 1.285.174.382.424.69.752.923.329.227.72.341 1.176.341.447 0 .825-.091 1.135-.273a2.79 2.79 0 00.813-.732l.773.602c-.237.365-.579.695-1.025.991-.443.292-1.03.438-1.764.438zm5.639-.137h-1.278v-7.396h1.21l.068 1.579V346zm-.833-4.006c.009-.674.139-1.276.389-1.805a3.06 3.06 0 011.046-1.257c.451-.31.975-.465 1.572-.465.488 0 .907.091 1.258.273a1.8 1.8 0 01.82.855c.196.392.294.911.294 1.558V346h-1.278v-4.86c0-.388-.057-.7-.171-.937a1.018 1.018 0 00-.492-.513c-.219-.109-.488-.164-.807-.164a1.82 1.82 0 00-.854.199 2.064 2.064 0 00-.663.546 2.56 2.56 0 00-.431.8c-.1.297-.15.611-.15.944l-.533-.021zm10.404-2.427h-4.006v-.963h4.006v.963zm-1.381-2.761v7.362c0 .255.039.447.116.574a.556.556 0 00.301.253c.123.041.255.062.396.062.105 0 .215-.009.329-.028.118-.018.205-.034.259-.048l.007 1.019a2.87 2.87 0 01-.396.089c-.16.032-.354.048-.581.048-.31 0-.595-.062-.855-.185a1.373 1.373 0 01-.622-.615c-.155-.292-.232-.684-.232-1.176v-7.355h1.278zm289.23 4.587h-5.373v-1.067h5.373v1.067zM539.481 346h-1.326v-9.953h1.326V346zm6.331 0h-1.327v-9.953h1.327V346zm3.527 0h-1.278v-7.396h1.278V346zm-1.374-9.365c0-.201.061-.372.184-.513.128-.141.315-.212.561-.212.246 0 .433.071.561.212a.723.723 0 01.198.513.717.717 0 01-.198.506c-.128.136-.315.205-.561.205-.246 0-.433-.069-.561-.205a.746.746 0 01-.184-.506zm9.345 1.969v7.239c0 .651-.135 1.207-.404 1.668-.264.46-.633.809-1.107 1.046-.47.241-1.012.362-1.627.362-.255 0-.556-.041-.902-.123a3.658 3.658 0 01-1.012-.403 2.528 2.528 0 01-.827-.759l.663-.745c.31.373.633.633.97.779.342.15.679.226 1.012.226.597 0 1.071-.171 1.422-.513.356-.337.533-.83.533-1.477v-5.674l.116-1.626h1.163zm-6.255 3.636c0-.752.118-1.41.355-1.975.237-.57.574-1.012 1.012-1.327.437-.314.957-.471 1.558-.471.465 0 .871.082 1.217.246.351.159.647.392.889.697.246.305.44.675.581 1.108.146.433.246.92.301 1.462v.664c-.069.715-.221 1.335-.458 1.859-.233.519-.559.923-.978 1.21-.419.282-.941.424-1.565.424-.593 0-1.108-.162-1.545-.486-.433-.328-.77-.774-1.012-1.339-.237-.566-.355-1.208-.355-1.928v-.144zm1.278.144c0 .492.066.941.198 1.346.137.406.349.732.636.978.287.242.659.362 1.114.362.42 0 .764-.089 1.032-.266.269-.178.486-.413.65-.704a4.07 4.07 0 00.383-.951v-1.661a3.92 3.92 0 00-.233-.724 2.222 2.222 0 00-.396-.629 1.793 1.793 0 00-.602-.445 1.914 1.914 0 00-.82-.164c-.46 0-.836.123-1.128.37-.287.246-.499.576-.636.991-.132.41-.198.861-.198 1.353v.144zm8.162 3.616h-1.278v-10.5h1.278V346zm-.834-4.006c.009-.674.139-1.276.39-1.805.25-.533.599-.952 1.046-1.257.451-.31.975-.465 1.572-.465.488 0 .907.091 1.258.273.355.178.629.463.82.855.196.392.294.911.294 1.558V346h-1.278v-4.86c0-.388-.057-.7-.171-.937a1.026 1.026 0 00-.492-.513c-.219-.109-.488-.164-.807-.164-.314 0-.599.066-.855.199a2.064 2.064 0 00-.663.546c-.186.233-.33.5-.43.8a2.909 2.909 0 00-.151.944l-.533-.021zm10.343 4.143c-.688 0-1.288-.153-1.798-.458-.506-.31-.9-.734-1.183-1.272-.278-.538-.417-1.153-.417-1.845v-.294c0-.803.153-1.486.458-2.051.31-.57.711-1.003 1.204-1.299a2.982 2.982 0 011.572-.451c.711 0 1.29.159 1.736.478.451.315.782.745.991 1.292.215.543.322 1.158.322 1.846v.567h-5.524v-1.025h4.245v-.096a3.278 3.278 0 00-.198-.957 1.712 1.712 0 00-.547-.772c-.25-.205-.592-.308-1.025-.308-.383 0-.722.11-1.019.328-.291.215-.522.529-.69.944-.164.41-.246.911-.246 1.504v.294c0 .469.086.897.26 1.285.173.382.423.69.751.923.329.227.721.341 1.176.341.447 0 .825-.091 1.135-.273.31-.182.581-.426.814-.732l.772.602c-.237.365-.579.695-1.025.991-.442.292-1.03.438-1.764.438zm8.668-2.099c0-.182-.041-.351-.123-.506-.078-.159-.237-.303-.479-.43-.241-.133-.606-.249-1.093-.349a7.438 7.438 0 01-1.422-.431c-.397-.177-.704-.403-.923-.676-.214-.274-.321-.613-.321-1.019 0-.392.111-.75.335-1.073.227-.328.546-.59.957-.786.414-.201.897-.301 1.449-.301.592 0 1.098.105 1.517.314.424.205.748.483.971.834.223.347.335.732.335 1.156h-1.278c0-.306-.135-.595-.404-.869-.264-.273-.644-.41-1.141-.41-.347 0-.629.055-.848.164a1.09 1.09 0 00-.472.41 1.024 1.024 0 00-.143.52c0 .182.045.342.137.478.091.133.257.251.499.356.246.105.601.21 1.066.314.606.137 1.105.301 1.497.493.392.191.684.426.875.704.191.278.287.617.287 1.018 0 .429-.118.809-.355 1.142-.237.328-.57.585-.998.772-.429.183-.932.274-1.511.274-.652 0-1.203-.116-1.654-.349-.452-.232-.793-.531-1.026-.895a2.165 2.165 0 01-.348-1.169h1.278c.023.346.123.622.301.827.182.2.403.344.663.43.264.087.526.13.786.13.346 0 .636-.045.868-.136.237-.096.415-.224.533-.383a.901.901 0 00.185-.554zm6.036-4.471h-4.006v-.963h4.006v.963zm-1.381-2.761v7.362c0 .255.039.447.116.574a.556.556 0 00.301.253c.123.041.255.062.397.062a3.009 3.009 0 00.588-.076l.006 1.019a2.87 2.87 0 01-.396.089c-.16.032-.353.048-.581.048-.31 0-.595-.062-.855-.185a1.378 1.378 0 01-.622-.615c-.155-.292-.232-.684-.232-1.176v-7.355h1.278zM596.172 346h-5.257v-1.066h5.257V346zm-4.997 0h-1.326v-9.953h1.326V346zm4.3-4.607h-4.56v-1.067h4.56v1.067zm.629-4.273h-5.189v-1.073h5.189v1.073zm2.782 8.88h-1.279v-7.396h1.21l.069 1.579V346zm-.834-4.006c.009-.674.139-1.276.389-1.805.251-.533.6-.952 1.046-1.257.451-.31.976-.465 1.573-.465.487 0 .906.091 1.257.273.356.178.629.463.821.855.196.392.294.911.294 1.558V346h-1.279v-4.86c0-.388-.057-.7-.171-.937a1.018 1.018 0 00-.492-.513c-.219-.109-.487-.164-.806-.164-.315 0-.6.066-.855.199a2.064 2.064 0 00-.663.546c-.187.233-.33.5-.431.8-.1.297-.15.611-.15.944l-.533-.021zm13.248-3.39v7.239c0 .651-.135 1.207-.404 1.668-.264.46-.633.809-1.107 1.046-.469.241-1.012.362-1.627.362-.255 0-.556-.041-.902-.123a3.67 3.67 0 01-1.012-.403 2.528 2.528 0 01-.827-.759l.663-.745c.31.373.633.633.971.779.341.15.679.226 1.011.226.597 0 1.071-.171 1.422-.513.356-.337.533-.83.533-1.477v-5.674l.117-1.626h1.162zm-6.255 3.636c0-.752.118-1.41.355-1.975.237-.57.575-1.012 1.012-1.327.438-.314.957-.471 1.559-.471.465 0 .87.082 1.217.246.35.159.647.392.888.697.246.305.44.675.581 1.108.146.433.246.92.301 1.462v.664c-.068.715-.221 1.335-.458 1.859-.232.519-.558.923-.978 1.21-.419.282-.941.424-1.565.424-.592 0-1.107-.162-1.545-.486-.433-.328-.77-.774-1.012-1.339-.237-.566-.355-1.208-.355-1.928v-.144zm1.278.144c0 .492.066.941.198 1.346.137.406.349.732.636.978.287.242.659.362 1.114.362.42 0 .764-.089 1.033-.266.269-.178.485-.413.649-.704a4.07 4.07 0 00.383-.951v-1.661a3.994 3.994 0 00-.232-.724 2.247 2.247 0 00-.397-.629 1.793 1.793 0 00-.602-.445 1.91 1.91 0 00-.82-.164c-.46 0-.836.123-1.128.37-.287.246-.499.576-.636.991-.132.41-.198.861-.198 1.353v.144zm11.245-1.456c0-.442-.132-.793-.396-1.053-.26-.264-.645-.396-1.155-.396a1.99 1.99 0 00-.834.164 1.408 1.408 0 00-.554.43.956.956 0 00-.198.581h-1.279c0-.355.121-.699.363-1.032.241-.337.581-.613 1.018-.827.442-.219.962-.328 1.559-.328.538 0 1.014.091 1.429.273.414.183.738.458.97.827.237.365.356.823.356 1.374v3.446c0 .246.02.508.061.786.046.278.112.517.198.718V346h-1.333a2.435 2.435 0 01-.15-.581 4.754 4.754 0 01-.055-.684v-3.807zm.233 1.476h-1.272c-.72 0-1.276.114-1.668.342-.392.228-.588.57-.588 1.025 0 .356.119.657.356.903.241.246.592.369 1.053.369a2.095 2.095 0 001.729-.855c.173-.241.267-.473.28-.697l.547.609a1.837 1.837 0 01-.259.635 3.06 3.06 0 01-1.402 1.197 2.73 2.73 0 01-1.08.205c-.501 0-.941-.096-1.319-.287a2.236 2.236 0 01-.875-.793 2.071 2.071 0 01-.308-1.108c0-.797.301-1.401.902-1.811.602-.415 1.411-.622 2.427-.622h1.463l.014.888zm8.989-3.8v7.239c0 .651-.134 1.207-.403 1.668a2.59 2.59 0 01-1.108 1.046c-.469.241-1.011.362-1.627.362-.255 0-.556-.041-.902-.123a3.67 3.67 0 01-1.012-.403 2.528 2.528 0 01-.827-.759l.663-.745c.31.373.634.633.971.779.342.15.679.226 1.012.226.597 0 1.071-.171 1.422-.513.355-.337.533-.83.533-1.477v-5.674l.116-1.626h1.162zm-6.255 3.636c0-.752.119-1.41.356-1.975.237-.57.574-1.012 1.011-1.327.438-.314.957-.471 1.559-.471.465 0 .87.082 1.217.246.351.159.647.392.888.697.246.305.44.675.581 1.108.146.433.247.92.301 1.462v.664c-.068.715-.221 1.335-.458 1.859-.232.519-.558.923-.977 1.21-.42.282-.941.424-1.566.424-.592 0-1.107-.162-1.545-.486-.433-.328-.77-.774-1.011-1.339-.237-.566-.356-1.208-.356-1.928v-.144zm1.278.144c0 .492.067.941.199 1.346.136.406.348.732.635.978.288.242.659.362 1.115.362.419 0 .763-.089 1.032-.266.269-.178.485-.413.649-.704a4.07 4.07 0 00.383-.951v-1.661a3.994 3.994 0 00-.232-.724 2.247 2.247 0 00-.397-.629 1.79 1.79 0 00-.601-.445 1.918 1.918 0 00-.821-.164c-.46 0-.836.123-1.128.37-.287.246-.499.576-.635.991-.132.41-.199.861-.199 1.353v.144zm9.96 3.753c-.688 0-1.287-.153-1.797-.458-.506-.31-.9-.734-1.183-1.272-.278-.538-.417-1.153-.417-1.845v-.294c0-.803.153-1.486.458-2.051.31-.57.711-1.003 1.203-1.299a2.987 2.987 0 011.572-.451c.711 0 1.29.159 1.737.478.451.315.781.745.991 1.292.214.543.321 1.158.321 1.846v.567h-5.523v-1.025h4.245v-.096a3.278 3.278 0 00-.198-.957 1.72 1.72 0 00-.547-.772c-.251-.205-.593-.308-1.026-.308-.382 0-.722.11-1.018.328-.292.215-.522.529-.691.944-.164.41-.246.911-.246 1.504v.294c0 .469.087.897.26 1.285.173.382.424.69.752.923.328.227.72.341 1.176.341.446 0 .825-.091 1.135-.273.309-.182.581-.426.813-.732l.772.602c-.236.365-.578.695-1.025.991-.442.292-1.03.438-1.764.438zm5.633-.137h-1.278v-7.396h1.21l.068 1.469V346zm-.854-4.006c.004-.674.118-1.276.342-1.805a2.837 2.837 0 011.004-1.257c.447-.31 1.001-.465 1.662-.465.692 0 1.264.203 1.715.608.452.406.677 1.071.677 1.996V346h-1.278v-4.867c0-.388-.066-.697-.198-.93a1.13 1.13 0 00-.547-.513 1.98 1.98 0 00-.834-.164c-.369 0-.679.066-.93.199a1.602 1.602 0 00-.595.546 2.5 2.5 0 00-.328.8 4.469 4.469 0 00-.096.944l-.594-.021zm4.532-.417a3.582 3.582 0 01.342-1.517 2.83 2.83 0 01.998-1.149c.437-.296.971-.444 1.599-.444.529 0 .978.093 1.347.28.369.187.65.476.841.868.191.392.287.9.287 1.525V346h-1.278v-4.874c0-.415-.066-.738-.199-.971a1.03 1.03 0 00-.546-.485 2.166 2.166 0 00-.828-.144c-.278 0-.524.048-.738.144a1.559 1.559 0 00-.533.396 1.798 1.798 0 00-.328.568c-.073.214-.11.442-.11.683l-.854.26zm10.404 4.56c-.688 0-1.287-.153-1.798-.458-.505-.31-.9-.734-1.182-1.272-.278-.538-.417-1.153-.417-1.845v-.294c0-.803.152-1.486.458-2.051.31-.57.711-1.003 1.203-1.299a2.987 2.987 0 011.572-.451c.711 0 1.29.159 1.737.478.451.315.781.745.991 1.292.214.543.321 1.158.321 1.846v.567h-5.523v-1.025h4.245v-.096a3.312 3.312 0 00-.199-.957 1.71 1.71 0 00-.546-.772c-.251-.205-.593-.308-1.026-.308-.383 0-.722.11-1.018.328-.292.215-.522.529-.691.944-.164.41-.246.911-.246 1.504v.294c0 .469.087.897.26 1.285.173.382.424.69.752.923.328.227.72.341 1.176.341.446 0 .825-.091 1.134-.273.31-.182.581-.426.814-.732l.772.602c-.237.365-.578.695-1.025.991-.442.292-1.03.438-1.764.438zm5.64-.137h-1.278v-7.396h1.21l.068 1.579V346zm-.834-4.006c.009-.674.139-1.276.39-1.805.25-.533.599-.952 1.045-1.257.452-.31.976-.465 1.573-.465.487 0 .907.091 1.258.273.355.178.628.463.82.855.196.392.294.911.294 1.558V346h-1.278v-4.86c0-.388-.057-.7-.171-.937a1.024 1.024 0 00-.493-.513c-.218-.109-.487-.164-.806-.164-.315 0-.6.066-.855.199a2.064 2.064 0 00-.663.546c-.187.233-.33.5-.43.8a2.909 2.909 0 00-.151.944l-.533-.021zm10.404-2.427h-4.006v-.963h4.006v.963zm-1.381-2.761v7.362c0 .255.039.447.117.574a.551.551 0 00.3.253c.123.041.256.062.397.062.105 0 .214-.009.328-.028.118-.018.205-.034.26-.048l.007 1.019a2.924 2.924 0 01-.397.089 3 3 0 01-.581.048c-.31 0-.595-.062-.854-.185a1.375 1.375 0 01-.623-.615c-.154-.292-.232-.684-.232-1.176v-7.355h1.278z" fill="#4D4F5C"/><path opacity=".26" d="M54.872 0H27v34h27.872V0z" fill="#E1E3F5"/><path d="M54.872 139H27v34h27.872v-34z" fill="#E1E3F5"/><path d="M54.872 69H27v34h27.872V69zm0 139H27v34h27.872v-34zm0-173H27v33h27.872V35z" fill="#F7F8FD"/><path d="M54.872 174H27v33h27.872v-33zm0-70H27v34h27.872v-34z" fill="#E1E3F5"/><path opacity=".26" d="M85.278 0h-29.14v34h29.14V0z" fill="#E1E3F5"/><path d="M85.278 139h-29.14v34h29.14v-34z" fill="#E1E3F5"/><path d="M85.278 69h-29.14v34h29.14V69zm0 139h-29.14v34h29.14v-34zm0-173h-29.14v33h29.14V35z" fill="#F7F8FD"/><path d="M85.278 174h-29.14v33h29.14v-33zm0-70h-29.14v34h29.14v-34z" fill="#E1E3F5"/><path opacity=".26" d="M114.416 0H86.544v34h27.872V0z" fill="#E1E3F5"/><path d="M114.416 139H86.544v34h27.872v-34z" fill="#E1E3F5"/><path d="M114.416 69H86.544v34h27.872V69z" fill="#F7F8FD"/><path d="M114.416 208H86.544v34h27.872v-34z" fill="#E1E3F5"/><path d="M114.416 35H86.544v33h27.872V35z" fill="#F7F8FD"/><path d="M114.416 174H86.544v33h27.872v-33zm0-70H86.544v34h27.872v-34z" fill="#E1E3F5"/><path opacity=".26" d="M144.822 0h-29.139v34h29.139V0z" fill="#E1E3F5"/><path d="M144.822 139h-29.139v34h29.139v-34z" fill="#E1E3F5"/><path d="M144.822 69h-29.139v34h29.139V69z" fill="#F7F8FD"/><path d="M144.822 208h-29.139v34h29.139v-34zm0-173h-29.139v33h29.139V35zm0 139h-29.139v33h29.139v-33zm0-70h-29.139v34h29.139v-34zM173.961 0h-27.872v34h27.872V0zm0 139h-27.872v34h27.872v-34zm0-70h-27.872v34h27.872V69zm0 139h-27.872v34h27.872v-34zm0-173h-27.872v33h27.872V35zm0 139h-27.872v33h27.872v-33zm0-70h-27.872v34h27.872v-34zM204.367 0h-29.139v34h29.139V0zm0 139h-29.139v34h29.139v-34zm0-70h-29.139v34h29.139V69zm0 139h-29.139v34h29.139v-34zm0-173h-29.139v33h29.139V35zm0 139h-29.139v33h29.139v-33zm0-70h-29.139v34h29.139v-34zM234.772 0H206.9v34h27.872V0z" fill="#E1E3F5"/><path d="M234.772 139H206.9v34h27.872v-34z" fill="#A6ACDF"/><path d="M234.772 69H206.9v34h27.872V69zm0 139H206.9v34h27.872v-34zm0-173H206.9v33h27.872V35z" fill="#E1E3F5"/><path d="M234.772 174H206.9v33h27.872v-33zm0-70H206.9v34h27.872v-34z" fill="#A6ACDF"/><path d="M265.178 0h-29.139v34h29.139V0z" fill="#E1E3F5"/><path d="M265.178 139h-29.139v34h29.139v-34z" fill="#A6ACDF"/><path d="M265.178 69h-29.139v34h29.139V69z" fill="#E1E3F5"/><path d="M265.178 208h-29.139v34h29.139v-34z" fill="#A6ACDF"/><path d="M265.178 35h-29.139v33h29.139V35z" fill="#E1E3F5"/><path d="M265.178 174h-29.139v33h29.139v-33zm0-70h-29.139v34h29.139v-34z" fill="#A6ACDF"/><path d="M294.317 0h-27.872v34h27.872V0z" fill="#E1E3F5"/><path d="M294.317 139h-27.872v34h27.872v-34z" fill="#A6ACDF"/><path d="M294.317 69h-27.872v34h27.872V69z" fill="#E1E3F5"/><path d="M294.317 208h-27.872v34h27.872v-34zm0-173h-27.872v33h27.872V35zm0 139h-27.872v33h27.872v-33zm0-70h-27.872v34h27.872v-34zM324.722 0h-29.139v34h29.139V0zm0 139h-29.139v34h29.139v-34zm0-70h-29.139v34h29.139V69zm0 139h-29.139v34h29.139v-34zm0-173h-29.139v33h29.139V35zm0 139h-29.139v33h29.139v-33zm0-70h-29.139v34h29.139v-34zM353.861 0H325.99v34h27.871V0zm0 139H325.99v34h27.871v-34zm0-70H325.99v34h27.871V69zm0 139H325.99v34h27.871v-34zm0-173H325.99v33h27.871V35zm0 139H325.99v33h27.871v-33zm0-70H325.99v34h27.871v-34z" fill="#A6ACDF"/><path d="M383 0h-27.872v34H383V0z" fill="#8890D4"/><path d="M383 139h-27.872v34H383v-34z" fill="#A6ACDF"/><path d="M383 69h-27.872v34H383V69z" fill="#6B75CA"/><path d="M383 208h-27.872v34H383v-34zm0-173h-27.872v33H383V35z" fill="#A6ACDF"/><path d="M383 174h-27.872v33H383v-33z" fill="#6B75CA"/><path d="M383 104h-27.872v34H383v-34z" fill="#A6ACDF"/><path d="M412.139 0h-27.872v34h27.872V0z" fill="#8890D4"/><path d="M412.139 139h-27.872v34h27.872v-34z" fill="#A6ACDF"/><path d="M412.139 69h-27.872v34h27.872V69zm0 139h-27.872v34h27.872v-34zm0-173h-27.872v33h27.872V35zm0 139h-27.872v33h27.872v-33zm0-70h-27.872v34h27.872v-34z" fill="#6B75CA"/><path d="M441.278 0h-27.872v34h27.872V0z" fill="#8890D4"/><path d="M441.278 139h-27.872v34h27.872v-34zm0-70h-27.872v34h27.872V69zm0 139h-27.872v34h27.872v-34zm0-173h-27.872v33h27.872V35zm0 139h-27.872v33h27.872v-33zm0-70h-27.872v34h27.872v-34zM471.683 0h-29.139v34h29.139V0zm0 139h-29.139v34h29.139v-34zm0-70h-29.139v34h29.139V69zm0 139h-29.139v34h29.139v-34zm0-173h-29.139v33h29.139V35zm0 139h-29.139v33h29.139v-33zm0-70h-29.139v34h29.139v-34zM500.822 0H472.95v34h27.872V0zm0 139H472.95v34h27.872v-34z" fill="#6B75CA"/><path d="M500.822 69H472.95v34h27.872V69z" fill="#A6ACDF"/><path d="M500.822 208H472.95v34h27.872v-34zm0-173H472.95v33h27.872V35zm0 139H472.95v33h27.872v-33z" fill="#6B75CA"/><path d="M500.822 104H472.95v34h27.872v-34z" fill="#A6ACDF"/><path d="M531.228 0h-29.139v34h29.139V0zm0 139h-29.139v34h29.139v-34z" fill="#6B75CA"/><path d="M531.228 69h-29.139v34h29.139V69z" fill="#A6ACDF"/><path d="M531.228 208h-29.139v34h29.139v-34zm0-173h-29.139v33h29.139V35zm0 139h-29.139v33h29.139v-33z" fill="#6B75CA"/><path d="M531.228 104h-29.139v34h29.139v-34z" fill="#A6ACDF"/><path d="M560.367 0h-27.872v34h27.872V0zm0 139h-27.872v34h27.872v-34z" fill="#6B75CA"/><path d="M560.367 69h-27.872v34h27.872V69z" fill="#E1E3F5"/><path d="M560.367 208h-27.872v34h27.872v-34zm0-173h-27.872v33h27.872V35z" fill="#6B75CA"/><path d="M560.367 174h-27.872v33h27.872v-33zm0-70h-27.872v34h27.872v-34z" fill="#A6ACDF"/><path d="M590.772 0h-29.138v34h29.138V0z" fill="#8890D4"/><path d="M590.772 139h-29.138v34h29.138v-34z" fill="#A6ACDF"/><path d="M590.772 69h-29.138v34h29.138V69z" fill="#E1E3F5"/><path d="M590.772 208h-29.138v34h29.138v-34zm0-173h-29.138v33h29.138V35zm0 139h-29.138v33h29.138v-33z" fill="#A6ACDF"/><path d="M590.772 104h-29.138v34h29.138v-34z" fill="#E1E3F5"/><path d="M619.911 0h-27.872v34h27.872V0z" fill="#8890D4"/><path d="M619.911 139h-27.872v34h27.872v-34z" fill="#A6ACDF"/><path d="M619.911 69h-27.872v34h27.872V69z" fill="#E1E3F5"/><path d="M619.911 208h-27.872v34h27.872v-34zm0-173h-27.872v33h27.872V35zm0 139h-27.872v33h27.872v-33z" fill="#A6ACDF"/><path d="M619.911 104h-27.872v34h27.872v-34z" fill="#E1E3F5"/><path d="M650.317 0h-29.139v34h29.139V0z" fill="#8890D4"/><path d="M650.317 139h-29.139v34h29.139v-34z" fill="#A6ACDF"/><path d="M650.317 69h-29.139v34h29.139V69z" fill="#E1E3F5"/><path d="M650.317 208h-29.139v34h29.139v-34z" fill="#A6ACDF"/><path d="M650.317 35h-29.139v33h29.139V35z" fill="#E1E3F5"/><path d="M650.317 174h-29.139v33h29.139v-33z" fill="#A6ACDF"/><path d="M650.317 104h-29.139v34h29.139v-34z" fill="#E1E3F5"/><path d="M679.455 0h-27.872v34h27.872V0zm0 139h-27.872v34h27.872v-34z" fill="#A6ACDF"/><path d="M679.455 69h-27.872v34h27.872V69z" fill="#F7F8FD"/><path d="M679.455 208h-27.872v34h27.872v-34zm0-173h-27.872v33h27.872V35z" fill="#E1E3F5"/><path d="M679.455 174h-27.872v33h27.872v-33z" fill="#A6ACDF"/><path d="M679.455 104h-27.872v34h27.872v-34z" fill="#F7F8FD"/><path d="M709.861 0h-29.138v34h29.138V0z" fill="#E1E3F5"/><path d="M709.861 139h-29.138v34h29.138v-34z" fill="#A6ACDF"/><path d="M709.861 69h-29.138v34h29.138V69z" fill="#F7F8FD"/><path d="M709.861 208h-29.138v34h29.138v-34z" fill="#E1E3F5"/><path d="M709.861 35h-29.138v33h29.138V35z" fill="#F7F8FD"/><path d="M709.861 174h-29.138v33h29.138v-33z" fill="#A6ACDF"/><path d="M709.861 104h-29.138v34h29.138v-34z" fill="#F7F8FD"/><path opacity=".26" d="M739 0h-27.872v34H739V0z" fill="#E1E3F5"/><path d="M739 139h-27.872v34H739v-34z" fill="#E1E3F5"/><path d="M739 69h-27.872v34H739V69z" fill="#F7F8FD"/><path d="M739 208h-27.872v34H739v-34z" fill="#E1E3F5"/><path d="M739 35h-27.872v33H739V35z" fill="#F7F8FD"/><path d="M739 174h-27.872v33H739v-33z" fill="#E1E3F5"/><path d="M739 104h-27.872v34H739v-34z" fill="#F7F8FD"/><path d="M37.57 259.058c0 1.447-.25 2.488-.75 3.123-.494.631-1.214.946-2.157.946-.94 0-1.663-.317-2.171-.952-.508-.635-.762-1.674-.762-3.117v-1.415c0-1.439.25-2.468.749-3.085.504-.618 1.227-.927 2.17-.927.949 0 1.672.309 2.172.927.5.617.749 1.646.749 3.085v1.415zm-1.187-1.612c0-1.016-.144-1.746-.432-2.19-.283-.449-.717-.673-1.301-.673-.576 0-1.01.224-1.301.673-.288.448-.432 1.178-.432 2.19v1.796c0 1.012.148 1.754.444 2.228.297.47.73.705 1.302.705.58 0 1.011-.233 1.295-.698.283-.47.425-1.215.425-2.235v-1.796zM60.577 263v-7.839l-2.361.869v-1.06l3.364-1.263h.184V263h-1.187zm23.452 0v-.838l3.028-3.37c.376-.419.666-.771.87-1.054.202-.288.344-.546.425-.775.084-.232.127-.474.127-.723 0-.309-.064-.588-.19-.838a1.42 1.42 0 00-.553-.597 1.606 1.606 0 00-.857-.222c-.6 0-1.058.171-1.371.514-.313.343-.47.802-.47 1.378h-1.187c0-.529.117-1.01.35-1.441a2.504 2.504 0 011.034-1.022c.457-.254 1.005-.381 1.644-.381.571 0 1.066.104 1.485.311.42.203.74.491.965.863.225.373.337.804.337 1.295 0 .508-.157 1.033-.47 1.574-.309.538-.73 1.096-1.263 1.676l-2.476 2.698h4.634V263h-6.062zm30.231-4.748c.567.182.973.47 1.219.863.249.39.374.825.374 1.308 0 .563-.127 1.047-.381 1.453a2.484 2.484 0 01-1.047.934c-.44.211-.939.317-1.498.317a3.53 3.53 0 01-1.485-.305 2.515 2.515 0 01-1.06-.882c-.259-.389-.388-.851-.388-1.384h1.187c0 .322.07.605.21.851.144.245.347.436.609.571.263.131.572.197.927.197.546 0 .971-.146 1.276-.438.309-.292.463-.722.463-1.289 0-.563-.173-.984-.52-1.263-.343-.283-.821-.425-1.435-.425h-.838v-.952h.838c.394 0 .726-.068.997-.204.275-.135.48-.323.615-.564.136-.242.204-.517.204-.826 0-.533-.136-.937-.407-1.212-.266-.279-.666-.419-1.199-.419-.33 0-.62.066-.87.197s-.444.317-.584.558c-.14.237-.209.517-.209.838h-1.187c0-.469.118-.899.355-1.288.241-.39.578-.696 1.009-.921.432-.224.927-.336 1.486-.336.562 0 1.053.099 1.472.298.419.199.743.495.972.889.232.389.349.863.349 1.422 0 .241-.053.491-.159.749a2.257 2.257 0 01-.489.723 2.369 2.369 0 01-.806.54zm28.276 2.596h-1.282V263h-1.187v-2.152h-4.209v-.685l4.132-6.405h1.264v6.138h1.282v.952zm-2.469-.952v-4.539l-.14.248-2.729 4.291h2.869zm23.363-6.138h4.741v1.073h-3.739l-.272 2.532a2.89 2.89 0 01.672-.285c.263-.077.551-.115.864-.115.563 0 1.049.127 1.46.381.414.25.732.607.952 1.073.224.465.336 1.011.336 1.638 0 .601-.11 1.134-.33 1.599a2.446 2.446 0 01-.984 1.086c-.436.258-.973.387-1.612.387a3.33 3.33 0 01-1.397-.286 2.508 2.508 0 01-1.022-.857c-.262-.385-.418-.857-.469-1.415h1.123c.072.525.258.924.559 1.2.305.27.707.406 1.206.406.364 0 .675-.085.933-.254.262-.174.461-.417.597-.73.139-.317.209-.692.209-1.124 0-.393-.072-.744-.216-1.053a1.684 1.684 0 00-.634-.737c-.275-.177-.606-.266-.991-.266-.249 0-.461.023-.634.07-.17.042-.316.103-.438.184-.123.08-.267.192-.432.336l-.952-.241.47-4.602zm28.39 3.18c.584 0 1.075.144 1.472.432.398.283.692.658.883 1.123.194.461.292.959.292 1.492a3.8 3.8 0 01-.33 1.606c-.22.474-.546.848-.978 1.123-.432.275-.952.413-1.561.413-.635 0-1.177-.169-1.625-.508a3.168 3.168 0 01-1.01-1.32 4.442 4.442 0 01-.336-1.714v-.559c0-1.54.328-2.805.984-3.796.66-.99 1.809-1.485 3.446-1.485h.102v.99h-.102c-1.045 0-1.823.286-2.335.857-.512.567-.807 1.293-.883 2.178a2.3 2.3 0 01.87-.623 2.896 2.896 0 011.111-.209zm-.222 5.224c.355 0 .66-.089.914-.266a1.68 1.68 0 00.584-.75c.135-.321.203-.689.203-1.104 0-.381-.064-.734-.191-1.06a1.72 1.72 0 00-.565-.781c-.249-.199-.556-.298-.92-.298a1.8 1.8 0 00-.768.171 1.977 1.977 0 00-1.041 1.098v.445c0 .529.082.986.247 1.371.165.385.383.677.654.876.275.199.569.298.883.298zm25.235.838h-1.244l3.815-8.29h-4.996v-.952h6.253v.654L216.833 263zm28.238-4.761c.482.208.863.51 1.142.908.284.398.426.848.426 1.352 0 .546-.129 1.018-.388 1.416a2.43 2.43 0 01-1.047.907 3.58 3.58 0 01-1.504.305 3.626 3.626 0 01-1.511-.305 2.45 2.45 0 01-1.047-.901c-.254-.398-.381-.872-.381-1.422 0-.508.137-.961.412-1.358a2.526 2.526 0 011.137-.908 2.408 2.408 0 01-.984-.844 2.198 2.198 0 01-.356-1.225c0-.525.117-.978.349-1.359.233-.385.555-.677.965-.876a3.235 3.235 0 011.416-.298c.529 0 .998.101 1.409.305.41.198.732.488.965.869.232.381.349.834.349 1.359 0 .452-.121.861-.362 1.225a2.427 2.427 0 01-.99.85zm-1.371-3.656c-.305 0-.574.066-.806.197a1.384 1.384 0 00-.546.558 1.791 1.791 0 00-.191.845c0 .317.064.594.191.831s.306.421.539.552c.237.132.508.197.813.197.304 0 .573-.065.806-.197.233-.131.412-.315.539-.552.127-.237.191-.514.191-.831 0-.305-.066-.578-.197-.819a1.384 1.384 0 00-.539-.572 1.532 1.532 0 00-.8-.209zm0 7.592c.546 0 .973-.15 1.282-.451.313-.3.47-.717.47-1.25a1.83 1.83 0 00-.223-.908 1.554 1.554 0 00-.628-.622 1.852 1.852 0 00-.914-.222 1.84 1.84 0 00-.92.222 1.535 1.535 0 00-.61.622 1.91 1.91 0 00-.209.908c0 .533.154.95.463 1.25.313.301.743.451 1.289.451zm25.978-8.544c.673 0 1.229.175 1.669.527.445.347.768.802.971 1.364.208.563.312 1.177.312 1.841v.438c0 .957-.111 1.814-.331 2.571a3.632 3.632 0 01-1.301 1.892c-.647.499-1.57.749-2.767.749h-.121v-.991h.121c1.168 0 1.984-.279 2.45-.837.47-.563.723-1.312.762-2.247-.254.3-.553.537-.896.71a2.388 2.388 0 01-1.098.261c-.579 0-1.068-.146-1.466-.438a2.69 2.69 0 01-.889-1.149 3.957 3.957 0 01-.285-1.498c0-.597.11-1.136.33-1.619.22-.487.546-.87.977-1.149.432-.283.952-.425 1.562-.425zm-.038 5.313c.389 0 .747-.119 1.073-.356.33-.241.575-.546.736-.914v-.463c0-.542-.081-1.009-.241-1.403-.161-.398-.377-.698-.648-.901a1.418 1.418 0 00-.882-.311c-.351 0-.656.093-.914.279a1.748 1.748 0 00-.591.774 2.884 2.884 0 00-.203 1.111c0 .381.062.739.184 1.073.127.33.316.599.565.806.254.203.561.305.921.305zM295.751 263v-7.839l-2.361.869v-1.06l3.364-1.263h.184V263h-1.187zm10.436-3.942c0 1.447-.25 2.488-.749 3.123-.495.631-1.215.946-2.159.946-.939 0-1.663-.317-2.17-.952-.508-.635-.762-1.674-.762-3.117v-1.415c0-1.439.249-2.468.749-3.085.503-.618 1.227-.927 2.171-.927.948 0 1.671.309 2.171.927.499.617.749 1.646.749 3.085v1.415zM305 257.446c0-1.016-.144-1.746-.432-2.19-.284-.449-.717-.673-1.301-.673-.576 0-1.01.224-1.302.673-.287.448-.431 1.178-.431 2.19v1.796c0 1.012.148 1.754.444 2.228.296.47.73.705 1.301.705.58 0 1.012-.233 1.295-.698.284-.47.426-1.215.426-2.235v-1.796zM328.882 263v-7.839l-2.362.869v-1.06l3.365-1.263h.184V263h-1.187zm7.312 0v-7.839l-2.361.869v-1.06l3.364-1.263h.184V263h-1.187zm25.818 0v-7.839l-2.361.869v-1.06l3.364-1.263h.184V263h-1.187zm4.634 0v-.838l3.028-3.37c.376-.419.666-.771.869-1.054.203-.288.345-.546.426-.775.084-.232.126-.474.126-.723 0-.309-.063-.588-.19-.838a1.421 1.421 0 00-.552-.597 1.606 1.606 0 00-.857-.222c-.601 0-1.058.171-1.371.514-.313.343-.47.802-.47 1.378h-1.187c0-.529.116-1.01.349-1.441a2.505 2.505 0 011.035-1.022c.457-.254 1.005-.381 1.644-.381.571 0 1.066.104 1.485.311.419.203.741.491.965.863.224.373.336.804.336 1.295 0 .508-.156 1.033-.469 1.574-.309.538-.73 1.096-1.263 1.676l-2.476 2.698h4.634V263h-6.062zm28.496 0v-7.839l-2.361.869v-1.06l3.364-1.263h.184V263h-1.187zm8.735-4.748c.567.182.973.47 1.219.863.249.39.374.825.374 1.308 0 .563-.127 1.047-.381 1.453a2.49 2.49 0 01-1.047.934c-.44.211-.94.317-1.498.317a3.538 3.538 0 01-1.486-.305 2.527 2.527 0 01-1.06-.882c-.258-.389-.387-.851-.387-1.384h1.187c0 .322.07.605.21.851.144.245.347.436.609.571.262.131.571.197.927.197.546 0 .971-.146 1.276-.438.309-.292.463-.722.463-1.289 0-.563-.173-.984-.52-1.263-.343-.283-.821-.425-1.435-.425h-.838v-.952h.838c.394 0 .726-.068.997-.204.275-.135.48-.323.615-.564.136-.242.203-.517.203-.826 0-.533-.135-.937-.406-1.212-.266-.279-.666-.419-1.2-.419-.33 0-.619.066-.869.197s-.444.317-.584.558a1.62 1.62 0 00-.21.838h-1.187c0-.469.119-.899.356-1.288.241-.39.577-.696 1.009-.921.432-.224.927-.336 1.485-.336.563 0 1.054.099 1.473.298.419.199.743.495.971.889.233.389.349.863.349 1.422 0 .241-.052.491-.158.749a2.257 2.257 0 01-.489.723 2.378 2.378 0 01-.806.54zM428.273 263v-7.839l-2.362.869v-1.06l3.365-1.263h.184V263h-1.187zm10.88-2.152h-1.283V263h-1.187v-2.152h-4.208v-.685l4.132-6.405h1.263v6.138h1.283v.952zm-2.47-.952v-4.539l-.139.248-2.73 4.291h2.869zm24.72 3.104v-7.839l-2.361.869v-1.06l3.364-1.263h.184V263h-1.187zm5.643-9.242h4.742v1.073h-3.739l-.273 2.532c.191-.114.415-.209.673-.285.263-.077.55-.115.863-.115.563 0 1.05.127 1.46.381.415.25.733.607.953 1.073.224.465.336 1.011.336 1.638 0 .601-.11 1.134-.33 1.599a2.446 2.446 0 01-.984 1.086c-.436.258-.973.387-1.612.387a3.33 3.33 0 01-1.397-.286 2.508 2.508 0 01-1.022-.857c-.262-.385-.419-.857-.469-1.415h1.123c.072.525.258.924.559 1.2.304.27.706.406 1.206.406.364 0 .675-.085.933-.254.262-.174.461-.417.597-.73.139-.317.209-.692.209-1.124 0-.393-.072-.744-.216-1.053a1.686 1.686 0 00-.635-.737c-.275-.177-.605-.266-.99-.266a2.47 2.47 0 00-.635.07 1.407 1.407 0 00-.438.184c-.122.08-.266.192-.431.336l-.952-.241.469-4.602zM494.534 263v-7.839l-2.362.869v-1.06l3.365-1.263h.184V263h-1.187zm7.903-6.062c.584 0 1.074.144 1.472.432.398.283.692.658.883 1.123.194.461.291.959.291 1.492a3.8 3.8 0 01-.33 1.606c-.22.474-.545.848-.977 1.123-.432.275-.952.413-1.562.413-.634 0-1.176-.169-1.625-.508a3.166 3.166 0 01-1.009-1.32 4.442 4.442 0 01-.336-1.714v-.559c0-1.54.328-2.805.984-3.796.66-.99 1.809-1.485 3.446-1.485h.102v.99h-.102c-1.045 0-1.824.286-2.336.857-.512.567-.806 1.293-.882 2.178.245-.28.535-.487.87-.623a2.896 2.896 0 011.111-.209zm-.223 5.224c.356 0 .661-.089.914-.266.259-.182.453-.432.584-.75.136-.321.204-.689.204-1.104 0-.381-.064-.734-.191-1.06a1.727 1.727 0 00-.565-.781c-.25-.199-.556-.298-.92-.298a1.8 1.8 0 00-.768.171 1.977 1.977 0 00-1.041 1.098v.445c0 .529.082.986.247 1.371.165.385.383.677.654.876.275.199.569.298.882.298zm25.45.838v-7.839l-2.361.869v-1.06l3.364-1.263h.184V263h-1.187zm6.786 0h-1.244l3.815-8.29h-4.996v-.952h6.252v.654L534.45 263zm26.345 0v-7.839l-2.362.869v-1.06l3.364-1.263h.185V263h-1.187zm8.893-4.761c.482.208.863.51 1.142.908.284.398.425.848.425 1.352 0 .546-.129 1.018-.387 1.416-.254.397-.603.7-1.047.907a3.58 3.58 0 01-1.504.305 3.622 3.622 0 01-1.511-.305 2.447 2.447 0 01-1.048-.901c-.253-.398-.38-.872-.38-1.422 0-.508.137-.961.412-1.358a2.529 2.529 0 011.136-.908 2.399 2.399 0 01-.983-.844 2.198 2.198 0 01-.356-1.225c0-.525.116-.978.349-1.359.233-.385.555-.677.965-.876a3.235 3.235 0 011.416-.298c.528 0 .998.101 1.409.305.41.198.732.488.965.869.232.381.349.834.349 1.359 0 .452-.121.861-.362 1.225a2.427 2.427 0 01-.99.85zm-1.371-3.656c-.305 0-.574.066-.807.197a1.397 1.397 0 00-.546.558c-.126.242-.19.523-.19.845 0 .317.064.594.19.831.127.237.307.421.54.552.237.132.508.197.813.197.304 0 .573-.065.806-.197.232-.131.412-.315.539-.552.127-.237.191-.514.191-.831 0-.305-.066-.578-.197-.819a1.38 1.38 0 00-.54-.572 1.526 1.526 0 00-.799-.209zm0 7.592c.545 0 .973-.15 1.282-.451.313-.3.469-.717.469-1.25a1.84 1.84 0 00-.222-.908 1.554 1.554 0 00-.628-.622 1.852 1.852 0 00-.914-.222c-.351 0-.658.074-.921.222a1.539 1.539 0 00-.609.622c-.14.262-.209.565-.209.908 0 .533.154.95.463 1.25.313.301.743.451 1.289.451zm25.608.825v-7.839l-2.361.869v-1.06l3.364-1.263h.184V263h-1.187zm7.37-9.369c.673 0 1.229.175 1.669.527.444.347.768.802.971 1.364.208.563.311 1.177.311 1.841v.438c0 .957-.11 1.814-.33 2.571a3.637 3.637 0 01-1.301 1.892c-.647.499-1.57.749-2.768.749h-.12v-.991h.12c1.168 0 1.985-.279 2.451-.837.469-.563.723-1.312.761-2.247a2.84 2.84 0 01-.895.71 2.39 2.39 0 01-1.098.261c-.58 0-1.068-.146-1.466-.438a2.69 2.69 0 01-.889-1.149 3.957 3.957 0 01-.285-1.498c0-.597.11-1.136.33-1.619.22-.487.546-.87.977-1.149.432-.283.952-.425 1.562-.425zm-.038 5.313c.389 0 .746-.119 1.072-.356.33-.241.576-.546.737-.914v-.463c0-.542-.081-1.009-.242-1.403-.16-.398-.376-.698-.647-.901a1.418 1.418 0 00-.882-.311 1.52 1.52 0 00-.914.279 1.74 1.74 0 00-.591.774 2.884 2.884 0 00-.203 1.111c0 .381.062.739.184 1.073.127.33.316.599.565.806.254.203.561.305.921.305zm23.12 4.056v-.838l3.028-3.37c.376-.419.666-.771.869-1.054.203-.288.345-.546.425-.775.085-.232.127-.474.127-.723 0-.309-.063-.588-.19-.838a1.421 1.421 0 00-.552-.597 1.606 1.606 0 00-.857-.222c-.601 0-1.058.171-1.371.514-.313.343-.47.802-.47 1.378h-1.187c0-.529.116-1.01.349-1.441a2.505 2.505 0 011.035-1.022c.457-.254 1.005-.381 1.644-.381.571 0 1.066.104 1.485.311.419.203.741.491.965.863.224.373.336.804.336 1.295 0 .508-.156 1.033-.469 1.574-.309.538-.73 1.096-1.263 1.676l-2.476 2.698h4.634V263h-6.062zm13.114-3.942c0 1.447-.25 2.488-.749 3.123-.495.631-1.215.946-2.158.946-.94 0-1.663-.317-2.171-.952-.508-.635-.762-1.674-.762-3.117v-1.415c0-1.439.25-2.468.749-3.085.504-.618 1.227-.927 2.171-.927.948 0 1.672.309 2.171.927.499.617.749 1.646.749 3.085v1.415zm-1.187-1.612c0-1.016-.144-1.746-.432-2.19-.283-.449-.717-.673-1.301-.673-.575 0-1.009.224-1.301.673-.288.448-.432 1.178-.432 2.19v1.796c0 1.012.148 1.754.444 2.228.297.47.73.705 1.302.705.579 0 1.011-.233 1.295-.698.283-.47.425-1.215.425-2.235v-1.796zM657.507 263v-.838l3.028-3.37c.377-.419.666-.771.87-1.054.203-.288.344-.546.425-.775.084-.232.127-.474.127-.723 0-.309-.064-.588-.191-.838a1.421 1.421 0 00-.552-.597 1.606 1.606 0 00-.857-.222c-.601 0-1.058.171-1.371.514-.313.343-.47.802-.47 1.378h-1.187c0-.529.117-1.01.349-1.441a2.505 2.505 0 011.035-1.022c.457-.254 1.005-.381 1.644-.381.571 0 1.067.104 1.486.311.418.203.74.491.964.863.225.373.337.804.337 1.295 0 .508-.157 1.033-.47 1.574-.309.538-.73 1.096-1.263 1.676l-2.476 2.698h4.634V263h-6.062zm9.991 0v-7.839l-2.361.869v-1.06l3.364-1.263h.184V263h-1.187zm23.14 0v-.838l3.027-3.37c.377-.419.667-.771.87-1.054.203-.288.345-.546.425-.775.085-.232.127-.474.127-.723 0-.309-.063-.588-.19-.838a1.421 1.421 0 00-.552-.597 1.609 1.609 0 00-.857-.222c-.601 0-1.058.171-1.371.514-.314.343-.47.802-.47 1.378h-1.187c0-.529.116-1.01.349-1.441a2.505 2.505 0 011.035-1.022c.457-.254 1.005-.381 1.644-.381.571 0 1.066.104 1.485.311.419.203.741.491.965.863.224.373.336.804.336 1.295 0 .508-.156 1.033-.469 1.574-.309.538-.73 1.096-1.264 1.676l-2.475 2.698h4.634V263h-6.062zm7.312 0v-.838l3.028-3.37c.377-.419.666-.771.87-1.054.203-.288.344-.546.425-.775.084-.232.127-.474.127-.723 0-.309-.064-.588-.191-.838a1.421 1.421 0 00-.552-.597 1.606 1.606 0 00-.857-.222c-.601 0-1.058.171-1.371.514-.313.343-.47.802-.47 1.378h-1.187c0-.529.117-1.01.349-1.441a2.505 2.505 0 011.035-1.022c.457-.254 1.005-.381 1.644-.381.571 0 1.067.104 1.486.311.418.203.74.491.964.863.225.373.337.804.337 1.295 0 .508-.157 1.033-.47 1.574-.309.538-.73 1.096-1.263 1.676l-2.476 2.698h4.634V263h-6.062zm25.818 0v-.838l3.028-3.37c.377-.419.666-.771.87-1.054.203-.288.344-.546.425-.775.084-.232.127-.474.127-.723 0-.309-.064-.588-.191-.838a1.421 1.421 0 00-.552-.597 1.606 1.606 0 00-.857-.222c-.601 0-1.058.171-1.371.514-.313.343-.47.802-.47 1.378h-1.187c0-.529.117-1.01.349-1.441a2.505 2.505 0 011.035-1.022c.457-.254 1.005-.381 1.644-.381.571 0 1.067.104 1.486.311.418.203.74.491.964.863.225.373.337.804.337 1.295 0 .508-.157 1.033-.47 1.574-.309.538-.73 1.096-1.263 1.676l-2.476 2.698h4.634V263h-6.062zm11.413-4.748c.567.182.973.47 1.219.863.25.39.374.825.374 1.308 0 .563-.127 1.047-.38 1.453a2.486 2.486 0 01-1.048.934c-.44.211-.939.317-1.498.317a3.53 3.53 0 01-1.485-.305 2.515 2.515 0 01-1.06-.882c-.258-.389-.387-.851-.387-1.384h1.187c0 .322.069.605.209.851.144.245.347.436.609.571.263.131.572.197.927.197.546 0 .971-.146 1.276-.438.309-.292.463-.722.463-1.289 0-.563-.173-.984-.52-1.263-.343-.283-.821-.425-1.435-.425h-.838v-.952h.838c.394 0 .726-.068.997-.204.275-.135.48-.323.616-.564.135-.242.203-.517.203-.826 0-.533-.136-.937-.406-1.212-.267-.279-.667-.419-1.2-.419-.33 0-.62.066-.87.197s-.444.317-.584.558a1.629 1.629 0 00-.209.838h-1.187c0-.469.118-.899.355-1.288.241-.39.578-.696 1.009-.921.432-.224.927-.336 1.486-.336.563 0 1.054.099 1.472.298.419.199.743.495.972.889.232.389.349.863.349 1.422 0 .241-.053.491-.159.749a2.257 2.257 0 01-.489.723 2.369 2.369 0 01-.806.54z" fill="#4D4F5C"/><path opacity=".2" d="M171.304 313H29v11h142.304v-11z" fill="#6B75CA"/><path opacity=".4" d="M312.348 313H171.304v11h141.044v-11z" fill="#6B75CA"/><path opacity=".6" d="M454.652 313H312.348v11h142.304v-11z" fill="#6B75CA"/><path opacity=".8" d="M454.4 313h141.8v11.26H454.4V313z" fill="#6B75CA"/><path d="M738 313H595.696v11H738v-11z" fill="#6B75CA"/><path opacity=".7" d="M.6 17.5h13.9M.6 49.5h13.9M.6 85.5h13.9m-13.9 36h13.9m-13.9 35h13.9m-13.9 35h13.9m-13.9 36h13.9" stroke="#4D4F5C"/></svg>