<svg width="165" height="165" viewBox="0 0 165 165" fill="none" xmlns="http://www.w3.org/2000/svg"><path d="M164.688 82.344c0 45.477-36.867 82.344-82.344 82.344S0 127.821 0 82.344 36.867 0 82.344 0s82.344 36.867 82.344 82.344zm-127.007 0c0 24.666 19.996 44.663 44.663 44.663 24.666 0 44.663-19.997 44.663-44.663 0-24.667-19.997-44.663-44.663-44.663-24.667 0-44.663 19.996-44.663 44.663z" fill="#64B5F6"/><path d="M140.57 140.57A82.346 82.346 0 00105.52 3.329 82.345 82.345 0 0049.9 6.66l14.704 34.302a45.024 45.024 0 0149.576 73.217l26.39 26.39z" fill="#1976D2"/></svg>