<svg width="48" height="48" viewBox="0 0 48 48" fill="none" xmlns="http://www.w3.org/2000/svg"><path d="M39.75 3.125A5.234 5.234 0 0145 8.375v23.46c0 2.79-2.379 5.168-5.25 5.168H27.937l-10.253 7.711c-.657.41-1.559 0-1.559-.82v-6.809H8.25C5.297 37.085 3 34.79 3 31.917V8.375a5.234 5.234 0 015.25-5.25h31.5zM13.5 22.812c1.477 0 2.625-1.23 2.625-2.625 0-1.313-1.23-2.543-2.625-2.543-1.477 0-2.625 1.23-2.625 2.543 0 1.394 1.148 2.625 2.625 2.625zm10.5 0c1.477 0 2.625-1.23 2.625-2.625 0-1.313-1.23-2.543-2.625-2.543-1.477 0-2.625 1.23-2.625 2.543 0 1.394 1.148 2.625 2.625 2.625zm10.5 0c1.477 0 2.625-1.23 2.625-2.625 0-1.313-1.23-2.543-2.625-2.543-1.477 0-2.625 1.23-2.625 2.543 0 1.394 1.148 2.625 2.625 2.625z" fill="#079DDD"/></svg>