<svg width="73" height="73" viewBox="0 0 73 73" fill="none" xmlns="http://www.w3.org/2000/svg"><path d="M24.097 37.542c0 2.004-.346 3.445-1.037 4.324-.686.873-1.682 1.31-2.989 1.31-1.3 0-2.302-.44-3.006-1.319-.703-.879-1.054-2.317-1.054-4.315v-1.96c0-1.992.345-3.416 1.037-4.271.697-.856 1.7-1.284 3.006-1.284 1.312 0 2.314.428 3.006 1.284.691.855 1.037 2.279 1.037 4.271v1.96zm-1.644-2.232c0-1.407-.2-2.417-.598-3.033-.392-.62-.993-.931-1.801-.931-.797 0-1.398.31-1.802.931-.398.621-.598 1.632-.598 3.033v2.487c0 1.4.205 2.429.616 3.085.41.65 1.01.975 1.801.975.803 0 1.4-.322 1.793-.966.393-.65.59-1.682.59-3.094V35.31zm4.948 5.853c.323 0 .572.094.747.281a.952.952 0 01.273.703c0 .282-.09.51-.273.686-.175.176-.424.264-.747.264-.316 0-.565-.088-.747-.264a.946.946 0 01-.263-.685c0-.288.088-.522.263-.704.182-.187.431-.28.747-.28zm12.2-1.142h-1.776V43h-1.643v-2.98h-5.828v-.949l5.722-8.868h1.749v8.5h1.776v1.317zm-3.42-1.319v-6.284l-.193.343-3.779 5.941h3.973zM44.787 43V32.145l-3.27 1.205v-1.468l4.659-1.75h.255V43h-1.644zm6.276-10.336c0-.486.105-.929.316-1.327.217-.404.521-.724.914-.958.398-.24.861-.36 1.389-.36.533 0 .999.117 1.397.351.399.235.703.554.914.958.217.404.325.85.325 1.336v.677c0 .48-.105.923-.316 1.327a2.373 2.373 0 01-.914.95c-.399.234-.861.35-1.389.35-.533 0-.999-.116-1.397-.35a2.434 2.434 0 01-.923-.95 2.826 2.826 0 01-.316-1.327v-.677zm1.23.677c0 .44.12.811.36 1.116.246.305.595.457 1.046.457.446 0 .788-.152 1.029-.457.24-.305.36-.677.36-1.116v-.677c0-.445-.123-.82-.37-1.125-.24-.31-.585-.466-1.036-.466-.3 0-.554.073-.765.22-.205.146-.36.34-.466.58-.105.24-.158.504-.158.791v.677zm.852 8.103l6.25-10.002.922.58-6.249 10.002-.922-.58zm4.149-1.582c0-.486.105-.928.316-1.327.217-.404.522-.723.914-.958.399-.234.862-.351 1.39-.351.532 0 .998.117 1.397.351.398.235.703.554.914.958.21.399.316.841.316 1.327v.686c0 .486-.105.931-.316 1.336a2.376 2.376 0 01-.914.949c-.393.234-.853.352-1.38.352-.533 0-1-.118-1.398-.352a2.435 2.435 0 01-.923-.95 2.843 2.843 0 01-.316-1.335v-.686zm1.222.686c0 .281.052.542.158.782.105.24.264.434.474.58.217.147.478.22.783.22.445 0 .788-.153 1.028-.457.24-.305.36-.68.36-1.125v-.686c0-.445-.123-.82-.369-1.125-.24-.304-.586-.457-1.037-.457-.445 0-.79.153-1.037.457-.24.305-.36.68-.36 1.125v.686z" fill="#4D4F5C"/><path d="M0 36.5a36.5 36.5 0 1113.54 28.373l2.84-3.51A31.983 31.983 0 104.518 36.5H0z" fill="#FF8373"/><path d="M57.34 6.535a36.5 36.5 0 1013.545 17.721l-4.255 1.515a31.983 31.983 0 11-11.868-15.528l2.579-3.708z" fill="#FEE4E0"/></svg>