<svg width="73" height="73" viewBox="0 0 73 73" fill="none" xmlns="http://www.w3.org/2000/svg"><path d="M24.097 37.542c0 1.389-.164 2.496-.492 3.322-.323.82-.786 1.412-1.39 1.776-.603.357-1.317.536-2.144.536-.814 0-1.526-.179-2.136-.536-.609-.364-1.083-.955-1.423-1.776-.334-.826-.501-1.933-.501-3.322v-1.96c0-1.395.164-2.496.492-3.305.334-.808.803-1.385 1.406-1.731.61-.346 1.324-.519 2.145-.519.826 0 1.54.173 2.144.519.604.346 1.07.923 1.398 1.731.334.809.5 1.91.5 3.305v1.96zm-1.644-2.232c0-.961-.09-1.732-.272-2.312-.182-.58-.451-.999-.809-1.257-.357-.264-.797-.395-1.318-.395-.516 0-.952.131-1.31.395-.357.258-.63.677-.817 1.257-.182.58-.273 1.35-.273 2.312v2.487c0 .955.094 1.731.282 2.329.187.598.46 1.037.817 1.318.363.276.803.413 1.318.413.528 0 .967-.137 1.319-.413.351-.28.615-.72.79-1.318.182-.598.273-1.374.273-2.33V35.31zm3.938 6.837c0-.275.085-.506.255-.694.175-.193.427-.29.755-.29.334 0 .586.097.756.29a.977.977 0 01.264.694c0 .27-.088.496-.264.677-.17.182-.422.273-.756.273-.328 0-.58-.091-.756-.273a.953.953 0 01-.254-.676zM39.346 43h-8.394v-1.16l4.192-4.667c.522-.574.923-1.06 1.205-1.46.287-.403.486-.767.597-1.089.112-.322.167-.65.167-.984 0-.633-.193-1.172-.58-1.617-.38-.452-.926-.677-1.635-.677-.574 0-1.051.111-1.432.334-.375.222-.656.53-.844.922-.182.393-.272.847-.272 1.363h-1.644c0-.72.158-1.38.475-1.978a3.497 3.497 0 011.406-1.423c.627-.358 1.397-.537 2.311-.537 1.207 0 2.15.314 2.83.94.686.628 1.029 1.454 1.029 2.48a3.86 3.86 0 01-.325 1.52 7.882 7.882 0 01-.87 1.52 16.19 16.19 0 01-1.205 1.46l-3.427 3.735h6.416V43zm9.8-3.463c0 .78-.182 1.441-.545 1.986a3.41 3.41 0 01-1.46 1.23c-.609.282-1.297.423-2.065.423-.767 0-1.459-.14-2.074-.422a3.409 3.409 0 01-1.459-1.23c-.358-.546-.536-1.208-.536-1.987 0-.674.173-1.274.518-1.802.346-.527.824-.94 1.433-1.239.61-.305 1.31-.457 2.1-.457.786 0 1.486.152 2.101.457a3.579 3.579 0 011.45 1.24c.358.527.536 1.127.536 1.801zm-1.644-.035c0-.475-.103-.894-.308-1.257a2.175 2.175 0 00-.861-.861c-.363-.205-.788-.308-1.274-.308-.493 0-.92.103-1.284.308a2.149 2.149 0 00-.835.861c-.193.363-.29.782-.29 1.257 0 .492.097.914.29 1.266.2.351.48.62.844.808.364.188.794.281 1.292.281.504 0 .935-.093 1.292-.28.363-.188.642-.458.835-.81.2-.351.299-.773.299-1.265zm1.345-5.968c0 .621-.164 1.18-.492 1.679a3.42 3.42 0 01-1.345 1.178c-.569.287-1.213.43-1.934.43-.732 0-1.386-.143-1.96-.43a3.353 3.353 0 01-1.336-1.178 3.023 3.023 0 01-.483-1.679c0-.744.161-1.377.483-1.898a3.21 3.21 0 011.345-1.196c.574-.275 1.225-.413 1.951-.413.727 0 1.374.138 1.943.413a3.149 3.149 0 011.336 1.196c.328.521.492 1.154.492 1.898zm-1.644.026c0-.427-.09-.805-.272-1.133a1.982 1.982 0 00-.747-.791 2.082 2.082 0 00-1.108-.29c-.428 0-.803.09-1.125.272-.316.182-.565.44-.747.774-.176.328-.264.717-.264 1.168 0 .44.088.824.264 1.152.182.328.43.583.747.765.322.181.697.272 1.125.272.428 0 .8-.09 1.116-.272.317-.182.563-.437.739-.765.181-.328.272-.712.272-1.152zm3.858-.896c0-.486.106-.929.317-1.327a2.45 2.45 0 01.905-.958c.393-.24.859-.36 1.398-.36.55 0 1.022.12 1.415.36.392.24.694.56.905.958.21.398.316.84.316 1.327v.677c0 .474-.105.911-.316 1.31a2.452 2.452 0 01-.905.957c-.387.24-.853.36-1.398.36-.545 0-1.016-.12-1.415-.36a2.452 2.452 0 01-.905-.958 2.756 2.756 0 01-.316-1.31v-.676zm1.231.677c0 .27.05.524.15.764.105.24.26.437.465.59.211.146.475.22.791.22.317 0 .577-.074.782-.22.206-.153.358-.35.458-.59.1-.24.149-.495.149-.764v-.677c0-.275-.053-.533-.158-.773a1.288 1.288 0 00-.466-.59c-.205-.152-.466-.228-.782-.228-.31 0-.569.076-.774.229-.205.146-.36.343-.466.589a2 2 0 00-.149.773v.677zm5.001 6.521c0-.48.105-.92.316-1.318.211-.398.51-.718.897-.958.392-.24.861-.36 1.406-.36.55 0 1.02.12 1.406.36.393.24.695.56.906.958.21.398.316.838.316 1.318v.686c0 .48-.105.92-.316 1.318a2.387 2.387 0 01-.897.958c-.387.24-.852.36-1.397.36s-1.017-.12-1.415-.36a2.451 2.451 0 01-.906-.958 2.773 2.773 0 01-.316-1.318v-.686zm1.222.686c0 .27.05.527.15.773.105.24.263.437.474.59.21.146.474.219.79.219.317 0 .578-.073.783-.22.205-.152.357-.348.457-.589.1-.24.15-.498.15-.773v-.686c0-.416-.118-.782-.352-1.098-.229-.323-.58-.484-1.055-.484-.469 0-.82.161-1.055.484a1.828 1.828 0 00-.342 1.098v.686zm-4.448 1.476l-.922-.58 6.249-10.002.922.58-6.249 10.002z" fill="#4D4F5C"/><path d="M0 36.5a36.5 36.5 0 1119.065 32.067l2.158-3.969A31.983 31.983 0 104.517 36.5H0z" fill="#F8CF61"/><path d="M57.34 6.535a36.5 36.5 0 108.085 7.704l-3.58 2.755a31.983 31.983 0 11-7.083-6.75l2.579-3.71z" fill="#FFF0C7"/></svg>