<svg width="73" height="73" viewBox="0 0 73 73" fill="none" xmlns="http://www.w3.org/2000/svg"><path d="M73 36.5C73 56.658 56.658 73 36.5 73S0 56.658 0 36.5 16.342 0 36.5 0 73 16.342 73 36.5zm-68.483 0c0 17.664 14.32 31.983 31.983 31.983 17.664 0 31.983-14.32 31.983-31.983 0-17.664-14.32-31.983-31.983-31.983-17.664 0-31.983 14.32-31.983 31.983z" fill="#6CD5B1"/><path d="M51.036 3.02A36.5 36.5 0 0040.45.213l-.489 4.49a31.983 31.983 0 019.277 2.459l1.8-4.144z" fill="#BFEEDE"/><path d="M14.848 41.647c.937 0 1.699-.132 2.285-.396.586-.264 1.034-.618 1.345-1.063a4.06 4.06 0 00.65-1.512c.117-.563.176-1.14.176-1.732v-1.96c0-.779-.114-1.438-.343-1.977-.229-.54-.53-.947-.905-1.222a1.945 1.945 0 00-1.204-.422c-.498 0-.926.132-1.284.396a2.509 2.509 0 00-.808 1.072 4.059 4.059 0 00-.273 1.53c0 .503.082.987.246 1.45.17.462.425.84.765 1.133.346.293.78.44 1.3.44a2.39 2.39 0 001.012-.22c.322-.146.606-.343.852-.589a3.2 3.2 0 00.598-.852c.152-.323.24-.657.263-1.002h.783c0 .486-.097.967-.29 1.441a4.383 4.383 0 01-.791 1.292 3.9 3.9 0 01-1.196.923 3.294 3.294 0 01-1.494.343c-.844 0-1.535-.211-2.074-.633a3.765 3.765 0 01-1.195-1.609 5.506 5.506 0 01-.387-2.03c0-.814.15-1.555.448-2.223a3.716 3.716 0 011.336-1.6c.592-.398 1.321-.598 2.189-.598.732 0 1.356.147 1.872.44.521.287.943.677 1.265 1.169.328.492.569 1.046.721 1.66a7.87 7.87 0 01.229 1.9v.606c0 .668-.044 1.345-.132 2.03a8.06 8.06 0 01-.484 1.951 5.153 5.153 0 01-1.028 1.661c-.451.487-1.04.87-1.767 1.152-.72.281-1.614.422-2.68.422h-.167v-1.371h.167zm10.125 0c.937 0 1.699-.132 2.285-.396.586-.264 1.034-.618 1.345-1.063a4.06 4.06 0 00.65-1.512c.117-.563.176-1.14.176-1.732v-1.96c0-.779-.114-1.438-.343-1.977-.229-.54-.53-.947-.905-1.222a1.945 1.945 0 00-1.204-.422c-.498 0-.926.132-1.284.396a2.509 2.509 0 00-.808 1.072 4.059 4.059 0 00-.273 1.53c0 .503.082.987.246 1.45.17.462.425.84.765 1.133.346.293.78.44 1.3.44a2.39 2.39 0 001.012-.22c.322-.146.606-.343.852-.589a3.2 3.2 0 00.598-.852c.152-.323.24-.657.263-1.002h.783c0 .486-.097.967-.29 1.441a4.383 4.383 0 01-.791 1.292 3.9 3.9 0 01-1.196.923 3.294 3.294 0 01-1.494.343c-.844 0-1.535-.211-2.074-.633a3.765 3.765 0 01-1.195-1.609 5.506 5.506 0 01-.387-2.03c0-.814.15-1.555.448-2.223a3.716 3.716 0 011.336-1.6c.592-.398 1.321-.598 2.189-.598.732 0 1.356.147 1.872.44.521.287.943.677 1.265 1.169.328.492.569 1.046.721 1.66a7.87 7.87 0 01.229 1.9v.606c0 .668-.044 1.345-.132 2.03a8.06 8.06 0 01-.484 1.951 5.153 5.153 0 01-1.028 1.661c-.451.487-1.04.87-1.767 1.152-.72.281-1.614.422-2.68.422h-.167v-1.371h.167zm8.543.5c0-.275.085-.506.255-.694.175-.193.427-.29.755-.29.334 0 .586.097.756.29a.977.977 0 01.264.694c0 .27-.088.496-.264.677-.17.182-.422.273-.756.273-.328 0-.58-.091-.756-.273a.953.953 0 01-.254-.676zM43.43 43h-1.644V32.145l-3.27 1.205v-1.468l4.659-1.75h.255V43zm4.632-10.336c0-.486.105-.929.316-1.327a2.45 2.45 0 01.905-.958c.393-.24.859-.36 1.398-.36.55 0 1.022.12 1.415.36.392.24.694.56.905.958.21.398.316.84.316 1.327v.677c0 .474-.105.911-.316 1.31a2.452 2.452 0 01-.905.957c-.387.24-.853.36-1.398.36-.545 0-1.016-.12-1.415-.36a2.452 2.452 0 01-.905-.958 2.756 2.756 0 01-.316-1.31v-.676zm1.23.677c0 .27.05.524.15.764.105.24.26.437.465.59.211.146.475.22.791.22.317 0 .577-.074.782-.22.206-.153.358-.35.458-.59.1-.24.149-.495.149-.764v-.677c0-.275-.053-.533-.158-.773a1.288 1.288 0 00-.466-.59c-.205-.152-.466-.228-.782-.228-.31 0-.569.076-.774.229-.205.146-.36.343-.466.589a2 2 0 00-.149.773v.677zm5.001 6.521c0-.48.105-.92.316-1.318.211-.398.51-.718.897-.958.392-.24.861-.36 1.406-.36.55 0 1.02.12 1.406.36.393.24.695.56.906.958.21.398.316.838.316 1.318v.686c0 .48-.105.92-.316 1.318a2.387 2.387 0 01-.897.958c-.387.24-.852.36-1.397.36s-1.017-.12-1.415-.36a2.451 2.451 0 01-.906-.958 2.773 2.773 0 01-.316-1.318v-.686zm1.222.686c0 .27.05.527.15.773.105.24.263.437.474.59.21.146.474.219.79.219.317 0 .578-.073.783-.22.205-.152.357-.348.457-.589.1-.24.15-.498.15-.773v-.686c0-.416-.118-.782-.352-1.098-.229-.323-.58-.484-1.055-.484-.469 0-.82.161-1.055.484a1.828 1.828 0 00-.342 1.098v.686zm-4.448 1.476l-.922-.58 6.249-10.002.922.58-6.249 10.002z" fill="#4D4F5C"/></svg>