<svg width="73" height="73" viewBox="0 0 73 73" fill="none" xmlns="http://www.w3.org/2000/svg"><path d="M35.097 37.542c0 1.389-.164 2.496-.492 3.322-.323.82-.786 1.412-1.39 1.776-.603.357-1.318.536-2.144.536-.814 0-1.526-.179-2.136-.536-.609-.364-1.083-.955-1.423-1.776-.334-.826-.501-1.933-.501-3.322v-1.96c0-1.395.164-2.496.492-3.305.334-.808.803-1.385 1.406-1.731.61-.346 1.324-.519 2.145-.519.826 0 1.54.173 2.144.519.604.346 1.07.923 1.398 1.731.334.809.5 1.91.5 3.305v1.96zm-1.644-2.232c0-.961-.09-1.732-.272-2.312-.182-.58-.451-.999-.809-1.257-.357-.264-.797-.395-1.318-.395-.516 0-.952.131-1.31.395-.357.258-.63.677-.817 1.257-.182.58-.273 1.35-.273 2.312v2.487c0 .955.094 1.731.282 2.329.187.598.46 1.037.817 1.318.363.276.803.413 1.318.413.528 0 .967-.137 1.319-.413.351-.28.615-.72.79-1.318.182-.598.273-1.374.273-2.33V35.31zm3.595-2.646c0-.486.105-.929.316-1.327.211-.398.513-.718.906-.958.392-.24.858-.36 1.397-.36.55 0 1.023.12 1.415.36.393.24.694.56.905.958.211.398.317.84.317 1.327v.677c0 .474-.106.911-.317 1.31a2.45 2.45 0 01-.905.957c-.387.24-.852.36-1.397.36s-1.017-.12-1.416-.36a2.451 2.451 0 01-.905-.958 2.755 2.755 0 01-.316-1.31v-.676zm1.23.677c0 .27.05.524.15.764.105.24.26.437.466.59.21.146.474.22.79.22.317 0 .578-.074.783-.22.205-.153.357-.35.457-.59.1-.24.15-.495.15-.764v-.677c0-.275-.053-.533-.159-.773a1.287 1.287 0 00-.466-.59c-.205-.152-.466-.228-.782-.228-.31 0-.568.076-.773.229-.206.146-.36.343-.466.589a2 2 0 00-.15.773v.677zm5.001 6.521c0-.48.106-.92.317-1.318.21-.398.51-.718.896-.958.393-.24.861-.36 1.406-.36.551 0 1.02.12 1.407.36.392.24.694.56.905.958.21.398.316.838.316 1.318v.686c0 .48-.105.92-.316 1.318a2.388 2.388 0 01-.897.958c-.386.24-.852.36-1.397.36s-1.017-.12-1.415-.36a2.45 2.45 0 01-.905-.958 2.774 2.774 0 01-.317-1.318v-.686zm1.222.686c0 .27.05.527.15.773.105.24.263.437.474.59.21.146.475.219.791.219.316 0 .577-.073.782-.22.205-.152.358-.348.457-.589a2 2 0 00.15-.773v-.686a1.79 1.79 0 00-.352-1.098c-.228-.323-.58-.484-1.055-.484-.468 0-.82.161-1.054.484a1.827 1.827 0 00-.343 1.098v.686zm-4.447 1.476l-.923-.58 6.249-10.002.923.58-6.25 10.002z" fill="#4D4F5C"/><path d="M0 36.5a36.5 36.5 0 1119.065 32.067l2.158-3.969A31.983 31.983 0 104.517 36.5H0z" fill="#CECCFF"/><path d="M57.34 6.535a36.5 36.5 0 108.085 7.704l-3.58 2.755a31.983 31.983 0 11-7.083-6.75l2.579-3.71z" fill="#CECCFF"/></svg>