<svg width="194" height="194" viewBox="0 0 194 194" fill="none" xmlns="http://www.w3.org/2000/svg"><path opacity=".12" d="M97 194c53.572 0 97-43.428 97-97S150.572 0 97 0 0 43.428 0 97s43.428 97 97 97z" fill="#AFB1B7"/><path d="M96.53 31.759V12.01a85.218 85.218 0 0117.047 1.718 84.181 84.181 0 0115.877 4.929 84.644 84.644 0 0114.368 7.8 85.259 85.259 0 0112.518 10.327 85.31 85.31 0 016.9 7.809l-16.761 10.708a64.733 64.733 0 00-49.95-23.542z" fill="#A3A1FB"/><path d="M94.164 181.154l.52-19.742a64.945 64.945 0 0064.787-50.821l18.628 7.06a84.187 84.187 0 01-4 11.866 84.634 84.634 0 01-7.8 14.368 85.245 85.245 0 01-22.849 22.847 84.602 84.602 0 01-14.368 7.8 84.166 84.166 0 01-15.877 4.929 85.253 85.253 0 01-19.041 1.693z" fill="#FFA167"/><path d="M159.41 110.866a64.832 64.832 0 001.583-14.273 64.548 64.548 0 00-15.047-41.486l16.72-10.778a84.65 84.65 0 0111.43 19.341 84.16 84.16 0 014.929 15.877 85.236 85.236 0 011.721 17.046 85.24 85.24 0 01-1.718 17.047 84.535 84.535 0 01-.973 4.2l-18.645-6.974z" fill="#50D8BB"/><path d="M97.145 31.759V12.01a85.215 85.215 0 00-17.047 1.718 84.18 84.18 0 00-15.877 4.928 84.629 84.629 0 00-14.368 7.8 85.203 85.203 0 00-12.518 10.328 85.205 85.205 0 00-6.9 7.809l16.76 10.708a64.732 64.732 0 0149.95-23.542z" fill="#FF8474"/><path d="M99.512 181.154l-.521-19.742a64.953 64.953 0 01-64.787-50.821l-18.627 7.06a84.217 84.217 0 004 11.866 84.592 84.592 0 0018.135 26.886 85.22 85.22 0 0012.514 10.329 84.58 84.58 0 0014.368 7.8 84.158 84.158 0 0015.877 4.927 85.244 85.244 0 0019.04 1.695z" fill="#FF7CC3"/><path d="M34.265 110.866a64.796 64.796 0 01-1.583-14.273 64.55 64.55 0 0115.047-41.486L31.009 44.33a84.607 84.607 0 00-11.43 19.341 84.174 84.174 0 00-4.93 15.877 85.214 85.214 0 00.003 34.092c.288 1.407.613 2.807.977 4.2l18.636-6.973z" fill="#81C9FF"/><path d="M79.52 84.799c1.289.586 2.302 1.424 3.04 2.513.739 1.079 1.108 2.315 1.108 3.71 0 1.546-.363 2.87-1.09 3.972-.726 1.102-1.728 1.94-3.006 2.514-1.265.562-2.707.844-4.324.844s-3.064-.282-4.342-.844c-1.265-.574-2.262-1.412-2.988-2.514-.727-1.101-1.09-2.426-1.09-3.972 0-1.407.363-2.649 1.09-3.727.726-1.078 1.734-1.91 3.023-2.496-1.113-.574-1.986-1.354-2.619-2.338-.62-.984-.931-2.086-.931-3.305 0-1.488.334-2.765 1.002-3.832.668-1.066 1.593-1.875 2.777-2.426 1.183-.562 2.543-.843 4.078-.843 1.535 0 2.895.28 4.078.843 1.184.551 2.11 1.36 2.778 2.426.668 1.067 1.002 2.344 1.002 3.832 0 1.219-.323 2.32-.967 3.305-.633.984-1.506 1.764-2.62 2.338zm-4.272-9.229c-1.066 0-1.916.34-2.549 1.02-.62.668-.931 1.576-.931 2.724 0 1.137.31 2.051.931 2.743.633.691 1.483 1.037 2.549 1.037 1.078 0 1.928-.34 2.549-1.02.621-.691.931-1.611.931-2.76 0-1.113-.316-2.015-.949-2.707-.62-.691-1.465-1.037-2.531-1.037zm0 19.266c1.254 0 2.238-.358 2.953-1.072.715-.727 1.072-1.723 1.072-2.989 0-.832-.17-1.558-.51-2.18a3.422 3.422 0 00-1.423-1.458c-.61-.352-1.319-.528-2.127-.528-.809 0-1.518.176-2.127.528a3.48 3.48 0 00-1.389 1.459c-.328.62-.492 1.347-.492 2.18 0 1.265.358 2.261 1.072 2.988.727.715 1.717 1.072 2.971 1.072zM87.394 98v-3.023l8.333-9.036c.914-1.02 1.629-1.892 2.144-2.619.516-.738.879-1.4 1.09-1.986a4.917 4.917 0 00.334-1.758c0-1.195-.334-2.162-1.002-2.9-.656-.739-1.57-1.108-2.742-1.108-1.383 0-2.444.428-3.182 1.284-.726.843-1.09 1.968-1.09 3.374h-4.377c0-1.511.346-2.888 1.037-4.13.692-1.242 1.694-2.227 3.006-2.954 1.313-.726 2.866-1.09 4.659-1.09 1.699 0 3.152.288 4.359.862 1.207.574 2.127 1.395 2.76 2.461.632 1.055.949 2.303.949 3.744 0 1.5-.445 3-1.336 4.5-.891 1.488-2.191 3.129-3.902 4.922l-5.555 5.941h11.777V98H87.394zm33.118-13.201c1.289.586 2.302 1.424 3.041 2.513.738 1.079 1.107 2.315 1.107 3.71 0 1.546-.363 2.87-1.09 3.972-.726 1.102-1.728 1.94-3.006 2.514-1.265.562-2.707.844-4.324.844s-3.064-.282-4.342-.844c-1.265-.574-2.261-1.412-2.988-2.514-.726-1.101-1.09-2.426-1.09-3.972 0-1.407.364-2.649 1.09-3.727.727-1.078 1.735-1.91 3.024-2.496-1.114-.574-1.987-1.354-2.62-2.338-.621-.984-.931-2.086-.931-3.305 0-1.488.334-2.765 1.002-3.832.668-1.066 1.594-1.875 2.777-2.426 1.184-.562 2.543-.843 4.078-.843 1.535 0 2.895.28 4.078.843 1.184.551 2.11 1.36 2.778 2.426.668 1.067 1.002 2.344 1.002 3.832 0 1.219-.323 2.32-.967 3.305-.633.984-1.506 1.764-2.619 2.338zm-4.272-9.229c-1.066 0-1.916.34-2.549 1.02-.621.668-.931 1.576-.931 2.724 0 1.137.31 2.051.931 2.743.633.691 1.483 1.037 2.549 1.037 1.078 0 1.928-.34 2.549-1.02.621-.691.932-1.611.932-2.76 0-1.113-.317-2.015-.95-2.707-.621-.691-1.464-1.037-2.531-1.037zm0 19.266c1.254 0 2.239-.358 2.953-1.072.715-.727 1.073-1.723 1.073-2.989 0-.832-.17-1.558-.51-2.18a3.422 3.422 0 00-1.424-1.458c-.609-.352-1.318-.528-2.127-.528-.809 0-1.517.176-2.127.528-.598.34-1.06.826-1.389 1.459-.328.62-.492 1.347-.492 2.18 0 1.265.358 2.261 1.073 2.988.726.715 1.716 1.072 2.97 1.072zm-41.238 19.231a3.938 3.938 0 01-.514 1.594 2.888 2.888 0 01-1.168 1.079c-.5.258-1.109.387-1.828.387-.715 0-1.346-.176-1.892-.527-.545-.355-.969-.857-1.27-1.504-.3-.648-.45-1.397-.45-2.247v-.933c0-.855.15-1.606.45-2.254.306-.647.74-1.147 1.302-1.498.563-.355 1.221-.533 1.974-.533.682 0 1.266.129 1.752.387a2.77 2.77 0 011.136 1.079c.275.461.445 1.003.508 1.625h-1.231c-.097-.69-.313-1.21-.648-1.561-.334-.356-.84-.534-1.517-.534-.537 0-.992.136-1.364.407-.373.271-.654.651-.845 1.142-.186.491-.279 1.067-.279 1.727v.946c0 .626.087 1.187.26 1.682.174.495.438.886.794 1.174.355.288.795.432 1.32.432.504 0 .91-.079 1.219-.235.313-.161.548-.392.704-.692.161-.3.28-.681.356-1.143h1.231zm6.868-3.935V117h-1.13l-.018-.679c-.457.537-1.128.806-2.013.806-.706 0-1.259-.207-1.656-.622-.398-.415-.597-1.062-.597-1.943v-4.43h1.187v4.443c0 .571.116.976.349 1.213.237.232.54.349.908.349.888 0 1.483-.332 1.783-.997v-5.008h1.187zm4.209 3.853c-.817-.169-1.435-.406-1.854-.711-.414-.305-.622-.726-.622-1.263 0-.364.106-.699.318-1.003.211-.305.51-.548.895-.73.39-.182.833-.273 1.333-.273.533 0 .998.095 1.396.286.398.19.7.448.908.774.212.322.317.681.317 1.079h-1.187a1.05 1.05 0 00-.171-.565 1.256 1.256 0 00-.502-.444 1.554 1.554 0 00-.761-.178c-.31 0-.565.049-.768.146a1 1 0 00-.451.375.93.93 0 00-.14.495c0 .182.043.334.127.457.09.118.246.226.47.323.228.098.556.193.984.286.575.131 1.043.286 1.403.463.36.178.626.396.8.654.177.258.266.572.266.94 0 .397-.11.751-.33 1.06-.22.304-.531.544-.933.717-.402.169-.867.254-1.397.254-.584 0-1.09-.104-1.517-.311-.423-.212-.744-.489-.965-.832a1.994 1.994 0 01-.33-1.098h1.188c.016.305.105.555.266.749.16.191.36.328.597.413a2.3 2.3 0 00.761.127c.31 0 .574-.043.794-.127.224-.089.394-.208.508-.356a.833.833 0 00.171-.514.98.98 0 00-.12-.495c-.08-.14-.235-.269-.464-.387-.228-.119-.558-.222-.99-.311zM93.284 117a3.028 3.028 0 01-.908.127c-.478 0-.864-.144-1.156-.432-.287-.287-.431-.755-.431-1.403v-4.265h-1.25v-.895h1.25v-1.67h1.187v1.67h1.282v.895h-1.282v4.272c0 .326.068.546.203.66.135.11.32.165.552.165.09 0 .187-.006.292-.019.106-.017.19-.034.254-.051l.007.946zm.844-3.504c0-.664.127-1.261.38-1.79a2.959 2.959 0 011.086-1.244c.474-.305 1.024-.457 1.65-.457.635 0 1.19.152 1.663.457.475.3.838.715 1.092 1.244.254.529.381 1.126.381 1.79v.146c0 .664-.127 1.261-.38 1.79-.255.525-.618.94-1.093 1.244-.47.301-1.02.451-1.65.451-.63 0-1.183-.15-1.657-.451a3.053 3.053 0 01-1.091-1.244c-.254-.529-.381-1.126-.381-1.79v-.146zm1.187.146c0 .466.072.891.216 1.276.148.385.368.692.66.92.292.225.647.337 1.066.337.415 0 .768-.112 1.06-.337.292-.228.51-.535.654-.92.148-.385.222-.81.222-1.276v-.146a3.53 3.53 0 00-.222-1.276 2.089 2.089 0 00-.66-.92c-.292-.229-.648-.343-1.067-.343-.414 0-.768.114-1.06.343a2.11 2.11 0 00-.653.92 3.622 3.622 0 00-.216 1.276v.146zm13.869-3.637c.754 0 1.325.201 1.714.603.39.402.584 1.028.584 1.879V117h-1.187v-4.526c0-.546-.125-.929-.374-1.149-.246-.224-.608-.336-1.086-.336-.304 0-.571.065-.8.197a1.41 1.41 0 00-.539.52c-.127.22-.205.468-.235.743V117h-1.187v-4.52c0-.994-.489-1.491-1.466-1.491-.394 0-.72.087-.978.26a1.601 1.601 0 00-.59.711V117h-1.187v-6.868h1.123l.038.743c.237-.28.525-.493.864-.642a2.804 2.804 0 011.161-.228c.453 0 .849.091 1.187.273.343.178.601.451.775.819.237-.339.539-.605.908-.8a2.705 2.705 0 011.275-.292zm9.611 3.885h-4.647c.013.427.102.814.267 1.161.165.347.398.622.698.825.305.199.66.299 1.067.299.397 0 .74-.081 1.028-.241.292-.161.552-.392.781-.692l.717.558c-.254.39-.593.709-1.016.959-.423.245-.948.368-1.574.368-.626 0-1.179-.142-1.657-.425a2.909 2.909 0 01-1.111-1.181c-.258-.504-.387-1.075-.387-1.714v-.273c0-.715.14-1.339.419-1.872.279-.538.648-.948 1.105-1.232a2.78 2.78 0 011.479-.425c.639 0 1.168.144 1.587.432.423.283.736.677.939 1.18.203.504.305 1.086.305 1.746v.527zm-1.187-1.041c-.034-.538-.18-.986-.438-1.346-.254-.364-.656-.546-1.206-.546-.474 0-.87.174-1.187.521-.313.342-.51.829-.591 1.46h3.422v-.089zm5.363-2.844c.077 0 .172.01.286.032a.896.896 0 01.235.057v1.085a3.147 3.147 0 00-.578-.051c-.389 0-.715.087-.977.261a1.595 1.595 0 00-.584.73V117h-1.187v-6.868h1.155l.025.781c.178-.288.403-.51.673-.667a1.83 1.83 0 01.952-.241zm-55.075 14.749v3.168h3.866v.99h-3.866V133h-1.231v-9.242h5.725v.996h-4.494zm11.305 5.136h-4.646c.012.427.101.814.266 1.161.165.347.398.622.698.825.305.199.66.299 1.067.299.398 0 .74-.081 1.028-.241.292-.161.552-.392.781-.692l.717.558c-.254.39-.592.709-1.015.959-.423.245-.948.368-1.575.368-.626 0-1.178-.142-1.656-.425a2.903 2.903 0 01-1.111-1.181c-.258-.504-.387-1.075-.387-1.714v-.273c0-.715.14-1.339.419-1.872.279-.538.647-.948 1.104-1.232a2.78 2.78 0 011.48-.425c.638 0 1.167.144 1.586.432.423.283.736.677.94 1.18.203.504.304 1.086.304 1.746v.527zm-1.187-1.041c-.034-.538-.18-.986-.438-1.346-.254-.364-.656-.546-1.206-.546-.474 0-.87.174-1.187.521-.313.342-.51.829-.59 1.46h3.421v-.089zm8.093 1.041h-4.646c.013.427.102.814.267 1.161.165.347.397.622.698.825.305.199.66.299 1.066.299.398 0 .74-.081 1.028-.241.293-.161.553-.392.781-.692l.718.558c-.254.39-.593.709-1.016.959-.423.245-.948.368-1.574.368-.627 0-1.179-.142-1.657-.425a2.903 2.903 0 01-1.11-1.181c-.259-.504-.388-1.075-.388-1.714v-.273c0-.715.14-1.339.419-1.872.28-.538.647-.948 1.104-1.232a2.78 2.78 0 011.48-.425c.638 0 1.167.144 1.586.432.424.283.737.677.94 1.18.203.504.304 1.086.304 1.746v.527zm-1.187-1.041c-.033-.538-.18-.986-.438-1.346-.254-.364-.656-.546-1.206-.546-.474 0-.87.174-1.187.521-.313.342-.51.829-.59 1.46h3.421v-.089zm8.075-5.599V133h-1.086l-.057-.73c-.465.571-1.117.857-1.955.857-.529 0-.999-.15-1.41-.451-.41-.3-.73-.715-.958-1.244-.224-.529-.336-1.126-.336-1.79v-.133c0-.694.112-1.306.336-1.835.225-.529.542-.939.952-1.231a2.4 2.4 0 011.429-.438c.808 0 1.44.269 1.898.806v-3.561h1.187zm-2.806 8.887c.732 0 1.272-.332 1.619-.997v-3.18a1.905 1.905 0 00-.642-.711c-.262-.173-.584-.26-.964-.26-.41 0-.754.112-1.029.336a1.95 1.95 0 00-.603.902c-.127.38-.19.808-.19 1.282v.133c0 .474.063.899.19 1.276.132.372.333.669.603.889.271.22.61.33 1.016.33zm7.77-6.132c.562 0 1.045.146 1.447.438.402.288.706.696.914 1.225.211.525.317 1.138.317 1.841v.133c0 .673-.106 1.274-.317 1.803-.208.525-.512.937-.914 1.238-.402.296-.88.444-1.435.444-.867 0-1.538-.303-2.012-.908l-.057.781h-1.086v-9.75h1.187v3.618c.47-.575 1.122-.863 1.956-.863zm1.491 3.504c0-.753-.144-1.361-.431-1.822-.284-.465-.737-.698-1.359-.698-.402 0-.74.097-1.016.292-.27.19-.484.45-.64.781v3.002c.16.326.378.586.653.781.28.194.618.292 1.016.292.596 0 1.04-.231 1.333-.692.296-.466.444-1.067.444-1.803v-.133zm7.903 1.993c0 .241.021.491.064.749.042.254.101.47.177.647V133h-1.238c-.071-.165-.127-.404-.165-.717a2.737 2.737 0 01-.857.615c-.33.153-.694.229-1.091.229-.457 0-.864-.089-1.219-.267a2.07 2.07 0 01-.819-.736 1.926 1.926 0 01-.286-1.028c0-.487.125-.9.375-1.238.254-.339.611-.593 1.073-.762.465-.173 1.013-.26 1.644-.26h1.155v-.546c0-.419-.125-.747-.374-.984-.246-.241-.601-.362-1.067-.362-.283 0-.537.051-.762.153-.224.097-.4.23-.526.4a.882.882 0 00-.185.539h-1.187c0-.334.115-.658.343-.971.229-.313.55-.567.965-.762.415-.199.889-.298 1.422-.298.508 0 .952.087 1.333.26.385.169.685.428.901.775.216.342.324.763.324 1.263v3.199zm-2.939.609c.271 0 .523-.046.755-.139.237-.098.441-.225.61-.381.169-.157.298-.326.387-.508v-1.422h-.965c-.677 0-1.195.108-1.555.324a1.03 1.03 0 00-.54.946c0 .224.051.425.153.603.101.177.249.319.444.425.195.102.432.152.711.152zm10.283-1.282a2.114 2.114 0 01-.412 1.136 2.767 2.767 0 01-1.003.845 2.863 2.863 0 01-1.327.317c-.664 0-1.227-.152-1.688-.457a2.865 2.865 0 01-1.029-1.238 4.271 4.271 0 01-.342-1.733v-.266c0-.635.114-1.211.342-1.727a2.82 2.82 0 011.029-1.238c.461-.309 1.024-.463 1.688-.463.525 0 .99.108 1.397.324.41.215.732.514.964.895.233.376.36.799.381 1.269h-1.123a1.737 1.737 0 00-.241-.774 1.53 1.53 0 00-.565-.559 1.614 1.614 0 00-.813-.203c-.453 0-.819.119-1.098.355a1.913 1.913 0 00-.597.908 3.959 3.959 0 00-.177 1.213v.266c0 .703.143 1.291.431 1.765.292.474.772.711 1.441.711.275 0 .531-.057.768-.172.241-.118.438-.279.59-.482.153-.207.24-.438.261-.692h1.123zm3.25-1.016l-.736.762V133h-1.187v-9.75h1.187v5.891l.628-.743 2.12-2.266h1.441l-2.672 2.863 2.99 4.005h-1.397l-2.374-3.187zm7.097.172c-.817-.169-1.435-.406-1.854-.711-.414-.305-.622-.726-.622-1.263 0-.364.106-.699.318-1.003.211-.305.51-.548.895-.73a3.11 3.11 0 011.333-.273c.533 0 .998.095 1.396.286.398.19.701.448.908.774.212.322.317.681.317 1.079h-1.187a1.05 1.05 0 00-.171-.565 1.25 1.25 0 00-.502-.444 1.548 1.548 0 00-.761-.178c-.309 0-.565.049-.768.146a1 1 0 00-.451.375.932.932 0 00-.14.495c0 .182.043.334.127.457.089.118.246.226.47.323.229.098.557.193.984.286.575.131 1.043.286 1.403.463.359.178.626.396.8.654.177.258.266.572.266.94 0 .397-.11.751-.33 1.06-.22.304-.531.544-.933.717-.402.169-.868.254-1.396.254-.584 0-1.09-.104-1.518-.311-.423-.212-.744-.489-.964-.832a1.995 1.995 0 01-.331-1.098h1.188c.016.305.105.555.266.749.161.191.36.328.597.413a2.3 2.3 0 00.762.127c.308 0 .573-.043.793-.127.224-.089.394-.208.508-.356a.834.834 0 00.171-.514.98.98 0 00-.12-.495c-.081-.14-.235-.269-.464-.387-.228-.119-.558-.222-.99-.311z" fill="#4D4F5C"/></svg>