<svg width="535" height="270" viewBox="0 0 535 270" fill="none" xmlns="http://www.w3.org/2000/svg"><mask id="a" style="mask-type:luminance" maskUnits="userSpaceOnUse" x="32" y="54" width="503" height="193"><path d="M534.55 54.993h-502v191.854h502V54.993z" fill="#fff"/></mask><g mask="url(#a)" stroke="#EAF0F4"><path d="M32.55 246.848V54.995m78 191.853V54.995m78 191.853V54.995m78 191.853V54.995m78 191.853V54.995m78 191.853V54.995m78 191.853V54.995"/></g><mask id="b" style="mask-type:luminance" maskUnits="userSpaceOnUse" x="0" y="48" width="520" height="211"><path d="M519.048 48H0v211h519.048V48z" fill="#fff"/></mask><g mask="url(#b)"><path d="M.743 56.338h2.2v-2.035c0-.363.033-.968.055-1.342h-.044c-.176.33-.374.638-.572.99L.743 56.338zM2.943 59v-1.936H-.214v-.605l3.003-4.477h1.012v4.356h.957v.726h-.957V59h-.858zm4.863.132c-1.408 0-2.255-1.309-2.255-3.663s.847-3.619 2.255-3.619c1.397 0 2.244 1.265 2.244 3.619s-.847 3.663-2.244 3.663zm0-.737c.814 0 1.364-.869 1.364-2.926 0-2.057-.55-2.882-1.364-2.882-.814 0-1.364.825-1.364 2.882 0 2.057.55 2.926 1.364 2.926zm5.468.737c-1.408 0-2.255-1.309-2.255-3.663s.847-3.619 2.255-3.619c1.397 0 2.244 1.265 2.244 3.619s-.847 3.663-2.244 3.663zm0-.737c.814 0 1.364-.869 1.364-2.926 0-2.057-.55-2.882-1.364-2.882-.814 0-1.364.825-1.364 2.882 0 2.057.55 2.926 1.364 2.926z" fill="#43425D"/><path d="M501.048 54.63H32v1.172h469.048V54.63z" fill="#EAF0F4"/><path d="M2.195 107.132c-1.122 0-1.837-.473-2.31-.99l.462-.594c.418.44.968.825 1.793.825.847 0 1.452-.495 1.452-1.276 0-.836-.572-1.397-2.244-1.397v-.693c1.485 0 1.991-.572 1.991-1.309 0-.671-.462-1.1-1.21-1.1-.583 0-1.078.297-1.496.704l-.484-.572c.54-.506 1.188-.88 2.013-.88 1.221 0 2.101.649 2.101 1.782 0 .847-.506 1.386-1.265 1.672v.044c.847.198 1.518.814 1.518 1.782 0 1.243-1.034 2.002-2.32 2.002zm5.61 0c-1.407 0-2.254-1.309-2.254-3.663s.847-3.619 2.255-3.619c1.397 0 2.244 1.265 2.244 3.619s-.847 3.663-2.244 3.663zm0-.737c.815 0 1.365-.869 1.365-2.926 0-2.057-.55-2.882-1.364-2.882-.814 0-1.364.825-1.364 2.882 0 2.057.55 2.926 1.364 2.926zm5.469.737c-1.408 0-2.255-1.309-2.255-3.663s.847-3.619 2.255-3.619c1.397 0 2.244 1.265 2.244 3.619s-.847 3.663-2.244 3.663zm0-.737c.814 0 1.364-.869 1.364-2.926 0-2.057-.55-2.882-1.364-2.882-.814 0-1.364.825-1.364 2.882 0 2.057.55 2.926 1.364 2.926z" fill="#43425D"/><path d="M501.048 102.63H32v1.172h469.048v-1.172z" fill="#EAF0F4"/><path d="M.04 155v-.561c2.09-2.046 3.3-3.344 3.3-4.477 0-.803-.44-1.364-1.332-1.364-.583 0-1.089.374-1.485.836l-.517-.495c.583-.66 1.21-1.089 2.112-1.089 1.298 0 2.112.825 2.112 2.057 0 1.364-1.232 2.629-2.937 4.367.385-.033.814-.055 1.177-.055h2.101V155H.04zm7.766.132c-1.408 0-2.255-1.309-2.255-3.663s.847-3.619 2.255-3.619c1.397 0 2.244 1.265 2.244 3.619s-.847 3.663-2.244 3.663zm0-.737c.814 0 1.364-.869 1.364-2.926 0-2.057-.55-2.882-1.364-2.882-.814 0-1.364.825-1.364 2.882 0 2.057.55 2.926 1.364 2.926zm5.468.737c-1.408 0-2.255-1.309-2.255-3.663s.847-3.619 2.255-3.619c1.397 0 2.244 1.265 2.244 3.619s-.847 3.663-2.244 3.663zm0-.737c.814 0 1.364-.869 1.364-2.926 0-2.057-.55-2.882-1.364-2.882-.814 0-1.364.825-1.364 2.882 0 2.057.55 2.926 1.364 2.926z" fill="#43425D"/><path d="M501.048 150.63H32v1.172h469.048v-1.172z" fill="#EAF0F4"/><path d="M.468 203v-.759h1.606v-5.148H.787v-.594c.65-.11 1.111-.286 1.496-.517h.704v6.259h1.441V203H.468zm7.338.132c-1.408 0-2.255-1.309-2.255-3.663s.847-3.619 2.255-3.619c1.397 0 2.244 1.265 2.244 3.619s-.847 3.663-2.244 3.663zm0-.737c.814 0 1.364-.869 1.364-2.926 0-2.057-.55-2.882-1.364-2.882-.814 0-1.364.825-1.364 2.882 0 2.057.55 2.926 1.364 2.926zm5.468.737c-1.408 0-2.255-1.309-2.255-3.663s.847-3.619 2.255-3.619c1.397 0 2.244 1.265 2.244 3.619s-.847 3.663-2.244 3.663zm0-.737c.814 0 1.364-.869 1.364-2.926 0-2.057-.55-2.882-1.364-2.882-.814 0-1.364.825-1.364 2.882 0 2.057.55 2.926 1.364 2.926z" fill="#43425D"/><path d="M501.048 198.63H32v1.172h469.048v-1.172z" fill="#EAF0F4"/><path d="M13.272 251.132c-1.408 0-2.255-1.309-2.255-3.663s.847-3.619 2.255-3.619c1.397 0 2.244 1.265 2.244 3.619s-.847 3.663-2.244 3.663zm0-.737c.814 0 1.364-.869 1.364-2.926 0-2.057-.55-2.882-1.364-2.882-.814 0-1.364.825-1.364 2.882 0 2.057.55 2.926 1.364 2.926z" fill="#43425D"/><path d="M501.048 246.63H32v1.172h469.048v-1.172z" fill="#EAF0F4"/></g><path d="M52 164.965h4a4 4 0 014 4v78.036H48v-78.036a4.002 4.002 0 014-4zM78 108h4a3.997 3.997 0 014 4v135H74V112a3.998 3.998 0 014-4zm26 18h4c1.061 0 2.078.421 2.828 1.172A3.995 3.995 0 01112 130v117h-12V130c0-1.061.421-2.078 1.172-2.828A3.995 3.995 0 01104 126zm183 43h4c1.061 0 2.078.421 2.828 1.172A3.995 3.995 0 01295 173v74h-12v-74c0-1.061.421-2.078 1.172-2.828A3.995 3.995 0 01287 169zm-157-22h4c1.061 0 2.078.421 2.828 1.172A3.995 3.995 0 01138 151v96h-12v-96c0-1.061.421-2.078 1.172-2.828A3.995 3.995 0 01130 147zm183 0h4c1.061 0 2.078.421 2.828 1.172A3.995 3.995 0 01321 151v96h-12v-96c0-1.061.421-2.078 1.172-2.828A3.995 3.995 0 01313 147zm-156-15h4c1.061 0 2.078.421 2.828 1.172A3.995 3.995 0 01165 136v111h-12V136c0-1.061.421-2.078 1.172-2.828A3.995 3.995 0 01157 132zm182-13h4c1.061 0 2.078.421 2.828 1.172A3.995 3.995 0 01347 123v124h-12V123c0-1.061.421-2.078 1.172-2.828A3.995 3.995 0 01339 119zm-156 59.204h4a4 4 0 014 4v64.8h-12v-64.8a4 4 0 014-4zm183 0h4a4 4 0 014 4v64.8h-12v-64.8a4 4 0 014-4zM261 126h4c1.061 0 2.078.421 2.828 1.172A3.995 3.995 0 01269 130v117h-12V130c0-1.061.421-2.078 1.172-2.828A3.995 3.995 0 01261 126zm183 6h4c1.061 0 2.078.421 2.828 1.172A3.995 3.995 0 01452 136v111h-12V136c0-1.061.421-2.078 1.172-2.828A3.995 3.995 0 01444 132zm26 22h4c1.061 0 2.078.421 2.828 1.172A3.995 3.995 0 01478 158v89h-12v-89c0-1.061.421-2.078 1.172-2.828A3.995 3.995 0 01470 154zm-261-13.519h4c1.061 0 2.078.421 2.828 1.172a3.995 3.995 0 011.172 2.828v102.52h-12v-102.52c0-1.061.421-2.078 1.172-2.828a3.995 3.995 0 012.828-1.172zm183 0h4c1.061 0 2.078.421 2.828 1.172a3.995 3.995 0 011.172 2.828v102.52h-12v-102.52c0-1.061.421-2.078 1.172-2.828a3.995 3.995 0 012.828-1.172zM235 155.8h4a3.999 3.999 0 014 4V247h-12v-87.2a4 4 0 014-4zm183 0h4a3.999 3.999 0 014 4V247h-12v-87.2a4 4 0 014-4z" fill="#A3A1FB"/><mask id="c" style="mask-type:luminance" maskUnits="userSpaceOnUse" x="41" y="256" width="440" height="14"><path d="M481 256H41v14h440v-14z" fill="#fff"/></mask><g mask="url(#c)" fill="#43425D"><path d="M42.447 267l-1.529-7.216h.957l.748 3.927c.143.781.264 1.551.396 2.365h.044a49.88 49.88 0 01.484-2.365l1.001-3.927h.913l.979 3.927c.176.77.363 1.551.517 2.365h.044c.121-.814.253-1.584.385-2.365l.77-3.927h.891L47.54 267h-1.144l-1.067-4.356a23.244 23.244 0 01-.319-1.694h-.044c-.11.627-.22 1.122-.341 1.694L43.58 267h-1.133zm9.923.132c-1.43 0-2.551-1.034-2.551-2.805 0-1.738 1.176-2.805 2.398-2.805 1.364 0 2.145.968 2.145 2.508 0 .198-.012.363-.044.539H50.72c.077 1.1.748 1.826 1.76 1.826a2.35 2.35 0 001.341-.396l.32.583c-.463.33-1.035.55-1.772.55zm-1.65-3.267h2.828c0-1.056-.495-1.617-1.31-1.617-.748 0-1.407.594-1.517 1.617zm7.108 3.267c-1.43 0-2.553-1.034-2.553-2.805 0-1.738 1.178-2.805 2.398-2.805 1.364 0 2.145.968 2.145 2.508 0 .198-.01.363-.043.539h-3.597c.077 1.1.748 1.826 1.76 1.826a2.35 2.35 0 001.341-.396l.32.583c-.462.33-1.034.55-1.771.55zm-1.65-3.267h2.827c0-1.056-.495-1.617-1.31-1.617-.748 0-1.407.594-1.517 1.617zm4.95 3.135v-7.832h.903v5.28h.033l2.255-2.794h1.023l-1.782 2.156 2.013 3.19h-.99l-1.562-2.563-.99 1.155V267h-.902zm7.616 0v-.759h1.606v-5.148h-1.287v-.594c.649-.11 1.111-.286 1.496-.517h.704v6.259h1.441V267h-3.96zm107.703 0l-1.529-7.216h.957l.748 3.927c.143.781.264 1.551.396 2.365h.044a49.88 49.88 0 01.484-2.365l1.001-3.927h.913l.979 3.927c.176.77.363 1.551.517 2.365h.044c.121-.814.253-1.584.385-2.365l.77-3.927h.891L181.54 267h-1.144l-1.067-4.356a23.244 23.244 0 01-.319-1.694h-.044c-.11.627-.22 1.122-.341 1.694L177.58 267h-1.133zm9.924.132c-1.43 0-2.552-1.034-2.552-2.805 0-1.738 1.177-2.805 2.397-2.805 1.365 0 2.146.968 2.146 2.508 0 .198-.011.363-.044.539h-3.597c.077 1.1.748 1.826 1.76 1.826.517 0 .968-.143 1.342-.396l.319.583c-.462.33-1.034.55-1.771.55zm-1.65-3.267h2.827c0-1.056-.495-1.617-1.309-1.617-.748 0-1.408.594-1.518 1.617zm7.107 3.267c-1.43 0-2.552-1.034-2.552-2.805 0-1.738 1.177-2.805 2.398-2.805 1.364 0 2.145.968 2.145 2.508 0 .198-.011.363-.044.539h-3.597c.077 1.1.748 1.826 1.76 1.826.517 0 .968-.143 1.342-.396l.319.583c-.462.33-1.034.55-1.771.55zm-1.65-3.267h2.827c0-1.056-.495-1.617-1.309-1.617-.748 0-1.408.594-1.518 1.617zm4.951 3.135v-7.832h.902v5.28h.033l2.255-2.794h1.023l-1.782 2.156 2.013 3.19h-.99l-1.562-2.563-.99 1.155V267h-.902zm7.186 0v-.561c2.09-2.046 3.3-3.344 3.3-4.477 0-.803-.44-1.364-1.331-1.364-.583 0-1.089.374-1.485.836l-.517-.495c.583-.66 1.21-1.089 2.112-1.089 1.298 0 2.112.825 2.112 2.057 0 1.364-1.232 2.629-2.937 4.367.385-.033.814-.055 1.177-.055h2.101V267h-4.532zm108.132 0l-1.529-7.216h.957l.748 3.927c.143.781.264 1.551.396 2.365h.044a49.88 49.88 0 01.484-2.365l1.001-3.927h.913l.979 3.927c.176.77.363 1.551.517 2.365h.044c.121-.814.253-1.584.385-2.365l.77-3.927h.891L315.54 267h-1.144l-1.067-4.356a23.244 23.244 0 01-.319-1.694h-.044c-.11.627-.22 1.122-.341 1.694L311.58 267h-1.133zm9.924.132c-1.43 0-2.552-1.034-2.552-2.805 0-1.738 1.177-2.805 2.397-2.805 1.365 0 2.146.968 2.146 2.508 0 .198-.011.363-.044.539h-3.597c.077 1.1.748 1.826 1.76 1.826.517 0 .968-.143 1.342-.396l.319.583c-.462.33-1.034.55-1.771.55zm-1.65-3.267h2.827c0-1.056-.495-1.617-1.309-1.617-.748 0-1.408.594-1.518 1.617zm7.107 3.267c-1.43 0-2.552-1.034-2.552-2.805 0-1.738 1.177-2.805 2.398-2.805 1.364 0 2.145.968 2.145 2.508 0 .198-.011.363-.044.539h-3.597c.077 1.1.748 1.826 1.76 1.826.517 0 .968-.143 1.342-.396l.319.583c-.462.33-1.034.55-1.771.55zm-1.65-3.267h2.827c0-1.056-.495-1.617-1.309-1.617-.748 0-1.408.594-1.518 1.617zm4.951 3.135v-7.832h.902v5.28h.033l2.255-2.794h1.023l-1.782 2.156 2.013 3.19h-.99l-1.562-2.563-.99 1.155V267h-.902zm9.342.132c-1.122 0-1.837-.473-2.31-.99l.462-.594c.418.44.968.825 1.793.825.847 0 1.452-.495 1.452-1.276 0-.836-.572-1.397-2.244-1.397v-.693c1.485 0 1.991-.572 1.991-1.309 0-.671-.462-1.1-1.21-1.1-.583 0-1.078.297-1.496.704l-.484-.572c.539-.506 1.188-.88 2.013-.88 1.221 0 2.101.649 2.101 1.782 0 .847-.506 1.386-1.265 1.672v.044c.847.198 1.518.814 1.518 1.782 0 1.243-1.034 2.002-2.321 2.002zM444.447 267l-1.529-7.216h.957l.748 3.927c.143.781.264 1.551.396 2.365h.044a49.88 49.88 0 01.484-2.365l1.001-3.927h.913l.979 3.927c.176.77.363 1.551.517 2.365h.044c.121-.814.253-1.584.385-2.365l.77-3.927h.891L449.54 267h-1.144l-1.067-4.356a23.244 23.244 0 01-.319-1.694h-.044c-.11.627-.22 1.122-.341 1.694L445.58 267h-1.133zm9.924.132c-1.43 0-2.552-1.034-2.552-2.805 0-1.738 1.177-2.805 2.397-2.805 1.365 0 2.146.968 2.146 2.508 0 .198-.011.363-.044.539h-3.597c.077 1.1.748 1.826 1.76 1.826.517 0 .968-.143 1.342-.396l.319.583c-.462.33-1.034.55-1.771.55zm-1.65-3.267h2.827c0-1.056-.495-1.617-1.309-1.617-.748 0-1.408.594-1.518 1.617zm7.107 3.267c-1.43 0-2.552-1.034-2.552-2.805 0-1.738 1.177-2.805 2.398-2.805 1.364 0 2.145.968 2.145 2.508 0 .198-.011.363-.044.539h-3.597c.077 1.1.748 1.826 1.76 1.826.517 0 .968-.143 1.342-.396l.319.583c-.462.33-1.034.55-1.771.55zm-1.65-3.267h2.827c0-1.056-.495-1.617-1.309-1.617-.748 0-1.408.594-1.518 1.617zm4.951 3.135v-7.832h.902v5.28h.033l2.255-2.794h1.023l-1.782 2.156 2.013 3.19h-.99l-1.562-2.563-.99 1.155V267h-.902zm7.89-2.662h2.2v-2.035c0-.363.033-.968.055-1.342h-.044c-.176.33-.374.638-.572.99l-1.639 2.387zm2.2 2.662v-1.936h-3.157v-.605l3.003-4.477h1.012v4.356h.957v.726h-.957V267h-.858z"/></g><path d="M466.17 13V4.472h4.914v.91h-3.835v2.886h3.25v.91h-3.25V13h-1.079zm8.703.156a3.06 3.06 0 01-1.534-.39 2.9 2.9 0 01-1.092-1.144c-.269-.494-.403-1.083-.403-1.768 0-.693.134-1.287.403-1.781a3.092 3.092 0 011.066-1.144 2.55 2.55 0 011.365-.403c.806 0 1.426.269 1.859.806.442.537.663 1.257.663 2.158 0 .113-.004.225-.013.338 0 .104-.009.195-.026.273h-4.264c.043.667.251 1.2.624 1.599.381.399.875.598 1.482.598.303 0 .581-.043.832-.13.26-.095.507-.217.741-.364l.377.702a4.821 4.821 0 01-.923.455c-.338.13-.724.195-1.157.195zm-1.989-3.822h3.38c0-.641-.139-1.127-.416-1.456-.269-.338-.65-.507-1.144-.507-.442 0-.841.173-1.196.52-.347.338-.555.819-.624 1.443zM478.761 13V6.682h.884l.091.91h.039c.278-.303.581-.555.91-.754.33-.208.681-.312 1.053-.312.486 0 .863.108 1.131.325.278.208.481.503.611.884.33-.355.663-.646 1.001-.871a1.912 1.912 0 011.079-.338c.65 0 1.131.212 1.443.637.321.416.481 1.027.481 1.833V13h-1.066V9.139c0-.59-.095-1.018-.286-1.287-.19-.269-.485-.403-.884-.403-.468 0-.996.325-1.586.975V13h-1.066V9.139c0-.59-.095-1.018-.286-1.287-.19-.269-.489-.403-.897-.403-.468 0-.996.325-1.586.975V13h-1.066zm12.235.156c-.529 0-.971-.156-1.326-.468-.347-.32-.52-.763-.52-1.326 0-.693.307-1.222.923-1.586.624-.373 1.607-.633 2.951-.78 0-.269-.039-.524-.117-.767-.07-.243-.2-.438-.39-.585-.182-.156-.447-.234-.793-.234-.364 0-.707.07-1.027.208a4.985 4.985 0 00-.858.468l-.416-.741c.294-.19.654-.373 1.079-.546a3.586 3.586 0 011.404-.273c.771 0 1.33.238 1.677.715.346.468.52 1.096.52 1.885V13h-.884l-.091-.754h-.039c-.295.243-.62.455-.975.637-.347.182-.72.273-1.118.273zm.312-.858c.303 0 .589-.074.858-.221.268-.147.554-.355.858-.624V9.698c-1.049.13-1.786.325-2.21.585-.416.26-.624.594-.624 1.001 0 .355.108.615.325.78.216.156.481.234.793.234zm5.913.858c-.398 0-.689-.121-.871-.364-.173-.251-.26-.607-.26-1.066V3.744h1.066v8.06c0 .165.031.286.091.364a.27.27 0 00.208.104h.091a1.55 1.55 0 01.143-.026l.143.806a.906.906 0 01-.247.078 2.09 2.09 0 01-.364.026zm4.744 0a3.06 3.06 0 01-1.534-.39 2.9 2.9 0 01-1.092-1.144c-.269-.494-.403-1.083-.403-1.768 0-.693.134-1.287.403-1.781a3.092 3.092 0 011.066-1.144 2.55 2.55 0 011.365-.403c.806 0 1.426.269 1.859.806.442.537.663 1.257.663 2.158 0 .113-.004.225-.013.338 0 .104-.009.195-.026.273h-4.264c.043.667.251 1.2.624 1.599.381.399.875.598 1.482.598.303 0 .581-.043.832-.13.26-.095.507-.217.741-.364l.377.702a4.821 4.821 0 01-.923.455c-.338.13-.724.195-1.157.195zm-1.989-3.822h3.38c0-.641-.139-1.127-.416-1.456-.269-.338-.65-.507-1.144-.507-.442 0-.841.173-1.196.52-.347.338-.555.819-.624 1.443z" fill="#4D4F5C"/><path d="M449 3h-8a5 5 0 000 10h8a5 5 0 000-10z" fill="#56D9FE"/><path d="M376.17 13V4.472h1.3l1.638 4.55c.104.295.204.594.299.897l.312.884h.052c.104-.295.199-.59.286-.884.095-.303.195-.602.299-.897l1.612-4.55h1.313V13h-1.014V8.307c0-.381.017-.802.052-1.261.035-.468.065-.888.091-1.261h-.052l-.676 1.937-1.612 4.42h-.715l-1.612-4.42-.676-1.937h-.052c.026.373.052.793.078 1.261.035.46.052.88.052 1.261V13h-.975zm10.797.156c-.528 0-.97-.156-1.326-.468-.346-.32-.52-.763-.52-1.326 0-.693.308-1.222.923-1.586.624-.373 1.608-.633 2.951-.78 0-.269-.039-.524-.117-.767a1.096 1.096 0 00-.39-.585c-.182-.156-.446-.234-.793-.234-.364 0-.706.07-1.027.208-.32.139-.606.295-.858.468l-.416-.741c.295-.19.655-.373 1.079-.546a3.593 3.593 0 011.404-.273c.772 0 1.331.238 1.677.715.347.468.52 1.096.52 1.885V13h-.884l-.091-.754h-.039a5.351 5.351 0 01-.975.637 2.367 2.367 0 01-1.118.273zm.312-.858c.304 0 .59-.074.858-.221a4.79 4.79 0 00.858-.624V9.698c-1.048.13-1.785.325-2.21.585-.416.26-.624.594-.624 1.001 0 .355.109.615.325.78.217.156.481.234.793.234zm5.914.858c-.399 0-.689-.121-.871-.364-.173-.251-.26-.607-.26-1.066V3.744h1.066v8.06c0 .165.03.286.091.364a.27.27 0 00.208.104h.091c.035-.009.082-.017.143-.026l.143.806a.917.917 0 01-.247.078 2.099 2.099 0 01-.364.026zm4.744 0c-.564 0-1.075-.13-1.534-.39a2.886 2.886 0 01-1.092-1.144c-.269-.494-.403-1.083-.403-1.768 0-.693.134-1.287.403-1.781a3.084 3.084 0 011.066-1.144 2.55 2.55 0 011.365-.403c.806 0 1.425.269 1.859.806.442.537.663 1.257.663 2.158 0 .113-.005.225-.013.338 0 .104-.009.195-.026.273h-4.264c.043.667.251 1.2.624 1.599.381.399.875.598 1.482.598.303 0 .58-.043.832-.13.26-.095.507-.217.741-.364l.377.702a4.85 4.85 0 01-.923.455c-.338.13-.724.195-1.157.195zm-1.989-3.822h3.38c0-.641-.139-1.127-.416-1.456-.269-.338-.65-.507-1.144-.507-.442 0-.841.173-1.196.52-.347.338-.555.819-.624 1.443z" fill="#4D4F5C"/><path d="M359 3h-8a5 5 0 000 10h8a5 5 0 000-10z" fill="#A3A0FB"/></svg>