<svg width="535" height="222" viewBox="0 0 535 222" fill="none" xmlns="http://www.w3.org/2000/svg"><mask id="a" style="mask-type:luminance" maskUnits="userSpaceOnUse" x="32" y="6" width="503" height="193"><path d="M534.55 6.993h-502v191.854h502V6.993z" fill="#fff"/></mask><g mask="url(#a)" stroke="#EAF0F4"><path d="M32.55 198.848V6.995m78 191.853V6.995m78 191.853V6.995m78 191.853V6.995m78 191.853V6.995m78 191.853V6.995m78 191.853V6.995"/></g><mask id="b" style="mask-type:luminance" maskUnits="userSpaceOnUse" x="0" y="0" width="520" height="211"><path d="M519.048 0H0v211h519.048V0z" fill="#fff"/></mask><g mask="url(#b)"><path d="M.743 8.338h2.2V6.303c0-.363.033-.968.055-1.342h-.044c-.176.33-.374.638-.572.99L.743 8.338zM2.943 11V9.064H-.214v-.605L2.79 3.982h1.012v4.356h.957v.726h-.957V11h-.858zm4.863.132c-1.408 0-2.255-1.309-2.255-3.663S6.398 3.85 7.806 3.85c1.397 0 2.244 1.265 2.244 3.619s-.847 3.663-2.244 3.663zm0-.737c.814 0 1.364-.869 1.364-2.926 0-2.057-.55-2.882-1.364-2.882-.814 0-1.364.825-1.364 2.882 0 2.057.55 2.926 1.364 2.926zm5.468.737c-1.408 0-2.255-1.309-2.255-3.663s.847-3.619 2.255-3.619c1.397 0 2.244 1.265 2.244 3.619s-.847 3.663-2.244 3.663zm0-.737c.814 0 1.364-.869 1.364-2.926 0-2.057-.55-2.882-1.364-2.882-.814 0-1.364.825-1.364 2.882 0 2.057.55 2.926 1.364 2.926z" fill="#43425D"/><path d="M501.048 6.63H32v1.172h469.048V6.63z" fill="#EAF0F4"/><path d="M2.195 59.132c-1.122 0-1.837-.473-2.31-.99l.462-.594c.418.44.968.825 1.793.825.847 0 1.452-.495 1.452-1.276 0-.836-.572-1.397-2.244-1.397v-.693c1.485 0 1.991-.572 1.991-1.309 0-.671-.462-1.1-1.21-1.1-.583 0-1.078.297-1.496.704L.15 52.73c.54-.506 1.188-.88 2.013-.88 1.221 0 2.101.649 2.101 1.782 0 .847-.506 1.386-1.265 1.672v.044c.847.198 1.518.814 1.518 1.782 0 1.243-1.034 2.002-2.32 2.002zm5.61 0c-1.407 0-2.254-1.309-2.254-3.663s.847-3.619 2.255-3.619c1.397 0 2.244 1.265 2.244 3.619s-.847 3.663-2.244 3.663zm0-.737c.815 0 1.365-.869 1.365-2.926 0-2.057-.55-2.882-1.364-2.882-.814 0-1.364.825-1.364 2.882 0 2.057.55 2.926 1.364 2.926zm5.469.737c-1.408 0-2.255-1.309-2.255-3.663s.847-3.619 2.255-3.619c1.397 0 2.244 1.265 2.244 3.619s-.847 3.663-2.244 3.663zm0-.737c.814 0 1.364-.869 1.364-2.926 0-2.057-.55-2.882-1.364-2.882-.814 0-1.364.825-1.364 2.882 0 2.057.55 2.926 1.364 2.926z" fill="#43425D"/><path d="M501.048 54.63H32v1.172h469.048V54.63z" fill="#EAF0F4"/><path d="M.04 107v-.561c2.09-2.046 3.3-3.344 3.3-4.477 0-.803-.44-1.364-1.332-1.364-.583 0-1.089.374-1.485.836l-.517-.495c.583-.66 1.21-1.089 2.112-1.089 1.298 0 2.112.825 2.112 2.057 0 1.364-1.232 2.629-2.937 4.367.385-.033.814-.055 1.177-.055h2.101V107H.04zm7.766.132c-1.408 0-2.255-1.309-2.255-3.663s.847-3.619 2.255-3.619c1.397 0 2.244 1.265 2.244 3.619s-.847 3.663-2.244 3.663zm0-.737c.814 0 1.364-.869 1.364-2.926 0-2.057-.55-2.882-1.364-2.882-.814 0-1.364.825-1.364 2.882 0 2.057.55 2.926 1.364 2.926zm5.468.737c-1.408 0-2.255-1.309-2.255-3.663s.847-3.619 2.255-3.619c1.397 0 2.244 1.265 2.244 3.619s-.847 3.663-2.244 3.663zm0-.737c.814 0 1.364-.869 1.364-2.926 0-2.057-.55-2.882-1.364-2.882-.814 0-1.364.825-1.364 2.882 0 2.057.55 2.926 1.364 2.926z" fill="#43425D"/><path d="M501.048 102.63H32v1.172h469.048v-1.172z" fill="#EAF0F4"/><path d="M.468 155v-.759h1.606v-5.148H.787v-.594c.65-.11 1.111-.286 1.496-.517h.704v6.259h1.441V155H.468zm7.338.132c-1.408 0-2.255-1.309-2.255-3.663s.847-3.619 2.255-3.619c1.397 0 2.244 1.265 2.244 3.619s-.847 3.663-2.244 3.663zm0-.737c.814 0 1.364-.869 1.364-2.926 0-2.057-.55-2.882-1.364-2.882-.814 0-1.364.825-1.364 2.882 0 2.057.55 2.926 1.364 2.926zm5.468.737c-1.408 0-2.255-1.309-2.255-3.663s.847-3.619 2.255-3.619c1.397 0 2.244 1.265 2.244 3.619s-.847 3.663-2.244 3.663zm0-.737c.814 0 1.364-.869 1.364-2.926 0-2.057-.55-2.882-1.364-2.882-.814 0-1.364.825-1.364 2.882 0 2.057.55 2.926 1.364 2.926z" fill="#43425D"/><path d="M501.048 150.63H32v1.172h469.048v-1.172z" fill="#EAF0F4"/><path d="M13.272 203.132c-1.408 0-2.255-1.309-2.255-3.663s.847-3.619 2.255-3.619c1.397 0 2.244 1.265 2.244 3.619s-.847 3.663-2.244 3.663zm0-.737c.814 0 1.364-.869 1.364-2.926 0-2.057-.55-2.882-1.364-2.882-.814 0-1.364.825-1.364 2.882 0 2.057.55 2.926 1.364 2.926z" fill="#43425D"/><path d="M501.048 198.63H32v1.172h469.048v-1.172z" fill="#EAF0F4"/></g><path d="M52 116.965h4a4 4 0 014 4v78.036H48v-78.036a4.002 4.002 0 014-4zM78 60h4a4 4 0 014 4v135H74V64a4 4 0 014-4zm26 18h4a3.998 3.998 0 014 4v117h-12V82a3.997 3.997 0 014-4zm183 43h4c1.061 0 2.078.421 2.828 1.172A3.995 3.995 0 01295 125v74h-12v-74c0-1.061.421-2.078 1.172-2.828A3.995 3.995 0 01287 121zM130 99h4c1.061 0 2.078.421 2.828 1.172A3.995 3.995 0 01138 103v96h-12v-96c0-1.061.421-2.078 1.172-2.828A3.997 3.997 0 01130 99zm183 0h4c1.061 0 2.078.421 2.828 1.172A3.995 3.995 0 01321 103v96h-12v-96c0-1.061.421-2.078 1.172-2.828A3.997 3.997 0 01313 99zM157 84h4a3.998 3.998 0 014 4v111h-12V88a3.997 3.997 0 014-4zm182-13h4a3.998 3.998 0 014 4v124h-12V75a3.997 3.997 0 014-4zm-156 59.204h4a4 4 0 014 4v64.8h-12v-64.8a4 4 0 014-4zm183 0h4a4 4 0 014 4v64.8h-12v-64.8a4 4 0 014-4zM261 78h4a3.998 3.998 0 014 4v117h-12V82a3.997 3.997 0 014-4zm183 6h4a3.998 3.998 0 014 4v111h-12V88a3.997 3.997 0 014-4zm26 22h4c1.061 0 2.078.421 2.828 1.172A3.995 3.995 0 01478 110v89h-12v-89c0-1.061.421-2.078 1.172-2.828A3.995 3.995 0 01470 106zM209 92.481h4a3.999 3.999 0 014 4v102.52h-12V96.481a3.997 3.997 0 014-4zm183 0h4a3.999 3.999 0 014 4v102.52h-12V96.481a3.997 3.997 0 014-4zM235 107.8h4a3.999 3.999 0 014 4V199h-12v-87.2a4 4 0 014-4zm183 0h4a3.999 3.999 0 014 4V199h-12v-87.2a4 4 0 014-4z" fill="#A3A1FB"/><mask id="c" style="mask-type:luminance" maskUnits="userSpaceOnUse" x="41" y="208" width="440" height="14"><path d="M481 208H41v14h440v-14z" fill="#fff"/></mask><g mask="url(#c)" fill="#43425D"><path d="M42.447 219l-1.529-7.216h.957l.748 3.927c.143.781.264 1.551.396 2.365h.044a49.88 49.88 0 01.484-2.365l1.001-3.927h.913l.979 3.927c.176.77.363 1.551.517 2.365h.044c.121-.814.253-1.584.385-2.365l.77-3.927h.891L47.54 219h-1.144l-1.067-4.356a23.244 23.244 0 01-.319-1.694h-.044c-.11.627-.22 1.122-.341 1.694L43.58 219h-1.133zm9.923.132c-1.43 0-2.551-1.034-2.551-2.805 0-1.738 1.176-2.805 2.398-2.805 1.364 0 2.145.968 2.145 2.508 0 .198-.012.363-.044.539H50.72c.077 1.1.748 1.826 1.76 1.826a2.35 2.35 0 001.341-.396l.32.583c-.463.33-1.035.55-1.772.55zm-1.65-3.267h2.828c0-1.056-.495-1.617-1.31-1.617-.748 0-1.407.594-1.517 1.617zm7.108 3.267c-1.43 0-2.553-1.034-2.553-2.805 0-1.738 1.178-2.805 2.398-2.805 1.364 0 2.145.968 2.145 2.508 0 .198-.01.363-.043.539h-3.597c.077 1.1.748 1.826 1.76 1.826a2.35 2.35 0 001.341-.396l.32.583c-.462.33-1.034.55-1.771.55zm-1.65-3.267h2.827c0-1.056-.495-1.617-1.31-1.617-.748 0-1.407.594-1.517 1.617zm4.95 3.135v-7.832h.903v5.28h.033l2.255-2.794h1.023l-1.782 2.156 2.013 3.19h-.99l-1.562-2.563-.99 1.155V219h-.902zm7.616 0v-.759h1.606v-5.148h-1.287v-.594c.649-.11 1.111-.286 1.496-.517h.704v6.259h1.441V219h-3.96zm107.703 0l-1.529-7.216h.957l.748 3.927c.143.781.264 1.551.396 2.365h.044a49.88 49.88 0 01.484-2.365l1.001-3.927h.913l.979 3.927c.176.77.363 1.551.517 2.365h.044c.121-.814.253-1.584.385-2.365l.77-3.927h.891L181.54 219h-1.144l-1.067-4.356a23.244 23.244 0 01-.319-1.694h-.044c-.11.627-.22 1.122-.341 1.694L177.58 219h-1.133zm9.924.132c-1.43 0-2.552-1.034-2.552-2.805 0-1.738 1.177-2.805 2.397-2.805 1.365 0 2.146.968 2.146 2.508 0 .198-.011.363-.044.539h-3.597c.077 1.1.748 1.826 1.76 1.826.517 0 .968-.143 1.342-.396l.319.583c-.462.33-1.034.55-1.771.55zm-1.65-3.267h2.827c0-1.056-.495-1.617-1.309-1.617-.748 0-1.408.594-1.518 1.617zm7.107 3.267c-1.43 0-2.552-1.034-2.552-2.805 0-1.738 1.177-2.805 2.398-2.805 1.364 0 2.145.968 2.145 2.508 0 .198-.011.363-.044.539h-3.597c.077 1.1.748 1.826 1.76 1.826.517 0 .968-.143 1.342-.396l.319.583c-.462.33-1.034.55-1.771.55zm-1.65-3.267h2.827c0-1.056-.495-1.617-1.309-1.617-.748 0-1.408.594-1.518 1.617zm4.951 3.135v-7.832h.902v5.28h.033l2.255-2.794h1.023l-1.782 2.156 2.013 3.19h-.99l-1.562-2.563-.99 1.155V219h-.902zm7.186 0v-.561c2.09-2.046 3.3-3.344 3.3-4.477 0-.803-.44-1.364-1.331-1.364-.583 0-1.089.374-1.485.836l-.517-.495c.583-.66 1.21-1.089 2.112-1.089 1.298 0 2.112.825 2.112 2.057 0 1.364-1.232 2.629-2.937 4.367.385-.033.814-.055 1.177-.055h2.101V219h-4.532zm108.132 0l-1.529-7.216h.957l.748 3.927c.143.781.264 1.551.396 2.365h.044a49.88 49.88 0 01.484-2.365l1.001-3.927h.913l.979 3.927c.176.77.363 1.551.517 2.365h.044c.121-.814.253-1.584.385-2.365l.77-3.927h.891L315.54 219h-1.144l-1.067-4.356a23.244 23.244 0 01-.319-1.694h-.044c-.11.627-.22 1.122-.341 1.694L311.58 219h-1.133zm9.924.132c-1.43 0-2.552-1.034-2.552-2.805 0-1.738 1.177-2.805 2.397-2.805 1.365 0 2.146.968 2.146 2.508 0 .198-.011.363-.044.539h-3.597c.077 1.1.748 1.826 1.76 1.826.517 0 .968-.143 1.342-.396l.319.583c-.462.33-1.034.55-1.771.55zm-1.65-3.267h2.827c0-1.056-.495-1.617-1.309-1.617-.748 0-1.408.594-1.518 1.617zm7.107 3.267c-1.43 0-2.552-1.034-2.552-2.805 0-1.738 1.177-2.805 2.398-2.805 1.364 0 2.145.968 2.145 2.508 0 .198-.011.363-.044.539h-3.597c.077 1.1.748 1.826 1.76 1.826.517 0 .968-.143 1.342-.396l.319.583c-.462.33-1.034.55-1.771.55zm-1.65-3.267h2.827c0-1.056-.495-1.617-1.309-1.617-.748 0-1.408.594-1.518 1.617zm4.951 3.135v-7.832h.902v5.28h.033l2.255-2.794h1.023l-1.782 2.156 2.013 3.19h-.99l-1.562-2.563-.99 1.155V219h-.902zm9.342.132c-1.122 0-1.837-.473-2.31-.99l.462-.594c.418.44.968.825 1.793.825.847 0 1.452-.495 1.452-1.276 0-.836-.572-1.397-2.244-1.397v-.693c1.485 0 1.991-.572 1.991-1.309 0-.671-.462-1.1-1.21-1.1-.583 0-1.078.297-1.496.704l-.484-.572c.539-.506 1.188-.88 2.013-.88 1.221 0 2.101.649 2.101 1.782 0 .847-.506 1.386-1.265 1.672v.044c.847.198 1.518.814 1.518 1.782 0 1.243-1.034 2.002-2.321 2.002zM444.447 219l-1.529-7.216h.957l.748 3.927c.143.781.264 1.551.396 2.365h.044a49.88 49.88 0 01.484-2.365l1.001-3.927h.913l.979 3.927c.176.77.363 1.551.517 2.365h.044c.121-.814.253-1.584.385-2.365l.77-3.927h.891L449.54 219h-1.144l-1.067-4.356a23.244 23.244 0 01-.319-1.694h-.044c-.11.627-.22 1.122-.341 1.694L445.58 219h-1.133zm9.924.132c-1.43 0-2.552-1.034-2.552-2.805 0-1.738 1.177-2.805 2.397-2.805 1.365 0 2.146.968 2.146 2.508 0 .198-.011.363-.044.539h-3.597c.077 1.1.748 1.826 1.76 1.826.517 0 .968-.143 1.342-.396l.319.583c-.462.33-1.034.55-1.771.55zm-1.65-3.267h2.827c0-1.056-.495-1.617-1.309-1.617-.748 0-1.408.594-1.518 1.617zm7.107 3.267c-1.43 0-2.552-1.034-2.552-2.805 0-1.738 1.177-2.805 2.398-2.805 1.364 0 2.145.968 2.145 2.508 0 .198-.011.363-.044.539h-3.597c.077 1.1.748 1.826 1.76 1.826.517 0 .968-.143 1.342-.396l.319.583c-.462.33-1.034.55-1.771.55zm-1.65-3.267h2.827c0-1.056-.495-1.617-1.309-1.617-.748 0-1.408.594-1.518 1.617zm4.951 3.135v-7.832h.902v5.28h.033l2.255-2.794h1.023l-1.782 2.156 2.013 3.19h-.99l-1.562-2.563-.99 1.155V219h-.902zm7.89-2.662h2.2v-2.035c0-.363.033-.968.055-1.342h-.044c-.176.33-.374.638-.572.99l-1.639 2.387zm2.2 2.662v-1.936h-3.157v-.605l3.003-4.477h1.012v4.356h.957v.726h-.957V219h-.858z"/></g></svg>