<svg width="232" height="462" viewBox="0 0 232 462" fill="none" xmlns="http://www.w3.org/2000/svg"><mask id="a" style="mask-type:alpha" maskUnits="userSpaceOnUse" x="0" y="0" width="232" height="462"><rect width="231.671" height="462" rx="20" fill="#241243"/></mask><g mask="url(#a)"><g filter="url(#filter0_f_131_517)"><ellipse cx="56.364" cy="40.835" rx="56.364" ry="40.835" transform="matrix(.80144 .59807 -.58406 .81171 64.326 91)" fill="#3A2859"/></g><g filter="url(#filter1_f_131_517)"><ellipse cx="56.364" cy="40.835" rx="56.364" ry="40.835" transform="matrix(.80144 .59807 -.58406 .81171 162.52 227)" fill="#3A2859"/></g><path d="M174.309 264.876c15.254-15.534 27.354-33.976 35.609-54.273a169.966 169.966 0 0012.504-64.019c0-21.969-4.249-43.723-12.504-64.02-8.255-20.296-20.355-38.738-35.609-54.272C159.055 12.758 140.947.435 121.017-7.972a161.7 161.7 0 00-62.863-12.734A161.697 161.697 0 00-4.71-7.972C-24.64.435-42.748 12.758-58.002 28.292L174.31 264.876z" fill="url(#paint0_linear_131_517)" fill-opacity=".9"/><path d="M89.576 179c-15.254 15.534-27.354 33.976-35.609 54.273a169.96 169.96 0 00-12.504 64.019 169.97 169.97 0 0012.504 64.019c8.255 20.297 20.355 38.739 35.609 54.273 15.254 15.534 33.363 27.857 53.293 36.264a161.695 161.695 0 0062.862 12.734c21.573 0 42.933-4.327 62.863-12.734s38.039-20.73 53.293-36.264L89.576 179z" fill="url(#paint1_linear_131_517)" fill-opacity=".9"/></g><defs><linearGradient id="paint0_linear_131_517" x1="227.216" y1="141.154" x2="-.107" y2="91.493" gradientUnits="userSpaceOnUse"><stop stop-color="#241243"/><stop offset="1" stop-color="#442A70"/></linearGradient><linearGradient id="paint1_linear_131_517" x1="36.669" y1="302.722" x2="263.992" y2="352.382" gradientUnits="userSpaceOnUse"><stop stop-color="#241243"/><stop offset="1" stop-color="#442A70"/></linearGradient><filter id="filter0_f_131_517" x="-37.444" y="38.58" width="246.184" height="238.552" filterUnits="userSpaceOnUse" color-interpolation-filters="sRGB"><feFlood flood-opacity="0" result="BackgroundImageFix"/><feBlend in="SourceGraphic" in2="BackgroundImageFix" result="shape"/><feGaussianBlur stdDeviation="36" result="effect1_foregroundBlur_131_517"/></filter><filter id="filter1_f_131_517" x="60.75" y="174.58" width="246.184" height="238.552" filterUnits="userSpaceOnUse" color-interpolation-filters="sRGB"><feFlood flood-opacity="0" result="BackgroundImageFix"/><feBlend in="SourceGraphic" in2="BackgroundImageFix" result="shape"/><feGaussianBlur stdDeviation="36" result="effect1_foregroundBlur_131_517"/></filter></defs></svg>