<svg width="240" height="192" viewBox="0 0 240 192" fill="none" xmlns="http://www.w3.org/2000/svg"><path d="M125.814 161.828c42.612 0 77.157-34.546 77.157-77.31 0-42.763-34.698-77.309-77.157-77.309-42.611 0-77.157 34.546-77.157 77.31 0 42.763 34.546 77.309 77.157 77.309z" fill="#EAEEF9"/><path d="M197.949 33.837a6.24 6.24 0 100-12.48 6.24 6.24 0 000 12.48zM207.08 9.49a4.261 4.261 0 100-8.523 4.261 4.261 0 000 8.523zM52.767 33.685a4.261 4.261 0 100-8.523 4.261 4.261 0 000 8.523zm-26.023 82.183a7.913 7.913 0 100-15.827 7.913 7.913 0 000 15.827z" fill="#E7EBF6"/><path d="M125.768 118.964l-2.696-.037c-.539-.007-1.071-.554-1.03-1.219.041-.666.461-1.231 1-1.224l2.696.037c.539.007 1.071.554 1.03 1.22-.074.792-.461 1.231-1 1.223z" fill="#CED7E2"/><g filter="url(#filter0_d_171_257)"><path d="M113.565 47.93l32.692 67.128c1.093 2.326.127 5.03-2.198 6.123l-65.95 31.146c-2.325 1.092-5.03.127-6.122-2.199l-40.98-86.88c-1.093-2.326-.127-5.03 2.198-6.123l47.73-22.476 32.63 13.282z" fill="url(#paint0_linear_171_257)"/></g><path d="M80.936 34.65l8.74 18.607c1.27 2.559 4.535 3.687 7.095 2.418l16.794-7.743" fill="#D5DDEA"/><g filter="url(#filter1_d_171_257)"><path d="M171.474 54.623l.946 74.659c-.003 2.57-2.03 4.604-4.599 4.601l-72.934.049c-2.57-.003-4.604-2.029-4.6-4.599l-.02-96.06c.004-2.57 2.03-4.604 4.6-4.601l52.756.023 23.851 25.928z" fill="url(#paint1_linear_171_257)"/></g><path d="M147.623 28.694l-.028 20.557c.056 2.856 2.53 5.269 5.386 5.213l18.492.157" fill="#D5DDEA"/><g filter="url(#filter2_d_171_257)"><path d="M217.37 87.737l-30.499 68.233c-1.015 2.302-3.853 3.311-6.121 2.169l-66.077-30.47c-2.302-1.015-3.31-3.852-2.295-6.154l40.244-87.167c1.015-2.302 3.852-3.31 6.121-2.168l47.98 22.164 10.647 33.393z" fill="url(#paint2_linear_171_257)"/></g><path d="M206.598 54.312l-8.599 18.695c-1.242 2.648.078 5.838 2.726 7.08l16.646 7.65" fill="#D5DDEA"/><path d="M150.643 87.823a30.856 30.856 0 01-2.24 6.356c-2.5 4.639-6.205 8.419-10.859 10.738-4.827 2.491-10.515 3.35-16.289 2.233-13.445-2.834-22.15-15.891-19.305-29.378 2.844-13.487 15.858-22.163 29.388-19.328 4.827 1.03 9.05 3.35 12.583 6.7 5.861 6.013 8.36 14.518 6.722 22.678z" fill="url(#paint3_linear_171_257)"/><path d="M126.61 68.433c-2.34 0-4.16 1.993-3.987 4.333l1.3 14.041c.087 1.387 1.3 2.514 2.687 2.514 1.387 0 2.6-1.127 2.687-2.514l1.3-14.04c.173-2.427-1.647-4.334-3.987-4.334zm0 23.488a3.107 3.107 0 00-3.12 3.12 3.107 3.107 0 003.12 3.12 3.107 3.107 0 003.12-3.12 3.107 3.107 0 00-3.12-3.12z" fill="#fff"/><defs><linearGradient id="paint0_linear_171_257" x1="78.168" y1="32.445" x2="99.747" y2="149.772" gradientUnits="userSpaceOnUse"><stop stop-color="#FDFEFF"/><stop offset=".996" stop-color="#ECF0F5"/></linearGradient><linearGradient id="paint1_linear_171_257" x1="146.06" y1="25.521" x2="115.547" y2="140.848" gradientUnits="userSpaceOnUse"><stop stop-color="#FDFEFF"/><stop offset=".996" stop-color="#ECF0F5"/></linearGradient><linearGradient id="paint2_linear_171_257" x1="183.043" y1="35.727" x2="152.279" y2="152.002" gradientUnits="userSpaceOnUse"><stop stop-color="#FDFEFF"/><stop offset=".996" stop-color="#ECF0F5"/></linearGradient><linearGradient id="paint3_linear_171_257" x1="101.383" y1="82.763" x2="151.12" y2="82.763" gradientUnits="userSpaceOnUse"><stop stop-color="#B0BACC"/><stop offset="1" stop-color="#969EAE"/></linearGradient><filter id="filter0_d_171_257" x="8.558" y="23.649" width="160.149" height="162.127" filterUnits="userSpaceOnUse" color-interpolation-filters="sRGB"><feFlood flood-opacity="0" result="BackgroundImageFix"/><feColorMatrix in="SourceAlpha" values="0 0 0 0 0 0 0 0 0 0 0 0 0 0 0 0 0 0 127 0" result="hardAlpha"/><feOffset dy="11"/><feGaussianBlur stdDeviation="11"/><feColorMatrix values="0 0 0 0 0.397708 0 0 0 0 0.47749 0 0 0 0 0.575 0 0 0 0.27 0"/><feBlend in2="BackgroundImageFix" result="effect1_dropShadow_171_257"/><feBlend in="SourceGraphic" in2="effect1_dropShadow_171_257" result="shape"/></filter><filter id="filter1_d_171_257" x="68.267" y="17.672" width="126.153" height="149.26" filterUnits="userSpaceOnUse" color-interpolation-filters="sRGB"><feFlood flood-opacity="0" result="BackgroundImageFix"/><feColorMatrix in="SourceAlpha" values="0 0 0 0 0 0 0 0 0 0 0 0 0 0 0 0 0 0 127 0" result="hardAlpha"/><feOffset dy="11"/><feGaussianBlur stdDeviation="11"/><feColorMatrix values="0 0 0 0 0.397708 0 0 0 0 0.47749 0 0 0 0 0.575 0 0 0 0.27 0"/><feBlend in2="BackgroundImageFix" result="effect1_dropShadow_171_257"/><feBlend in="SourceGraphic" in2="effect1_dropShadow_171_257" result="shape"/></filter><filter id="filter2_d_171_257" x="89.984" y="20.708" width="149.386" height="170.903" filterUnits="userSpaceOnUse" color-interpolation-filters="sRGB"><feFlood flood-opacity="0" result="BackgroundImageFix"/><feColorMatrix in="SourceAlpha" values="0 0 0 0 0 0 0 0 0 0 0 0 0 0 0 0 0 0 127 0" result="hardAlpha"/><feOffset dy="11"/><feGaussianBlur stdDeviation="11"/><feColorMatrix values="0 0 0 0 0.397708 0 0 0 0 0.47749 0 0 0 0 0.575 0 0 0 0.27 0"/><feBlend in2="BackgroundImageFix" result="effect1_dropShadow_171_257"/><feBlend in="SourceGraphic" in2="effect1_dropShadow_171_257" result="shape"/></filter></defs></svg>