<svg xmlns="http://www.w3.org/2000/svg" width="34.002" height="19.51" viewBox="0 0 34.002 19.51"><g data-name="Group 6075"><g data-name="Group 6069"><g data-name="Group 6068"><path data-name="Path 13081" d="M18.846 13.907a1.4 1.4 0 01-2.021 0 1.539 1.539 0 010-2.1 1.4 1.4 0 012.021 0 1.539 1.539 0 010 2.1z" fill="#fff"/></g></g><path data-name="Path 13082" d="M14.717 9.144h-10.9a3.981 3.981 0 004.24 3.093 8.881 8.881 0 004.693-1.466l1.493 2.64a11 11 0 01-6.346 2c-5.44 0-7.893-3.706-7.893-7.6A7.309 7.309 0 017.577.184a6.891 6.891 0 017.28 7.306 10.912 10.912 0 01-.14 1.654zm-10.906-2.8h7.387a3.516 3.516 0 00-3.627-3.039 3.723 3.723 0 00-3.754 3.039z" fill="#fff"/><g data-name="Group 6070"><path data-name="Path 13083" d="M32.292.323h1.71v12.935a5.758 5.758 0 01-1.918 4.581 6.75 6.75 0 01-4.585 1.668q-4.561 0-6.141-3.288l1.5-.889q1.165 2.451 4.638 2.452a4.872 4.872 0 003.511-1.226 4.352 4.352 0 001.283-3.3v-2.1a5.75 5.75 0 01-5.234 2.964 6.3 6.3 0 01-4.729-2.047 7.4 7.4 0 010-10.025A6.3 6.3 0 0127.056 0a5.751 5.751 0 015.234 2.965zM23.56 10.846a5.021 5.021 0 007.256 0 5.592 5.592 0 000-7.572 5.021 5.021 0 00-7.256 0 5.59 5.59 0 000 7.572z" fill="#fff"/></g></g></svg>