<svg width="92" height="92" viewBox="0 0 92 92" fill="none" xmlns="http://www.w3.org/2000/svg"><rect width="92" height="92" rx="46" fill="#F5F5F5"/><path opacity=".25" d="M46 33a4.333 4.333 0 003.754-6.5h7.08a8.667 8.667 0 018.666 8.667v26a8.667 8.667 0 01-8.667 8.666H35.167a8.667 8.667 0 01-8.667-8.666v-26a8.667 8.667 0 018.667-8.667h7.08A4.333 4.333 0 0046 33z" fill="#B5B5B5"/><path d="M37.333 39.5a2.167 2.167 0 100 4.333h17.334a2.167 2.167 0 100-4.333H37.333z" fill="url(#paint0_linear_120_857)"/><path d="M35.167 50.333c0-1.196.97-2.166 2.166-2.166h17.334a2.167 2.167 0 110 4.333H37.333a2.167 2.167 0 01-2.166-2.167z" fill="url(#paint1_linear_120_857)"/><path d="M35.167 59c0-1.197.97-2.167 2.166-2.167H46a2.167 2.167 0 010 4.334h-8.667A2.167 2.167 0 0135.167 59z" fill="url(#paint2_linear_120_857)"/><path fill-rule="evenodd" clip-rule="evenodd" d="M43.833 28.667a2.167 2.167 0 104.334 0 2.167 2.167 0 00-4.334 0zm2.167-6.5a6.5 6.5 0 100 13 6.5 6.5 0 000-13z" fill="url(#paint3_linear_120_857)"/><defs><linearGradient id="paint0_linear_120_857" x1="35.167" y1="50.333" x2="58.167" y2="50.333" gradientUnits="userSpaceOnUse"><stop stop-color="#FF5A5F"/><stop offset="1" stop-color="#FF477E"/></linearGradient><linearGradient id="paint1_linear_120_857" x1="35.167" y1="50.333" x2="58.167" y2="50.333" gradientUnits="userSpaceOnUse"><stop stop-color="#FF5A5F"/><stop offset="1" stop-color="#FF477E"/></linearGradient><linearGradient id="paint2_linear_120_857" x1="35.167" y1="50.333" x2="58.167" y2="50.333" gradientUnits="userSpaceOnUse"><stop stop-color="#FF5A5F"/><stop offset="1" stop-color="#FF477E"/></linearGradient><linearGradient id="paint3_linear_120_857" x1="39.5" y1="28.667" x2="53.3" y2="28.667" gradientUnits="userSpaceOnUse"><stop stop-color="#FF5A5F"/><stop offset="1" stop-color="#FF477E"/></linearGradient></defs></svg>