<svg width="701" height="394" viewBox="0 0 701 394" fill="none" xmlns="http://www.w3.org/2000/svg"><circle cx="519" cy="382" r="10" fill="#1191D0"/><path d="M550.761 389v-14.545h4.915c1.137 0 2.069.194 2.798.582.73.383 1.269.911 1.62 1.584.35.672.525 1.437.525 2.294s-.175 1.617-.525 2.28c-.351.662-.888 1.183-1.612 1.562-.725.374-1.651.561-2.777.561h-3.978v-1.591h3.921c.776 0 1.401-.113 1.875-.341.478-.227.824-.549 1.037-.966.217-.421.326-.923.326-1.505 0-.583-.109-1.092-.326-1.527-.218-.436-.566-.772-1.044-1.009-.479-.241-1.111-.362-1.897-.362h-3.096V389h-1.762zm6.847-6.534l3.58 6.534h-2.046l-3.523-6.534h1.989zm9.976 6.761c-1.051 0-1.958-.232-2.72-.696a4.672 4.672 0 01-1.755-1.96c-.407-.843-.61-1.823-.61-2.94 0-1.118.203-2.103.61-2.955.412-.857.985-1.524 1.719-2.003.739-.483 1.6-.724 2.585-.724.568 0 1.13.095 1.684.284a4.167 4.167 0 011.512.923c.455.422.817.98 1.087 1.676s.405 1.553.405 2.571v.711h-8.409v-1.449h6.704c0-.616-.123-1.165-.369-1.648a2.782 2.782 0 00-1.037-1.143c-.445-.28-.971-.419-1.577-.419-.667 0-1.245.165-1.733.497a3.272 3.272 0 00-1.115 1.278 3.762 3.762 0 00-.39 1.69v.966c0 .824.142 1.523.426 2.096a3.074 3.074 0 001.2 1.299c.511.294 1.106.441 1.783.441.44 0 .838-.062 1.193-.185.36-.128.67-.317.93-.568.261-.256.462-.573.604-.952l1.619.455a3.584 3.584 0 01-.859 1.448c-.403.412-.9.734-1.492.966-.591.228-1.257.341-1.995.341zm7.094-.227v-14.545h1.676v5.369h.142c.123-.19.294-.431.511-.725.223-.298.54-.563.952-.795.417-.237.98-.355 1.69-.355.919 0 1.729.23 2.429.689.701.459 1.248 1.11 1.641 1.953s.589 1.837.589 2.983c0 1.155-.196 2.157-.589 3.004-.393.843-.938 1.496-1.634 1.96-.696.46-1.498.689-2.407.689-.701 0-1.262-.116-1.683-.348-.422-.236-.746-.504-.973-.802a10.46 10.46 0 01-.526-.753h-.199V389h-1.619zm1.647-5.455c0 .824.121 1.551.363 2.181.241.625.594 1.115 1.058 1.47.464.35 1.032.526 1.704.526.701 0 1.286-.185 1.755-.554.473-.374.828-.876 1.065-1.506.242-.635.362-1.34.362-2.117 0-.767-.118-1.458-.355-2.073-.232-.621-.585-1.111-1.058-1.471-.469-.364-1.058-.546-1.769-.546-.681 0-1.254.172-1.718.518-.464.341-.815.819-1.051 1.435-.237.61-.356 1.323-.356 2.137zm17.222.995v-6.449h1.677V389h-1.677v-1.847h-.113a3.587 3.587 0 01-1.193 1.414c-.54.383-1.222.575-2.046.575-.682 0-1.288-.149-1.818-.447-.53-.303-.947-.758-1.25-1.364-.303-.611-.455-1.38-.455-2.308v-6.932h1.677v6.818c0 .796.222 1.43.667 1.903.45.474 1.023.711 1.719.711.417 0 .84-.107 1.271-.32.436-.213.8-.54 1.094-.98.298-.44.447-1.001.447-1.683zm9.291-6.449v1.42h-5.654v-1.42h5.654zm-4.006-2.614h1.676v10.398c0 .473.069.829.206 1.065.142.232.322.389.54.469.223.076.457.114.703.114.185 0 .336-.01.455-.029l.284-.056.341 1.505a3.449 3.449 0 01-.476.128 3.529 3.529 0 01-.774.071c-.474 0-.938-.102-1.392-.305a2.773 2.773 0 01-1.123-.931c-.293-.416-.44-.942-.44-1.576v-10.853zm11.071 2.614v1.42h-5.653v-1.42h5.653zm-4.005-2.614h1.676v10.398c0 .473.069.829.206 1.065.142.232.322.389.54.469.222.076.457.114.703.114.184 0 .336-.01.454-.029l.284-.056.341 1.505a3.37 3.37 0 01-.476.128 3.516 3.516 0 01-.774.071c-.473 0-.937-.102-1.392-.305a2.764 2.764 0 01-1.122-.931c-.293-.416-.44-.942-.44-1.576v-10.853zm9.537 13.779a4.438 4.438 0 01-1.882-.391 3.222 3.222 0 01-1.342-1.143c-.332-.502-.498-1.108-.498-1.819 0-.625.123-1.131.37-1.519a2.61 2.61 0 01.987-.924 5.203 5.203 0 011.364-.497 16.346 16.346 0 011.512-.27 72.061 72.061 0 011.613-.192c.416-.047.719-.125.909-.234.194-.109.291-.298.291-.568v-.057c0-.701-.192-1.245-.575-1.633-.379-.389-.955-.583-1.726-.583-.801 0-1.428.175-1.882.526-.455.35-.775.724-.959 1.122l-1.591-.568c.284-.663.663-1.179 1.136-1.549a4.259 4.259 0 011.563-.781 6.508 6.508 0 011.676-.227c.35 0 .753.042 1.207.128.46.08.902.248 1.328.504.431.256.789.642 1.073 1.158.284.516.426 1.207.426 2.073V389h-1.676v-1.477h-.085c-.114.236-.303.49-.569.76-.265.27-.618.499-1.058.689-.44.189-.978.284-1.612.284zm.256-1.506c.663 0 1.221-.13 1.676-.391.459-.26.805-.596 1.037-1.008.236-.412.355-.845.355-1.3v-1.534c-.071.085-.227.163-.469.234a7.689 7.689 0 01-.824.178c-.308.047-.608.09-.902.128-.289.033-.523.061-.703.085a6.406 6.406 0 00-1.222.277c-.374.123-.677.31-.909.561-.227.246-.341.582-.341 1.009 0 .582.216 1.022.647 1.321.435.293.987.44 1.655.44zm9.279-13.295V389h-1.676v-14.545h1.676zm10.598 6.079l-1.506.426a2.78 2.78 0 00-.419-.731 2.025 2.025 0 00-.739-.597c-.312-.156-.712-.234-1.2-.234-.668 0-1.224.154-1.669.461-.44.303-.661.689-.661 1.158 0 .417.152.746.455.987.303.242.776.443 1.42.604l1.62.398c.975.236 1.702.599 2.18 1.086.478.483.717 1.106.717 1.868 0 .625-.179 1.184-.539 1.676-.355.493-.853.881-1.492 1.165-.639.284-1.382.426-2.23.426-1.113 0-2.034-.241-2.763-.724-.729-.483-1.19-1.189-1.385-2.117l1.591-.397c.152.587.438 1.027.86 1.321.426.293.982.44 1.669.44.781 0 1.401-.166 1.861-.497.464-.336.696-.739.696-1.208 0-.378-.133-.696-.398-.951-.265-.261-.673-.455-1.222-.583l-1.818-.426c-.999-.237-1.733-.603-2.202-1.101-.464-.502-.696-1.129-.696-1.882 0-.615.173-1.16.519-1.633.35-.474.826-.845 1.427-1.115.606-.27 1.293-.405 2.06-.405 1.08 0 1.927.237 2.543.71a3.839 3.839 0 011.321 1.875z" fill="#2C2C2C"/><circle cx="140" cy="140" r="140" fill="#FFA800"/><path d="M46.582 139v-17.455h5.898c1.37 0 2.489.248 3.358.742.875.489 1.523 1.151 1.943 1.986.42.835.63 1.767.63 2.795 0 1.029-.21 1.963-.63 2.804-.414.841-1.057 1.512-1.926 2.012-.87.494-1.983.741-3.34.741h-4.228v-1.875h4.159c.938 0 1.69-.162 2.259-.486.568-.324.98-.761 1.235-1.312.262-.557.392-1.185.392-1.884 0-.699-.13-1.324-.392-1.875-.255-.551-.67-.983-1.244-1.295-.574-.318-1.335-.478-2.284-.478h-3.716V139h-2.114zm15.235 0v-17.455h5.898c1.363 0 2.482.233 3.357.699.875.461 1.523 1.094 1.944 1.901.42.807.63 1.724.63 2.753 0 1.028-.21 1.94-.63 2.736-.42.795-1.066 1.42-1.935 1.875-.87.448-1.98.673-3.332.673h-4.773v-1.909h4.704c.932 0 1.682-.137 2.25-.409.574-.273.989-.659 1.245-1.159.261-.506.392-1.108.392-1.807 0-.699-.13-1.31-.392-1.833-.262-.522-.68-.926-1.253-1.21-.574-.29-1.332-.435-2.276-.435H63.93V139h-2.113zm8.216-7.841L74.328 139h-2.454l-4.228-7.841h2.387zm9.249-9.614V139h-2.114v-17.455h2.114zm18.079 0V139h-2.046l-9.511-13.705h-.17V139H83.52v-17.455h2.045l9.546 13.739h.17v-13.739h2.08zm3.275 1.875v-1.875h13.091v1.875h-5.489V139h-2.114v-15.58h-5.488zM123.739 139v-17.455h5.897c1.37 0 2.489.248 3.358.742.875.489 1.523 1.151 1.944 1.986.42.835.63 1.767.63 2.795 0 1.029-.21 1.963-.63 2.804-.415.841-1.057 1.512-1.927 2.012-.869.494-1.983.741-3.341.741h-4.227v-1.875h4.159c.938 0 1.691-.162 2.259-.486.568-.324.98-.761 1.236-1.312.261-.557.392-1.185.392-1.884 0-.699-.131-1.324-.392-1.875-.256-.551-.671-.983-1.245-1.295-.574-.318-1.335-.478-2.284-.478h-3.716V139h-2.113zm15.234 0v-17.455h5.898c1.363 0 2.483.233 3.358.699.875.461 1.522 1.094 1.943 1.901.42.807.631 1.724.631 2.753 0 1.028-.211 1.94-.631 2.736-.421.795-1.065 1.42-1.935 1.875-.869.448-1.98.673-3.332.673h-4.773v-1.909h4.705c.931 0 1.681-.137 2.25-.409.574-.273.988-.659 1.244-1.159.261-.506.392-1.108.392-1.807 0-.699-.131-1.31-.392-1.833-.261-.522-.679-.926-1.253-1.21-.574-.29-1.332-.435-2.275-.435h-3.716V139h-2.114zm8.216-7.841l4.295 7.841h-2.454l-4.227-7.841h2.386zm14.601-9.614l5.182 14.694h.205l5.182-14.694h2.216L168.165 139h-2.181l-6.409-17.455h2.215zM176.509 139h-2.216l6.409-17.455h2.182L189.293 139h-2.216l-5.215-14.693h-.137L176.509 139zm.818-6.818h8.932v1.875h-8.932v-1.875zM192.012 139v-17.455h2.114v15.58h8.113V139h-10.227zm24.955-17.455h2.113v11.557c0 1.193-.281 2.259-.843 3.196-.557.932-1.344 1.668-2.361 2.208-1.017.534-2.211.801-3.58.801-1.369 0-2.562-.267-3.579-.801-1.017-.54-1.807-1.276-2.37-2.208-.557-.937-.835-2.003-.835-3.196v-11.557h2.114v11.387c0 .852.187 1.611.562 2.275a4.037 4.037 0 001.602 1.56c.699.375 1.535.563 2.506.563.972 0 1.807-.188 2.506-.563a3.961 3.961 0 001.602-1.56c.375-.664.563-1.423.563-2.275v-11.387zM223.301 139v-17.455h10.534v1.875h-8.42v5.898h7.875v1.875h-7.875v5.932h8.557V139h-10.671zM102.81 168.239c-1.125 0-2.128-.194-3.008-.58-.876-.386-1.572-.923-2.089-1.611-.51-.693-.79-1.497-.835-2.412h2.148c.045.563.239 1.049.58 1.458.34.403.786.716 1.338.937a4.858 4.858 0 001.832.333c.75 0 1.415-.131 1.994-.392.58-.262 1.034-.625 1.364-1.091.329-.466.494-1.006.494-1.62 0-.642-.159-1.207-.477-1.696-.318-.494-.784-.88-1.398-1.159-.613-.278-1.363-.417-2.25-.417h-1.398v-1.875h1.398c.693 0 1.301-.125 1.824-.375a2.94 2.94 0 001.236-1.057c.301-.455.452-.989.452-1.602 0-.591-.131-1.106-.392-1.543a2.689 2.689 0 00-1.108-1.023c-.472-.244-1.029-.366-1.671-.366-.602 0-1.17.111-1.704.332a3.169 3.169 0 00-1.296.946c-.335.409-.517.904-.545 1.483h-2.046c.034-.915.31-1.716.827-2.403.517-.694 1.193-1.233 2.028-1.62.841-.386 1.765-.579 2.77-.579 1.08 0 2.006.219 2.779.656.772.432 1.366 1.003 1.781 1.713.415.71.622 1.477.622 2.301 0 .983-.259 1.821-.776 2.514-.511.694-1.207 1.174-2.088 1.441v.136c1.103.182 1.963.651 2.583 1.406.619.75.929 1.679.929 2.787 0 .949-.259 1.801-.776 2.557-.511.75-1.21 1.341-2.096 1.773-.887.432-1.895.648-3.026.648zm15.179 0a6.56 6.56 0 01-2.148-.409c-.716-.262-1.369-.702-1.96-1.321-.591-.625-1.065-1.469-1.423-2.532-.358-1.068-.537-2.409-.537-4.022 0-1.546.145-2.915.434-4.108.29-1.199.711-2.208 1.262-3.026.551-.824 1.216-1.449 1.994-1.875.784-.426 1.668-.639 2.651-.639.977 0 1.846.196 2.608.588a4.972 4.972 0 011.875 1.619c.483.693.795 1.492.937 2.395h-2.079c-.194-.784-.569-1.435-1.125-1.952-.557-.517-1.296-.775-2.216-.775-1.353 0-2.418.588-3.196 1.764-.773 1.176-1.162 2.827-1.168 4.952h.136a5.14 5.14 0 012.6-2.037 5.068 5.068 0 011.696-.281c1 0 1.915.25 2.744.75a5.536 5.536 0 011.995 2.054c.5.869.75 1.866.75 2.991 0 1.08-.242 2.068-.725 2.966a5.523 5.523 0 01-2.037 2.131c-.869.522-1.892.778-3.068.767zm0-1.875c.716 0 1.358-.179 1.926-.537a3.83 3.83 0 001.355-1.441 4.064 4.064 0 00.503-2.011c0-.722-.162-1.378-.486-1.969a3.701 3.701 0 00-1.321-1.423c-.557-.352-1.193-.528-1.909-.528-.54 0-1.042.107-1.508.323-.466.211-.875.5-1.228.87a4.2 4.2 0 00-.818 1.27 3.791 3.791 0 00-.298 1.491c0 .693.162 1.341.486 1.943a3.996 3.996 0 001.346 1.458 3.533 3.533 0 001.952.554zm15.317-15.819V168h-2.113v-15.239h-.102l-4.262 2.83v-2.148l4.364-2.898h2.113zm7.023 15.069l-.136.92a18.643 18.643 0 01-.443 2.08 40.636 40.636 0 01-.605 2.088 66.438 66.438 0 01-.52 1.559h-1.534l.289-1.44c.12-.597.239-1.264.358-2.003.125-.733.228-1.483.307-2.25l.102-.954h2.182zm3.887 2.386l7.806-15.443v-.137h-9v-1.875h11.182v1.978L146.431 168h-2.215zm13.165 0v-1.534l5.761-6.307a40.279 40.279 0 001.671-1.926c.437-.551.761-1.068.971-1.551.216-.489.324-1 .324-1.534 0-.614-.147-1.145-.443-1.594a2.878 2.878 0 00-1.193-1.04 3.874 3.874 0 00-1.705-.366c-.67 0-1.255.139-1.755.417a2.878 2.878 0 00-1.151 1.151c-.267.494-.4 1.074-.4 1.739h-2.012c0-1.023.236-1.921.708-2.694a4.905 4.905 0 011.926-1.806c.818-.432 1.736-.648 2.753-.648 1.022 0 1.929.216 2.718.648a4.864 4.864 0 011.858 1.747 4.59 4.59 0 01.674 2.446 5.26 5.26 0 01-.35 1.883c-.227.608-.625 1.287-1.193 2.037-.563.744-1.344 1.654-2.344 2.727l-3.92 4.194v.136h8.113V168h-11.011zm20.122.239c-1.17 0-2.204-.208-3.102-.623-.892-.42-1.588-.997-2.088-1.73-.5-.738-.747-1.579-.742-2.522a4.657 4.657 0 01.435-2.046 4.457 4.457 0 011.21-1.577 3.703 3.703 0 011.73-.809v-.102a3.369 3.369 0 01-1.994-1.407c-.494-.727-.739-1.554-.733-2.48-.006-.886.219-1.679.673-2.378.455-.699 1.08-1.25 1.875-1.653.802-.403 1.713-.605 2.736-.605 1.012 0 1.915.202 2.71.605.796.403 1.421.954 1.875 1.653.461.699.694 1.492.699 2.378-.005.926-.258 1.753-.758 2.48-.495.722-1.151 1.191-1.969 1.407v.102a3.592 3.592 0 011.705.809 4.6 4.6 0 011.21 1.577c.301.625.454 1.307.46 2.046-.006.943-.261 1.784-.767 2.522-.5.733-1.196 1.31-2.088 1.73-.886.415-1.912.623-3.077.623zm0-1.875c.79 0 1.472-.128 2.046-.384.574-.256 1.017-.616 1.329-1.082.313-.466.472-1.012.477-1.637-.005-.659-.176-1.241-.511-1.747a3.478 3.478 0 00-1.372-1.193c-.574-.29-1.23-.435-1.969-.435-.744 0-1.409.145-1.994.435a3.47 3.47 0 00-1.372 1.193c-.33.506-.492 1.088-.486 1.747-.006.625.145 1.171.452 1.637.312.466.758.826 1.338 1.082.579.256 1.267.384 2.062.384zm0-8.284c.625 0 1.179-.125 1.662-.375.489-.25.872-.6 1.151-1.049.278-.449.42-.974.426-1.576-.006-.591-.145-1.106-.418-1.543a2.713 2.713 0 00-1.133-1.023c-.483-.244-1.046-.366-1.688-.366-.653 0-1.224.122-1.713.366-.489.239-.866.58-1.133 1.023-.267.437-.398.952-.392 1.543-.006.602.127 1.127.4 1.576.279.449.662.799 1.151 1.049.488.25 1.051.375 1.687.375z" fill="#fff"/><circle cx="561" cy="140" r="140" fill="#1191D0"/></svg>