<svg width="728" height="519" viewBox="0 0 728 519" fill="none" xmlns="http://www.w3.org/2000/svg"><path d="M47.619 294.776c30-51.866 100.952-183.171 125.307-183.171 48.879 0 64.61-22.733 96.002-22.733 31.393 0 63.273 114.431 106.786 114.431 43.514 0 63.677-122.008 107.373-122.008 42.086 0 99.67 77.325 141.161 83.022 3.102.426 6.232-.071 9.305-.672 54.425-10.631 85.971 25.513 85.971 25.513" stroke="#FFA800" stroke-width="4" stroke-linecap="round"/><path fill-rule="evenodd" clip-rule="evenodd" d="M45.54 293c50.96-66.5 71.96-147 127.386-181.395 48.879 0 64.61-22.733 96.002-22.733 31.393 0 65.177 116.317 108.691 116.317 43.513 0 61.772-123.894 105.468-123.894 43.695 0 104.098 83.353 145.849 83.353C690 151.5 724.938 190.5 724.938 190.5v275.434H45.539s-.29-160.196 0-172.934z" fill="url(#paint0_linear_224_98)"/><ellipse cx="720.273" cy="189.477" rx="6.939" ry="6.448" fill="#FFA800"/><ellipse cx="630.336" cy="163.519" rx="6.939" ry="6.448" fill="#FFA800"/><ellipse cx="484.487" cy="80.166" rx="6.939" ry="6.448" fill="#FFA800"/><ellipse cx="377.416" cy="202.679" rx="6.939" ry="6.448" fill="#FFA800"/><ellipse cx="270.329" cy="87.743" rx="6.939" ry="6.448" fill="#FFA800"/><ellipse cx="174.326" cy="110.476" rx="6.939" ry="6.448" fill="#FFA800"/><ellipse cx="46.94" cy="294.152" rx="6.939" ry="6.448" fill="#FFA800"/><path d="M1.205 15v-1.023l3.84-4.204c.451-.493.822-.92 1.114-1.284a4.75 4.75 0 00.648-1.034c.144-.326.216-.667.216-1.023 0-.41-.099-.763-.296-1.063a1.917 1.917 0 00-.795-.693 2.579 2.579 0 00-1.137-.244c-.447 0-.837.093-1.17.278a1.92 1.92 0 00-.767.767c-.178.33-.267.716-.267 1.16H1.25c0-.682.157-1.28.472-1.796a3.277 3.277 0 011.284-1.205c.545-.288 1.157-.431 1.835-.431.682 0 1.286.143 1.812.431.527.288.94.676 1.24 1.165.298.489.448 1.032.448 1.63 0 .429-.078.847-.233 1.256-.152.406-.417.858-.796 1.358-.375.497-.895 1.103-1.562 1.819l-2.614 2.795v.091h5.41V15H1.204zm13.323.16c-.666 0-1.267-.133-1.8-.399a3.346 3.346 0 01-1.285-1.09 2.972 2.972 0 01-.528-1.58h1.363c.053.526.292.962.716 1.307.428.34.94.511 1.534.511a2.42 2.42 0 001.273-.335 2.36 2.36 0 00.88-.92c.217-.395.325-.84.325-1.336 0-.507-.112-.96-.335-1.358a2.46 2.46 0 00-.91-.949 2.569 2.569 0 00-1.323-.352 3.637 3.637 0 00-1.097.165c-.375.11-.684.252-.926.426l-1.318-.16.704-5.726h6.046v1.25h-4.864l-.41 3.431h.069c.239-.189.538-.346.898-.471s.735-.188 1.125-.188c.712 0 1.346.17 1.903.512.56.337 1 .799 1.318 1.386.322.587.483 1.258.483 2.011 0 .743-.166 1.406-.5 1.99a3.655 3.655 0 01-1.363 1.374c-.58.333-1.239.5-1.978.5zm9.894 0c-.856 0-1.585-.234-2.188-.7-.602-.47-1.062-1.15-1.38-2.04-.319-.893-.478-1.973-.478-3.238 0-1.258.16-2.332.478-3.222.322-.894.784-1.576 1.386-2.045.606-.474 1.333-.71 2.182-.71.848 0 1.574.236 2.176.71.606.47 1.068 1.151 1.386 2.045.322.89.483 1.964.483 3.222 0 1.265-.159 2.345-.477 3.239-.318.89-.778 1.57-1.38 2.04-.603.465-1.332.698-2.188.698zm0-1.25c.848 0 1.508-.41 1.977-1.228.47-.818.705-1.985.705-3.5 0-1.008-.108-1.866-.324-2.574-.212-.708-.52-1.248-.92-1.62a2.032 2.032 0 00-1.438-.556c-.841 0-1.498.415-1.972 1.244-.473.826-.71 1.994-.71 3.506 0 1.007.106 1.864.318 2.568.212.704.517 1.24.915 1.608.402.367.885.551 1.449.551zM1.205 105v-1.023l3.84-4.204c.451-.493.822-.92 1.114-1.284.292-.368.508-.713.648-1.035.144-.325.216-.666.216-1.022 0-.41-.099-.763-.296-1.063a1.917 1.917 0 00-.795-.693 2.58 2.58 0 00-1.137-.244c-.447 0-.837.093-1.17.278a1.92 1.92 0 00-.767.767c-.178.33-.267.716-.267 1.16H1.25c0-.683.157-1.28.472-1.796a3.276 3.276 0 011.284-1.205 3.87 3.87 0 011.835-.431c.682 0 1.286.144 1.812.431.527.288.94.677 1.24 1.165.298.489.448 1.032.448 1.63 0 .429-.078.847-.233 1.257-.152.405-.417.858-.796 1.358a24.226 24.226 0 01-1.562 1.818l-2.614 2.795v.091h5.41V105H1.204zm13.482.159c-.856 0-1.585-.233-2.187-.699-.602-.469-1.063-1.149-1.38-2.04-.319-.893-.478-1.973-.478-3.238 0-1.258.16-2.332.477-3.222.322-.894.784-1.575 1.387-2.045.606-.474 1.333-.71 2.181-.71.849 0 1.574.236 2.177.71.606.47 1.068 1.151 1.386 2.045.322.89.483 1.964.483 3.222 0 1.265-.16 2.345-.477 3.238-.319.891-.779 1.571-1.381 2.04-.602.466-1.331.699-2.188.699zm0-1.25c.849 0 1.508-.409 1.978-1.227.47-.818.704-1.985.704-3.5 0-1.008-.108-1.866-.323-2.574-.213-.708-.52-1.248-.921-1.62a2.032 2.032 0 00-1.438-.556c-.84 0-1.498.415-1.971 1.244-.474.826-.71 1.995-.71 3.506 0 1.007.106 1.863.318 2.568.212.705.517 1.241.915 1.608a2.07 2.07 0 001.448.551zm9.841 1.25c-.666 0-1.267-.132-1.8-.398a3.337 3.337 0 01-1.285-1.091 2.97 2.97 0 01-.528-1.579h1.363c.053.526.292.962.716 1.307.428.341.94.511 1.534.511.478 0 .902-.112 1.273-.335.375-.224.669-.53.88-.921a2.72 2.72 0 00.325-1.335c0-.507-.112-.96-.335-1.358a2.46 2.46 0 00-.91-.949 2.569 2.569 0 00-1.323-.352 3.634 3.634 0 00-1.097.165c-.375.11-.684.252-.926.426l-1.318-.16.704-5.726h6.046v1.25h-4.864l-.41 3.431h.069c.239-.189.538-.346.898-.471s.735-.188 1.125-.188c.712 0 1.346.17 1.903.512.56.337 1 .799 1.318 1.386.322.587.483 1.258.483 2.011 0 .743-.166 1.406-.5 1.989a3.65 3.65 0 01-1.363 1.375c-.58.333-1.239.5-1.978.5zM7.295 272.364V284H5.886v-10.159h-.068l-2.84 1.886v-1.432l2.908-1.931h1.41zm7.143 11.795c-.857 0-1.586-.233-2.188-.699-.602-.469-1.063-1.149-1.38-2.04-.319-.893-.478-1.973-.478-3.238 0-1.258.16-2.332.477-3.222.322-.894.784-1.576 1.387-2.045.606-.474 1.333-.71 2.181-.71.849 0 1.574.236 2.177.71.606.469 1.068 1.151 1.386 2.045.322.89.483 1.964.483 3.222 0 1.265-.16 2.345-.477 3.238-.319.891-.779 1.571-1.381 2.04-.602.466-1.331.699-2.188.699zm0-1.25c.848 0 1.507-.409 1.977-1.227.47-.818.704-1.985.704-3.5 0-1.008-.108-1.866-.323-2.574-.213-.708-.52-1.248-.921-1.619a2.029 2.029 0 00-1.438-.557c-.84 0-1.498.415-1.971 1.244-.474.826-.71 1.994-.71 3.506 0 1.007.106 1.863.318 2.568.212.705.517 1.241.915 1.608a2.07 2.07 0 001.448.551zm10 1.25c-.857 0-1.586-.233-2.188-.699-.602-.469-1.063-1.149-1.38-2.04-.319-.893-.478-1.973-.478-3.238 0-1.258.16-2.332.477-3.222.322-.894.784-1.576 1.387-2.045.606-.474 1.333-.71 2.181-.71.849 0 1.574.236 2.177.71.606.469 1.068 1.151 1.386 2.045.322.89.483 1.964.483 3.222 0 1.265-.16 2.345-.477 3.238-.319.891-.779 1.571-1.381 2.04-.602.466-1.331.699-2.188.699zm0-1.25c.848 0 1.507-.409 1.977-1.227.47-.818.704-1.985.704-3.5 0-1.008-.108-1.866-.323-2.574-.213-.708-.52-1.248-.921-1.619a2.029 2.029 0 00-1.438-.557c-.84 0-1.498.415-1.971 1.244-.474.826-.71 1.994-.71 3.506 0 1.007.106 1.863.318 2.568.212.705.517 1.241.915 1.608a2.07 2.07 0 001.448.551zM7.295 182.364V194H5.886v-10.159h-.068l-2.84 1.886v-1.432l2.908-1.931h1.41zm6.983 11.795c-.666 0-1.267-.132-1.8-.398a3.337 3.337 0 01-1.285-1.091 2.97 2.97 0 01-.528-1.579h1.363c.053.526.292.962.716 1.307.428.341.94.511 1.534.511.478 0 .902-.112 1.273-.335.375-.224.669-.53.88-.921a2.72 2.72 0 00.325-1.335c0-.507-.112-.96-.335-1.358a2.464 2.464 0 00-.91-.949 2.571 2.571 0 00-1.323-.352 3.619 3.619 0 00-1.097.165c-.375.11-.684.252-.926.426l-1.318-.159.704-5.727h6.046v1.25h-4.864l-.41 3.431h.069c.239-.189.538-.346.898-.471s.735-.188 1.125-.188c.712 0 1.346.171 1.903.512.56.337 1 .799 1.318 1.386.322.587.483 1.258.483 2.011 0 .743-.166 1.406-.5 1.989a3.65 3.65 0 01-1.363 1.375c-.58.333-1.239.5-1.978.5zm9.894 0c-.856 0-1.585-.233-2.188-.699-.602-.469-1.062-1.149-1.38-2.04-.319-.893-.478-1.973-.478-3.238 0-1.258.16-2.332.478-3.222.322-.894.784-1.576 1.386-2.045.606-.474 1.333-.71 2.182-.71.848 0 1.574.236 2.176.71.606.469 1.068 1.151 1.386 2.045.322.89.483 1.964.483 3.222 0 1.265-.159 2.345-.477 3.238-.318.891-.778 1.571-1.38 2.04-.603.466-1.332.699-2.188.699zm0-1.25c.848 0 1.508-.409 1.977-1.227.47-.818.705-1.985.705-3.5 0-1.008-.108-1.866-.324-2.574-.212-.708-.52-1.248-.92-1.619a2.029 2.029 0 00-1.438-.557c-.841 0-1.498.415-1.972 1.244-.473.826-.71 1.994-.71 3.506 0 1.007.106 1.863.318 2.568.212.705.517 1.241.915 1.608.402.367.885.551 1.449.551zM14.84 374.263c-.666 0-1.266-.132-1.8-.398a3.343 3.343 0 01-1.284-1.09 2.975 2.975 0 01-.529-1.58h1.364c.053.527.292.962.716 1.307.428.341.94.511 1.534.511.477 0 .901-.112 1.273-.335a2.36 2.36 0 00.88-.92c.216-.394.324-.839.324-1.336 0-.507-.112-.96-.335-1.358a2.471 2.471 0 00-.91-.949 2.571 2.571 0 00-1.323-.352 3.619 3.619 0 00-1.097.165c-.375.11-.683.252-.926.426l-1.318-.159.705-5.727h6.045v1.25h-4.863l-.41 3.432h.069c.238-.19.537-.347.897-.472s.735-.188 1.125-.188c.712 0 1.347.171 1.904.512.56.337 1 .799 1.318 1.386.322.587.483 1.258.483 2.012 0 .742-.167 1.405-.5 1.988a3.65 3.65 0 01-1.364 1.375c-.58.334-1.239.5-1.977.5zm9.826 0c-.78 0-1.47-.138-2.068-.415-.595-.28-1.059-.664-1.392-1.153a2.897 2.897 0 01-.494-1.682 3.092 3.092 0 011.096-2.415c.345-.284.73-.464 1.154-.539v-.069c-.557-.143-1-.456-1.33-.937a2.84 2.84 0 01-.489-1.653 2.812 2.812 0 01.45-1.586 3.16 3.16 0 011.25-1.102c.533-.269 1.141-.403 1.823-.403.674 0 1.277.134 1.807.403s.947.636 1.25 1.102c.307.466.462.995.466 1.586a2.881 2.881 0 01-.506 1.653 2.24 2.24 0 01-1.312.937v.069c.42.075.799.255 1.136.539.337.281.606.631.807 1.052.2.416.303.871.307 1.363a2.938 2.938 0 01-.512 1.682c-.333.489-.797.873-1.392 1.153-.59.277-1.274.415-2.05.415zm0-1.25c.527 0 .981-.085 1.364-.255.382-.171.678-.411.886-.722.209-.311.315-.674.318-1.091a2.095 2.095 0 00-.34-1.165 2.311 2.311 0 00-.915-.795 2.875 2.875 0 00-1.313-.29c-.496 0-.94.097-1.33.29a2.312 2.312 0 00-.914.795 2.05 2.05 0 00-.324 1.165c-.004.417.097.78.301 1.091.209.311.506.551.892.722.387.17.845.255 1.375.255zm0-5.523c.417 0 .786-.083 1.108-.25.326-.166.582-.399.767-.698.186-.3.28-.65.284-1.052a1.942 1.942 0 00-.278-1.028 1.809 1.809 0 00-.756-.682c-.322-.163-.697-.244-1.125-.244-.435 0-.816.081-1.142.244a1.765 1.765 0 00-.756.682 1.9 1.9 0 00-.26 1.028c-.005.402.084.752.266 1.052.186.299.441.532.767.698.326.167.701.25 1.125.25zM25 464.098c-.856 0-1.585-.233-2.188-.699-.602-.469-1.062-1.149-1.38-2.039-.318-.894-.477-1.974-.477-3.239 0-1.258.159-2.331.477-3.222.322-.894.784-1.575 1.386-2.045.606-.474 1.333-.71 2.182-.71s1.574.236 2.176.71c.606.47 1.068 1.151 1.387 2.045.322.891.483 1.964.483 3.222 0 1.265-.16 2.345-.478 3.239-.318.89-.778 1.57-1.38 2.039-.603.466-1.332.699-2.188.699zm0-1.25c.849 0 1.508-.409 1.977-1.227.47-.818.705-1.985.705-3.5 0-1.008-.108-1.866-.324-2.574-.212-.708-.519-1.248-.92-1.619a2.033 2.033 0 00-1.438-.557c-.84 0-1.498.415-1.972 1.244-.473.826-.71 1.995-.71 3.506 0 1.008.106 1.864.318 2.568.213.705.517 1.241.915 1.608a2.07 2.07 0 001.449.551zm47.619 51.616c-.856 0-1.585-.233-2.188-.699-.602-.47-1.062-1.149-1.38-2.04-.318-.894-.477-1.973-.477-3.238 0-1.258.159-2.332.477-3.222.322-.894.784-1.576 1.386-2.045.606-.474 1.334-.711 2.182-.711.849 0 1.574.237 2.176.711.606.469 1.068 1.151 1.386 2.045.323.89.484 1.964.484 3.222 0 1.265-.16 2.344-.478 3.238-.318.891-.778 1.57-1.38 2.04-.603.466-1.332.699-2.188.699zm0-1.25c.849 0 1.508-.409 1.977-1.227.47-.818.705-1.985.705-3.5 0-1.008-.108-1.866-.324-2.574-.212-.708-.519-1.248-.92-1.619a2.029 2.029 0 00-1.438-.557c-.84 0-1.498.415-1.972 1.244-.473.826-.71 1.994-.71 3.506 0 1.007.106 1.863.318 2.568.213.704.517 1.24.915 1.608.402.367.885.551 1.449.551zm61.295-10.85V514h-1.409v-10.159h-.068l-2.841 1.886v-1.432l2.909-1.931h1.409zm7.143 11.795c-.857 0-1.586-.233-2.188-.699-.602-.469-1.062-1.149-1.381-2.04-.318-.893-.477-1.973-.477-3.238 0-1.258.159-2.332.477-3.222.322-.894.784-1.576 1.387-2.045.606-.474 1.333-.71 2.182-.71.848 0 1.573.236 2.176.71.606.469 1.068 1.151 1.386 2.045.322.89.483 1.964.483 3.222 0 1.265-.159 2.345-.477 3.238-.318.891-.779 1.571-1.381 2.04-.602.466-1.331.699-2.187.699zm0-1.25c.848 0 1.507-.409 1.977-1.227.469-.818.704-1.985.704-3.5 0-1.008-.108-1.866-.324-2.574-.212-.708-.518-1.248-.92-1.619a2.029 2.029 0 00-1.437-.557c-.841 0-1.499.415-1.972 1.244-.474.826-.71 1.994-.71 3.506 0 1.007.106 1.863.318 2.568.212.705.517 1.241.915 1.608.401.367.884.551 1.449.551zM198.824 514v-1.023l3.84-4.204c.451-.493.822-.921 1.114-1.284a4.75 4.75 0 00.648-1.034c.144-.326.216-.667.216-1.023 0-.409-.099-.763-.296-1.063a1.917 1.917 0 00-.795-.693 2.578 2.578 0 00-1.137-.244c-.446 0-.837.093-1.17.278a1.92 1.92 0 00-.767.767c-.178.33-.267.716-.267 1.159h-1.341c0-.681.157-1.28.472-1.795a3.275 3.275 0 011.284-1.205c.545-.288 1.157-.431 1.835-.431.682 0 1.286.143 1.812.431.527.288.94.676 1.239 1.165.299.489.449 1.032.449 1.631 0 .428-.078.846-.233 1.256-.152.405-.417.857-.795 1.357-.375.497-.896 1.103-1.563 1.819l-2.614 2.795v.091h5.409V514h-7.34zm13.483.159c-.857 0-1.586-.233-2.188-.699-.602-.469-1.062-1.149-1.381-2.04-.318-.893-.477-1.973-.477-3.238 0-1.258.159-2.332.477-3.222.322-.894.784-1.576 1.387-2.045.606-.474 1.333-.71 2.182-.71.848 0 1.573.236 2.176.71.606.469 1.068 1.151 1.386 2.045.322.89.483 1.964.483 3.222 0 1.265-.159 2.345-.477 3.238-.318.891-.779 1.571-1.381 2.04-.602.466-1.331.699-2.187.699zm0-1.25c.848 0 1.507-.409 1.977-1.227.469-.818.704-1.985.704-3.5 0-1.008-.108-1.866-.324-2.574-.212-.708-.518-1.248-.92-1.619a2.029 2.029 0 00-1.437-.557c-.841 0-1.499.415-1.972 1.244-.474.826-.71 1.994-.71 3.506 0 1.007.106 1.863.318 2.568.212.705.517 1.241.915 1.608.401.367.884.551 1.449.551zm61.448 1.25c-.75 0-1.418-.129-2.005-.386-.584-.258-1.048-.616-1.392-1.074a2.883 2.883 0 01-.557-1.608h1.432c.03.375.159.699.386.971.227.269.525.478.892.626.367.147.775.221 1.222.221.5 0 .943-.087 1.329-.261.387-.175.69-.417.909-.728.22-.31.33-.67.33-1.079 0-.428-.106-.805-.318-1.131-.212-.329-.523-.587-.932-.772-.409-.186-.909-.279-1.5-.279h-.932v-1.25h.932c.462 0 .867-.083 1.216-.25.352-.167.627-.401.824-.704.2-.303.301-.66.301-1.069a1.96 1.96 0 00-.262-1.028 1.785 1.785 0 00-.738-.682c-.315-.163-.686-.244-1.114-.244-.401 0-.78.074-1.136.221-.353.144-.64.355-.864.631a1.646 1.646 0 00-.364.989h-1.363c.023-.61.206-1.144.551-1.603a3.464 3.464 0 011.352-1.079 4.364 4.364 0 011.847-.386c.72 0 1.337.145 1.852.437a3.09 3.09 0 011.188 1.142c.276.474.414.985.414 1.534 0 .655-.172 1.214-.517 1.676a2.623 2.623 0 01-1.392.961v.09c.735.122 1.309.434 1.722.938.413.5.619 1.119.619 1.858 0 .632-.172 1.201-.517 1.704-.341.5-.807.894-1.398 1.182-.59.288-1.263.432-2.017.432zm10.052 0c-.857 0-1.586-.233-2.188-.699-.602-.469-1.062-1.149-1.381-2.04-.318-.893-.477-1.973-.477-3.238 0-1.258.159-2.332.477-3.222.322-.894.784-1.576 1.387-2.045.606-.474 1.333-.71 2.182-.71.848 0 1.573.236 2.176.71.606.469 1.068 1.151 1.386 2.045.322.89.483 1.964.483 3.222 0 1.265-.159 2.345-.477 3.238-.318.891-.779 1.571-1.381 2.04-.602.466-1.331.699-2.187.699zm0-1.25c.848 0 1.507-.409 1.977-1.227.469-.818.704-1.985.704-3.5 0-1.008-.108-1.866-.324-2.574-.212-.708-.518-1.248-.92-1.619a2.029 2.029 0 00-1.437-.557c-.841 0-1.499.415-1.972 1.244-.474.826-.71 1.994-.71 3.506 0 1.007.106 1.863.318 2.568.212.705.517 1.241.915 1.608.401.367.884.551 1.449.551zm57.744-1.295v-1.159l5.113-8.091h.841v1.795h-.568l-3.863 6.114v.091h6.886v1.25h-8.409zm5.477 2.386v-11.636h1.341V514h-1.341zm8.857.159c-.856 0-1.586-.233-2.188-.699-.602-.469-1.062-1.149-1.381-2.04-.318-.893-.477-1.973-.477-3.238 0-1.258.159-2.332.477-3.222.322-.894.785-1.576 1.387-2.045.606-.474 1.333-.71 2.182-.71.848 0 1.574.236 2.176.71.606.469 1.068 1.151 1.386 2.045.322.89.483 1.964.483 3.222 0 1.265-.159 2.345-.477 3.238-.318.891-.779 1.571-1.381 2.04-.602.466-1.331.699-2.187.699zm0-1.25c.848 0 1.507-.409 1.977-1.227.47-.818.704-1.985.704-3.5 0-1.008-.107-1.866-.323-2.574-.213-.708-.519-1.248-.921-1.619a2.029 2.029 0 00-1.437-.557c-.841 0-1.498.415-1.972 1.244-.473.826-.71 1.994-.71 3.506 0 1.007.106 1.863.318 2.568.212.705.517 1.241.915 1.608.401.367.884.551 1.449.551zm61.575 1.25c-.667 0-1.267-.132-1.801-.398a3.337 3.337 0 01-1.284-1.091 2.976 2.976 0 01-.529-1.579h1.364c.053.526.292.962.716 1.307.428.341.939.511 1.534.511.477 0 .901-.112 1.273-.335.375-.224.668-.53.88-.921a2.73 2.73 0 00.324-1.335c0-.507-.112-.96-.335-1.358a2.468 2.468 0 00-.909-.949 2.571 2.571 0 00-1.324-.352 3.622 3.622 0 00-1.097.165c-.375.11-.683.252-.926.426l-1.318-.159.705-5.727h6.045v1.25h-4.864l-.409 3.431h.069c.238-.189.537-.346.897-.471s.735-.188 1.125-.188c.712 0 1.347.171 1.904.512.56.337 1 .799 1.318 1.386.322.587.483 1.258.483 2.011 0 .743-.167 1.406-.5 1.989a3.652 3.652 0 01-1.364 1.375c-.579.333-1.238.5-1.977.5zm9.893 0c-.856 0-1.585-.233-2.187-.699-.602-.469-1.063-1.149-1.381-2.04-.318-.893-.477-1.973-.477-3.238 0-1.258.159-2.332.477-3.222.322-.894.784-1.576 1.387-2.045.606-.474 1.333-.71 2.181-.71.849 0 1.574.236 2.177.71.606.469 1.068 1.151 1.386 2.045.322.89.483 1.964.483 3.222 0 1.265-.159 2.345-.477 3.238-.319.891-.779 1.571-1.381 2.04-.602.466-1.332.699-2.188.699zm0-1.25c.849 0 1.508-.409 1.978-1.227.469-.818.704-1.985.704-3.5 0-1.008-.108-1.866-.324-2.574-.212-.708-.519-1.248-.92-1.619a2.03 2.03 0 00-1.438-.557c-.841 0-1.498.415-1.971 1.244-.474.826-.71 1.994-.71 3.506 0 1.007.106 1.863.318 2.568.212.705.517 1.241.915 1.608a2.07 2.07 0 001.448.551zm61.334 1.25a4.327 4.327 0 01-1.432-.273 3.423 3.423 0 01-1.306-.88c-.394-.417-.711-.979-.949-1.688-.239-.712-.358-1.606-.358-2.682 0-1.03.096-1.943.29-2.738.193-.8.473-1.472.84-2.017.368-.55.811-.966 1.33-1.25.523-.284 1.112-.426 1.767-.426.652 0 1.231.13 1.739.392.511.257.928.617 1.25 1.079.322.462.53.994.625 1.597h-1.387a2.555 2.555 0 00-.75-1.301c-.371-.345-.863-.517-1.477-.517-.901 0-1.612.392-2.131 1.176-.515.784-.774 1.884-.778 3.301h.091a3.407 3.407 0 012.863-1.546 3.48 3.48 0 011.83.5 3.7 3.7 0 011.33 1.37c.333.579.5 1.244.5 1.994 0 .72-.161 1.379-.483 1.977a3.685 3.685 0 01-1.358 1.421c-.58.348-1.262.519-2.046.511zm0-1.25c.477 0 .906-.119 1.284-.358.383-.239.684-.559.904-.96.223-.402.335-.849.335-1.341a2.68 2.68 0 00-.324-1.312 2.462 2.462 0 00-.881-.949 2.326 2.326 0 00-1.272-.353c-.36 0-.695.072-1.006.216-.311.14-.583.334-.818.58a2.807 2.807 0 00-.546.846 2.69 2.69 0 001.023 3.262c.383.246.816.369 1.301.369zm9.916 1.25c-.856 0-1.585-.233-2.187-.699-.602-.469-1.063-1.149-1.381-2.04-.318-.893-.477-1.973-.477-3.238 0-1.258.159-2.332.477-3.222.322-.894.784-1.576 1.387-2.045.606-.474 1.333-.71 2.181-.71.849 0 1.574.236 2.177.71.606.469 1.068 1.151 1.386 2.045.322.89.483 1.964.483 3.222 0 1.265-.159 2.345-.477 3.238-.319.891-.779 1.571-1.381 2.04-.602.466-1.332.699-2.188.699zm0-1.25c.849 0 1.508-.409 1.978-1.227.469-.818.704-1.985.704-3.5 0-1.008-.108-1.866-.324-2.574-.212-.708-.519-1.248-.92-1.619a2.03 2.03 0 00-1.438-.557c-.841 0-1.498.415-1.971 1.244-.474.826-.71 1.994-.71 3.506 0 1.007.106 1.863.318 2.568.212.705.517 1.241.915 1.608a2.07 2.07 0 001.448.551zM556.187 514l5.205-10.295v-.091h-6v-1.25h7.454v1.318L557.665 514h-1.478zm12.323.159c-.856 0-1.585-.233-2.188-.699-.602-.469-1.062-1.149-1.38-2.04-.319-.893-.478-1.973-.478-3.238 0-1.258.159-2.332.478-3.222.322-.894.784-1.576 1.386-2.045.606-.474 1.333-.71 2.182-.71.848 0 1.574.236 2.176.71.606.469 1.068 1.151 1.386 2.045.322.89.483 1.964.483 3.222 0 1.265-.159 2.345-.477 3.238-.318.891-.778 1.571-1.381 2.04-.602.466-1.331.699-2.187.699zm0-1.25c.848 0 1.507-.409 1.977-1.227.47-.818.705-1.985.705-3.5 0-1.008-.108-1.866-.324-2.574-.212-.708-.519-1.248-.921-1.619a2.027 2.027 0 00-1.437-.557c-.841 0-1.498.415-1.972 1.244-.473.826-.71 1.994-.71 3.506 0 1.007.106 1.863.318 2.568.212.705.517 1.241.915 1.608.401.367.884.551 1.449.551zm61.041 1.25c-.78 0-1.47-.138-2.068-.415-.595-.28-1.059-.664-1.392-1.153a2.9 2.9 0 01-.495-1.682 3.107 3.107 0 01.29-1.364c.197-.42.466-.77.807-1.051a2.465 2.465 0 011.153-.539v-.069c-.556-.144-1-.456-1.329-.937a2.836 2.836 0 01-.489-1.654 2.81 2.81 0 01.449-1.585c.303-.466.72-.833 1.25-1.102.534-.269 1.142-.403 1.824-.403.674 0 1.276.134 1.807.403.53.269.947.636 1.25 1.102.307.466.462.995.466 1.585a2.887 2.887 0 01-.506 1.654c-.33.481-.767.793-1.312.937v.069c.42.075.799.255 1.136.539a3.175 3.175 0 011.114 2.415 2.944 2.944 0 01-.512 1.682c-.333.489-.797.873-1.392 1.153-.591.277-1.275.415-2.051.415zm0-1.25c.526 0 .981-.085 1.364-.256a2.03 2.03 0 00.886-.721 1.95 1.95 0 00.318-1.091 2.092 2.092 0 00-.341-1.165 2.304 2.304 0 00-.915-.795 2.86 2.86 0 00-1.312-.29c-.496 0-.939.096-1.33.29a2.308 2.308 0 00-.914.795 2.05 2.05 0 00-.324 1.165 1.9 1.9 0 00.301 1.091c.208.31.506.551.892.721.386.171.845.256 1.375.256zm0-5.523c.417 0 .786-.083 1.108-.25.326-.166.581-.399.767-.698.186-.3.28-.65.284-1.052a1.949 1.949 0 00-.278-1.028 1.804 1.804 0 00-.756-.682c-.322-.163-.697-.244-1.125-.244-.436 0-.816.081-1.142.244a1.758 1.758 0 00-.756.682 1.896 1.896 0 00-.261 1.028c-.004.402.085.752.267 1.052.186.299.441.532.767.698.326.167.701.25 1.125.25zm9.928 6.773c-.857 0-1.586-.233-2.188-.699-.602-.469-1.062-1.149-1.381-2.04-.318-.893-.477-1.973-.477-3.238 0-1.258.159-2.332.477-3.222.322-.894.784-1.576 1.387-2.045.606-.474 1.333-.71 2.182-.71.848 0 1.573.236 2.176.71.606.469 1.068 1.151 1.386 2.045.322.89.483 1.964.483 3.222 0 1.265-.159 2.345-.477 3.238-.318.891-.779 1.571-1.381 2.04-.602.466-1.331.699-2.187.699zm0-1.25c.848 0 1.507-.409 1.977-1.227.469-.818.704-1.985.704-3.5 0-1.008-.108-1.866-.324-2.574-.212-.708-.518-1.248-.92-1.619a2.029 2.029 0 00-1.437-.557c-.841 0-1.499.415-1.972 1.244-.474.826-.71 1.994-.71 3.506 0 1.007.106 1.863.318 2.568.212.705.517 1.241.915 1.608.401.367.884.551 1.449.551zm61.049-10.704c.478.003.955.094 1.432.272.477.178.913.474 1.307.887.394.409.71.967.949 1.676.238.708.358 1.596.358 2.665 0 1.034-.099 1.952-.296 2.755-.193.799-.473 1.474-.841 2.023-.363.549-.806.966-1.329 1.25-.519.284-1.106.426-1.762.426-.651 0-1.233-.129-1.744-.386a3.437 3.437 0 01-1.25-1.085 3.78 3.78 0 01-.619-1.62h1.386c.125.534.373.976.744 1.324.375.345.87.517 1.483.517.898 0 1.606-.392 2.125-1.176.523-.784.785-1.892.785-3.324h-.091a3.584 3.584 0 01-.756.824 3.337 3.337 0 01-2.108.722 3.532 3.532 0 01-1.835-.495 3.758 3.758 0 01-1.33-1.369c-.329-.583-.494-1.25-.494-2 0-.712.159-1.364.477-1.955a3.696 3.696 0 011.352-1.42c.584-.352 1.269-.523 2.057-.511zm0 1.25c-.477 0-.907.119-1.29.357a2.59 2.59 0 00-.903.955c-.22.398-.329.839-.329 1.324 0 .485.106.926.318 1.324.216.394.509.708.88.943a2.39 2.39 0 001.279.347c.36 0 .695-.071 1.005-.211.311-.144.582-.339.813-.585.235-.25.419-.532.551-.847a2.55 2.55 0 00.199-.994c0-.454-.11-.881-.33-1.278a2.608 2.608 0 00-.897-.966 2.328 2.328 0 00-1.296-.369zm10.076 10.704c-.857 0-1.586-.233-2.188-.699-.602-.469-1.062-1.149-1.381-2.04-.318-.893-.477-1.973-.477-3.238 0-1.258.159-2.332.477-3.222.322-.894.784-1.576 1.387-2.045.606-.474 1.333-.71 2.182-.71.848 0 1.573.236 2.176.71.606.469 1.068 1.151 1.386 2.045.322.89.483 1.964.483 3.222 0 1.265-.159 2.345-.477 3.238-.318.891-.779 1.571-1.381 2.04-.602.466-1.331.699-2.187.699zm0-1.25c.848 0 1.507-.409 1.977-1.227.469-.818.704-1.985.704-3.5 0-1.008-.108-1.866-.324-2.574-.212-.708-.518-1.248-.92-1.619a2.029 2.029 0 00-1.437-.557c-.841 0-1.499.415-1.972 1.244-.474.826-.71 1.994-.71 3.506 0 1.007.106 1.863.318 2.568.212.705.517 1.241.915 1.608.401.367.884.551 1.449.551z" fill="#7B91B0"/><defs><linearGradient id="paint0_linear_224_98" x1="45.205" y1="67.748" x2="45.205" y2="694.851" gradientUnits="userSpaceOnUse"><stop stop-color="#FFC960"/><stop offset="1" stop-color="#fff" stop-opacity=".01"/></linearGradient></defs></svg>