<svg width="978" height="289" viewBox="0 0 978 289" fill="none" xmlns="http://www.w3.org/2000/svg"><path d="M56.978 181.262h919.225" stroke="#EFF1F3" stroke-width="1.671" stroke-linecap="round"/><path d="M6.62 67.454V82H4.857V69.301h-.085l-3.55 2.359v-1.79l3.636-2.415h1.761zM14.546 82.2c-1.07 0-1.982-.291-2.735-.874-.752-.587-1.328-1.437-1.725-2.55-.398-1.117-.597-2.466-.597-4.048 0-1.572.199-2.914.597-4.027.402-1.117.98-1.97 1.733-2.556.757-.592 1.666-.888 2.727-.888 1.06 0 1.967.296 2.72.888.758.587 1.335 1.439 1.733 2.556.402 1.113.604 2.455.604 4.027 0 1.582-.2 2.931-.597 4.049-.398 1.112-.973 1.962-1.726 2.55-.753.582-1.664.873-2.734.873zm0-1.563c1.06 0 1.884-.511 2.471-1.534.588-1.023.881-2.48.881-4.375 0-1.26-.135-2.332-.405-3.217-.265-.886-.648-1.56-1.15-2.024-.497-.464-1.096-.696-1.797-.696-1.051 0-1.873.518-2.465 1.555-.591 1.032-.887 2.493-.887 4.382 0 1.26.132 2.33.397 3.21.265.881.647 1.551 1.144 2.01.502.46 1.105.69 1.81.69zM6.62 13.902v14.545H4.857V15.748h-.085l-3.551 2.358v-1.79l3.636-2.414h1.761zm7.728 14.744c-.833 0-1.584-.166-2.251-.497a4.18 4.18 0 01-1.605-1.364 3.714 3.714 0 01-.661-1.974h1.705c.066.658.364 1.202.894 1.633.535.426 1.175.64 1.918.64.597 0 1.127-.14 1.59-.42.47-.279.837-.662 1.102-1.15.27-.492.405-1.049.405-1.67 0-.634-.14-1.2-.42-1.697a3.076 3.076 0 00-1.136-1.186c-.483-.288-1.034-.435-1.655-.44a4.546 4.546 0 00-1.37.206c-.47.137-.855.315-1.158.533l-1.648-.2.88-7.158h7.558v1.562h-6.08l-.511 4.29h.085a3.79 3.79 0 011.122-.59c.45-.156.919-.234 1.406-.234.89 0 1.684.213 2.38.64.7.42 1.25.998 1.648 1.732.402.734.603 1.572.603 2.515 0 .927-.208 1.756-.625 2.485a4.569 4.569 0 01-1.704 1.719c-.725.417-1.549.625-2.472.625zM6.051 136.199c-.833 0-1.584-.166-2.251-.497a4.184 4.184 0 01-1.605-1.364 3.716 3.716 0 01-.66-1.974h1.704c.066.658.364 1.202.895 1.633.535.426 1.174.639 1.917.639.597 0 1.127-.139 1.591-.419a2.958 2.958 0 001.1-1.15c.27-.493.406-1.049.406-1.669 0-.635-.14-1.201-.42-1.698a3.076 3.076 0 00-1.136-1.186c-.483-.289-1.034-.435-1.654-.44a4.539 4.539 0 00-1.371.206c-.469.137-.855.315-1.158.532l-1.648-.198.881-7.159H10.2v1.562H4.12l-.511 4.29h.085a3.806 3.806 0 011.122-.59c.45-.156.919-.234 1.407-.234.89 0 1.683.213 2.379.639.7.422 1.25.999 1.648 1.733.402.734.603 1.572.603 2.514 0 .928-.208 1.757-.625 2.486a4.57 4.57 0 01-1.704 1.719c-.725.417-1.549.625-2.472.625zm.199 52c-1.07 0-1.982-.291-2.734-.874-.753-.587-1.329-1.437-1.726-2.549-.398-1.118-.597-2.467-.597-4.049 0-1.572.199-2.914.597-4.027.402-1.117.98-1.969 1.733-2.557.757-.591 1.666-.887 2.727-.887 1.06 0 1.967.296 2.72.887.758.588 1.335 1.44 1.733 2.557.403 1.113.604 2.455.604 4.027 0 1.582-.199 2.931-.597 4.049-.398 1.112-.973 1.962-1.726 2.549-.752.583-1.664.874-2.734.874zm0-1.563c1.06 0 1.884-.511 2.472-1.534.587-1.022.88-2.481.88-4.375 0-1.259-.135-2.332-.405-3.217-.265-.885-.648-1.56-1.15-2.024-.497-.464-1.096-.696-1.797-.696-1.051 0-1.873.518-2.464 1.555-.592 1.032-.888 2.493-.888 4.382 0 1.26.132 2.33.397 3.211.266.88.647 1.55 1.144 2.009.502.46 1.106.689 1.811.689z" fill="#7B91B0"/><rect x="74" y="34" width="30" height="146" rx="3.343" fill="#55ACEF"/><rect x="107.741" y="46" width="30" height="133.577" rx="3.343" fill="#4867AA"/><rect x="142" y="87" width="30" height="93" rx="3.343" fill="#4EC125"/><rect x="281" y="69" width="30" height="111" rx="3.343" fill="#4EC125"/><rect x="411" y="69" width="30" height="111" rx="3.343" fill="#4EC125"/><rect x="536.862" y="99" width="30" height="81" rx="3.343" fill="#4EC125"/><rect x="798" y="117" width="30" height="63" rx="3.343" fill="#4EC125"/><rect x="931" y="82" width="30" height="98" rx="3.343" fill="#4EC125"/><rect x="212" width="30" height="180" rx="3.343" fill="#55ACEF"/><rect x="342" y="87" width="30" height="93" rx="3.343" fill="#55ACEF"/><rect x="468" y="47" width="30" height="133" rx="3.343" fill="#55ACEF"/><rect x="729" y="99" width="30" height="81" rx="3.343" fill="#55ACEF"/><rect x="862" y="99" width="30" height="81" rx="3.343" fill="#55ACEF"/><rect x="245.741" y="55" width="30" height="125.228" rx="3.343" fill="#4867AA"/><rect x="375.741" y="55.199" width="30" height="125.228" rx="3.343" fill="#4867AA"/><rect x="502" y="82" width="30" height="98" rx="3.343" fill="#4867AA"/><rect x="672" y="82" width="30" height="98" rx="3.343" fill="#4EC125"/><rect x="603" y=".099" width="30" height="180.329" rx="3.343" fill="#55ACEF"/><rect x="636.741" y="55.199" width="30" height="125.228" rx="3.343" fill="#4867AA"/><rect x="763" y="37" width="30" height="143" rx="3.343" fill="#4867AA"/><rect x="895.741" y="55.199" width="30" height="125.228" rx="3.343" fill="#4867AA"/><rect x="348" y="269.026" width="17.965" height="17.948" rx="8.974" fill="#55ACEF"/><path d="M386.499 276a4.61 4.61 0 00-.556-1.157 3.566 3.566 0 00-.812-.882 3.4 3.4 0 00-1.061-.556 4.222 4.222 0 00-1.304-.192c-.775 0-1.48.2-2.115.601-.635.4-1.14.991-1.515 1.771-.375.779-.563 1.736-.563 2.87 0 1.133.19 2.09.569 2.87.379.779.893 1.37 1.541 1.77.647.401 1.376.601 2.186.601.75 0 1.41-.16 1.981-.479a3.407 3.407 0 001.343-1.368c.323-.593.485-1.289.485-2.09l.486.102h-3.937v-1.406h4.985v1.406c0 1.078-.23 2.015-.69 2.812a4.772 4.772 0 01-1.892 1.854c-.801.435-1.722.652-2.761.652-1.159 0-2.178-.273-3.056-.818-.873-.546-1.555-1.321-2.045-2.327-.486-1.006-.729-2.199-.729-3.579 0-1.036.139-1.967.416-2.794.281-.831.677-1.538 1.189-2.122a5.189 5.189 0 011.815-1.342 5.612 5.612 0 012.307-.467c.691 0 1.334.105 1.931.313a5.195 5.195 0 011.604.876c.473.375.867.825 1.183 1.349a5.16 5.16 0 01.652 1.732h-1.637zm7.34 9.205c-.946 0-1.762-.209-2.448-.627a4.207 4.207 0 01-1.579-1.764c-.366-.759-.549-1.641-.549-2.646 0-1.006.183-1.892.549-2.659.371-.772.887-1.373 1.547-1.803.665-.435 1.441-.652 2.327-.652.511 0 1.016.085 1.515.256.498.17.952.447 1.361.831.409.379.735.882.978 1.508.243.627.365 1.398.365 2.314v.639h-7.568v-1.304h6.034c0-.554-.111-1.048-.333-1.483a2.508 2.508 0 00-.933-1.029c-.401-.251-.874-.377-1.419-.377-.601 0-1.121.149-1.56.448a2.942 2.942 0 00-1.003 1.15c-.235.473-.352.98-.352 1.521v.87c0 .741.128 1.37.384 1.885.26.512.62.902 1.08 1.17.46.264.995.396 1.604.396.397 0 .755-.055 1.074-.166.324-.115.603-.285.838-.511a2.33 2.33 0 00.543-.857l1.457.409a3.224 3.224 0 01-.773 1.304c-.362.371-.81.661-1.342.87-.533.204-1.132.307-1.797.307zm6.869-6.111V285h-1.509v-9.818h1.458v1.534h.128c.23-.499.579-.899 1.048-1.202.469-.307 1.074-.46 1.815-.46.665 0 1.247.136 1.745.409.499.269.887.678 1.164 1.227.277.546.415 1.236.415 2.071V285h-1.508v-6.136c0-.772-.201-1.373-.601-1.803-.401-.435-.95-.652-1.649-.652-.482 0-.912.104-1.292.313a2.242 2.242 0 00-.888.914c-.217.401-.326.887-.326 1.458zm12.137 6.111c-.946 0-1.762-.209-2.448-.627a4.207 4.207 0 01-1.579-1.764c-.366-.759-.549-1.641-.549-2.646 0-1.006.183-1.892.549-2.659.371-.772.887-1.373 1.547-1.803.665-.435 1.44-.652 2.327-.652.511 0 1.016.085 1.515.256.498.17.952.447 1.361.831.409.379.735.882.978 1.508.243.627.365 1.398.365 2.314v.639h-7.569v-1.304h6.034c0-.554-.11-1.048-.332-1.483a2.508 2.508 0 00-.933-1.029c-.401-.251-.874-.377-1.419-.377-.601 0-1.121.149-1.56.448a2.942 2.942 0 00-1.003 1.15c-.235.473-.352.98-.352 1.521v.87c0 .741.128 1.37.384 1.885.26.512.62.902 1.08 1.17.46.264.995.396 1.604.396.397 0 .755-.055 1.074-.166a2.29 2.29 0 00.837-.511c.235-.23.416-.516.544-.857l1.457.409a3.224 3.224 0 01-.773 1.304c-.362.371-.81.661-1.343.87-.532.204-1.131.307-1.796.307zm5.36-.205v-9.818h1.458v1.483h.102c.179-.486.503-.88.972-1.183a2.862 2.862 0 011.585-.454c.111 0 .249.003.415.007.166.004.292.01.377.019v1.534a4.176 4.176 0 00-.351-.057 3.445 3.445 0 00-.569-.045c-.477 0-.903.1-1.278.3a2.274 2.274 0 00-.883.818 2.21 2.21 0 00-.319 1.183V285h-1.509zm8.587.23a3.996 3.996 0 01-1.694-.351 2.906 2.906 0 01-1.208-1.03c-.298-.451-.448-.997-.448-1.636 0-.562.111-1.018.333-1.368.221-.354.518-.631.888-.831.371-.2.78-.349 1.228-.447.451-.103.905-.183 1.361-.243.597-.077 1.08-.134 1.451-.173.375-.042.648-.113.818-.211.175-.098.262-.268.262-.511v-.051c0-.631-.172-1.121-.517-1.47-.341-.35-.859-.524-1.554-.524-.72 0-1.285.157-1.694.473-.409.315-.696.652-.863 1.009l-1.431-.511c.255-.596.596-1.061 1.022-1.393a3.827 3.827 0 011.407-.703 5.808 5.808 0 011.508-.205c.315 0 .678.038 1.087.115.413.072.812.224 1.195.454.388.23.71.577.965 1.042.256.464.384 1.086.384 1.866V285h-1.509v-1.33h-.076a2.638 2.638 0 01-.512.684c-.238.243-.556.45-.952.62-.397.171-.88.256-1.451.256zm.23-1.355c.597 0 1.099-.117 1.508-.352a2.387 2.387 0 001.253-2.077v-1.381c-.064.077-.204.147-.422.211-.213.06-.46.113-.741.16a31.625 31.625 0 01-1.445.192 5.755 5.755 0 00-1.099.249 1.894 1.894 0 00-.818.505c-.205.222-.307.524-.307.908 0 .524.194.92.582 1.189.392.264.888.396 1.489.396zm7.532-11.966V285h-1.509v-13.091h1.509z" fill="#222B45"/><rect x="475.965" y="269.026" width="17.965" height="17.948" rx="8.974" fill="#4867AA"/><path d="M505.516 285v-13.091h1.585v6.494h.153l5.881-6.494h2.071l-5.497 5.906 5.497 7.185h-1.917l-4.552-6.085-1.636 1.841V285h-1.585zm10.742 0v-13.091h7.901v1.406h-6.316v4.424h5.906v1.406h-5.906v4.449h6.418V285h-8.003z" fill="#222B45"/><rect x="565.931" y="269.026" width="17.965" height="17.948" rx="8.974" fill="#0A66C2"/><path d="M606.527 278.455c0 1.38-.25 2.573-.748 3.579-.499 1.006-1.183 1.781-2.052 2.327-.869.545-1.862.818-2.979.818-1.116 0-2.109-.273-2.978-.818-.87-.546-1.554-1.321-2.052-2.327-.499-1.006-.748-2.199-.748-3.579 0-1.381.249-2.574.748-3.58.498-1.006 1.182-1.781 2.052-2.327.869-.545 1.862-.818 2.978-.818 1.117 0 2.11.273 2.979.818.869.546 1.553 1.321 2.052 2.327.498 1.006.748 2.199.748 3.58zm-1.534 0c0-1.134-.19-2.091-.569-2.87-.375-.78-.885-1.371-1.528-1.771a3.957 3.957 0 00-2.148-.601c-.792 0-1.51.2-2.154.601-.639.4-1.148.991-1.528 1.771-.375.779-.562 1.736-.562 2.87 0 1.133.187 2.09.562 2.87.38.779.889 1.37 1.528 1.77a3.992 3.992 0 002.154.601c.793 0 1.509-.2 2.148-.601.643-.4 1.153-.991 1.528-1.77.379-.78.569-1.737.569-2.87zm7.264-3.273v1.278h-5.088v-1.278h5.088zm-3.605-2.352h1.509v9.358c0 .426.062.745.185.958.128.209.29.35.486.422.2.068.411.102.633.102.166 0 .302-.008.409-.025l.256-.051.306 1.355a3.064 3.064 0 01-.428.115 3.126 3.126 0 01-.697.064c-.426 0-.843-.092-1.252-.275a2.482 2.482 0 01-1.01-.837c-.265-.375-.397-.848-.397-1.419v-9.767zm6.594 6.264V285h-1.508v-13.091h1.508v4.807h.128c.23-.507.575-.91 1.035-1.208.465-.303 1.083-.454 1.854-.454.669 0 1.255.134 1.758.403.503.264.893.671 1.17 1.221.281.545.422 1.24.422 2.083V285h-1.509v-6.136c0-.78-.202-1.383-.607-1.809-.401-.431-.957-.646-1.669-.646a2.78 2.78 0 00-1.329.313 2.294 2.294 0 00-.921.914c-.221.401-.332.887-.332 1.458zm12.243 6.111c-.946 0-1.762-.209-2.448-.627a4.207 4.207 0 01-1.579-1.764c-.367-.759-.55-1.641-.55-2.646 0-1.006.183-1.892.55-2.659.371-.772.886-1.373 1.547-1.803.664-.435 1.44-.652 2.326-.652.512 0 1.017.085 1.515.256.499.17.953.447 1.362.831.409.379.735.882.978 1.508.243.627.364 1.398.364 2.314v.639h-7.568v-1.304h6.034c0-.554-.111-1.048-.332-1.483a2.517 2.517 0 00-.934-1.029c-.4-.251-.873-.377-1.419-.377-.6 0-1.12.149-1.559.448a2.945 2.945 0 00-1.004 1.15c-.234.473-.351.98-.351 1.521v.87c0 .741.127 1.37.383 1.885.26.512.62.902 1.08 1.17.461.264.995.396 1.605.396.396 0 .754-.055 1.074-.166a2.29 2.29 0 00.837-.511c.234-.23.416-.516.543-.857l1.458.409a3.226 3.226 0 01-.774 1.304 3.764 3.764 0 01-1.342.87c-.533.204-1.131.307-1.796.307zm5.36-.205v-9.818h1.457v1.483h.103c.179-.486.502-.88.971-1.183a2.865 2.865 0 011.585-.454c.111 0 .25.003.416.007.166.004.292.01.377.019v1.534a4.15 4.15 0 00-.352-.057 3.432 3.432 0 00-.568-.045c-.478 0-.904.1-1.279.3a2.264 2.264 0 00-.882.818 2.21 2.21 0 00-.32 1.183V285h-1.508z" fill="#222B45"/><path d="M89.761 197.455h2.103l4.943 12.073h.17l4.943-12.073h2.103V212h-1.648v-11.051h-.142L97.687 212h-1.59l-4.546-11.051h-.142V212h-1.648v-14.545zm20.998 14.772c-.985 0-1.849-.234-2.592-.703-.739-.469-1.317-1.124-1.733-1.967-.412-.843-.618-1.828-.618-2.955 0-1.136.206-2.128.618-2.976.416-.847.994-1.505 1.733-1.974.743-.469 1.607-.703 2.592-.703.985 0 1.846.234 2.585.703.743.469 1.321 1.127 1.733 1.974.417.848.625 1.84.625 2.976 0 1.127-.208 2.112-.625 2.955-.412.843-.99 1.498-1.733 1.967-.739.469-1.6.703-2.585.703zm0-1.505c.748 0 1.364-.192 1.846-.576a3.387 3.387 0 001.073-1.512 5.797 5.797 0 00.348-2.032 5.85 5.85 0 00-.348-2.038 3.433 3.433 0 00-1.073-1.527c-.482-.388-1.098-.582-1.846-.582s-1.364.194-1.847.582c-.483.388-.84.897-1.072 1.527a5.85 5.85 0 00-.348 2.038c0 .729.116 1.407.348 2.032.232.625.589 1.129 1.072 1.512.483.384 1.099.576 1.847.576zm8.178-5.284V212h-1.676v-10.909h1.619v1.704h.142a3.115 3.115 0 011.165-1.335c.521-.341 1.193-.511 2.017-.511.738 0 1.385.151 1.939.454.554.299.985.753 1.292 1.364.308.606.462 1.373.462 2.301V212h-1.676v-6.818c0-.857-.223-1.525-.668-2.003-.445-.483-1.056-.724-1.832-.724-.535 0-1.013.116-1.435.348a2.49 2.49 0 00-.987 1.015c-.241.445-.362.985-.362 1.62zm13.142 6.789c-.909 0-1.711-.229-2.407-.689-.697-.464-1.241-1.117-1.634-1.96-.393-.847-.589-1.849-.589-3.004 0-1.146.196-2.14.589-2.983.393-.843.94-1.494 1.641-1.953.7-.459 1.51-.689 2.429-.689.71 0 1.271.118 1.683.355.417.232.734.497.952.795.222.294.395.535.518.725h.142v-5.369h1.676V212h-1.619v-1.676h-.199c-.123.199-.298.45-.526.753-.227.298-.551.566-.973.802-.421.232-.982.348-1.683.348zm.227-1.505c.673 0 1.241-.176 1.705-.526.464-.355.817-.845 1.058-1.47.242-.63.362-1.357.362-2.181 0-.814-.118-1.527-.355-2.137-.236-.616-.587-1.094-1.051-1.435-.464-.346-1.037-.518-1.719-.518-.71 0-1.302.182-1.775.546-.469.36-.822.85-1.058 1.471-.232.615-.348 1.306-.348 2.073 0 .777.118 1.482.355 2.117.241.63.596 1.132 1.065 1.506.474.369 1.061.554 1.761.554zm10.286 1.534a4.438 4.438 0 01-1.882-.391 3.222 3.222 0 01-1.342-1.143c-.332-.502-.498-1.108-.498-1.819 0-.625.123-1.131.37-1.519a2.61 2.61 0 01.987-.924 5.203 5.203 0 011.364-.497 16.346 16.346 0 011.512-.27 72.061 72.061 0 011.613-.192c.416-.047.719-.125.909-.234.194-.109.291-.298.291-.568v-.057c0-.701-.192-1.245-.575-1.633-.379-.389-.955-.583-1.726-.583-.8 0-1.428.175-1.882.526-.455.35-.775.724-.959 1.122l-1.591-.568c.284-.663.663-1.179 1.136-1.549a4.259 4.259 0 011.563-.781 6.508 6.508 0 011.676-.227c.35 0 .753.042 1.207.128.46.08.902.248 1.328.504.431.256.789.642 1.073 1.158.284.516.426 1.207.426 2.073V212h-1.676v-1.477h-.085c-.114.236-.303.49-.569.76-.265.27-.617.499-1.058.689-.44.189-.978.284-1.612.284zm.256-1.506c.663 0 1.221-.13 1.676-.391.459-.26.805-.596 1.037-1.008.236-.412.355-.845.355-1.3v-1.534c-.071.085-.227.163-.469.234a7.689 7.689 0 01-.824.178c-.308.047-.608.09-.902.128-.289.033-.523.061-.703.085a6.396 6.396 0 00-1.221.277c-.375.123-.678.31-.91.561-.227.246-.34.582-.34 1.009 0 .582.215 1.022.646 1.321.435.293.987.44 1.655.44zm7.492 5.341a3.7 3.7 0 01-.76-.071 2 2 0 01-.461-.128l.426-1.477c.407.104.767.142 1.079.113a1.29 1.29 0 00.831-.419c.246-.246.471-.646.675-1.2l.312-.852-4.034-10.966h1.819l3.011 8.693h.114l3.011-8.693h1.818l-4.631 12.5c-.208.563-.466 1.03-.774 1.399a2.897 2.897 0 01-1.072.831c-.403.18-.857.27-1.364.27zm74.626-17.074v-1.562h10.909v1.562h-4.574V212h-1.761v-12.983h-4.574zm17.791 8.523v-6.449h1.676V212h-1.676v-1.847h-.114a3.58 3.58 0 01-1.193 1.414c-.54.383-1.222.575-2.046.575-.681 0-1.287-.149-1.818-.447-.53-.303-.947-.758-1.25-1.364-.303-.611-.454-1.38-.454-2.308v-6.932h1.676v6.818c0 .796.222 1.43.667 1.903.45.474 1.023.711 1.719.711.417 0 .841-.107 1.272-.32.435-.213.8-.54 1.093-.98.299-.44.448-1.001.448-1.683zm8.32 4.687c-1.051 0-1.958-.232-2.72-.696a4.672 4.672 0 01-1.755-1.96c-.407-.843-.611-1.823-.611-2.94 0-1.118.204-2.103.611-2.955.412-.857.985-1.524 1.719-2.003.739-.483 1.6-.724 2.585-.724.568 0 1.13.095 1.683.284a4.162 4.162 0 011.513.923c.455.422.817.98 1.087 1.676s.405 1.553.405 2.571v.711h-8.409v-1.449h6.704c0-.616-.123-1.165-.369-1.648a2.782 2.782 0 00-1.037-1.143c-.445-.28-.971-.419-1.577-.419-.667 0-1.245.165-1.733.497a3.272 3.272 0 00-1.115 1.278 3.762 3.762 0 00-.39 1.69v.966c0 .824.142 1.523.426 2.096a3.074 3.074 0 001.2 1.299c.511.294 1.106.441 1.783.441.44 0 .838-.062 1.193-.185.36-.128.67-.317.93-.568.261-.256.462-.573.604-.952l1.619.455a3.584 3.584 0 01-.859 1.448c-.403.412-.9.734-1.492.966-.591.228-1.257.341-1.995.341zm13.794-8.693l-1.506.426a2.78 2.78 0 00-.419-.731 2.025 2.025 0 00-.739-.597c-.312-.156-.712-.234-1.2-.234-.668 0-1.224.154-1.669.461-.44.303-.66.689-.66 1.158 0 .417.151.746.454.987.303.242.777.443 1.421.604l1.619.398c.975.236 1.702.599 2.18 1.086.478.483.718 1.106.718 1.868 0 .625-.18 1.184-.54 1.676-.355.493-.852.881-1.492 1.165-.639.284-1.382.426-2.23.426-1.112 0-2.033-.241-2.763-.724-.729-.483-1.19-1.189-1.384-2.117l1.59-.397c.152.587.438 1.027.86 1.321.426.293.982.44 1.669.44.781 0 1.401-.166 1.861-.497.464-.336.696-.739.696-1.208 0-.378-.133-.696-.398-.951-.265-.261-.672-.455-1.222-.583l-1.818-.426c-.999-.237-1.733-.603-2.202-1.101-.464-.502-.696-1.129-.696-1.882 0-.615.173-1.16.519-1.633.35-.474.826-.845 1.427-1.115.607-.27 1.293-.405 2.06-.405 1.08 0 1.927.237 2.543.71a3.839 3.839 0 011.321 1.875zm5.841 8.693c-.909 0-1.712-.229-2.408-.689-.696-.464-1.24-1.117-1.633-1.96-.393-.847-.59-1.849-.59-3.004 0-1.146.197-2.14.59-2.983.393-.843.94-1.494 1.64-1.953.701-.459 1.511-.689 2.429-.689.711 0 1.272.118 1.684.355.416.232.734.497.951.795.223.294.396.535.519.725h.142v-5.369h1.676V212h-1.619v-1.676h-.199c-.123.199-.298.45-.526.753-.227.298-.551.566-.973.802-.421.232-.982.348-1.683.348zm.227-1.505c.673 0 1.241-.176 1.705-.526.464-.355.817-.845 1.058-1.47.242-.63.362-1.357.362-2.181 0-.814-.118-1.527-.355-2.137-.237-.616-.587-1.094-1.051-1.435-.464-.346-1.037-.518-1.719-.518-.71 0-1.302.182-1.775.546-.469.36-.822.85-1.059 1.471-.232.615-.348 1.306-.348 2.073 0 .777.119 1.482.356 2.117.241.63.596 1.132 1.065 1.506.473.369 1.061.554 1.761.554zm10.286 1.534a4.435 4.435 0 01-1.882-.391 3.23 3.23 0 01-1.343-1.143c-.331-.502-.497-1.108-.497-1.819 0-.625.123-1.131.37-1.519a2.61 2.61 0 01.987-.924 5.21 5.21 0 011.363-.497 16.427 16.427 0 011.513-.27c.663-.085 1.2-.149 1.612-.192.417-.047.72-.125.909-.234.195-.109.292-.298.292-.568v-.057c0-.701-.192-1.245-.576-1.633-.378-.389-.954-.583-1.725-.583-.801 0-1.428.175-1.883.526-.454.35-.774.724-.958 1.122l-1.591-.568c.284-.663.663-1.179 1.136-1.549a4.259 4.259 0 011.563-.781 6.503 6.503 0 011.676-.227c.35 0 .753.042 1.207.128.459.08.902.248 1.328.504.431.256.789.642 1.073 1.158.284.516.426 1.207.426 2.073V212h-1.676v-1.477h-.086c-.113.236-.303.49-.568.76-.265.27-.618.499-1.058.689-.44.189-.978.284-1.612.284zm.255-1.506c.663 0 1.222-.13 1.677-.391.459-.26.805-.596 1.037-1.008.236-.412.355-.845.355-1.3v-1.534c-.071.085-.228.163-.469.234a7.689 7.689 0 01-.824.178c-.308.047-.608.09-.902.128-.289.033-.523.061-.703.085a6.406 6.406 0 00-1.222.277c-.374.123-.677.31-.909.561-.227.246-.341.582-.341 1.009 0 .582.216 1.022.647 1.321.435.293.987.44 1.654.44zm7.493 5.341a3.7 3.7 0 01-.76-.071 2.028 2.028 0 01-.462-.128l.427-1.477c.407.104.767.142 1.079.113a1.29 1.29 0 00.831-.419c.246-.246.471-.646.675-1.2l.312-.852-4.034-10.966h1.818l3.012 8.693h.113l3.012-8.693h1.818l-4.631 12.5c-.208.563-.466 1.03-.774 1.399a2.905 2.905 0 01-1.072.831c-.403.18-.857.27-1.364.27zm55.43-4.091l-3.977-14.545h1.79l3.04 11.846h.142l3.096-11.846h1.989l3.097 11.846h.142l3.039-11.846h1.79L354.574 212h-1.818l-3.211-11.591h-.113L346.222 212h-1.819zm18.674.227c-1.051 0-1.958-.232-2.72-.696a4.672 4.672 0 01-1.755-1.96c-.407-.843-.611-1.823-.611-2.94 0-1.118.204-2.103.611-2.955.412-.857.985-1.524 1.719-2.003.739-.483 1.6-.724 2.585-.724.568 0 1.13.095 1.683.284a4.162 4.162 0 011.513.923c.455.422.817.98 1.087 1.676s.405 1.553.405 2.571v.711h-8.409v-1.449h6.704c0-.616-.123-1.165-.369-1.648a2.782 2.782 0 00-1.037-1.143c-.445-.28-.971-.419-1.577-.419-.667 0-1.245.165-1.733.497a3.272 3.272 0 00-1.115 1.278 3.762 3.762 0 00-.39 1.69v.966c0 .824.142 1.523.426 2.096a3.074 3.074 0 001.2 1.299c.511.294 1.106.441 1.783.441.44 0 .838-.062 1.193-.185.36-.128.67-.317.93-.568.261-.256.462-.573.604-.952l1.619.455a3.584 3.584 0 01-.859 1.448c-.403.412-.9.734-1.492.966-.591.228-1.257.341-1.995.341zm10.186 0c-.909 0-1.712-.229-2.408-.689-.696-.464-1.24-1.117-1.633-1.96-.393-.847-.59-1.849-.59-3.004 0-1.146.197-2.14.59-2.983.393-.843.939-1.494 1.64-1.953.701-.459 1.511-.689 2.429-.689.71 0 1.272.118 1.683.355.417.232.734.497.952.795.223.294.395.535.519.725h.142v-5.369h1.676V212h-1.62v-1.676h-.198c-.124.199-.299.45-.526.753-.227.298-.552.566-.973.802-.421.232-.982.348-1.683.348zm.227-1.505c.672 0 1.241-.176 1.705-.526.464-.355.816-.845 1.058-1.47.241-.63.362-1.357.362-2.181 0-.814-.118-1.527-.355-2.137-.237-.616-.587-1.094-1.051-1.435-.464-.346-1.037-.518-1.719-.518-.71 0-1.302.182-1.776.546-.468.36-.821.85-1.058 1.471-.232.615-.348 1.306-.348 2.073 0 .777.119 1.482.355 2.117.242.63.597 1.132 1.066 1.506.473.369 1.06.554 1.761.554zm8.751-5.284V212h-1.676v-10.909h1.62v1.704h.142a3.113 3.113 0 011.164-1.335c.521-.341 1.194-.511 2.018-.511.738 0 1.384.151 1.938.454.554.299.985.753 1.293 1.364.308.606.462 1.373.462 2.301V212h-1.676v-6.818c0-.857-.223-1.525-.668-2.003-.445-.483-1.056-.724-1.832-.724-.535 0-1.014.116-1.435.348-.417.232-.746.57-.987 1.015-.242.445-.363.985-.363 1.62zm13.597 6.789c-1.051 0-1.957-.232-2.72-.696a4.677 4.677 0 01-1.754-1.96c-.407-.843-.611-1.823-.611-2.94 0-1.118.204-2.103.611-2.955.412-.857.985-1.524 1.719-2.003.738-.483 1.6-.724 2.585-.724.568 0 1.129.095 1.683.284a4.17 4.17 0 011.513.923c.455.422.817.98 1.087 1.676s.404 1.553.404 2.571v.711h-8.409v-1.449h6.705c0-.616-.123-1.165-.369-1.648a2.788 2.788 0 00-1.037-1.143c-.445-.28-.971-.419-1.577-.419-.668 0-1.245.165-1.733.497a3.264 3.264 0 00-1.115 1.278 3.762 3.762 0 00-.391 1.69v.966c0 .824.142 1.523.426 2.096a3.07 3.07 0 001.201 1.299c.511.294 1.105.441 1.782.441.441 0 .838-.062 1.194-.185.359-.128.67-.317.93-.568.26-.256.462-.573.604-.952l1.619.455a3.584 3.584 0 01-.859 1.448c-.403.412-.9.734-1.492.966-.592.228-1.257.341-1.996.341zm13.794-8.693l-1.505.426a2.808 2.808 0 00-.419-.731 2.025 2.025 0 00-.739-.597c-.312-.156-.712-.234-1.2-.234-.668 0-1.224.154-1.669.461-.441.303-.661.689-.661 1.158 0 .417.152.746.455.987.303.242.776.443 1.42.604l1.62.398c.975.236 1.702.599 2.18 1.086.478.483.717 1.106.717 1.868 0 .625-.18 1.184-.539 1.676-.356.493-.853.881-1.492 1.165-.639.284-1.383.426-2.23.426-1.113 0-2.034-.241-2.763-.724-.729-.483-1.191-1.189-1.385-2.117l1.591-.397c.152.587.438 1.027.86 1.321.426.293.982.44 1.669.44.781 0 1.401-.166 1.86-.497.464-.336.696-.739.696-1.208 0-.378-.132-.696-.397-.951-.266-.261-.673-.455-1.222-.583l-1.818-.426c-.999-.237-1.733-.603-2.202-1.101-.464-.502-.696-1.129-.696-1.882 0-.615.173-1.16.519-1.633.35-.474.826-.845 1.427-1.115.606-.27 1.293-.405 2.06-.405 1.079 0 1.927.237 2.542.71a3.826 3.826 0 011.321 1.875zm5.842 8.693c-.909 0-1.712-.229-2.408-.689-.696-.464-1.24-1.117-1.633-1.96-.393-.847-.59-1.849-.59-3.004 0-1.146.197-2.14.59-2.983.393-.843.939-1.494 1.64-1.953.701-.459 1.511-.689 2.429-.689.71 0 1.271.118 1.683.355.417.232.734.497.952.795.223.294.395.535.519.725h.142v-5.369h1.676V212h-1.62v-1.676h-.198c-.124.199-.299.45-.526.753-.227.298-.552.566-.973.802-.421.232-.983.348-1.683.348zm.227-1.505c.672 0 1.241-.176 1.705-.526.464-.355.816-.845 1.058-1.47.241-.63.362-1.357.362-2.181 0-.814-.118-1.527-.355-2.137-.237-.616-.587-1.094-1.051-1.435-.464-.346-1.037-.518-1.719-.518-.71 0-1.302.182-1.776.546-.468.36-.821.85-1.058 1.471-.232.615-.348 1.306-.348 2.073 0 .777.119 1.482.355 2.117.242.63.597 1.132 1.066 1.506.473.369 1.06.554 1.761.554zm10.286 1.534a4.443 4.443 0 01-1.883-.391 3.234 3.234 0 01-1.342-1.143c-.331-.502-.497-1.108-.497-1.819 0-.625.123-1.131.369-1.519.246-.393.576-.701.987-.924a5.216 5.216 0 011.364-.497 16.367 16.367 0 011.513-.27c.663-.085 1.2-.149 1.612-.192.417-.047.72-.125.909-.234.194-.109.291-.298.291-.568v-.057c0-.701-.191-1.245-.575-1.633-.379-.389-.954-.583-1.726-.583-.8 0-1.427.175-1.882.526-.454.35-.774.724-.959 1.122l-1.591-.568c.285-.663.663-1.179 1.137-1.549a4.262 4.262 0 011.562-.781 6.508 6.508 0 011.676-.227c.351 0 .753.042 1.208.128.459.08.902.248 1.328.504.431.256.788.642 1.072 1.158.284.516.427 1.207.427 2.073V212h-1.677v-1.477h-.085c-.113.236-.303.49-.568.76-.265.27-.618.499-1.058.689-.441.189-.978.284-1.612.284zm.255-1.506c.663 0 1.222-.13 1.676-.391.46-.26.805-.596 1.037-1.008.237-.412.355-.845.355-1.3v-1.534c-.071.085-.227.163-.468.234a7.743 7.743 0 01-.824.178c-.308.047-.609.09-.902.128-.289.033-.523.061-.703.085a6.406 6.406 0 00-1.222.277c-.374.123-.677.31-.909.561-.227.246-.341.582-.341 1.009 0 .582.215 1.022.646 1.321.436.293.988.44 1.655.44zm7.493 5.341c-.284 0-.538-.024-.76-.071a1.997 1.997 0 01-.462-.128l.426-1.477c.407.104.767.142 1.08.113.312-.028.589-.168.831-.419.246-.246.471-.646.675-1.2l.312-.852-4.034-10.966h1.818l3.011 8.693h.114l3.011-8.693h1.819l-4.631 12.5c-.208.563-.466 1.03-.774 1.399a2.9 2.9 0 01-1.073.831c-.402.18-.857.27-1.363.27zm43.231-17.074v-1.562h10.909v1.562h-4.574V212h-1.761v-12.983h-4.574zm14.076 6.421V212h-1.676v-14.545h1.676v5.34h.142c.256-.563.64-1.01 1.151-1.342.516-.336 1.203-.504 2.06-.504.743 0 1.394.149 1.953.447.558.294.992.746 1.299 1.357.313.606.469 1.378.469 2.315V212h-1.676v-6.818c0-.867-.225-1.537-.675-2.01-.445-.478-1.063-.717-1.853-.717-.55 0-1.042.116-1.478.348a2.54 2.54 0 00-1.022 1.015c-.247.445-.37.985-.37 1.62zm16.016 2.102v-6.449h1.676V212h-1.676v-1.847h-.114a3.587 3.587 0 01-1.193 1.414c-.54.383-1.222.575-2.046.575-.682 0-1.288-.149-1.818-.447-.53-.303-.947-.758-1.25-1.364-.303-.611-.454-1.38-.454-2.308v-6.932h1.676v6.818c0 .796.222 1.43.667 1.903.45.474 1.023.711 1.719.711.417 0 .84-.107 1.271-.32.436-.213.801-.54 1.094-.98.298-.44.448-1.001.448-1.683zm3.746 4.46v-10.909h1.619v1.648h.114c.198-.54.558-.978 1.079-1.314a3.18 3.18 0 011.761-.505c.124 0 .277.003.462.008.185.004.324.011.419.021v1.704a5.436 5.436 0 00-.39-.064 3.87 3.87 0 00-.633-.049c-.53 0-1.003.111-1.42.334-.412.217-.739.52-.98.909a2.445 2.445 0 00-.355 1.314V212h-1.676zm14.168-8.466l-1.505.426a2.808 2.808 0 00-.419-.731 2.033 2.033 0 00-.739-.597c-.313-.156-.713-.234-1.2-.234-.668 0-1.224.154-1.669.461-.441.303-.661.689-.661 1.158 0 .417.152.746.455.987.303.242.776.443 1.42.604l1.619.398c.976.236 1.703.599 2.181 1.086.478.483.717 1.106.717 1.868 0 .625-.18 1.184-.54 1.676-.355.493-.852.881-1.491 1.165-.639.284-1.383.426-2.23.426-1.113 0-2.034-.241-2.763-.724-.729-.483-1.191-1.189-1.385-2.117l1.591-.397c.151.587.438 1.027.859 1.321.426.293.983.44 1.669.44.782 0 1.402-.166 1.861-.497.464-.336.696-.739.696-1.208 0-.378-.132-.696-.398-.951-.265-.261-.672-.455-1.221-.583l-1.818-.426c-.999-.237-1.733-.603-2.202-1.101-.464-.502-.696-1.129-.696-1.882a2.7 2.7 0 01.518-1.633c.351-.474.827-.845 1.428-1.115.606-.27 1.293-.405 2.06-.405 1.079 0 1.927.237 2.542.71a3.826 3.826 0 011.321 1.875zm5.842 8.693c-.91 0-1.712-.229-2.408-.689-.696-.464-1.241-1.117-1.634-1.96-.393-.847-.589-1.849-.589-3.004 0-1.146.196-2.14.589-2.983.393-.843.94-1.494 1.641-1.953.701-.459 1.51-.689 2.429-.689.71 0 1.271.118 1.683.355.417.232.734.497.952.795.222.294.395.535.518.725h.142v-5.369h1.677V212h-1.62v-1.676h-.199c-.123.199-.298.45-.525.753-.227.298-.552.566-.973.802-.422.232-.983.348-1.683.348zm.227-1.505c.672 0 1.24-.176 1.704-.526.464-.355.817-.845 1.059-1.47.241-.63.362-1.357.362-2.181 0-.814-.119-1.527-.355-2.137-.237-.616-.587-1.094-1.051-1.435-.464-.346-1.037-.518-1.719-.518-.71 0-1.302.182-1.776.546-.468.36-.821.85-1.058 1.471-.232.615-.348 1.306-.348 2.073 0 .777.118 1.482.355 2.117.242.63.597 1.132 1.065 1.506.474.369 1.061.554 1.762.554zm10.285 1.534a4.442 4.442 0 01-1.882-.391 3.228 3.228 0 01-1.342-1.143c-.332-.502-.497-1.108-.497-1.819 0-.625.123-1.131.369-1.519a2.61 2.61 0 01.987-.924 5.216 5.216 0 011.364-.497 16.367 16.367 0 011.513-.27c.663-.085 1.2-.149 1.612-.192.417-.047.72-.125.909-.234.194-.109.291-.298.291-.568v-.057c0-.701-.192-1.245-.575-1.633-.379-.389-.954-.583-1.726-.583-.8 0-1.427.175-1.882.526-.455.35-.774.724-.959 1.122l-1.591-.568c.284-.663.663-1.179 1.137-1.549a4.262 4.262 0 011.562-.781 6.508 6.508 0 011.676-.227c.351 0 .753.042 1.208.128.459.08.902.248 1.328.504.431.256.788.642 1.072 1.158.284.516.426 1.207.426 2.073V212h-1.676v-1.477h-.085c-.114.236-.303.49-.568.76-.265.27-.618.499-1.058.689-.441.189-.978.284-1.613.284zm.256-1.506c.663 0 1.222-.13 1.676-.391.459-.26.805-.596 1.037-1.008.237-.412.355-.845.355-1.3v-1.534c-.071.085-.227.163-.469.234a7.666 7.666 0 01-.823.178c-.308.047-.609.09-.902.128-.289.033-.524.061-.704.085a6.413 6.413 0 00-1.221.277c-.374.123-.677.31-.909.561-.227.246-.341.582-.341 1.009 0 .582.215 1.022.646 1.321.436.293.987.44 1.655.44zm7.493 5.341c-.285 0-.538-.024-.76-.071a1.997 1.997 0 01-.462-.128l.426-1.477c.407.104.767.142 1.08.113.312-.028.589-.168.831-.419.246-.246.471-.646.674-1.2l.313-.852-4.034-10.966h1.818l3.011 8.693h.114l3.011-8.693h1.818l-4.63 12.5c-.209.563-.467 1.03-.774 1.399a2.908 2.908 0 01-1.073.831c-.402.18-.857.27-1.363.27zM628.761 212v-14.545h8.722v1.562h-6.96v4.915h6.307v1.562h-6.307V212h-1.762zm10.394 0v-10.909h1.62v1.648h.113c.199-.54.559-.978 1.08-1.314a3.18 3.18 0 011.761-.505c.123 0 .277.003.462.008.184.004.324.011.419.021v1.704a5.397 5.397 0 00-.391-.064 3.858 3.858 0 00-.632-.049 2.96 2.96 0 00-1.42.334c-.412.217-.739.52-.981.909a2.454 2.454 0 00-.355 1.314V212h-1.676zm6.442 0v-10.909h1.676V212h-1.676zm.852-12.727c-.327 0-.609-.112-.845-.334a1.073 1.073 0 01-.348-.803c0-.312.116-.58.348-.802.236-.223.518-.334.845-.334.327 0 .606.111.838.334.237.222.355.49.355.802 0 .313-.118.58-.355.803a1.169 1.169 0 01-.838.334zm7.013 12.954c-.909 0-1.712-.229-2.408-.689-.696-.464-1.24-1.117-1.633-1.96-.393-.847-.59-1.849-.59-3.004 0-1.146.197-2.14.59-2.983.393-.843.94-1.494 1.64-1.953.701-.459 1.511-.689 2.429-.689.711 0 1.272.118 1.684.355.416.232.734.497.951.795.223.294.396.535.519.725h.142v-5.369h1.676V212h-1.619v-1.676h-.199c-.123.199-.298.45-.526.753-.227.298-.551.566-.973.802-.421.232-.982.348-1.683.348zm.227-1.505c.673 0 1.241-.176 1.705-.526.464-.355.817-.845 1.058-1.47.242-.63.362-1.357.362-2.181 0-.814-.118-1.527-.355-2.137-.237-.616-.587-1.094-1.051-1.435-.464-.346-1.037-.518-1.719-.518-.71 0-1.302.182-1.775.546-.469.36-.822.85-1.059 1.471-.232.615-.348 1.306-.348 2.073 0 .777.119 1.482.356 2.117.241.63.596 1.132 1.065 1.506.473.369 1.061.554 1.761.554zm10.286 1.534a4.435 4.435 0 01-1.882-.391 3.23 3.23 0 01-1.343-1.143c-.331-.502-.497-1.108-.497-1.819 0-.625.123-1.131.37-1.519a2.61 2.61 0 01.987-.924 5.21 5.21 0 011.363-.497 16.427 16.427 0 011.513-.27c.663-.085 1.2-.149 1.612-.192.417-.047.72-.125.909-.234.195-.109.292-.298.292-.568v-.057c0-.701-.192-1.245-.576-1.633-.378-.389-.954-.583-1.725-.583-.801 0-1.428.175-1.883.526-.454.35-.774.724-.958 1.122l-1.591-.568c.284-.663.663-1.179 1.136-1.549a4.259 4.259 0 011.563-.781 6.503 6.503 0 011.676-.227c.35 0 .753.042 1.207.128.459.08.902.248 1.328.504.431.256.789.642 1.073 1.158.284.516.426 1.207.426 2.073V212h-1.676v-1.477h-.086c-.113.236-.303.49-.568.76-.265.27-.618.499-1.058.689-.44.189-.978.284-1.612.284zm.255-1.506c.663 0 1.222-.13 1.677-.391.459-.26.805-.596 1.037-1.008.236-.412.355-.845.355-1.3v-1.534c-.071.085-.228.163-.469.234a7.689 7.689 0 01-.824.178c-.308.047-.608.09-.902.128-.289.033-.523.061-.703.085a6.406 6.406 0 00-1.222.277c-.374.123-.677.31-.909.561-.227.246-.341.582-.341 1.009 0 .582.216 1.022.647 1.321.435.293.987.44 1.654.44zm7.493 5.341a3.7 3.7 0 01-.76-.071 2.028 2.028 0 01-.462-.128l.427-1.477c.407.104.767.142 1.079.113a1.29 1.29 0 00.831-.419c.246-.246.471-.646.675-1.2l.312-.852-4.034-10.966h1.818l3.012 8.693h.113l3.012-8.693h1.818l-4.631 12.5c-.208.563-.466 1.03-.774 1.399a2.905 2.905 0 01-1.072.831c-.403.18-.857.27-1.364.27zm81.993-15a2.227 2.227 0 00-1.037-1.676c-.606-.398-1.349-.597-2.23-.597-.644 0-1.208.104-1.69.313-.479.208-.853.494-1.123.859a2.061 2.061 0 00-.397 1.243c0 .388.092.722.277 1.001.189.275.43.505.724.689.294.18.601.329.923.448.322.113.618.206.888.277l1.477.397c.379.1.801.237 1.265.412.468.176.916.415 1.342.718a3.65 3.65 0 011.065 1.15c.28.469.419 1.044.419 1.726a3.83 3.83 0 01-.618 2.131c-.407.634-1.003 1.139-1.789 1.513-.782.374-1.731.561-2.848.561-1.042 0-1.944-.168-2.706-.505-.758-.336-1.354-.805-1.79-1.406-.431-.601-.675-1.3-.732-2.095h1.819c.047.549.232 1.004.554 1.364.326.355.738.62 1.235.795a4.992 4.992 0 001.62.256c.672 0 1.276-.109 1.811-.327.535-.222.959-.53 1.271-.923.313-.398.469-.862.469-1.392 0-.483-.135-.876-.405-1.179-.27-.303-.625-.549-1.065-.739a11.313 11.313 0 00-1.428-.497l-1.79-.511c-1.136-.327-2.036-.793-2.699-1.4-.662-.606-.994-1.399-.994-2.379 0-.814.22-1.524.661-2.13.445-.611 1.041-1.085 1.789-1.421.753-.341 1.594-.511 2.522-.511.937 0 1.771.168 2.5.504.729.331 1.307.786 1.733 1.364.431.577.658 1.233.681 1.967h-1.704zm6.782 11.165a4.442 4.442 0 01-1.882-.391 3.228 3.228 0 01-1.342-1.143c-.332-.502-.497-1.108-.497-1.819 0-.625.123-1.131.369-1.519a2.61 2.61 0 01.987-.924 5.216 5.216 0 011.364-.497 16.367 16.367 0 011.513-.27c.662-.085 1.2-.149 1.612-.192.416-.047.72-.125.909-.234.194-.109.291-.298.291-.568v-.057c0-.701-.192-1.245-.575-1.633-.379-.389-.954-.583-1.726-.583-.8 0-1.428.175-1.882.526-.455.35-.774.724-.959 1.122l-1.591-.568c.284-.663.663-1.179 1.136-1.549.479-.374 1-.634 1.563-.781a6.508 6.508 0 011.676-.227c.351 0 .753.042 1.208.128.459.08.902.248 1.328.504.431.256.788.642 1.072 1.158.284.516.426 1.207.426 2.073V212h-1.676v-1.477h-.085c-.114.236-.303.49-.568.76-.265.27-.618.499-1.059.689-.44.189-.977.284-1.612.284zm.256-1.506c.663 0 1.221-.13 1.676-.391.459-.26.805-.596 1.037-1.008.237-.412.355-.845.355-1.3v-1.534c-.071.085-.227.163-.469.234a7.636 7.636 0 01-.824.178c-.307.047-.608.09-.902.128a40.94 40.94 0 00-.703.085 6.413 6.413 0 00-1.221.277c-.374.123-.677.31-.909.561-.228.246-.341.582-.341 1.009 0 .582.215 1.022.646 1.321.436.293.987.44 1.655.44zm11.548-9.659v1.42h-5.654v-1.42h5.654zm-4.006-2.614h1.676v10.398c0 .473.069.829.206 1.065.142.232.322.389.54.469.223.076.457.114.703.114.185 0 .336-.01.455-.029l.284-.056.341 1.505a3.449 3.449 0 01-.476.128 3.529 3.529 0 01-.774.071c-.474 0-.938-.102-1.392-.305a2.764 2.764 0 01-1.122-.931c-.294-.416-.441-.942-.441-1.576v-10.853zm12.402 9.063v-6.449h1.676V212h-1.676v-1.847h-.113a3.582 3.582 0 01-1.194 1.414c-.539.383-1.221.575-2.045.575-.682 0-1.288-.149-1.818-.447-.531-.303-.947-.758-1.25-1.364-.303-.611-.455-1.38-.455-2.308v-6.932h1.676v6.818c0 .796.223 1.43.668 1.903.45.474 1.023.711 1.719.711.416 0 .84-.107 1.271-.32.436-.213.8-.54 1.094-.98.298-.44.447-1.001.447-1.683zm3.746 4.46v-10.909h1.62v1.648h.113c.199-.54.559-.978 1.08-1.314a3.18 3.18 0 011.761-.505c.123 0 .277.003.462.008.184.004.324.011.419.021v1.704a5.397 5.397 0 00-.391-.064 3.858 3.858 0 00-.632-.049 2.96 2.96 0 00-1.42.334c-.412.217-.739.52-.981.909a2.454 2.454 0 00-.355 1.314V212h-1.676zm10.229.227c-.909 0-1.712-.229-2.408-.689-.696-.464-1.24-1.117-1.633-1.96-.393-.847-.59-1.849-.59-3.004 0-1.146.197-2.14.59-2.983.393-.843.94-1.494 1.64-1.953.701-.459 1.511-.689 2.429-.689.711 0 1.272.118 1.684.355.416.232.733.497.951.795.223.294.396.535.519.725h.142v-5.369h1.676V212h-1.619v-1.676h-.199c-.123.199-.299.45-.526.753-.227.298-.551.566-.973.802-.421.232-.982.348-1.683.348zm.227-1.505c.673 0 1.241-.176 1.705-.526.464-.355.817-.845 1.058-1.47.241-.63.362-1.357.362-2.181 0-.814-.118-1.527-.355-2.137-.237-.616-.587-1.094-1.051-1.435-.464-.346-1.037-.518-1.719-.518-.71 0-1.302.182-1.775.546-.469.36-.822.85-1.059 1.471-.232.615-.348 1.306-.348 2.073 0 .777.119 1.482.356 2.117.241.63.596 1.132 1.065 1.506.473.369 1.06.554 1.761.554zm10.286 1.534a4.435 4.435 0 01-1.882-.391 3.23 3.23 0 01-1.343-1.143c-.331-.502-.497-1.108-.497-1.819 0-.625.123-1.131.369-1.519a2.62 2.62 0 01.988-.924 5.21 5.21 0 011.363-.497 16.367 16.367 0 011.513-.27c.663-.085 1.2-.149 1.612-.192.417-.047.72-.125.909-.234.195-.109.292-.298.292-.568v-.057c0-.701-.192-1.245-.576-1.633-.378-.389-.954-.583-1.726-.583-.8 0-1.427.175-1.882.526-.454.35-.774.724-.958 1.122l-1.591-.568c.284-.663.663-1.179 1.136-1.549a4.262 4.262 0 011.562-.781 6.516 6.516 0 011.677-.227c.35 0 .752.042 1.207.128.459.08.902.248 1.328.504.431.256.788.642 1.073 1.158.284.516.426 1.207.426 2.073V212h-1.676v-1.477h-.086c-.113.236-.303.49-.568.76-.265.27-.618.499-1.058.689-.44.189-.978.284-1.612.284zm.255-1.506c.663 0 1.222-.13 1.677-.391.459-.26.804-.596 1.036-1.008.237-.412.356-.845.356-1.3v-1.534c-.071.085-.228.163-.469.234a7.743 7.743 0 01-.824.178c-.308.047-.608.09-.902.128-.289.033-.523.061-.703.085a6.406 6.406 0 00-1.222.277c-.374.123-.677.31-.909.561-.227.246-.341.582-.341 1.009 0 .582.216 1.022.647 1.321.435.293.987.44 1.654.44zm7.493 5.341a3.7 3.7 0 01-.76-.071 2.012 2.012 0 01-.462-.128l.426-1.477c.408.104.768.142 1.08.113a1.29 1.29 0 00.831-.419c.246-.246.471-.646.675-1.2l.312-.852-4.034-10.966h1.818l3.012 8.693h.113l3.012-8.693h1.818l-4.631 12.5c-.208.563-.466 1.03-.774 1.399a2.905 2.905 0 01-1.072.831c-.403.18-.857.27-1.364.27zm76.782-15a2.227 2.227 0 00-1.037-1.676c-.606-.398-1.349-.597-2.23-.597-.644 0-1.208.104-1.69.313-.479.208-.853.494-1.123.859a2.061 2.061 0 00-.397 1.243c0 .388.092.722.277 1.001.189.275.43.505.724.689.294.18.601.329.923.448.322.113.618.206.888.277l1.477.397c.379.1.801.237 1.265.412.468.176.916.415 1.342.718a3.65 3.65 0 011.065 1.15c.28.469.419 1.044.419 1.726a3.83 3.83 0 01-.618 2.131c-.407.634-1.003 1.139-1.789 1.513-.782.374-1.731.561-2.848.561-1.042 0-1.944-.168-2.706-.505-.758-.336-1.354-.805-1.79-1.406-.431-.601-.675-1.3-.732-2.095h1.819c.047.549.232 1.004.554 1.364.326.355.738.62 1.235.795a4.992 4.992 0 001.62.256c.672 0 1.276-.109 1.811-.327.535-.222.959-.53 1.271-.923.313-.398.469-.862.469-1.392 0-.483-.135-.876-.405-1.179-.27-.303-.625-.549-1.065-.739a11.313 11.313 0 00-1.428-.497l-1.79-.511c-1.136-.327-2.036-.793-2.699-1.4-.662-.606-.994-1.399-.994-2.379 0-.814.22-1.524.661-2.13.445-.611 1.041-1.085 1.789-1.421.753-.341 1.594-.511 2.522-.511.937 0 1.771.168 2.5.504.729.331 1.307.786 1.733 1.364.431.577.658 1.233.681 1.967h-1.704zm10.447 6.449v-6.449h1.676V212h-1.676v-1.847h-.114a3.57 3.57 0 01-1.193 1.414c-.54.383-1.221.575-2.045.575-.682 0-1.288-.149-1.818-.447-.531-.303-.947-.758-1.25-1.364-.303-.611-.455-1.38-.455-2.308v-6.932h1.676v6.818c0 .796.223 1.43.668 1.903.45.474 1.022.711 1.718.711.417 0 .841-.107 1.272-.32.435-.213.8-.54 1.094-.98.298-.44.447-1.001.447-1.683zm5.422-2.102V212h-1.676v-10.909h1.619v1.704h.142a3.115 3.115 0 011.165-1.335c.521-.341 1.193-.511 2.017-.511.739 0 1.385.151 1.939.454.554.299.985.753 1.293 1.364.308.606.461 1.373.461 2.301V212h-1.676v-6.818c0-.857-.222-1.525-.667-2.003-.445-.483-1.056-.724-1.833-.724-.535 0-1.013.116-1.434.348-.417.232-.746.57-.988 1.015-.241.445-.362.985-.362 1.62zm13.143 6.789c-.909 0-1.712-.229-2.408-.689-.696-.464-1.241-1.117-1.634-1.96-.393-.847-.589-1.849-.589-3.004 0-1.146.196-2.14.589-2.983.393-.843.94-1.494 1.641-1.953.701-.459 1.51-.689 2.429-.689.71 0 1.271.118 1.683.355.417.232.734.497.952.795.223.294.395.535.518.725h.142v-5.369h1.677V212h-1.62v-1.676h-.199c-.123.199-.298.45-.525.753-.227.298-.552.566-.973.802-.422.232-.983.348-1.683.348zm.227-1.505c.672 0 1.24-.176 1.704-.526.464-.355.817-.845 1.059-1.47.241-.63.362-1.357.362-2.181 0-.814-.118-1.527-.355-2.137-.237-.616-.587-1.094-1.051-1.435-.464-.346-1.037-.518-1.719-.518-.71 0-1.302.182-1.776.546-.468.36-.821.85-1.058 1.471-.232.615-.348 1.306-.348 2.073 0 .777.118 1.482.355 2.117.242.63.597 1.132 1.066 1.506.473.369 1.06.554 1.761.554zm10.285 1.534a4.442 4.442 0 01-1.882-.391 3.228 3.228 0 01-1.342-1.143c-.331-.502-.497-1.108-.497-1.819 0-.625.123-1.131.369-1.519a2.61 2.61 0 01.987-.924 5.216 5.216 0 011.364-.497 16.367 16.367 0 011.513-.27c.663-.085 1.2-.149 1.612-.192.417-.047.72-.125.909-.234.194-.109.291-.298.291-.568v-.057c0-.701-.191-1.245-.575-1.633-.379-.389-.954-.583-1.726-.583-.8 0-1.427.175-1.882.526-.455.35-.774.724-.959 1.122l-1.591-.568c.284-.663.663-1.179 1.137-1.549a4.262 4.262 0 011.562-.781 6.508 6.508 0 011.676-.227c.351 0 .753.042 1.208.128.459.08.902.248 1.328.504.431.256.788.642 1.072 1.158.284.516.426 1.207.426 2.073V212h-1.676v-1.477h-.085c-.114.236-.303.49-.568.76-.265.27-.618.499-1.058.689-.441.189-.978.284-1.613.284zm.256-1.506c.663 0 1.222-.13 1.676-.391.46-.26.805-.596 1.037-1.008.237-.412.355-.845.355-1.3v-1.534c-.071.085-.227.163-.468.234a7.743 7.743 0 01-.824.178c-.308.047-.609.09-.902.128a38.62 38.62 0 00-.703.085 6.406 6.406 0 00-1.222.277c-.374.123-.677.31-.909.561-.227.246-.341.582-.341 1.009 0 .582.215 1.022.646 1.321.436.293.987.44 1.655.44zm7.493 5.341c-.284 0-.538-.024-.76-.071a1.997 1.997 0 01-.462-.128l.426-1.477c.407.104.767.142 1.08.113.312-.028.589-.168.831-.419.246-.246.471-.646.674-1.2l.313-.852-4.034-10.966h1.818l3.011 8.693H940l3.011-8.693h1.819l-4.631 12.5c-.208.563-.467 1.03-.774 1.399a2.908 2.908 0 01-1.073.831c-.402.18-.857.27-1.363.27z" fill="#7B91B0"/></svg>