<svg width="492" height="357" viewBox="0 0 492 357" fill="none" xmlns="http://www.w3.org/2000/svg"><rect x="305" y="102" width="16" height="146" rx="3.343" fill="#55ACEF"/><rect x="325" y="216" width="16" height="32" rx="3.343" fill="#4867AA"/><rect x="345" y="155" width="16" height="93" rx="3.343" fill="#4EC125"/><rect x="391" y="102" width="16" height="146" rx="3.343" fill="#55ACEF"/><rect x="411" y="203" width="16" height="45" rx="3.343" fill="#4867AA"/><rect x="431" y="237" width="16" height="11" rx="3.343" fill="#4EC125"/><rect x="102" y="337.026" width="17.965" height="17.948" rx="8.974" fill="#55ACEF"/><path d="M140.499 344a4.61 4.61 0 00-.556-1.157 3.566 3.566 0 00-.812-.882 3.4 3.4 0 00-1.061-.556 4.222 4.222 0 00-1.304-.192c-.775 0-1.48.2-2.115.601-.635.4-1.14.991-1.515 1.771-.375.779-.563 1.736-.563 2.87 0 1.133.19 2.09.569 2.87.379.779.893 1.37 1.541 1.77.647.401 1.376.601 2.186.601.75 0 1.41-.16 1.981-.479a3.399 3.399 0 001.342-1.368c.324-.593.486-1.289.486-2.09l.486.102h-3.937v-1.406h4.985v1.406c0 1.078-.23 2.015-.69 2.812a4.772 4.772 0 01-1.892 1.854c-.801.435-1.722.652-2.761.652-1.159 0-2.178-.273-3.056-.818-.873-.546-1.555-1.321-2.045-2.327-.486-1.006-.729-2.199-.729-3.579 0-1.036.139-1.967.416-2.794.281-.831.677-1.538 1.188-2.122a5.201 5.201 0 011.816-1.342 5.612 5.612 0 012.307-.467c.691 0 1.334.105 1.931.313a5.195 5.195 0 011.604.876c.473.375.867.825 1.183 1.349a5.16 5.16 0 01.652 1.732h-1.637zm7.34 9.205c-.946 0-1.762-.209-2.448-.627a4.207 4.207 0 01-1.579-1.764c-.366-.759-.549-1.641-.549-2.646 0-1.006.183-1.892.549-2.659.371-.772.887-1.373 1.547-1.803.665-.435 1.441-.652 2.327-.652.511 0 1.016.085 1.515.256.498.17.952.447 1.361.831.409.379.735.882.978 1.508.243.627.365 1.398.365 2.314v.639h-7.569v-1.304h6.035c0-.554-.111-1.048-.333-1.483a2.508 2.508 0 00-.933-1.029c-.401-.251-.874-.377-1.419-.377-.601 0-1.121.149-1.56.448a2.942 2.942 0 00-1.003 1.15c-.235.473-.352.98-.352 1.521v.87c0 .741.128 1.37.384 1.885.26.512.62.902 1.08 1.17.46.264.995.396 1.604.396.397 0 .755-.055 1.074-.166.324-.115.603-.285.838-.511a2.33 2.33 0 00.543-.857l1.457.409a3.224 3.224 0 01-.773 1.304c-.362.371-.81.661-1.343.87-.532.204-1.131.307-1.796.307zm6.869-6.111V353h-1.509v-9.818h1.458v1.534h.128c.23-.499.579-.899 1.048-1.202.469-.307 1.074-.46 1.815-.46.665 0 1.247.136 1.745.409.499.269.887.678 1.164 1.227.277.546.415 1.236.415 2.071V353h-1.508v-6.136c0-.772-.201-1.373-.601-1.803-.401-.435-.951-.652-1.649-.652-.482 0-.912.104-1.292.313a2.242 2.242 0 00-.888.914c-.217.401-.326.887-.326 1.458zm12.137 6.111c-.946 0-1.762-.209-2.448-.627a4.207 4.207 0 01-1.579-1.764c-.366-.759-.55-1.641-.55-2.646 0-1.006.184-1.892.55-2.659.371-.772.887-1.373 1.547-1.803.665-.435 1.44-.652 2.327-.652.511 0 1.016.085 1.515.256.498.17.952.447 1.361.831.409.379.735.882.978 1.508.243.627.365 1.398.365 2.314v.639h-7.569v-1.304h6.034c0-.554-.11-1.048-.332-1.483a2.508 2.508 0 00-.933-1.029c-.401-.251-.874-.377-1.419-.377-.601 0-1.121.149-1.56.448a2.934 2.934 0 00-1.003 1.15c-.235.473-.352.98-.352 1.521v.87c0 .741.128 1.37.384 1.885.259.512.62.902 1.08 1.17.46.264.995.396 1.604.396.396 0 .754-.055 1.074-.166a2.29 2.29 0 00.837-.511c.235-.23.416-.516.544-.857l1.457.409a3.224 3.224 0 01-.773 1.304c-.363.371-.81.661-1.343.87-.532.204-1.131.307-1.796.307zm5.36-.205v-9.818h1.458v1.483h.102c.179-.486.503-.88.972-1.183a2.862 2.862 0 011.585-.454c.111 0 .249.003.415.007.166.004.292.01.377.019v1.534a4.176 4.176 0 00-.351-.057 3.445 3.445 0 00-.569-.045c-.477 0-.904.1-1.279.3-.37.196-.664.469-.882.818a2.21 2.21 0 00-.319 1.183V353h-1.509zm8.587.23a3.996 3.996 0 01-1.694-.351 2.906 2.906 0 01-1.208-1.03c-.299-.451-.448-.997-.448-1.636 0-.562.111-1.018.333-1.368.221-.354.517-.631.888-.831.371-.2.78-.349 1.227-.447.452-.103.906-.183 1.362-.243.597-.077 1.08-.134 1.451-.173.375-.042.648-.113.818-.211.175-.098.262-.268.262-.511v-.051c0-.631-.172-1.121-.518-1.47-.34-.35-.858-.524-1.553-.524-.72 0-1.285.157-1.694.473-.409.315-.696.652-.863 1.009l-1.431-.511c.255-.596.596-1.061 1.022-1.393a3.827 3.827 0 011.407-.703 5.808 5.808 0 011.508-.205c.315 0 .678.038 1.087.115.413.072.811.224 1.195.454.388.23.71.577.965 1.042.256.464.384 1.086.384 1.866V353h-1.509v-1.33h-.076a2.638 2.638 0 01-.512.684c-.238.243-.556.45-.952.62-.397.171-.88.256-1.451.256zm.23-1.355c.596 0 1.099-.117 1.508-.352a2.387 2.387 0 001.253-2.077v-1.381c-.064.077-.204.147-.422.211-.213.06-.46.113-.741.16a31.625 31.625 0 01-1.445.192 5.755 5.755 0 00-1.099.249c-.337.111-.61.279-.818.505-.205.222-.307.524-.307.908 0 .524.194.92.582 1.189.392.264.888.396 1.489.396zm7.532-11.966V353h-1.509v-13.091h1.509z" fill="#222B45"/><rect x="229.965" y="337.026" width="17.965" height="17.948" rx="8.974" fill="#4867AA"/><path d="M259.516 353v-13.091h1.585v6.494h.153l5.881-6.494h2.071l-5.497 5.906 5.497 7.185h-1.918l-4.551-6.085-1.636 1.841V353h-1.585zm10.742 0v-13.091h7.901v1.406h-6.316v4.424h5.906v1.406h-5.906v4.449h6.418V353h-8.003z" fill="#222B45"/><rect x="319.931" y="337.026" width="17.965" height="17.948" rx="8.974" fill="#4EC125"/><path d="M360.527 346.455c0 1.38-.25 2.573-.748 3.579-.499 1.006-1.183 1.781-2.052 2.327-.869.545-1.862.818-2.979.818-1.116 0-2.109-.273-2.979-.818-.869-.546-1.553-1.321-2.051-2.327-.499-1.006-.748-2.199-.748-3.579 0-1.381.249-2.574.748-3.58.498-1.006 1.182-1.781 2.051-2.327.87-.545 1.863-.818 2.979-.818 1.117 0 2.11.273 2.979.818.869.546 1.553 1.321 2.052 2.327.498 1.006.748 2.199.748 3.58zm-1.535 0c0-1.134-.189-2.091-.568-2.87-.375-.78-.885-1.371-1.528-1.771a3.957 3.957 0 00-2.148-.601c-.792 0-1.511.2-2.154.601-.639.4-1.148.991-1.528 1.771-.375.779-.562 1.736-.562 2.87 0 1.133.187 2.09.562 2.87.38.779.889 1.37 1.528 1.77a3.99 3.99 0 002.154.601c.793 0 1.509-.2 2.148-.601.643-.4 1.153-.991 1.528-1.77.379-.78.568-1.737.568-2.87zm7.265-3.273v1.278h-5.088v-1.278h5.088zm-3.605-2.352h1.509v9.358c0 .426.062.745.185.958.128.209.29.35.486.422.2.068.411.102.633.102.166 0 .302-.008.409-.025l.256-.051.306 1.355a3.064 3.064 0 01-.428.115 3.126 3.126 0 01-.697.064c-.426 0-.843-.092-1.252-.275a2.482 2.482 0 01-1.01-.837c-.265-.375-.397-.848-.397-1.419v-9.767zm6.594 6.264V353h-1.509v-13.091h1.509v4.807h.128c.23-.507.575-.91 1.035-1.208.465-.303 1.083-.454 1.854-.454.669 0 1.255.134 1.758.403.503.264.893.671 1.17 1.221.281.545.421 1.24.421 2.083V353h-1.508v-6.136c0-.78-.202-1.383-.607-1.809-.401-.431-.957-.646-1.669-.646a2.78 2.78 0 00-1.329.313 2.294 2.294 0 00-.921.914c-.221.401-.332.887-.332 1.458zm12.243 6.111c-.946 0-1.762-.209-2.448-.627a4.2 4.2 0 01-1.579-1.764c-.367-.759-.55-1.641-.55-2.646 0-1.006.183-1.892.55-2.659.37-.772.886-1.373 1.547-1.803.664-.435 1.44-.652 2.326-.652.512 0 1.017.085 1.515.256.499.17.953.447 1.362.831.409.379.735.882.978 1.508.243.627.364 1.398.364 2.314v.639h-7.568v-1.304h6.034c0-.554-.111-1.048-.332-1.483a2.517 2.517 0 00-.934-1.029c-.4-.251-.873-.377-1.419-.377-.601 0-1.12.149-1.559.448-.435.294-.77.677-1.004 1.15-.234.473-.351.98-.351 1.521v.87c0 .741.127 1.37.383 1.885.26.512.62.902 1.08 1.17.461.264.995.396 1.605.396.396 0 .754-.055 1.074-.166.323-.115.603-.285.837-.511a2.33 2.33 0 00.543-.857l1.458.409a3.237 3.237 0 01-.774 1.304 3.764 3.764 0 01-1.342.87c-.533.204-1.131.307-1.796.307zm5.36-.205v-9.818h1.457v1.483h.102c.179-.486.503-.88.972-1.183a2.865 2.865 0 011.585-.454c.111 0 .25.003.416.007.166.004.292.01.377.019v1.534a4.15 4.15 0 00-.352-.057 3.436 3.436 0 00-.569-.045c-.477 0-.903.1-1.278.3a2.264 2.264 0 00-.882.818 2.21 2.21 0 00-.32 1.183V353h-1.508z" fill="#222B45"/><path d="M55.233 299v-10.182h3.56c.709 0 1.294.123 1.755.368.46.242.803.568 1.029.979.225.408.338.861.338 1.358 0 .437-.078.798-.234 1.084a1.82 1.82 0 01-.606.676 2.791 2.791 0 01-.81.368v.099c.31.02.624.129.939.328.315.199.578.484.79.855.212.371.319.826.319 1.362 0 .511-.117.97-.349 1.378-.231.407-.598.73-1.098.969-.5.239-1.152.358-1.954.358h-3.679zm1.233-1.094h2.446c.805 0 1.377-.156 1.715-.467a1.5 1.5 0 00.512-1.144c0-.344-.088-.662-.263-.954a1.91 1.91 0 00-.751-.706c-.325-.179-.71-.269-1.153-.269h-2.506v3.54zm0-4.613h2.287c.371 0 .706-.073 1.004-.219.302-.146.54-.351.716-.617.179-.265.269-.576.269-.934a1.55 1.55 0 00-.468-1.139c-.311-.315-.805-.472-1.481-.472h-2.327v3.381zM63.179 299v-7.636h1.134v1.153h.08c.139-.378.39-.684.755-.92a2.227 2.227 0 011.233-.353c.086 0 .194.002.323.005.13.004.227.009.294.015v1.193a3.667 3.667 0 00-.274-.044 2.606 2.606 0 00-.442-.035c-.372 0-.703.078-.995.234a1.756 1.756 0 00-.686.636 1.714 1.714 0 00-.248.92V299h-1.174zm6.456.179c-.483 0-.923-.091-1.317-.273a2.265 2.265 0 01-.94-.801c-.232-.351-.348-.775-.348-1.273 0-.437.087-.792.259-1.064a1.83 1.83 0 01.69-.646c.29-.156.608-.272.956-.348.35-.079.704-.142 1.058-.189.464-.059.84-.104 1.129-.134.292-.033.504-.088.636-.164.136-.076.204-.209.204-.398v-.04c0-.49-.134-.871-.403-1.143-.265-.272-.667-.408-1.208-.408-.56 0-.999.123-1.317.368-.318.245-.542.507-.671.786l-1.114-.398c.199-.464.464-.825.796-1.084a2.977 2.977 0 011.093-.547 4.543 4.543 0 011.174-.159c.245 0 .527.03.845.09.321.056.631.174.93.353.301.179.551.449.75.81.199.361.298.845.298 1.452V299h-1.173v-1.034h-.06a2.059 2.059 0 01-.397.532c-.186.189-.433.35-.741.482-.308.133-.684.199-1.129.199zm.18-1.054c.463 0 .855-.091 1.173-.273.321-.183.563-.418.726-.706.165-.289.248-.592.248-.91v-1.074c-.05.06-.159.114-.328.164a5.532 5.532 0 01-.577.124 29 29 0 01-.631.09c-.202.023-.366.043-.492.059-.305.04-.59.105-.855.194a1.47 1.47 0 00-.637.393c-.159.172-.238.408-.238.706 0 .408.15.716.452.925.305.205.691.308 1.158.308zm5.635-3.719V299h-1.173v-7.636h1.133v1.193h.1c.179-.388.45-.7.815-.935.365-.238.835-.358 1.412-.358.517 0 .97.106 1.358.318.387.209.689.527.904.955.216.424.323.961.323 1.611V299H79.15v-4.773c0-.6-.156-1.067-.467-1.402-.312-.338-.74-.507-1.283-.507-.374 0-.71.081-1.004.244a1.738 1.738 0 00-.691.711c-.17.311-.254.689-.254 1.133zm8.9 4.753c-.636 0-1.198-.161-1.685-.482-.488-.325-.869-.782-1.144-1.372-.275-.594-.412-1.295-.412-2.103 0-.802.137-1.498.412-2.088.275-.59.658-1.046 1.149-1.368.49-.321 1.057-.482 1.7-.482.497 0 .89.083 1.178.249.292.162.514.348.666.557.156.205.277.374.363.507h.1v-3.759h1.173V299h-1.134v-1.173h-.139a7.516 7.516 0 01-.368.527 2.189 2.189 0 01-.68.561c-.296.163-.688.244-1.179.244zm.16-1.054c.47 0 .867-.123 1.192-.368.325-.248.572-.591.741-1.029.169-.441.254-.949.254-1.526 0-.57-.083-1.069-.249-1.497-.166-.431-.411-.765-.736-1.004-.325-.242-.726-.363-1.203-.363-.497 0-.911.128-1.243.383a2.292 2.292 0 00-.74 1.029 4.093 4.093 0 00-.244 1.452c0 .543.083 1.037.248 1.481.17.441.418.792.746 1.054.332.259.743.388 1.233.388zm10.06-5.031l-1.053.298a1.956 1.956 0 00-.293-.512 1.431 1.431 0 00-.517-.418c-.22-.109-.5-.164-.84-.164-.468 0-.858.108-1.169.324-.308.212-.462.482-.462.81 0 .292.106.522.318.691.212.169.543.31.994.423l1.134.278c.682.166 1.191.419 1.526.761.335.338.502.774.502 1.307 0 .438-.126.829-.378 1.173-.248.345-.596.617-1.044.816-.447.199-.968.298-1.56.298-.78 0-1.424-.169-1.935-.507-.51-.338-.833-.832-.97-1.482l1.114-.278c.106.411.307.719.602.925.298.205.688.308 1.168.308.547 0 .981-.116 1.303-.348.325-.235.487-.517.487-.845a.888.888 0 00-.278-.666c-.186-.183-.471-.319-.855-.408l-1.273-.298c-.7-.166-1.213-.423-1.541-.771-.325-.351-.488-.79-.488-1.317 0-.431.121-.812.363-1.144a2.474 2.474 0 011-.78 3.508 3.508 0 011.441-.284c.756 0 1.35.166 1.78.497.434.332.743.769.925 1.313zM136.233 299v-10.182h3.56c.709 0 1.294.123 1.755.368.46.242.803.568 1.029.979.225.408.338.861.338 1.358 0 .437-.078.798-.234 1.084-.152.285-.355.51-.606.676a2.796 2.796 0 01-.811.368v.099c.312.02.625.129.94.328.315.199.578.484.79.855.212.371.318.826.318 1.362 0 .511-.116.97-.348 1.378-.232.407-.598.73-1.098.969-.501.239-1.152.358-1.954.358h-3.679zm1.233-1.094h2.446c.805 0 1.377-.156 1.715-.467.342-.315.512-.696.512-1.144 0-.344-.088-.662-.263-.954a1.91 1.91 0 00-.751-.706c-.325-.179-.709-.269-1.153-.269h-2.506v3.54zm0-4.613h2.287c.371 0 .706-.073 1.004-.219.302-.146.54-.351.716-.617.179-.265.268-.576.268-.934 0-.448-.155-.827-.467-1.139-.311-.315-.805-.472-1.481-.472h-2.327v3.381zm11.526 2.585v-4.514h1.173V299h-1.173v-1.293h-.08a2.505 2.505 0 01-.835.99c-.378.268-.855.402-1.432.402-.477 0-.901-.104-1.272-.313-.372-.212-.663-.53-.875-.954-.213-.428-.319-.966-.319-1.616v-4.852h1.174v4.772c0 .557.155 1.001.467 1.333.315.331.716.497 1.203.497a2 2 0 00.89-.224c.305-.149.56-.378.766-.686.208-.308.313-.701.313-1.178zm7.731-2.804l-1.054.298a1.954 1.954 0 00-.293-.512 1.43 1.43 0 00-.517-.418c-.219-.109-.499-.164-.84-.164-.468 0-.857.108-1.169.324-.308.212-.462.482-.462.81 0 .292.106.522.318.691.212.169.544.31.994.423l1.134.278c.683.166 1.192.419 1.526.761.335.338.502.774.502 1.307 0 .438-.126.829-.377 1.173-.249.345-.597.617-1.044.816-.448.199-.968.298-1.562.298-.778 0-1.423-.169-1.934-.507-.51-.338-.833-.832-.969-1.482l1.114-.278c.106.411.306.719.601.925.299.205.688.308 1.169.308.546 0 .981-.116 1.302-.348.325-.235.487-.517.487-.845a.886.886 0 00-.278-.666c-.186-.183-.471-.319-.855-.408l-1.273-.298c-.699-.166-1.213-.423-1.541-.771-.325-.351-.487-.79-.487-1.317 0-.431.121-.812.363-1.144a2.47 2.47 0 01.999-.78 3.508 3.508 0 011.442-.284c.755 0 1.349.166 1.779.497.435.332.743.769.925 1.313zm.906 5.926v-7.636h1.173V299h-1.173zm.596-8.909a.83.83 0 01-.591-.234.75.75 0 01-.244-.562c0-.218.081-.406.244-.561a.83.83 0 01.591-.234c.229 0 .424.078.587.234a.74.74 0 01.248.561.743.743 0 01-.248.562.818.818 0 01-.587.234zm2.899 4.315V299h-1.173v-7.636h1.133v1.193h.1c.179-.388.451-.7.815-.935.365-.238.835-.358 1.412-.358.517 0 .97.106 1.357.318.388.209.69.527.905.955.216.424.323.961.323 1.611V299h-1.173v-4.773c0-.6-.156-1.067-.467-1.402-.312-.338-.739-.507-1.283-.507-.375 0-.709.081-1.004.244a1.736 1.736 0 00-.691.711c-.169.311-.254.689-.254 1.133zm9.218 4.753c-.736 0-1.371-.162-1.904-.487a3.273 3.273 0 01-1.228-1.372c-.285-.59-.428-1.276-.428-2.059 0-.782.143-1.471.428-2.068.288-.6.689-1.067 1.203-1.402.517-.338 1.12-.507 1.81-.507.397 0 .79.066 1.178.199.388.133.741.348 1.059.646.318.295.572.686.761 1.174.188.487.283 1.087.283 1.799v.498h-5.886v-1.015h4.693c0-.431-.086-.815-.259-1.153a1.943 1.943 0 00-.726-.8c-.311-.196-.679-.294-1.103-.294-.468 0-.872.116-1.213.348a2.29 2.29 0 00-.781.895 2.632 2.632 0 00-.273 1.183v.676c0 .577.099 1.066.298 1.467.202.398.482.701.84.91.358.205.774.308 1.248.308.308 0 .587-.043.835-.129.252-.09.469-.222.651-.398.183-.179.324-.401.423-.666l1.134.318a2.51 2.51 0 01-.602 1.014c-.282.289-.63.514-1.044.676-.414.16-.88.239-1.397.239zm9.356-6.085l-1.054.298a1.93 1.93 0 00-.294-.512 1.42 1.42 0 00-.517-.418c-.218-.109-.498-.164-.84-.164-.467 0-.857.108-1.168.324-.308.212-.462.482-.462.81 0 .292.106.522.318.691.212.169.543.31.994.423l1.134.278c.682.166 1.191.419 1.526.761.335.338.502.774.502 1.307 0 .438-.126.829-.378 1.173-.248.345-.596.617-1.044.816-.447.199-.968.298-1.561.298-.779 0-1.423-.169-1.934-.507-.51-.338-.833-.832-.969-1.482l1.113-.278c.106.411.307.719.602.925.298.205.688.308 1.168.308.547 0 .981-.116 1.303-.348.325-.235.487-.517.487-.845a.89.89 0 00-.278-.666c-.186-.183-.471-.319-.856-.408l-1.272-.298c-.7-.166-1.213-.423-1.542-.771-.324-.351-.487-.79-.487-1.317 0-.431.121-.812.363-1.144.245-.331.579-.591.999-.78a3.511 3.511 0 011.442-.284c.756 0 1.349.166 1.78.497.434.332.743.769.925 1.313zm6.314 0l-1.054.298a1.954 1.954 0 00-.293-.512 1.43 1.43 0 00-.517-.418c-.219-.109-.499-.164-.84-.164-.468 0-.857.108-1.169.324-.308.212-.462.482-.462.81 0 .292.106.522.318.691.212.169.544.31.995.423l1.133.278c.683.166 1.192.419 1.526.761.335.338.502.774.502 1.307 0 .438-.125.829-.377 1.173-.249.345-.597.617-1.044.816-.448.199-.968.298-1.561.298-.779 0-1.424-.169-1.934-.507-.511-.338-.834-.832-.97-1.482l1.114-.278c.106.411.306.719.601.925.299.205.688.308 1.169.308.546 0 .981-.116 1.302-.348.325-.235.487-.517.487-.845a.886.886 0 00-.278-.666c-.186-.183-.471-.319-.855-.408l-1.273-.298c-.699-.166-1.213-.423-1.541-.771-.325-.351-.487-.79-.487-1.317 0-.431.121-.812.363-1.144a2.47 2.47 0 01.999-.78 3.508 3.508 0 011.442-.284c.755 0 1.349.166 1.78.497.434.332.742.769.924 1.313zM237.426 292h-1.233a2.555 2.555 0 00-.383-.935 2.543 2.543 0 00-.656-.676 2.772 2.772 0 00-.85-.417 3.388 3.388 0 00-.974-.14c-.617 0-1.175.156-1.676.468-.497.311-.893.77-1.188 1.377-.292.606-.438 1.35-.438 2.232 0 .882.146 1.626.438 2.232.295.607.691 1.066 1.188 1.377a3.105 3.105 0 001.676.468c.338 0 .662-.047.974-.139.312-.093.595-.231.85-.413a2.6 2.6 0 001.039-1.616h1.233a4.112 4.112 0 01-.507 1.397 3.803 3.803 0 01-2.143 1.7c-.45.15-.933.224-1.446.224-.869 0-1.641-.212-2.317-.636-.676-.424-1.208-1.028-1.596-1.81-.388-.782-.582-1.71-.582-2.784 0-1.074.194-2.002.582-2.784.388-.782.92-1.385 1.596-1.81.676-.424 1.448-.636 2.317-.636.513 0 .996.075 1.446.224.454.149.864.368 1.228.656.365.285.67.633.915 1.044.245.408.414.873.507 1.397zm.833 7v-7.636h1.134v1.153h.079c.14-.378.392-.684.756-.92a2.229 2.229 0 011.233-.353c.086 0 .194.002.323.005.13.004.227.009.294.015v1.193a3.667 3.667 0 00-.274-.044 2.605 2.605 0 00-.442-.035c-.372 0-.703.078-.995.234a1.759 1.759 0 00-.686.636 1.72 1.72 0 00-.248.92V299h-1.174zm4.209 0v-7.636h1.174V299h-1.174zm.597-8.909a.834.834 0 01-.592-.234.752.752 0 01-.243-.562.75.75 0 01.243-.561.834.834 0 01.592-.234c.229 0 .424.078.587.234a.744.744 0 01.248.561.746.746 0 01-.248.562.818.818 0 01-.587.234zm7.135 2.983l-1.054.298a1.959 1.959 0 00-.294-.512 1.42 1.42 0 00-.517-.418c-.218-.109-.498-.164-.84-.164-.467 0-.857.108-1.168.324-.308.212-.462.482-.462.81 0 .292.106.522.318.691.212.169.543.31.994.423l1.134.278c.682.166 1.191.419 1.526.761.335.338.502.774.502 1.307 0 .438-.126.829-.378 1.173-.248.345-.596.617-1.044.816-.447.199-.968.298-1.561.298-.779 0-1.424-.169-1.934-.507-.51-.338-.834-.832-.969-1.482l1.113-.278c.106.411.307.719.602.925.298.205.688.308 1.168.308.547 0 .981-.116 1.303-.348.324-.235.487-.517.487-.845a.887.887 0 00-.279-.666c-.185-.183-.47-.319-.855-.408l-1.272-.298c-.7-.166-1.213-.423-1.542-.771-.324-.351-.487-.79-.487-1.317 0-.431.121-.812.363-1.144.245-.331.579-.591.999-.78a3.511 3.511 0 011.442-.284c.756 0 1.349.166 1.78.497.434.332.742.769.925 1.313zm4.107 6.085c-.736 0-1.371-.162-1.904-.487a3.266 3.266 0 01-1.228-1.372c-.285-.59-.428-1.276-.428-2.059 0-.782.143-1.471.428-2.068.288-.6.689-1.067 1.203-1.402.517-.338 1.12-.507 1.81-.507.397 0 .79.066 1.178.199.388.133.741.348 1.059.646.318.295.571.686.76 1.174.189.487.284 1.087.284 1.799v.498h-5.887v-1.015h4.694c0-.431-.087-.815-.259-1.153a1.943 1.943 0 00-.726-.8c-.311-.196-.679-.294-1.103-.294-.468 0-.872.116-1.214.348a2.288 2.288 0 00-.78.895 2.632 2.632 0 00-.274 1.183v.676c0 .577.1 1.066.299 1.467.202.398.482.701.84.91.358.205.774.308 1.248.308.308 0 .586-.043.835-.129.252-.09.469-.222.651-.398.183-.179.323-.401.423-.666l1.133.318a2.497 2.497 0 01-.601 1.014c-.282.289-.63.514-1.044.676-.414.16-.88.239-1.397.239zm9.356-6.085l-1.054.298a1.959 1.959 0 00-.294-.512 1.43 1.43 0 00-.517-.418c-.218-.109-.499-.164-.84-.164-.467 0-.857.108-1.168.324-.308.212-.463.482-.463.81 0 .292.106.522.319.691.212.169.543.31.994.423l1.133.278c.683.166 1.192.419 1.527.761.334.338.502.774.502 1.307 0 .438-.126.829-.378 1.173-.249.345-.597.617-1.044.816-.447.199-.968.298-1.561.298-.779 0-1.424-.169-1.934-.507-.51-.338-.834-.832-.97-1.482l1.114-.278c.106.411.307.719.602.925.298.205.687.308 1.168.308.547 0 .981-.116 1.303-.348.324-.235.487-.517.487-.845a.887.887 0 00-.279-.666c-.185-.183-.47-.319-.855-.408l-1.272-.298c-.7-.166-1.214-.423-1.542-.771-.324-.351-.487-.79-.487-1.317 0-.431.121-.812.363-1.144a2.47 2.47 0 01.999-.78 3.511 3.511 0 011.442-.284c.756 0 1.349.166 1.78.497.434.332.742.769.925 1.313zm36.53-1.074a3.572 3.572 0 00-.432-.9 2.781 2.781 0 00-.632-.686 2.64 2.64 0 00-.825-.432c-.308-.1-.646-.15-1.014-.15a3.02 3.02 0 00-1.646.468c-.494.311-.886.77-1.178 1.377-.292.606-.438 1.35-.438 2.232 0 .882.148 1.626.443 2.232.295.607.694 1.066 1.198 1.377a3.165 3.165 0 001.7.468c.584 0 1.097-.124 1.542-.373a2.653 2.653 0 001.044-1.064c.251-.461.377-1.003.377-1.626l.378.08h-3.062v-1.094h3.878v1.094c0 .838-.179 1.568-.537 2.187a3.712 3.712 0 01-1.472 1.442c-.623.338-1.339.507-2.148.507-.901 0-1.693-.212-2.376-.636-.68-.424-1.21-1.028-1.591-1.81-.378-.782-.567-1.71-.567-2.784 0-.805.108-1.53.323-2.172a4.808 4.808 0 01.925-1.651 4.044 4.044 0 011.412-1.044 4.366 4.366 0 011.795-.363c.537 0 1.037.081 1.501.244.468.159.883.386 1.248.681.368.291.675.641.92 1.049a4 4 0 01.507 1.347h-1.273zm5.487 7.159c-.736 0-1.371-.162-1.904-.487a3.266 3.266 0 01-1.228-1.372c-.285-.59-.428-1.276-.428-2.059 0-.782.143-1.471.428-2.068.288-.6.689-1.067 1.203-1.402.517-.338 1.12-.507 1.81-.507.397 0 .79.066 1.178.199.388.133.741.348 1.059.646.318.295.571.686.76 1.174.189.487.284 1.087.284 1.799v.498h-5.887v-1.015h4.694c0-.431-.087-.815-.259-1.153a1.943 1.943 0 00-.726-.8c-.311-.196-.679-.294-1.103-.294-.468 0-.872.116-1.214.348a2.288 2.288 0 00-.78.895 2.632 2.632 0 00-.273 1.183v.676c0 .577.099 1.066.298 1.467.202.398.482.701.84.91.358.205.774.308 1.248.308.308 0 .587-.043.835-.129.252-.09.469-.222.651-.398.183-.179.324-.401.423-.666l1.133.318a2.497 2.497 0 01-.601 1.014c-.282.289-.63.514-1.044.676-.414.16-.88.239-1.397.239zm5.12-4.753V299h-1.173v-7.636h1.133v1.193h.1c.179-.388.45-.7.815-.935.364-.238.835-.358 1.412-.358.517 0 .969.106 1.357.318.388.209.689.527.905.955.215.424.323.961.323 1.611V299h-1.173v-4.773c0-.6-.156-1.067-.468-1.402-.311-.338-.739-.507-1.282-.507-.375 0-.71.081-1.005.244a1.742 1.742 0 00-.691.711c-.169.311-.253.689-.253 1.133zm9.218 4.753c-.736 0-1.371-.162-1.904-.487a3.266 3.266 0 01-1.228-1.372c-.285-.59-.428-1.276-.428-2.059 0-.782.143-1.471.428-2.068.288-.6.689-1.067 1.203-1.402.517-.338 1.12-.507 1.809-.507.398 0 .791.066 1.179.199.387.133.74.348 1.059.646.318.295.571.686.76 1.174.189.487.284 1.087.284 1.799v.498h-5.887v-1.015h4.694c0-.431-.087-.815-.259-1.153a1.943 1.943 0 00-.726-.8c-.311-.196-.679-.294-1.104-.294-.467 0-.871.116-1.213.348a2.288 2.288 0 00-.78.895 2.632 2.632 0 00-.274 1.183v.676c0 .577.1 1.066.299 1.467.202.398.482.701.84.91.358.205.774.308 1.248.308.308 0 .586-.043.835-.129.252-.09.469-.222.651-.398.183-.179.323-.401.423-.666l1.133.318a2.497 2.497 0 01-.601 1.014c-.282.289-.63.514-1.044.676-.415.16-.88.239-1.397.239zm3.946-.159v-7.636h1.134v1.153h.08c.139-.378.391-.684.755-.92a2.229 2.229 0 011.233-.353c.086 0 .194.002.323.005.13.004.227.009.294.015v1.193a3.667 3.667 0 00-.274-.044 2.597 2.597 0 00-.442-.035 2.08 2.08 0 00-.995.234 1.759 1.759 0 00-.686.636 1.72 1.72 0 00-.248.92V299h-1.174zm6.457.179c-.484 0-.923-.091-1.318-.273a2.266 2.266 0 01-.939-.801c-.232-.351-.348-.775-.348-1.273 0-.437.086-.792.258-1.064.172-.275.403-.49.691-.646.288-.156.607-.272.955-.348.351-.079.704-.142 1.059-.189.464-.059.84-.104 1.128-.134.292-.033.504-.088.637-.164.135-.076.203-.209.203-.398v-.04c0-.49-.134-.871-.402-1.143-.266-.272-.668-.408-1.208-.408-.561 0-1 .123-1.318.368-.318.245-.542.507-.671.786l-1.114-.398c.199-.464.464-.825.796-1.084a2.977 2.977 0 011.093-.547 4.547 4.547 0 011.174-.159c.245 0 .527.03.845.09.321.056.631.174.93.353.301.179.551.449.75.81.199.361.299.845.299 1.452V299h-1.174v-1.034h-.059c-.08.166-.212.343-.398.532-.186.189-.433.35-.741.482-.308.133-.684.199-1.128.199zm.179-1.054c.464 0 .855-.091 1.173-.273.321-.183.563-.418.726-.706.165-.289.248-.592.248-.91v-1.074c-.049.06-.159.114-.328.164a5.567 5.567 0 01-.576.124c-.216.033-.426.063-.632.09-.202.023-.366.043-.492.059-.305.04-.59.105-.855.194a1.475 1.475 0 00-.637.393c-.159.172-.238.408-.238.706 0 .408.151.716.452.925.305.205.691.308 1.159.308zm5.635-9.307V299h-1.173v-10.182h1.173zm12.32 0V299h-1.193l-5.549-7.994h-.099V299h-1.233v-10.182h1.193l5.568 8.014h.1v-8.014h1.213zm4.51 10.341c-.736 0-1.371-.162-1.904-.487a3.266 3.266 0 01-1.228-1.372c-.286-.59-.428-1.276-.428-2.059 0-.782.142-1.471.428-2.068.288-.6.689-1.067 1.203-1.402.517-.338 1.12-.507 1.809-.507.398 0 .791.066 1.179.199.387.133.74.348 1.059.646.318.295.571.686.76 1.174.189.487.284 1.087.284 1.799v.498h-5.887v-1.015h4.693c0-.431-.086-.815-.258-1.153a1.943 1.943 0 00-.726-.8c-.312-.196-.679-.294-1.104-.294-.467 0-.871.116-1.213.348a2.288 2.288 0 00-.78.895 2.62 2.62 0 00-.274 1.183v.676c0 .577.1 1.066.299 1.467.202.398.482.701.84.91.358.205.774.308 1.248.308.308 0 .586-.043.835-.129.252-.09.469-.222.651-.398a1.82 1.82 0 00.423-.666l1.133.318c-.119.385-.32.723-.601 1.014-.282.289-.63.514-1.044.676-.415.16-.88.239-1.397.239zm5.676-.159l-2.326-7.636h1.233l1.65 5.846h.08l1.631-5.846h1.252l1.611 5.826h.08l1.65-5.826h1.233L364.509 299h-1.154l-1.67-5.866h-.12l-1.67 5.866h-1.154zm14.054-5.926l-1.054.298a1.954 1.954 0 00-.293-.512 1.43 1.43 0 00-.517-.418c-.219-.109-.499-.164-.84-.164-.467 0-.857.108-1.168.324-.309.212-.463.482-.463.81 0 .292.106.522.318.691.213.169.544.31.995.423l1.133.278c.683.166 1.192.419 1.527.761.334.338.502.774.502 1.307 0 .438-.126.829-.378 1.173-.249.345-.597.617-1.044.816-.448.199-.968.298-1.561.298-.779 0-1.424-.169-1.934-.507-.511-.338-.834-.832-.97-1.482l1.114-.278c.106.411.307.719.601.925.299.205.688.308 1.169.308.547 0 .981-.116 1.302-.348.325-.235.488-.517.488-.845a.887.887 0 00-.279-.666c-.185-.183-.47-.319-.855-.408l-1.273-.298c-.699-.166-1.213-.423-1.541-.771-.325-.351-.487-.79-.487-1.317 0-.431.121-.812.363-1.144a2.47 2.47 0 01.999-.78 3.508 3.508 0 011.442-.284c.756 0 1.349.166 1.78.497.434.332.742.769.924 1.313zm13.006-1.71a1.562 1.562 0 00-.726-1.174c-.424-.278-.944-.417-1.561-.417-.451 0-.845.073-1.183.218a1.894 1.894 0 00-.786.602 1.445 1.445 0 00-.278.87c0 .272.065.506.194.701.133.192.302.353.507.482.206.126.421.231.646.314.226.079.433.144.622.193l1.034.279c.265.069.56.166.885.288.328.123.641.29.939.502.302.209.551.478.746.806.196.328.294.731.294 1.208 0 .55-.145 1.047-.433 1.491-.285.444-.703.797-1.253 1.059-.547.262-1.211.393-1.993.393-.73 0-1.361-.118-1.895-.353-.53-.235-.948-.563-1.252-.984a2.809 2.809 0 01-.513-1.467h1.273c.033.384.163.703.388.955a2.1 2.1 0 00.865.556c.351.12.729.179 1.134.179.47 0 .893-.076 1.267-.228.375-.156.671-.372.89-.647.219-.278.328-.603.328-.974 0-.338-.094-.613-.283-.825a2.078 2.078 0 00-.746-.517 7.687 7.687 0 00-.999-.348l-1.253-.358c-.795-.229-1.425-.556-1.889-.98-.464-.424-.696-.979-.696-1.665 0-.57.154-1.068.462-1.492a3.073 3.073 0 011.253-.994 4.224 4.224 0 011.765-.358c.656 0 1.24.118 1.75.353.51.232.915.55 1.213.955.302.404.461.863.477 1.377h-1.193zm5.522 0v.994h-3.958v-.994h3.958zm-2.804-1.83h1.173v7.278c0 .332.048.581.144.746.1.163.225.272.378.328.156.053.32.08.492.08.129 0 .235-.007.318-.02l.199-.04.239 1.054a2.469 2.469 0 01-.875.139c-.332 0-.656-.071-.975-.213a1.944 1.944 0 01-.785-.652c-.206-.291-.308-.659-.308-1.103v-7.597zm5.816 9.645c-.484 0-.923-.091-1.318-.273a2.266 2.266 0 01-.939-.801c-.232-.351-.348-.775-.348-1.273 0-.437.086-.792.258-1.064.172-.275.403-.49.691-.646.289-.156.607-.272.955-.348.351-.079.704-.142 1.059-.189.464-.059.84-.104 1.128-.134.292-.033.504-.088.637-.164.135-.076.203-.209.203-.398v-.04c0-.49-.134-.871-.402-1.143-.265-.272-.668-.408-1.208-.408-.561 0-1 .123-1.318.368-.318.245-.542.507-.671.786l-1.114-.398c.199-.464.464-.825.796-1.084a2.981 2.981 0 011.094-.547 4.534 4.534 0 011.173-.159c.245 0 .527.03.845.09.321.056.631.174.93.353.301.179.552.449.75.81.199.361.299.845.299 1.452V299h-1.174v-1.034h-.059c-.08.166-.212.343-.398.532-.186.189-.433.35-.741.482-.308.133-.684.199-1.128.199zm.179-1.054c.464 0 .855-.091 1.173-.273.321-.183.563-.418.726-.706.166-.289.248-.592.248-.91v-1.074c-.049.06-.159.114-.328.164a5.51 5.51 0 01-.576.124c-.216.033-.426.063-.632.09-.202.023-.366.043-.492.059-.305.04-.59.105-.855.194a1.465 1.465 0 00-.636.393c-.16.172-.239.408-.239.706 0 .408.151.716.452.925.305.205.691.308 1.159.308zm5.556-1.909l-.02-1.452h.239l3.341-3.4h1.451l-3.559 3.599h-.1l-1.352 1.253zM398.976 299v-10.182h1.174V299h-1.174zm4.852 0l-2.982-3.778.835-.816L405.32 299h-1.492zm4.651.159c-.736 0-1.371-.162-1.904-.487a3.266 3.266 0 01-1.228-1.372c-.285-.59-.428-1.276-.428-2.059 0-.782.143-1.471.428-2.068.288-.6.689-1.067 1.203-1.402.517-.338 1.12-.507 1.809-.507.398 0 .791.066 1.179.199.387.133.74.348 1.059.646.318.295.571.686.76 1.174.189.487.284 1.087.284 1.799v.498h-5.887v-1.015h4.693c0-.431-.086-.815-.258-1.153a1.943 1.943 0 00-.726-.8c-.311-.196-.679-.294-1.104-.294-.467 0-.871.116-1.213.348a2.288 2.288 0 00-.78.895 2.62 2.62 0 00-.274 1.183v.676c0 .577.1 1.066.299 1.467.202.398.482.701.84.91.358.205.774.308 1.248.308.308 0 .586-.043.835-.129.252-.09.469-.222.651-.398a1.82 1.82 0 00.423-.666l1.133.318c-.119.385-.32.723-.601 1.014-.282.289-.63.514-1.044.676-.415.16-.88.239-1.397.239zm8.057-4.753V299h-1.173v-10.182h1.173v3.739h.1c.179-.395.447-.708.805-.94.361-.235.842-.353 1.442-.353.52 0 .976.105 1.367.313.391.206.694.522.91.95.219.424.328.964.328 1.621V299h-1.173v-4.773c0-.606-.158-1.075-.473-1.407-.311-.334-.744-.502-1.297-.502-.385 0-.729.081-1.034.244a1.769 1.769 0 00-.716.711c-.173.311-.259.689-.259 1.133zm9.201 4.753c-.69 0-1.295-.164-1.815-.492a3.345 3.345 0 01-1.213-1.377c-.288-.59-.433-1.28-.433-2.068 0-.796.145-1.49.433-2.084a3.347 3.347 0 011.213-1.382c.52-.328 1.125-.492 1.815-.492.689 0 1.292.164 1.809.492.521.329.925.789 1.213 1.382.292.594.438 1.288.438 2.084 0 .788-.146 1.478-.438 2.068a3.29 3.29 0 01-1.213 1.377c-.517.328-1.12.492-1.809.492zm0-1.054c.523 0 .954-.134 1.292-.403.338-.268.589-.621.751-1.059.162-.437.244-.911.244-1.421 0-.511-.082-.986-.244-1.427a2.403 2.403 0 00-.751-1.069c-.338-.272-.769-.408-1.292-.408-.524 0-.955.136-1.293.408a2.411 2.411 0 00-.751 1.069 4.104 4.104 0 00-.243 1.427c0 .51.081.984.243 1.421.163.438.413.791.751 1.059.338.269.769.403 1.293.403zm5.424-9.287V299h-1.173v-10.182h1.173zm4.033 10.341c-.637 0-1.198-.161-1.686-.482-.487-.325-.868-.782-1.143-1.372-.275-.594-.413-1.295-.413-2.103 0-.802.138-1.498.413-2.088.275-.59.658-1.046 1.148-1.368.491-.321 1.058-.482 1.701-.482.497 0 .89.083 1.178.249.292.162.514.348.666.557.156.205.277.374.363.507h.099v-3.759h1.174V299h-1.134v-1.173h-.139a7.523 7.523 0 01-.368.527 2.182 2.182 0 01-.681.561c-.295.163-.688.244-1.178.244zm.159-1.054c.47 0 .868-.123 1.193-.368.325-.248.572-.591.741-1.029.169-.441.253-.949.253-1.526 0-.57-.083-1.069-.248-1.497-.166-.431-.411-.765-.736-1.004-.325-.242-.726-.363-1.203-.363-.497 0-.912.128-1.243.383a2.296 2.296 0 00-.741 1.029 4.102 4.102 0 00-.243 1.452c0 .543.082 1.037.248 1.481.169.441.418.792.746 1.054.331.259.742.388 1.233.388zm7.854 1.054c-.736 0-1.37-.162-1.904-.487a3.273 3.273 0 01-1.228-1.372c-.285-.59-.427-1.276-.427-2.059 0-.782.142-1.471.427-2.068.288-.6.69-1.067 1.203-1.402.517-.338 1.12-.507 1.81-.507.398 0 .79.066 1.178.199.388.133.741.348 1.059.646.318.295.572.686.761 1.174.189.487.283 1.087.283 1.799v.498h-5.886v-1.015h4.693c0-.431-.086-.815-.259-1.153a1.948 1.948 0 00-.725-.8c-.312-.196-.68-.294-1.104-.294-.467 0-.872.116-1.213.348a2.298 2.298 0 00-.781.895 2.632 2.632 0 00-.273 1.183v.676c0 .577.099 1.066.298 1.467.202.398.482.701.84.91.358.205.774.308 1.248.308.308 0 .587-.043.835-.129.252-.09.469-.222.652-.398.182-.179.323-.401.422-.666l1.134.318c-.119.385-.32.723-.602 1.014a2.905 2.905 0 01-1.044.676c-.414.16-.88.239-1.397.239zm3.947-.159v-7.636h1.133v1.153h.08c.139-.378.391-.684.756-.92a2.224 2.224 0 011.233-.353c.086 0 .194.002.323.005.129.004.227.009.293.015v1.193a3.702 3.702 0 00-.273-.044 2.617 2.617 0 00-.443-.035c-.371 0-.702.078-.994.234a1.712 1.712 0 00-.935 1.556V299h-1.173zm9.618-5.926l-1.054.298a1.954 1.954 0 00-.293-.512 1.438 1.438 0 00-.517-.418c-.219-.109-.499-.164-.841-.164-.467 0-.856.108-1.168.324-.308.212-.462.482-.462.81 0 .292.106.522.318.691.212.169.544.31.994.423l1.134.278c.683.166 1.191.419 1.526.761.335.338.502.774.502 1.307 0 .438-.126.829-.378 1.173-.248.345-.596.617-1.044.816-.447.199-.967.298-1.561.298-.779 0-1.423-.169-1.934-.507-.51-.338-.833-.832-.969-1.482l1.113-.278c.107.411.307.719.602.925.298.205.688.308 1.168.308.547 0 .981-.116 1.303-.348.325-.235.487-.517.487-.845a.89.89 0 00-.278-.666c-.186-.183-.471-.319-.855-.408l-1.273-.298c-.699-.166-1.213-.423-1.541-.771-.325-.351-.488-.79-.488-1.317 0-.431.121-.812.363-1.144a2.48 2.48 0 011-.78 3.506 3.506 0 011.441-.284c.756 0 1.349.166 1.78.497.434.332.743.769.925 1.313zM6.62 112.56v14.545H4.857v-12.699h-.085l-3.551 2.358v-1.789l3.636-2.415h1.761zm7.927 14.744c-1.07 0-1.982-.291-2.735-.873-.752-.587-1.328-1.437-1.725-2.55-.398-1.118-.597-2.467-.597-4.048 0-1.572.199-2.915.597-4.027.402-1.118.98-1.97 1.733-2.557.757-.592 1.666-.888 2.727-.888 1.06 0 1.967.296 2.72.888.758.587 1.335 1.439 1.733 2.557.402 1.112.604 2.455.604 4.027 0 1.581-.2 2.93-.597 4.048-.398 1.113-.973 1.963-1.726 2.55-.753.582-1.664.873-2.734.873zm0-1.562c1.06 0 1.884-.512 2.471-1.534.588-1.023.881-2.481.881-4.375 0-1.26-.135-2.332-.405-3.218-.265-.885-.648-1.56-1.15-2.024-.497-.464-1.096-.696-1.797-.696-1.051 0-1.873.519-2.465 1.556-.591 1.032-.887 2.492-.887 4.382 0 1.259.132 2.329.397 3.21.265.881.647 1.551 1.144 2.01.502.459 1.105.689 1.81.689zM6.62 58.732v14.545H4.857V60.578h-.085l-3.551 2.358v-1.79l3.636-2.414h1.761zm7.728 14.744c-.833 0-1.584-.165-2.251-.497a4.18 4.18 0 01-1.605-1.364 3.714 3.714 0 01-.661-1.974h1.705c.066.658.364 1.203.894 1.633.535.427 1.175.64 1.918.64.597 0 1.127-.14 1.59-.42.47-.279.837-.662 1.102-1.15.27-.492.405-1.049.405-1.669 0-.634-.14-1.2-.42-1.697a3.076 3.076 0 00-1.136-1.186c-.483-.29-1.034-.436-1.655-.44a4.546 4.546 0 00-1.37.205c-.47.138-.855.315-1.158.533l-1.648-.199.88-7.16h7.558v1.563h-6.08l-.511 4.29h.085a3.79 3.79 0 011.122-.59c.45-.156.919-.234 1.406-.234.89 0 1.684.213 2.38.64.7.42 1.25.999 1.648 1.732.402.734.603 1.572.603 2.515 0 .928-.208 1.756-.625 2.485a4.569 4.569 0 01-1.704 1.72c-.725.416-1.549.624-2.472.624zM6.42 19.199c-.937 0-1.773-.161-2.507-.483-.729-.322-1.309-.77-1.74-1.342-.426-.578-.658-1.248-.696-2.01h1.79c.038.468.199.873.483 1.214a2.79 2.79 0 001.115.781c.46.185.968.277 1.527.277.625 0 1.179-.108 1.662-.326a2.73 2.73 0 001.136-.91c.275-.388.412-.837.412-1.349 0-.535-.132-1.006-.397-1.413-.266-.412-.654-.734-1.165-.966-.512-.232-1.137-.348-1.875-.348H5V10.76h1.165c.577 0 1.084-.104 1.52-.312a2.45 2.45 0 001.03-.88c.25-.38.376-.825.376-1.336 0-.492-.109-.921-.327-1.286a2.234 2.234 0 00-.923-.852c-.393-.203-.857-.305-1.392-.305a3.67 3.67 0 00-1.42.277c-.44.18-.8.442-1.08.788-.28.341-.431.753-.455 1.236H1.79c.028-.762.258-1.43.689-2.003a4.337 4.337 0 011.69-1.35c.7-.321 1.47-.482 2.308-.482.9 0 1.672.182 2.316.547.644.36 1.138.835 1.484 1.427.346.592.519 1.231.519 1.918 0 .819-.216 1.517-.647 2.095-.426.577-1.006.978-1.74 1.2v.114c.919.151 1.636.542 2.152 1.172.516.625.774 1.399.774 2.322 0 .79-.215 1.501-.646 2.13-.426.626-1.009 1.118-1.747 1.478-.739.36-1.58.54-2.522.54zm11.564 0c-1.07 0-1.981-.291-2.734-.874-.753-.587-1.328-1.437-1.726-2.55-.398-1.117-.596-2.466-.596-4.048 0-1.572.198-2.914.596-4.027.403-1.117.98-1.97 1.733-2.557.758-.591 1.667-.887 2.727-.887 1.061 0 1.968.296 2.72.887.758.588 1.336 1.44 1.733 2.557.403 1.113.604 2.455.604 4.027 0 1.582-.199 2.931-.596 4.049-.398 1.112-.973 1.962-1.726 2.55-.753.582-1.665.873-2.735.873zm0-1.563c1.061 0 1.885-.511 2.472-1.534.587-1.023.88-2.48.88-4.375 0-1.26-.134-2.332-.404-3.217-.265-.885-.649-1.56-1.15-2.024a2.544 2.544 0 00-1.798-.696c-1.05 0-1.872.518-2.464 1.555-.592 1.032-.888 2.493-.888 4.382 0 1.26.133 2.33.398 3.21.265.881.646 1.551 1.143 2.01.502.46 1.106.69 1.811.69zM6.051 181.582c-.833 0-1.584-.166-2.251-.498a4.182 4.182 0 01-1.605-1.363 3.717 3.717 0 01-.66-1.975h1.704c.066.658.364 1.203.895 1.634.535.426 1.174.639 1.917.639.597 0 1.127-.14 1.591-.419a2.954 2.954 0 001.1-1.151 3.41 3.41 0 00.406-1.669c0-.634-.14-1.2-.42-1.697a3.076 3.076 0 00-1.136-1.186c-.483-.289-1.034-.436-1.654-.44a4.508 4.508 0 00-1.371.206c-.469.137-.855.314-1.158.532l-1.648-.199.881-7.159H10.2v1.563H4.12l-.511 4.29h.085a3.782 3.782 0 011.122-.59c.45-.156.919-.234 1.407-.234.89 0 1.683.213 2.379.639.7.421 1.25.999 1.648 1.733.402.734.603 1.572.603 2.514 0 .928-.208 1.757-.625 2.486a4.577 4.577 0 01-1.704 1.719c-.725.416-1.549.625-2.472.625zm.199 52.267c-1.07 0-1.982-.292-2.734-.874-.753-.587-1.329-1.437-1.726-2.55-.398-1.117-.597-2.467-.597-4.048 0-1.572.199-2.914.597-4.027.402-1.117.98-1.97 1.733-2.557.757-.592 1.666-.888 2.727-.888 1.06 0 1.967.296 2.72.888.758.587 1.335 1.44 1.733 2.557.403 1.113.604 2.455.604 4.027 0 1.581-.199 2.931-.597 4.048-.398 1.113-.973 1.963-1.726 2.55-.752.582-1.664.874-2.734.874zm0-1.563c1.06 0 1.884-.511 2.472-1.534.587-1.023.88-2.481.88-4.375 0-1.259-.135-2.332-.405-3.217-.265-.886-.648-1.56-1.15-2.024-.497-.464-1.096-.696-1.797-.696-1.051 0-1.873.518-2.464 1.555-.592 1.032-.888 2.493-.888 4.382 0 1.26.132 2.33.397 3.21.266.881.647 1.551 1.144 2.01.502.46 1.106.689 1.811.689z" fill="#7B91B0"/><rect x="47" y="166.577" width="16" height="81" rx="3.343" fill="#55ACEF"/><rect x="67" y="114" width="16" height="133.577" rx="3.343" fill="#4867AA"/><rect x="87" y="154.577" width="16" height="93" rx="3.343" fill="#4EC125"/><rect x="133" y="102" width="16" height="146" rx="3.343" fill="#55ACEF"/><rect x="153" y="140" width="16" height="108" rx="3.343" fill="#4867AA"/><rect x="173" y="155" width="16" height="93" rx="3.343" fill="#4EC125"/><rect x="219" y="222.577" width="16" height="25" rx="3.343" fill="#55ACEF"/><rect x="239" y="114" width="16" height="133.577" rx="3.343" fill="#4867AA"/><rect x="259" y="222.577" width="16" height="25" rx="3.343" fill="#4EC125"/><path d="M7 247.531h484" stroke="#AEB1B4" stroke-width="1.671" stroke-linecap="round"/></svg>