<svg width="66" height="66" viewBox="0 0 66 66" fill="none" xmlns="http://www.w3.org/2000/svg"><path opacity=".59" d="M27.747 63c-1.878 0-3.751-.187-5.592-.559A27.778 27.778 0 014.739 50.876a27.278 27.278 0 010-30.751A27.762 27.762 0 0122.155 8.559 28.15 28.15 0 0127.747 8v28.139l20.678 17.7a27.76 27.76 0 01-14.7 8.521 28.2 28.2 0 01-5.978.64z" fill="#fff"/><g filter="url(#filter0_d_18_16191)"><path d="M29.19 34.408V8a25.808 25.808 0 0125.808 25.808 25.714 25.714 0 01-6.575 17.209L29.19 34.408z" fill="#3CC480"/></g><defs><filter id="filter0_d_18_16191" x="18.19" y="0" width="47.808" height="65.017" filterUnits="userSpaceOnUse" color-interpolation-filters="sRGB"><feFlood flood-opacity="0" result="BackgroundImageFix"/><feColorMatrix in="SourceAlpha" values="0 0 0 0 0 0 0 0 0 0 0 0 0 0 0 0 0 0 127 0" result="hardAlpha"/><feOffset dy="3"/><feGaussianBlur stdDeviation="5.5"/><feColorMatrix values="0 0 0 0 0.235294 0 0 0 0 0.768627 0 0 0 0 0.501961 0 0 0 0.529 0"/><feBlend in2="BackgroundImageFix" result="effect1_dropShadow_18_16191"/><feBlend in="SourceGraphic" in2="effect1_dropShadow_18_16191" result="shape"/></filter></defs></svg>