<svg width="48" height="48" viewBox="0 0 48 48" fill="none" xmlns="http://www.w3.org/2000/svg"><g clip-path="url(#clip0_118_7)"><path d="M45 12.29v23.42c0 2.16-1.835 3.903-4.109 3.903H7.11c-2.275 0-4.11-1.744-4.11-3.904V12.29c0-.069 0-.138.01-.207.109-1.995 1.78-3.583 3.88-3.687.073-.008.146-.008.219-.008H40.89c.073 0 .155 0 .229.008 2.09.104 3.761 1.692 3.87 3.678.01.07.01.147.01.217z" fill="#E6F3FF"/><path d="M41.12 8.395c-.074-.008-.155-.008-.229-.008H24v31.226h16.891c2.274 0 4.109-1.744 4.109-3.903V12.29c0-.07 0-.147-.01-.217-.109-1.986-1.78-3.574-3.87-3.678z" fill="#CFDBE6"/><path d="M44.99 12.073c-.109-1.986-1.78-3.573-3.87-3.677L24 24.659 6.89 8.396c-2.1.104-3.771 1.69-3.88 3.686-.01.07-.01.139-.01.208v23.42c0 2.16 1.835 3.903 4.109 3.903h1.37V17.278l13.585 12.898c.53.512 1.233.763 1.936.763a2.78 2.78 0 001.936-.763l13.586-12.907v22.344h1.37c2.273 0 4.108-1.743 4.108-3.903V12.29c0-.07 0-.147-.01-.217z" fill="#FF4B26"/><path d="M25.936 30.176l13.586-12.907v22.344h1.37c2.273 0 4.108-1.743 4.108-3.903V12.29c0-.07 0-.147-.01-.217-.109-1.986-1.78-3.573-3.87-3.677L24 24.659v6.28a2.78 2.78 0 001.936-.763z" fill="#D93F21"/></g><defs><clipPath id="clip0_118_7"><path fill="#fff" transform="translate(3 4.05)" d="M0 0h42v39.9H0z"/></clipPath></defs></svg>