<svg xmlns="http://www.w3.org/2000/svg" width="520.223" height="62.528" viewBox="0 0 520.223 62.528"><defs><style>.a{fill:#eb0045}</style></defs><path class="a" d="M36.597 34.144H9.481c1.127 4.376 4.376 7.691 10.541 7.691a22.068 22.068 0 0011.669-3.647l3.713 6.564a27.346 27.346 0 01-15.779 4.972C6.099 49.724 0 40.509 0 30.824c0-10.807 7.558-18.962 18.829-18.962 10.276 0 18.1 6.7 18.1 18.166a27.151 27.151 0 01-.332 4.116zM9.481 27.182h18.365a8.741 8.741 0 00-9.017-7.558 9.257 9.257 0 00-9.348 7.558zm29.901-14.386h9.149v5.038c1.857-3.381 5.967-6.033 11.338-6.033 7.293 0 14.121 4.84 14.121 15.05v22.078h-9.348V29.37c0-5.834-3.116-8.95-7.624-8.95-4.906 0-8.287 3.713-8.287 9.149v19.36h-9.349zm64.377 34.011a20.027 20.027 0 01-10.674 2.984c-8.287 0-12.6-4.907-12.6-14.255V20.621h-5.9v-7.823h5.974v-12.8h9.282v12.8h11.933v7.823H89.837v14.321c0 4.176 1.591 6.364 5.1 6.364a12.209 12.209 0 006.033-1.856z"/><path class="a" d="M138.435 34.144h-27.117c1.127 4.376 4.376 7.691 10.542 7.691a22.061 22.061 0 0011.668-3.647l3.713 6.564a27.343 27.343 0 01-15.782 4.969c-13.525 0-19.625-9.215-19.625-18.9 0-10.807 7.559-18.962 18.83-18.962 10.276 0 18.1 6.7 18.1 18.166a27.151 27.151 0 01-.329 4.119zm-27.117-6.962h18.365a8.741 8.741 0 00-9.016-7.558 9.257 9.257 0 00-9.349 7.558zm88.867 3.647c0-11.006 7.956-18.962 19.425-18.962 7.161 0 13.791 3.514 16.84 10.078l-7.492 4.111a10.763 10.763 0 00-9.215-5.5 10.311 10.311 0 00-.2 20.619 10.678 10.678 0 009.216-5.44l7.558 4.442c-3.05 5.768-9.481 9.547-16.973 9.547-11.27-.003-19.159-7.889-19.159-18.895zm65.437 15.978a20.03 20.03 0 01-10.674 2.984c-8.288 0-12.6-4.907-12.6-14.255V20.621h-5.9v-7.823h5.967v-12.8h9.282v12.8h11.934v7.823h-11.932v14.321c0 4.176 1.591 6.364 5.105 6.364a12.205 12.205 0 006.033-1.856zM163.576 13.042c0 2.725-.036 5.251.02 7.776.018.843-.555.937-1.078 1.189-4.889 2.358-8.361 5.942-9.573 11.365a22.965 22.965 0 00-.461 4.584c-.065 3.632-.021 7.266-.021 10.973h-9.926c-.025-.388-.067-.759-.068-1.13-.005-3.13.126-6.267-.041-9.388a16.965 16.965 0 011.859-8.412c3.719-7.74 9.314-13.474 17.518-16.425.518-.186 1.054-.319 1.771-.532zm-20.954 13.344c0-5.582-.075-8.937-.075-14.66h9.772a3.374 3.374 0 01-1.107 3.585c-3.728 3.293-6.082 5.295-7.919 9.878-.167.416-.344.828-.516 1.241zm54.09-1.673c-.16-5.668-2.61-10.245-8.136-12.483-6.718-2.72-13.5-2.182-20.232.111-.26.089-.622.416-.626.638-.044 2.505-.028 5.011-.028 7.631.885-.319 1.593-.613 2.324-.831a19 19 0 0112.971.325 6.233 6.233 0 014.057 7.565c-1.8-.352-3.589-.843-5.406-1.016a30.759 30.759 0 00-5.644-.022c-5.955.541-11.287 3.385-11.52 10.861-.141 4.566 1.133 8.4 5.421 10.688 3.96 2.111 11.386 2.379 15.878-1.611.368-.328.76-.629 1.374-1.134v3.536h9.514a2.448 2.448 0 00.1-.454c.011-7.935.176-15.875-.047-23.804zm-14.524 17.683c-6.2 1.422-9.853-.1-9.752-4.571s4.267-5.79 8.33-5.384a51.154 51.154 0 015.79.813s1.829 7.72-4.368 9.142zm86.355-40.428V12h1.872V1.968h3.456V.176h-8.784v1.792zM275.535 12h1.828V4.432l3.856 5.632h.544l3.856-5.632V12h1.856V.176h-1.04l-4.932 7.248-4.96-7.248h-1.008z"/><path d="M324.763 29.376c0-10.368-6.976-16.448-15.936-16.448-10.368 0-17.024 7.68-17.024 17.856.004 8.896 5.188 17.984 17.796 17.984a23.936 23.936 0 0014.4-4.736l-1.792-2.944a21.608 21.608 0 01-12.544 4.096c-8.7 0-13.312-5.5-13.888-12.8h28.8a28.24 28.24 0 00.188-3.008zm-15.932-12.928c6.912 0 11.84 4.736 11.968 12.416h-25.024c.768-7.424 5.824-12.416 13.056-12.416zM330.783 48h3.84V28.8c0-8.9 6.08-12.352 11.328-12.352 6.272 0 10.176 4.416 10.176 11.584V48h3.836V27.328c0-9.6-6.272-14.464-13.568-14.464-5.44 0-9.856 2.3-11.9 6.912V13.76h-3.712zm65.472-34.24v6.14a15.659 15.659 0 00-13.376-6.976c-9.728 0-17.152 7.68-17.152 17.6 0 9.856 7.3 17.6 17.088 17.6a15.638 15.638 0 0013.44-7.168v4.416c0 8.32-5.248 13.632-13.824 13.632a21.1 21.1 0 01-12.8-4.416l-1.984 3.076a24.468 24.468 0 0014.716 4.864c10.88 0 17.728-6.72 17.728-17.536V13.76zm-13.312 30.848c-7.808 0-13.376-6.144-13.376-14.08 0-8 5.568-14.08 13.376-14.08 7.872 0 13.632 6.144 13.632 13.952 0 7.936-5.76 14.208-13.632 14.208zm53.82-30.848v6.592a15.527 15.527 0 00-13.5-7.424c-9.792 0-17.024 7.616-17.024 17.792s7.232 18.112 17.024 18.112a15.446 15.446 0 0013.5-7.488V48h3.712V13.76zm-13.308 31.552c-8 0-13.376-6.464-13.376-14.464s5.376-14.4 13.376-14.4c8.064 0 13.632 6.464 13.632 14.272 0 8-5.568 14.592-13.632 14.592zm53.76-31.552v6.14a15.659 15.659 0 00-13.376-6.976c-9.728 0-17.152 7.68-17.152 17.6 0 9.856 7.3 17.6 17.088 17.6a15.638 15.638 0 0013.44-7.168v4.416c0 8.32-5.248 13.632-13.824 13.632a21.1 21.1 0 01-12.8-4.416l-1.984 3.072a24.468 24.468 0 0014.72 4.864c10.88 0 17.728-6.72 17.728-17.536V13.76zm-13.312 30.848c-7.808 0-13.376-6.144-13.376-14.08 0-8 5.568-14.08 13.376-14.08 7.872 0 13.632 6.144 13.632 13.952 0 7.936-5.76 14.208-13.632 14.208zm56.32-15.232c0-10.368-6.976-16.448-15.936-16.448-10.368 0-17.024 7.68-17.024 17.856 0 8.9 5.184 17.984 17.792 17.984a23.936 23.936 0 0014.4-4.736l-1.792-2.944a21.608 21.608 0 01-12.544 4.1c-8.7 0-13.312-5.5-13.888-12.8h28.8a28.241 28.241 0 00.192-3.012zm-15.936-12.928c6.912 0 11.84 4.736 11.968 12.416h-25.024c.768-7.424 5.824-12.416 13.056-12.416z" fill="#98999b"/><path class="a" d="M276.055 49.024a5.493 5.493 0 005.5-5.632 5.518 5.518 0 00-5.5-5.568 5.561 5.561 0 00-5.692 5.568 5.536 5.536 0 005.692 5.632z"/></svg>