<svg width="581" height="441" viewBox="0 0 581 441" fill="none" xmlns="http://www.w3.org/2000/svg"><path fill-rule="evenodd" clip-rule="evenodd" d="M45.925 223.048c.004-20.861 19.561-47.121 30.447-64.917 21.728-35.522 42.935-97.446 69.241-97.446 38.212 0 50.51-18.186 75.052-18.186 24.541 0 50.953 93.053 84.971 93.053s48.292-99.115 82.452-99.115 81.381 66.682 114.021 66.682c28.47 0 75.052-.086 75.052 28.384v180.645c0 17.673-14.327 32-32 32H77.978c-17.655 0-31.973-14.252-31.994-31.906-.03-25.497-.064-61.434-.059-89.194z" fill="url(#paint0_linear_113_415)"/><circle cx="573.288" cy="123.023" r="5.2" fill="#FFA800"/><circle cx="575.143" cy="236.4" r="5.2" fill="#00A3FF"/><path d="M47.651 208.022c23.453-41.493 78.922-146.537 97.962-146.537 38.212 0 50.51-18.186 75.052-18.186 24.542 0 49.464 91.544 83.482 91.544s49.781-97.606 83.941-97.606c32.85 0 80.213 62.849 112.825 67.671 2.534.374 5.089-.044 7.601-.547 42.304-8.464 64.414 19.166 64.414 19.166" stroke="#FFA800" stroke-width="3.2" stroke-linecap="round"/><path d="M509.779 103.057a5.2 5.2 0 11-10.401-.001 5.2 5.2 0 0110.401.001z" fill="#FFA800"/><circle cx="388.957" cy="35.575" r="5.2" fill="#FFA800"/><circle cx="305.252" cy="133.585" r="5.2" fill="#FFA800"/><circle cx="221.535" cy="41.637" r="5.2" fill="#FFA800"/><circle cx="146.483" cy="59.823" r="5.2" fill="#FFA800"/><circle cx="46.895" cy="206.764" r="5.2" fill="#FFA800"/><path d="M45.943 273.2c21.2-30 64.8-74.156 87.6-84 12.976-5.602 18.39-4.654 36.076-4.335 5.406.097 10.717-1.414 15.641-3.645 61.69-27.948 80.166 43.58 118.283 43.58 34.039 0 50.619-54.4 84.8-54.4s74.54 36.8 107.2 36.8c64.4-6 81.6 31.6 81.6 31.6" stroke="#00A3FF" stroke-width="3.2" stroke-linecap="round"/><path fill-rule="evenodd" clip-rule="evenodd" d="M45.946 286.157c-.012-19.04 17.536-36.812 31.62-49.625 21.317-19.396 42.23-51.753 68.058-51.753 38.21 0 50.507-9.856 75.047-9.856s50.95 50.43 84.966 50.43c34.015 0 48.288-53.715 82.446-53.715s81.375 36.138 114.013 36.138c.32 0 .641-.005.963-.016 30.629-1.01 74.084 8.551 74.084 39.197v66.123c0 17.72-14.401 32.066-32.121 31.999L77.841 343.32c-17.594-.066-31.834-14.322-31.864-31.916a25188.4 25188.4 0 01-.03-25.247z" fill="url(#paint1_linear_113_415)"/><path d="M499.543 206.8a5.2 5.2 0 11-10.4 0 5.2 5.2 0 0110.4 0z" fill="#00A3FF"/><circle cx="383.143" cy="170" r="5.2" fill="#00A3FF"/><circle cx="303.143" cy="226" r="5.2" fill="#00A3FF"/><circle cx="174.343" cy="185.2" r="5.2" fill="#00A3FF"/><circle cx="135.943" cy="185.2" r="5.2" fill="#00A3FF"/><circle cx="47.143" cy="273.2" r="5.2" fill="#00A3FF"/><path d="M1.307 75.2v-.818l3.072-3.364c.361-.394.658-.736.891-1.027.234-.294.406-.57.518-.827a1.99 1.99 0 00.173-.818c0-.328-.079-.611-.236-.85a1.534 1.534 0 00-.637-.555 2.063 2.063 0 00-.909-.195c-.357 0-.67.074-.936.222-.264.146-.468.35-.614.614a1.922 1.922 0 00-.213.927H1.343c0-.545.126-1.024.377-1.436a2.621 2.621 0 011.028-.964c.436-.23.925-.345 1.468-.345.545 0 1.029.115 1.45.345.421.23.751.541.99.932.24.391.36.826.36 1.305 0 .342-.062.677-.187 1.004-.12.324-.333.687-.636 1.087-.3.397-.717.881-1.25 1.454l-2.09 2.236v.073h4.326v1H1.307zm10.786.127c-.685 0-1.268-.186-1.75-.559-.482-.375-.85-.92-1.105-1.631-.254-.716-.381-1.58-.381-2.591 0-1.006.127-1.866.381-2.578.258-.715.628-1.26 1.11-1.636.484-.379 1.066-.568 1.745-.568s1.26.19 1.74.568c.486.376.855.921 1.11 1.636.258.712.386 1.572.386 2.578 0 1.012-.127 1.875-.381 2.59-.255.713-.623 1.257-1.105 1.632-.482.373-1.065.56-1.75.56zm0-1c.679 0 1.206-.327 1.582-.981.376-.655.563-1.588.563-2.8 0-.806-.086-1.493-.259-2.06-.17-.566-.415-.998-.736-1.295a1.625 1.625 0 00-1.15-.445c-.673 0-1.198.332-1.577.995-.379.66-.568 1.596-.568 2.805 0 .806.084 1.49.254 2.054.17.564.414.993.732 1.287.321.293.708.44 1.159.44zm7.873 1a3.197 3.197 0 01-1.441-.318 2.676 2.676 0 01-1.027-.872 2.378 2.378 0 01-.423-1.264h1.09c.043.421.234.77.573 1.045.343.273.752.41 1.228.41.382 0 .721-.09 1.018-.269.3-.178.535-.424.704-.736.173-.315.26-.671.26-1.068 0-.406-.09-.768-.269-1.087a1.968 1.968 0 00-.727-.759 2.054 2.054 0 00-1.059-.282 2.908 2.908 0 00-.877.132 2.44 2.44 0 00-.741.341l-1.055-.127.564-4.582h4.836v1h-3.89l-.328 2.746h.055c.19-.152.43-.278.718-.378.288-.1.588-.15.9-.15.57 0 1.077.137 1.523.41.448.27.8.639 1.054 1.108.258.47.386 1.007.386 1.61a3.15 3.15 0 01-.4 1.59c-.263.464-.627.83-1.09 1.1-.464.267-.991.4-1.582.4zM4.58 209.091v9.309H3.451v-8.127h-.054l-2.273 1.509v-1.145l2.327-1.546H4.58zm5.713 9.436c-.685 0-1.268-.186-1.75-.559-.482-.375-.85-.919-1.105-1.631-.254-.716-.381-1.579-.381-2.591 0-1.006.127-1.866.381-2.578.258-.715.628-1.26 1.11-1.636.484-.379 1.066-.568 1.745-.568s1.26.189 1.74.568c.486.376.856.921 1.11 1.636.258.712.386 1.572.386 2.578 0 1.012-.127 1.875-.381 2.591-.255.712-.623 1.256-1.105 1.631-.482.373-1.065.559-1.75.559zm0-1c.679 0 1.206-.327 1.582-.981.376-.655.563-1.588.563-2.8 0-.806-.086-1.493-.259-2.059-.17-.567-.415-.999-.736-1.296a1.625 1.625 0 00-1.15-.445c-.673 0-1.198.331-1.577.995-.379.661-.568 1.596-.568 2.805 0 .806.084 1.491.254 2.054.17.564.414.993.732 1.287.321.293.707.44 1.159.44zm8 1c-.685 0-1.268-.186-1.75-.559-.482-.375-.85-.919-1.104-1.631-.255-.716-.382-1.579-.382-2.591 0-1.006.127-1.866.381-2.578.258-.715.628-1.26 1.11-1.636.484-.379 1.066-.568 1.745-.568s1.26.189 1.74.568c.486.376.855.921 1.11 1.636.258.712.386 1.572.386 2.578 0 1.012-.127 1.875-.381 2.591-.255.712-.623 1.256-1.105 1.631-.482.373-1.065.559-1.75.559zm0-1c.679 0 1.206-.327 1.582-.981.376-.655.564-1.588.564-2.8 0-.806-.087-1.493-.26-2.059-.17-.567-.415-.999-.736-1.296a1.625 1.625 0 00-1.15-.445c-.673 0-1.198.331-1.577.995-.379.661-.568 1.596-.568 2.805 0 .806.084 1.491.254 2.054.17.564.414.993.732 1.287.321.293.707.44 1.159.44zM4.58 137.091v9.309H3.451v-8.127h-.054l-2.273 1.509v-1.145l2.327-1.546H4.58zm5.586 9.436a3.198 3.198 0 01-1.441-.318 2.68 2.68 0 01-1.027-.872 2.379 2.379 0 01-.423-1.264h1.09c.043.421.234.77.573 1.045.343.273.752.409 1.228.409.382 0 .721-.089 1.018-.268.3-.179.535-.424.705-.736.172-.315.259-.671.259-1.068 0-.406-.09-.768-.269-1.087a1.97 1.97 0 00-.727-.759 2.053 2.053 0 00-1.059-.282 2.908 2.908 0 00-.877.132c-.3.088-.547.202-.741.341l-1.055-.127.564-4.582h4.836v1H8.93l-.328 2.746h.055c.19-.152.43-.278.718-.378.288-.1.588-.15.9-.15a2.864 2.864 0 012.577 1.518c.258.47.386 1.006.386 1.61 0 .593-.133 1.124-.4 1.59a2.917 2.917 0 01-1.09 1.1c-.464.267-.991.4-1.582.4zm7.915 0c-.685 0-1.269-.186-1.75-.559-.482-.375-.85-.919-1.105-1.631-.255-.716-.382-1.579-.382-2.591 0-1.006.127-1.866.382-2.578.257-.715.627-1.26 1.11-1.636.484-.379 1.066-.568 1.745-.568.678 0 1.259.189 1.74.568.485.376.855.921 1.11 1.636.257.712.386 1.572.386 2.578 0 1.012-.127 1.875-.382 2.591-.255.712-.623 1.256-1.104 1.631-.482.373-1.066.559-1.75.559zm0-1c.678 0 1.206-.327 1.581-.981.376-.655.564-1.588.564-2.8 0-.806-.086-1.493-.26-2.059-.169-.567-.414-.999-.736-1.296a1.625 1.625 0 00-1.15-.445c-.672 0-1.198.331-1.577.995-.378.661-.568 1.596-.568 2.805 0 .806.085 1.491.255 2.054.17.564.413.993.731 1.287.322.293.708.44 1.16.44zM3.873 290.611a3.185 3.185 0 01-1.441-.319 2.68 2.68 0 01-1.027-.872 2.379 2.379 0 01-.423-1.264h1.09c.043.421.234.77.573 1.046.343.272.752.409 1.228.409.382 0 .72-.09 1.018-.269.3-.178.535-.424.704-.736.173-.315.26-.671.26-1.068 0-.406-.09-.768-.269-1.086a1.966 1.966 0 00-.727-.76 2.062 2.062 0 00-1.059-.281 2.937 2.937 0 00-.877.131c-.3.088-.547.202-.741.341l-1.055-.127.564-4.582h4.836v1h-3.89l-.328 2.746h.055c.19-.152.43-.278.718-.378.288-.1.588-.15.9-.15.57 0 1.077.137 1.523.41.448.269.8.639 1.054 1.109.258.469.386 1.006.386 1.609a3.15 3.15 0 01-.4 1.591 2.93 2.93 0 01-1.09 1.1c-.464.266-.991.4-1.582.4zm7.86 0c-.624 0-1.176-.111-1.655-.332a2.709 2.709 0 01-1.113-.923 2.317 2.317 0 01-.396-1.345 2.473 2.473 0 01.878-1.932 1.98 1.98 0 01.922-.432v-.055a1.796 1.796 0 01-1.063-.75 2.268 2.268 0 01-.391-1.322 2.244 2.244 0 01.359-1.268 2.526 2.526 0 011-.882 3.202 3.202 0 011.459-.323c.54 0 1.021.108 1.445.323.425.215.758.509 1 .882.246.372.37.795.373 1.268a2.3 2.3 0 01-.404 1.322 1.793 1.793 0 01-1.05.75v.055c.336.061.639.205.909.432.27.224.485.504.645.841.16.333.243.697.246 1.091a2.35 2.35 0 01-.41 1.345 2.71 2.71 0 01-1.113.923c-.473.221-1.02.332-1.641.332zm0-1c.421 0 .785-.069 1.09-.205.307-.136.543-.329.71-.577a1.56 1.56 0 00.255-.873 1.677 1.677 0 00-.273-.932 1.851 1.851 0 00-.732-.636 2.292 2.292 0 00-1.05-.232 2.36 2.36 0 00-1.064.232 1.85 1.85 0 00-.732.636 1.65 1.65 0 00-.259.932c-.003.333.078.624.241.873.167.248.405.441.714.577.309.136.676.205 1.1.205zm0-4.419c.333 0 .629-.066.886-.2.26-.133.466-.319.614-.559a1.59 1.59 0 00.227-.841 1.548 1.548 0 00-.223-.822 1.447 1.447 0 00-.604-.546 1.973 1.973 0 00-.9-.195c-.349 0-.653.065-.914.195-.26.128-.462.309-.604.546a1.515 1.515 0 00-.21.822 1.57 1.57 0 00.214.841c.149.24.353.426.614.559.26.134.56.2.9.2zM4 362.479c-.685 0-1.268-.187-1.75-.559-.482-.376-.85-.92-1.105-1.632-.254-.715-.381-1.579-.381-2.591 0-1.006.127-1.865.381-2.577.258-.715.628-1.261 1.11-1.637.484-.378 1.066-.568 1.745-.568s1.26.19 1.74.568c.486.376.855.922 1.11 1.637.258.712.386 1.571.386 2.577 0 1.012-.127 1.876-.381 2.591-.255.712-.623 1.256-1.105 1.632-.482.372-1.065.559-1.75.559zm0-1c.679 0 1.206-.327 1.582-.982.376-.655.563-1.588.563-2.8 0-.806-.086-1.492-.259-2.059-.17-.567-.415-.999-.736-1.296a1.63 1.63 0 00-1.15-.445c-.673 0-1.198.332-1.577.995-.38.661-.568 1.596-.568 2.805 0 .806.084 1.491.254 2.055.17.563.414.992.732 1.286.321.294.707.441 1.159.441zM25.307 392.8v-.818l3.072-3.364c.361-.394.658-.736.891-1.027.234-.294.406-.57.518-.827.116-.261.173-.534.173-.818a1.508 1.508 0 00-.872-1.405 2.067 2.067 0 00-.91-.195c-.357 0-.67.074-.936.222-.264.146-.468.35-.614.614a1.924 1.924 0 00-.213.927h-1.073c0-.545.126-1.024.377-1.436a2.62 2.62 0 011.028-.964 3.1 3.1 0 011.468-.345c.545 0 1.028.115 1.45.345.421.23.751.541.99.932.24.391.36.826.36 1.305 0 .342-.062.677-.187 1.004-.12.324-.333.686-.636 1.086-.3.397-.717.882-1.25 1.455l-2.09 2.236v.073h4.326v1h-5.872zm10.786.127c-.685 0-1.268-.186-1.75-.559-.482-.376-.85-.919-1.105-1.632-.254-.715-.381-1.578-.381-2.59 0-1.007.127-1.866.382-2.578.257-.715.627-1.26 1.109-1.636.484-.379 1.066-.568 1.745-.568s1.26.189 1.74.568c.486.376.855.921 1.11 1.636.258.712.386 1.571.386 2.578 0 1.012-.127 1.875-.381 2.59-.255.713-.623 1.256-1.105 1.632-.482.373-1.065.559-1.75.559zm0-1c.679 0 1.206-.327 1.582-.981.376-.655.564-1.588.564-2.8 0-.807-.087-1.493-.26-2.06-.17-.566-.415-.998-.736-1.295a1.625 1.625 0 00-1.15-.445c-.673 0-1.199.331-1.577.995-.379.661-.568 1.595-.568 2.805 0 .806.084 1.49.254 2.054.17.564.414.992.732 1.286.321.294.708.441 1.159.441zm4.964.873v-.818l3.072-3.364c.361-.394.658-.736.891-1.027.234-.294.406-.57.518-.827.116-.261.173-.534.173-.818a1.508 1.508 0 00-.872-1.405 2.067 2.067 0 00-.91-.195c-.357 0-.67.074-.936.222-.264.146-.468.35-.614.614a1.924 1.924 0 00-.213.927h-1.073c0-.545.126-1.024.377-1.436a2.62 2.62 0 011.028-.964 3.1 3.1 0 011.468-.345c.545 0 1.029.115 1.45.345.421.23.751.541.99.932.24.391.36.826.36 1.305 0 .342-.062.677-.187 1.004-.12.324-.333.686-.636 1.086-.3.397-.717.882-1.25 1.455l-2.09 2.236v.073h4.326v1h-5.872zm10.895.127c-.6 0-1.135-.103-1.604-.309a2.745 2.745 0 01-1.114-.859 2.309 2.309 0 01-.446-1.286h1.146c.024.3.127.559.309.777.182.215.42.382.714.5a2.6 2.6 0 00.977.177c.4 0 .755-.069 1.064-.209a1.74 1.74 0 00.727-.582c.176-.248.264-.536.264-.863a1.62 1.62 0 00-.255-.905 1.693 1.693 0 00-.745-.618c-.328-.148-.728-.223-1.2-.223h-.746v-1h.745c.37 0 .694-.066.973-.2.282-.133.502-.321.66-.563.16-.243.24-.528.24-.855 0-.315-.07-.589-.209-.823a1.43 1.43 0 00-.59-.545 1.916 1.916 0 00-.892-.195c-.32 0-.624.059-.909.177a1.693 1.693 0 00-.69.504 1.316 1.316 0 00-.292.791h-1.09c.018-.488.165-.915.44-1.282a2.779 2.779 0 011.082-.863 3.498 3.498 0 011.477-.309c.576 0 1.07.116 1.482.35.412.23.73.535.95.913.221.379.332.788.332 1.228 0 .524-.138.971-.413 1.341a2.103 2.103 0 01-1.114.768v.072c.588.097 1.047.347 1.377.75.33.4.496.896.496 1.487 0 .506-.138.96-.414 1.363-.273.4-.645.716-1.118.946-.473.23-1.01.345-1.614.345zm9.023-5.281v1h-4.073v-1h4.073zm4.905 5.281c-.684 0-1.268-.186-1.75-.559-.481-.376-.85-.919-1.104-1.632-.255-.715-.382-1.578-.382-2.59 0-1.007.127-1.866.382-2.578.258-.715.627-1.26 1.11-1.636.484-.379 1.066-.568 1.745-.568.678 0 1.259.189 1.74.568.485.376.855.921 1.11 1.636.257.712.386 1.571.386 2.578 0 1.012-.127 1.875-.382 2.59-.254.713-.623 1.256-1.105 1.632-.481.373-1.065.559-1.75.559zm0-1c.68 0 1.207-.327 1.582-.981.376-.655.564-1.588.564-2.8 0-.807-.086-1.493-.26-2.06-.169-.566-.414-.998-.736-1.295a1.625 1.625 0 00-1.15-.445c-.672 0-1.198.331-1.577.995-.378.661-.568 1.595-.568 2.805 0 .806.085 1.49.255 2.054.17.564.413.992.731 1.286a1.66 1.66 0 001.16.441zm7.946 1c-.624 0-1.176-.11-1.655-.331a2.717 2.717 0 01-1.113-.923 2.32 2.32 0 01-.396-1.346 2.477 2.477 0 01.232-1.091c.158-.336.373-.616.646-.84a1.96 1.96 0 01.922-.432v-.055a1.796 1.796 0 01-1.063-.75 2.274 2.274 0 01-.391-1.323 2.25 2.25 0 01.359-1.268 2.54 2.54 0 011-.882c.427-.215.913-.322 1.459-.322.54 0 1.021.107 1.445.322.425.216.758.51 1 .882.246.373.37.796.373 1.268a2.307 2.307 0 01-.404 1.323 1.793 1.793 0 01-1.05.75v.055c.336.06.639.204.909.432a2.537 2.537 0 01.891 1.931c-.003.503-.14.952-.41 1.346a2.716 2.716 0 01-1.113.923c-.473.221-1.02.331-1.641.331zm0-1c.421 0 .785-.068 1.09-.204a1.63 1.63 0 00.71-.577 1.56 1.56 0 00.254-.873 1.674 1.674 0 00-.272-.932 1.843 1.843 0 00-.732-.636 2.292 2.292 0 00-1.05-.232 2.36 2.36 0 00-1.064.232 1.836 1.836 0 00-.731.636 1.64 1.64 0 00-.26.932c-.003.333.078.624.241.873.167.248.405.44.714.577.31.136.676.204 1.1.204zm0-4.418c.333 0 .629-.067.886-.2.26-.133.465-.32.614-.559.149-.239.224-.52.227-.841a1.555 1.555 0 00-.222-.823 1.444 1.444 0 00-.605-.545 1.973 1.973 0 00-.9-.195c-.348 0-.653.065-.914.195-.26.127-.462.309-.604.545a1.522 1.522 0 00-.21.823c-.002.321.069.602.214.841.149.239.353.426.614.559.26.133.56.2.9.2zm8.924.137v1h-4.073v-1h4.073zm1.432 5.154v-.818l3.072-3.364c.361-.394.658-.736.891-1.027.234-.294.406-.57.519-.827.115-.261.172-.534.172-.818a1.508 1.508 0 00-.873-1.405 2.067 2.067 0 00-.909-.195c-.357 0-.67.074-.936.222-.264.146-.468.35-.614.614a1.924 1.924 0 00-.213.927h-1.073c0-.545.126-1.024.377-1.436a2.62 2.62 0 011.028-.964 3.1 3.1 0 011.468-.345c.545 0 1.029.115 1.45.345.421.23.751.541.99.932.24.391.36.826.36 1.305 0 .342-.062.677-.187 1.004-.12.324-.333.686-.636 1.086-.3.397-.717.882-1.25 1.455l-2.09 2.236v.073h4.326v1h-5.872zm10.659.127a3.198 3.198 0 01-1.441-.318 2.673 2.673 0 01-1.027-.873 2.373 2.373 0 01-.423-1.263h1.09a1.5 1.5 0 00.573 1.045c.343.273.752.409 1.228.409.382 0 .721-.089 1.018-.268.3-.179.535-.424.705-.736.172-.315.259-.671.259-1.068 0-.406-.09-.769-.269-1.087a1.97 1.97 0 00-.727-.759 2.053 2.053 0 00-1.059-.282 2.908 2.908 0 00-.877.132c-.3.088-.547.202-.741.341l-1.055-.127.564-4.582h4.836v1h-3.89l-.328 2.745h.055c.19-.151.43-.277.718-.377.288-.1.588-.15.9-.15a2.864 2.864 0 012.577 1.518c.258.47.386 1.006.386 1.609 0 .594-.133 1.125-.4 1.591a2.917 2.917 0 01-1.09 1.1c-.464.267-.991.4-1.582.4zm37.666-.127v-.818l3.072-3.364c.361-.394.658-.736.891-1.027.234-.294.406-.57.518-.827.116-.261.173-.534.173-.818 0-.328-.079-.611-.236-.85a1.53 1.53 0 00-.637-.555 2.062 2.062 0 00-.909-.195 1.9 1.9 0 00-.936.222c-.264.146-.468.35-.614.614a1.928 1.928 0 00-.213.927h-1.073c0-.545.126-1.024.377-1.436a2.622 2.622 0 011.028-.964c.436-.23.925-.345 1.468-.345.545 0 1.028.115 1.45.345.421.23.751.541.991.932.239.391.359.826.359 1.305 0 .342-.062.677-.187 1.004-.121.324-.333.686-.636 1.086-.3.397-.717.882-1.25 1.455l-2.091 2.236v.073h4.327v1h-5.872zm10.786.127c-.685 0-1.268-.186-1.75-.559-.482-.376-.85-.919-1.105-1.632-.254-.715-.381-1.578-.381-2.59 0-1.007.127-1.866.381-2.578.258-.715.628-1.26 1.11-1.636.484-.379 1.066-.568 1.745-.568s1.259.189 1.741.568c.485.376.854.921 1.109 1.636.258.712.386 1.571.386 2.578 0 1.012-.127 1.875-.381 2.59-.255.713-.623 1.256-1.105 1.632-.482.373-1.065.559-1.75.559zm0-1c.679 0 1.206-.327 1.582-.981.376-.655.563-1.588.563-2.8 0-.807-.086-1.493-.259-2.06-.169-.566-.415-.998-.736-1.295a1.625 1.625 0 00-1.15-.445c-.673 0-1.199.331-1.577.995-.379.661-.568 1.595-.568 2.805 0 .806.084 1.49.254 2.054.17.564.414.992.732 1.286.321.294.707.441 1.159.441zm4.964.873v-.818l3.072-3.364c.361-.394.658-.736.891-1.027.234-.294.406-.57.518-.827.116-.261.173-.534.173-.818 0-.328-.079-.611-.236-.85a1.53 1.53 0 00-.637-.555 2.062 2.062 0 00-.909-.195 1.9 1.9 0 00-.936.222c-.264.146-.468.35-.614.614a1.928 1.928 0 00-.213.927h-1.073c0-.545.126-1.024.377-1.436a2.622 2.622 0 011.028-.964c.436-.23.925-.345 1.468-.345.545 0 1.028.115 1.45.345.421.23.751.541.991.932.239.391.359.826.359 1.305 0 .342-.062.677-.187 1.004-.121.324-.333.686-.636 1.086-.3.397-.717.882-1.25 1.455l-2.091 2.236v.073h4.327v1h-5.872zm10.895.127c-.6 0-1.135-.103-1.604-.309a2.746 2.746 0 01-1.114-.859 2.313 2.313 0 01-.446-1.286h1.146c.024.3.127.559.309.777.182.215.42.382.714.5s.619.177.977.177c.4 0 .754-.069 1.064-.209.309-.139.551-.333.727-.582.176-.248.263-.536.263-.863 0-.343-.084-.644-.254-.905a1.692 1.692 0 00-.746-.618c-.327-.148-.727-.223-1.2-.223h-.745v-1h.745c.37 0 .694-.066.973-.2.282-.133.502-.321.659-.563.161-.243.241-.528.241-.855 0-.315-.07-.589-.209-.823a1.424 1.424 0 00-.591-.545 1.913 1.913 0 00-.891-.195c-.321 0-.624.059-.909.177a1.693 1.693 0 00-.691.504 1.314 1.314 0 00-.291.791h-1.091a2.23 2.23 0 01.441-1.282 2.785 2.785 0 011.082-.863 3.498 3.498 0 011.477-.309c.576 0 1.07.116 1.482.35.412.23.729.535.95.913.221.379.332.788.332 1.228 0 .524-.138.971-.414 1.341a2.101 2.101 0 01-1.113.768v.072c.588.097 1.047.347 1.377.75.33.4.496.896.496 1.487 0 .506-.138.96-.414 1.363-.273.4-.646.716-1.118.946-.473.23-1.011.345-1.614.345zm9.023-5.281v1h-4.073v-1h4.073zm4.905 5.281c-.684 0-1.268-.186-1.75-.559-.481-.376-.85-.919-1.104-1.632-.255-.715-.382-1.578-.382-2.59 0-1.007.127-1.866.382-2.578.258-.715.627-1.26 1.109-1.636.485-.379 1.067-.568 1.745-.568.679 0 1.26.189 1.741.568.485.376.855.921 1.109 1.636.258.712.387 1.571.387 2.578 0 1.012-.127 1.875-.382 2.59-.255.713-.623 1.256-1.105 1.632-.481.373-1.065.559-1.75.559zm0-1c.679 0 1.207-.327 1.582-.981.376-.655.564-1.588.564-2.8 0-.807-.086-1.493-.259-2.06-.17-.566-.415-.998-.737-1.295a1.624 1.624 0 00-1.15-.445c-.672 0-1.198.331-1.577.995-.379.661-.568 1.595-.568 2.805 0 .806.085 1.49.255 2.054.169.564.413.992.731 1.286.322.294.708.441 1.159.441zm7.946 1c-.624 0-1.176-.11-1.655-.331-.475-.225-.847-.532-1.113-.923a2.318 2.318 0 01-.396-1.346 2.485 2.485 0 01.232-1.091c.158-.336.373-.616.646-.84a1.96 1.96 0 01.922-.432v-.055a1.794 1.794 0 01-1.063-.75 2.27 2.27 0 01-.391-1.323 2.244 2.244 0 01.359-1.268 2.54 2.54 0 011-.882c.427-.215.913-.322 1.459-.322.539 0 1.021.107 1.445.322.425.216.758.51 1 .882.246.373.37.796.373 1.268a2.31 2.31 0 01-.404 1.323 1.796 1.796 0 01-1.05.75v.055c.336.06.639.204.909.432.269.224.485.504.645.84.161.334.243.697.246 1.091-.003.503-.14.952-.41 1.346-.266.391-.637.698-1.113.923-.473.221-1.02.331-1.641.331zm0-1c.421 0 .785-.068 1.091-.204.306-.137.542-.329.709-.577.167-.249.251-.54.254-.873a1.672 1.672 0 00-.272-.932 1.845 1.845 0 00-.732-.636 2.292 2.292 0 00-1.05-.232 2.36 2.36 0 00-1.064.232 1.845 1.845 0 00-.732.636c-.175.27-.262.58-.259.932-.003.333.078.624.241.873.167.248.405.44.714.577.309.136.676.204 1.1.204zm0-4.418c.333 0 .629-.067.886-.2.261-.133.465-.32.614-.559.148-.239.224-.52.227-.841a1.55 1.55 0 00-.223-.823 1.438 1.438 0 00-.604-.545 1.975 1.975 0 00-.9-.195c-.349 0-.653.065-.914.195-.26.127-.462.309-.604.545a1.517 1.517 0 00-.209.823c-.003.321.068.602.213.841.149.239.353.426.614.559.261.133.561.2.9.2zm8.924.137v1h-4.073v-1h4.073zm1.432 5.154v-.818l3.072-3.364c.361-.394.658-.736.891-1.027.234-.294.406-.57.518-.827.116-.261.173-.534.173-.818 0-.328-.079-.611-.236-.85a1.53 1.53 0 00-.637-.555 2.062 2.062 0 00-.909-.195 1.9 1.9 0 00-.936.222c-.264.146-.468.35-.614.614a1.928 1.928 0 00-.213.927h-1.073c0-.545.126-1.024.377-1.436a2.622 2.622 0 011.028-.964c.436-.23.925-.345 1.468-.345.545 0 1.028.115 1.45.345.421.23.751.541.991.932.239.391.359.826.359 1.305 0 .342-.062.677-.187 1.004-.121.324-.333.686-.636 1.086-.3.397-.717.882-1.25 1.455l-2.091 2.236v.073h4.327v1h-5.872zm10.841.127a3.47 3.47 0 01-1.146-.218 2.737 2.737 0 01-1.045-.704c-.316-.334-.569-.784-.759-1.35-.191-.57-.287-1.285-.287-2.146 0-.824.077-1.554.232-2.191.155-.639.379-1.177.673-1.613.294-.44.648-.773 1.063-1 .419-.228.89-.341 1.414-.341.521 0 .985.104 1.391.313.409.206.742.494 1 .864.257.37.424.795.5 1.277h-1.109a2.058 2.058 0 00-.6-1.041c-.297-.275-.691-.413-1.182-.413-.721 0-1.289.313-1.705.941-.412.627-.619 1.507-.622 2.641h.072a2.74 2.74 0 011.387-1.087c.285-.1.586-.15.904-.15.534 0 1.022.133 1.464.4.442.264.797.629 1.064 1.096.266.463.4.995.4 1.595 0 .576-.129 1.103-.387 1.582a2.934 2.934 0 01-1.086 1.136c-.464.279-1.009.415-1.636.409zm0-1c.381 0 .724-.095 1.027-.286.306-.191.547-.447.723-.768.178-.321.268-.679.268-1.073 0-.385-.087-.735-.259-1.05a1.981 1.981 0 00-.705-.759 1.862 1.862 0 00-1.018-.282c-.288 0-.556.058-.805.173a2.08 2.08 0 00-.654.464 2.219 2.219 0 00-.437.677 2.023 2.023 0 00-.159.795 2.139 2.139 0 00.978 1.814 1.88 1.88 0 001.041.295zm57.484.873v-.818l3.073-3.364c.36-.394.657-.736.89-1.027.234-.294.406-.57.519-.827.115-.261.172-.534.172-.818a1.505 1.505 0 00-.872-1.405 2.069 2.069 0 00-.909-.195c-.358 0-.67.074-.937.222-.263.146-.468.35-.613.614a1.917 1.917 0 00-.214.927h-1.073c0-.545.126-1.024.377-1.436a2.622 2.622 0 011.028-.964c.436-.23.925-.345 1.468-.345.545 0 1.029.115 1.45.345.421.23.751.541.991.932.239.391.359.826.359 1.305 0 .342-.062.677-.186 1.004-.122.324-.334.686-.637 1.086-.3.397-.717.882-1.25 1.455l-2.091 2.236v.073h4.328v1h-5.873zm10.786.127c-.685 0-1.268-.186-1.75-.559-.482-.376-.85-.919-1.104-1.632-.255-.715-.382-1.578-.382-2.59 0-1.007.127-1.866.382-2.578.257-.715.627-1.26 1.109-1.636.485-.379 1.066-.568 1.745-.568s1.259.189 1.741.568c.485.376.855.921 1.109 1.636.258.712.387 1.571.387 2.578 0 1.012-.128 1.875-.382 2.59-.255.713-.623 1.256-1.105 1.632-.482.373-1.065.559-1.75.559zm0-1c.679 0 1.206-.327 1.582-.981.376-.655.564-1.588.564-2.8 0-.807-.087-1.493-.259-2.06-.17-.566-.416-.998-.737-1.295a1.624 1.624 0 00-1.15-.445c-.673 0-1.198.331-1.577.995-.379.661-.568 1.595-.568 2.805 0 .806.085 1.49.254 2.054.17.564.414.992.732 1.286.321.294.708.441 1.159.441zm4.964.873v-.818l3.073-3.364c.36-.394.657-.736.89-1.027.234-.294.406-.57.519-.827.115-.261.172-.534.172-.818a1.505 1.505 0 00-.872-1.405 2.069 2.069 0 00-.909-.195c-.358 0-.67.074-.937.222-.263.146-.468.35-.613.614a1.917 1.917 0 00-.214.927h-1.073c0-.545.126-1.024.377-1.436a2.622 2.622 0 011.028-.964c.436-.23.925-.345 1.468-.345.545 0 1.029.115 1.45.345.421.23.751.541.991.932.239.391.359.826.359 1.305 0 .342-.062.677-.186 1.004-.122.324-.334.686-.637 1.086-.3.397-.717.882-1.25 1.455l-2.091 2.236v.073h4.328v1h-5.873zm10.895.127c-.6 0-1.135-.103-1.604-.309a2.746 2.746 0 01-1.114-.859 2.304 2.304 0 01-.445-1.286h1.145c.024.3.127.559.309.777.182.215.42.382.714.5s.619.177.977.177c.4 0 .755-.069 1.064-.209.309-.139.551-.333.727-.582.176-.248.264-.536.264-.863a1.62 1.62 0 00-.255-.905 1.694 1.694 0 00-.745-.618c-.328-.148-.728-.223-1.2-.223h-.746v-1h.746c.369 0 .694-.066.972-.2.282-.133.502-.321.659-.563.161-.243.241-.528.241-.855 0-.315-.069-.589-.209-.823a1.424 1.424 0 00-.591-.545 1.913 1.913 0 00-.891-.195c-.321 0-.624.059-.909.177a1.7 1.7 0 00-.691.504 1.32 1.32 0 00-.29.791h-1.091c.018-.488.165-.915.441-1.282a2.775 2.775 0 011.081-.863 3.5 3.5 0 011.478-.309c.575 0 1.069.116 1.481.35.413.23.729.535.95.913.222.379.332.788.332 1.228 0 .524-.138.971-.413 1.341a2.104 2.104 0 01-1.114.768v.072c.588.097 1.047.347 1.377.75.331.4.496.896.496 1.487 0 .506-.138.96-.414 1.363-.273.4-.645.716-1.118.946-.473.23-1.011.345-1.614.345zm9.023-5.281v1h-4.073v-1h4.073zm4.906 5.281c-.685 0-1.269-.186-1.75-.559-.482-.376-.85-.919-1.105-1.632-.254-.715-.382-1.578-.382-2.59 0-1.007.128-1.866.382-2.578.258-.715.627-1.26 1.109-1.636.485-.379 1.067-.568 1.746-.568.678 0 1.259.189 1.741.568.484.376.854.921 1.109 1.636.257.712.386 1.571.386 2.578 0 1.012-.127 1.875-.382 2.59-.254.713-.623 1.256-1.104 1.632-.482.373-1.065.559-1.75.559zm0-1c.678 0 1.206-.327 1.581-.981.376-.655.564-1.588.564-2.8 0-.807-.086-1.493-.259-2.06-.17-.566-.415-.998-.736-1.295a1.627 1.627 0 00-1.15-.445c-.673 0-1.199.331-1.578.995-.378.661-.568 1.595-.568 2.805 0 .806.085 1.49.255 2.054.169.564.413.992.732 1.286.321.294.707.441 1.159.441zm7.945 1c-.624 0-1.176-.11-1.654-.331a2.718 2.718 0 01-1.114-.923 2.318 2.318 0 01-.396-1.346 2.485 2.485 0 01.232-1.091c.158-.336.373-.616.646-.84.276-.228.583-.372.922-.432v-.055a1.794 1.794 0 01-1.063-.75 2.27 2.27 0 01-.391-1.323 2.252 2.252 0 01.359-1.268 2.54 2.54 0 011-.882c.427-.215.914-.322 1.459-.322.54 0 1.021.107 1.446.322.424.216.757.51 1 .882.245.373.369.796.372 1.268a2.31 2.31 0 01-.404 1.323 1.796 1.796 0 01-1.05.75v.055c.336.06.639.204.909.432.27.224.485.504.645.84.161.334.243.697.246 1.091-.003.503-.14.952-.409 1.346a2.718 2.718 0 01-1.114.923c-.473.221-1.02.331-1.641.331zm0-1c.421 0 .785-.068 1.091-.204.306-.137.542-.329.709-.577.167-.249.252-.54.255-.873a1.673 1.673 0 00-.273-.932 1.845 1.845 0 00-.732-.636 2.292 2.292 0 00-1.05-.232c-.397 0-.751.077-1.064.232a1.836 1.836 0 00-.731.636 1.64 1.64 0 00-.259.932c-.003.333.077.624.24.873.167.248.405.44.714.577.309.136.676.204 1.1.204zm0-4.418c.333 0 .629-.067.886-.2.261-.133.466-.32.614-.559.149-.239.224-.52.227-.841a1.559 1.559 0 00-.222-.823 1.446 1.446 0 00-.605-.545 1.97 1.97 0 00-.9-.195c-.348 0-.653.065-.914.195-.26.127-.462.309-.604.545a1.526 1.526 0 00-.209.823c-.003.321.068.602.213.841.149.239.354.426.614.559.261.133.561.2.9.2zm8.924.137v1h-4.073v-1h4.073zm1.432 5.154v-.818l3.073-3.364c.36-.394.657-.736.89-1.027.234-.294.406-.57.519-.827.115-.261.172-.534.172-.818a1.505 1.505 0 00-.872-1.405 2.069 2.069 0 00-.909-.195c-.358 0-.67.074-.937.222-.263.146-.468.35-.613.614a1.917 1.917 0 00-.214.927h-1.073c0-.545.126-1.024.377-1.436a2.622 2.622 0 011.028-.964c.436-.23.925-.345 1.468-.345.545 0 1.029.115 1.45.345.421.23.751.541.991.932.239.391.359.826.359 1.305 0 .342-.062.677-.186 1.004-.122.324-.334.686-.637 1.086-.3.397-.717.882-1.25 1.455l-2.091 2.236v.073h4.328v1h-5.873zm8.041 0l4.163-8.236v-.073h-4.8v-1h5.964v1.055l-4.145 8.254h-1.182zm43.484 0v-.818l3.072-3.364c.361-.394.658-.736.891-1.027.234-.294.406-.57.519-.827.115-.261.172-.534.172-.818 0-.328-.079-.611-.236-.85a1.534 1.534 0 00-.636-.555 2.07 2.07 0 00-.91-.195 1.9 1.9 0 00-.936.222c-.264.146-.468.35-.614.614a1.928 1.928 0 00-.213.927h-1.073c0-.545.126-1.024.377-1.436a2.622 2.622 0 011.028-.964c.436-.23.925-.345 1.468-.345.545 0 1.029.115 1.45.345.421.23.751.541.991.932.239.391.359.826.359 1.305 0 .342-.062.677-.187 1.004-.121.324-.333.686-.636 1.086-.3.397-.717.882-1.25 1.455l-2.091 2.236v.073h4.327v1h-5.872zm10.786.127c-.685 0-1.268-.186-1.75-.559-.482-.376-.85-.919-1.104-1.632-.255-.715-.382-1.578-.382-2.59 0-1.007.127-1.866.382-2.578.257-.715.627-1.26 1.109-1.636.484-.379 1.066-.568 1.745-.568s1.259.189 1.741.568c.485.376.855.921 1.109 1.636.258.712.386 1.571.386 2.578 0 1.012-.127 1.875-.381 2.59-.255.713-.623 1.256-1.105 1.632-.482.373-1.065.559-1.75.559zm0-1c.679 0 1.206-.327 1.582-.981.376-.655.564-1.588.564-2.8 0-.807-.087-1.493-.26-2.06-.169-.566-.415-.998-.736-1.295a1.624 1.624 0 00-1.15-.445c-.673 0-1.198.331-1.577.995-.379.661-.568 1.595-.568 2.805 0 .806.084 1.49.254 2.054.17.564.414.992.732 1.286.321.294.708.441 1.159.441zm4.964.873v-.818l3.072-3.364c.361-.394.658-.736.891-1.027.234-.294.406-.57.519-.827.115-.261.172-.534.172-.818 0-.328-.079-.611-.236-.85a1.534 1.534 0 00-.636-.555 2.07 2.07 0 00-.91-.195 1.9 1.9 0 00-.936.222c-.264.146-.468.35-.614.614a1.928 1.928 0 00-.213.927h-1.073c0-.545.126-1.024.377-1.436a2.622 2.622 0 011.028-.964c.436-.23.925-.345 1.468-.345.545 0 1.029.115 1.45.345.421.23.751.541.991.932.239.391.359.826.359 1.305 0 .342-.062.677-.187 1.004-.121.324-.333.686-.636 1.086-.3.397-.717.882-1.25 1.455l-2.091 2.236v.073h4.327v1h-5.872zm10.895.127c-.6 0-1.135-.103-1.604-.309a2.746 2.746 0 01-1.114-.859 2.304 2.304 0 01-.445-1.286h1.145c.024.3.127.559.309.777.182.215.42.382.714.5s.619.177.977.177c.4 0 .755-.069 1.064-.209.309-.139.551-.333.727-.582.176-.248.264-.536.264-.863a1.62 1.62 0 00-.255-.905 1.694 1.694 0 00-.745-.618c-.328-.148-.728-.223-1.2-.223h-.746v-1h.746c.369 0 .693-.066.972-.2.282-.133.502-.321.659-.563.161-.243.241-.528.241-.855 0-.315-.069-.589-.209-.823a1.424 1.424 0 00-.591-.545 1.913 1.913 0 00-.891-.195c-.321 0-.624.059-.909.177a1.693 1.693 0 00-.691.504 1.327 1.327 0 00-.291.791h-1.09c.018-.488.165-.915.44-1.282a2.785 2.785 0 011.082-.863 3.5 3.5 0 011.478-.309c.575 0 1.069.116 1.481.35.412.23.729.535.95.913.222.379.332.788.332 1.228 0 .524-.138.971-.413 1.341a2.104 2.104 0 01-1.114.768v.072c.588.097 1.047.347 1.377.75.33.4.496.896.496 1.487 0 .506-.138.96-.414 1.363-.273.4-.645.716-1.118.946-.473.23-1.011.345-1.614.345zm9.023-5.281v1h-4.073v-1h4.073zm4.906 5.281c-.685 0-1.269-.186-1.75-.559-.482-.376-.85-.919-1.105-1.632-.255-.715-.382-1.578-.382-2.59 0-1.007.127-1.866.382-2.578.258-.715.627-1.26 1.109-1.636.485-.379 1.067-.568 1.746-.568.678 0 1.259.189 1.74.568.485.376.855.921 1.11 1.636.257.712.386 1.571.386 2.578 0 1.012-.127 1.875-.382 2.59-.254.713-.623 1.256-1.104 1.632-.482.373-1.066.559-1.75.559zm0-1c.678 0 1.206-.327 1.581-.981.376-.655.564-1.588.564-2.8 0-.807-.086-1.493-.259-2.06-.17-.566-.415-.998-.736-1.295a1.627 1.627 0 00-1.15-.445c-.673 0-1.199.331-1.578.995-.378.661-.568 1.595-.568 2.805 0 .806.085 1.49.255 2.054.169.564.413.992.731 1.286a1.66 1.66 0 001.16.441zm7.945 1c-.624 0-1.176-.11-1.655-.331a2.721 2.721 0 01-1.113-.923 2.318 2.318 0 01-.396-1.346 2.485 2.485 0 01.232-1.091c.158-.336.373-.616.646-.84a1.96 1.96 0 01.922-.432v-.055a1.794 1.794 0 01-1.063-.75 2.27 2.27 0 01-.391-1.323 2.252 2.252 0 01.359-1.268 2.54 2.54 0 011-.882c.427-.215.914-.322 1.459-.322.539 0 1.021.107 1.445.322.425.216.758.51 1 .882.246.373.37.796.373 1.268a2.31 2.31 0 01-.404 1.323 1.796 1.796 0 01-1.05.75v.055c.336.06.639.204.909.432.269.224.485.504.645.84.161.334.243.697.246 1.091-.003.503-.14.952-.409 1.346a2.718 2.718 0 01-1.114.923c-.473.221-1.02.331-1.641.331zm0-1c.421 0 .785-.068 1.091-.204.306-.137.542-.329.709-.577.167-.249.252-.54.255-.873a1.673 1.673 0 00-.273-.932 1.845 1.845 0 00-.732-.636 2.292 2.292 0 00-1.05-.232c-.397 0-.751.077-1.064.232a1.836 1.836 0 00-.731.636 1.64 1.64 0 00-.26.932c-.003.333.078.624.241.873.167.248.405.44.714.577.309.136.676.204 1.1.204zm0-4.418c.333 0 .629-.067.886-.2.261-.133.466-.32.614-.559.149-.239.224-.52.227-.841a1.559 1.559 0 00-.222-.823 1.446 1.446 0 00-.605-.545 1.975 1.975 0 00-.9-.195c-.348 0-.653.065-.914.195-.26.127-.462.309-.604.545a1.517 1.517 0 00-.209.823c-.003.321.068.602.213.841.149.239.353.426.614.559.261.133.561.2.9.2zm8.924.137v1h-4.073v-1h4.073zm1.432 5.154v-.818l3.072-3.364c.361-.394.658-.736.891-1.027.234-.294.406-.57.519-.827.115-.261.172-.534.172-.818 0-.328-.079-.611-.236-.85a1.534 1.534 0 00-.636-.555 2.07 2.07 0 00-.91-.195 1.9 1.9 0 00-.936.222c-.264.146-.468.35-.614.614a1.928 1.928 0 00-.213.927h-1.073c0-.545.126-1.024.377-1.436a2.622 2.622 0 011.028-.964c.436-.23.925-.345 1.468-.345.545 0 1.029.115 1.45.345.421.23.751.541.991.932.239.391.359.826.359 1.305 0 .342-.062.677-.187 1.004-.121.324-.333.686-.636 1.086-.3.397-.717.882-1.25 1.455l-2.091 2.236v.073h4.327v1h-5.872zm10.732.127c-.625 0-1.176-.11-1.655-.331a2.718 2.718 0 01-1.114-.923 2.325 2.325 0 01-.395-1.346 2.471 2.471 0 01.877-1.931c.276-.228.583-.372.923-.432v-.055a1.796 1.796 0 01-1.064-.75 2.278 2.278 0 01-.391-1.323 2.252 2.252 0 01.359-1.268 2.547 2.547 0 011-.882c.428-.215.914-.322 1.46-.322.539 0 1.021.107 1.445.322.424.216.758.51 1 .882.245.373.37.796.373 1.268a2.304 2.304 0 01-.405 1.323 1.79 1.79 0 01-1.05.75v.055c.337.06.64.204.909.432a2.536 2.536 0 01.891 1.931 2.35 2.35 0 01-.409 1.346 2.718 2.718 0 01-1.114.923c-.472.221-1.019.331-1.64.331zm0-1c.421 0 .784-.068 1.09-.204.306-.137.543-.329.71-.577.166-.249.251-.54.254-.873a1.673 1.673 0 00-.273-.932 1.836 1.836 0 00-.731-.636 2.298 2.298 0 00-1.05-.232 2.36 2.36 0 00-1.064.232 1.845 1.845 0 00-.732.636 1.64 1.64 0 00-.259.932c-.003.333.077.624.241.873.167.248.404.44.714.577.309.136.675.204 1.1.204zm0-4.418c.333 0 .628-.067.886-.2.26-.133.465-.32.614-.559.148-.239.224-.52.227-.841a1.55 1.55 0 00-.223-.823 1.444 1.444 0 00-.604-.545 1.975 1.975 0 00-.9-.195 2.02 2.02 0 00-.914.195 1.411 1.411 0 00-.605.545 1.526 1.526 0 00-.209.823c-.003.321.068.602.214.841.148.239.353.426.614.559.26.133.56.2.9.2zm44.793 5.291v-.818l3.072-3.364c.361-.394.658-.736.891-1.027.234-.294.406-.57.518-.827.116-.261.173-.534.173-.818 0-.328-.079-.611-.236-.85a1.53 1.53 0 00-.637-.555 2.062 2.062 0 00-.909-.195 1.9 1.9 0 00-.936.222c-.264.146-.468.35-.614.614a1.928 1.928 0 00-.213.927h-1.073c0-.545.126-1.024.377-1.436a2.622 2.622 0 011.028-.964c.436-.23.925-.345 1.468-.345.545 0 1.028.115 1.45.345.421.23.751.541.991.932.239.391.359.826.359 1.305 0 .342-.062.677-.187 1.004-.121.324-.333.686-.636 1.086-.3.397-.717.882-1.25 1.455l-2.091 2.236v.073h4.327v1h-5.872zm10.786.127c-.685 0-1.268-.186-1.75-.559-.482-.376-.85-.919-1.105-1.632-.254-.715-.381-1.578-.381-2.59 0-1.007.127-1.866.381-2.578.258-.715.628-1.26 1.11-1.636.484-.379 1.066-.568 1.745-.568s1.259.189 1.741.568c.485.376.854.921 1.109 1.636.258.712.386 1.571.386 2.578 0 1.012-.127 1.875-.381 2.59-.255.713-.623 1.256-1.105 1.632-.482.373-1.065.559-1.75.559zm0-1c.679 0 1.206-.327 1.582-.981.376-.655.563-1.588.563-2.8 0-.807-.086-1.493-.259-2.06-.169-.566-.415-.998-.736-1.295a1.625 1.625 0 00-1.15-.445c-.673 0-1.199.331-1.577.995-.379.661-.568 1.595-.568 2.805 0 .806.084 1.49.254 2.054.17.564.414.992.732 1.286.321.294.707.441 1.159.441zm4.964.873v-.818l3.072-3.364c.361-.394.658-.736.891-1.027.234-.294.406-.57.518-.827.116-.261.173-.534.173-.818 0-.328-.079-.611-.236-.85a1.53 1.53 0 00-.637-.555 2.062 2.062 0 00-.909-.195 1.9 1.9 0 00-.936.222c-.264.146-.468.35-.614.614a1.928 1.928 0 00-.213.927h-1.073c0-.545.126-1.024.377-1.436a2.622 2.622 0 011.028-.964c.436-.23.925-.345 1.468-.345.545 0 1.028.115 1.45.345.421.23.751.541.991.932.239.391.359.826.359 1.305 0 .342-.062.677-.187 1.004-.121.324-.333.686-.636 1.086-.3.397-.717.882-1.25 1.455l-2.091 2.236v.073h4.327v1h-5.872zm10.895.127c-.6 0-1.135-.103-1.604-.309a2.746 2.746 0 01-1.114-.859 2.313 2.313 0 01-.446-1.286h1.146c.024.3.127.559.309.777.182.215.42.382.714.5s.619.177.977.177c.4 0 .754-.069 1.064-.209.309-.139.551-.333.727-.582.176-.248.263-.536.263-.863 0-.343-.084-.644-.254-.905a1.692 1.692 0 00-.746-.618c-.327-.148-.727-.223-1.2-.223h-.745v-1h.745c.37 0 .694-.066.973-.2.282-.133.502-.321.659-.563.161-.243.241-.528.241-.855 0-.315-.07-.589-.209-.823a1.424 1.424 0 00-.591-.545 1.913 1.913 0 00-.891-.195c-.321 0-.624.059-.909.177a1.693 1.693 0 00-.691.504 1.314 1.314 0 00-.291.791h-1.091a2.23 2.23 0 01.441-1.282 2.785 2.785 0 011.082-.863 3.498 3.498 0 011.477-.309c.576 0 1.07.116 1.482.35.412.23.729.535.95.913.221.379.332.788.332 1.228 0 .524-.138.971-.414 1.341a2.101 2.101 0 01-1.113.768v.072c.588.097 1.047.347 1.377.75.33.4.496.896.496 1.487 0 .506-.138.96-.414 1.363-.273.4-.646.716-1.118.946-.473.23-1.011.345-1.614.345zm9.023-5.281v1h-4.073v-1h4.073zm4.905 5.281c-.684 0-1.268-.186-1.75-.559-.481-.376-.85-.919-1.104-1.632-.255-.715-.382-1.578-.382-2.59 0-1.007.127-1.866.382-2.578.258-.715.627-1.26 1.109-1.636.485-.379 1.067-.568 1.745-.568.679 0 1.26.189 1.741.568.485.376.855.921 1.109 1.636.258.712.387 1.571.387 2.578 0 1.012-.127 1.875-.382 2.59-.255.713-.623 1.256-1.105 1.632-.481.373-1.065.559-1.75.559zm0-1c.679 0 1.207-.327 1.582-.981.376-.655.564-1.588.564-2.8 0-.807-.086-1.493-.259-2.06-.17-.566-.415-.998-.737-1.295a1.624 1.624 0 00-1.15-.445c-.672 0-1.198.331-1.577.995-.379.661-.568 1.595-.568 2.805 0 .806.085 1.49.255 2.054.169.564.413.992.731 1.286.322.294.708.441 1.159.441zm7.946 1c-.624 0-1.176-.11-1.655-.331-.475-.225-.847-.532-1.113-.923a2.318 2.318 0 01-.396-1.346 2.485 2.485 0 01.232-1.091c.158-.336.373-.616.646-.84a1.96 1.96 0 01.922-.432v-.055a1.794 1.794 0 01-1.063-.75 2.27 2.27 0 01-.391-1.323 2.244 2.244 0 01.359-1.268 2.54 2.54 0 011-.882c.427-.215.913-.322 1.459-.322.539 0 1.021.107 1.445.322.425.216.758.51 1 .882.246.373.37.796.373 1.268a2.31 2.31 0 01-.404 1.323 1.796 1.796 0 01-1.05.75v.055c.336.06.639.204.909.432.269.224.485.504.645.84.161.334.243.697.246 1.091-.003.503-.14.952-.41 1.346-.266.391-.637.698-1.113.923-.473.221-1.02.331-1.641.331zm0-1c.421 0 .785-.068 1.091-.204.306-.137.542-.329.709-.577.167-.249.251-.54.254-.873a1.672 1.672 0 00-.272-.932 1.845 1.845 0 00-.732-.636 2.292 2.292 0 00-1.05-.232 2.36 2.36 0 00-1.064.232 1.845 1.845 0 00-.732.636c-.175.27-.262.58-.259.932-.003.333.078.624.241.873.167.248.405.44.714.577.309.136.676.204 1.1.204zm0-4.418c.333 0 .629-.067.886-.2.261-.133.465-.32.614-.559.148-.239.224-.52.227-.841a1.55 1.55 0 00-.223-.823 1.438 1.438 0 00-.604-.545 1.975 1.975 0 00-.9-.195c-.349 0-.653.065-.914.195-.26.127-.462.309-.604.545a1.517 1.517 0 00-.209.823c-.003.321.068.602.213.841.149.239.353.426.614.559.261.133.561.2.9.2zm8.924.137v1h-4.073v-1h4.073zm1.432 5.154v-.818l3.072-3.364c.361-.394.658-.736.891-1.027.234-.294.406-.57.518-.827.116-.261.173-.534.173-.818 0-.328-.079-.611-.236-.85a1.53 1.53 0 00-.637-.555 2.062 2.062 0 00-.909-.195 1.9 1.9 0 00-.936.222c-.264.146-.468.35-.614.614a1.928 1.928 0 00-.213.927h-1.073c0-.545.126-1.024.377-1.436a2.622 2.622 0 011.028-.964c.436-.23.925-.345 1.468-.345.545 0 1.028.115 1.45.345.421.23.751.541.991.932.239.391.359.826.359 1.305 0 .342-.062.677-.187 1.004-.121.324-.333.686-.636 1.086-.3.397-.717.882-1.25 1.455l-2.091 2.236v.073h4.327v1h-5.872zm10.713-9.436c.382.003.764.075 1.146.218.382.142.73.379 1.045.709.315.327.568.774.759 1.341.191.567.287 1.277.287 2.132 0 .827-.079 1.562-.237 2.204-.154.64-.379 1.179-.672 1.618-.291.44-.646.773-1.064 1a2.878 2.878 0 01-1.409.341c-.521 0-.987-.103-1.396-.309a2.739 2.739 0 01-1-.868 3.032 3.032 0 01-.495-1.295h1.109c.1.427.298.78.595 1.059.3.275.696.413 1.187.413.718 0 1.285-.313 1.7-.941.418-.627.627-1.513.627-2.659h-.073a2.817 2.817 0 01-.604.659 2.68 2.68 0 01-1.687.578 2.828 2.828 0 01-1.468-.396 2.995 2.995 0 01-1.063-1.095c-.264-.467-.396-1-.396-1.6 0-.57.127-1.091.382-1.564a2.952 2.952 0 011.082-1.136c.466-.282 1.015-.418 1.645-.409zm0 1c-.382 0-.726.095-1.032.286a2.048 2.048 0 00-.722.764 2.15 2.15 0 00-.264 1.059c0 .388.085.741.255 1.059.172.315.407.567.704.754.3.185.641.278 1.023.278.288 0 .556-.056.804-.168.249-.116.466-.272.65-.469.188-.2.335-.425.441-.677.106-.254.159-.52.159-.795 0-.364-.087-.705-.263-1.023a2.097 2.097 0 00-.718-.773 1.86 1.86 0 00-1.037-.295z" fill="#7B91B0"/><circle cx="183.543" cy="431.1" r="8" fill="#FFBE40"/><path d="M210.361 424.964V436.6h-1.409v-11.636h1.409zm3.825 6.386v5.25h-1.341v-8.727h1.295v1.363h.114c.204-.443.515-.799.932-1.068.416-.272.954-.409 1.613-.409.591 0 1.108.121 1.551.364.444.238.788.602 1.034 1.091.247.485.37 1.098.37 1.841v5.545h-1.341v-5.454c0-.686-.178-1.22-.534-1.603-.356-.386-.845-.579-1.466-.579-.428 0-.811.093-1.148.278a2.004 2.004 0 00-.79.813c-.193.356-.289.788-.289 1.295zm8.04 5.25v-11.636h1.341v4.295h.113c.099-.151.235-.345.409-.579.179-.239.432-.451.762-.637.333-.189.784-.284 1.352-.284.735 0 1.383.184 1.943.551.561.368.998.889 1.313 1.563.314.674.471 1.47.471 2.386 0 .924-.157 1.726-.471 2.404-.315.674-.75 1.197-1.307 1.568-.557.367-1.199.551-1.926.551-.561 0-1.01-.093-1.347-.278-.337-.19-.596-.404-.778-.643a8.677 8.677 0 01-.421-.602h-.159v1.341h-1.295zm1.318-4.364c0 .66.097 1.241.29 1.745.193.5.475.892.846 1.176.372.28.826.42 1.364.42.561 0 1.028-.147 1.403-.443.379-.299.663-.701.853-1.204a4.734 4.734 0 00.289-1.694c0-.613-.094-1.166-.284-1.659-.185-.496-.467-.888-.846-1.176-.375-.291-.847-.437-1.415-.437-.545 0-1.004.138-1.375.415-.371.272-.651.655-.841 1.147-.189.489-.284 1.059-.284 1.71zm11.823 4.546c-.788 0-1.479-.188-2.074-.563-.591-.375-1.053-.899-1.386-1.573-.33-.675-.495-1.463-.495-2.364 0-.909.165-1.703.495-2.381.333-.678.795-1.204 1.386-1.579.595-.375 1.286-.563 2.074-.563.788 0 1.477.188 2.068.563.595.375 1.057.901 1.387 1.579.333.678.5 1.472.5 2.381 0 .901-.167 1.689-.5 2.364a3.77 3.77 0 01-1.387 1.573c-.591.375-1.28.563-2.068.563zm0-1.205c.598 0 1.091-.153 1.477-.46.387-.307.673-.71.858-1.21.186-.5.279-1.042.279-1.625s-.093-1.127-.279-1.631a2.732 2.732 0 00-.858-1.221c-.386-.311-.879-.466-1.477-.466-.598 0-1.091.155-1.477.466-.387.31-.673.717-.858 1.221a4.676 4.676 0 00-.279 1.631c0 .583.093 1.125.279 1.625.185.5.471.903.858 1.21.386.307.879.46 1.477.46zm11.341-2.545v-5.159h1.341v8.727h-1.341v-1.477h-.09c-.205.443-.523.82-.955 1.131-.432.306-.977.46-1.636.46-.546 0-1.031-.12-1.455-.358-.424-.243-.758-.606-1-1.091-.242-.489-.364-1.104-.364-1.847v-5.545h1.341v5.454c0 .637.178 1.144.534 1.523.36.379.819.568 1.375.568.334 0 .673-.085 1.017-.255.349-.171.641-.432.875-.784.239-.353.358-.802.358-1.347zm4.978-1.682v5.25h-1.341v-8.727h1.296v1.363h.113c.205-.443.516-.799.932-1.068.417-.272.955-.409 1.614-.409.591 0 1.108.121 1.551.364.443.238.788.602 1.034 1.091.246.485.369 1.098.369 1.841v5.545h-1.341v-5.454c0-.686-.178-1.22-.534-1.603-.356-.386-.844-.579-1.466-.579-.428 0-.81.093-1.147.278a1.991 1.991 0 00-.79.813c-.193.356-.29.788-.29 1.295zm11.154 5.432c-.727 0-1.369-.184-1.926-.551-.557-.371-.992-.894-1.307-1.568-.314-.678-.471-1.48-.471-2.404 0-.916.157-1.712.471-2.386.315-.674.752-1.195 1.313-1.563.56-.367 1.208-.551 1.943-.551.568 0 1.017.095 1.346.284.334.186.588.398.762.637.178.234.316.428.415.579h.113v-4.295h1.341V436.6h-1.295v-1.341h-.159c-.099.159-.239.36-.421.602-.182.239-.441.453-.778.643-.337.185-.786.278-1.347.278zm.182-1.205c.538 0 .992-.14 1.364-.42.371-.284.653-.676.846-1.176.193-.504.29-1.085.29-1.745 0-.651-.095-1.221-.284-1.71-.19-.492-.47-.875-.841-1.147-.371-.277-.83-.415-1.375-.415-.568 0-1.042.146-1.421.437-.375.288-.657.68-.846 1.176a4.67 4.67 0 00-.279 1.659c0 .622.095 1.186.285 1.694.193.503.477.905.852 1.204.379.296.848.443 1.409.443z" fill="#2C2C2C"/><circle cx="297.143" cy="431.1" r="8" fill="#00A3FF"/><path d="M332.37 430.782c0 1.227-.221 2.288-.664 3.182-.444.894-1.052 1.583-1.824 2.068-.773.485-1.656.727-2.648.727-.992 0-1.875-.242-2.648-.727-.773-.485-1.38-1.174-1.824-2.068-.443-.894-.664-1.955-.664-3.182 0-1.227.221-2.288.664-3.182.444-.894 1.051-1.583 1.824-2.068.773-.485 1.656-.727 2.648-.727.992 0 1.875.242 2.648.727.772.485 1.38 1.174 1.824 2.068.443.894.664 1.955.664 3.182zm-1.363 0c0-1.008-.169-1.858-.506-2.551-.333-.693-.786-1.218-1.358-1.574a3.522 3.522 0 00-1.909-.534 3.55 3.55 0 00-1.915.534c-.568.356-1.021.881-1.358 1.574-.333.693-.5 1.543-.5 2.551 0 1.007.167 1.858.5 2.551.337.693.79 1.218 1.358 1.574a3.55 3.55 0 001.915.534c.704 0 1.341-.178 1.909-.534.572-.356 1.025-.881 1.358-1.574.337-.693.506-1.544.506-2.551zm8.891 2.25v-5.159h1.341v8.727h-1.341v-1.477h-.091c-.205.443-.523.82-.955 1.131-.431.306-.977.46-1.636.46-.545 0-1.03-.12-1.455-.358-.424-.243-.757-.606-1-1.091-.242-.489-.363-1.104-.363-1.847v-5.545h1.341v5.454c0 .637.178 1.144.534 1.523.36.379.818.568 1.375.568a2.29 2.29 0 001.017-.255c.348-.171.64-.432.875-.784.238-.353.358-.802.358-1.347zm7.432-5.159v1.136h-4.523v-1.136h4.523zm-3.204-2.091h1.34v8.318c0 .379.055.663.165.852a.853.853 0 00.432.375c.178.061.366.091.563.091a2.4 2.4 0 00.363-.022l.227-.046.273 1.205a2.76 2.76 0 01-.38.102c-.163.038-.37.057-.62.057-.379 0-.75-.082-1.113-.245a2.203 2.203 0 01-.898-.744c-.235-.333-.352-.754-.352-1.261v-8.682zm5.43 10.818v-11.636h1.341v4.295h.114c.099-.151.235-.345.409-.579.178-.239.432-.451.761-.637.334-.189.785-.284 1.353-.284.735 0 1.382.184 1.943.551.561.368.998.889 1.312 1.563.315.674.472 1.47.472 2.386 0 .924-.157 1.726-.472 2.404-.314.674-.75 1.197-1.306 1.568-.557.367-1.199.551-1.927.551-.56 0-1.009-.093-1.346-.278-.337-.19-.597-.404-.779-.643a8.968 8.968 0 01-.42-.602h-.159v1.341h-1.296zm1.319-4.364c0 .66.096 1.241.289 1.745.194.5.476.892.847 1.176.371.28.826.42 1.364.42.56 0 1.028-.147 1.403-.443.379-.299.663-.701.852-1.204.194-.508.29-1.072.29-1.694 0-.613-.095-1.166-.284-1.659-.186-.496-.468-.888-.847-1.176-.375-.291-.846-.437-1.414-.437-.546 0-1.004.138-1.375.415-.372.272-.652.655-.841 1.147-.19.489-.284 1.059-.284 1.71zm11.823 4.546c-.788 0-1.48-.188-2.074-.563-.591-.375-1.053-.899-1.387-1.573-.329-.675-.494-1.463-.494-2.364 0-.909.165-1.703.494-2.381.334-.678.796-1.204 1.387-1.579.594-.375 1.286-.563 2.074-.563.787 0 1.477.188 2.068.563.594.375 1.057.901 1.386 1.579.333.678.5 1.472.5 2.381 0 .901-.167 1.689-.5 2.364a3.768 3.768 0 01-1.386 1.573c-.591.375-1.281.563-2.068.563zm0-1.205c.598 0 1.091-.153 1.477-.46a2.72 2.72 0 00.858-1.21c.185-.5.278-1.042.278-1.625s-.093-1.127-.278-1.631a2.748 2.748 0 00-.858-1.221c-.386-.311-.879-.466-1.477-.466-.599 0-1.091.155-1.478.466-.386.31-.672.717-.858 1.221a4.699 4.699 0 00-.278 1.631c0 .583.093 1.125.278 1.625.186.5.472.903.858 1.21.387.307.879.46 1.478.46zm11.341-2.545v-5.159h1.341v8.727h-1.341v-1.477h-.091c-.204.443-.523.82-.954 1.131-.432.306-.978.46-1.637.46a2.92 2.92 0 01-1.454-.358c-.425-.243-.758-.606-1-1.091-.243-.489-.364-1.104-.364-1.847v-5.545h1.341v5.454c0 .637.178 1.144.534 1.523.36.379.818.568 1.375.568a2.29 2.29 0 001.017-.255 2.22 2.22 0 00.875-.784c.239-.353.358-.802.358-1.347zm4.978-1.682v5.25h-1.341v-8.727h1.295v1.363h.114c.205-.443.515-.799.932-1.068.416-.272.954-.409 1.613-.409.591 0 1.108.121 1.552.364.443.238.787.602 1.034 1.091.246.485.369 1.098.369 1.841v5.545h-1.341v-5.454c0-.686-.178-1.22-.534-1.603-.356-.386-.845-.579-1.466-.579-.428 0-.811.093-1.148.278a1.995 1.995 0 00-.789.813c-.194.356-.29.788-.29 1.295zm11.154 5.432c-.728 0-1.37-.184-1.926-.551-.557-.371-.993-.894-1.307-1.568-.315-.678-.472-1.48-.472-2.404 0-.916.157-1.712.472-2.386.314-.674.752-1.195 1.312-1.563.561-.367 1.209-.551 1.943-.551.569 0 1.018.095 1.347.284.333.186.587.398.761.637.178.234.317.428.415.579h.114v-4.295h1.341V436.6h-1.296v-1.341h-.159c-.098.159-.238.36-.42.602-.182.239-.442.453-.779.643-.337.185-.786.278-1.346.278zm.182-1.205c.537 0 .992-.14 1.363-.42.371-.284.654-.676.847-1.176.193-.504.29-1.085.29-1.745 0-.651-.095-1.221-.285-1.71-.189-.492-.469-.875-.84-1.147-.372-.277-.83-.415-1.375-.415-.569 0-1.042.146-1.421.437-.375.288-.657.68-.846 1.176a4.67 4.67 0 00-.279 1.659c0 .622.095 1.186.284 1.694.193.503.477.905.852 1.204.379.296.849.443 1.41.443z" fill="#2C2C2C"/><defs><linearGradient id="paint0_linear_113_415" x1="45.764" y1="25.599" x2="45.764" y2="527.282" gradientUnits="userSpaceOnUse"><stop stop-color="#FFA800"/><stop offset="1" stop-color="#fff" stop-opacity=".01"/></linearGradient><linearGradient id="paint1_linear_113_415" x1="45.782" y1="165.765" x2="45.782" y2="437.648" gradientUnits="userSpaceOnUse"><stop stop-color="#00A3FF"/><stop offset="1" stop-color="#fff" stop-opacity=".01"/></linearGradient></defs></svg>