<svg width="581" height="441" viewBox="0 0 581 441" fill="none" xmlns="http://www.w3.org/2000/svg"><circle cx="129.47" cy="430.9" r="8" fill="#4EC125"/><path d="M154.879 436.4v-11.636h3.932c.913 0 1.659.164 2.239.494.583.326 1.015.767 1.295 1.324s.42 1.178.42 1.863c0 .686-.14 1.309-.42 1.87-.276.56-.705 1.007-1.284 1.341-.58.329-1.322.494-2.227.494h-2.819v-1.25h2.773c.625 0 1.127-.108 1.506-.324.379-.216.653-.508.824-.875.174-.371.261-.79.261-1.256 0-.466-.087-.882-.261-1.25a1.866 1.866 0 00-.83-.863c-.382-.212-.89-.318-1.523-.318h-2.477V436.4h-1.409zm13.266.182c-.788 0-1.479-.188-2.074-.563-.591-.375-1.053-.899-1.386-1.574-.33-.674-.494-1.462-.494-2.363 0-.909.164-1.703.494-2.381.333-.678.795-1.205 1.386-1.58.595-.375 1.286-.562 2.074-.562.788 0 1.478.187 2.068.562.595.375 1.057.902 1.387 1.58.333.678.5 1.472.5 2.381 0 .901-.167 1.689-.5 2.363-.33.675-.792 1.199-1.387 1.574-.59.375-1.28.563-2.068.563zm0-1.205c.599 0 1.091-.153 1.478-.46a2.71 2.71 0 00.857-1.21c.186-.5.279-1.042.279-1.625 0-.584-.093-1.127-.279-1.631a2.747 2.747 0 00-.857-1.222c-.387-.31-.879-.465-1.478-.465-.598 0-1.091.155-1.477.465a2.757 2.757 0 00-.858 1.222 4.671 4.671 0 00-.278 1.631c0 .583.092 1.125.278 1.625.186.5.472.903.858 1.21.386.307.879.46 1.477.46zm12.023-5.75l-1.204.341a2.253 2.253 0 00-.335-.585 1.63 1.63 0 00-.591-.477c-.25-.125-.57-.188-.96-.188-.535 0-.98.123-1.336.369-.352.243-.528.552-.528.927 0 .333.121.596.364.789.242.193.621.354 1.136.483l1.295.318c.781.19 1.362.48 1.745.87.382.386.574.884.574 1.494 0 .5-.144.947-.432 1.341-.284.394-.682.705-1.193.932-.512.227-1.106.341-1.785.341-.89 0-1.626-.193-2.21-.58-.583-.386-.952-.951-1.108-1.693l1.273-.318c.121.47.35.822.688 1.057.34.234.786.352 1.335.352.625 0 1.121-.133 1.488-.398.372-.269.557-.591.557-.966 0-.303-.106-.557-.318-.761-.212-.208-.538-.364-.977-.466l-1.455-.341c-.799-.189-1.386-.483-1.761-.881-.371-.401-.557-.903-.557-1.505 0-.493.138-.928.415-1.307a2.82 2.82 0 011.142-.892c.485-.216 1.034-.324 1.648-.324.863 0 1.541.189 2.034.568.496.379.848.879 1.056 1.5zm2.018 6.773v-8.727h1.341v8.727h-1.341zm.682-10.182a.953.953 0 01-.676-.267.857.857 0 01-.279-.642c0-.25.093-.464.279-.642a.953.953 0 01.676-.267c.261 0 .485.089.67.267.19.178.284.392.284.642s-.094.464-.284.642a.932.932 0 01-.67.267zm6.75 1.455v1.136h-4.522v-1.136h4.522zm-3.204-2.091h1.341v8.318c0 .379.055.663.165.852a.847.847 0 00.431.375c.178.061.366.091.563.091.148 0 .269-.007.363-.023l.228-.045.272 1.204c-.09.035-.217.069-.38.103-.163.038-.37.057-.62.057-.378 0-.75-.082-1.113-.245a2.217 2.217 0 01-.898-.744c-.235-.333-.352-.754-.352-1.261v-8.682zm5.061 10.818v-8.727h1.341v8.727h-1.341zm.682-10.182a.955.955 0 01-.676-.267.86.86 0 01-.278-.642.86.86 0 01.278-.642.955.955 0 01.676-.267c.262 0 .485.089.671.267a.851.851 0 01.284.642c0 .25-.095.464-.284.642a.935.935 0 01-.671.267zm10.092 1.455l-3.228 8.727h-1.363l-3.228-8.727h1.455l2.409 6.954h.091l2.409-6.954h1.455zm4.956 8.909c-.841 0-1.566-.186-2.176-.557a3.736 3.736 0 01-1.403-1.568c-.326-.675-.489-1.459-.489-2.353 0-.893.163-1.681.489-2.363.329-.686.787-1.22 1.375-1.602.591-.387 1.28-.58 2.068-.58.454 0 .903.076 1.346.227.444.152.847.398 1.211.739.363.337.653.784.869 1.341.216.557.324 1.242.324 2.057v.568h-6.727v-1.159h5.363c0-.493-.098-.932-.295-1.318a2.219 2.219 0 00-.83-.915c-.356-.224-.776-.335-1.261-.335-.534 0-.996.132-1.387.397a2.633 2.633 0 00-.892 1.023c-.208.42-.312.871-.312 1.352v.773c0 .659.114 1.218.341 1.676.231.455.551.801.96 1.04.409.235.884.352 1.426.352.352 0 .671-.049.955-.148a2.03 2.03 0 00.744-.454c.208-.205.369-.458.483-.761l1.295.363a2.86 2.86 0 01-.687 1.159c-.322.33-.72.587-1.193.773a4.425 4.425 0 01-1.597.273z" fill="#2C2C2C"/><circle cx="243.07" cy="430.9" r="8" fill="#FFA800"/><path d="M277.706 424.764V436.4h-1.363l-6.341-9.136h-.114v9.136h-1.409v-11.636h1.364l6.363 9.159h.114v-9.159h1.386zm6.137 11.818c-.841 0-1.566-.186-2.176-.557a3.736 3.736 0 01-1.403-1.568c-.326-.675-.489-1.459-.489-2.353 0-.893.163-1.681.489-2.363.329-.686.788-1.22 1.375-1.602.591-.387 1.28-.58 2.068-.58.454 0 .903.076 1.347.227.443.152.846.398 1.21.739.363.337.653.784.869 1.341.216.557.324 1.242.324 2.057v.568h-6.727v-1.159h5.363c0-.493-.098-.932-.295-1.318a2.219 2.219 0 00-.83-.915c-.356-.224-.776-.335-1.261-.335-.534 0-.996.132-1.386.397a2.617 2.617 0 00-.892 1.023c-.209.42-.313.871-.313 1.352v.773c0 .659.114 1.218.341 1.676.231.455.551.801.96 1.04.409.235.885.352 1.426.352.353 0 .671-.049.955-.148a2.03 2.03 0 00.744-.454c.208-.205.369-.458.483-.761l1.296.363c-.137.44-.366.826-.688 1.159-.322.33-.72.587-1.193.773a4.425 4.425 0 01-1.597.273zm10.994-3.75v-5.159h1.341v8.727h-1.341v-1.477h-.091c-.205.443-.523.82-.955 1.13-.432.307-.977.461-1.636.461-.546 0-1.03-.12-1.455-.358-.424-.243-.757-.606-1-1.091-.242-.489-.363-1.104-.363-1.847v-5.545h1.341v5.454c0 .637.178 1.144.534 1.523.36.379.818.568 1.375.568.333 0 .672-.085 1.017-.256.348-.17.64-.431.875-.784.238-.352.358-.801.358-1.346zm7.432-5.159v1.136h-4.523v-1.136h4.523zm-3.205-2.091h1.341v8.318c0 .379.055.663.165.852a.853.853 0 00.432.375c.178.061.366.091.562.091.148 0 .269-.007.364-.023l.227-.045.273 1.204a2.587 2.587 0 01-.381.103 2.785 2.785 0 01-.619.057 2.7 2.7 0 01-1.114-.245 2.214 2.214 0 01-.897-.744c-.235-.333-.353-.754-.353-1.261v-8.682zm5.062 10.818v-8.727h1.296v1.318h.09c.16-.432.447-.782.864-1.051a2.542 2.542 0 011.409-.404c.099 0 .222.002.369.006.148.004.26.009.336.017v1.364a3.724 3.724 0 00-.313-.052 3.126 3.126 0 00-.505-.039c-.425 0-.804.089-1.137.267a2.011 2.011 0 00-.784.727 1.963 1.963 0 00-.284 1.051v5.523h-1.341zm8.361.204a3.546 3.546 0 01-1.505-.312 2.58 2.58 0 01-1.074-.915c-.265-.401-.398-.886-.398-1.454 0-.5.099-.906.296-1.216.197-.315.46-.561.789-.739.33-.178.694-.311 1.091-.398.402-.091.805-.163 1.21-.216.531-.068.961-.119 1.29-.153.334-.038.576-.1.728-.187.155-.088.232-.239.232-.455v-.045c0-.561-.153-.997-.46-1.307-.303-.311-.763-.466-1.38-.466-.641 0-1.142.14-1.506.42-.364.281-.619.58-.767.898l-1.273-.455c.227-.53.53-.943.909-1.238a3.406 3.406 0 011.25-.625 5.205 5.205 0 011.341-.182c.28 0 .602.034.966.102.367.065.722.199 1.063.404.344.204.63.513.857.926.228.413.341.966.341 1.659v5.75h-1.341v-1.182h-.068a2.37 2.37 0 01-.454.608c-.212.216-.495.4-.847.551-.352.152-.782.227-1.29.227zm.205-1.204c.53 0 .977-.104 1.341-.313a2.124 2.124 0 001.113-1.846v-1.227c-.056.068-.181.13-.375.187-.189.053-.409.1-.659.142a27.7 27.7 0 01-.721.102c-.231.027-.419.05-.563.069a5.114 5.114 0 00-.977.221 1.684 1.684 0 00-.727.449c-.182.197-.273.466-.273.807 0 .466.172.818.517 1.057.349.234.79.352 1.324.352zm7.424-10.636V436.4h-1.341v-11.636h1.341z" fill="#2C2C2C"/><circle cx="352.67" cy="430.9" r="8" fill="#C00000"/><path d="M387.306 424.764V436.4h-1.363l-6.341-9.136h-.114v9.136h-1.409v-11.636h1.364l6.363 9.159h.114v-9.159h1.386zm6.137 11.818c-.841 0-1.566-.186-2.176-.557a3.736 3.736 0 01-1.403-1.568c-.326-.675-.489-1.459-.489-2.353 0-.893.163-1.681.489-2.363.329-.686.788-1.22 1.375-1.602.591-.387 1.28-.58 2.068-.58.454 0 .903.076 1.347.227.443.152.846.398 1.21.739.363.337.653.784.869 1.341.216.557.324 1.242.324 2.057v.568h-6.727v-1.159h5.363c0-.493-.098-.932-.295-1.318a2.219 2.219 0 00-.83-.915c-.356-.224-.776-.335-1.261-.335-.534 0-.996.132-1.386.397a2.617 2.617 0 00-.892 1.023c-.209.42-.313.871-.313 1.352v.773c0 .659.114 1.218.341 1.676.231.455.551.801.96 1.04.409.235.885.352 1.426.352.353 0 .671-.049.955-.148a2.03 2.03 0 00.744-.454c.208-.205.369-.458.483-.761l1.296.363c-.137.44-.366.826-.688 1.159-.322.33-.72.587-1.193.773a4.425 4.425 0 01-1.597.273zm9.016 3.272c-.647 0-1.204-.083-1.67-.25a3.53 3.53 0 01-1.165-.647 3.544 3.544 0 01-.733-.853l1.068-.75c.122.16.275.341.461.546.185.208.439.388.761.54.326.155.752.233 1.278.233.705 0 1.286-.171 1.745-.512.458-.341.687-.875.687-1.602v-1.773h-.113a7.374 7.374 0 01-.421.591c-.178.231-.435.438-.773.619-.333.179-.784.268-1.352.268a3.648 3.648 0 01-1.898-.5c-.556-.334-.998-.819-1.323-1.455-.322-.636-.483-1.409-.483-2.318 0-.894.157-1.673.471-2.335.315-.667.752-1.182 1.313-1.546.56-.367 1.208-.551 1.943-.551.568 0 1.019.095 1.352.284.337.186.595.398.773.636.182.235.322.428.42.58h.137v-1.386h1.295v8.977c0 .75-.17 1.36-.511 1.829a2.905 2.905 0 01-1.364 1.04c-.568.224-1.201.335-1.898.335zm-.045-4.795c.538 0 .992-.123 1.364-.369.371-.247.653-.601.846-1.063.193-.462.29-1.015.29-1.659 0-.629-.095-1.184-.284-1.665-.19-.481-.47-.858-.841-1.13-.371-.273-.83-.409-1.375-.409-.568 0-1.042.143-1.42.431a2.632 2.632 0 00-.847 1.159 4.475 4.475 0 00-.278 1.614c0 .606.094 1.142.284 1.608.193.462.477.826.852 1.091.379.261.848.392 1.409.392zm8.681 1.545a3.554 3.554 0 01-1.506-.312 2.58 2.58 0 01-1.074-.915c-.265-.401-.397-.886-.397-1.454 0-.5.098-.906.295-1.216.197-.315.46-.561.79-.739a4.138 4.138 0 011.091-.398 13.22 13.22 0 011.21-.216c.53-.068.96-.119 1.29-.153.333-.038.575-.1.727-.187.155-.088.233-.239.233-.455v-.045c0-.561-.153-.997-.46-1.307-.303-.311-.764-.466-1.381-.466-.64 0-1.142.14-1.506.42-.363.281-.619.58-.767.898l-1.272-.455c.227-.53.53-.943.909-1.238a3.398 3.398 0 011.25-.625 5.193 5.193 0 011.341-.182c.28 0 .602.034.966.102.367.065.721.199 1.062.404.345.204.631.513.858.926.227.413.341.966.341 1.659v5.75h-1.341v-1.182h-.068a2.377 2.377 0 01-.455.608c-.212.216-.494.4-.846.551-.353.152-.783.227-1.29.227zm.204-1.204c.531 0 .978-.104 1.341-.313a2.127 2.127 0 001.114-1.846v-1.227c-.057.068-.182.13-.375.187-.189.053-.409.1-.659.142-.246.038-.487.072-.722.102-.231.027-.418.05-.562.069a5.097 5.097 0 00-.977.221c-.3.099-.542.248-.728.449-.182.197-.272.466-.272.807 0 .466.172.818.517 1.057.348.234.789.352 1.323.352zm9.879-7.727v1.136h-4.523v-1.136h4.523zm-3.205-2.091h1.341v8.318c0 .379.055.663.165.852a.849.849 0 00.432.375c.178.061.365.091.562.091.148 0 .269-.007.364-.023l.227-.045.273 1.204a2.587 2.587 0 01-.381.103 2.792 2.792 0 01-.619.057 2.7 2.7 0 01-1.114-.245 2.217 2.217 0 01-.898-.744c-.234-.333-.352-.754-.352-1.261v-8.682zm5.062 10.818v-8.727h1.341v8.727h-1.341zm.682-10.182a.955.955 0 01-.677-.267.86.86 0 01-.278-.642.86.86 0 01.278-.642.955.955 0 01.677-.267c.261 0 .484.089.67.267a.851.851 0 01.284.642c0 .25-.095.464-.284.642a.934.934 0 01-.67.267zm10.091 1.455l-3.227 8.727h-1.364l-3.227-8.727h1.454l2.41 6.954h.09l2.41-6.954h1.454zm4.957 8.909c-.841 0-1.567-.186-2.177-.557a3.742 3.742 0 01-1.403-1.568c-.326-.675-.489-1.459-.489-2.353 0-.893.163-1.681.489-2.363.33-.686.788-1.22 1.375-1.602.591-.387 1.28-.58 2.068-.58.455 0 .904.076 1.347.227.443.152.846.398 1.21.739.364.337.653.784.869 1.341.216.557.324 1.242.324 2.057v.568h-6.727v-1.159h5.364c0-.493-.099-.932-.296-1.318a2.223 2.223 0 00-.829-.915c-.357-.224-.777-.335-1.262-.335-.534 0-.996.132-1.386.397a2.617 2.617 0 00-.892 1.023c-.209.42-.313.871-.313 1.352v.773c0 .659.114 1.218.341 1.676.231.455.551.801.96 1.04.409.235.885.352 1.427.352.352 0 .67-.049.954-.148a2.03 2.03 0 00.744-.454c.209-.205.37-.458.483-.761l1.296.363c-.137.44-.366.826-.688 1.159-.322.33-.719.587-1.193.773a4.42 4.42 0 01-1.596.273z" fill="#2C2C2C"/><path d="M43.165 354.8v-8.146h1.229v3.89h.1l3.416-3.89h1.547l-3.285 3.667 3.297 4.479h-1.48l-2.633-3.639-.962 1.105v2.534h-1.23zm7.437 0v-8.146h5.107v1.058h-3.878v2.482h3.612v1.054H51.83v2.494h3.926v1.058h-5.155zm7-4.073c0-.997.13-1.914.393-2.752a8.203 8.203 0 011.15-2.319h1.09a5.01 5.01 0 00-.55.967c-.17.381-.318.8-.445 1.256a11.24 11.24 0 00-.298 1.412 9.837 9.837 0 00.08 3.353c.124.647.292 1.248.504 1.802.212.554.448 1.006.708 1.356h-1.09a8.203 8.203 0 01-1.149-2.319c-.262-.838-.394-1.756-.394-2.756zm3.58-3.015v-1.058h6.304v1.058h-2.542v7.088H63.72v-7.088h-2.537zm9.292 7.088l-2.26-8.146h1.293l1.587 6.308h.076l1.65-6.308h1.281l1.65 6.312h.076l1.583-6.312h1.297l-2.263 8.146h-1.237l-1.714-6.101h-.064l-1.714 6.101h-1.241zm11.545-4.073c0 1-.131 1.918-.394 2.756a8.203 8.203 0 01-1.15 2.319h-1.09a5 5 0 00.55-.966c.17-.382.318-.8.445-1.253.127-.456.227-.928.299-1.416.071-.488.107-.968.107-1.44 0-.628-.062-1.266-.187-1.913a10.698 10.698 0 00-.505-1.802c-.212-.554-.448-1.006-.708-1.356h1.09a8.203 8.203 0 011.15 2.319c.262.838.393 1.755.393 2.752z" fill="#7B91B0"/><rect x="78.27" y="323" width="24" height="6.4" rx="2.674" fill="#D13C3C"/><rect x="23.87" y="306.2" width="24" height="23.2" rx="2.674" fill="#FFA800"/><rect x="50.833" y="251" width="23.791" height="78.4" rx="2.674" fill="#4EC125"/><rect x="227.279" y="264.6" width="23.791" height="64.8" rx="2.674" fill="#D13C3C"/><rect x="172.67" y="306.2" width="24" height="23.2" rx="2.674" fill="#FFA800"/><rect x="199.87" y="176.6" width="23.2" height="152" rx="2.674" fill="#4EC125"/><rect x="375.87" y="316.6" width="24" height="12.8" rx="2.674" fill="#D13C3C"/><rect x="321.47" y="300.6" width="24" height="28.8" rx="2.674" fill="#FFA800"/><rect x="348.67" y="233.4" width="23.2" height="96" rx="2.674" fill="#4EC125"/><rect x="524.67" y="306.2" width="24" height="23.2" rx="2.674" fill="#D13C3C"/><rect x="470.27" y="271" width="24" height="58.4" rx="2.674" fill="#FFA800"/><rect x="497.233" y="251" width="23.791" height="78.4" rx="2.674" fill="#4EC125"/><path d="M195.165 354.8v-8.146h1.229v3.89h.099l3.417-3.89h1.547l-3.285 3.667 3.297 4.479h-1.48l-2.633-3.639-.962 1.105v2.534h-1.229zm7.437 0v-8.146h5.107v1.058h-3.878v2.482h3.612v1.054h-3.612v2.494h3.926v1.058h-5.155zm6.999-4.073c0-.997.132-1.914.394-2.752a8.212 8.212 0 011.15-2.319h1.089a5.062 5.062 0 00-.549.967 9.16 9.16 0 00-.445 1.256 11.24 11.24 0 00-.298 1.412 9.783 9.783 0 00.079 3.353c.125.647.293 1.248.505 1.802.213.554.448 1.006.708 1.356h-1.089a8.212 8.212 0 01-1.15-2.319c-.262-.838-.394-1.756-.394-2.756zm5.212-4.073v8.146h-1.229v-8.146h1.229zm8.364 0v8.146h-1.13l-4.14-5.974h-.076v5.974h-1.229v-8.146h1.138l4.144 5.982h.076v-5.982h1.217zm3.984 4.073c0 1-.131 1.918-.394 2.756a8.183 8.183 0 01-1.149 2.319h-1.09c.196-.262.379-.585.549-.966.17-.382.318-.8.445-1.253.128-.456.227-.928.299-1.416.071-.488.107-.968.107-1.44 0-.628-.062-1.266-.187-1.913a10.642 10.642 0 00-.505-1.802c-.212-.554-.448-1.006-.708-1.356h1.09a8.183 8.183 0 011.149 2.319c.263.838.394 1.755.394 2.752z" fill="#7B91B0"/><path d="M328.765 354.8v-8.146h1.229v3.89h.099l3.417-3.89h1.547l-3.285 3.667 3.297 4.479h-1.48l-2.633-3.639-.962 1.105v2.534h-1.229zm10.402 0v-8.146h5.106v1.058h-3.877v2.482h3.611v1.054h-3.611v2.494h3.925v1.058h-5.154zm6.748 0v-8.146h1.229v7.088h3.691v1.058h-4.92zm6.322 0v-8.146h5.107v1.058h-3.878v2.482h3.611v1.054h-3.611v2.494h3.925v1.058h-5.154zm13.514-5.497h-1.241a1.906 1.906 0 00-.744-1.213 2.076 2.076 0 00-.632-.318 2.458 2.458 0 00-.736-.107c-.47 0-.89.118-1.261.354-.369.236-.66.582-.875 1.038-.212.456-.318 1.013-.318 1.67 0 .663.106 1.222.318 1.678.215.457.508.801.879 1.035.371.233.789.35 1.253.35.257 0 .501-.035.732-.104a2.09 2.09 0 00.632-.314 1.91 1.91 0 00.752-1.197l1.241.004a3.33 3.33 0 01-.386 1.105 3.04 3.04 0 01-.728.868 3.28 3.28 0 01-1.01.56 3.726 3.726 0 01-1.241.199c-.705 0-1.334-.167-1.885-.501-.552-.337-.987-.818-1.305-1.444-.315-.625-.473-1.372-.473-2.239 0-.87.159-1.616.477-2.239.318-.626.753-1.106 1.305-1.44.551-.337 1.178-.505 1.881-.505.432 0 .835.062 1.209.187.376.122.715.302 1.014.541.3.236.548.525.744.867.196.339.329.728.398 1.165zm1.069-1.591v-1.058h6.303v1.058h-2.541v7.088h-1.225v-7.088h-2.537zm7.697 7.088v-8.146h2.903c.631 0 1.155.109 1.571.326.419.218.732.519.939.903.206.382.31.824.31 1.325 0 .498-.105.937-.314 1.316a2.11 2.11 0 01-.939.879c-.416.21-.94.314-1.571.314h-2.199v-1.058h2.088c.397 0 .721-.057.97-.171a1.13 1.13 0 00.553-.497c.117-.217.175-.478.175-.783 0-.308-.06-.574-.179-.8a1.162 1.162 0 00-.553-.517c-.249-.122-.577-.183-.982-.183h-1.543v7.092h-1.229zm4.021-3.675l2.012 3.675h-1.4l-1.973-3.675h1.361zm4.426-4.471v8.146h-1.229v-8.146h1.229zm8.555 2.649h-1.241a1.887 1.887 0 00-.743-1.213 2.081 2.081 0 00-.633-.318 2.451 2.451 0 00-.735-.107c-.47 0-.89.118-1.261.354-.369.236-.66.582-.875 1.038-.212.456-.318 1.013-.318 1.67 0 .663.106 1.222.318 1.678.215.457.508.801.879 1.035.371.233.789.35 1.253.35.257 0 .501-.035.731-.104.234-.071.445-.176.633-.314a1.892 1.892 0 00.751-1.197l1.241.004a3.33 3.33 0 01-.385 1.105 3.056 3.056 0 01-.728.868 3.292 3.292 0 01-1.01.56 3.73 3.73 0 01-1.241.199c-.706 0-1.334-.167-1.886-.501-.551-.337-.986-.818-1.304-1.444-.316-.625-.473-1.372-.473-2.239 0-.87.159-1.616.477-2.239.318-.626.753-1.106 1.304-1.44.552-.337 1.179-.505 1.882-.505.432 0 .835.062 1.209.187.376.122.714.302 1.014.541.3.236.547.525.744.867.196.339.328.728.397 1.165z" fill="#8B9FBA"/><path d="M462.365 354.8v-8.146h1.229v3.89h.099l3.417-3.89h1.547l-3.285 3.667 3.297 4.479h-1.48l-2.633-3.639-.962 1.105v2.534h-1.229zm13.905-4.59v1.034h-3.611v-1.034h3.611zm4.645 4.59v-8.146h5.107v1.058h-3.878v2.482h3.611v1.054h-3.611v2.494h3.925v1.058h-5.154zm6.748 0v-8.146h1.229v7.088h3.691v1.058h-4.92zm6.322 0v-8.146h5.107v1.058h-3.878v2.482h3.611v1.054h-3.611v2.494h3.926v1.058h-5.155zm13.514-5.497h-1.241a1.922 1.922 0 00-.266-.7 1.965 1.965 0 00-.478-.513 2.076 2.076 0 00-.632-.318 2.458 2.458 0 00-.736-.107 2.3 2.3 0 00-1.261.354c-.368.236-.66.582-.875 1.038-.212.456-.318 1.013-.318 1.67 0 .663.106 1.222.318 1.678.215.457.508.801.879 1.035.371.233.789.35 1.253.35.257 0 .501-.035.732-.104a2.09 2.09 0 00.632-.314 1.917 1.917 0 00.752-1.197l1.241.004c-.066.4-.195.769-.386 1.105a3.04 3.04 0 01-.728.868 3.28 3.28 0 01-1.01.56 3.726 3.726 0 01-1.241.199c-.705 0-1.334-.167-1.885-.501-.552-.337-.986-.818-1.305-1.444-.315-.625-.473-1.372-.473-2.239 0-.87.159-1.616.477-2.239.319-.626.753-1.106 1.305-1.44.551-.337 1.178-.505 1.881-.505.432 0 .835.062 1.209.187.377.122.715.302 1.014.541.3.236.548.525.744.867.196.339.329.728.398 1.165zm1.069-1.591v-1.058h6.304v1.058h-2.542v7.088h-1.225v-7.088h-2.537zm7.697 7.088v-8.146h2.903c.631 0 1.155.109 1.571.326.419.218.732.519.939.903.207.382.31.824.31 1.325 0 .498-.105.937-.314 1.316a2.11 2.11 0 01-.939.879c-.416.21-.94.314-1.571.314h-2.199v-1.058h2.088c.398 0 .721-.057.97-.171.252-.114.437-.279.553-.497.117-.217.175-.478.175-.783a1.68 1.68 0 00-.179-.8 1.158 1.158 0 00-.553-.517c-.249-.122-.576-.183-.982-.183h-1.543v7.092h-1.229zm4.021-3.675l2.012 3.675h-1.4l-1.972-3.675h1.36zm4.427-4.471v8.146h-1.229v-8.146h1.229zm8.555 2.649h-1.241a1.906 1.906 0 00-.744-1.213 2.076 2.076 0 00-.632-.318 2.458 2.458 0 00-.736-.107 2.3 2.3 0 00-1.261.354c-.369.236-.66.582-.875 1.038-.212.456-.318 1.013-.318 1.67 0 .663.106 1.222.318 1.678.215.457.508.801.879 1.035.371.233.789.35 1.253.35.257 0 .501-.035.732-.104a2.09 2.09 0 00.632-.314 1.91 1.91 0 00.752-1.197l1.241.004a3.33 3.33 0 01-.386 1.105 3.04 3.04 0 01-.728.868 3.28 3.28 0 01-1.01.56 3.726 3.726 0 01-1.241.199c-.705 0-1.334-.167-1.885-.501-.552-.337-.987-.818-1.305-1.444-.315-.625-.473-1.372-.473-2.239 0-.87.159-1.616.477-2.239.318-.626.753-1.106 1.305-1.44.551-.337 1.178-.505 1.881-.505.432 0 .835.062 1.209.187.376.122.715.302 1.014.541.3.236.548.525.744.867.196.339.329.728.398 1.165zm1.721 1.424c0-.997.131-1.914.394-2.752a8.183 8.183 0 011.149-2.319h1.09a5.062 5.062 0 00-.549.967c-.17.381-.318.8-.446 1.256a11.42 11.42 0 00-.298 1.412 9.92 9.92 0 00-.107 1.436c0 .631.062 1.27.187 1.917.124.647.293 1.248.505 1.802.212.554.448 1.006.708 1.356h-1.09a8.183 8.183 0 01-1.149-2.319c-.263-.838-.394-1.756-.394-2.756zm3.982 4.073v-8.146h5.051v1.058H540.2v2.482h3.46v1.054h-3.46v3.552h-1.229zm6.563 0v-8.146h2.983c.578 0 1.056.096 1.435.287.379.188.663.444.851.767a2.1 2.1 0 01.283 1.086c0 .34-.062.626-.187.859a1.54 1.54 0 01-.501.557 2.194 2.194 0 01-.684.302v.08c.27.013.534.101.791.262.26.159.475.386.644.68.17.295.255.653.255 1.074 0 .417-.098.79-.294 1.122-.194.329-.493.59-.899.783-.406.191-.924.287-1.555.287h-3.122zm1.229-1.054h1.773c.589 0 1.011-.114 1.265-.342.255-.228.382-.513.382-.855 0-.258-.065-.494-.195-.708a1.385 1.385 0 00-.557-.513 1.773 1.773 0 00-.851-.191h-1.817v2.609zm0-3.568h1.646c.276 0 .524-.053.744-.159.223-.106.399-.254.529-.445.132-.194.199-.422.199-.684 0-.337-.118-.62-.354-.848-.236-.228-.598-.342-1.086-.342h-1.678v2.478zm8.29.549c0 1-.131 1.918-.394 2.756a8.183 8.183 0 01-1.149 2.319h-1.09c.196-.262.379-.585.549-.966.17-.382.318-.8.446-1.253.127-.456.226-.928.298-1.416.071-.488.107-.968.107-1.44 0-.628-.062-1.266-.187-1.913a10.642 10.642 0 00-.505-1.802c-.212-.554-.448-1.006-.708-1.356h1.09a8.183 8.183 0 011.149 2.319c.263.838.394 1.755.394 2.752z" fill="#8398B5"/><path d="M84.29 318.935c-.629-.003-1.166-.168-1.611-.497-.446-.329-.787-.808-1.023-1.436-.236-.628-.354-1.385-.354-2.271 0-.883.118-1.637.354-2.263.24-.626.581-1.103 1.027-1.432.448-.329.983-.493 1.606-.493.624 0 1.158.166 1.603.497.446.329.787.806 1.023 1.432.238.623.357 1.376.357 2.259 0 .888-.118 1.647-.354 2.275-.236.626-.576 1.104-1.022 1.436-.445.329-.98.493-1.606.493zm0-1.062c.551 0 .982-.269 1.292-.807.313-.539.47-1.317.47-2.335 0-.676-.072-1.247-.215-1.714-.14-.469-.344-.825-.609-1.066a1.331 1.331 0 00-.938-.366c-.55 0-.98.27-1.293.811-.313.541-.47 1.32-.474 2.335 0 .679.07 1.253.211 1.722.144.467.346.821.609 1.062.262.239.578.358.947.358zm7.23 1.038a3.616 3.616 0 01-1.465-.282 2.483 2.483 0 01-1.014-.784 2.076 2.076 0 01-.397-1.169h1.248c.016.241.097.451.243.628.148.175.342.311.58.406.24.095.504.143.796.143.321 0 .605-.055.851-.167a1.38 1.38 0 00.585-.465c.14-.202.21-.434.21-.696 0-.273-.07-.513-.21-.72a1.367 1.367 0 00-.609-.493c-.265-.12-.585-.179-.962-.179h-.688v-1.003h.688c.302 0 .567-.054.795-.163.231-.108.411-.259.541-.453.13-.196.195-.426.195-.688 0-.252-.057-.471-.17-.656a1.145 1.145 0 00-.478-.442 1.551 1.551 0 00-.724-.159c-.265 0-.513.049-.744.147a1.382 1.382 0 00-.556.414c-.144.178-.22.391-.231.64h-1.19c.014-.44.144-.827.39-1.161.25-.334.578-.595.987-.784a3.214 3.214 0 011.36-.282c.522 0 .973.102 1.352.306.382.202.676.471.883.808.21.336.313.705.31 1.105.003.456-.124.843-.381 1.162a1.853 1.853 0 01-1.019.64v.064c.541.082.96.297 1.257.644.3.347.448.778.446 1.293.002.448-.122.849-.374 1.205-.25.355-.59.635-1.022.839-.433.201-.927.302-1.484.302zm5.757-.766v-.184a.8.8 0 01.081-.361.655.655 0 01.242-.264.714.714 0 01.387-.101c.155 0 .284.033.389.099a.635.635 0 01.237.264c.054.11.082.231.082.363v.184a.806.806 0 01-.082.363.665.665 0 01-.24.265.716.716 0 01-.386.098.729.729 0 01-.388-.098.665.665 0 01-.24-.265.806.806 0 01-.082-.363zm.397-.184v.184a.51.51 0 00.07.266c.046.08.127.119.243.119.115 0 .195-.039.24-.119a.525.525 0 00.069-.266v-.184a.538.538 0 00-.067-.266c-.043-.079-.123-.119-.242-.119-.113 0-.194.04-.242.119a.507.507 0 00-.071.266zm-2.153-1.813v-.185c0-.131.027-.252.082-.363a.654.654 0 01.242-.264.722.722 0 01.387-.099c.154 0 .284.033.388.099a.635.635 0 01.237.264c.054.111.08.232.08.363v.185a.812.812 0 01-.081.363.644.644 0 01-.24.264.708.708 0 01-.384.099.723.723 0 01-.39-.099.659.659 0 01-.24-.264.811.811 0 01-.081-.363zm.399-.185v.185c0 .097.022.186.068.265.046.08.128.12.244.12.113 0 .193-.04.238-.12a.513.513 0 00.07-.265v-.185a.534.534 0 00-.066-.265c-.045-.08-.125-.12-.242-.12-.114 0-.195.04-.242.12a.513.513 0 00-.07.265zm-.237 2.837l2.4-3.491h.407l-2.4 3.491h-.407zm134.57-58.4v-.891l2.757-2.856c.294-.31.537-.582.728-.815.193-.236.338-.46.433-.672.096-.212.143-.438.143-.676a1.25 1.25 0 00-.191-.7 1.247 1.247 0 00-.521-.458 1.665 1.665 0 00-.743-.163c-.292 0-.547.06-.764.179a1.23 1.23 0 00-.501.505 1.59 1.59 0 00-.175.764h-1.173c0-.496.114-.929.342-1.301a2.32 2.32 0 01.938-.863c.398-.207.85-.31 1.356-.31.512 0 .963.102 1.353.306.392.202.698.478.918.828.221.347.331.739.331 1.177 0 .302-.057.598-.171.887-.112.289-.307.611-.585.966-.279.353-.666.781-1.161 1.285l-1.619 1.694v.06h3.667v1.054h-5.362zm9.705.111a3.62 3.62 0 01-1.464-.282 2.48 2.48 0 01-1.014-.784 2.085 2.085 0 01-.398-1.169h1.249c.016.241.097.451.243.628.148.175.342.311.581.406.238.096.503.143.795.143.321 0 .605-.055.851-.167.249-.111.444-.266.585-.465.14-.202.211-.434.211-.696 0-.273-.071-.513-.211-.72a1.375 1.375 0 00-.609-.493c-.265-.119-.586-.179-.962-.179h-.688v-1.002h.688c.302 0 .567-.055.795-.163.231-.109.411-.26.541-.454.13-.196.195-.425.195-.688 0-.252-.057-.471-.171-.656a1.147 1.147 0 00-.477-.442 1.553 1.553 0 00-.724-.159c-.265 0-.513.049-.744.147a1.388 1.388 0 00-.557.414 1.06 1.06 0 00-.23.64h-1.19c.014-.44.144-.827.39-1.161.249-.334.578-.595.987-.784a3.21 3.21 0 011.36-.282c.522 0 .973.102 1.352.306.382.202.676.471.883.808.21.336.313.705.31 1.105.003.456-.124.844-.382 1.162a1.848 1.848 0 01-1.018.64v.064c.541.082.96.297 1.257.644.3.347.448.778.446 1.293.002.448-.122.849-.374 1.205-.25.355-.59.635-1.022.839-.433.202-.927.302-1.484.302zm5.757-.766v-.184c0-.132.028-.252.082-.361a.662.662 0 01.242-.264.715.715 0 01.387-.101c.155 0 .284.033.389.099a.642.642 0 01.237.264c.054.11.082.231.082.363v.184a.813.813 0 01-.082.363.654.654 0 01-.241.265.706.706 0 01-.385.098.717.717 0 01-.388-.098.654.654 0 01-.241-.265.813.813 0 01-.082-.363zm.398-.184v.184a.52.52 0 00.069.266c.047.08.128.12.244.12.115 0 .195-.04.241-.12a.529.529 0 00.068-.266v-.184a.534.534 0 00-.067-.266c-.043-.079-.124-.119-.242-.119-.113 0-.194.04-.242.119a.507.507 0 00-.071.266zm-2.153-1.813v-.184c0-.132.027-.253.082-.364a.648.648 0 01.242-.264.718.718 0 01.387-.099c.154 0 .284.033.388.099a.629.629 0 01.237.264c.053.111.08.232.08.364v.184a.806.806 0 01-.082.363.643.643 0 01-.238.264.709.709 0 01-.385.099.725.725 0 01-.391-.099.658.658 0 01-.238-.264.806.806 0 01-.082-.363zm.399-.184v.184c0 .097.022.186.068.266.046.079.128.119.244.119.113 0 .193-.04.238-.119a.516.516 0 00.07-.266v-.184a.538.538 0 00-.066-.266c-.045-.08-.125-.12-.242-.12-.114 0-.195.04-.243.12a.52.52 0 00-.069.266zm-.237 2.836l2.4-3.491h.407l-2.4 3.491h-.407zm134.932 52v-.891l2.756-2.856c.294-.31.537-.582.728-.815.193-.236.338-.46.433-.672.096-.212.143-.438.143-.676a1.25 1.25 0 00-.191-.7 1.247 1.247 0 00-.521-.458 1.665 1.665 0 00-.743-.163c-.292 0-.547.06-.764.179-.217.12-.384.288-.501.505a1.59 1.59 0 00-.175.764h-1.173c0-.496.114-.929.342-1.301.228-.371.541-.659.938-.863.398-.207.85-.31 1.356-.31.512 0 .963.102 1.353.306.392.202.698.478.919.828.22.347.33.739.33 1.177 0 .302-.057.598-.171.887-.112.289-.307.611-.585.966-.278.353-.666.781-1.161 1.285l-1.619 1.694v.06h3.667v1.054h-5.361zm9.704.111a3.62 3.62 0 01-1.464-.282 2.487 2.487 0 01-1.014-.784 2.085 2.085 0 01-.398-1.169h1.249c.016.241.097.451.243.628.148.175.342.311.581.406.238.096.503.143.795.143.321 0 .605-.055.851-.167.249-.111.444-.266.585-.465.14-.202.211-.434.211-.696 0-.273-.071-.513-.211-.72a1.375 1.375 0 00-.609-.493c-.265-.119-.586-.179-.962-.179h-.688v-1.002h.688c.302 0 .567-.055.795-.163.231-.109.411-.26.541-.454.13-.196.195-.425.195-.688 0-.252-.057-.471-.171-.656a1.147 1.147 0 00-.477-.442 1.553 1.553 0 00-.724-.159c-.265 0-.513.049-.744.147a1.388 1.388 0 00-.557.414 1.06 1.06 0 00-.23.64h-1.189a2.01 2.01 0 01.389-1.161c.25-.334.578-.595.987-.784a3.21 3.21 0 011.36-.282c.522 0 .973.102 1.352.306.382.202.676.471.883.808.21.336.313.705.31 1.105.003.456-.124.844-.381 1.162a1.854 1.854 0 01-1.019.64v.064c.541.082.96.297 1.257.644.3.347.448.778.446 1.293.002.448-.122.849-.374 1.205-.25.355-.59.635-1.022.839-.433.202-.927.302-1.484.302zm5.757-.766v-.184c0-.132.028-.252.082-.361a.662.662 0 01.242-.264.715.715 0 01.387-.101c.155 0 .284.033.389.099a.642.642 0 01.237.264c.054.11.082.231.082.363v.184a.813.813 0 01-.082.363.654.654 0 01-.241.265.704.704 0 01-.385.098.717.717 0 01-.388-.098.654.654 0 01-.241-.265.813.813 0 01-.082-.363zm.398-.184v.184a.52.52 0 00.069.266c.047.08.128.12.244.12.115 0 .195-.04.241-.12a.529.529 0 00.068-.266v-.184a.534.534 0 00-.067-.266c-.043-.079-.124-.119-.242-.119-.113 0-.194.04-.242.119a.507.507 0 00-.071.266zm-2.153-1.813v-.184c0-.132.027-.253.082-.364a.648.648 0 01.242-.264.718.718 0 01.387-.099c.154 0 .284.033.388.099a.629.629 0 01.237.264.82.82 0 01.08.364v.184a.806.806 0 01-.082.363.643.643 0 01-.238.264.709.709 0 01-.385.099.725.725 0 01-.391-.099.658.658 0 01-.238-.264.806.806 0 01-.082-.363zm.399-.184v.184c0 .097.022.186.068.266.046.079.128.119.244.119.113 0 .193-.04.238-.119a.516.516 0 00.07-.266v-.184a.538.538 0 00-.066-.266c-.045-.08-.125-.12-.242-.12-.114 0-.195.04-.242.12a.51.51 0 00-.07.266zm-.237 2.836l2.4-3.491h.407l-2.4 3.491h-.407zm80.532-45.6v-.891l2.756-2.856c.294-.31.537-.582.728-.815.193-.236.338-.46.433-.672.096-.212.143-.438.143-.676 0-.271-.063-.504-.19-.7a1.253 1.253 0 00-.521-.458 1.656 1.656 0 00-.744-.163c-.292 0-.546.06-.764.179a1.231 1.231 0 00-.501.505 1.59 1.59 0 00-.175.764h-1.173c0-.496.114-.93.342-1.301.228-.371.541-.659.938-.863.398-.207.85-.31 1.357-.31.511 0 .962.102 1.352.306.392.202.699.478.919.828.22.347.33.739.33 1.177 0 .302-.057.598-.171.887-.112.289-.307.611-.585.966-.278.353-.665.781-1.161 1.285l-1.619 1.694v.06h3.667v1.054h-5.361zm9.704.111a3.612 3.612 0 01-1.463-.282 2.49 2.49 0 01-1.015-.784 2.076 2.076 0 01-.397-1.169h1.248c.016.241.097.451.243.628.149.175.342.311.581.406.238.095.504.143.795.143.321 0 .605-.055.851-.167a1.38 1.38 0 00.585-.465c.141-.202.211-.434.211-.696 0-.273-.07-.513-.211-.72a1.37 1.37 0 00-.608-.493c-.266-.12-.586-.179-.963-.179h-.688v-1.003h.688c.302 0 .567-.054.795-.163.231-.108.411-.259.541-.453.13-.196.195-.426.195-.688 0-.252-.057-.471-.171-.656a1.141 1.141 0 00-.477-.442 1.55 1.55 0 00-.724-.159c-.265 0-.513.049-.744.147a1.377 1.377 0 00-.556.414 1.055 1.055 0 00-.231.64h-1.189a2.01 2.01 0 01.389-1.161c.25-.334.578-.595.987-.784a3.213 3.213 0 011.36-.282c.522 0 .973.102 1.352.306.382.202.676.471.883.808.21.336.313.705.31 1.105.003.456-.124.843-.381 1.162a1.854 1.854 0 01-1.019.64v.064c.541.082.96.297 1.257.644.3.347.448.778.446 1.293.002.448-.122.849-.374 1.205-.249.355-.59.635-1.022.839-.432.201-.927.302-1.484.302zm5.758-.766v-.184a.8.8 0 01.081-.361.662.662 0 01.242-.264.715.715 0 01.387-.101c.155 0 .284.033.389.099a.629.629 0 01.237.264c.054.11.082.231.082.363v.184a.813.813 0 01-.082.363.672.672 0 01-.24.265.718.718 0 01-.386.098.726.726 0 01-.388-.098.667.667 0 01-.241-.265.812.812 0 01-.081-.363zm.397-.184v.184a.51.51 0 00.07.266c.046.08.127.119.243.119.115 0 .195-.039.241-.119a.529.529 0 00.068-.266v-.184a.531.531 0 00-.067-.266c-.043-.079-.123-.119-.242-.119-.113 0-.194.04-.242.119a.514.514 0 00-.071.266zm-2.153-1.813v-.185c0-.131.027-.252.082-.363a.648.648 0 01.242-.264.723.723 0 01.387-.099c.154 0 .284.033.388.099a.629.629 0 01.237.264c.054.111.08.232.08.363v.185a.819.819 0 01-.081.363.646.646 0 01-.239.264.709.709 0 01-.385.099.725.725 0 01-.391-.099.658.658 0 01-.238-.264.806.806 0 01-.082-.363zm.399-.185v.185c0 .097.022.186.068.265.047.08.128.12.244.12.113 0 .193-.04.238-.12a.51.51 0 00.07-.265v-.185a.537.537 0 00-.066-.265c-.045-.08-.125-.12-.242-.12-.114 0-.195.04-.242.12a.51.51 0 00-.07.265zm-.237 2.837l2.4-3.491h.407l-2.4 3.491h-.407zm43.622 29.454v8.146h-1.233v-6.913h-.048l-1.949 1.273v-1.177l2.033-1.329h1.197zm5.039 8.257a3.62 3.62 0 01-1.464-.282 2.494 2.494 0 01-1.014-.784 2.076 2.076 0 01-.397-1.169h1.248c.016.241.097.451.243.628.148.175.342.311.581.406.238.096.503.143.795.143.321 0 .605-.055.851-.167.25-.111.444-.266.585-.465.14-.202.211-.434.211-.696 0-.273-.071-.513-.211-.72a1.375 1.375 0 00-.609-.493c-.265-.119-.586-.179-.962-.179h-.688v-1.002h.688c.302 0 .567-.055.795-.163.231-.109.411-.26.541-.454.13-.196.195-.425.195-.688 0-.252-.057-.471-.171-.656a1.147 1.147 0 00-.477-.442 1.553 1.553 0 00-.724-.159c-.265 0-.513.049-.744.147a1.388 1.388 0 00-.557.414 1.06 1.06 0 00-.23.64h-1.189a2.01 2.01 0 01.389-1.161c.25-.334.578-.595.987-.784a3.21 3.21 0 011.36-.282c.522 0 .973.102 1.352.306.382.202.676.471.883.808.21.336.313.705.31 1.105.003.456-.124.844-.381 1.162a1.854 1.854 0 01-1.019.64v.064c.541.082.96.297 1.257.644.3.347.448.778.446 1.293.002.448-.122.849-.374 1.205-.249.355-.59.635-1.022.839-.433.202-.927.302-1.484.302zm5.757-.766v-.184c0-.132.028-.252.082-.361a.662.662 0 01.242-.264.715.715 0 01.387-.101c.155 0 .284.033.389.099a.642.642 0 01.237.264c.054.11.082.231.082.363v.184a.813.813 0 01-.082.363.659.659 0 01-.24.265.71.71 0 01-.386.098.717.717 0 01-.388-.098.654.654 0 01-.241-.265.813.813 0 01-.082-.363zm.398-.184v.184a.51.51 0 00.07.266c.046.08.127.12.243.12.115 0 .195-.04.241-.12a.529.529 0 00.068-.266v-.184a.534.534 0 00-.067-.266c-.043-.079-.124-.119-.242-.119-.113 0-.194.04-.242.119a.517.517 0 00-.071.266zm-2.153-1.813v-.184c0-.132.027-.253.082-.364a.648.648 0 01.242-.264.718.718 0 01.387-.099c.154 0 .284.033.388.099a.629.629 0 01.237.264.82.82 0 01.08.364v.184a.806.806 0 01-.082.363.637.637 0 01-.238.264.709.709 0 01-.385.099.725.725 0 01-.391-.099.658.658 0 01-.238-.264.806.806 0 01-.082-.363zm.399-.184v.184c0 .097.022.186.068.266.046.079.128.119.244.119.113 0 .193-.04.238-.119a.516.516 0 00.07-.266v-.184a.538.538 0 00-.066-.266c-.045-.08-.125-.12-.242-.12-.114 0-.195.04-.242.12a.51.51 0 00-.07.266zm-.237 2.836l2.4-3.491h.407l-2.4 3.491h-.407zm-36.658-57.489a3.612 3.612 0 01-1.463-.282 2.48 2.48 0 01-1.014-.784 2.07 2.07 0 01-.398-1.169h1.249c.016.241.096.451.242.628.149.175.342.311.581.406.239.095.504.143.795.143.321 0 .605-.055.852-.167.249-.111.444-.266.584-.465.141-.202.211-.434.211-.696 0-.273-.07-.513-.211-.72a1.365 1.365 0 00-.608-.493c-.265-.12-.586-.179-.963-.179h-.688v-1.003h.688c.302 0 .568-.054.796-.163a1.3 1.3 0 00.541-.453c.13-.196.194-.426.194-.688 0-.252-.057-.471-.171-.656a1.141 1.141 0 00-.477-.442 1.55 1.55 0 00-.724-.159c-.265 0-.513.049-.743.147a1.38 1.38 0 00-.557.414c-.143.178-.22.391-.231.64h-1.189c.013-.44.143-.827.39-1.161.249-.334.578-.595.986-.784a3.213 3.213 0 011.36-.282c.523 0 .973.102 1.352.306.382.202.677.471.883.808.21.336.313.705.311 1.105.002.456-.125.843-.382 1.162a1.855 1.855 0 01-1.018.64v.064c.541.082.96.297 1.256.644.3.347.449.778.446 1.293a2.01 2.01 0 01-.374 1.205c-.249.355-.59.635-1.022.839-.432.201-.927.302-1.484.302zm7.227 0a3.262 3.262 0 01-1.074-.199 2.508 2.508 0 01-.954-.636c-.287-.297-.516-.696-.688-1.197-.17-.501-.255-1.127-.255-1.877 0-.711.07-1.342.211-1.894.143-.551.349-1.017.616-1.396.268-.382.592-.672.971-.871a2.705 2.705 0 011.277-.298c.485 0 .916.095 1.292.286.377.191.682.455.915.792.236.337.386.72.449 1.149h-1.213a1.568 1.568 0 00-.489-.831c-.244-.215-.562-.322-.954-.322-.597 0-1.062.26-1.397.779-.331.52-.498 1.243-.501 2.168h.06c.141-.231.313-.427.517-.589.207-.164.438-.29.692-.377.257-.091.528-.136.811-.136.472 0 .899.116 1.281.346.385.228.691.544.919.947.228.403.342.864.342 1.384 0 .52-.118.99-.354 1.412a2.586 2.586 0 01-.986 1.002c-.425.244-.92.363-1.488.358zm-.004-1.034c.313 0 .593-.077.839-.231.247-.153.442-.36.585-.62.143-.26.215-.55.215-.871 0-.313-.07-.598-.211-.855a1.595 1.595 0 00-.573-.613 1.525 1.525 0 00-.827-.226 1.588 1.588 0 00-1.181.509 1.809 1.809 0 00-.358.549 1.758 1.758 0 00.083 1.495c.143.26.338.469.585.628.249.157.53.235.843.235zm5.655.268v-.184c0-.132.027-.252.082-.361a.655.655 0 01.242-.264.715.715 0 01.387-.101c.154 0 .284.033.389.099a.633.633 0 01.236.264.8.8 0 01.082.363v.184a.8.8 0 01-.082.363.657.657 0 01-.24.265.715.715 0 01-.385.098.73.73 0 01-.389-.098.664.664 0 01-.24-.265.8.8 0 01-.082-.363zm.397-.184v.184a.52.52 0 00.07.266c.047.08.128.119.244.119.115 0 .195-.039.24-.119a.519.519 0 00.068-.266v-.184a.54.54 0 00-.066-.266c-.043-.079-.124-.119-.242-.119-.114 0-.194.04-.242.119a.505.505 0 00-.072.266zm-2.153-1.813v-.185a.82.82 0 01.082-.363.662.662 0 01.242-.264.723.723 0 01.387-.099c.155 0 .284.033.389.099a.642.642 0 01.237.264c.053.111.08.232.08.363v.185a.806.806 0 01-.082.363.64.64 0 01-.239.264.706.706 0 01-.385.099.724.724 0 01-.39-.099.66.66 0 01-.239-.264.82.82 0 01-.082-.363zm.399-.185v.185c0 .097.023.186.068.265.047.08.128.12.244.12.114 0 .193-.04.239-.12a.52.52 0 00.07-.265v-.185a.527.527 0 00-.067-.265c-.044-.08-.125-.12-.242-.12-.113 0-.194.04-.242.12a.52.52 0 00-.07.265zm-.237 2.837l2.4-3.491h.408l-2.4 3.491h-.408zm-458.231-.4v-.764l2.362-2.447c.252-.266.46-.499.624-.699a2.66 2.66 0 00.372-.576 1.41 1.41 0 00.122-.58c0-.232-.054-.432-.163-.6a1.073 1.073 0 00-.447-.392 1.422 1.422 0 00-.637-.14c-.25 0-.468.051-.655.154a1.05 1.05 0 00-.43.433c-.1.186-.15.404-.15.654h-1.005c0-.425.098-.797.293-1.115.195-.318.464-.564.805-.739a2.47 2.47 0 011.162-.266c.439 0 .825.087 1.16.262.336.173.598.409.787.709.188.298.283.634.283 1.009 0 .259-.05.513-.147.761-.095.247-.263.523-.501.828-.239.302-.57.669-.995 1.101l-1.388 1.452v.051h3.143v.904h-4.595zm8.318.116c-.539-.002-.999-.145-1.38-.426-.383-.282-.675-.692-.877-1.231-.202-.539-.303-1.188-.303-1.947 0-.756.1-1.403.303-1.939.205-.537.498-.946.88-1.228.384-.281.843-.422 1.377-.422s.992.142 1.374.426c.382.282.674.691.876 1.227.204.534.307 1.18.307 1.936 0 .762-.102 1.412-.304 1.95-.202.537-.494.947-.876 1.231-.382.282-.84.423-1.377.423zm0-.91c.473 0 .842-.231 1.108-.692.268-.462.402-1.129.402-2.002 0-.579-.061-1.069-.184-1.469-.12-.402-.294-.707-.522-.914a1.141 1.141 0 00-.804-.313c-.47 0-.84.232-1.108.695-.268.464-.404 1.131-.406 2.001 0 .582.06 1.074.18 1.477.124.4.297.703.523.91.224.204.495.307.81.307zm5.252.139v-.184c0-.132.028-.252.082-.361a.655.655 0 01.242-.264.714.714 0 01.387-.101c.155 0 .284.033.389.099a.634.634 0 01.237.264c.054.11.082.231.082.363v.184a.806.806 0 01-.082.363.652.652 0 01-.24.265.707.707 0 01-.386.098.72.72 0 01-.388-.098.652.652 0 01-.24-.265.806.806 0 01-.083-.363zm.398-.184v.184a.51.51 0 00.07.266c.046.08.127.12.243.12.115 0 .195-.04.24-.12a.525.525 0 00.069-.266v-.184a.54.54 0 00-.067-.266c-.043-.079-.124-.119-.242-.119-.113 0-.194.04-.242.119a.51.51 0 00-.071.266zm-2.153-1.813v-.184c0-.132.027-.253.082-.364a.654.654 0 01.242-.264.722.722 0 01.386-.099.72.72 0 01.39.099.635.635 0 01.236.264c.053.111.08.232.08.364v.184a.812.812 0 01-.082.363.644.644 0 01-.238.264.708.708 0 01-.386.099.723.723 0 01-.39-.099.658.658 0 01-.238-.264.811.811 0 01-.082-.363zm.399-.184v.184a.53.53 0 00.068.266c.046.079.128.119.243.119.114 0 .194-.04.24-.119a.52.52 0 00.07-.266v-.184a.535.535 0 00-.067-.266c-.045-.08-.125-.12-.243-.12-.113 0-.194.04-.241.12a.515.515 0 00-.07.266zm-.237 2.836l2.4-3.491h.407l-2.4 3.491h-.407zM203.977 172l3.048-6.027v-.051H203.5v-.904h4.615v.934L205.078 172h-1.101zm7.605.116c-.539-.002-.999-.144-1.381-.426-.382-.282-.674-.692-.876-1.231-.202-.539-.304-1.187-.304-1.947 0-.756.102-1.403.304-1.939.204-.537.498-.946.879-1.228.385-.281.844-.422 1.378-.422.534 0 .992.142 1.374.426.381.282.673.691.876 1.227.204.534.307 1.18.307 1.936 0 .762-.102 1.412-.304 1.95-.202.537-.494.947-.876 1.231-.382.282-.841.423-1.377.423zm0-.91c.472 0 .842-.231 1.108-.692.268-.462.402-1.129.402-2.002 0-.579-.061-1.069-.184-1.469-.121-.402-.294-.707-.522-.913a1.137 1.137 0 00-.804-.314c-.471 0-.84.232-1.108.695-.268.464-.404 1.131-.406 2.001 0 .582.06 1.074.181 1.477.122.4.296.703.521.91.225.204.496.307.812.307zm5.252.139v-.184c0-.131.028-.252.082-.361a.655.655 0 01.242-.264.715.715 0 01.387-.101c.155 0 .284.033.389.099a.642.642 0 01.237.264.819.819 0 01.081.363v.184a.82.82 0 01-.081.364.658.658 0 01-.626.363.723.723 0 01-.389-.099.663.663 0 01-.24-.264.82.82 0 01-.082-.364zm.397-.184v.184a.52.52 0 00.07.266c.047.08.128.12.244.12.115 0 .195-.04.24-.12a.52.52 0 00.069-.266v-.184a.544.544 0 00-.067-.266c-.043-.079-.124-.119-.242-.119-.114 0-.194.04-.242.119a.508.508 0 00-.072.266zm-2.152-1.813v-.184c0-.132.027-.253.081-.363a.658.658 0 01.629-.364c.155 0 .284.033.389.099a.626.626 0 01.237.265c.053.11.08.231.08.363v.184a.8.8 0 01-.082.363.643.643 0 01-.238.264.71.71 0 01-.386.099.724.724 0 01-.39-.099.66.66 0 01-.239-.264.812.812 0 01-.081-.363zm.398-.184v.184c0 .097.023.186.069.266.046.079.127.119.243.119.114 0 .194-.04.239-.119a.516.516 0 00.07-.266v-.184a.528.528 0 00-.067-.266c-.044-.08-.125-.12-.242-.12-.113 0-.194.04-.242.12a.52.52 0 00-.07.266zM215.24 172l2.4-3.491h.408l-2.4 3.491h-.408zm138.337 56.8l3.048-6.027v-.052H353.1v-.903h4.616v.934l-3.038 6.048h-1.101zm7.605.116c-.539-.003-.999-.145-1.381-.426-.382-.282-.674-.692-.876-1.231-.202-.539-.303-1.188-.303-1.947 0-.757.101-1.403.303-1.939.205-.537.498-.946.88-1.228.384-.282.843-.422 1.377-.422s.992.142 1.374.426c.381.281.674.691.876 1.227.204.534.307 1.179.307 1.936 0 .762-.102 1.412-.304 1.95-.202.537-.494.947-.876 1.231-.382.282-.841.423-1.377.423zm0-.911c.473 0 .842-.23 1.108-.692.268-.461.402-1.128.402-2.001 0-.579-.061-1.069-.184-1.469-.121-.402-.294-.707-.522-.914a1.14 1.14 0 00-.804-.313c-.471 0-.84.232-1.108.695-.268.464-.404 1.131-.406 2.001 0 .582.06 1.074.181 1.476.123.4.296.704.521.911.225.204.496.306.812.306zm5.252.14v-.184c0-.132.028-.252.082-.361a.662.662 0 01.242-.264.715.715 0 01.387-.101c.155 0 .284.033.389.099a.642.642 0 01.237.264c.054.11.082.231.082.363v.184a.813.813 0 01-.082.363.667.667 0 01-.241.265.715.715 0 01-.385.098.726.726 0 01-.388-.098.667.667 0 01-.241-.265.813.813 0 01-.082-.363zm.398-.184v.184a.52.52 0 00.069.266c.047.08.128.119.244.119.115 0 .195-.039.24-.119a.52.52 0 00.069-.266v-.184a.531.531 0 00-.067-.266c-.043-.079-.124-.119-.242-.119-.114 0-.194.04-.242.119a.505.505 0 00-.071.266zm-2.153-1.813v-.185c0-.131.027-.252.081-.363a.657.657 0 01.243-.264.717.717 0 01.386-.099c.155 0 .285.033.389.099a.629.629 0 01.237.264c.053.111.08.232.08.363v.185a.806.806 0 01-.082.363.643.643 0 01-.238.264.71.71 0 01-.386.099.724.724 0 01-.39-.099.667.667 0 01-.239-.264.819.819 0 01-.081-.363zm.399-.185v.185c0 .097.022.186.068.265.046.08.128.12.243.12.114 0 .194-.04.239-.12a.51.51 0 00.07-.265v-.185a.527.527 0 00-.067-.265c-.044-.08-.125-.12-.242-.12-.113 0-.194.04-.242.12a.519.519 0 00-.069.265zm-.237 2.837l2.4-3.491h.407l-2.4 3.491h-.407zM30.39 296.218v6.982h-1.056v-5.925h-.041l-1.67 1.091v-1.009l1.741-1.139h1.026zm4.32 7.098c-.539-.002-1-.144-1.38-.426-.383-.282-.675-.692-.877-1.231-.202-.539-.303-1.187-.303-1.947 0-.756.1-1.403.303-1.939.204-.537.498-.946.88-1.228.384-.281.843-.422 1.377-.422s.992.142 1.374.426c.381.282.673.691.876 1.227.204.534.307 1.18.307 1.936 0 .762-.102 1.412-.304 1.95-.202.537-.494.947-.876 1.231-.382.282-.84.423-1.377.423zm0-.91c.472 0 .842-.231 1.108-.692.268-.462.402-1.129.402-2.002 0-.579-.061-1.069-.184-1.469-.12-.402-.294-.707-.522-.914a1.141 1.141 0 00-.804-.313c-.47 0-.84.232-1.108.695-.268.464-.404 1.131-.406 2.001 0 .582.06 1.074.18 1.477.124.4.297.703.522.91.225.204.496.307.812.307zm5.252.139v-.184c0-.132.028-.252.082-.361a.655.655 0 01.242-.264.714.714 0 01.387-.101c.155 0 .284.033.389.099a.635.635 0 01.237.264c.054.11.081.231.081.363v.184a.805.805 0 01-.081.363.651.651 0 01-.626.364.72.72 0 01-.389-.099.651.651 0 01-.24-.265.805.805 0 01-.082-.363zm.397-.184v.184a.52.52 0 00.07.266c.047.08.128.12.244.12.115 0 .195-.04.24-.12a.524.524 0 00.069-.266v-.184a.54.54 0 00-.067-.266c-.043-.079-.124-.119-.242-.119-.114 0-.194.04-.242.119a.51.51 0 00-.072.266zm-2.152-1.813v-.184c0-.132.027-.253.081-.363a.652.652 0 01.243-.265.722.722 0 01.386-.099.72.72 0 01.39.099.63.63 0 01.236.265c.053.11.08.231.08.363v.184a.808.808 0 01-.082.363.643.643 0 01-.238.264.708.708 0 01-.386.099.723.723 0 01-.39-.099.659.659 0 01-.239-.264.81.81 0 01-.081-.363zm.398-.184v.184a.53.53 0 00.069.266c.046.079.128.119.243.119.114 0 .194-.04.24-.119a.52.52 0 00.069-.266v-.184a.535.535 0 00-.066-.266c-.045-.08-.125-.12-.242-.12-.114 0-.195.04-.243.12a.515.515 0 00-.07.266zm-.236 2.836l2.4-3.491h.407l-2.4 3.491h-.407zm140.021-8.582v6.982h-1.056v-5.925h-.041l-1.671 1.091v-1.009l1.742-1.139h1.026zm4.32 7.098c-.539-.003-.999-.145-1.381-.426-.382-.282-.674-.692-.876-1.231-.202-.539-.303-1.188-.303-1.947 0-.756.101-1.403.303-1.939.205-.537.498-.946.88-1.228.384-.282.843-.422 1.377-.422s.992.142 1.374.426c.381.282.674.691.876 1.227.204.534.307 1.18.307 1.936 0 .762-.102 1.412-.304 1.95-.202.537-.494.947-.876 1.231-.382.282-.841.423-1.377.423zm0-.91c.473 0 .842-.231 1.108-.693.268-.461.402-1.128.402-2.001 0-.579-.061-1.069-.184-1.469-.121-.402-.294-.707-.522-.914a1.14 1.14 0 00-.804-.313c-.471 0-.84.232-1.108.695-.268.464-.404 1.131-.406 2.001 0 .582.06 1.074.181 1.476.123.4.296.704.521.911.225.204.496.307.812.307zm5.252.139v-.184c0-.132.028-.252.082-.361a.662.662 0 01.242-.264.715.715 0 01.387-.101c.155 0 .284.033.389.099a.642.642 0 01.237.264c.054.11.082.231.082.363v.184a.813.813 0 01-.082.363.66.66 0 01-.241.265.715.715 0 01-.385.098.726.726 0 01-.388-.098.66.66 0 01-.241-.265.813.813 0 01-.082-.363zm.398-.184v.184a.52.52 0 00.069.266c.047.08.128.12.244.12.115 0 .195-.04.241-.12a.529.529 0 00.068-.266v-.184a.531.531 0 00-.067-.266c-.043-.079-.124-.119-.242-.119-.113 0-.194.04-.242.119a.505.505 0 00-.071.266zm-2.153-1.813v-.185c0-.131.027-.252.082-.363a.648.648 0 01.242-.264.717.717 0 01.386-.099c.155 0 .285.033.389.099a.629.629 0 01.237.264c.053.111.08.232.08.363v.185a.806.806 0 01-.082.363.643.643 0 01-.238.264.71.71 0 01-.386.099.724.724 0 01-.39-.099.658.658 0 01-.238-.264.806.806 0 01-.082-.363zm.399-.185v.185c0 .097.022.186.068.265.046.08.128.12.243.12.114 0 .194-.04.239-.12a.51.51 0 00.07-.265v-.185a.537.537 0 00-.066-.265c-.045-.08-.125-.12-.243-.12-.113 0-.194.04-.242.12a.519.519 0 00-.069.265zm-.237 2.837l2.4-3.491h.407l-2.4 3.491h-.407zm142.421-12.582V296h-1.056v-5.925h-.041l-1.671 1.091v-1.009l1.742-1.139h1.026zm4.32 7.098c-.539-.002-.999-.144-1.381-.426-.382-.282-.674-.692-.876-1.231-.202-.539-.304-1.187-.304-1.947 0-.756.102-1.403.304-1.939.204-.537.498-.946.879-1.228.385-.281.844-.422 1.378-.422.534 0 .992.142 1.374.426.381.282.673.691.876 1.227.204.534.307 1.18.307 1.936 0 .762-.102 1.412-.304 1.95-.202.537-.494.947-.876 1.231-.382.282-.841.423-1.377.423zm0-.91c.472 0 .842-.231 1.108-.692.268-.462.402-1.129.402-2.002 0-.579-.061-1.069-.184-1.469-.121-.402-.294-.707-.522-.913a1.137 1.137 0 00-.804-.314c-.471 0-.84.232-1.108.695-.268.464-.404 1.131-.406 2.001 0 .582.06 1.074.181 1.477.122.4.296.703.521.91.225.204.496.307.812.307zm5.252.139v-.184c0-.131.028-.252.082-.361a.655.655 0 01.242-.264.715.715 0 01.387-.101c.155 0 .284.033.389.099a.642.642 0 01.237.264.819.819 0 01.081.363v.184a.82.82 0 01-.081.364.658.658 0 01-.626.363.723.723 0 01-.389-.099.663.663 0 01-.24-.264.82.82 0 01-.082-.364zm.397-.184v.184a.52.52 0 00.07.266c.047.08.128.12.244.12.115 0 .195-.04.24-.12a.52.52 0 00.069-.266v-.184a.544.544 0 00-.067-.266c-.043-.079-.124-.119-.242-.119-.114 0-.194.04-.242.119a.508.508 0 00-.072.266zm-2.152-1.813v-.184c0-.132.027-.253.081-.363a.658.658 0 01.629-.364c.155 0 .284.033.389.099a.626.626 0 01.237.265c.053.11.08.231.08.363v.184a.8.8 0 01-.082.363.643.643 0 01-.238.264.71.71 0 01-.386.099.724.724 0 01-.39-.099.66.66 0 01-.239-.264.812.812 0 01-.081-.363zm.398-.184v.184c0 .097.023.186.069.266.046.079.127.119.243.119.114 0 .194-.04.239-.119a.516.516 0 00.07-.266v-.184a.528.528 0 00-.067-.266c-.044-.08-.125-.12-.242-.12-.113 0-.194.04-.242.12a.52.52 0 00-.07.266zm-.236 2.836l2.4-3.491h.407l-2.4 3.491h-.407z" fill="#05004E"/></svg>