<svg width="1232" height="471" viewBox="0 0 1232 471" fill="none" xmlns="http://www.w3.org/2000/svg"><path d="M144.478 384.6v-11.636h1.756v5.557h.142l4.881-5.557h2.21l-4.693 5.238 4.71 6.398h-2.113l-3.762-5.199-1.375 1.58v3.619h-1.756zm10.625 0v-11.636h7.296v1.511h-5.54v3.546h5.159v1.505h-5.159v3.563h5.608v1.511h-7.364zm9.999-5.818c0-1.424.188-2.735.563-3.932a11.702 11.702 0 011.642-3.312h1.556c-.28.375-.541.835-.784 1.38a13.165 13.165 0 00-.636 1.796c-.182.647-.324 1.32-.426 2.017a14.078 14.078 0 00-.154 2.051c0 .901.089 1.814.267 2.739.179.924.419 1.782.722 2.573.303.792.64 1.438 1.011 1.938h-1.556a11.708 11.708 0 01-1.642-3.313c-.375-1.197-.563-2.509-.563-3.937zm5.115-4.307v-1.511h9.006v1.511h-3.631V384.6h-1.75v-10.125h-3.625zm13.274 10.125l-3.227-11.636h1.847l2.267 9.011h.108l2.358-9.011h1.829l2.358 9.017h.108l2.261-9.017h1.853L192.02 384.6h-1.767l-2.449-8.716h-.091l-2.449 8.716h-1.773zm16.493-5.818c0 1.428-.187 2.74-.562 3.937a11.734 11.734 0 01-1.642 3.313h-1.557c.28-.375.541-.835.784-1.381a13.22 13.22 0 00.636-1.79c.182-.651.324-1.325.426-2.022a14.06 14.06 0 00.154-2.057c0-.898-.089-1.809-.267-2.733a15.29 15.29 0 00-.722-2.574c-.303-.792-.64-1.437-1.011-1.937h1.557a11.729 11.729 0 011.642 3.312c.375 1.197.562 2.508.562 3.932z" fill="#7B91B0"/><rect x="108.8" y="178.4" width="128" height="158.4" rx="5.417" fill="#6B8ABC"/><rect x="408.8" y="29.6" width="128" height="307.183" rx="5.417" fill="#6B8ABC"/><path d="M450.078 384.6v-11.636h1.756v5.557h.142l4.881-5.557h2.21l-4.693 5.238 4.71 6.398h-2.113l-3.762-5.199-1.375 1.58v3.619h-1.756zm10.625 0v-11.636h7.296v1.511h-5.54v3.546h5.159v1.505h-5.159v3.563h5.608v1.511h-7.364zm9.999-5.818c0-1.424.188-2.735.563-3.932a11.702 11.702 0 011.642-3.312h1.556c-.28.375-.541.835-.784 1.38a13.165 13.165 0 00-.636 1.796c-.182.647-.324 1.32-.426 2.017a14.078 14.078 0 00-.154 2.051c0 .901.089 1.814.267 2.739.178.924.419 1.782.722 2.573.303.792.64 1.438 1.011 1.938h-1.556a11.708 11.708 0 01-1.642-3.313c-.375-1.197-.563-2.509-.563-3.937zm7.445-5.818V384.6h-1.756v-11.636h1.756zm11.949 0V384.6h-1.614l-5.915-8.534h-.108v8.534h-1.756v-11.636h1.625l5.921 8.545h.108v-8.545h1.739zm5.691 5.818c0 1.428-.187 2.74-.562 3.937a11.734 11.734 0 01-1.642 3.313h-1.557c.28-.375.542-.835.784-1.381.242-.545.455-1.142.636-1.79.182-.651.324-1.325.426-2.022a14.06 14.06 0 00.154-2.057c0-.898-.089-1.809-.267-2.733a15.29 15.29 0 00-.722-2.574c-.303-.792-.64-1.437-1.011-1.937h1.557a11.729 11.729 0 011.642 3.312c.375 1.197.562 2.508.562 3.932z" fill="#7B91B0"/><path d="M729.278 384.6v-11.636h1.756v5.557h.142l4.881-5.557h2.21l-4.693 5.238 4.71 6.398h-2.114l-3.761-5.199-1.375 1.58v3.619h-1.756zm14.86 0v-11.636h7.295v1.511h-5.54v3.546h5.16v1.505h-5.16v3.563h5.608v1.511h-7.363zm9.64 0v-11.636h1.756v10.125h5.273v1.511h-7.029zm9.032 0v-11.636h7.295v1.511h-5.54v3.546h5.159v1.505h-5.159v3.563h5.608v1.511h-7.363zm19.305-7.852h-1.773a2.716 2.716 0 00-.38-1 2.806 2.806 0 00-.682-.733 2.946 2.946 0 00-.904-.455 3.533 3.533 0 00-1.051-.153c-.67 0-1.271.168-1.801.506-.526.337-.943.831-1.25 1.483-.303.651-.454 1.447-.454 2.386 0 .947.151 1.746.454 2.398.307.651.726 1.144 1.256 1.477.53.333 1.127.5 1.79.5.367 0 .716-.049 1.045-.148.333-.102.635-.252.903-.449a2.714 2.714 0 001.074-1.71l1.773.006a4.744 4.744 0 01-.551 1.579c-.269.478-.616.89-1.04 1.239-.42.345-.901.612-1.443.801a5.351 5.351 0 01-1.773.284c-1.007 0-1.905-.238-2.693-.716-.788-.481-1.409-1.168-1.864-2.062-.45-.894-.676-1.96-.676-3.199 0-1.243.228-2.309.682-3.199.455-.894 1.076-1.579 1.864-2.057.788-.481 1.683-.721 2.687-.721.618 0 1.193.089 1.728.267.537.174 1.02.432 1.448.772.428.338.783.75 1.063 1.239.28.485.47 1.04.568 1.665zm1.527-2.273v-1.511h9.006v1.511h-3.631V384.6h-1.75v-10.125h-3.625zm10.996 10.125v-11.636h4.148c.901 0 1.649.155 2.244.466.598.31 1.045.74 1.341 1.289.295.546.443 1.177.443 1.892 0 .713-.15 1.339-.449 1.881-.295.538-.742.957-1.341 1.256-.595.299-1.343.449-2.244.449h-3.142v-1.512h2.983c.568 0 1.03-.081 1.386-.244.36-.163.623-.4.79-.71.167-.311.25-.684.25-1.12 0-.439-.085-.82-.256-1.142a1.644 1.644 0 00-.79-.738c-.356-.174-.823-.262-1.403-.262h-2.205V384.6h-1.755zm5.744-5.25l2.875 5.25h-2l-2.818-5.25h1.943zm6.324-6.386V384.6h-1.756v-11.636h1.756zm12.222 3.784h-1.773a2.7 2.7 0 00-1.063-1.733 2.952 2.952 0 00-.903-.455 3.538 3.538 0 00-1.051-.153c-.671 0-1.271.168-1.801.506-.527.337-.944.831-1.25 1.483-.303.651-.455 1.447-.455 2.386 0 .947.152 1.746.455 2.398.306.651.725 1.144 1.255 1.477.531.333 1.127.5 1.79.5.368 0 .716-.049 1.046-.148.333-.102.634-.252.903-.449s.496-.437.682-.721c.189-.288.32-.618.392-.989l1.773.006a4.745 4.745 0 01-.552 1.579 4.36 4.36 0 01-1.039 1.239 4.694 4.694 0 01-1.444.801 5.34 5.34 0 01-1.772.284c-1.008 0-1.906-.238-2.693-.716-.788-.481-1.41-1.168-1.864-2.062-.451-.894-.676-1.96-.676-3.199 0-1.243.227-2.309.682-3.199.454-.894 1.075-1.579 1.863-2.057.788-.481 1.684-.721 2.688-.721a5.43 5.43 0 011.727.267 4.57 4.57 0 011.449.772c.428.338.782.75 1.062 1.239.281.485.47 1.04.569 1.665z" fill="#8B9FBA"/><path d="M990.879 384.6v-11.636h1.755v5.557h.142l4.881-5.557h2.21l-4.693 5.238 4.71 6.398h-2.113l-3.762-5.199-1.375 1.58v3.619h-1.755zm19.861-6.557v1.478h-5.16v-1.478h5.16zm6.64 6.557v-11.636h7.29v1.511h-5.54v3.546h5.16v1.505h-5.16v3.563h5.61v1.511h-7.36zm9.64 0v-11.636h1.75v10.125h5.28v1.511h-7.03zm9.03 0v-11.636h7.3v1.511h-5.54v3.546h5.16v1.505h-5.16v3.563h5.6v1.511h-7.36zm19.31-7.852h-1.78a2.665 2.665 0 00-.38-1 2.686 2.686 0 00-.68-.733 2.981 2.981 0 00-.9-.455 3.536 3.536 0 00-1.05-.153c-.67 0-1.27.168-1.81.506-.52.337-.94.831-1.25 1.483-.3.651-.45 1.447-.45 2.386 0 .947.15 1.746.45 2.398.31.651.73 1.144 1.26 1.477.53.333 1.13.5 1.79.5.37 0 .72-.049 1.05-.148.33-.102.63-.252.9-.449s.5-.437.68-.721c.19-.288.32-.618.39-.989l1.78.006c-.1.572-.28 1.098-.56 1.579-.26.478-.61.89-1.04 1.239-.42.345-.9.612-1.44.801-.54.189-1.13.284-1.77.284-1.01 0-1.91-.238-2.69-.716-.79-.481-1.41-1.168-1.87-2.062-.45-.894-.67-1.96-.67-3.199 0-1.243.22-2.309.68-3.199.45-.894 1.07-1.579 1.86-2.057.79-.481 1.69-.721 2.69-.721.62 0 1.19.089 1.73.267.53.174 1.02.432 1.45.772.42.338.78.75 1.06 1.239.28.485.47 1.04.57 1.665zm1.52-2.273v-1.511h9.01v1.511h-3.63V384.6h-1.75v-10.125h-3.63zm11 10.125v-11.636h4.15c.9 0 1.65.155 2.24.466.6.31 1.05.74 1.34 1.289.3.546.44 1.177.44 1.892 0 .713-.14 1.339-.44 1.881-.3.538-.75.957-1.35 1.256-.59.299-1.34.449-2.24.449h-3.14v-1.512h2.98c.57 0 1.03-.081 1.39-.244.36-.163.62-.4.79-.71.16-.311.25-.684.25-1.12 0-.439-.09-.82-.26-1.142-.16-.322-.43-.568-.79-.738-.35-.174-.82-.262-1.4-.262h-2.21V384.6h-1.75zm5.74-5.25l2.88 5.25h-2l-2.82-5.25h1.94zm6.33-6.386V384.6h-1.76v-11.636h1.76zm12.22 3.784h-1.77c-.07-.379-.2-.712-.39-1a2.686 2.686 0 00-.68-.733 2.981 2.981 0 00-.9-.455 3.536 3.536 0 00-1.05-.153c-.67 0-1.27.168-1.8.506-.53.337-.95.831-1.25 1.483-.31.651-.46 1.447-.46 2.386 0 .947.15 1.746.46 2.398.3.651.72 1.144 1.25 1.477.53.333 1.13.5 1.79.5.37 0 .72-.049 1.05-.148.33-.102.63-.252.9-.449s.5-.437.68-.721c.19-.288.32-.618.4-.989l1.77.006c-.1.572-.28 1.098-.55 1.579-.27.478-.62.89-1.04 1.239-.42.345-.9.612-1.45.801-.54.189-1.13.284-1.77.284-1.01 0-1.9-.238-2.69-.716-.79-.481-1.41-1.168-1.87-2.062-.45-.894-.67-1.96-.67-3.199 0-1.243.23-2.309.68-3.199.45-.894 1.08-1.579 1.86-2.057.79-.481 1.69-.721 2.69-.721.62 0 1.19.089 1.73.267.54.174 1.02.432 1.45.772.43.338.78.75 1.06 1.239.28.485.47 1.04.57 1.665zm2.46 2.034c0-1.424.18-2.735.56-3.932.37-1.197.92-2.301 1.64-3.312h1.56c-.28.375-.54.835-.79 1.38-.24.546-.45 1.144-.63 1.796-.18.647-.33 1.32-.43 2.017-.1.693-.15 1.377-.15 2.051 0 .901.09 1.814.27 2.739.17.924.41 1.782.72 2.573.3.792.64 1.438 1.01 1.938h-1.56a11.572 11.572 0 01-1.64-3.313c-.38-1.197-.56-2.509-.56-3.937zm5.69 5.818v-11.636h7.21v1.511h-5.46v3.546h4.94v1.505h-4.94v5.074h-1.75zm9.37 0v-11.636h4.26c.83 0 1.51.136 2.05.409.55.269.95.634 1.22 1.096.27.459.4.976.4 1.552 0 .484-.09.893-.26 1.227-.18.329-.42.595-.72.795-.3.197-.62.341-.98.432v.114c.39.019.77.144 1.13.375.37.227.68.551.92.971.25.421.37.932.37 1.534 0 .595-.14 1.129-.42 1.603-.28.469-.71.842-1.29 1.119-.58.273-1.32.409-2.22.409h-4.46zm1.76-1.506h2.53c.84 0 1.44-.162 1.81-.488.36-.326.54-.733.54-1.222 0-.367-.09-.704-.28-1.011a1.968 1.968 0 00-.79-.733c-.34-.182-.75-.273-1.22-.273h-2.59v3.727zm0-5.096h2.35c.39 0 .75-.076 1.06-.227.32-.152.57-.364.76-.637.19-.276.28-.602.28-.977 0-.481-.17-.885-.5-1.21-.34-.326-.86-.489-1.56-.489h-2.39v3.54zm11.84.784c0 1.428-.19 2.74-.56 3.937a11.836 11.836 0 01-1.64 3.313h-1.56c.28-.375.54-.835.78-1.381.25-.545.46-1.142.64-1.79.18-.651.32-1.325.43-2.022.1-.697.15-1.383.15-2.057 0-.898-.09-1.809-.27-2.733-.18-.924-.42-1.782-.72-2.574-.3-.792-.64-1.437-1.01-1.937h1.56a11.83 11.83 0 011.64 3.312c.37 1.197.56 2.508.56 3.932z" fill="#8398B5"/><rect x="993.6" y="178.4" width="128" height="158.4" rx="5.417" fill="#6B8ABC"/><path d="M1046.53 169.426c-1.1 0-2.09-.191-2.96-.572-.87-.382-1.55-.911-2.06-1.588-.5-.682-.77-1.471-.8-2.369h2.53c.03.489.19.914.49 1.274.3.354.69.628 1.17.821.49.194 1.03.29 1.62.29.65 0 1.22-.112 1.72-.338.51-.226.9-.54 1.19-.943.28-.408.42-.878.42-1.41 0-.553-.14-1.039-.42-1.458-.28-.425-.7-.758-1.24-.999-.53-.242-1.18-.363-1.95-.363h-1.39v-2.03h1.39c.61 0 1.15-.111 1.61-.331.47-.22.84-.526 1.1-.918.26-.398.39-.862.39-1.394 0-.511-.11-.954-.34-1.33a2.359 2.359 0 00-.97-.894c-.41-.215-.9-.322-1.47-.322-.53 0-1.03.099-1.5.298a2.79 2.79 0 00-1.13.838c-.29.36-.45.792-.47 1.297h-2.41c.03-.892.29-1.676.79-2.353a5.123 5.123 0 012-1.587c.83-.382 1.75-.572 2.76-.572 1.06 0 1.97.206 2.74.62.77.408 1.37.954 1.79 1.636.42.682.63 1.429.62 2.24.01.924-.25 1.708-.77 2.353-.52.644-1.2 1.077-2.06 1.297v.129c1.09.166 1.94.601 2.54 1.305.61.704.91 1.577.91 2.619 0 .908-.25 1.721-.76 2.441-.51.72-1.2 1.287-2.07 1.7-.88.409-1.88.613-3.01.613zm14.64 0a6.633 6.633 0 01-2.17-.403c-.71-.258-1.36-.688-1.94-1.289-.58-.602-1.04-1.41-1.39-2.426-.34-1.015-.52-2.283-.52-3.803 0-1.439.15-2.718.43-3.835.29-1.118.71-2.06 1.25-2.828.54-.774 1.2-1.362 1.97-1.765.76-.403 1.63-.604 2.58-.604.99 0 1.86.193 2.62.58.76.387 1.38.921 1.85 1.603.48.682.79 1.459.92 2.329h-2.46c-.17-.688-.5-1.249-.99-1.684-.5-.435-1.14-.653-1.94-.653-1.21 0-2.15.527-2.83 1.579-.67 1.053-1.01 2.517-1.01 4.392h.12c.28-.467.63-.865 1.05-1.193.42-.333.88-.588 1.4-.765a4.918 4.918 0 011.64-.274c.96 0 1.82.234 2.6.701.78.462 1.4 1.101 1.86 1.918.46.816.69 1.751.69 2.804s-.24 2.006-.72 2.86a5.219 5.219 0 01-1.99 2.031c-.86.494-1.87.736-3.02.725zm0-2.095c.63 0 1.2-.156 1.7-.468.49-.311.89-.73 1.18-1.256.29-.527.43-1.115.43-1.765 0-.634-.14-1.211-.42-1.732a3.253 3.253 0 00-1.16-1.241c-.49-.307-1.05-.46-1.68-.46-.48 0-.92.092-1.33.274-.4.183-.76.435-1.06.758-.31.322-.55.693-.73 1.112-.17.413-.25.851-.25 1.313 0 .618.14 1.19.42 1.716.29.527.69.951 1.19 1.273.5.317 1.07.476 1.71.476zm11.45.543v-.373c0-.267.06-.511.17-.732.11-.223.27-.402.49-.535.21-.136.48-.204.78-.204.31 0 .58.067.79.2.21.134.37.312.48.536.11.223.16.468.16.735v.373c0 .267-.05.512-.16.736-.11.221-.27.399-.49.535-.21.133-.47.2-.78.2-.31 0-.57-.067-.79-.2a1.337 1.337 0 01-.48-.535 1.65 1.65 0 01-.17-.736zm.81-.373v.373c0 .198.04.378.14.539.09.161.26.242.49.242.23 0 .4-.081.49-.242.09-.161.14-.341.14-.539v-.373c0-.198-.05-.377-.14-.539-.09-.161-.25-.241-.49-.241-.23 0-.39.08-.49.241a.996.996 0 00-.14.539zm-4.37-3.674v-.373c0-.267.06-.512.17-.736.11-.223.28-.401.49-.535.22-.133.48-.2.78-.2.32 0 .58.067.79.2.21.134.37.312.48.535.11.224.16.469.16.736v.373c0 .267-.05.512-.16.735-.11.221-.27.4-.48.536-.22.133-.48.2-.79.2-.31 0-.57-.067-.79-.2a1.34 1.34 0 01-.48-.536 1.642 1.642 0 01-.17-.735zm.81-.373v.373c0 .198.05.377.14.539.1.161.26.241.49.241.23 0 .4-.08.49-.241.09-.162.14-.341.14-.539v-.373c0-.198-.05-.378-.13-.539-.09-.161-.26-.241-.5-.241-.23 0-.39.08-.49.241a1.09 1.09 0 00-.14.539zm-.48 5.746l4.86-7.072h.83l-4.86 7.072h-.83zM158.161 167v-1.547l4.786-4.959c.511-.539.932-1.011 1.264-1.416.336-.41.587-.799.753-1.167a2.84 2.84 0 00.248-1.174c0-.47-.11-.875-.331-1.216a2.169 2.169 0 00-.905-.794 2.875 2.875 0 00-1.292-.283c-.506 0-.948.104-1.326.311a2.13 2.13 0 00-.87.877c-.202.377-.304.819-.304 1.326h-2.037c0-.861.198-1.614.594-2.258a4.027 4.027 0 011.63-1.499c.69-.359 1.475-.539 2.355-.539.888 0 1.671.177 2.348.532.681.35 1.213.829 1.595 1.436.383.604.574 1.285.574 2.045 0 .525-.099 1.038-.297 1.54-.194.502-.532 1.061-1.016 1.678-.483.613-1.155 1.356-2.016 2.231l-2.811 2.942v.104h6.368V167h-9.31zm16.706.193c-.989 0-1.864-.17-2.624-.511-.755-.34-1.347-.81-1.775-1.409a3.386 3.386 0 01-.635-2.044 3.593 3.593 0 011.395-2.914 3.185 3.185 0 011.45-.65v-.083a2.853 2.853 0 01-1.692-1.132c-.424-.585-.633-1.257-.628-2.017a3.306 3.306 0 01.573-1.934c.391-.571.928-1.02 1.609-1.347.681-.326 1.457-.49 2.327-.49.861 0 1.63.166 2.307.497.682.327 1.218.776 1.609 1.347a3.34 3.34 0 01.594 1.927 3.358 3.358 0 01-.649 2.017 2.872 2.872 0 01-1.671 1.132v.083a3.087 3.087 0 011.429.65 3.67 3.67 0 011.023 1.263c.257.502.389 1.052.393 1.651a3.459 3.459 0 01-.649 2.044c-.428.599-1.022 1.069-1.782 1.409-.755.341-1.623.511-2.604.511zm0-1.747c.585 0 1.092-.097 1.52-.29.428-.198.76-.472.994-.822a2.24 2.24 0 00.36-1.243 2.33 2.33 0 00-.387-1.305 2.58 2.58 0 00-1.015-.891c-.429-.217-.919-.325-1.472-.325-.557 0-1.052.108-1.484.325a2.57 2.57 0 00-1.023.891c-.248.377-.37.812-.366 1.305-.004.474.109.889.339 1.243.235.35.568.624 1.001.822.433.193.944.29 1.533.29zm0-6.582c.47 0 .887-.094 1.251-.283.363-.189.649-.451.856-.787.212-.336.32-.73.325-1.181a2.197 2.197 0 00-.318-1.161 2.019 2.019 0 00-.85-.766c-.363-.184-.785-.277-1.264-.277-.488 0-.916.093-1.284.277a2.019 2.019 0 00-.85.766c-.202.332-.301.719-.297 1.161-.004.451.097.845.304 1.181.207.336.493.598.857.787.368.189.792.283 1.27.283zm10.521 6.81v-.373c0-.267.055-.511.166-.732.112-.223.276-.402.49-.535.216-.136.478-.204.784-.204.313 0 .575.067.787.2.212.134.372.312.48.535.111.224.166.469.166.736v.373c0 .267-.055.512-.166.735-.11.222-.273.4-.487.536-.212.133-.472.2-.78.2-.311 0-.573-.067-.788-.2a1.32 1.32 0 01-.486-.536 1.626 1.626 0 01-.166-.735zm.804-.373v.373c0 .198.048.378.142.539.094.161.259.241.494.241.232 0 .395-.08.487-.241.092-.161.138-.341.138-.539v-.373c0-.198-.045-.378-.135-.539-.087-.161-.251-.241-.49-.241-.23 0-.394.08-.491.241a1.034 1.034 0 00-.145.539zm-4.361-3.674v-.373c0-.267.055-.512.166-.736.112-.223.276-.401.49-.535.216-.134.478-.2.784-.2.313 0 .575.066.787.2.212.134.372.312.48.535.108.224.163.469.163.736v.373c0 .267-.056.512-.166.735-.108.221-.27.4-.484.536-.211.133-.472.2-.78.2-.313 0-.577-.067-.791-.2a1.333 1.333 0 01-.483-.536 1.626 1.626 0 01-.166-.735zm.808-.373v.373c0 .198.046.377.138.538.095.162.259.242.494.242.23 0 .391-.08.483-.242.095-.161.142-.34.142-.538v-.373c0-.198-.045-.378-.135-.539-.089-.161-.253-.242-.49-.242-.23 0-.394.081-.49.242a1.041 1.041 0 00-.142.539zm-.48 5.746l4.862-7.072h.825L182.984 167h-.825zM458.637 19l6.175-12.21v-.104h-7.142v-1.83h9.352v1.892L460.868 19h-2.231zm15.407.235c-1.091-.005-2.024-.293-2.797-.863-.774-.571-1.365-1.402-1.775-2.494-.41-1.091-.615-2.405-.615-3.943 0-1.534.205-2.844.615-3.93.414-1.087 1.008-1.916 1.782-2.486.778-.571 1.708-.857 2.79-.857s2.01.288 2.783.863c.774.571 1.365 1.4 1.775 2.487.415 1.082.622 2.39.622 3.923 0 1.542-.205 2.859-.615 3.95-.41 1.087-1.001 1.918-1.775 2.493-.773.571-1.704.857-2.79.857zm0-1.844c.958 0 1.706-.468 2.244-1.402.544-.935.815-2.286.815-4.054 0-1.175-.124-2.167-.373-2.977-.244-.815-.596-1.432-1.056-1.851a2.312 2.312 0 00-1.63-.635c-.953 0-1.701.47-2.245 1.409-.543.939-.817 2.29-.822 4.054 0 1.178.122 2.175.366 2.99.249.81.601 1.425 1.057 1.844a2.36 2.36 0 001.644.622zm10.641.283v-.373c0-.267.055-.511.166-.732.113-.223.276-.402.49-.535.217-.136.478-.204.784-.204.313 0 .576.067.787.2.212.134.372.312.48.535.111.224.166.469.166.736v.373c0 .267-.055.512-.166.736-.11.22-.272.399-.487.535-.211.133-.471.2-.78.2-.311 0-.573-.067-.787-.2a1.325 1.325 0 01-.487-.535 1.629 1.629 0 01-.166-.736zm.805-.373v.373c0 .198.047.378.141.539.095.16.259.241.494.241.233 0 .395-.08.487-.241a1.07 1.07 0 00.138-.539v-.373c0-.198-.045-.378-.135-.539-.087-.16-.251-.241-.49-.241-.23 0-.394.08-.49.241a1.025 1.025 0 00-.145.539zm-4.362-3.674v-.373c0-.267.055-.512.166-.736.113-.223.276-.402.49-.535.217-.133.478-.2.784-.2.313 0 .576.067.788.2.211.133.371.312.48.535.108.224.162.469.162.736v.373c0 .267-.055.512-.166.735-.108.221-.269.4-.483.536-.212.133-.472.2-.781.2-.313 0-.576-.067-.791-.2a1.337 1.337 0 01-.483-.536 1.63 1.63 0 01-.166-.735zm.808-.373v.373c0 .198.046.377.138.538.095.162.259.242.494.242.23 0 .392-.08.484-.242a1.05 1.05 0 00.141-.538v-.373c0-.198-.045-.378-.134-.539-.09-.161-.254-.242-.491-.242-.23 0-.393.08-.49.242a1.04 1.04 0 00-.142.539zm-.48 5.746l4.862-7.072h.826L482.282 19h-.826z" fill="#05004E"/><rect x="709.6" y="142.697" width="128" height="194.4" rx="5.417" fill="#6B8ABC"/><path d="M758.664 135.438v-1.727l6.112-9.655h1.361v2.541h-.864l-4.372 6.921v.11h8.378v1.81h-10.615zm6.706 2.762v-3.287l.014-.788v-10.069h2.023V138.2h-2.037zm6.316 0v-1.547l4.786-4.959a26.13 26.13 0 001.264-1.416c.336-.409.587-.798.753-1.167a2.82 2.82 0 00.248-1.174c0-.47-.11-.875-.331-1.215a2.171 2.171 0 00-.905-.795 2.884 2.884 0 00-1.291-.283c-.507 0-.949.104-1.326.311-.378.207-.668.5-.871.877-.202.378-.303.82-.303 1.326h-2.038c0-.861.198-1.614.594-2.258a4.034 4.034 0 011.63-1.499c.691-.359 1.476-.539 2.355-.539.889 0 1.671.178 2.348.532a3.99 3.99 0 011.596 1.437c.382.603.573 1.284.573 2.044 0 .525-.099 1.038-.297 1.54-.193.502-.532 1.061-1.015 1.678-.484.613-1.156 1.356-2.017 2.231l-2.811 2.942v.104h6.368v1.83h-9.31zm14.939-1.326v-.373c0-.267.055-.511.165-.732.113-.223.277-.402.491-.535.216-.136.477-.204.784-.204.313 0 .575.067.787.2.212.134.372.312.48.536.111.223.166.468.166.735v.373c0 .267-.055.512-.166.736-.11.221-.273.399-.487.535-.212.133-.472.2-.78.2-.311 0-.574-.067-.788-.2a1.333 1.333 0 01-.487-.535 1.646 1.646 0 01-.165-.736zm.804-.373v.373c0 .198.047.378.142.539.094.161.259.242.494.242.232 0 .394-.081.487-.242.092-.161.138-.341.138-.539v-.373a1.09 1.09 0 00-.135-.539c-.087-.161-.251-.241-.49-.241-.231 0-.394.08-.491.241a1.037 1.037 0 00-.145.539zm-4.361-3.674v-.373c0-.267.055-.512.166-.736.112-.223.276-.401.49-.535.216-.133.478-.2.784-.2.313 0 .575.067.787.2.212.134.372.312.48.535.108.224.162.469.162.736v.373c0 .267-.055.512-.165.735-.108.221-.27.4-.484.536-.212.133-.472.2-.78.2-.313 0-.577-.067-.791-.2a1.333 1.333 0 01-.483-.536 1.626 1.626 0 01-.166-.735zm.808-.373v.373c0 .198.046.377.138.539.094.161.259.241.494.241.23 0 .391-.08.483-.241.095-.162.142-.341.142-.539v-.373c0-.198-.045-.378-.135-.539-.09-.161-.253-.241-.49-.241-.23 0-.394.08-.491.241a1.05 1.05 0 00-.141.539zm-.48 5.746l4.862-7.072h.825l-4.862 7.072h-.825z" fill="#05004E"/><circle cx="15.2" cy="455.5" r="6.4" fill="#6B8ABC"/><path d="M46.136 450.691V460h-1.29l-4.732-6.827h-.087V460h-1.404v-9.309h1.3l4.736 6.837h.087v-6.837h1.39zm4.95 9.45c-.689 0-1.281-.147-1.778-.441a2.987 2.987 0 01-1.145-1.25c-.267-.539-.4-1.171-.4-1.895 0-.715.133-1.346.4-1.891.27-.546.645-.971 1.127-1.277.485-.306 1.051-.459 1.7-.459.394 0 .776.065 1.145.195.37.13.702.335.996.614.294.278.526.641.695 1.086.17.442.255.98.255 1.614v.481h-5.55V455.9h4.218c0-.357-.073-.674-.218-.95a1.65 1.65 0 00-.614-.659 1.72 1.72 0 00-.918-.241c-.382 0-.715.094-1 .282-.282.185-.5.427-.655.727-.151.297-.227.62-.227.969v.795c0 .467.082.864.246 1.191.166.327.398.577.695.75.297.17.644.254 1.041.254.258 0 .492-.036.705-.109.212-.075.395-.188.55-.336.154-.149.272-.332.354-.55l1.286.232c-.103.379-.288.71-.554.995a2.679 2.679 0 01-.996.659c-.397.155-.85.232-1.359.232zM57.09 460l-2.055-6.982h1.405l1.368 5.128h.068l1.373-5.128h1.404l1.364 5.105h.068l1.36-5.105h1.404L62.799 460h-1.386l-1.419-5.041h-.104L58.472 460H57.09zm20.277-6.282H75.95a2.174 2.174 0 00-.85-1.386 2.347 2.347 0 00-.723-.364 2.848 2.848 0 00-.84-.122c-.537 0-1.017.135-1.442.404-.42.27-.754.665-1 1.187-.242.521-.363 1.157-.363 1.909 0 .757.121 1.397.363 1.918.246.521.58.915 1.005 1.182.424.266.901.4 1.432.4.294 0 .572-.04.836-.118a2.4 2.4 0 00.723-.36A2.196 2.196 0 0075.95 457l1.418.005a3.79 3.79 0 01-.44 1.263 3.473 3.473 0 01-.833.991c-.336.276-.72.49-1.154.641a4.258 4.258 0 01-1.418.228c-.806 0-1.525-.191-2.155-.573-.63-.385-1.127-.935-1.49-1.65-.361-.715-.542-1.568-.542-2.559 0-.994.182-1.847.546-2.559.363-.716.86-1.264 1.49-1.646.631-.385 1.348-.577 2.15-.577.495 0 .955.071 1.382.214.43.139.817.345 1.16.618.342.269.625.6.85.991.224.387.375.831.454 1.331zm4.513 6.423c-.655 0-1.226-.15-1.714-.45a3.03 3.03 0 01-1.136-1.259c-.27-.539-.405-1.17-.405-1.891 0-.724.135-1.357.405-1.9a3.03 3.03 0 011.136-1.263c.488-.3 1.06-.45 1.714-.45.654 0 1.225.15 1.713.45.488.3.867.721 1.137 1.263.27.543.404 1.176.404 1.9 0 .721-.135 1.352-.404 1.891a3.04 3.04 0 01-1.137 1.259c-.488.3-1.059.45-1.713.45zm.004-1.141c.424 0 .776-.112 1.055-.336a1.97 1.97 0 00.618-.896c.136-.372.204-.783.204-1.231a3.55 3.55 0 00-.204-1.228 2 2 0 00-.618-.904c-.28-.227-.63-.341-1.055-.341-.427 0-.782.114-1.063.341a2.032 2.032 0 00-.623.904c-.133.373-.2.782-.2 1.228 0 .448.066.859.2 1.231.136.373.344.672.623.896.281.224.636.336 1.063.336zm6.126-3.145V460h-1.359v-6.982h1.305v1.137h.086c.16-.37.412-.667.755-.891.345-.224.78-.336 1.304-.336.476 0 .893.1 1.25.3.358.196.635.49.832.881.197.391.295.875.295 1.45V460H91.12v-4.277c0-.506-.131-.902-.395-1.186-.264-.288-.626-.432-1.086-.432-.316 0-.596.068-.841.204a1.479 1.479 0 00-.578.6c-.139.261-.209.576-.209.946zm7.65 0V460h-1.359v-6.982h1.305v1.137h.086c.16-.37.412-.667.755-.891.345-.224.78-.336 1.304-.336.476 0 .893.1 1.25.3.358.196.635.49.832.881.197.391.296.875.296 1.45V460h-1.36v-4.277c0-.506-.131-.902-.395-1.186-.264-.288-.626-.432-1.086-.432-.316 0-.596.068-.841.204a1.479 1.479 0 00-.578.6c-.139.261-.209.576-.209.946zm9.3 4.286c-.688 0-1.28-.147-1.777-.441a2.981 2.981 0 01-1.145-1.25c-.267-.539-.4-1.171-.4-1.895 0-.715.133-1.346.4-1.891a3.095 3.095 0 011.127-1.277c.485-.306 1.051-.459 1.7-.459.394 0 .776.065 1.145.195.37.13.702.335.996.614.294.278.526.641.695 1.086.17.442.255.98.255 1.614v.481h-5.55V455.9h4.218c0-.357-.073-.674-.218-.95a1.653 1.653 0 00-.614-.659 1.72 1.72 0 00-.918-.241c-.382 0-.715.094-1 .282-.282.185-.5.427-.655.727-.151.297-.227.62-.227.969v.795c0 .467.082.864.246 1.191.166.327.398.577.695.75.297.17.644.254 1.041.254.258 0 .492-.036.705-.109.212-.075.395-.188.55-.336.154-.149.272-.332.354-.55l1.286.232c-.103.379-.287.71-.554.995a2.683 2.683 0 01-.996.659c-.397.155-.85.232-1.359.232zm7.445 0c-.676 0-1.258-.153-1.746-.459a3.042 3.042 0 01-1.118-1.277c-.261-.543-.391-1.164-.391-1.864 0-.709.133-1.335.4-1.877a3.067 3.067 0 011.127-1.277c.485-.306 1.056-.459 1.714-.459.53 0 1.003.098 1.418.295a2.483 2.483 0 011.464 2.05h-1.323a1.583 1.583 0 00-.5-.845c-.257-.237-.603-.355-1.036-.355-.379 0-.711.1-.996.3-.282.197-.501.479-.659.845-.157.364-.236.794-.236 1.291 0 .509.077.949.232 1.319.154.369.372.656.654.859.285.203.62.304 1.005.304.257 0 .491-.047.7-.141.212-.097.389-.235.532-.413.145-.179.247-.394.304-.646h1.323a2.576 2.576 0 01-.441 1.209 2.538 2.538 0 01-.986.837c-.41.203-.89.304-1.441.304zm7.58-7.123v1.091h-3.813v-1.091h3.813zm-2.791-1.672h1.36v6.604c0 .264.039.462.118.596.078.13.18.219.304.268.128.045.265.068.414.068a1.6 1.6 0 00.286-.023l.191-.036.246 1.123a2.68 2.68 0 01-.882.145 2.382 2.382 0 01-1-.191 1.712 1.712 0 01-.75-.618c-.191-.279-.287-.629-.287-1.05v-6.886zm4.295 8.654v-6.982h1.359V460h-1.359zm.686-8.059a.867.867 0 01-.609-.236.769.769 0 01-.25-.573.76.76 0 01.25-.573.859.859 0 01.609-.241c.236 0 .438.081.605.241a.756.756 0 01.254.573.766.766 0 01-.254.573.853.853 0 01-.605.236zm5.442 8.2c-.654 0-1.226-.15-1.713-.45a3.04 3.04 0 01-1.137-1.259c-.27-.539-.404-1.17-.404-1.891 0-.724.134-1.357.404-1.9.27-.542.649-.963 1.137-1.263.487-.3 1.059-.45 1.713-.45.655 0 1.226.15 1.714.45.488.3.866.721 1.136 1.263.27.543.405 1.176.405 1.9 0 .721-.135 1.352-.405 1.891-.27.539-.648.959-1.136 1.259-.488.3-1.059.45-1.714.45zm.005-1.141c.424 0 .775-.112 1.054-.336.279-.224.485-.523.618-.896a3.54 3.54 0 00.205-1.231c0-.446-.068-.855-.205-1.228a1.996 1.996 0 00-.618-.904c-.279-.227-.63-.341-1.054-.341-.428 0-.782.114-1.064.341a2.036 2.036 0 00-.623.904c-.133.373-.2.782-.2 1.228 0 .448.067.859.2 1.231.137.373.344.672.623.896.282.224.636.336 1.064.336zm6.126-3.145V460h-1.359v-6.982h1.304v1.137h.087c.16-.37.412-.667.754-.891.346-.224.78-.336 1.305-.336.475 0 .892.1 1.25.3.357.196.635.49.832.881.197.391.295.875.295 1.45V460h-1.359v-4.277c0-.506-.132-.902-.396-1.186-.263-.288-.625-.432-1.086-.432-.315 0-.595.068-.841.204a1.478 1.478 0 00-.577.6c-.139.261-.209.576-.209.946zm11.523-1.132l-1.232.218a1.487 1.487 0 00-.246-.45 1.216 1.216 0 00-.445-.35c-.188-.091-.423-.136-.705-.136-.385 0-.706.086-.963.259-.258.17-.387.389-.387.659 0 .233.087.421.259.564.173.142.452.259.837.35l1.109.254c.642.149 1.121.377 1.436.687.315.309.473.71.473 1.204 0 .418-.121.791-.364 1.118-.239.324-.574.579-1.004.764-.428.185-.923.277-1.487.277-.781 0-1.419-.167-1.913-.5-.494-.336-.797-.813-.909-1.432l1.313-.2c.082.343.25.602.505.778.254.172.586.259.995.259.446 0 .802-.093 1.068-.278.267-.187.4-.416.4-.686a.713.713 0 00-.245-.55c-.161-.148-.408-.261-.741-.336l-1.182-.259c-.651-.149-1.133-.385-1.445-.709-.309-.325-.464-.735-.464-1.232 0-.412.115-.773.346-1.082.23-.309.548-.55.954-.723.406-.176.871-.263 1.396-.263.754 0 1.348.163 1.781.49.434.325.72.76.86 1.305z" fill="#8398B5"/><circle cx="168.8" cy="455.5" r="6.4" fill="#FE6A35"/><path d="M199.955 453.718h-1.418a2.19 2.19 0 00-.305-.8 2.24 2.24 0 00-.545-.586 2.365 2.365 0 00-.723-.364 2.85 2.85 0 00-.841-.122c-.536 0-1.017.135-1.441.404-.421.27-.755.665-1 1.187-.242.521-.364 1.157-.364 1.909 0 .757.122 1.397.364 1.918.245.521.58.915 1.005 1.182.424.266.901.4 1.431.4.294 0 .573-.04.837-.118.266-.082.507-.202.722-.36a2.192 2.192 0 00.86-1.368l1.418.005a3.802 3.802 0 01-.441 1.263 3.479 3.479 0 01-.832.991c-.336.276-.721.49-1.155.641a4.255 4.255 0 01-1.418.228c-.806 0-1.524-.191-2.154-.573-.631-.385-1.128-.935-1.491-1.65-.361-.715-.541-1.568-.541-2.559 0-.994.182-1.847.545-2.559.364-.716.861-1.264 1.491-1.646.631-.385 1.347-.577 2.15-.577.494 0 .955.071 1.382.214.43.139.817.345 1.159.618.343.269.626.6.85.991.224.387.376.831.455 1.331zm4.512 6.423c-.654 0-1.226-.15-1.713-.45a3.04 3.04 0 01-1.137-1.259c-.269-.539-.404-1.17-.404-1.891 0-.724.135-1.357.404-1.9.27-.542.649-.963 1.137-1.263.487-.3 1.059-.45 1.713-.45.655 0 1.226.15 1.714.45.488.3.867.721 1.136 1.263.27.543.405 1.176.405 1.9 0 .721-.135 1.352-.405 1.891a3.03 3.03 0 01-1.136 1.259c-.488.3-1.059.45-1.714.45zm.005-1.141c.424 0 .776-.112 1.054-.336.279-.224.485-.523.619-.896.136-.372.204-.783.204-1.231a3.56 3.56 0 00-.204-1.228 2.005 2.005 0 00-.619-.904c-.278-.227-.63-.341-1.054-.341-.427 0-.782.114-1.064.341a2.036 2.036 0 00-.623.904c-.133.373-.2.782-.2 1.228 0 .448.067.859.2 1.231.137.373.344.672.623.896.282.224.637.336 1.064.336zm4.767 1v-6.982h1.304v1.137h.087a1.8 1.8 0 01.713-.9c.331-.218.726-.327 1.187-.327.466 0 .857.109 1.172.327.319.218.553.518.705.9h.073c.166-.373.432-.67.795-.891.364-.224.797-.336 1.3-.336.634 0 1.15.198 1.55.595.403.397.605.995.605 1.795V460h-1.359v-4.554c0-.473-.129-.815-.387-1.028a1.404 1.404 0 00-.922-.318c-.443 0-.787.137-1.032.409-.246.27-.368.617-.368 1.041V460h-1.355v-4.641c0-.378-.118-.683-.355-.913-.236-.231-.543-.346-.922-.346-.258 0-.496.068-.714.205a1.501 1.501 0 00-.523.559c-.13.239-.195.517-.195.832V460h-1.359zm11.312 2.618v-9.6h1.328v1.132h.113c.079-.145.193-.313.341-.504.149-.191.355-.358.618-.5.264-.146.612-.218 1.046-.218.563 0 1.066.142 1.509.427.442.285.789.695 1.041 1.232.254.536.382 1.181.382 1.936 0 .755-.126 1.401-.378 1.941-.251.536-.597.95-1.036 1.241a2.683 2.683 0 01-1.505.432c-.424 0-.771-.072-1.04-.214a1.968 1.968 0 01-.628-.5 3.889 3.889 0 01-.35-.509h-.082v3.704h-1.359zm1.332-6.109c0 .491.071.922.214 1.291.142.37.348.659.618.868.27.206.6.31.991.31.406 0 .745-.108 1.018-.323.273-.218.479-.514.618-.887.143-.372.214-.792.214-1.259 0-.46-.07-.874-.209-1.241a1.912 1.912 0 00-.618-.868c-.273-.212-.614-.318-1.023-.318-.394 0-.727.102-1 .305-.27.203-.474.486-.614.85-.139.363-.209.787-.209 1.272zm7.927-5.818V460h-1.359v-9.309h1.359zm3.861 9.464c-.443 0-.843-.082-1.2-.246a2.013 2.013 0 01-.85-.722c-.206-.316-.309-.702-.309-1.159 0-.394.075-.719.227-.973.151-.255.356-.456.613-.605.258-.148.546-.26.864-.336.318-.076.643-.133.973-.173l1.018-.118c.261-.033.45-.086.568-.159.118-.073.177-.191.177-.355v-.031c0-.397-.112-.705-.336-.923-.221-.218-.551-.327-.991-.327-.457 0-.818.101-1.082.304-.26.2-.441.423-.541.668l-1.277-.291c.152-.424.373-.766.664-1.027a2.703 2.703 0 011.013-.573 3.968 3.968 0 011.205-.181c.279 0 .574.033.886.1.316.063.609.181.882.354.276.173.502.42.677.741.176.318.264.732.264 1.241V460h-1.327v-.954h-.055a1.945 1.945 0 01-.395.518c-.176.17-.402.31-.677.423a2.634 2.634 0 01-.991.168zm.295-1.091c.376 0 .697-.074.964-.223.269-.148.474-.342.613-.582.143-.242.214-.501.214-.777v-.9c-.048.049-.142.094-.282.136-.136.04-.292.075-.468.105-.176.027-.347.053-.514.077l-.418.055a3.36 3.36 0 00-.723.168 1.243 1.243 0 00-.518.341c-.127.145-.191.339-.191.582 0 .336.125.591.373.763.249.17.565.255.95.255zm4.96.936v-6.982h1.359V460h-1.359zm.687-8.059a.864.864 0 01-.609-.236.769.769 0 01-.25-.573.76.76 0 01.25-.573.855.855 0 01.609-.241.84.84 0 01.604.241c.17.158.255.349.255.573a.763.763 0 01-.255.573.848.848 0 01-.604.236zm3.86 3.914V460h-1.359v-6.982h1.304v1.137h.087c.16-.37.412-.667.754-.891.346-.224.781-.336 1.305-.336.476 0 .892.1 1.25.3.357.196.635.49.832.881.197.391.295.875.295 1.45V460h-1.359v-4.277c0-.506-.132-.902-.395-1.186-.264-.288-.626-.432-1.087-.432-.315 0-.595.068-.841.204a1.478 1.478 0 00-.577.6c-.139.261-.209.576-.209.946zm9.55-2.837v1.091h-3.814v-1.091h3.814zm-2.791-1.672h1.359v6.604c0 .264.04.462.118.596.079.13.181.219.305.268.127.045.265.068.413.068.11 0 .205-.008.287-.023l.191-.036.245 1.123a2.692 2.692 0 01-.882.145 2.385 2.385 0 01-1-.191 1.712 1.712 0 01-.75-.618c-.191-.279-.286-.629-.286-1.05v-6.886zm9.414 3.377l-1.232.218a1.487 1.487 0 00-.246-.45 1.216 1.216 0 00-.445-.35c-.188-.091-.423-.136-.705-.136-.384 0-.706.086-.963.259-.258.17-.387.389-.387.659 0 .233.087.421.259.564.173.142.452.259.837.35l1.109.254c.642.149 1.121.377 1.436.687.315.309.473.71.473 1.204 0 .418-.121.791-.364 1.118-.239.324-.574.579-1.004.764-.427.185-.923.277-1.487.277-.781 0-1.419-.167-1.913-.5-.494-.336-.797-.813-.909-1.432l1.313-.2c.082.343.25.602.505.778.254.172.586.259.995.259.446 0 .802-.093 1.069-.278.266-.187.4-.416.4-.686a.714.714 0 00-.246-.55c-.161-.148-.407-.261-.741-.336l-1.182-.259c-.651-.149-1.133-.385-1.445-.709-.309-.325-.464-.735-.464-1.232 0-.412.115-.773.346-1.082.23-.309.548-.55.954-.723.406-.176.871-.263 1.396-.263.754 0 1.348.163 1.782.49.433.325.719.76.859 1.305z" fill="#8398B5"/><circle cx="283.2" cy="455.5" r="6.4" fill="#D568FB"/><path d="M306.164 451.9v-1.209h7.204v1.209h-2.904v8.1h-1.4v-8.1h-2.9zm9.145 8.187a.883.883 0 01-.641-.264.88.88 0 01-.268-.645.86.86 0 01.268-.637.875.875 0 01.641-.268c.249 0 .462.089.641.268a.86.86 0 01.268.637.868.868 0 01-.127.459.948.948 0 01-.327.327.867.867 0 01-.455.123zm10.925-4.741c0 .994-.182 1.848-.545 2.563-.364.712-.862 1.261-1.496 1.646-.63.382-1.347.573-2.15.573-.806 0-1.525-.191-2.159-.573-.63-.385-1.127-.935-1.491-1.65-.363-.715-.545-1.568-.545-2.559 0-.994.182-1.847.545-2.559.364-.716.861-1.264 1.491-1.646.634-.385 1.353-.577 2.159-.577.803 0 1.52.192 2.15.577.634.382 1.132.93 1.496 1.646.363.712.545 1.565.545 2.559zm-1.391 0c0-.758-.122-1.396-.368-1.914-.242-.521-.576-.915-1-1.182a2.602 2.602 0 00-1.432-.404 2.61 2.61 0 00-1.436.404c-.421.267-.755.661-1 1.182-.243.518-.364 1.156-.364 1.914 0 .757.121 1.397.364 1.918.245.518.579.912 1 1.182.421.266.9.4 1.436.4.534 0 1.011-.134 1.432-.4.424-.27.758-.664 1-1.182.246-.521.368-1.161.368-1.918zm3.341 4.741a.883.883 0 01-.641-.264.88.88 0 01-.268-.645.86.86 0 01.268-.637.875.875 0 01.641-.268c.249 0 .462.089.641.268a.86.86 0 01.268.637.868.868 0 01-.127.459.948.948 0 01-.327.327.867.867 0 01-.455.123zm8.825-9.396h1.409v6.123c0 .651-.153 1.229-.459 1.732-.306.5-.736.894-1.291 1.182-.554.284-1.204.427-1.95.427-.742 0-1.391-.143-1.945-.427a3.207 3.207 0 01-1.291-1.182c-.306-.503-.459-1.081-.459-1.732v-6.123h1.404v6.009c0 .421.093.796.278 1.123.188.327.453.585.795.773.343.185.749.277 1.218.277.473 0 .881-.092 1.223-.277a1.95 1.95 0 00.791-.773c.185-.327.277-.702.277-1.123v-6.009z" fill="#8398B5"/><circle cx="362.4" cy="455.5" r="6.4" fill="#2EE0CA"/><path d="M385.364 451.9v-1.209h7.204v1.209h-2.904v8.1h-1.4v-8.1h-2.9zm9.769 8.255c-.442 0-.842-.082-1.2-.246a2.013 2.013 0 01-.85-.722c-.206-.316-.309-.702-.309-1.159 0-.394.076-.719.227-.973a1.68 1.68 0 01.614-.605c.257-.148.545-.26.863-.336.319-.076.643-.133.973-.173l1.018-.118c.261-.033.45-.086.569-.159.118-.073.177-.191.177-.355v-.031c0-.397-.112-.705-.337-.923-.221-.218-.551-.327-.99-.327-.458 0-.819.101-1.082.304-.261.2-.441.423-.541.668l-1.277-.291c.151-.424.372-.766.663-1.027a2.699 2.699 0 011.014-.573 3.962 3.962 0 011.204-.181c.279 0 .575.033.887.1.315.063.609.181.882.354.275.173.501.42.677.741.176.318.263.732.263 1.241V460h-1.327v-.954h-.054a1.95 1.95 0 01-.396.518 2.11 2.11 0 01-.677.423c-.276.112-.606.168-.991.168zm.295-1.091c.376 0 .697-.074.964-.223.27-.148.474-.342.614-.582a1.51 1.51 0 00.213-.777v-.9c-.048.049-.142.094-.281.136-.137.04-.293.075-.469.105l-.513.077-.418.055a3.332 3.332 0 00-.723.168 1.236 1.236 0 00-.518.341c-.128.145-.191.339-.191.582 0 .336.124.591.372.763.249.17.566.255.95.255zm4.961.936v-6.982h1.313v1.11h.073c.127-.376.352-.672.673-.887a1.926 1.926 0 011.1-.327 5.858 5.858 0 01.577.032v1.3a2.389 2.389 0 00-.291-.05 2.675 2.675 0 00-.418-.032c-.321 0-.608.068-.859.204a1.516 1.516 0 00-.809 1.369V460h-1.359zm4.912 0v-6.982h1.359V460h-1.359zm.687-8.059a.868.868 0 01-.61-.236.773.773 0 01-.25-.573c0-.224.084-.415.25-.573a.86.86 0 01.61-.241c.236 0 .437.081.604.241.17.158.255.349.255.573a.763.763 0 01-.255.573.85.85 0 01-.604.236zm5.823 1.077v1.091h-3.945v-1.091h3.945zM408.948 460v-7.791c0-.436.095-.798.286-1.086.191-.291.444-.508.759-.65a2.43 2.43 0 011.028-.218c.272 0 .506.023.7.068.193.042.337.082.431.118l-.318 1.1a6.191 6.191 0 00-.245-.063 1.373 1.373 0 00-.364-.041c-.33 0-.567.081-.709.245-.139.164-.209.4-.209.709V460h-1.359zm7.588-6.982v1.091h-3.945v-1.091h3.945zM413.673 460v-7.791c0-.436.095-.798.286-1.086.191-.291.444-.508.759-.65a2.43 2.43 0 011.028-.218c.272 0 .506.023.7.068.193.042.337.082.431.118l-.318 1.1a6.191 6.191 0 00-.245-.063 1.373 1.373 0 00-.364-.041c-.33 0-.567.081-.709.245-.139.164-.209.4-.209.709V460h-1.359z" fill="#8398B5"/><circle cx="440" cy="455.5" r="6.4" fill="#FA4C44"/><path d="M462.964 451.9v-1.209h7.204v1.209h-2.904v8.1h-1.4v-8.1h-2.9zm10.046 3.955V460h-1.359v-9.309h1.341v3.464h.086c.164-.376.414-.674.75-.896.337-.221.776-.331 1.319-.331.478 0 .897.098 1.254.295.361.197.64.491.837.882.2.388.3.873.3 1.454V460h-1.36v-4.277c0-.512-.131-.909-.395-1.191-.264-.285-.63-.427-1.1-.427-.321 0-.609.068-.864.204-.251.137-.45.337-.595.6-.143.261-.214.576-.214.946zm9.35 4.286c-.688 0-1.28-.147-1.777-.441a2.981 2.981 0 01-1.145-1.25c-.267-.539-.4-1.171-.4-1.895 0-.715.133-1.346.4-1.891a3.095 3.095 0 011.127-1.277c.485-.306 1.051-.459 1.7-.459.394 0 .776.065 1.145.195.37.13.702.335.996.614.294.278.525.641.695 1.086.17.442.255.98.255 1.614v.481h-5.55V455.9h4.218c0-.357-.073-.674-.218-.95a1.653 1.653 0 00-.614-.659 1.722 1.722 0 00-.918-.241c-.382 0-.715.094-1 .282-.282.185-.5.427-.655.727-.151.297-.227.62-.227.969v.795c0 .467.082.864.246 1.191.166.327.398.577.695.75.297.17.644.254 1.041.254.257 0 .492-.036.704-.109a1.464 1.464 0 00.905-.886l1.286.232c-.103.379-.288.71-.554.995a2.683 2.683 0 01-.996.659c-.397.155-.85.232-1.359.232zm7.826-7.123v1.091h-3.945v-1.091h3.945zM487.323 460v-7.791c0-.436.095-.798.286-1.086.191-.291.444-.508.759-.65a2.429 2.429 0 011.027-.218c.273 0 .507.023.7.068.194.042.338.082.432.118l-.318 1.1a6.684 6.684 0 00-.245-.063 1.373 1.373 0 00-.364-.041c-.33 0-.567.081-.709.245-.139.164-.209.4-.209.709V460h-1.359zm7.525-6.982v1.091h-3.814v-1.091h3.814zm-2.791-1.672h1.359v6.604c0 .264.039.462.118.596.079.13.18.219.305.268.127.045.265.068.413.068.109 0 .205-.008.287-.023l.191-.036.245 1.123a2.7 2.7 0 01-.882.145 2.385 2.385 0 01-1-.191 1.712 1.712 0 01-.75-.618c-.191-.279-.286-.629-.286-1.05v-6.886z" fill="#8398B5"/><circle cx="518.4" cy="455.5" r="6.4" fill="#FEB56A"/><path d="M547.809 450.691h1.409v6.123c0 .651-.153 1.229-.459 1.732-.306.5-.736.894-1.291 1.182-.554.284-1.204.427-1.95.427-.742 0-1.391-.143-1.945-.427a3.207 3.207 0 01-1.291-1.182c-.306-.503-.459-1.081-.459-1.732v-6.123h1.404v6.009c0 .421.093.796.278 1.123.187.327.453.585.795.773.342.185.749.277 1.218.277.473 0 .881-.092 1.223-.277a1.95 1.95 0 00.791-.773c.185-.327.277-.702.277-1.123v-6.009zm3.342 2.327h1.359v7.437c0 .466-.085.86-.254 1.182a1.655 1.655 0 01-.746.731c-.327.167-.732.25-1.213.25h-.137c-.045 0-.092-.001-.141-.004v-1.168h.219c.321 0 .553-.087.695-.259.145-.17.218-.417.218-.741v-7.428zm.673-1.077a.867.867 0 01-.609-.236.769.769 0 01-.25-.573.76.76 0 01.25-.573.859.859 0 01.609-.241.84.84 0 01.604.241c.17.158.255.349.255.573a.763.763 0 01-.255.573.848.848 0 01-.604.236zm4.547 8.214c-.443 0-.843-.082-1.2-.246a2.013 2.013 0 01-.85-.722c-.207-.316-.31-.702-.31-1.159 0-.394.076-.719.228-.973.151-.255.356-.456.613-.605.258-.148.546-.26.864-.336.318-.076.642-.133.973-.173l1.018-.118c.26-.033.45-.086.568-.159.118-.073.177-.191.177-.355v-.031c0-.397-.112-.705-.336-.923-.221-.218-.552-.327-.991-.327-.458 0-.818.101-1.082.304-.26.2-.441.423-.541.668l-1.277-.291c.152-.424.373-.766.664-1.027a2.703 2.703 0 011.013-.573 3.968 3.968 0 011.205-.181c.279 0 .574.033.886.1.315.063.609.181.882.354.276.173.502.42.677.741.176.318.264.732.264 1.241V460h-1.327v-.954h-.055c-.088.175-.22.348-.395.518-.176.17-.402.31-.678.423-.275.112-.606.168-.99.168zm.295-1.091c.376 0 .697-.074.964-.223.269-.148.474-.342.613-.582.143-.242.214-.501.214-.777v-.9c-.049.049-.143.094-.282.136-.136.04-.292.075-.468.105-.176.027-.347.053-.514.077l-.418.055a3.346 3.346 0 00-.723.168 1.236 1.236 0 00-.518.341c-.127.145-.191.339-.191.582 0 .336.124.591.373.763.248.17.565.255.95.255zm6.319-8.373V460h-1.359v-9.309h1.359zm3.861 9.464c-.443 0-.843-.082-1.2-.246a2.013 2.013 0 01-.85-.722c-.207-.316-.31-.702-.31-1.159 0-.394.076-.719.228-.973.151-.255.356-.456.613-.605.258-.148.546-.26.864-.336.318-.076.642-.133.973-.173l1.018-.118c.26-.033.45-.086.568-.159.118-.073.177-.191.177-.355v-.031c0-.397-.112-.705-.336-.923-.221-.218-.552-.327-.991-.327-.458 0-.818.101-1.082.304-.26.2-.441.423-.541.668l-1.277-.291c.152-.424.373-.766.664-1.027a2.703 2.703 0 011.013-.573 3.968 3.968 0 011.205-.181c.279 0 .574.033.886.1.315.063.609.181.882.354.276.173.502.42.677.741.176.318.264.732.264 1.241V460h-1.327v-.954h-.055c-.088.175-.22.348-.395.518-.176.17-.402.31-.678.423-.275.112-.606.168-.99.168zm.295-1.091c.376 0 .697-.074.964-.223.269-.148.474-.342.613-.582.143-.242.214-.501.214-.777v-.9c-.049.049-.143.094-.282.136-.136.04-.292.075-.468.105-.176.027-.347.053-.514.077l-.418.055a3.346 3.346 0 00-.723.168 1.236 1.236 0 00-.518.341c-.127.145-.191.339-.191.582 0 .336.124.591.373.763.248.17.565.255.95.255z" fill="#8398B5"/><circle cx="593.6" cy="455.5" r="6.4" fill="#36B3FE"/><path d="M617.023 460v-9.309h1.404v8.1h4.218V460h-5.622zm10.057.141c-.655 0-1.226-.15-1.714-.45a3.03 3.03 0 01-1.136-1.259c-.27-.539-.405-1.17-.405-1.891 0-.724.135-1.357.405-1.9a3.023 3.023 0 011.136-1.263c.488-.3 1.059-.45 1.714-.45.654 0 1.225.15 1.713.45.488.3.867.721 1.137 1.263.269.543.404 1.176.404 1.9 0 .721-.135 1.352-.404 1.891a3.04 3.04 0 01-1.137 1.259c-.488.3-1.059.45-1.713.45zm.004-1.141c.424 0 .776-.112 1.055-.336a1.98 1.98 0 00.618-.896c.136-.372.204-.783.204-1.231a3.56 3.56 0 00-.204-1.228 2.011 2.011 0 00-.618-.904c-.279-.227-.631-.341-1.055-.341-.427 0-.782.114-1.064.341a2.034 2.034 0 00-.622.904c-.134.373-.2.782-.2 1.228 0 .448.066.859.2 1.231.136.373.344.672.622.896.282.224.637.336 1.064.336zm6.799 1.155c-.442 0-.842-.082-1.2-.246a2.013 2.013 0 01-.85-.722c-.206-.316-.309-.702-.309-1.159 0-.394.076-.719.227-.973a1.68 1.68 0 01.614-.605c.257-.148.545-.26.863-.336.319-.076.643-.133.973-.173l1.018-.118c.261-.033.45-.086.569-.159.118-.073.177-.191.177-.355v-.031c0-.397-.112-.705-.337-.923-.221-.218-.551-.327-.99-.327-.458 0-.819.101-1.082.304-.261.2-.441.423-.541.668l-1.277-.291c.151-.424.372-.766.663-1.027a2.699 2.699 0 011.014-.573 3.962 3.962 0 011.204-.181c.279 0 .575.033.887.1.315.063.609.181.882.354.275.173.501.42.677.741.176.318.263.732.263 1.241V460h-1.327v-.954h-.054a1.95 1.95 0 01-.396.518 2.11 2.11 0 01-.677.423c-.276.112-.606.168-.991.168zm.295-1.091c.376 0 .697-.074.964-.223.27-.148.474-.342.614-.582a1.51 1.51 0 00.213-.777v-.9c-.048.049-.142.094-.281.136-.137.04-.293.075-.469.105l-.513.077-.418.055a3.332 3.332 0 00-.723.168 1.236 1.236 0 00-.518.341c-.128.145-.191.339-.191.582 0 .336.124.591.372.763.249.17.566.255.95.255zm7.574 1.073a2.707 2.707 0 01-1.509-.432c-.439-.291-.785-.705-1.036-1.241-.249-.54-.373-1.186-.373-1.941 0-.755.126-1.4.377-1.936.255-.537.603-.947 1.046-1.232a2.716 2.716 0 011.504-.427c.434 0 .782.072 1.046.218.266.142.473.309.618.5.148.191.264.359.345.504h.082v-3.459h1.359V460h-1.327v-1.086h-.114c-.081.148-.2.318-.354.509a1.975 1.975 0 01-.627.5c-.267.142-.612.214-1.037.214zm.3-1.159c.391 0 .721-.104.991-.31.273-.209.479-.498.618-.868.143-.369.214-.8.214-1.291 0-.485-.07-.909-.209-1.272a1.863 1.863 0 00-.614-.85c-.269-.203-.603-.305-1-.305-.409 0-.75.106-1.022.318a1.951 1.951 0 00-.619.868 3.554 3.554 0 00-.204 1.241c0 .467.07.887.209 1.259.139.373.345.669.618.887.276.215.615.323 1.018.323zm9.213-3.5v1.177h-4.128v-1.177h4.128zm6.997-2.341a1.323 1.323 0 00-.6-1c-.351-.24-.793-.359-1.327-.359-.382 0-.712.06-.991.181a1.54 1.54 0 00-.65.491 1.162 1.162 0 00-.227.705c0 .221.052.412.155.573.106.16.244.295.413.404.173.106.358.196.555.268.197.07.386.128.568.173l.909.236c.297.073.602.172.914.296.312.124.601.288.868.491s.482.454.645.754c.167.3.25.659.25 1.078 0 .527-.136.995-.409 1.404-.269.409-.662.732-1.177.968-.512.237-1.132.355-1.859.355-.697 0-1.3-.111-1.809-.332-.509-.221-.908-.535-1.196-.941-.288-.409-.447-.894-.477-1.454h1.409c.027.336.136.616.327.84.194.222.441.387.741.496.303.106.635.159.996.159.397 0 .75-.062 1.059-.186.312-.128.557-.303.736-.528.179-.227.268-.492.268-.795 0-.276-.078-.502-.236-.677a1.744 1.744 0 00-.632-.437 6.19 6.19 0 00-.895-.304l-1.1-.3c-.746-.203-1.337-.502-1.773-.896-.433-.394-.65-.915-.65-1.563 0-.537.145-1.005.436-1.405.291-.4.685-.711 1.182-.932.497-.224 1.058-.336 1.682-.336.63 0 1.186.11 1.668.332a2.81 2.81 0 011.146.913c.278.385.424.828.436 1.328h-1.355zm4.411 2.718V460h-1.359v-9.309h1.341v3.464h.086c.164-.376.414-.674.75-.896.336-.221.776-.331 1.318-.331.479 0 .897.098 1.255.295.36.197.639.491.836.882.2.388.3.873.3 1.454V460h-1.359v-4.277c0-.512-.132-.909-.396-1.191-.263-.285-.63-.427-1.1-.427a1.8 1.8 0 00-.863.204c-.252.137-.45.337-.596.6-.142.261-.213.576-.213.946zm9.35 4.286c-.688 0-1.281-.147-1.778-.441a2.994 2.994 0 01-1.145-1.25c-.267-.539-.4-1.171-.4-1.895 0-.715.133-1.346.4-1.891.27-.546.645-.971 1.127-1.277.485-.306 1.052-.459 1.7-.459.394 0 .776.065 1.146.195.369.13.701.335.995.614.294.278.526.641.696 1.086.169.442.254.98.254 1.614v.481h-5.55V455.9h4.218c0-.357-.072-.674-.218-.95a1.65 1.65 0 00-.613-.659 1.723 1.723 0 00-.919-.241c-.381 0-.715.094-1 .282-.281.185-.5.427-.654.727-.152.297-.227.62-.227.969v.795c0 .467.081.864.245 1.191.167.327.398.577.695.75.297.17.644.254 1.041.254.258 0 .493-.036.705-.109.212-.075.395-.188.55-.336.154-.149.273-.332.354-.55l1.287.232c-.103.379-.288.71-.555.995a2.671 2.671 0 01-.995.659c-.397.155-.85.232-1.359.232zm7.117-.004a2.703 2.703 0 01-1.509-.432c-.44-.291-.785-.705-1.037-1.241-.248-.54-.372-1.186-.372-1.941 0-.755.125-1.4.377-1.936.254-.537.603-.947 1.045-1.232a2.72 2.72 0 011.505-.427c.433 0 .782.072 1.045.218.267.142.473.309.618.5.149.191.264.359.346.504h.082v-3.459h1.359V460h-1.327v-1.086h-.114c-.082.148-.2.318-.355.509-.151.191-.36.358-.627.5-.267.142-.612.214-1.036.214zm.3-1.159c.391 0 .721-.104.991-.31.272-.209.478-.498.618-.868.142-.369.213-.8.213-1.291 0-.485-.069-.909-.209-1.272a1.869 1.869 0 00-.613-.85c-.27-.203-.603-.305-1-.305-.409 0-.75.106-1.023.318a1.942 1.942 0 00-.618.868 3.53 3.53 0 00-.205 1.241c0 .467.07.887.209 1.259.14.373.346.669.619.887.275.215.615.323 1.018.323z" fill="#8398B5"/><circle cx="706.4" cy="455.5" r="6.4" fill="#544FC5"/><path d="M737.336 450.691V460h-1.29l-4.732-6.827h-.087V460h-1.404v-9.309h1.3l4.736 6.837h.087v-6.837h1.39zm4.949 9.45c-.688 0-1.28-.147-1.777-.441a2.981 2.981 0 01-1.145-1.25c-.267-.539-.4-1.171-.4-1.895 0-.715.133-1.346.4-1.891a3.095 3.095 0 011.127-1.277c.485-.306 1.051-.459 1.7-.459.394 0 .776.065 1.145.195.37.13.702.335.996.614.294.278.525.641.695 1.086.17.442.255.98.255 1.614v.481h-5.55V455.9h4.218c0-.357-.073-.674-.218-.95a1.653 1.653 0 00-.614-.659 1.722 1.722 0 00-.918-.241c-.382 0-.715.094-1 .282-.282.185-.5.427-.655.727-.151.297-.227.62-.227.969v.795c0 .467.082.864.246 1.191.166.327.398.577.695.75.297.17.644.254 1.041.254.257 0 .492-.036.704-.109a1.464 1.464 0 00.905-.886l1.286.232c-.103.379-.288.71-.554.995a2.683 2.683 0 01-.996.659c-.397.155-.85.232-1.359.232zm7.763-7.123v1.091h-3.814v-1.091h3.814zm-2.791-1.672h1.359v6.604c0 .264.039.462.118.596.079.13.18.219.305.268.127.045.265.068.413.068.109 0 .205-.008.287-.023l.191-.036.245 1.123a2.7 2.7 0 01-.882.145 2.385 2.385 0 01-1-.191 1.712 1.712 0 01-.75-.618c-.191-.279-.286-.629-.286-1.05v-6.886zm7.791-.655h1.704l2.964 7.237h.109l2.964-7.237h1.704V460h-1.336v-6.736h-.086l-2.746 6.723h-1.109l-2.745-6.728h-.087V460h-1.336v-9.309zm14.387 9.45c-.688 0-1.28-.147-1.777-.441a2.981 2.981 0 01-1.145-1.25c-.267-.539-.4-1.171-.4-1.895 0-.715.133-1.346.4-1.891a3.095 3.095 0 011.127-1.277c.485-.306 1.051-.459 1.7-.459.394 0 .776.065 1.145.195.37.13.702.335.996.614.294.278.525.641.695 1.086.17.442.255.98.255 1.614v.481h-5.55V455.9h4.218c0-.357-.073-.674-.218-.95a1.653 1.653 0 00-.614-.659 1.722 1.722 0 00-.918-.241c-.382 0-.715.094-1 .282-.282.185-.5.427-.655.727-.151.297-.227.62-.227.969v.795c0 .467.082.864.246 1.191.166.327.398.577.695.75.297.17.644.254 1.041.254.257 0 .492-.036.704-.109a1.464 1.464 0 00.905-.886l1.286.232c-.103.379-.288.71-.554.995a2.683 2.683 0 01-.996.659c-.397.155-.85.232-1.359.232zm7.763-7.123v1.091h-3.814v-1.091h3.814zm-2.791-1.672h1.359v6.604c0 .264.039.462.118.596.079.13.18.219.305.268.127.045.265.068.413.068.109 0 .205-.008.287-.023l.191-.036.245 1.123a2.7 2.7 0 01-.882.145 2.385 2.385 0 01-1-.191 1.712 1.712 0 01-.75-.618c-.191-.279-.286-.629-.286-1.05v-6.886zm7.228 8.795c-.688 0-1.28-.147-1.777-.441a2.981 2.981 0 01-1.145-1.25c-.267-.539-.4-1.171-.4-1.895 0-.715.133-1.346.4-1.891a3.095 3.095 0 011.127-1.277c.485-.306 1.051-.459 1.7-.459.394 0 .776.065 1.145.195.37.13.702.335.996.614.294.278.525.641.695 1.086.17.442.255.98.255 1.614v.481h-5.55V455.9h4.218c0-.357-.073-.674-.218-.95a1.653 1.653 0 00-.614-.659 1.722 1.722 0 00-.918-.241c-.382 0-.715.094-1 .282-.282.185-.5.427-.655.727-.151.297-.227.62-.227.969v.795c0 .467.082.864.246 1.191.166.327.398.577.695.75.297.17.644.254 1.041.254.257 0 .492-.036.704-.109a1.464 1.464 0 00.905-.886l1.286.232c-.103.379-.288.71-.554.995a2.683 2.683 0 01-.996.659c-.397.155-.85.232-1.359.232zm4.504-.141v-6.982h1.313v1.11h.073c.127-.376.352-.672.673-.887a1.926 1.926 0 011.1-.327 5.858 5.858 0 01.577.032v1.3a2.389 2.389 0 00-.291-.05 2.675 2.675 0 00-.418-.032c-.321 0-.608.068-.859.204a1.516 1.516 0 00-.809 1.369V460h-1.359zm4.912 0v-6.982h1.359V460h-1.359zm.687-8.059a.868.868 0 01-.61-.236.773.773 0 01-.25-.573c0-.224.084-.415.25-.573a.86.86 0 01.61-.241c.236 0 .437.081.604.241.17.158.255.349.255.573a.763.763 0 01-.255.573.85.85 0 01-.604.236zm3.86 3.914V460h-1.359v-6.982h1.304v1.137h.087c.16-.37.412-.667.754-.891.346-.224.78-.336 1.305-.336.475 0 .892.1 1.25.3.357.196.635.49.832.881.196.391.295.875.295 1.45V460h-1.359v-4.277c0-.506-.132-.902-.396-1.186-.263-.288-.625-.432-1.086-.432-.315 0-.595.068-.841.204a1.478 1.478 0 00-.577.6c-.14.261-.209.576-.209.946zm9.218 6.909c-.555 0-1.032-.073-1.432-.218a2.779 2.779 0 01-.973-.578 2.419 2.419 0 01-.563-.786l1.168-.482c.082.134.191.274.327.423.14.151.328.28.564.386.239.106.547.159.923.159.515 0 .941-.125 1.277-.377.336-.248.504-.645.504-1.191v-1.372h-.086c-.082.148-.2.313-.354.495a1.93 1.93 0 01-.628.473c-.266.133-.613.2-1.041.2a2.908 2.908 0 01-1.491-.387c-.439-.26-.787-.644-1.045-1.15-.255-.509-.382-1.135-.382-1.877s.126-1.379.377-1.909c.255-.53.603-.936 1.046-1.218a2.716 2.716 0 011.504-.427c.434 0 .784.072 1.05.218.267.142.475.309.623.5.152.191.268.359.35.504h.1v-1.132h1.332v7.137c0 .6-.139 1.092-.418 1.477-.279.385-.656.67-1.132.855a4.383 4.383 0 01-1.6.277zm-.014-3.996c.391 0 .722-.09.991-.272.273-.185.479-.449.618-.791.143-.346.214-.759.214-1.241 0-.47-.07-.883-.209-1.241a1.836 1.836 0 00-.614-.836c-.269-.203-.603-.305-1-.305-.409 0-.75.106-1.022.318a1.922 1.922 0 00-.619.855 3.4 3.4 0 00-.204 1.209c0 .457.07.859.209 1.204.139.346.345.616.618.81.276.193.615.29 1.018.29z" fill="#8398B5"/><circle cx="832" cy="455.5" r="6.4" fill="#00E272"/><path d="M855.423 460v-9.309h3.409c.66 0 1.207.109 1.641.327.433.216.757.508.972.878.216.366.323.78.323 1.241 0 .387-.071.715-.213.981a1.77 1.77 0 01-.573.637 2.525 2.525 0 01-.782.345v.091c.309.015.611.115.905.3.297.182.542.441.736.777.194.337.291.746.291 1.228 0 .475-.112.903-.337 1.282-.221.375-.563.674-1.027.895-.463.218-1.056.327-1.777.327h-3.568zm1.404-1.204h2.028c.672 0 1.154-.131 1.445-.391.291-.261.436-.587.436-.977 0-.294-.074-.564-.222-.81a1.601 1.601 0 00-.637-.586c-.272-.145-.597-.218-.972-.218h-2.078v2.982zm0-4.078h1.882c.315 0 .599-.06.85-.181.255-.122.456-.291.605-.509.151-.222.227-.482.227-.782a1.29 1.29 0 00-.405-.968c-.269-.261-.683-.391-1.241-.391h-1.918v2.831zm6.862 5.282v-6.982h1.359V460h-1.359zm.686-8.059a.867.867 0 01-.609-.236.769.769 0 01-.25-.573.76.76 0 01.25-.573.859.859 0 01.609-.241c.236 0 .438.081.605.241a.756.756 0 01.254.573.766.766 0 01-.254.573.853.853 0 01-.605.236zm3.86-1.25V460h-1.359v-9.309h1.359zm3.188 0V460h-1.359v-9.309h1.359z" fill="#8398B5"/><circle cx="895.2" cy="456" r="6.4" fill="#FE6E3A"/><path d="M913.636 460.5h-3.013v-9.309h3.109c.912 0 1.695.186 2.35.559a3.69 3.69 0 011.504 1.595c.352.691.528 1.52.528 2.487 0 .97-.178 1.803-.532 2.5a3.74 3.74 0 01-1.527 1.609c-.667.373-1.473.559-2.419.559zm-1.609-1.227h1.532c.709 0 1.299-.134 1.768-.4a2.52 2.52 0 001.055-1.168c.233-.513.35-1.137.35-1.873 0-.73-.117-1.35-.35-1.859a2.466 2.466 0 00-1.032-1.159c-.457-.264-1.026-.396-1.704-.396h-1.619v6.855zm7.724 1.227v-6.982h1.359v6.982h-1.359zm.687-8.059a.864.864 0 01-.609-.236.769.769 0 01-.25-.573.76.76 0 01.25-.573.851.851 0 01.609-.241c.236 0 .437.08.604.241.17.158.255.349.255.573a.763.763 0 01-.255.573.85.85 0 01-.604.236zm7.733 2.782l-1.232.218a1.464 1.464 0 00-.246-.45 1.206 1.206 0 00-.445-.35c-.188-.091-.423-.136-.705-.136-.385 0-.706.086-.963.259-.258.169-.387.389-.387.659 0 .233.087.421.259.563.173.143.452.259.837.35l1.109.255c.642.148 1.121.377 1.436.686.315.309.473.711.473 1.205 0 .418-.121.791-.364 1.118-.239.324-.574.579-1.004.764-.428.184-.923.277-1.487.277-.781 0-1.419-.167-1.913-.5-.494-.336-.797-.814-.909-1.432l1.313-.2c.082.343.25.602.505.777.254.173.586.259.995.259.446 0 .802-.092 1.068-.277.267-.188.4-.416.4-.686a.711.711 0 00-.245-.55c-.161-.149-.408-.261-.741-.337l-1.182-.259c-.651-.148-1.133-.384-1.445-.709-.309-.324-.464-.735-.464-1.232 0-.412.115-.772.346-1.081.23-.309.548-.55.954-.723.406-.176.871-.264 1.396-.264.754 0 1.348.164 1.781.491.434.324.72.759.86 1.305zm4.571 5.418c-.676 0-1.257-.153-1.745-.459a3.035 3.035 0 01-1.118-1.277c-.261-.543-.391-1.164-.391-1.864 0-.709.133-1.335.4-1.877a3.056 3.056 0 011.127-1.278c.485-.306 1.056-.459 1.714-.459.53 0 1.003.099 1.418.296.415.194.75.466 1.004.818.258.351.411.762.459 1.232h-1.322a1.592 1.592 0 00-.5-.846c-.258-.236-.603-.354-1.037-.354-.379 0-.71.1-.995.3a1.925 1.925 0 00-.659.845c-.158.364-.237.794-.237 1.291 0 .509.078.949.232 1.318.155.37.373.656.655.859.285.203.619.305 1.004.305.258 0 .491-.047.7-.141.212-.097.39-.235.532-.414.146-.178.247-.394.305-.645h1.322a2.562 2.562 0 01-.441 1.209 2.529 2.529 0 01-.986.836c-.409.203-.889.305-1.441.305zm7.263 0c-.655 0-1.226-.15-1.714-.45a3.03 3.03 0 01-1.136-1.259c-.27-.54-.405-1.17-.405-1.891 0-.724.135-1.358.405-1.9a3.02 3.02 0 011.136-1.264c.488-.3 1.059-.45 1.714-.45.654 0 1.225.15 1.713.45.488.3.867.721 1.137 1.264.269.542.404 1.176.404 1.9 0 .721-.135 1.351-.404 1.891a3.04 3.04 0 01-1.137 1.259c-.488.3-1.059.45-1.713.45zm.004-1.141c.424 0 .776-.112 1.055-.336a1.97 1.97 0 00.618-.896 3.57 3.57 0 00.204-1.232c0-.445-.068-.854-.204-1.227a1.99 1.99 0 00-.618-.904c-.279-.228-.631-.341-1.055-.341-.427 0-.782.113-1.063.341a2.022 2.022 0 00-.623.904c-.134.373-.2.782-.2 1.227 0 .449.066.859.2 1.232.136.373.344.671.623.896.281.224.636.336 1.063.336zm6.126-3.145v4.145h-1.359v-6.982h1.305v1.137h.086c.161-.37.412-.667.755-.891.345-.225.78-.337 1.304-.337.476 0 .893.1 1.25.3.358.197.635.491.832.882.197.391.296.874.296 1.45v4.441h-1.36v-4.277c0-.506-.131-.902-.395-1.187-.264-.288-.626-.431-1.086-.431-.316 0-.596.068-.841.204a1.468 1.468 0 00-.578.6c-.139.261-.209.576-.209.946zm7.65 0v4.145h-1.359v-6.982h1.305v1.137h.086c.161-.37.412-.667.755-.891.345-.225.78-.337 1.304-.337.476 0 .893.1 1.25.3.358.197.635.491.832.882.197.391.296.874.296 1.45v4.441h-1.36v-4.277c0-.506-.131-.902-.395-1.187-.264-.288-.626-.431-1.086-.431-.316 0-.596.068-.841.204a1.468 1.468 0 00-.578.6c-.139.261-.209.576-.209.946zm9.3 4.286c-.688 0-1.28-.147-1.777-.441a2.987 2.987 0 01-1.145-1.25c-.267-.539-.4-1.171-.4-1.895 0-.716.133-1.346.4-1.891a3.098 3.098 0 011.127-1.278c.485-.306 1.051-.459 1.7-.459.394 0 .776.065 1.145.196.37.13.702.335.996.613.294.279.526.641.695 1.087.17.442.255.98.255 1.613v.482h-5.55V456.4h4.218a2.01 2.01 0 00-.218-.95 1.653 1.653 0 00-.614-.659 1.71 1.71 0 00-.918-.241c-.382 0-.715.094-1 .282-.282.185-.5.427-.655.727-.151.297-.227.62-.227.968v.796c0 .466.082.863.246 1.191.166.327.398.577.695.75a2.07 2.07 0 001.041.254c.258 0 .492-.036.705-.109.212-.076.395-.188.55-.336.154-.149.272-.332.354-.55l1.286.232c-.103.378-.287.71-.554.995a2.683 2.683 0 01-.996.659c-.397.155-.85.232-1.359.232zm7.445 0c-.676 0-1.258-.153-1.746-.459a3.042 3.042 0 01-1.118-1.277c-.261-.543-.391-1.164-.391-1.864 0-.709.133-1.335.4-1.877a3.07 3.07 0 011.127-1.278c.485-.306 1.056-.459 1.714-.459.53 0 1.003.099 1.418.296a2.48 2.48 0 011.464 2.05h-1.323a1.585 1.585 0 00-.5-.846c-.257-.236-.603-.354-1.036-.354-.379 0-.711.1-.996.3-.282.197-.501.479-.659.845-.157.364-.236.794-.236 1.291 0 .509.077.949.232 1.318.154.37.372.656.654.859.285.203.62.305 1.005.305.257 0 .491-.047.7-.141.212-.097.389-.235.532-.414a1.55 1.55 0 00.304-.645h1.323a2.584 2.584 0 01-.441 1.209 2.536 2.536 0 01-.986.836c-.41.203-.89.305-1.441.305zm7.58-7.123v1.091h-3.813v-1.091h3.813zm-2.791-1.673h1.36v6.605c0 .264.039.462.118.595.078.131.18.22.304.269.128.045.265.068.414.068a1.6 1.6 0 00.286-.023l.191-.036.246 1.122a2.165 2.165 0 01-.337.091 2.604 2.604 0 01-.545.055 2.398 2.398 0 01-1-.191 1.712 1.712 0 01-.75-.618c-.191-.279-.287-.629-.287-1.05v-6.887zm4.295 8.655v-6.982h1.359v6.982h-1.359zm.686-8.059a.867.867 0 01-.609-.236.769.769 0 01-.25-.573.76.76 0 01.25-.573.854.854 0 01.609-.241.84.84 0 01.605.241.756.756 0 01.254.573.766.766 0 01-.254.573.853.853 0 01-.605.236zm5.442 8.2c-.654 0-1.226-.15-1.713-.45a3.04 3.04 0 01-1.137-1.259c-.27-.54-.404-1.17-.404-1.891 0-.724.134-1.358.404-1.9.27-.543.649-.964 1.137-1.264.487-.3 1.059-.45 1.713-.45.655 0 1.226.15 1.714.45.488.3.866.721 1.136 1.264.27.542.405 1.176.405 1.9 0 .721-.135 1.351-.405 1.891-.27.539-.648.959-1.136 1.259-.488.3-1.059.45-1.714.45zm.005-1.141c.424 0 .775-.112 1.054-.336a1.97 1.97 0 00.618-.896c.137-.373.205-.783.205-1.232 0-.445-.068-.854-.205-1.227a1.99 1.99 0 00-.618-.904c-.279-.228-.63-.341-1.054-.341-.428 0-.782.113-1.064.341a2.03 2.03 0 00-.623.904 3.63 3.63 0 00-.2 1.227c0 .449.067.859.2 1.232.137.373.344.671.623.896.282.224.636.336 1.064.336zm6.126-3.145v4.145h-1.359v-6.982h1.304v1.137h.087c.16-.37.412-.667.754-.891.346-.225.78-.337 1.305-.337.475 0 .892.1 1.25.3.357.197.635.491.832.882.197.391.295.874.295 1.45v4.441h-1.359v-4.277c0-.506-.132-.902-.396-1.187-.263-.288-.625-.431-1.086-.431-.315 0-.595.068-.841.204a1.466 1.466 0 00-.577.6c-.139.261-.209.576-.209.946z" fill="#8398B5"/><circle cx="1012" cy="456" r="6.4" fill="#6B8ABC"/><path d="M1032.5 453.636c-.05-.43-.25-.763-.6-1-.35-.239-.79-.359-1.33-.359-.38 0-.71.061-.99.182-.28.118-.49.282-.65.491-.15.206-.23.441-.23.705 0 .221.06.412.16.572.11.161.24.296.41.405.18.106.36.195.56.268.19.07.38.127.57.173l.9.236c.3.073.61.171.92.296.31.124.6.287.87.49.26.203.48.455.64.755.17.3.25.659.25 1.077 0 .528-.13.996-.41 1.405-.27.409-.66.732-1.17.968-.52.236-1.14.355-1.86.355-.7 0-1.3-.111-1.81-.332-.51-.221-.91-.535-1.2-.941-.29-.409-.45-.894-.48-1.455h1.41c.03.337.14.617.33.841.19.221.44.387.74.496.3.106.64.159 1 .159.39 0 .75-.062 1.06-.187.31-.127.55-.303.73-.527.18-.227.27-.492.27-.795 0-.276-.08-.502-.24-.678a1.679 1.679 0 00-.63-.436 6.113 6.113 0 00-.89-.305l-1.1-.3c-.75-.203-1.34-.501-1.78-.895-.43-.394-.65-.915-.65-1.564 0-.536.15-1.004.44-1.404.29-.4.69-.711 1.18-.932.5-.224 1.06-.336 1.68-.336.63 0 1.19.11 1.67.331.49.222.87.526 1.15.914.28.385.42.827.43 1.327h-1.35zm4.41 2.719v4.145h-1.36v-9.309h1.34v3.464h.09c.16-.376.41-.675.75-.896.33-.221.77-.332 1.32-.332.48 0 .89.099 1.25.296.36.197.64.491.84.882.2.387.3.872.3 1.454v4.441h-1.36v-4.277c0-.512-.13-.909-.4-1.191-.26-.285-.63-.427-1.1-.427-.32 0-.61.068-.86.204-.25.136-.45.336-.6.6-.14.261-.21.576-.21.946zm10.76 1.25v-4.087h1.37v6.982h-1.34v-1.209h-.07c-.16.373-.42.683-.77.932-.36.245-.79.368-1.32.368-.45 0-.84-.099-1.19-.296a2.11 2.11 0 01-.81-.886c-.19-.391-.29-.874-.29-1.45v-4.441h1.36v4.277c0 .476.13.855.4 1.137.26.282.6.423 1.02.423.26 0 .51-.064.76-.191.26-.128.47-.32.63-.578.17-.257.26-.584.25-.981zm6.45-4.087v1.091h-3.81v-1.091h3.81zm-2.79-1.673h1.36v6.605c0 .264.04.462.12.595.08.131.18.22.3.269.13.045.27.068.42.068.11 0 .2-.008.28-.023.09-.015.15-.027.19-.036l.25 1.122c-.08.031-.19.061-.34.091a2.5 2.5 0 01-.54.055c-.36.006-.69-.058-1-.191a1.701 1.701 0 01-.75-.618c-.19-.279-.29-.629-.29-1.05v-6.887zm6.83 8.791c-.56 0-1.06-.144-1.5-.431-.44-.291-.79-.705-1.04-1.241-.25-.54-.37-1.187-.37-1.941 0-.755.12-1.4.37-1.937.26-.536.61-.947 1.05-1.231.44-.285.94-.428 1.5-.428.44 0 .79.073 1.05.218.27.143.47.31.62.5.15.191.26.36.34.505h.08v-3.459h1.36v9.309h-1.32v-1.086h-.12c-.08.148-.2.318-.35.509-.15.191-.36.357-.63.5-.27.142-.61.213-1.04.213zm.3-1.159c.4 0 .73-.103 1-.309.27-.209.47-.498.61-.868.15-.37.22-.8.22-1.291 0-.485-.07-.909-.21-1.273a1.886 1.886 0 00-.62-.85c-.26-.203-.6-.304-1-.304s-.75.106-1.02.318c-.27.212-.48.502-.62.868-.13.367-.2.78-.2 1.241 0 .467.07.886.21 1.259.14.373.34.668.62.887.27.215.61.322 1.01.322zm8.04 1.164c-.65 0-1.22-.15-1.71-.45-.49-.3-.87-.72-1.14-1.259-.27-.54-.4-1.17-.4-1.891 0-.724.13-1.358.4-1.9.27-.543.65-.964 1.14-1.264.49-.3 1.06-.45 1.71-.45.66 0 1.23.15 1.72.45.49.3.86.721 1.13 1.264.27.542.41 1.176.41 1.9 0 .721-.14 1.351-.41 1.891a3.01 3.01 0 01-1.13 1.259c-.49.3-1.06.45-1.72.45zm.01-1.141c.42 0 .77-.112 1.05-.336.28-.225.49-.523.62-.896.14-.373.21-.783.21-1.232 0-.445-.07-.854-.21-1.227a1.964 1.964 0 00-.62-.904c-.28-.228-.63-.341-1.05-.341-.43 0-.78.113-1.06.341-.28.227-.49.528-.63.904-.13.373-.2.782-.2 1.227 0 .449.07.859.2 1.232.14.373.35.671.63.896.28.224.63.336 1.06.336zm6.07 1l-2.06-6.982h1.41l1.37 5.127h.06l1.38-5.127h1.4l1.36 5.105h.07l1.36-5.105h1.41l-2.05 6.982h-1.39l-1.42-5.041h-.1l-1.42 5.041h-1.38zm10.41-4.145v4.145h-1.36v-6.982h1.3v1.137h.09c.16-.37.41-.667.75-.891.35-.225.78-.337 1.31-.337.47 0 .89.1 1.25.3.35.197.63.491.83.882.2.391.29.874.29 1.45v4.441h-1.36v-4.277c0-.506-.13-.902-.39-1.187-.26-.288-.63-.431-1.09-.431-.31 0-.59.068-.84.204-.24.136-.43.336-.58.6-.13.261-.2.576-.2.946z" fill="#8398B5"/><circle cx="1103.2" cy="456" r="6.4" fill="#D568FB"/><path d="M1118.62 460.5v-9.309h1.41v8.1h4.22v1.209h-5.63zm10.06.141c-.65 0-1.23-.15-1.71-.45-.49-.3-.87-.72-1.14-1.259-.27-.54-.4-1.17-.4-1.891 0-.724.13-1.358.4-1.9.27-.543.65-.964 1.14-1.264.48-.3 1.06-.45 1.71-.45.65 0 1.23.15 1.71.45.49.3.87.721 1.14 1.264.27.542.4 1.176.4 1.9 0 .721-.13 1.351-.4 1.891-.27.539-.65.959-1.14 1.259-.48.3-1.06.45-1.71.45zm0-1.141c.43 0 .78-.112 1.06-.336.28-.225.48-.523.62-.896.13-.373.2-.783.2-1.232 0-.445-.07-.854-.2-1.227-.14-.376-.34-.677-.62-.904-.28-.228-.63-.341-1.06-.341-.42 0-.78.113-1.06.341-.28.227-.49.528-.62.904-.14.373-.2.782-.2 1.227 0 .449.06.859.2 1.232.13.373.34.671.62.896.28.224.64.336 1.06.336zm6.8 1.155c-.44 0-.84-.082-1.2-.246a2.07 2.07 0 01-.85-.723c-.2-.315-.31-.701-.31-1.159 0-.394.08-.718.23-.972.15-.255.36-.457.61-.605.26-.148.55-.261.87-.336.32-.076.64-.134.97-.173l1.02-.118c.26-.034.45-.087.57-.159.12-.073.17-.191.17-.355v-.032c0-.397-.11-.704-.33-.922-.22-.219-.55-.328-.99-.328-.46 0-.82.102-1.08.305-.26.2-.45.423-.55.668l-1.27-.291c.15-.424.37-.767.66-1.027.3-.264.63-.455 1.01-.573a4.044 4.044 0 012.1-.082c.31.064.6.182.88.355.27.173.5.42.67.741.18.318.27.732.27 1.241v4.636h-1.33v-.955h-.05c-.09.176-.22.349-.4.519-.17.169-.4.31-.68.422-.27.112-.6.169-.99.169zm.3-1.091c.37 0 .7-.075.96-.223.27-.149.48-.343.62-.582.14-.242.21-.501.21-.777v-.9a.706.706 0 01-.28.136c-.14.04-.29.074-.47.105l-.51.077c-.17.021-.31.039-.42.055-.27.033-.51.089-.73.168a1.24 1.24 0 00-.51.341c-.13.145-.19.339-.19.581 0 .337.12.591.37.764.25.17.56.255.95.255zm7.57 1.072c-.56 0-1.06-.144-1.51-.431-.44-.291-.78-.705-1.03-1.241-.25-.54-.38-1.187-.38-1.941 0-.755.13-1.4.38-1.937.26-.536.6-.947 1.05-1.231.44-.285.94-.428 1.5-.428.43 0 .78.073 1.05.218.26.143.47.31.62.5.14.191.26.36.34.505h.08v-3.459h1.36v9.309h-1.33v-1.086h-.11c-.08.148-.2.318-.35.509-.16.191-.36.357-.63.5-.27.142-.61.213-1.04.213zm.3-1.159c.39 0 .72-.103.99-.309.28-.209.48-.498.62-.868s.22-.8.22-1.291c0-.485-.07-.909-.21-1.273a1.886 1.886 0 00-.62-.85c-.27-.203-.6-.304-1-.304-.41 0-.75.106-1.02.318-.27.212-.48.502-.62.868-.13.367-.2.78-.2 1.241 0 .467.07.886.21 1.259.14.373.34.668.61.887.28.215.62.322 1.02.322zm8.6-8.286h1.7l2.97 7.236h.11l2.96-7.236h1.7v9.309h-1.33v-6.736h-.09l-2.74 6.722h-1.11l-2.75-6.727h-.09v6.741h-1.33v-9.309zm13.41 9.464c-.44 0-.84-.082-1.2-.246a2.01 2.01 0 01-.85-.723c-.21-.315-.31-.701-.31-1.159 0-.394.07-.718.23-.972.15-.255.35-.457.61-.605.26-.148.55-.261.86-.336.32-.076.65-.134.98-.173.41-.049.75-.088 1.01-.118.26-.034.45-.087.57-.159.12-.073.18-.191.18-.355v-.032c0-.397-.11-.704-.34-.922-.22-.219-.55-.328-.99-.328-.46 0-.82.102-1.08.305-.26.2-.44.423-.54.668l-1.28-.291c.15-.424.38-.767.67-1.027.29-.264.63-.455 1.01-.573.38-.121.78-.182 1.2-.182.28 0 .58.034.89.1.32.064.61.182.88.355.28.173.5.42.68.741.18.318.26.732.26 1.241v4.636h-1.32v-.955h-.06c-.09.176-.22.349-.39.519-.18.169-.41.31-.68.422-.28.112-.61.169-.99.169zm.29-1.091c.38 0 .7-.075.97-.223a1.526 1.526 0 00.82-1.359v-.9c-.04.048-.14.094-.28.136-.13.04-.29.074-.47.105-.17.027-.34.053-.51.077-.17.021-.31.039-.42.055-.26.033-.5.089-.72.168-.22.079-.39.192-.52.341-.13.145-.19.339-.19.581 0 .337.12.591.37.764.25.17.57.255.95.255zm6.32-3.209v4.145h-1.36v-6.982h1.31v1.137h.08c.17-.37.42-.667.76-.891.34-.225.78-.337 1.3-.337.48 0 .9.1 1.25.3.36.197.64.491.84.882.19.391.29.874.29 1.45v4.441h-1.36v-4.277c0-.506-.13-.902-.39-1.187-.27-.288-.63-.431-1.09-.431-.32 0-.6.068-.84.204-.24.136-.44.336-.58.6-.14.261-.21.576-.21.946zm8.33 4.3c-.45 0-.85-.082-1.2-.246a1.952 1.952 0 01-.85-.723c-.21-.315-.31-.701-.31-1.159 0-.394.07-.718.22-.972.16-.255.36-.457.62-.605.25-.148.54-.261.86-.336.32-.076.64-.134.97-.173l1.02-.118c.26-.034.45-.087.57-.159.12-.073.18-.191.18-.355v-.032c0-.397-.11-.704-.34-.922-.22-.219-.55-.328-.99-.328-.46 0-.82.102-1.08.305-.26.2-.44.423-.54.668l-1.28-.291c.15-.424.37-.767.66-1.027.3-.264.64-.455 1.02-.573.38-.121.78-.182 1.2-.182.28 0 .58.034.89.1.31.064.61.182.88.355.28.173.5.42.68.741.17.318.26.732.26 1.241v4.636h-1.33v-.955h-.05a2.072 2.072 0 01-1.07.941c-.28.112-.61.169-.99.169zm.29-1.091c.38 0 .7-.075.96-.223.27-.149.48-.343.62-.582.14-.242.21-.501.21-.777v-.9a.706.706 0 01-.28.136c-.14.04-.29.074-.47.105-.17.027-.35.053-.51.077-.17.021-.31.039-.42.055-.26.033-.5.089-.72.168-.22.079-.39.192-.52.341-.13.145-.19.339-.19.581 0 .337.12.591.37.764.25.17.57.255.95.255zm7.89 3.7c-.56 0-1.03-.073-1.43-.219-.4-.145-.72-.337-.98-.577a2.365 2.365 0 01-.56-.786l1.17-.482c.08.133.19.274.33.423.14.151.32.28.56.386.24.106.55.159.92.159.52 0 .94-.126 1.28-.377.34-.249.5-.646.5-1.191v-1.373h-.08c-.08.149-.2.314-.36.496a1.93 1.93 0 01-.62.472c-.27.134-.62.2-1.05.2-.55 0-1.04-.128-1.49-.386-.44-.261-.78-.644-1.04-1.15-.26-.509-.38-1.135-.38-1.877 0-.743.12-1.379.37-1.909.26-.531.61-.937 1.05-1.218.44-.285.94-.428 1.5-.428.44 0 .79.073 1.05.218.27.143.48.31.63.5.15.191.26.36.35.505h.1v-1.132h1.33v7.137c0 .6-.14 1.092-.42 1.477-.28.385-.66.67-1.13.854-.47.185-1.01.278-1.6.278zm-.02-3.996c.4 0 .73-.091 1-.273.27-.184.47-.448.61-.79.15-.346.22-.76.22-1.241 0-.47-.07-.884-.21-1.241a1.857 1.857 0 00-.62-.837c-.26-.203-.6-.304-1-.304s-.75.106-1.02.318c-.27.209-.48.494-.62.855-.13.36-.2.763-.2 1.209 0 .457.07.859.21 1.204.14.346.34.615.62.809.27.194.61.291 1.01.291zm8 1.373c-.69 0-1.28-.147-1.78-.441a3.008 3.008 0 01-1.14-1.25c-.27-.539-.4-1.171-.4-1.895 0-.716.13-1.346.4-1.891.27-.546.64-.972 1.12-1.278.49-.306 1.06-.459 1.7-.459.4 0 .78.065 1.15.196.37.13.7.335 1 .613.29.279.52.641.69 1.087.17.442.26.98.26 1.613v.482h-5.55V456.4h4.21c0-.358-.07-.674-.21-.95a1.653 1.653 0 00-.62-.659 1.696 1.696 0 00-.92-.241c-.38 0-.71.094-1 .282-.28.185-.5.427-.65.727-.15.297-.23.62-.23.968v.796c0 .466.08.863.25 1.191.16.327.4.577.69.75.3.169.65.254 1.04.254.26 0 .5-.036.71-.109.21-.076.39-.188.55-.336.15-.149.27-.332.35-.55l1.29.232c-.1.378-.29.71-.56.995-.26.282-.59.502-.99.659-.4.155-.85.232-1.36.232zm4.5-.141v-6.982h1.31v1.137h.08c.15-.385.39-.685.72-.9.33-.219.72-.328 1.18-.328.47 0 .86.109 1.18.328.32.218.55.518.7.9h.07c.17-.373.44-.67.8-.891.36-.225.8-.337 1.3-.337.63 0 1.15.199 1.55.596.4.397.6.995.6 1.795v4.682h-1.35v-4.555c0-.472-.13-.815-.39-1.027a1.417 1.417 0 00-.92-.318c-.45 0-.79.136-1.04.409-.24.27-.36.617-.36 1.041v4.45h-1.36v-4.641c0-.379-.12-.683-.35-.914-.24-.23-.55-.345-.93-.345-.25 0-.49.068-.71.205-.21.133-.39.319-.52.559-.13.239-.2.516-.2.831v4.305h-1.36zm14.33.141c-.69 0-1.29-.147-1.78-.441-.5-.297-.88-.714-1.15-1.25-.26-.539-.4-1.171-.4-1.895 0-.716.14-1.346.4-1.891.27-.546.65-.972 1.13-1.278.48-.306 1.05-.459 1.7-.459.39 0 .78.065 1.15.196.36.13.7.335.99.613.29.279.53.641.7 1.087.17.442.25.98.25 1.613v.482h-5.55V456.4h4.22c0-.358-.07-.674-.22-.95a1.63 1.63 0 00-.61-.659 1.72 1.72 0 00-.92-.241c-.38 0-.72.094-1 .282-.28.185-.5.427-.66.727-.15.297-.22.62-.22.968v.796c0 .466.08.863.24 1.191.17.327.4.577.7.75.29.169.64.254 1.04.254.26 0 .49-.036.7-.109.22-.076.4-.188.55-.336.16-.149.28-.332.36-.55l1.28.232c-.1.378-.28.71-.55.995-.26.282-.6.502-1 .659-.39.155-.85.232-1.35.232zm5.86-4.286v4.145h-1.36v-6.982h1.3v1.137h.09c.16-.37.41-.667.75-.891.35-.225.78-.337 1.31-.337.47 0 .89.1 1.25.3.36.197.63.491.83.882.2.391.3.874.3 1.45v4.441h-1.36v-4.277c0-.506-.13-.902-.4-1.187-.26-.288-.62-.431-1.08-.431-.32 0-.6.068-.85.204a1.45 1.45 0 00-.57.6c-.14.261-.21.576-.21.946zm9.55-2.837v1.091h-3.82v-1.091h3.82zm-2.79-1.673h1.36v6.605c0 .264.04.462.11.595.08.131.18.22.31.269.13.045.26.068.41.068.11 0 .21-.008.29-.023l.19-.036.25 1.122c-.08.031-.2.061-.34.091-.15.034-.33.052-.55.055-.35.006-.69-.058-1-.191a1.701 1.701 0 01-.75-.618c-.19-.279-.28-.629-.28-1.05v-6.887z" fill="#8398B5"/></svg>