<svg width="720" height="497" viewBox="0 0 720 497" fill="none" xmlns="http://www.w3.org/2000/svg"><path fill="#EDF2F6" d="M4.192 386.222h661.675v1.798H4.192z"/><path d="M471.531 483.023v-2.486l8.8-13.901h1.959v3.659h-1.243l-6.294 9.964v.159h12.061v2.605h-15.283zm9.655 3.977v-4.733l.02-1.133v-14.498h2.913V487h-2.933zm12.235-2.784l-.149 1.084a17.344 17.344 0 01-.507 2.486 38.448 38.448 0 01-.726 2.416 67.115 67.115 0 01-.606 1.77h-2.108c.086-.411.205-.968.358-1.671a50.77 50.77 0 00.447-2.337c.146-.861.255-1.74.328-2.634l.1-1.114h2.863zm10.552 3.062c-1.246 0-2.366-.238-3.36-.716-.988-.483-1.777-1.146-2.367-1.988-.59-.842-.905-1.803-.945-2.884h2.983c.073.875.461 1.595 1.164 2.158.702.563 1.544.845 2.525.845.783 0 1.475-.179 2.078-.537a3.844 3.844 0 001.432-1.501c.352-.637.527-1.362.527-2.178 0-.828-.179-1.567-.537-2.217a3.956 3.956 0 00-1.481-1.531c-.623-.372-1.339-.56-2.148-.567-.616 0-1.236.106-1.859.318-.623.212-1.127.491-1.512.835l-2.814-.417 1.144-10.262h11.196v2.635h-8.641l-.646 5.698h.119c.398-.385.925-.706 1.581-.965a5.815 5.815 0 012.128-.388c1.24 0 2.343.295 3.311.885a6.29 6.29 0 012.297 2.417c.564 1.014.842 2.18.835 3.5.007 1.319-.291 2.495-.895 3.529a6.468 6.468 0 01-2.485 2.446c-1.054.59-2.264.885-3.63.885zm17.732.06c-1.571-.007-2.914-.421-4.027-1.243-1.114-.822-1.966-2.018-2.556-3.589-.59-1.571-.885-3.464-.885-5.678 0-2.207.295-4.093.885-5.658.597-1.564 1.452-2.757 2.566-3.579 1.12-.822 2.459-1.233 4.017-1.233 1.557 0 2.893.414 4.007 1.243 1.113.822 1.965 2.015 2.555 3.579.597 1.558.895 3.441.895 5.648 0 2.221-.295 4.117-.885 5.688-.59 1.564-1.442 2.761-2.555 3.589-1.114.822-2.453 1.233-4.017 1.233zm0-2.655c1.378 0 2.456-.673 3.231-2.018.782-1.346 1.173-3.291 1.173-5.837 0-1.69-.179-3.119-.537-4.285-.351-1.174-.858-2.062-1.521-2.665a3.327 3.327 0 00-2.346-.915c-1.373 0-2.45.676-3.232 2.028-.782 1.353-1.177 3.298-1.183 5.837 0 1.697.175 3.132.527 4.306.358 1.166.865 2.051 1.521 2.654.656.597 1.445.895 2.367.895zm10.557-1.66v-2.486l8.799-13.901h1.959v3.659h-1.243l-6.294 9.964v.159h12.061v2.605h-15.282zm9.655 3.977v-4.733l.019-1.133v-14.498h2.914V487h-2.933z" fill="#222B45"/><path d="M479.659 427.909c-.102-.864-.517-1.534-1.244-2.011-.727-.478-1.62-.716-2.676-.716-.773 0-1.449.125-2.029.375-.574.25-1.022.594-1.346 1.031a2.47 2.47 0 00-.478 1.492c0 .465.111.866.333 1.201.227.33.517.605.869.827.352.216.722.395 1.108.537.386.136.742.247 1.065.332l1.773.478c.455.119.96.284 1.517.494.563.21 1.1.497 1.611.861.517.358.943.818 1.278 1.38.336.563.503 1.253.503 2.071 0 .944-.247 1.796-.741 2.557-.489.762-1.205 1.367-2.148 1.816-.938.448-2.077.673-3.418.673-1.25 0-2.332-.202-3.247-.605-.909-.404-1.625-.966-2.148-1.688-.517-.721-.809-1.559-.877-2.514h2.181c.057.659.279 1.205.665 1.636.392.426.887.745 1.483.955.602.204 1.25.307 1.943.307.807 0 1.532-.131 2.174-.392.642-.267 1.15-.637 1.525-1.108a2.628 2.628 0 00.563-1.671c0-.579-.162-1.051-.486-1.415-.324-.363-.75-.659-1.278-.886-.529-.227-1.1-.426-1.714-.596l-2.147-.614c-1.364-.392-2.443-.952-3.239-1.679-.795-.727-1.193-1.679-1.193-2.855 0-.977.264-1.83.793-2.557.534-.733 1.25-1.301 2.147-1.705.904-.409 1.912-.613 3.026-.613 1.125 0 2.125.202 3 .605.875.398 1.568.943 2.079 1.636.517.693.79 1.48.819 2.361h-2.046zm7.498 5.216V441h-2.011v-17.455h2.011v6.41h.17a3.692 3.692 0 011.381-1.611c.619-.404 1.443-.605 2.472-.605.892 0 1.673.179 2.343.537.671.352 1.191.894 1.56 1.627.375.728.563 1.654.563 2.779V441h-2.012v-8.182c0-1.04-.27-1.844-.809-2.412-.535-.574-1.276-.861-2.225-.861-.659 0-1.25.14-1.773.418a3.05 3.05 0 00-1.227 1.219c-.295.534-.443 1.182-.443 1.943zm16.021 8.182c-.83 0-1.583-.156-2.259-.469a3.882 3.882 0 01-1.611-1.372c-.397-.602-.596-1.33-.596-2.182 0-.75.147-1.358.443-1.824a3.13 3.13 0 011.184-1.108 6.21 6.21 0 011.637-.596 19.495 19.495 0 011.815-.324 83.226 83.226 0 011.935-.23c.5-.057.863-.151 1.091-.282.233-.13.349-.358.349-.681v-.069c0-.84-.23-1.494-.69-1.96-.455-.466-1.145-.699-2.071-.699-.96 0-1.713.211-2.259.631-.545.42-.929.869-1.15 1.347l-1.909-.682c.341-.796.795-1.415 1.363-1.858a5.11 5.11 0 011.875-.938 7.825 7.825 0 012.012-.272 8 8 0 011.449.153 4.636 4.636 0 011.593.605c.517.307.946.77 1.287 1.389.341.62.512 1.449.512 2.489V441h-2.012v-1.773h-.102c-.136.284-.364.588-.682.912-.318.324-.741.6-1.27.827-.528.227-1.173.341-1.934.341zm.306-1.807c.796 0 1.466-.156 2.012-.469.551-.312.966-.716 1.244-1.21a3.084 3.084 0 00.426-1.56v-1.841c-.085.103-.273.196-.562.282a9.77 9.77 0 01-.989.213c-.369.057-.73.108-1.082.153-.347.04-.628.074-.844.102a7.705 7.705 0 00-1.466.333c-.449.148-.812.372-1.091.673-.273.296-.409.699-.409 1.21 0 .699.259 1.228.776 1.586.522.352 1.184.528 1.985.528zm9.365 1.5v-13.091h1.943v1.977h.136c.239-.647.671-1.173 1.296-1.576a3.806 3.806 0 012.113-.605c.148 0 .333.002.554.008.222.006.39.014.503.026v2.045a5.834 5.834 0 00-.469-.077 4.689 4.689 0 00-.758-.059c-.636 0-1.205.133-1.705.4a3.03 3.03 0 00-1.176 1.091 2.94 2.94 0 00-.426 1.577V441h-2.011zm14.02.273c-1.262 0-2.35-.279-3.265-.835-.909-.563-1.61-1.347-2.105-2.353-.488-1.011-.733-2.187-.733-3.528 0-1.341.245-2.523.733-3.546.495-1.028 1.182-1.829 2.063-2.403.886-.58 1.92-.869 3.102-.869.682 0 1.355.113 2.02.341.665.227 1.27.596 1.815 1.108.546.505.98 1.176 1.304 2.011.324.835.486 1.863.486 3.085v.852h-10.091v-1.738h8.046c0-.739-.148-1.398-.444-1.978a3.34 3.34 0 00-1.244-1.372c-.534-.335-1.165-.503-1.892-.503-.801 0-1.494.199-2.079.597a3.924 3.924 0 00-1.339 1.534 4.515 4.515 0 00-.468 2.029v1.159c0 .988.17 1.826.511 2.514.347.682.827 1.202 1.44 1.56.614.352 1.327.528 2.14.528.528 0 1.005-.074 1.431-.222.432-.153.804-.38 1.117-.682.312-.306.554-.687.724-1.142l1.944.546a4.317 4.317 0 01-1.032 1.739 5.033 5.033 0 01-1.79 1.159c-.71.272-1.508.409-2.394.409zm17.752-10.432l-1.806.511a3.402 3.402 0 00-.503-.878 2.444 2.444 0 00-.887-.715c-.375-.188-.855-.282-1.44-.282-.801 0-1.469.185-2.003.554-.528.364-.792.827-.792 1.389 0 .5.181.895.545 1.185.364.29.932.531 1.705.725l1.943.477c1.17.284 2.042.719 2.616 1.304.574.579.861 1.326.861 2.241 0 .75-.216 1.421-.648 2.012-.426.591-1.022 1.056-1.789 1.397-.767.341-1.66.512-2.677.512-1.335 0-2.44-.29-3.315-.87-.875-.579-1.429-1.426-1.662-2.539l1.909-.478c.182.705.526 1.233 1.032 1.586.511.352 1.178.528 2.002.528.938 0 1.682-.199 2.233-.597.557-.403.836-.886.836-1.448 0-.455-.16-.836-.478-1.143-.318-.312-.807-.545-1.466-.698l-2.181-.512c-1.199-.284-2.08-.724-2.643-1.321-.556-.602-.835-1.355-.835-2.258 0-.739.208-1.392.622-1.961.421-.568.992-1.014 1.713-1.338.728-.323 1.552-.485 2.472-.485 1.296 0 2.313.284 3.051.852.745.568 1.273 1.318 1.585 2.25z" fill="#96A5B8"/><path d="M412 432h39.473" stroke="#05C283" stroke-width="6" stroke-linecap="round"/><ellipse cx="431.737" cy="432" rx="9.349" ry="9" fill="#07E098"/><path d="M637.959 487v-2.227l6.89-7.139a37.818 37.818 0 001.82-2.039c.484-.59.845-1.15 1.084-1.68a4.086 4.086 0 00.358-1.691c0-.676-.159-1.259-.477-1.75a3.126 3.126 0 00-1.303-1.143c-.55-.272-1.17-.408-1.859-.408-.73 0-1.366.149-1.91.448a3.06 3.06 0 00-1.252 1.263c-.292.543-.438 1.179-.438 1.909h-2.933c0-1.24.285-2.324.855-3.252a5.8 5.8 0 012.347-2.157c.994-.518 2.124-.776 3.39-.776 1.28 0 2.407.255 3.381.766.981.503 1.747 1.193 2.297 2.068.55.868.825 1.849.825 2.943 0 .756-.142 1.495-.427 2.217-.279.723-.766 1.528-1.462 2.416-.696.882-1.664 1.953-2.904 3.212l-4.046 4.236v.149h9.167V487h-13.403zm24.281.278a8.215 8.215 0 01-2.685-.497c-.875-.318-1.67-.848-2.386-1.591-.716-.742-1.289-1.74-1.72-2.993-.424-1.252-.637-2.817-.637-4.693 0-1.776.176-3.354.527-4.733.358-1.378.872-2.542 1.542-3.49.669-.954 1.478-1.68 2.426-2.177.948-.497 2.012-.746 3.192-.746 1.213 0 2.29.239 3.231.716a6.07 6.07 0 012.287 1.979c.59.841.965 1.799 1.124 2.873h-3.033c-.206-.848-.613-1.541-1.223-2.078-.61-.537-1.405-.805-2.386-.805-1.492 0-2.655.649-3.49 1.948-.829 1.3-1.247 3.106-1.253 5.42h.149a5.517 5.517 0 011.292-1.472 5.778 5.778 0 011.731-.945 6.096 6.096 0 012.028-.338c1.18 0 2.247.289 3.202.865a6.309 6.309 0 012.297 2.367c.57 1.007.855 2.161.855 3.46s-.295 2.476-.885 3.53a6.501 6.501 0 01-2.466 2.506c-1.061.609-2.3.908-3.719.894zm-.01-2.585c.782 0 1.482-.192 2.098-.577a4.152 4.152 0 001.462-1.551c.358-.649.537-1.375.537-2.177a4.39 4.39 0 00-.527-2.138 3.981 3.981 0 00-1.432-1.531c-.603-.378-1.293-.567-2.068-.567a3.98 3.98 0 00-1.641.338 4.15 4.15 0 00-1.312.935 4.52 4.52 0 00-.895 1.372 4.183 4.183 0 00-.318 1.621 4.322 4.322 0 001.988 3.689c.623.391 1.326.586 2.108.586z" fill="#222B45"/><path d="M643.534 427.909v1.705h-6.784v-1.705h6.784zm-4.807-3.136h2.012v12.477c0 .568.082.994.247 1.278.17.279.386.466.648.563.267.091.548.136.843.136.222 0 .404-.011.546-.034l.341-.068.409 1.807a4.14 4.14 0 01-.571.153 4.2 4.2 0 01-.929.085 4.058 4.058 0 01-1.671-.366 3.318 3.318 0 01-1.346-1.116c-.353-.5-.529-1.131-.529-1.893v-13.022zM649.526 441l-3.989-13.091h2.114l2.829 10.023h.136l2.796-10.023h2.148l2.761 9.989h.136l2.83-9.989h2.114L659.412 441h-1.977l-2.864-10.057h-.205L651.503 441h-1.977zm21.577.273c-1.261 0-2.349-.279-3.264-.835-.909-.563-1.611-1.347-2.105-2.353-.489-1.011-.733-2.187-.733-3.528 0-1.341.244-2.523.733-3.546.494-1.028 1.181-1.829 2.062-2.403.887-.58 1.921-.869 3.102-.869.682 0 1.356.113 2.02.341.665.227 1.27.596 1.816 1.108.545.505.98 1.176 1.304 2.011.324.835.485 1.863.485 3.085v.852h-10.09v-1.738h8.045c0-.739-.148-1.398-.443-1.978a3.349 3.349 0 00-1.245-1.372c-.534-.335-1.164-.503-1.892-.503-.801 0-1.494.199-2.079.597a3.914 3.914 0 00-1.338 1.534 4.503 4.503 0 00-.469 2.029v1.159c0 .988.171 1.826.511 2.514.347.682.827 1.202 1.441 1.56.613.352 1.326.528 2.139.528.528 0 1.006-.074 1.432-.222a3.04 3.04 0 001.116-.682c.313-.306.554-.687.725-1.142l1.943.546a4.314 4.314 0 01-1.031 1.739c-.483.494-1.08.88-1.79 1.159-.71.272-1.509.409-2.395.409zm13.969 0c-1.262 0-2.35-.279-3.264-.835-.91-.563-1.611-1.347-2.106-2.353-.488-1.011-.733-2.187-.733-3.528 0-1.341.245-2.523.733-3.546.495-1.028 1.182-1.829 2.063-2.403.886-.58 1.92-.869 3.102-.869.682 0 1.355.113 2.02.341.665.227 1.27.596 1.815 1.108.546.505.981 1.176 1.304 2.011.324.835.486 1.863.486 3.085v.852h-10.091v-1.738h8.046c0-.739-.148-1.398-.443-1.978a3.349 3.349 0 00-1.245-1.372c-.534-.335-1.165-.503-1.892-.503-.801 0-1.494.199-2.079.597a3.914 3.914 0 00-1.338 1.534 4.503 4.503 0 00-.469 2.029v1.159c0 .988.17 1.826.511 2.514.347.682.827 1.202 1.441 1.56.613.352 1.326.528 2.139.528.528 0 1.005-.074 1.432-.222.431-.153.804-.38 1.116-.682.313-.306.554-.687.724-1.142l1.944.546a4.317 4.317 0 01-1.032 1.739 5.038 5.038 0 01-1.789 1.159c-.711.272-1.509.409-2.395.409zm14.173-13.364v1.705h-6.784v-1.705h6.784zm-4.807-3.136h2.012v12.477c0 .568.082.994.247 1.278.17.279.386.466.647.563.268.091.549.136.844.136.222 0 .404-.011.546-.034l.341-.068.409 1.807a4.14 4.14 0 01-.571.153 4.2 4.2 0 01-.929.085 4.054 4.054 0 01-1.671-.366 3.312 3.312 0 01-1.346-1.116c-.353-.5-.529-1.131-.529-1.893v-13.022zm16.871 6.068l-1.807.511a3.373 3.373 0 00-.503-.878 2.44 2.44 0 00-.886-.715c-.375-.188-.855-.282-1.44-.282-.802 0-1.469.185-2.003.554-.529.364-.793.827-.793 1.389 0 .5.182.895.546 1.185.363.29.931.531 1.704.725l1.943.477c1.171.284 2.043.719 2.617 1.304.574.579.861 1.326.861 2.241 0 .75-.216 1.421-.648 2.012-.426.591-1.023 1.056-1.79 1.397-.767.341-1.659.512-2.676.512-1.335 0-2.44-.29-3.315-.87-.875-.579-1.429-1.426-1.662-2.539l1.909-.478c.182.705.525 1.233 1.031 1.586.511.352 1.179.528 2.003.528.937 0 1.682-.199 2.233-.597.557-.403.835-.886.835-1.448 0-.455-.159-.836-.477-1.143-.318-.312-.807-.545-1.466-.698l-2.182-.512c-1.199-.284-2.08-.724-2.642-1.321-.557-.602-.835-1.355-.835-2.258 0-.739.207-1.392.622-1.961.42-.568.991-1.014 1.713-1.338.727-.323 1.551-.485 2.472-.485 1.295 0 2.312.284 3.051.852.744.568 1.272 1.318 1.585 2.25z" fill="#96A5B8"/><path d="M580 432h39.473" stroke="#BF83FF" stroke-width="6" stroke-linecap="round"/><ellipse cx="599.736" cy="432" rx="9.349" ry="9" fill="#BF83FF"/><path d="M106.048 487.278c-1.365 0-2.585-.235-3.659-.706-1.067-.47-1.912-1.123-2.535-1.958-.617-.842-.948-1.817-.995-2.924h3.123a2.68 2.68 0 00.606 1.571c.371.438.855.776 1.452 1.015a5.318 5.318 0 001.988.358c.802 0 1.512-.14 2.128-.418.623-.279 1.111-.666 1.462-1.163.351-.504.527-1.084.527-1.741 0-.682-.176-1.282-.527-1.799-.345-.524-.852-.935-1.521-1.233-.663-.298-1.465-.448-2.407-.448h-1.72v-2.505h1.72c.756 0 1.419-.136 1.989-.408.577-.272 1.027-.65 1.352-1.133.325-.491.487-1.064.487-1.721 0-.629-.142-1.176-.427-1.64a2.867 2.867 0 00-1.193-1.104c-.511-.265-1.114-.398-1.81-.398-.663 0-1.283.123-1.859.368a3.443 3.443 0 00-1.392 1.034c-.358.444-.551.978-.577 1.601h-2.973c.033-1.1.358-2.068.974-2.903.623-.836 1.445-1.488 2.466-1.959 1.021-.471 2.155-.706 3.401-.706 1.306 0 2.433.255 3.381.766.954.503 1.69 1.176 2.207 2.018a5.06 5.06 0 01.775 2.764c.007 1.14-.311 2.108-.954 2.904-.636.795-1.485 1.329-2.546 1.601v.159c1.353.205 2.4.742 3.143 1.61.749.869 1.12 1.946 1.113 3.232.007 1.12-.305 2.124-.935 3.013-.623.888-1.474 1.587-2.555 2.098-1.08.504-2.317.755-3.709.755zm14.264-3.062l-.149 1.084c-.1.795-.269 1.624-.507 2.486a38.448 38.448 0 01-.726 2.416 70.372 70.372 0 01-.607 1.77h-2.108c.086-.411.206-.968.358-1.671.153-.696.302-1.475.448-2.337.145-.861.255-1.74.328-2.634l.099-1.114h2.864zm10.53 3.062a8.21 8.21 0 01-2.685-.497c-.875-.318-1.67-.848-2.386-1.591-.716-.742-1.29-1.74-1.721-2.993-.424-1.252-.636-2.817-.636-4.693 0-1.776.176-3.354.527-4.733.358-1.378.872-2.542 1.541-3.49.67-.954 1.478-1.68 2.426-2.177.948-.497 2.012-.746 3.192-.746 1.213 0 2.29.239 3.232.716a6.078 6.078 0 012.287 1.979c.59.841.964 1.799 1.123 2.873h-3.032c-.206-.848-.614-1.541-1.223-2.078-.61-.537-1.406-.805-2.387-.805-1.491 0-2.655.649-3.49 1.948-.829 1.3-1.246 3.106-1.253 5.42h.149a5.538 5.538 0 011.293-1.472 5.785 5.785 0 011.73-.945 6.097 6.097 0 012.029-.338c1.179 0 2.247.289 3.201.865a6.301 6.301 0 012.297 2.367c.57 1.007.855 2.161.855 3.46s-.295 2.476-.885 3.53a6.488 6.488 0 01-2.466 2.506c-1.06.609-2.3.908-3.718.894zm-.01-2.585c.782 0 1.481-.192 2.098-.577a4.157 4.157 0 001.461-1.551c.358-.649.537-1.375.537-2.177 0-.782-.175-1.495-.527-2.138a3.974 3.974 0 00-1.432-1.531c-.603-.378-1.292-.567-2.068-.567-.59 0-1.137.113-1.64.338a4.153 4.153 0 00-1.313.935 4.538 4.538 0 00-.895 1.372 4.183 4.183 0 00-.318 1.621 4.325 4.325 0 001.989 3.689c.623.391 1.325.586 2.108.586zm17.791 2.645c-1.572-.007-2.914-.421-4.027-1.243-1.114-.822-1.966-2.018-2.556-3.589-.59-1.571-.885-3.464-.885-5.678 0-2.207.295-4.093.885-5.658.597-1.564 1.452-2.757 2.565-3.579 1.121-.822 2.46-1.233 4.018-1.233 1.557 0 2.893.414 4.007 1.243 1.113.822 1.965 2.015 2.555 3.579.597 1.558.895 3.441.895 5.648 0 2.221-.295 4.117-.885 5.688-.59 1.564-1.442 2.761-2.555 3.589-1.114.822-2.453 1.233-4.017 1.233zm0-2.655c1.378 0 2.455-.673 3.231-2.018.782-1.346 1.173-3.291 1.173-5.837 0-1.69-.179-3.119-.537-4.285-.351-1.174-.858-2.062-1.521-2.665a3.327 3.327 0 00-2.346-.915c-1.373 0-2.45.676-3.232 2.028-.782 1.353-1.177 3.298-1.183 5.837 0 1.697.175 3.132.527 4.306.358 1.166.865 2.051 1.521 2.654.656.597 1.445.895 2.367.895zm10.557-1.66v-2.486l8.799-13.901h1.959v3.659h-1.243l-6.294 9.964v.159h12.061v2.605H159.18zm9.655 3.977v-4.733l.019-1.133v-14.498h2.914V487h-2.933z" fill="#222B45"/><path d="M99.114 441v-17.455h2.113v15.58h8.114V441H99.114zm13.227 0v-13.091h2.011V441h-2.011zm1.023-15.273c-.392 0-.73-.133-1.015-.4a1.288 1.288 0 01-.417-.963c0-.375.139-.696.417-.963a1.434 1.434 0 011.015-.401 1.4 1.4 0 011.005.401c.284.267.426.588.426.963s-.142.696-.426.963c-.278.267-.613.4-1.005.4zm6.547 10.5l-.034-2.488h.409l5.727-5.83h2.489l-6.102 6.171h-.171l-2.318 2.147zM118.036 441v-17.455h2.012V441h-2.012zm8.318 0l-5.113-6.477 1.432-1.398 6.238 7.875h-2.557zm9.686.273c-1.261 0-2.349-.279-3.264-.835-.909-.563-1.611-1.347-2.105-2.353-.488-1.011-.733-2.187-.733-3.528 0-1.341.245-2.523.733-3.546.494-1.028 1.182-1.829 2.063-2.403.886-.58 1.92-.869 3.102-.869.682 0 1.355.113 2.02.341.665.227 1.27.596 1.815 1.108.546.505.98 1.176 1.304 2.011.324.835.486 1.863.486 3.085v.852H131.37v-1.738h8.045c0-.739-.147-1.398-.443-1.978a3.34 3.34 0 00-1.244-1.372c-.534-.335-1.165-.503-1.892-.503-.801 0-1.494.199-2.08.597a3.93 3.93 0 00-1.338 1.534 4.515 4.515 0 00-.468 2.029v1.159c0 .988.17 1.826.511 2.514.347.682.827 1.202 1.44 1.56.614.352 1.327.528 2.139.528.529 0 1.006-.074 1.432-.222.432-.153.804-.38 1.117-.682.312-.306.554-.687.724-1.142l1.943.546a4.303 4.303 0 01-1.031 1.739 5.033 5.033 0 01-1.79 1.159c-.71.272-1.508.409-2.395.409zm17.753-10.432l-1.806.511a3.402 3.402 0 00-.503-.878 2.444 2.444 0 00-.887-.715c-.375-.188-.855-.282-1.44-.282-.801 0-1.469.185-2.003.554-.528.364-.792.827-.792 1.389 0 .5.181.895.545 1.185.364.29.932.531 1.705.725l1.943.477c1.17.284 2.042.719 2.616 1.304.574.579.861 1.326.861 2.241 0 .75-.216 1.421-.648 2.012-.426.591-1.022 1.056-1.79 1.397-.767.341-1.659.512-2.676.512-1.335 0-2.44-.29-3.315-.87-.875-.579-1.429-1.426-1.662-2.539l1.909-.478c.182.705.526 1.233 1.031 1.586.512.352 1.179.528 2.003.528.938 0 1.682-.199 2.233-.597.557-.403.835-.886.835-1.448 0-.455-.159-.836-.477-1.143-.318-.312-.807-.545-1.466-.698l-2.182-.512c-1.198-.284-2.079-.724-2.642-1.321-.556-.602-.835-1.355-.835-2.258 0-.739.208-1.392.622-1.961.421-.568.992-1.014 1.713-1.338.728-.323 1.552-.485 2.472-.485 1.295 0 2.312.284 3.051.852.744.568 1.273 1.318 1.585 2.25z" fill="#96A5B8"/><path d="M41 433h39.473" stroke="#0080DA" stroke-width="6" stroke-linecap="round"/><ellipse cx="60.736" cy="433" rx="9.349" ry="9" fill="#0095FF"/><path d="M270.048 487.278c-1.365 0-2.585-.235-3.659-.706-1.067-.47-1.912-1.123-2.535-1.958-.617-.842-.948-1.817-.995-2.924h3.123a2.68 2.68 0 00.606 1.571c.371.438.855.776 1.452 1.015a5.318 5.318 0 001.988.358c.802 0 1.512-.14 2.128-.418.623-.279 1.111-.666 1.462-1.163.351-.504.527-1.084.527-1.741 0-.682-.176-1.282-.527-1.799-.345-.524-.852-.935-1.521-1.233-.663-.298-1.465-.448-2.407-.448h-1.72v-2.505h1.72c.756 0 1.419-.136 1.989-.408.577-.272 1.027-.65 1.352-1.133.325-.491.487-1.064.487-1.721 0-.629-.142-1.176-.427-1.64a2.867 2.867 0 00-1.193-1.104c-.511-.265-1.114-.398-1.81-.398-.663 0-1.283.123-1.859.368a3.443 3.443 0 00-1.392 1.034c-.358.444-.551.978-.577 1.601h-2.973c.033-1.1.358-2.068.974-2.903.623-.836 1.445-1.488 2.466-1.959 1.021-.471 2.155-.706 3.401-.706 1.306 0 2.433.255 3.381.766.954.503 1.69 1.176 2.207 2.018a5.06 5.06 0 01.775 2.764c.007 1.14-.311 2.108-.954 2.904-.636.795-1.485 1.329-2.546 1.601v.159c1.353.205 2.4.742 3.143 1.61.749.869 1.12 1.946 1.113 3.232.007 1.12-.305 2.124-.935 3.013-.623.888-1.474 1.587-2.555 2.098-1.08.504-2.317.755-3.709.755zm14.264-3.062l-.149 1.084c-.1.795-.269 1.624-.507 2.486a38.448 38.448 0 01-.726 2.416 70.372 70.372 0 01-.607 1.77h-2.108c.086-.411.206-.968.358-1.671.153-.696.302-1.475.448-2.337.145-.861.255-1.74.328-2.634l.099-1.114h2.864zm10.51 3.122c-1.571-.007-2.914-.421-4.027-1.243-1.114-.822-1.966-2.018-2.556-3.589-.59-1.571-.885-3.464-.885-5.678 0-2.207.295-4.093.885-5.658.597-1.564 1.452-2.757 2.566-3.579 1.12-.822 2.459-1.233 4.017-1.233 1.557 0 2.893.414 4.007 1.243 1.113.822 1.965 2.015 2.555 3.579.597 1.558.895 3.441.895 5.648 0 2.221-.295 4.117-.885 5.688-.59 1.564-1.442 2.761-2.555 3.589-1.114.822-2.453 1.233-4.017 1.233zm0-2.655c1.379 0 2.456-.673 3.231-2.018.782-1.346 1.174-3.291 1.174-5.837 0-1.69-.179-3.119-.537-4.285-.352-1.174-.859-2.062-1.522-2.665a3.327 3.327 0 00-2.346-.915c-1.372 0-2.45.676-3.232 2.028-.782 1.353-1.176 3.298-1.183 5.837 0 1.697.176 3.132.527 4.306.358 1.166.865 2.051 1.521 2.654.657.597 1.445.895 2.367.895zm18.074 2.655c-1.571-.007-2.913-.421-4.027-1.243-1.114-.822-1.965-2.018-2.555-3.589-.59-1.571-.885-3.464-.885-5.678 0-2.207.295-4.093.885-5.658.596-1.564 1.451-2.757 2.565-3.579 1.12-.822 2.459-1.233 4.017-1.233 1.558 0 2.893.414 4.007 1.243 1.114.822 1.965 2.015 2.555 3.579.597 1.558.895 3.441.895 5.648 0 2.221-.295 4.117-.885 5.688-.59 1.564-1.441 2.761-2.555 3.589-1.114.822-2.453 1.233-4.017 1.233zm0-2.655c1.379 0 2.456-.673 3.231-2.018.783-1.346 1.174-3.291 1.174-5.837 0-1.69-.179-3.119-.537-4.285-.351-1.174-.859-2.062-1.521-2.665a3.33 3.33 0 00-2.347-.915c-1.372 0-2.449.676-3.232 2.028-.782 1.353-1.176 3.298-1.183 5.837 0 1.697.176 3.132.527 4.306.358 1.166.865 2.051 1.521 2.654.657.597 1.446.895 2.367.895zm10.557-1.66v-2.486l8.8-13.901h1.959v3.659h-1.243l-6.294 9.964v.159h12.061v2.605h-15.283zm9.655 3.977v-4.733l.02-1.133v-14.498h2.913V487h-2.933z" fill="#222B45"/><path d="M277.159 429h-2.114a4.382 4.382 0 00-.656-1.602 4.371 4.371 0 00-1.125-1.159 4.748 4.748 0 00-1.457-.716 5.825 5.825 0 00-1.671-.239c-1.056 0-2.014.267-2.872.801-.852.534-1.531 1.321-2.037 2.361-.5 1.04-.75 2.315-.75 3.827 0 1.511.25 2.787.75 3.826.506 1.04 1.185 1.827 2.037 2.361.858.534 1.816.801 2.872.801.58 0 1.137-.079 1.671-.238a4.869 4.869 0 001.457-.708 4.467 4.467 0 001.781-2.77h2.114a7.045 7.045 0 01-.869 2.395 6.56 6.56 0 01-1.568 1.799 6.885 6.885 0 01-2.106 1.116 7.832 7.832 0 01-2.48.384c-1.488 0-2.812-.364-3.971-1.091-1.159-.728-2.071-1.762-2.736-3.103-.665-1.34-.997-2.931-.997-4.772 0-1.841.332-3.432.997-4.773.665-1.341 1.577-2.375 2.736-3.102 1.159-.728 2.483-1.091 3.971-1.091a7.86 7.86 0 012.48.383 6.78 6.78 0 012.106 1.125 6.45 6.45 0 011.568 1.79c.42.699.71 1.497.869 2.395zm8.461 12.273c-1.182 0-2.219-.282-3.111-.844-.886-.563-1.579-1.349-2.079-2.361-.495-1.011-.742-2.193-.742-3.545 0-1.364.247-2.554.742-3.571.5-1.017 1.193-1.807 2.079-2.37.892-.562 1.929-.843 3.111-.843 1.182 0 2.216.281 3.102.843.892.563 1.586 1.353 2.08 2.37.5 1.017.75 2.207.75 3.571 0 1.352-.25 2.534-.75 3.545-.494 1.012-1.188 1.798-2.08 2.361-.886.562-1.92.844-3.102.844zm0-1.807c.898 0 1.636-.23 2.216-.69.579-.461 1.008-1.066 1.287-1.816.278-.75.417-1.562.417-2.437 0-.875-.139-1.691-.417-2.446-.279-.756-.708-1.367-1.287-1.833-.58-.466-1.318-.699-2.216-.699-.898 0-1.636.233-2.216.699-.579.466-1.008 1.077-1.287 1.833a7.027 7.027 0 00-.417 2.446c0 .875.139 1.687.417 2.437.279.75.708 1.355 1.287 1.816.58.46 1.318.69 2.216.69zm9.002 1.534v-13.091h1.943v2.046h.171a3.289 3.289 0 011.321-1.628c.608-.392 1.338-.588 2.19-.588.864 0 1.583.196 2.156.588.58.386 1.032.929 1.356 1.628h.136a3.805 3.805 0 011.508-1.611c.671-.404 1.475-.605 2.412-.605 1.171 0 2.128.366 2.873 1.099.744.727 1.116 1.861 1.116 3.401V441h-2.011v-8.761c0-.966-.265-1.657-.793-2.071-.528-.415-1.151-.623-1.866-.623-.921 0-1.634.279-2.14.836-.505.551-.758 1.25-.758 2.096V441h-2.046v-8.966c0-.744-.241-1.344-.724-1.798-.483-.46-1.105-.691-1.867-.691-.522 0-1.011.14-1.465.418a3.148 3.148 0 00-1.091 1.159c-.273.489-.409 1.054-.409 1.696V441h-2.012zm20.86 0v-13.091h1.943v2.046h.17a3.289 3.289 0 011.321-1.628c.608-.392 1.338-.588 2.191-.588.863 0 1.582.196 2.156.588.579.386 1.031.929 1.355 1.628h.136a3.801 3.801 0 011.509-1.611c.67-.404 1.474-.605 2.412-.605 1.17 0 2.128.366 2.872 1.099.744.727 1.116 1.861 1.116 3.401V441h-2.011v-8.761c0-.966-.264-1.657-.793-2.071-.528-.415-1.15-.623-1.866-.623-.921 0-1.634.279-2.139.836-.506.551-.759 1.25-.759 2.096V441h-2.045v-8.966c0-.744-.242-1.344-.725-1.798-.483-.46-1.105-.691-1.866-.691a2.76 2.76 0 00-1.466.418 3.148 3.148 0 00-1.091 1.159c-.273.489-.409 1.054-.409 1.696V441h-2.011zm26.348.273c-1.262 0-2.35-.279-3.265-.835-.909-.563-1.61-1.347-2.105-2.353-.488-1.011-.733-2.187-.733-3.528 0-1.341.245-2.523.733-3.546.495-1.028 1.182-1.829 2.063-2.403.886-.58 1.92-.869 3.102-.869.682 0 1.355.113 2.02.341.665.227 1.27.596 1.815 1.108.546.505.98 1.176 1.304 2.011.324.835.486 1.863.486 3.085v.852h-10.091v-1.738h8.046c0-.739-.148-1.398-.444-1.978a3.34 3.34 0 00-1.244-1.372c-.534-.335-1.165-.503-1.892-.503-.801 0-1.494.199-2.08.597a3.93 3.93 0 00-1.338 1.534 4.515 4.515 0 00-.468 2.029v1.159c0 .988.17 1.826.511 2.514.347.682.827 1.202 1.44 1.56.614.352 1.327.528 2.14.528.528 0 1.005-.074 1.431-.222.432-.153.804-.38 1.117-.682.312-.306.554-.687.724-1.142l1.943.546a4.303 4.303 0 01-1.031 1.739 5.033 5.033 0 01-1.79 1.159c-.71.272-1.508.409-2.394.409zm10.491-8.148V441h-2.011v-13.091h1.943v2.046h.17a3.744 3.744 0 011.398-1.603c.625-.409 1.432-.613 2.42-.613.887 0 1.662.181 2.327.545.665.358 1.182.904 1.551 1.636.37.728.554 1.648.554 2.762V441h-2.011v-8.182c0-1.028-.267-1.829-.801-2.403-.534-.58-1.267-.87-2.199-.87-.642 0-1.216.14-1.722.418a2.98 2.98 0 00-1.184 1.219c-.29.534-.435 1.182-.435 1.943zm17.721-5.216v1.705h-6.784v-1.705h6.784zm-4.807-3.136h2.011v12.477c0 .568.083.994.248 1.278.17.279.386.466.647.563a2.6 2.6 0 00.844.136c.222 0 .403-.011.546-.034l.34-.068.41 1.807a4.14 4.14 0 01-.571.153 4.2 4.2 0 01-.929.085 4.054 4.054 0 01-1.671-.366 3.315 3.315 0 01-1.347-1.116c-.352-.5-.528-1.131-.528-1.893v-13.022zm16.871 6.068l-1.807.511a3.373 3.373 0 00-.503-.878 2.44 2.44 0 00-.886-.715c-.375-.188-.855-.282-1.441-.282-.801 0-1.468.185-2.002.554-.529.364-.793.827-.793 1.389 0 .5.182.895.545 1.185.364.29.932.531 1.705.725l1.943.477c1.171.284 2.043.719 2.617 1.304.574.579.86 1.326.86 2.241 0 .75-.215 1.421-.647 2.012-.426.591-1.023 1.056-1.79 1.397-.767.341-1.659.512-2.676.512-1.335 0-2.441-.29-3.316-.87-.875-.579-1.428-1.426-1.661-2.539l1.909-.478c.181.705.525 1.233 1.031 1.586.511.352 1.179.528 2.003.528.937 0 1.682-.199 2.233-.597.557-.403.835-.886.835-1.448 0-.455-.159-.836-.477-1.143-.319-.312-.807-.545-1.466-.698l-2.182-.512c-1.199-.284-2.08-.724-2.642-1.321-.557-.602-.835-1.355-.835-2.258 0-.739.207-1.392.622-1.961.42-.568.991-1.014 1.713-1.338.727-.323 1.551-.485 2.471-.485 1.296 0 2.313.284 3.052.852.744.568 1.272 1.318 1.585 2.25z" fill="#96A5B8"/><path d="M205 432h39.473" stroke="red" stroke-width="6" stroke-linecap="round"/><ellipse cx="224.736" cy="432" rx="9.349" ry="9" fill="red"/><path d="M64.3 87.705c41.527 12.384 75.136 44.323 121.914 44.323 46.779 0 61.834-23.954 91.877-23.954 30.044 0 50.233 47.909 91.877 47.909s71.261-55.894 113.08-55.894c41.818 0 99.625 87.833 139.582 87.833 39.958 0 91.877-135.563 91.877-135.563" stroke="#05C283" stroke-width="3.397" stroke-linecap="round"/><path fill-rule="evenodd" clip-rule="evenodd" d="M64.3 87.705c41.527 12.384 75.136 44.323 121.914 44.323 46.779 0 61.834-23.954 91.877-23.954 30.044 0 50.234 47.909 91.878 47.909 41.643 0 71.261-55.894 113.079-55.894s99.625 87.833 139.582 87.833c39.958 0 91.877-135.563 91.877-135.563V332.98H64.301s-.278-231.853 0-245.275z" fill="url(#paint0_linear_134_98)"/><ellipse cx="713.167" cy="56.086" rx="6.641" ry="6.795" fill="#07E098"/><ellipse cx="623.971" cy="186.732" rx="6.641" ry="6.795" fill="#07E098"/><ellipse cx="484.389" cy="98.899" rx="6.641" ry="6.795" fill="#07E098"/><ellipse cx="371.309" cy="154.793" rx="6.641" ry="6.795" fill="#07E098"/><ellipse cx="279.432" cy="106.884" rx="6.641" ry="6.795" fill="#07E098"/><ellipse cx="187.555" cy="130.838" rx="6.641" ry="6.795" fill="#07E098"/><ellipse cx="65.641" cy="85.591" rx="6.641" ry="6.795" fill="#07E098"/><path d="M59 219.731c27.089 0 85.942-16.044 113.477-39.133 27.535-23.089 74.021 94.551 106.011 94.551h84.362c29.156 0 96.344-31.659 132.141-31.659 35.796 0 73.216 6.214 107.504 6.214 34.288 0 75.427-63.515 107.505-63.515" stroke="#007DD6" stroke-width="3.568" stroke-linecap="round"/><path fill-rule="evenodd" clip-rule="evenodd" d="M57.072 219.93c27.355 0 86.786-15.563 114.591-37.961 27.805-22.397 71.732 91.719 104.036 91.719h90.379c29.443 0 78.193-29.556 114.342-29.556 36.148 0 106.393 11.054 141.139 0 34.747-11.055 60.51-56.74 92.903-56.74-.211 9.738 0 145.064 0 145.064L57.072 331.1s-.144-99.996 0-111.17z" fill="url(#paint1_linear_134_98)"/><ellipse cx="709.934" cy="185.979" rx="6.45" ry="6.922" fill="#0095FF"/><ellipse cx="626.53" cy="242.919" rx="6.45" ry="6.922" fill="#0095FF"/><ellipse cx="490.962" cy="242.919" rx="6.45" ry="6.922" fill="#0095FF"/><ellipse cx="381.136" cy="272.746" rx="6.45" ry="6.922" fill="#0095FF"/><ellipse cx="275.45" cy="271.922" rx="6.45" ry="6.922" fill="#0095FF"/><ellipse cx="180.45" cy="172.922" rx="6.45" ry="6.922" fill="#0095FF"/><ellipse cx="59.26" cy="218.516" rx="6.45" ry="6.922" fill="#0095FF"/><path d="M59.032 252.005c27.287 0 86.572-16.155 114.309-39.405 27.737-23.249 83.392 77.455 115.617 77.455 32.225 0 52.682 30.539 82.052 30.539 29.371 0 20.932-18.863 112.194-44.911 36.06 0 18.42 24.252 73.68 37.725 40.189-28.742 43.538-47.605 155.732-12.575" stroke="#D60000" stroke-width="3.596" stroke-linecap="round"/><path fill-rule="evenodd" clip-rule="evenodd" d="M59.096 249.396c27.193 0 86.275-16.188 113.916-39.486 27.641-23.297 83.059 77.614 115.173 77.614 32.115 0 51.676 32.401 80.945 32.401 29.27 0 74.886-45.355 110.821-45.355 35.936 0 48.565 38.155 77.772 35.455 50.904-54.903 122.691-11.701 154.893-11.701-.21 10.129 0 68.119 0 68.119l-653.52-1.41s-.144-104.014 0-115.637z" fill="url(#paint2_linear_134_98)"/><circle cx="710.628" cy="301.112" r="6.237" fill="red"/><circle cx="617.971" cy="279.73" r="6.237" fill="red"/><circle cx="468.665" cy="277.241" r="6.237" fill="red"/><circle cx="555.605" cy="311.803" r="6.237" fill="red"/><circle cx="373.569" cy="319.468" r="6.237" fill="red"/><circle cx="183.539" cy="209.237" r="6.237" fill="red"/><circle cx="63.372" cy="252.111" r="6.237" fill="red"/><path d="M58.523 313.477c27.207 0 86.317-7.817 113.971-19.067 27.655-11.25 83.146 37.478 115.275 37.478 32.13 0 52.526 14.777 81.81 14.777 29.283 0 20.869-9.127 111.862-21.731 35.952 0 18.365 11.735 73.461 18.254 40.07-13.908 43.409-23.034 155.271-6.084" stroke="#BF83FF" stroke-width="3.596" stroke-linecap="round"/><path fill-rule="evenodd" clip-rule="evenodd" d="M58.587 313.489c27.252 0 86.461-7.822 114.162-19.078 27.701-11.256 83.238 37.499 115.421 37.499 32.184 0 51.787 15.654 81.12 15.654 29.332 0 75.047-21.913 111.059-21.913 36.013 0 48.67 18.435 77.94 17.13 51.013-26.526 122.954-5.653 155.226-5.653-.21 4.894 0 32.911 0 32.911l-654.928-.681s-.143-50.254 0-55.869z" fill="url(#paint3_linear_134_98)"/><ellipse cx="706.831" cy="337.675" rx="6.684" ry="7.192" fill="#BF83FF"/><ellipse cx="619.945" cy="326.887" rx="6.684" ry="7.192" fill="#BF83FF"/><ellipse cx="496.298" cy="325.089" rx="6.684" ry="7.192" fill="#BF83FF"/><ellipse cx="553.109" cy="344.867" rx="6.684" ry="7.192" fill="#BF83FF"/><ellipse cx="377.665" cy="346.665" rx="6.684" ry="7.192" fill="#BF83FF"/><ellipse cx="282.424" cy="330.483" rx="6.684" ry="7.192" fill="#BF83FF"/><ellipse cx="177.157" cy="292.724" rx="6.684" ry="7.192" fill="#BF83FF"/><ellipse cx="60.322" cy="310.704" rx="6.684" ry="7.192" fill="#BF83FF"/><path d="M1.205 15v-1.023l3.84-4.204c.451-.493.822-.92 1.114-1.284a4.75 4.75 0 00.648-1.034c.144-.326.216-.667.216-1.023 0-.41-.099-.763-.296-1.063a1.917 1.917 0 00-.795-.693 2.579 2.579 0 00-1.137-.244c-.447 0-.837.093-1.17.278a1.92 1.92 0 00-.767.767c-.178.33-.267.716-.267 1.16H1.25c0-.682.157-1.28.472-1.796a3.277 3.277 0 011.284-1.205c.545-.288 1.157-.431 1.835-.431.682 0 1.286.143 1.812.431.527.288.94.676 1.24 1.165.298.489.448 1.032.448 1.63 0 .429-.078.847-.233 1.256-.152.406-.417.858-.796 1.358-.375.497-.895 1.103-1.562 1.819l-2.614 2.795v.091h5.41V15H1.204zm13.323.16c-.666 0-1.267-.133-1.8-.399a3.346 3.346 0 01-1.285-1.09 2.972 2.972 0 01-.528-1.58h1.363c.053.526.292.962.716 1.307.428.34.94.511 1.534.511a2.42 2.42 0 001.273-.335 2.36 2.36 0 00.88-.92c.217-.395.325-.84.325-1.336 0-.507-.112-.96-.335-1.358a2.46 2.46 0 00-.91-.949 2.569 2.569 0 00-1.323-.352 3.637 3.637 0 00-1.097.165c-.375.11-.684.252-.926.426l-1.318-.16.704-5.726h6.046v1.25h-4.864l-.41 3.431h.069c.239-.189.538-.346.898-.471s.735-.188 1.125-.188c.712 0 1.346.17 1.903.512.56.337 1 .799 1.318 1.386.322.587.483 1.258.483 2.011 0 .743-.166 1.406-.5 1.99a3.655 3.655 0 01-1.363 1.374c-.58.333-1.239.5-1.978.5zm9.894 0c-.856 0-1.585-.234-2.188-.7-.602-.47-1.062-1.15-1.38-2.04-.319-.893-.478-1.973-.478-3.238 0-1.258.16-2.332.478-3.222.322-.894.784-1.576 1.386-2.045.606-.474 1.333-.71 2.182-.71.848 0 1.574.236 2.176.71.606.47 1.068 1.151 1.386 2.045.322.89.483 1.964.483 3.222 0 1.265-.159 2.345-.477 3.239-.318.89-.778 1.57-1.38 2.04-.603.465-1.332.698-2.188.698zm0-1.25c.848 0 1.508-.41 1.977-1.228.47-.818.705-1.985.705-3.5 0-1.008-.108-1.866-.324-2.574-.212-.708-.52-1.248-.92-1.62a2.032 2.032 0 00-1.438-.556c-.841 0-1.498.415-1.972 1.244-.473.826-.71 1.994-.71 3.506 0 1.007.106 1.864.318 2.568.212.704.517 1.24.915 1.608.402.367.885.551 1.449.551zM1.205 104v-1.023l3.84-4.204c.451-.493.822-.92 1.114-1.284.292-.368.508-.713.648-1.035.144-.325.216-.666.216-1.022 0-.41-.099-.763-.296-1.063a1.917 1.917 0 00-.795-.693 2.58 2.58 0 00-1.137-.244c-.447 0-.837.093-1.17.278a1.92 1.92 0 00-.767.767c-.178.33-.267.716-.267 1.16H1.25c0-.683.157-1.28.472-1.796a3.276 3.276 0 011.284-1.205 3.87 3.87 0 011.835-.431c.682 0 1.286.144 1.812.431.527.288.94.677 1.24 1.165.298.489.448 1.032.448 1.63 0 .429-.078.847-.233 1.257-.152.405-.417.858-.796 1.358a24.226 24.226 0 01-1.562 1.818l-2.614 2.795v.091h5.41V104H1.204zm13.482.159c-.856 0-1.585-.233-2.187-.699-.602-.469-1.063-1.149-1.38-2.04-.319-.893-.478-1.973-.478-3.238 0-1.258.16-2.332.477-3.222.322-.894.784-1.575 1.387-2.045.606-.474 1.333-.71 2.181-.71.849 0 1.574.236 2.177.71.606.47 1.068 1.151 1.386 2.045.322.89.483 1.964.483 3.222 0 1.265-.16 2.345-.477 3.238-.319.891-.779 1.571-1.381 2.04-.602.466-1.331.699-2.188.699zm0-1.25c.849 0 1.508-.409 1.978-1.227.47-.818.704-1.985.704-3.5 0-1.008-.108-1.866-.323-2.574-.213-.708-.52-1.248-.921-1.62a2.032 2.032 0 00-1.438-.556c-.84 0-1.498.415-1.971 1.244-.474.826-.71 1.995-.71 3.506 0 1.007.106 1.863.318 2.568.212.705.517 1.241.915 1.608a2.07 2.07 0 001.448.551zm9.841 1.25c-.666 0-1.267-.132-1.8-.398a3.337 3.337 0 01-1.285-1.091 2.97 2.97 0 01-.528-1.579h1.363c.053.526.292.962.716 1.307.428.341.94.511 1.534.511.478 0 .902-.112 1.273-.335.375-.224.669-.53.88-.921a2.72 2.72 0 00.325-1.335c0-.507-.112-.96-.335-1.358a2.46 2.46 0 00-.91-.949 2.569 2.569 0 00-1.323-.352 3.634 3.634 0 00-1.097.165c-.375.11-.684.252-.926.426l-1.318-.16.704-5.726h6.046v1.25h-4.864l-.41 3.431h.069c.239-.189.538-.346.898-.471s.735-.188 1.125-.188c.712 0 1.346.17 1.903.512.56.337 1 .799 1.318 1.386.322.587.483 1.258.483 2.011 0 .743-.166 1.406-.5 1.989a3.65 3.65 0 01-1.363 1.375c-.58.333-1.239.5-1.978.5zM7.295 270.364V282H5.886v-10.159h-.068l-2.84 1.886v-1.432l2.908-1.931h1.41zm7.143 11.795c-.857 0-1.586-.233-2.188-.699-.602-.469-1.063-1.149-1.38-2.04-.319-.893-.478-1.973-.478-3.238 0-1.258.16-2.332.477-3.222.322-.894.784-1.576 1.387-2.045.606-.474 1.333-.71 2.181-.71.849 0 1.574.236 2.177.71.606.469 1.068 1.151 1.386 2.045.322.89.483 1.964.483 3.222 0 1.265-.16 2.345-.477 3.238-.319.891-.779 1.571-1.381 2.04-.602.466-1.331.699-2.188.699zm0-1.25c.848 0 1.507-.409 1.977-1.227.47-.818.704-1.985.704-3.5 0-1.008-.108-1.866-.323-2.574-.213-.708-.52-1.248-.921-1.619a2.029 2.029 0 00-1.438-.557c-.84 0-1.498.415-1.971 1.244-.474.826-.71 1.994-.71 3.506 0 1.007.106 1.863.318 2.568.212.705.517 1.241.915 1.608a2.07 2.07 0 001.448.551zm10 1.25c-.857 0-1.586-.233-2.188-.699-.602-.469-1.063-1.149-1.38-2.04-.319-.893-.478-1.973-.478-3.238 0-1.258.16-2.332.477-3.222.322-.894.784-1.576 1.387-2.045.606-.474 1.333-.71 2.181-.71.849 0 1.574.236 2.177.71.606.469 1.068 1.151 1.386 2.045.322.89.483 1.964.483 3.222 0 1.265-.16 2.345-.477 3.238-.319.891-.779 1.571-1.381 2.04-.602.466-1.331.699-2.188.699zm0-1.25c.848 0 1.507-.409 1.977-1.227.47-.818.704-1.985.704-3.5 0-1.008-.108-1.866-.323-2.574-.213-.708-.52-1.248-.921-1.619a2.029 2.029 0 00-1.438-.557c-.84 0-1.498.415-1.971 1.244-.474.826-.71 1.994-.71 3.506 0 1.007.106 1.863.318 2.568.212.705.517 1.241.915 1.608a2.07 2.07 0 001.448.551zM7.295 181.364V193H5.886v-10.159h-.068l-2.84 1.886v-1.432l2.908-1.931h1.41zm6.983 11.795c-.666 0-1.267-.132-1.8-.398a3.337 3.337 0 01-1.285-1.091 2.97 2.97 0 01-.528-1.579h1.363c.053.526.292.962.716 1.307.428.341.94.511 1.534.511.478 0 .902-.112 1.273-.335.375-.224.669-.53.88-.921a2.72 2.72 0 00.325-1.335c0-.507-.112-.96-.335-1.358a2.464 2.464 0 00-.91-.949 2.571 2.571 0 00-1.323-.352 3.619 3.619 0 00-1.097.165c-.375.11-.684.252-.926.426l-1.318-.159.704-5.727h6.046v1.25h-4.864l-.41 3.431h.069c.239-.189.538-.346.898-.471s.735-.188 1.125-.188c.712 0 1.346.171 1.903.512.56.337 1 .799 1.318 1.386.322.587.483 1.258.483 2.011 0 .743-.166 1.406-.5 1.989a3.65 3.65 0 01-1.363 1.375c-.58.333-1.239.5-1.978.5zm9.894 0c-.856 0-1.585-.233-2.188-.699-.602-.469-1.062-1.149-1.38-2.04-.319-.893-.478-1.973-.478-3.238 0-1.258.16-2.332.478-3.222.322-.894.784-1.576 1.386-2.045.606-.474 1.333-.71 2.182-.71.848 0 1.574.236 2.176.71.606.469 1.068 1.151 1.386 2.045.322.89.483 1.964.483 3.222 0 1.265-.159 2.345-.477 3.238-.318.891-.778 1.571-1.38 2.04-.603.466-1.332.699-2.188.699zm0-1.25c.848 0 1.508-.409 1.977-1.227.47-.818.705-1.985.705-3.5 0-1.008-.108-1.866-.324-2.574-.212-.708-.52-1.248-.92-1.619a2.029 2.029 0 00-1.438-.557c-.841 0-1.498.415-1.972 1.244-.473.826-.71 1.994-.71 3.506 0 1.007.106 1.863.318 2.568.212.705.517 1.241.915 1.608.402.367.885.551 1.449.551zM25 371.159c-.856 0-1.585-.233-2.188-.699-.602-.469-1.062-1.149-1.38-2.04-.318-.893-.477-1.973-.477-3.238 0-1.258.159-2.332.477-3.222.322-.894.784-1.576 1.386-2.045.606-.474 1.333-.71 2.182-.71s1.574.236 2.176.71c.606.469 1.068 1.151 1.387 2.045.322.89.483 1.964.483 3.222 0 1.265-.16 2.345-.478 3.238-.318.891-.778 1.571-1.38 2.04-.603.466-1.332.699-2.188.699zm0-1.25c.849 0 1.508-.409 1.977-1.227.47-.818.705-1.985.705-3.5 0-1.008-.108-1.866-.324-2.574-.212-.708-.519-1.248-.92-1.619a2.029 2.029 0 00-1.438-.557c-.84 0-1.498.415-1.972 1.244-.473.826-.71 1.994-.71 3.506 0 1.007.106 1.863.318 2.568.213.705.517 1.241.915 1.608.402.367.885.551 1.449.551z" fill="#7B91B0"/><defs><linearGradient id="paint0_linear_134_98" x1="64.162" y1="52.359" x2="64.162" y2="332.98" gradientUnits="userSpaceOnUse"><stop stop-color="#00E096" stop-opacity=".327"/><stop offset="1" stop-color="#fff" stop-opacity=".01"/></linearGradient><linearGradient id="paint1_linear_134_98" x1="57" y1="179.056" x2="57" y2="332.456" gradientUnits="userSpaceOnUse"><stop stop-color="#009DFF" stop-opacity=".317"/><stop offset="1" stop-color="#0095FF" stop-opacity=".01"/></linearGradient><linearGradient id="paint2_linear_134_98" x1="59.024" y1="206.881" x2="59.024" y2="366.443" gradientUnits="userSpaceOnUse"><stop stop-color="red" stop-opacity=".317"/><stop offset="1" stop-color="red" stop-opacity=".01"/></linearGradient><linearGradient id="paint3_linear_134_98" x1="58.516" y1="292.947" x2="58.516" y2="370.039" gradientUnits="userSpaceOnUse"><stop stop-color="#BF83FF"/><stop offset="1" stop-color="#BF83FF" stop-opacity="0"/></linearGradient></defs></svg>