<svg width="781" height="470" viewBox="0 0 781 470" fill="none" xmlns="http://www.w3.org/2000/svg"><path d="M1.355 30.263V29.24l3.84-4.204c.451-.492.822-.92 1.114-1.284a4.75 4.75 0 00.648-1.034c.144-.326.216-.667.216-1.023 0-.41-.099-.763-.296-1.063a1.917 1.917 0 00-.795-.693 2.578 2.578 0 00-1.137-.244c-.446 0-.837.093-1.17.278-.33.182-.585.438-.767.768-.178.329-.267.715-.267 1.159H1.4c0-.682.157-1.28.472-1.796A3.276 3.276 0 013.156 18.9a3.872 3.872 0 011.835-.432c.682 0 1.286.144 1.812.431.527.288.94.677 1.24 1.165.298.489.448 1.032.448 1.631 0 .428-.078.847-.233 1.256-.152.405-.417.858-.795 1.358-.375.496-.896 1.102-1.563 1.818l-2.614 2.795v.091h5.41v1.25H1.354zm13.482.16c-.855 0-1.585-.234-2.187-.7-.602-.47-1.063-1.15-1.38-2.04-.319-.893-.478-1.973-.478-3.238 0-1.258.16-2.331.477-3.222.322-.893.784-1.575 1.387-2.045.606-.474 1.333-.71 2.181-.71.849 0 1.574.236 2.177.71.606.47 1.068 1.151 1.386 2.045.322.89.483 1.964.483 3.222 0 1.265-.16 2.345-.477 3.239-.319.89-.779 1.57-1.381 2.04-.602.465-1.331.698-2.187.698zm0-1.25c.849 0 1.508-.41 1.978-1.228.47-.818.704-1.985.704-3.5 0-1.008-.108-1.866-.323-2.574-.213-.708-.52-1.248-.921-1.62a2.032 2.032 0 00-1.437-.556c-.841 0-1.499.415-1.972 1.244-.474.826-.71 1.995-.71 3.506 0 1.008.106 1.864.318 2.568.212.705.517 1.24.915 1.608a2.07 2.07 0 001.449.551zm9.841 1.25c-.666 0-1.267-.133-1.8-.398a3.344 3.344 0 01-1.285-1.091 2.971 2.971 0 01-.528-1.58h1.363c.053.527.292.962.716 1.307.428.34.94.511 1.534.511a2.42 2.42 0 001.273-.335c.375-.223.669-.53.88-.92a2.73 2.73 0 00.325-1.336c0-.507-.112-.96-.335-1.358a2.46 2.46 0 00-.91-.948 2.57 2.57 0 00-1.324-.353 3.638 3.638 0 00-1.096.165c-.375.11-.684.252-.926.426l-1.318-.159.704-5.727h6.046v1.25h-4.864l-.41 3.432h.07c.238-.19.537-.347.897-.472s.735-.188 1.125-.188c.712 0 1.346.171 1.903.512.56.337 1 .8 1.318 1.386.322.587.483 1.258.483 2.012 0 .742-.166 1.405-.5 1.988a3.654 3.654 0 01-1.363 1.375c-.58.334-1.239.5-1.978.5zM5.445 209.153v11.637H4.036v-10.159h-.068l-2.84 1.886v-1.432l2.908-1.932h1.41zm7.143 11.796c-.856 0-1.586-.233-2.188-.699-.602-.47-1.062-1.15-1.38-2.04-.319-.894-.478-1.973-.478-3.238 0-1.258.16-2.332.477-3.222.322-.894.784-1.576 1.387-2.045.606-.474 1.333-.711 2.181-.711.849 0 1.574.237 2.177.711.606.469 1.068 1.151 1.386 2.045.322.89.483 1.964.483 3.222 0 1.265-.16 2.344-.477 3.238-.318.89-.779 1.57-1.381 2.04-.602.466-1.331.699-2.188.699zm0-1.25c.848 0 1.507-.409 1.977-1.227.47-.819.704-1.985.704-3.5 0-1.008-.108-1.866-.324-2.574-.212-.709-.518-1.248-.92-1.62a2.032 2.032 0 00-1.438-.556c-.84 0-1.498.414-1.971 1.244-.474.826-.71 1.994-.71 3.506 0 1.007.106 1.863.318 2.568.212.704.517 1.24.915 1.608.401.367.884.551 1.449.551zm-7.438 48.25c-.856 0-1.585-.233-2.187-.699-.603-.47-1.063-1.15-1.381-2.04-.318-.894-.477-1.973-.477-3.238 0-1.258.159-2.332.477-3.222.322-.894.784-1.576 1.386-2.045.606-.474 1.334-.711 2.182-.711.849 0 1.574.237 2.176.711.606.469 1.068 1.151 1.387 2.045.321.89.482 1.964.482 3.222 0 1.265-.159 2.344-.477 3.238-.318.89-.778 1.57-1.38 2.04-.603.466-1.332.699-2.188.699zm0-1.25c.849 0 1.508-.409 1.977-1.227.47-.819.705-1.985.705-3.5 0-1.008-.108-1.866-.324-2.574-.212-.709-.519-1.248-.92-1.62a2.032 2.032 0 00-1.438-.556c-.84 0-1.498.414-1.972 1.244-.473.826-.71 1.994-.71 3.506 0 1.007.106 1.863.318 2.568.213.704.517 1.24.915 1.608.402.367.885.551 1.449.551zm.295-152.809v11.636H4.036v-10.159h-.068l-2.84 1.887v-1.432l2.908-1.932h1.41zm6.983 11.795c-.666 0-1.267-.132-1.8-.397a3.345 3.345 0 01-1.285-1.091 2.973 2.973 0 01-.528-1.58h1.363c.053.527.292.962.716 1.307.428.341.94.511 1.534.511.478 0 .902-.111 1.273-.335.375-.223.669-.53.88-.92a2.73 2.73 0 00.325-1.335 2.72 2.72 0 00-.336-1.358 2.457 2.457 0 00-.909-.949 2.572 2.572 0 00-1.323-.353 3.683 3.683 0 00-1.097.165c-.375.11-.684.252-.926.426l-1.318-.159.704-5.727h6.046v1.25h-4.864l-.41 3.432h.07a3.02 3.02 0 01.897-.472c.36-.125.735-.187 1.125-.187.712 0 1.346.17 1.903.511.56.337 1 .799 1.318 1.386.322.588.483 1.258.483 2.012 0 .742-.166 1.405-.5 1.988a3.65 3.65 0 01-1.363 1.375c-.58.334-1.239.5-1.978.5zm-7.278 47c-.856 0-1.585-.232-2.187-.698-.603-.47-1.063-1.15-1.381-2.04-.318-.894-.477-1.974-.477-3.239 0-1.257.159-2.331.477-3.221.322-.894.784-1.576 1.386-2.046.606-.473 1.334-.71 2.182-.71.849 0 1.574.237 2.176.71.606.47 1.068 1.152 1.387 2.046.321.89.482 1.964.482 3.221 0 1.265-.159 2.345-.477 3.239-.318.89-.778 1.57-1.38 2.04-.603.466-1.332.698-2.188.698zm0-1.25c.849 0 1.508-.409 1.977-1.227.47-.818.705-1.985.705-3.5 0-1.007-.108-1.865-.324-2.574-.212-.708-.519-1.248-.92-1.619a2.033 2.033 0 00-1.438-.557c-.84 0-1.498.415-1.972 1.245-.473.825-.71 1.994-.71 3.505 0 1.008.106 1.864.318 2.568.213.705.517 1.241.915 1.608a2.07 2.07 0 001.449.551zm-.16 144.777c-.666 0-1.266-.133-1.8-.398a3.337 3.337 0 01-1.284-1.091 2.97 2.97 0 01-.529-1.579h1.364c.053.526.292.962.716 1.307.428.341.94.511 1.534.511.477 0 .901-.112 1.273-.335.375-.224.668-.53.88-.921a2.73 2.73 0 00.324-1.335c0-.507-.112-.96-.335-1.358a2.464 2.464 0 00-.91-.949 2.571 2.571 0 00-1.323-.352 3.62 3.62 0 00-1.097.165c-.375.11-.683.252-.926.426l-1.318-.159.705-5.727h6.045v1.25H3.445l-.409 3.431h.069c.238-.189.537-.346.897-.471s.735-.188 1.125-.188c.712 0 1.347.171 1.904.512.56.337 1 .799 1.318 1.386.322.587.483 1.258.483 2.011 0 .743-.167 1.406-.5 1.989a3.651 3.651 0 01-1.364 1.375c-.58.333-1.238.5-1.977.5zm9.826 0c-.78 0-1.47-.138-2.068-.415-.595-.28-1.059-.664-1.392-1.153a2.9 2.9 0 01-.494-1.682 3.098 3.098 0 01.29-1.364c.196-.42.465-.77.806-1.051.345-.284.73-.464 1.154-.539v-.069c-.557-.144-1-.456-1.33-.937a2.841 2.841 0 01-.489-1.654 2.81 2.81 0 01.45-1.585 3.16 3.16 0 011.25-1.102c.533-.269 1.141-.403 1.823-.403.675 0 1.277.134 1.807.403s.947.636 1.25 1.102c.307.466.462.995.466 1.585a2.882 2.882 0 01-.506 1.654c-.33.481-.767.793-1.312.937v.069c.42.075.799.255 1.136.539a3.175 3.175 0 011.114 2.415 2.94 2.94 0 01-.512 1.682c-.333.489-.797.873-1.392 1.153-.59.277-1.274.415-2.05.415zm0-1.25c.527 0 .981-.085 1.364-.256a2.03 2.03 0 00.886-.721c.209-.311.315-.674.318-1.091a2.092 2.092 0 00-.34-1.165 2.311 2.311 0 00-.915-.795 2.862 2.862 0 00-1.313-.29c-.496 0-.94.096-1.33.29a2.311 2.311 0 00-.914.795 2.05 2.05 0 00-.324 1.165c-.004.417.097.78.301 1.091.209.31.506.551.892.721.387.171.845.256 1.375.256zm0-5.523c.417 0 .786-.083 1.108-.25.326-.166.582-.399.767-.699.186-.299.28-.649.284-1.051a1.94 1.94 0 00-.278-1.028 1.802 1.802 0 00-.756-.682c-.322-.163-.697-.244-1.125-.244-.435 0-.816.081-1.142.244a1.758 1.758 0 00-.755.682 1.898 1.898 0 00-.262 1.028c-.004.402.085.752.267 1.051.186.3.442.533.767.699.326.167.701.25 1.125.25zM5.15 411.475c-.856 0-1.585-.233-2.187-.699-.603-.469-1.063-1.149-1.381-2.039-.318-.894-.477-1.974-.477-3.239 0-1.258.159-2.331.477-3.222.322-.894.784-1.575 1.386-2.045.606-.474 1.334-.71 2.182-.71.849 0 1.574.236 2.176.71.606.47 1.068 1.151 1.387 2.045.321.891.482 1.964.482 3.222 0 1.265-.159 2.345-.477 3.239-.318.89-.778 1.57-1.38 2.039-.603.466-1.332.699-2.188.699zm0-1.25c.849 0 1.508-.409 1.977-1.227.47-.818.705-1.985.705-3.5 0-1.008-.108-1.866-.324-2.574-.212-.708-.519-1.248-.92-1.619a2.033 2.033 0 00-1.438-.557c-.84 0-1.498.415-1.972 1.244-.473.826-.71 1.995-.71 3.506 0 1.008.106 1.864.318 2.568.213.705.517 1.241.915 1.608a2.07 2.07 0 001.449.551zm62.756 41.934c-.75 0-1.418-.129-2.005-.386-.584-.258-1.048-.616-1.392-1.074a2.886 2.886 0 01-.557-1.608h1.432c.03.375.159.699.386.971.227.269.525.478.892.626.367.147.775.221 1.222.221.5 0 .943-.087 1.33-.261.386-.175.689-.417.908-.728.22-.31.33-.67.33-1.079 0-.428-.106-.805-.318-1.131-.213-.329-.523-.587-.932-.772-.41-.186-.91-.279-1.5-.279h-.932v-1.25h.932c.462 0 .867-.083 1.216-.25.352-.167.627-.401.824-.704.2-.303.3-.66.3-1.069 0-.394-.086-.736-.26-1.028a1.787 1.787 0 00-.74-.682c-.314-.163-.685-.244-1.113-.244-.401 0-.78.074-1.136.221-.353.144-.64.355-.864.631a1.642 1.642 0 00-.364.989h-1.363c.023-.61.206-1.144.551-1.603a3.464 3.464 0 011.352-1.079 4.364 4.364 0 011.847-.386c.72 0 1.337.145 1.852.437a3.09 3.09 0 011.188 1.142c.276.474.414.985.414 1.534 0 .655-.172 1.214-.517 1.676-.34.462-.805.783-1.392.961v.09c.735.122 1.309.434 1.722.938.413.5.62 1.119.62 1.858 0 .632-.173 1.201-.518 1.704-.34.5-.807.894-1.398 1.182-.59.288-1.263.432-2.017.432zm11.279-6.602v1.25h-5.091v-1.25h5.09zM82.203 452h-1.477l4.273-11.636h1.454L90.726 452h-1.477l-3.478-9.795h-.09L82.203 452zm.546-4.545h5.954v1.25H82.75v-1.25zm9.608 7.818v-12h1.295v1.386h.16c.098-.151.234-.345.408-.579.178-.239.432-.451.762-.637.333-.189.784-.284 1.352-.284.735 0 1.382.184 1.943.551.56.368.998.888 1.313 1.563.314.674.471 1.469.471 2.386 0 .924-.157 1.725-.471 2.403-.315.675-.75 1.197-1.307 1.569-.557.367-1.2.551-1.926.551-.56 0-1.01-.093-1.347-.279-.337-.189-.597-.403-.778-.642a8.507 8.507 0 01-.42-.602h-.114v4.614h-1.341zm1.318-7.637c0 .659.096 1.241.29 1.745.193.5.475.892.846 1.176.371.28.826.42 1.364.42.56 0 1.028-.147 1.403-.443.379-.299.663-.701.852-1.204a4.73 4.73 0 00.29-1.694c0-.613-.094-1.166-.284-1.659-.185-.496-.468-.888-.846-1.176-.375-.292-.847-.437-1.415-.437-.546 0-1.004.138-1.375.414-.371.273-.652.656-.841 1.148-.19.489-.284 1.059-.284 1.71zm8.432 4.364v-8.727h1.295v1.318h.091c.159-.432.447-.782.864-1.051a2.54 2.54 0 011.409-.404c.098 0 .221.002.369.006s.26.01.335.017v1.364a3.351 3.351 0 00-.312-.051 3.026 3.026 0 00-.506-.04c-.424 0-.803.089-1.136.267a1.954 1.954 0 00-1.068 1.778V452h-1.341zm5.953 0v-8.727h1.341V452h-1.341zm.682-10.182a.955.955 0 01-.677-.267.86.86 0 01-.278-.642.86.86 0 01.278-.642.955.955 0 01.677-.267c.261 0 .484.089.67.267a.851.851 0 01.284.642c0 .25-.095.464-.284.642a.934.934 0 01-.67.267zm4.456-1.454V452h-1.341v-11.636h1.341zM283.508 452l5.205-10.295v-.091h-6v-1.25h7.454v1.318L284.985 452h-1.477zm13.8-6.443v1.25h-5.091v-1.25h5.091zm3.018 6.443h-1.477l4.273-11.636h1.454L308.849 452h-1.477l-3.478-9.795h-.09L300.326 452zm.546-4.545h5.954v1.25h-5.954v-1.25zm9.608 7.818v-12h1.295v1.386h.159c.099-.151.235-.345.409-.579.178-.239.432-.451.762-.637.333-.189.784-.284 1.352-.284.735 0 1.383.184 1.943.551.561.368.998.888 1.313 1.563.314.674.471 1.469.471 2.386 0 .924-.157 1.725-.471 2.403-.315.675-.75 1.197-1.307 1.569-.557.367-1.199.551-1.926.551-.561 0-1.01-.093-1.347-.279-.337-.189-.596-.403-.778-.642a8.677 8.677 0 01-.421-.602h-.113v4.614h-1.341zm1.318-7.637c0 .659.096 1.241.29 1.745.193.5.475.892.846 1.176.371.28.826.42 1.364.42.561 0 1.028-.147 1.403-.443.379-.299.663-.701.853-1.204a4.734 4.734 0 00.289-1.694c0-.613-.094-1.166-.284-1.659-.185-.496-.468-.888-.846-1.176-.375-.292-.847-.437-1.415-.437-.546 0-1.004.138-1.375.414-.371.273-.652.656-.841 1.148-.189.489-.284 1.059-.284 1.71zM320.23 452v-8.727h1.295v1.318h.091c.159-.432.447-.782.864-1.051a2.54 2.54 0 011.409-.404c.098 0 .221.002.369.006s.26.01.335.017v1.364a3.351 3.351 0 00-.312-.051 3.026 3.026 0 00-.506-.04c-.424 0-.803.089-1.136.267a1.954 1.954 0 00-1.068 1.778V452h-1.341zm5.953 0v-8.727h1.341V452h-1.341zm.682-10.182a.951.951 0 01-.676-.267.857.857 0 01-.279-.642c0-.25.093-.464.279-.642a.951.951 0 01.676-.267c.261 0 .485.089.67.267.19.178.284.392.284.642s-.094.464-.284.642a.932.932 0 01-.67.267zm4.456-1.454V452h-1.341v-11.636h1.341zm173.688-.159a4.15 4.15 0 011.432.272c.477.178.913.474 1.307.887.394.409.71.967.949 1.676.238.708.358 1.596.358 2.665 0 1.034-.099 1.952-.296 2.755-.193.799-.473 1.474-.841 2.023-.363.549-.807.966-1.329 1.25-.519.284-1.106.426-1.762.426-.651 0-1.233-.129-1.744-.386a3.429 3.429 0 01-1.25-1.085 3.78 3.78 0 01-.619-1.62h1.386c.125.534.373.976.744 1.324.375.345.87.517 1.483.517.898 0 1.606-.392 2.125-1.176.523-.784.784-1.892.784-3.324h-.091a3.58 3.58 0 01-.755.824 3.337 3.337 0 01-2.108.722 3.53 3.53 0 01-1.835-.495 3.75 3.75 0 01-1.33-1.369c-.33-.583-.494-1.25-.494-2 0-.712.159-1.364.477-1.955a3.696 3.696 0 011.352-1.42c.584-.352 1.269-.523 2.057-.511zm0 1.25c-.477 0-.907.119-1.29.357-.378.235-.68.554-.903.955a2.69 2.69 0 00-.33 1.324c0 .485.106.926.319 1.324.215.394.509.708.88.943.375.231.801.347 1.279.347.359 0 .695-.071 1.005-.211.311-.144.582-.339.813-.585.235-.25.418-.532.551-.847a2.55 2.55 0 00.199-.994c0-.454-.11-.881-.33-1.278a2.616 2.616 0 00-.897-.966 2.328 2.328 0 00-1.296-.369zm11.303 4.102v1.25h-5.091v-1.25h5.091zM519.33 452h-1.477l4.273-11.636h1.454L527.853 452h-1.477l-3.478-9.795h-.091L519.33 452zm.546-4.545h5.954v1.25h-5.954v-1.25zm9.607 7.818v-12h1.296v1.386h.159c.099-.151.235-.345.409-.579.178-.239.432-.451.761-.637.334-.189.785-.284 1.353-.284.735 0 1.382.184 1.943.551.561.368.998.888 1.312 1.563.315.674.472 1.469.472 2.386 0 .924-.157 1.725-.472 2.403-.314.675-.75 1.197-1.306 1.569-.557.367-1.199.551-1.927.551-.56 0-1.009-.093-1.346-.279-.337-.189-.597-.403-.779-.642a8.968 8.968 0 01-.42-.602h-.114v4.614h-1.341zm1.319-7.637c0 .659.096 1.241.289 1.745.194.5.476.892.847 1.176.371.28.826.42 1.364.42.56 0 1.028-.147 1.403-.443.379-.299.663-.701.852-1.204.194-.508.29-1.072.29-1.694 0-.613-.095-1.166-.284-1.659-.186-.496-.468-.888-.847-1.176-.375-.292-.846-.437-1.414-.437-.546 0-1.004.138-1.375.414-.372.273-.652.656-.841 1.148-.19.489-.284 1.059-.284 1.71zm8.431 4.364v-8.727h1.296v1.318h.091c.159-.432.447-.782.863-1.051a2.545 2.545 0 011.41-.404c.098 0 .221.002.369.006a5.5 5.5 0 01.335.017v1.364a3.351 3.351 0 00-.312-.051 3.026 3.026 0 00-.506-.04c-.424 0-.803.089-1.136.267-.33.174-.591.417-.785.727a1.963 1.963 0 00-.284 1.051V452h-1.341zm5.954 0v-8.727h1.341V452h-1.341zm.681-10.182a.955.955 0 01-.676-.267.86.86 0 01-.278-.642.86.86 0 01.278-.642.955.955 0 01.676-.267c.262 0 .485.089.671.267a.851.851 0 01.284.642c0 .25-.095.464-.284.642a.935.935 0 01-.671.267zm4.456-1.454V452h-1.341v-11.636h1.341zm175.251 0V452h-1.409v-10.159h-.068l-2.841 1.886v-1.432l2.909-1.931h1.409zm7.143 11.795c-.857 0-1.586-.233-2.188-.699-.602-.469-1.062-1.149-1.381-2.04-.318-.893-.477-1.973-.477-3.238 0-1.258.159-2.332.477-3.222.322-.894.784-1.576 1.387-2.045.606-.474 1.333-.71 2.182-.71.848 0 1.573.236 2.176.71.606.469 1.068 1.151 1.386 2.045.322.89.483 1.964.483 3.222 0 1.265-.159 2.345-.477 3.238-.318.891-.779 1.571-1.381 2.04-.602.466-1.331.699-2.187.699zm0-1.25c.848 0 1.507-.409 1.977-1.227.469-.818.704-1.985.704-3.5 0-1.008-.108-1.866-.324-2.574-.212-.708-.518-1.248-.92-1.619a2.029 2.029 0 00-1.437-.557c-.841 0-1.499.415-1.972 1.244-.474.826-.71 1.994-.71 3.506 0 1.007.106 1.863.318 2.568.212.705.517 1.241.915 1.608.401.367.884.551 1.449.551zm11.227-5.352v1.25h-5.091v-1.25h5.091zm3.018 6.443h-1.477l4.273-11.636h1.454L755.486 452h-1.477l-3.478-9.795h-.09L746.963 452zm.546-4.545h5.954v1.25h-5.954v-1.25zm9.608 7.818v-12h1.295v1.386h.159c.099-.151.235-.345.409-.579.178-.239.432-.451.762-.637.333-.189.784-.284 1.352-.284.735 0 1.383.184 1.943.551.561.368.998.888 1.313 1.563.314.674.471 1.469.471 2.386 0 .924-.157 1.725-.471 2.403-.315.675-.75 1.197-1.307 1.569-.557.367-1.199.551-1.926.551-.561 0-1.01-.093-1.347-.279-.337-.189-.597-.403-.778-.642a8.677 8.677 0 01-.421-.602h-.113v4.614h-1.341zm1.318-7.637c0 .659.096 1.241.29 1.745.193.5.475.892.846 1.176.371.28.826.42 1.364.42.56 0 1.028-.147 1.403-.443.379-.299.663-.701.853-1.204a4.734 4.734 0 00.289-1.694c0-.613-.094-1.166-.284-1.659-.185-.496-.468-.888-.846-1.176-.375-.292-.847-.437-1.415-.437-.546 0-1.004.138-1.375.414-.371.273-.652.656-.841 1.148-.189.489-.284 1.059-.284 1.71zm8.432 4.364v-8.727h1.295v1.318h.091c.159-.432.447-.782.864-1.051a2.54 2.54 0 011.409-.404c.098 0 .221.002.369.006s.26.01.335.017v1.364a3.351 3.351 0 00-.312-.051 3.026 3.026 0 00-.506-.04c-.424 0-.803.089-1.136.267a1.954 1.954 0 00-1.068 1.778V452h-1.341zm5.953 0v-8.727h1.341V452h-1.341zm.682-10.182a.955.955 0 01-.677-.267.86.86 0 01-.278-.642.86.86 0 01.278-.642.955.955 0 01.677-.267c.261 0 .484.089.67.267a.851.851 0 01.284.642c0 .25-.095.464-.284.642a.934.934 0 01-.67.267zm4.456-1.454V452h-1.341v-11.636h1.341z" fill="#7B91B0"/><path fill-rule="evenodd" clip-rule="evenodd" d="M59.129 229.705c50.961-66.5 71.961-147 127.387-181.395 48.879 0 64.609-22.732 96.002-22.732 31.392 0 65.177 116.316 108.69 116.316C434.722 141.894 452.98 18 496.676 18c43.696 0 104.098 83.353 145.85 83.353 61.064-13.148 96.002 25.852 96.002 25.852v275.434h-679.4s-.289-160.196 0-172.934z" fill="url(#paint0_linear_134_100)"/><defs><linearGradient id="paint0_linear_134_100" x1="58.794" y1="4.453" x2="58.794" y2="631.556" gradientUnits="userSpaceOnUse"><stop stop-color="#0095FF"/><stop offset="1" stop-color="#fff" stop-opacity=".01"/></linearGradient></defs></svg>