<svg width="322" height="351" viewBox="0 0 322 351" fill="none" xmlns="http://www.w3.org/2000/svg"><path d="M65.757 159.875v-1.511h9.005v1.511h-3.63V170h-1.75v-10.125h-3.625zm12.95 10.301c-.819 0-1.533-.187-2.142-.562a3.794 3.794 0 01-1.42-1.574c-.338-.674-.507-1.462-.507-2.364 0-.905.169-1.697.506-2.375a3.784 3.784 0 011.42-1.579c.61-.375 1.324-.563 2.143-.563.818 0 1.532.188 2.142.563.61.375 1.083.901 1.42 1.579.337.678.506 1.47.506 2.375 0 .902-.169 1.69-.506 2.364a3.795 3.795 0 01-1.42 1.574c-.61.375-1.324.562-2.142.562zm.005-1.426c.53 0 .97-.14 1.319-.42a2.47 2.47 0 00.772-1.12 4.45 4.45 0 00.256-1.54c0-.556-.085-1.068-.256-1.534a2.5 2.5 0 00-.772-1.13c-.349-.284-.788-.426-1.319-.426-.534 0-.977.142-1.33.426a2.54 2.54 0 00-.778 1.13 4.53 4.53 0 00-.25 1.534c0 .561.084 1.074.25 1.54.17.466.43.839.779 1.12.352.28.795.42 1.33.42zm9.713-7.477v1.363h-4.767v-1.363h4.767zm-3.489-2.091h1.7v8.256c0 .329.048.577.147.744a.772.772 0 00.38.335c.16.057.332.085.518.085.136 0 .255-.009.358-.028l.238-.046.307 1.404a2.75 2.75 0 01-.42.113c-.182.042-.41.065-.682.069a2.995 2.995 0 01-1.25-.239 2.143 2.143 0 01-.938-.773c-.238-.348-.358-.786-.358-1.312v-8.608zm7.588 11.011a3.557 3.557 0 01-1.5-.307 2.523 2.523 0 01-1.063-.903c-.257-.394-.386-.877-.386-1.449 0-.492.095-.898.284-1.216.19-.318.445-.57.767-.756a4.035 4.035 0 011.08-.42c.397-.095.803-.167 1.216-.216l1.273-.148c.325-.041.562-.108.71-.198.147-.091.221-.239.221-.444v-.039c0-.497-.14-.881-.42-1.154-.277-.273-.69-.409-1.239-.409-.572 0-1.022.127-1.352.381-.326.25-.551.528-.676.835l-1.597-.364c.19-.53.466-.958.83-1.284.367-.329.79-.568 1.267-.716a4.96 4.96 0 011.506-.227c.348 0 .717.042 1.107.125.394.08.762.227 1.103.443.344.216.627.525.846.926.22.398.33.915.33 1.552V170h-1.66v-1.193h-.068c-.11.22-.274.435-.494.648-.22.212-.502.388-.846.528-.345.14-.758.21-1.239.21zm.37-1.363c.469 0 .87-.093 1.204-.279.337-.185.593-.428.767-.727.178-.303.267-.627.267-.972v-1.125c-.06.061-.178.118-.352.171-.17.049-.366.093-.585.13a62.4 62.4 0 01-.643.097l-.522.068a4.26 4.26 0 00-.904.21 1.554 1.554 0 00-.648.427c-.158.181-.238.424-.238.727 0 .42.155.738.466.954.31.212.706.319 1.187.319zm7.578-10.466V170h-1.698v-11.636h1.698zM106.489 170v-11.636h7.295v1.511h-5.54v3.545h5.159v1.506h-5.159v3.563h5.608V170h-7.363zm10.883-5.182V170h-1.699v-8.727h1.631v1.42h.108c.2-.462.515-.833.943-1.113.432-.281.975-.421 1.63-.421.595 0 1.116.125 1.563.375.447.246.794.614 1.04 1.102.246.489.369 1.093.369 1.813V170h-1.699v-5.347c0-.632-.165-1.126-.494-1.483-.33-.359-.782-.539-1.358-.539-.394 0-.744.085-1.051.255a1.846 1.846 0 00-.722.75c-.174.326-.261.72-.261 1.182zm11.203 8.637c-.694 0-1.29-.091-1.79-.273-.496-.182-.902-.423-1.216-.722a3.031 3.031 0 01-.705-.983l1.461-.602c.102.167.238.343.409.528.174.19.409.351.704.483.299.133.684.199 1.154.199.644 0 1.176-.157 1.596-.471.421-.311.631-.807.631-1.489v-1.716h-.108c-.102.186-.25.392-.443.619-.19.228-.451.425-.784.591-.334.167-.767.25-1.301.25-.69 0-1.311-.161-1.864-.483-.549-.325-.985-.805-1.307-1.437-.318-.637-.477-1.419-.477-2.347 0-.928.157-1.723.471-2.386.319-.663.754-1.171 1.307-1.523a3.4 3.4 0 011.881-.534c.542 0 .979.091 1.312.273.334.178.593.386.779.625.189.238.335.449.437.631h.125v-1.415h1.665v8.92c0 .75-.174 1.366-.523 1.847-.348.481-.82.837-1.414 1.068-.591.231-1.258.347-2 .347zm-.017-4.995c.488 0 .901-.113 1.238-.341.341-.231.599-.56.773-.988.178-.432.267-.949.267-1.551 0-.588-.087-1.105-.261-1.552-.175-.447-.43-.795-.767-1.045-.338-.254-.754-.381-1.25-.381-.512 0-.938.133-1.279.398-.341.261-.598.617-.773 1.068a4.26 4.26 0 00-.255 1.512c0 .572.087 1.073.261 1.505.174.432.432.769.773 1.012.344.242.769.363 1.273.363zm8.452 1.733a3.557 3.557 0 01-1.5-.307 2.52 2.52 0 01-1.062-.903c-.258-.394-.387-.877-.387-1.449 0-.492.095-.898.284-1.216.19-.318.446-.57.768-.756a4.016 4.016 0 011.079-.42 10.62 10.62 0 011.216-.216l1.273-.148c.325-.041.562-.108.71-.198.148-.091.222-.239.222-.444v-.039c0-.497-.141-.881-.421-1.154-.276-.273-.689-.409-1.239-.409-.572 0-1.022.127-1.352.381-.326.25-.551.528-.676.835l-1.597-.364c.19-.53.466-.958.83-1.284.367-.329.79-.568 1.267-.716a4.96 4.96 0 011.506-.227c.348 0 .718.042 1.108.125.394.08.761.227 1.102.443.345.216.627.525.847.926.219.398.329.915.329 1.552V170h-1.659v-1.193h-.068c-.11.22-.275.435-.495.648a2.611 2.611 0 01-.846.528c-.345.14-.758.21-1.239.21zm.37-1.363c.469 0 .871-.093 1.204-.279.337-.185.593-.428.767-.727.178-.303.267-.627.267-.972v-1.125c-.06.061-.178.118-.352.171a5.398 5.398 0 01-.585.13c-.22.034-.434.067-.642.097l-.523.068a4.24 4.24 0 00-.903.21 1.555 1.555 0 00-.648.427c-.159.181-.239.424-.239.727 0 .42.155.738.466.954.311.212.707.319 1.188.319zm9.539 4.625c-.693 0-1.29-.091-1.79-.273-.496-.182-.901-.423-1.216-.722a3.028 3.028 0 01-.704-.983l1.46-.602c.102.167.239.343.409.528.174.19.409.351.705.483.299.133.683.199 1.153.199.644 0 1.176-.157 1.597-.471.42-.311.63-.807.63-1.489v-1.716h-.108c-.102.186-.25.392-.443.619a2.377 2.377 0 01-.784.591c-.333.167-.767.25-1.301.25a3.637 3.637 0 01-1.864-.483c-.549-.325-.985-.805-1.307-1.437-.318-.637-.477-1.419-.477-2.347 0-.928.157-1.723.472-2.386.318-.663.754-1.171 1.307-1.523a3.398 3.398 0 011.88-.534c.542 0 .979.091 1.313.273.333.178.593.386.778.625.19.238.335.449.438.631h.125v-1.415h1.664v8.92c0 .75-.174 1.366-.522 1.847-.349.481-.82.837-1.415 1.068-.591.231-1.258.347-2 .347zm-.017-4.995c.489 0 .901-.113 1.239-.341.34-.231.598-.56.772-.988.178-.432.267-.949.267-1.551 0-.588-.087-1.105-.261-1.552-.174-.447-.43-.795-.767-1.045-.337-.254-.754-.381-1.25-.381-.511 0-.938.133-1.279.398-.34.261-.598.617-.772 1.068a4.237 4.237 0 00-.256 1.512c0 .572.087 1.073.261 1.505.175.432.432.769.773 1.012.345.242.769.363 1.273.363zm9.674 1.716c-.86 0-1.6-.184-2.221-.551a3.731 3.731 0 01-1.432-1.563c-.334-.674-.5-1.464-.5-2.369 0-.894.166-1.682.5-2.363a3.886 3.886 0 011.409-1.597c.606-.383 1.314-.574 2.125-.574a4.3 4.3 0 011.432.244c.462.163.877.419 1.244.767.367.349.657.802.869 1.358.212.553.319 1.226.319 2.017v.603h-6.938v-1.273h5.273c0-.447-.091-.843-.273-1.187a2.052 2.052 0 00-.767-.824c-.326-.201-.708-.302-1.148-.302-.477 0-.894.118-1.25.353a2.364 2.364 0 00-.818.909 2.626 2.626 0 00-.284 1.21v.994c0 .584.102 1.08.307 1.489.208.409.498.722.869.938.371.212.805.318 1.301.318a2.7 2.7 0 00.881-.137 1.83 1.83 0 001.131-1.108l1.608.29c-.129.474-.36.888-.694 1.244a3.346 3.346 0 01-1.244.824c-.496.194-1.062.29-1.699.29zm5.309-.176v-8.727h1.631v1.42h.108c.182-.481.479-.856.892-1.125.413-.273.907-.409 1.483-.409.583 0 1.072.136 1.466.409.398.273.691.648.881 1.125h.091c.208-.466.539-.837.994-1.113.454-.281.996-.421 1.625-.421.792 0 1.437.248 1.937.744.504.497.756 1.245.756 2.245V170h-1.699v-5.693c0-.591-.161-1.019-.483-1.284a1.757 1.757 0 00-1.153-.398c-.553 0-.983.17-1.29.511-.307.337-.46.771-.46 1.302V170h-1.693v-5.801c0-.474-.148-.854-.443-1.142-.296-.288-.68-.432-1.154-.432-.322 0-.619.085-.892.256a1.86 1.86 0 00-.653.699 2.136 2.136 0 00-.245 1.039V170h-1.699zm17.582.176c-.859 0-1.6-.184-2.221-.551a3.731 3.731 0 01-1.432-1.563c-.333-.674-.5-1.464-.5-2.369 0-.894.167-1.682.5-2.363a3.886 3.886 0 011.409-1.597c.606-.383 1.315-.574 2.125-.574.493 0 .97.082 1.432.244.462.163.877.419 1.244.767.368.349.657.802.87 1.358.212.553.318 1.226.318 2.017v.603h-6.938v-1.273h5.273c0-.447-.091-.843-.273-1.187a2.052 2.052 0 00-.767-.824c-.326-.201-.708-.302-1.147-.302-.478 0-.894.118-1.25.353a2.366 2.366 0 00-.819.909 2.626 2.626 0 00-.284 1.21v.994c0 .584.103 1.08.307 1.489.208.409.498.722.869.938.372.212.805.318 1.302.318.321 0 .615-.046.88-.137.265-.094.495-.234.688-.42.193-.186.341-.415.443-.688l1.608.29c-.129.474-.36.888-.693 1.244-.33.353-.745.627-1.245.824-.496.194-1.062.29-1.699.29zm7.009-5.358V170h-1.699v-8.727h1.63v1.42h.108c.201-.462.516-.833.944-1.113.431-.281.975-.421 1.63-.421.595 0 1.116.125 1.563.375.447.246.793.614 1.039 1.102.247.489.37 1.093.37 1.813V170h-1.699v-5.347c0-.632-.165-1.126-.494-1.483-.33-.359-.783-.539-1.358-.539a2.13 2.13 0 00-1.051.255 1.846 1.846 0 00-.722.75c-.174.326-.261.72-.261 1.182zm11.617-3.545v1.363h-4.767v-1.363h4.767zm-3.489-2.091h1.699v8.256c0 .329.05.577.148.744a.772.772 0 00.381.335c.159.057.331.085.517.085.136 0 .255-.009.358-.028.102-.019.182-.034.238-.046l.307 1.404a2.718 2.718 0 01-.42.113 3.314 3.314 0 01-.682.069 2.994 2.994 0 01-1.25-.239 2.149 2.149 0 01-.938-.773c-.238-.348-.358-.786-.358-1.312v-8.608zm11.448 4.221l-1.54.273a1.838 1.838 0 00-.307-.562 1.52 1.52 0 00-.557-.438c-.235-.114-.528-.17-.881-.17-.481 0-.882.108-1.204.324-.322.212-.483.486-.483.823 0 .292.108.527.324.705.216.178.564.324 1.045.437l1.387.319c.803.185 1.401.471 1.795.858.394.386.591.888.591 1.505 0 .523-.152.989-.455 1.398-.299.405-.717.723-1.255.955-.534.231-1.154.346-1.858.346-.977 0-1.775-.208-2.392-.625-.618-.42-.996-1.017-1.137-1.79l1.642-.25c.103.428.313.752.631.972.318.216.733.324 1.244.324.557 0 1.002-.116 1.336-.347.333-.235.5-.521.5-.858a.893.893 0 00-.307-.687c-.201-.186-.51-.326-.926-.421l-1.478-.324c-.814-.185-1.416-.481-1.806-.886-.387-.405-.58-.918-.58-1.54a2.2 2.2 0 01.432-1.352c.288-.386.685-.687 1.193-.903.508-.22 1.089-.33 1.744-.33.944 0 1.686.205 2.228.614.541.405.899.949 1.074 1.63z" fill="#737373"/><path d="M119.557 180.727V204h-4.216v-19.17h-.136l-5.443 3.477v-3.864l5.784-3.716h4.011zm14.192 23.716c-1.872 0-3.478-.473-4.819-1.42-1.333-.955-2.359-2.33-3.079-4.125-.712-1.803-1.068-3.974-1.068-6.512.007-2.538.367-4.697 1.079-6.477.72-1.788 1.746-3.151 3.08-4.091 1.341-.939 2.943-1.409 4.807-1.409 1.863 0 3.465.47 4.806 1.409 1.341.94 2.368 2.303 3.08 4.091.72 1.788 1.079 3.947 1.079 6.477 0 2.546-.359 4.72-1.079 6.523-.712 1.796-1.739 3.167-3.08 4.114-1.333.947-2.935 1.42-4.806 1.42zm0-3.557c1.454 0 2.602-.716 3.443-2.147.848-1.44 1.272-3.557 1.272-6.353 0-1.848-.193-3.401-.579-4.659-.386-1.257-.932-2.204-1.636-2.841a3.583 3.583 0 00-2.5-.966c-1.447 0-2.591.72-3.432 2.16-.841 1.431-1.265 3.534-1.273 6.306-.008 1.856.178 3.417.557 4.682.386 1.265.932 2.22 1.636 2.864.705.636 1.542.954 2.512.954zM146.17 204v-3.045l8.08-7.921a38.166 38.166 0 001.931-2.079c.516-.607.902-1.194 1.16-1.762a4.36 4.36 0 00.386-1.818c0-.735-.167-1.364-.5-1.886a3.322 3.322 0 00-1.375-1.228c-.583-.288-1.246-.431-1.989-.431-.765 0-1.435.159-2.011.477a3.282 3.282 0 00-1.341 1.329c-.311.576-.466 1.262-.466 2.057h-4.011c0-1.477.337-2.761 1.011-3.852.674-1.091 1.602-1.936 2.784-2.534 1.19-.599 2.553-.898 4.091-.898 1.561 0 2.932.292 4.114.875s2.098 1.383 2.75 2.398c.659 1.015.988 2.174.988 3.477 0 .871-.166 1.727-.5 2.568-.333.841-.92 1.773-1.761 2.796-.833 1.022-2.004 2.261-3.511 3.716l-4.012 4.079v.159h10.137V204H146.17z" fill="#0A0A0A"/><path d="M136 318a135.995 135.995 0 01-68-18.221l19.04-32.978A97.923 97.923 0 00136 279.92V318z" fill="#6366F1" stroke="#fff" stroke-width="2"/><path d="M.158 175.439a135.998 135.998 0 01100.104-124.66l10.007 36.742a97.918 97.918 0 00-72.075 89.755L.158 175.439z" fill="#D13C3C"/><path d="M232.167 278.167a136.006 136.006 0 01-157.91 25.01A136 136 0 011.674 160.725l37.612 5.957A97.92 97.92 0 00205.24 251.24l26.927 26.927z" fill="#FFA800"/><g filter="url(#filter0_d_93_1047)"><path d="M119.216 47.04a136 136 0 0190.223 249.427l-20.563-32.051a97.914 97.914 0 0039.866-50.997 97.914 97.914 0 00-41.561-114.898 97.917 97.917 0 00-63.265-13.692l-4.7-37.79z" fill="#4EC125"/></g><defs><filter id="filter0_d_93_1047" x="69.216" y="0" width="252.784" height="350.467" filterUnits="userSpaceOnUse" color-interpolation-filters="sRGB"><feFlood flood-opacity="0" result="BackgroundImageFix"/><feColorMatrix in="SourceAlpha" values="0 0 0 0 0 0 0 0 0 0 0 0 0 0 0 0 0 0 127 0" result="hardAlpha"/><feOffset dy="4"/><feGaussianBlur stdDeviation="25"/><feComposite in2="hardAlpha" operator="out"/><feColorMatrix values="0 0 0 0 0 0 0 0 0 0 0 0 0 0 0 0 0 0 0.1 0"/><feBlend in2="BackgroundImageFix" result="effect1_dropShadow_93_1047"/><feBlend in="SourceGraphic" in2="effect1_dropShadow_93_1047" result="shape"/></filter></defs></svg>