<svg width="1012" height="289" viewBox="0 0 1012 289" fill="none" xmlns="http://www.w3.org/2000/svg"><path d="M56.978 181.262h919.225" stroke="#EFF1F3" stroke-width="1.671" stroke-linecap="round"/><path d="M6.62 67.454V82H4.857V69.301h-.085l-3.55 2.359v-1.79l3.636-2.415h1.761zM14.546 82.2c-1.07 0-1.982-.291-2.735-.874-.752-.587-1.328-1.437-1.725-2.55-.398-1.117-.597-2.466-.597-4.048 0-1.572.199-2.914.597-4.027.402-1.117.98-1.97 1.733-2.556.757-.592 1.666-.888 2.727-.888 1.06 0 1.967.296 2.72.888.758.587 1.335 1.439 1.733 2.556.402 1.113.604 2.455.604 4.027 0 1.582-.2 2.931-.597 4.049-.398 1.112-.973 1.962-1.726 2.55-.753.582-1.664.873-2.734.873zm0-1.563c1.06 0 1.884-.511 2.471-1.534.588-1.023.881-2.48.881-4.375 0-1.26-.135-2.332-.405-3.217-.265-.886-.648-1.56-1.15-2.024-.497-.464-1.096-.696-1.797-.696-1.051 0-1.873.518-2.465 1.555-.591 1.032-.887 2.493-.887 4.382 0 1.26.132 2.33.397 3.21.265.881.647 1.551 1.144 2.01.502.46 1.105.69 1.81.69zM6.62 13.902v14.545H4.857V15.748h-.085l-3.551 2.358v-1.79l3.636-2.414h1.761zm7.728 14.744c-.833 0-1.584-.166-2.251-.497a4.18 4.18 0 01-1.605-1.364 3.714 3.714 0 01-.661-1.974h1.705c.066.658.364 1.202.894 1.633.535.426 1.175.64 1.918.64.597 0 1.127-.14 1.59-.42.47-.279.837-.662 1.102-1.15.27-.492.405-1.049.405-1.67 0-.634-.14-1.2-.42-1.697a3.076 3.076 0 00-1.136-1.186c-.483-.288-1.034-.435-1.655-.44a4.546 4.546 0 00-1.37.206c-.47.137-.855.315-1.158.533l-1.648-.2.88-7.158h7.558v1.562h-6.08l-.511 4.29h.085a3.79 3.79 0 011.122-.59c.45-.156.919-.234 1.406-.234.89 0 1.684.213 2.38.64.7.42 1.25.998 1.648 1.732.402.734.603 1.572.603 2.515 0 .927-.208 1.756-.625 2.485a4.569 4.569 0 01-1.704 1.719c-.725.417-1.549.625-2.472.625zM6.051 136.199c-.833 0-1.584-.166-2.251-.497a4.184 4.184 0 01-1.605-1.364 3.716 3.716 0 01-.66-1.974h1.704c.066.658.364 1.202.895 1.633.535.426 1.174.639 1.917.639.597 0 1.127-.139 1.591-.419a2.958 2.958 0 001.1-1.15c.27-.493.406-1.049.406-1.669 0-.635-.14-1.201-.42-1.698a3.076 3.076 0 00-1.136-1.186c-.483-.289-1.034-.435-1.654-.44a4.539 4.539 0 00-1.371.206c-.469.137-.855.315-1.158.532l-1.648-.198.881-7.159H10.2v1.562H4.12l-.511 4.29h.085a3.806 3.806 0 011.122-.59c.45-.156.919-.234 1.407-.234.89 0 1.683.213 2.379.639.7.422 1.25.999 1.648 1.733.402.734.603 1.572.603 2.514 0 .928-.208 1.757-.625 2.486a4.57 4.57 0 01-1.704 1.719c-.725.417-1.549.625-2.472.625zm.199 52c-1.07 0-1.982-.291-2.734-.874-.753-.587-1.329-1.437-1.726-2.549-.398-1.118-.597-2.467-.597-4.049 0-1.572.199-2.914.597-4.027.402-1.117.98-1.969 1.733-2.557.757-.591 1.666-.887 2.727-.887 1.06 0 1.967.296 2.72.887.758.588 1.335 1.44 1.733 2.557.403 1.113.604 2.455.604 4.027 0 1.582-.199 2.931-.597 4.049-.398 1.112-.973 1.962-1.726 2.549-.752.583-1.664.874-2.734.874zm0-1.563c1.06 0 1.884-.511 2.472-1.534.587-1.022.88-2.481.88-4.375 0-1.259-.135-2.332-.405-3.217-.265-.885-.648-1.56-1.15-2.024-.497-.464-1.096-.696-1.797-.696-1.051 0-1.873.518-2.464 1.555-.592 1.032-.888 2.493-.888 4.382 0 1.26.132 2.33.397 3.211.266.88.647 1.55 1.144 2.009.502.46 1.106.689 1.811.689z" fill="#7B91B0"/><rect x="74" y="34" width="30" height="146" rx="3.343" fill="#55ACEF"/><rect x="107.741" y="46" width="30" height="133.577" rx="3.343" fill="#4867AA"/><rect x="142" y="87" width="30" height="93" rx="3.343" fill="#0A66C2"/><rect x="281" y="69" width="30" height="111" rx="3.343" fill="#0A66C2"/><rect x="411" y="69" width="30" height="111" rx="3.343" fill="#0A66C2"/><rect x="536.862" y="99" width="30" height="81" rx="3.343" fill="#0A66C2"/><rect x="798" y="117" width="30" height="63" rx="3.343" fill="#0A66C2"/><rect x="931" y="82" width="30" height="98" rx="3.343" fill="#0A66C2"/><rect x="212" width="30" height="180" rx="3.343" fill="#55ACEF"/><rect x="342" y="87" width="30" height="93" rx="3.343" fill="#55ACEF"/><rect x="468" y="47" width="30" height="133" rx="3.343" fill="#55ACEF"/><rect x="729" y="99" width="30" height="81" rx="3.343" fill="#55ACEF"/><rect x="862" y="99" width="30" height="81" rx="3.343" fill="#55ACEF"/><rect x="245.741" y="55" width="30" height="125.228" rx="3.343" fill="#4867AA"/><rect x="375.741" y="55.199" width="30" height="125.228" rx="3.343" fill="#4867AA"/><rect x="502" y="82" width="30" height="98" rx="3.343" fill="#4867AA"/><rect x="672" y="82" width="30" height="98" rx="3.343" fill="#0A66C2"/><rect x="603" y=".099" width="30" height="180.329" rx="3.343" fill="#55ACEF"/><rect x="636.741" y="55.199" width="30" height="125.228" rx="3.343" fill="#4867AA"/><rect x="763" y="37" width="30" height="143" rx="3.343" fill="#4867AA"/><rect x="895.741" y="55.199" width="30" height="125.228" rx="3.343" fill="#4867AA"/><path d="M420.998 285v-13.091h7.849v1.406h-6.264v4.424h5.676v1.406h-5.676V285h-1.585zm8.466 0h-1.662l4.807-13.091h1.636L439.052 285h-1.662l-3.912-11.02h-.102L429.464 285zm.614-5.114h6.699v1.407h-6.699v-1.407zM450.01 276h-1.585a3.306 3.306 0 00-1.336-2.071 3.56 3.56 0 00-1.093-.537 4.378 4.378 0 00-1.253-.179c-.792 0-1.511.2-2.154.601-.639.4-1.148.991-1.528 1.771-.375.779-.562 1.736-.562 2.87 0 1.133.187 2.09.562 2.87.38.779.889 1.37 1.528 1.77a3.99 3.99 0 002.154.601c.435 0 .852-.06 1.253-.179a3.66 3.66 0 001.093-.53c.332-.239.614-.531.844-.876.234-.35.398-.75.492-1.202h1.585a5.257 5.257 0 01-.652 1.796 4.896 4.896 0 01-1.176 1.349 5.145 5.145 0 01-1.579.837 5.873 5.873 0 01-1.86.288c-1.116 0-2.109-.273-2.979-.818-.869-.546-1.553-1.321-2.051-2.327-.499-1.006-.748-2.199-.748-3.579 0-1.381.249-2.574.748-3.58.498-1.006 1.182-1.781 2.051-2.327.87-.545 1.863-.818 2.979-.818.661 0 1.281.096 1.86.288.584.192 1.11.473 1.579.844.469.366.861.813 1.176 1.342.316.524.533 1.123.652 1.796zm1.562 9v-13.091h7.9v1.406h-6.315v4.424h5.906v1.406h-5.906v4.449h6.418V285h-8.003zm9.758 0v-13.091h4.576c.912 0 1.664.158 2.257.473.592.311 1.033.731 1.323 1.259.29.524.435 1.106.435 1.745 0 .563-.101 1.027-.301 1.394a2.338 2.338 0 01-.78.869 3.537 3.537 0 01-1.042.473v.128c.401.026.804.166 1.208.422.405.256.744.622 1.017 1.099.273.478.409 1.061.409 1.752 0 .656-.149 1.246-.448 1.77-.298.524-.769.94-1.412 1.247-.644.307-1.481.46-2.512.46h-4.73zm1.585-1.406h3.145c1.035 0 1.77-.201 2.205-.601.439-.405.658-.895.658-1.47 0-.443-.113-.853-.338-1.228a2.454 2.454 0 00-.966-.907c-.417-.23-.912-.345-1.483-.345h-3.221v4.551zm0-5.932h2.94c.477 0 .908-.094 1.291-.281.388-.188.695-.452.921-.793.23-.341.345-.741.345-1.202 0-.575-.2-1.063-.601-1.463-.4-.405-1.035-.608-1.905-.608h-2.991v4.347zm20.167.793c0 1.38-.249 2.573-.748 3.579-.498 1.006-1.182 1.781-2.052 2.327-.869.545-1.862.818-2.978.818-1.117 0-2.11-.273-2.979-.818-.869-.546-1.553-1.321-2.052-2.327-.498-1.006-.748-2.199-.748-3.579 0-1.381.25-2.574.748-3.58.499-1.006 1.183-1.781 2.052-2.327.869-.545 1.862-.818 2.979-.818 1.116 0 2.109.273 2.978.818.87.546 1.554 1.321 2.052 2.327.499 1.006.748 2.199.748 3.58zm-1.534 0c0-1.134-.19-2.091-.569-2.87-.375-.78-.884-1.371-1.528-1.771a3.956 3.956 0 00-2.147-.601c-.793 0-1.511.2-2.154.601-.64.4-1.149.991-1.528 1.771-.375.779-.563 1.736-.563 2.87 0 1.133.188 2.09.563 2.87.379.779.888 1.37 1.528 1.77a3.987 3.987 0 002.154.601c.792 0 1.508-.2 2.147-.601.644-.4 1.153-.991 1.528-1.77.379-.78.569-1.737.569-2.87zm14.245 0c0 1.38-.249 2.573-.748 3.579-.498 1.006-1.182 1.781-2.052 2.327-.869.545-1.862.818-2.978.818-1.117 0-2.11-.273-2.979-.818-.869-.546-1.553-1.321-2.052-2.327-.498-1.006-.748-2.199-.748-3.579 0-1.381.25-2.574.748-3.58.499-1.006 1.183-1.781 2.052-2.327.869-.545 1.862-.818 2.979-.818 1.116 0 2.109.273 2.978.818.87.546 1.554 1.321 2.052 2.327.499 1.006.748 2.199.748 3.58zm-1.534 0c0-1.134-.19-2.091-.569-2.87-.375-.78-.884-1.371-1.528-1.771a3.956 3.956 0 00-2.147-.601c-.793 0-1.511.2-2.154.601-.64.4-1.149.991-1.528 1.771-.375.779-.563 1.736-.563 2.87 0 1.133.188 2.09.563 2.87.379.779.888 1.37 1.528 1.77a3.987 3.987 0 002.154.601c.792 0 1.508-.2 2.147-.601.644-.4 1.153-.991 1.528-1.77.379-.78.569-1.737.569-2.87zm3.2 6.545v-13.091h1.585v6.494h.153l5.881-6.494h2.071l-5.497 5.906 5.497 7.185h-1.918l-4.551-6.085-1.636 1.841V285h-1.585zm14.804 0v-13.091h7.901v1.406h-6.316v4.424h5.907v1.406h-5.907v4.449h6.418V285h-8.003zm20.139-13.091V285h-1.534l-7.134-10.278h-.128V285h-1.585v-13.091h1.534l7.159 10.304h.128v-10.304h1.56zM543.523 276a4.644 4.644 0 00-.556-1.157 3.585 3.585 0 00-.812-.882 3.41 3.41 0 00-1.061-.556 4.227 4.227 0 00-1.304-.192c-.776 0-1.481.2-2.116.601-.635.4-1.14.991-1.515 1.771-.375.779-.563 1.736-.563 2.87 0 1.133.19 2.09.569 2.87.38.779.893 1.37 1.541 1.77.648.401 1.376.601 2.186.601.75 0 1.41-.16 1.981-.479a3.401 3.401 0 001.343-1.368c.324-.593.486-1.289.486-2.09l.485.102h-3.937v-1.406h4.986v1.406c0 1.078-.23 2.015-.691 2.812a4.766 4.766 0 01-1.892 1.854c-.801.435-1.721.652-2.761.652-1.159 0-2.178-.273-3.055-.818-.874-.546-1.556-1.321-2.046-2.327-.486-1.006-.729-2.199-.729-3.579 0-1.036.139-1.967.416-2.794.281-.831.677-1.538 1.189-2.122a5.189 5.189 0 011.815-1.342 5.613 5.613 0 012.308-.467c.69 0 1.333.105 1.93.313a5.183 5.183 0 011.604.876c.473.375.868.825 1.183 1.349.315.52.533 1.097.652 1.732h-1.636zm3.56 9h-1.662l4.807-13.091h1.637L556.671 285h-1.662l-3.911-11.02h-.103L547.083 285zm.614-5.114h6.699v1.407h-6.699v-1.407zM566.044 276a4.644 4.644 0 00-.556-1.157 3.566 3.566 0 00-.812-.882 3.41 3.41 0 00-1.061-.556 4.222 4.222 0 00-1.304-.192c-.775 0-1.481.2-2.116.601-.635.4-1.14.991-1.515 1.771-.375.779-.562 1.736-.562 2.87 0 1.133.19 2.09.569 2.87.379.779.893 1.37 1.54 1.77.648.401 1.377.601 2.186.601.75 0 1.411-.16 1.982-.479a3.399 3.399 0 001.342-1.368c.324-.593.486-1.289.486-2.09l.486.102h-3.938v-1.406h4.986v1.406c0 1.078-.23 2.015-.69 2.812a4.772 4.772 0 01-1.892 1.854c-.801.435-1.722.652-2.762.652-1.159 0-2.177-.273-3.055-.818-.874-.546-1.555-1.321-2.045-2.327-.486-1.006-.729-2.199-.729-3.579 0-1.036.138-1.967.415-2.794.282-.831.678-1.538 1.189-2.122a5.201 5.201 0 011.816-1.342 5.609 5.609 0 012.307-.467c.69 0 1.334.105 1.931.313.6.205 1.135.497 1.604.876.473.375.867.825 1.182 1.349.316.52.533 1.097.652 1.732h-1.636zm3.428 9v-13.091h7.901v1.406h-6.316v4.424h5.907v1.406h-5.907v4.449h6.418V285h-8.003zm9.758-13.091h1.892l4.449 10.867h.153l4.449-10.867h1.892V285h-1.483v-9.946h-.128l-4.09 9.946h-1.432l-4.091-9.946h-.128V285h-1.483v-13.091zM594.244 285v-13.091h7.9v1.406h-6.315v4.424h5.906v1.406h-5.906v4.449h6.418V285h-8.003zm20.138-13.091V285h-1.534l-7.133-10.278h-.128V285h-1.586v-13.091h1.535l7.159 10.304h.128v-10.304h1.559zm1.456 1.406v-1.406h9.818v1.406h-4.116V285h-1.585v-11.685h-4.117zm15.328-1.406h1.892l4.448 10.867h.154l4.449-10.867h1.892V285h-1.483v-9.946h-.128L638.299 285h-1.432l-4.091-9.946h-.127V285h-1.483v-13.091zM646.179 285v-13.091h7.901v1.406h-6.316v4.424h5.907v1.406h-5.907v4.449h6.418V285h-8.003zm9.042-11.685v-1.406h9.818v1.406h-4.116V285h-1.585v-11.685h-4.117zM666.486 285v-13.091h4.423c1.023 0 1.862.175 2.519.524.656.345 1.142.821 1.457 1.426.315.605.473 1.293.473 2.064 0 .772-.158 1.456-.473 2.052-.315.597-.799 1.065-1.451 1.406-.652.337-1.485.505-2.499.505h-3.58v-1.431h3.529c.698 0 1.261-.103 1.687-.307.43-.205.742-.495.933-.87.196-.379.294-.831.294-1.355s-.098-.982-.294-1.374c-.196-.392-.509-.695-.939-.908-.431-.217-1-.326-1.707-.326h-2.787V285h-1.585zm6.162-5.881l3.221 5.881h-1.841l-3.17-5.881h1.79zm5.937-7.21V285H677v-13.091h1.585zM691.297 276h-1.585a3.306 3.306 0 00-1.336-2.071 3.56 3.56 0 00-1.093-.537 4.373 4.373 0 00-1.253-.179c-.792 0-1.51.2-2.154.601-.639.4-1.148.991-1.528 1.771-.375.779-.562 1.736-.562 2.87 0 1.133.187 2.09.562 2.87.38.779.889 1.37 1.528 1.77a3.992 3.992 0 002.154.601c.435 0 .853-.06 1.253-.179a3.66 3.66 0 001.093-.53c.333-.239.614-.531.844-.876.234-.35.398-.75.492-1.202h1.585a5.257 5.257 0 01-.652 1.796 4.896 4.896 0 01-1.176 1.349 5.145 5.145 0 01-1.579.837 5.873 5.873 0 01-1.86.288c-1.116 0-2.109-.273-2.978-.818-.87-.546-1.554-1.321-2.052-2.327-.499-1.006-.748-2.199-.748-3.579 0-1.381.249-2.574.748-3.58.498-1.006 1.182-1.781 2.052-2.327.869-.545 1.862-.818 2.978-.818.661 0 1.281.096 1.86.288.584.192 1.11.473 1.579.844.469.366.861.813 1.176 1.342.316.524.533 1.123.652 1.796zm61.701 9v-13.091h1.585v11.685h6.085V285h-7.67zm10.71-13.091V285h-1.585v-13.091h1.585zm12.559 0V285h-1.534l-7.134-10.278h-.128V285h-1.585v-13.091h1.534l7.159 10.304h.128v-10.304h1.56zM778.439 285v-13.091h1.585v6.494h.154l5.88-6.494h2.071l-5.497 5.906 5.497 7.185h-1.917l-4.551-6.085-1.637 1.841V285h-1.585zm10.742 0v-13.091h7.901v1.406h-6.316v4.424h5.907v1.406h-5.907v4.449h6.418V285h-8.003zm13.798 0h-4.04v-13.091h4.219c1.27 0 2.356.262 3.26.786.903.52 1.596 1.268 2.077 2.244.482.972.722 2.135.722 3.49 0 1.364-.243 2.538-.728 3.522a5.197 5.197 0 01-2.122 2.263c-.929.524-2.059.786-3.388.786zm-2.455-1.406h2.352c1.083 0 1.98-.209 2.692-.627a3.858 3.858 0 001.591-1.783c.35-.771.524-1.69.524-2.755 0-1.057-.172-1.967-.517-2.729-.346-.767-.861-1.356-1.547-1.765-.686-.413-1.541-.62-2.564-.62h-2.531v10.279zm11.938-11.685V285h-1.586v-13.091h1.586zm12.559 0V285h-1.534l-7.134-10.278h-.128V285h-1.585v-13.091h1.534l7.159 10.304h.128v-10.304h1.56zM831.255 285v-13.091h7.901v1.406h-6.315v4.424h5.906v1.406h-5.906v4.449h6.417V285h-8.003zm20.139-13.091V285h-1.534l-7.134-10.278h-.128V285h-1.585v-13.091h1.534l7.159 10.304h.128v-10.304h1.56zM862.515 276a4.644 4.644 0 00-.556-1.157 3.585 3.585 0 00-.812-.882 3.41 3.41 0 00-1.061-.556 4.222 4.222 0 00-1.304-.192c-.776 0-1.481.2-2.116.601-.635.4-1.14.991-1.515 1.771-.375.779-.562 1.736-.562 2.87 0 1.133.189 2.09.569 2.87.379.779.892 1.37 1.54 1.77.648.401 1.376.601 2.186.601.75 0 1.411-.16 1.982-.479a3.405 3.405 0 001.342-1.368c.324-.593.486-1.289.486-2.09l.486.102h-3.938v-1.406h4.986v1.406c0 1.078-.23 2.015-.69 2.812a4.768 4.768 0 01-1.893 1.854c-.801.435-1.721.652-2.761.652-1.159 0-2.177-.273-3.055-.818-.874-.546-1.556-1.321-2.046-2.327-.486-1.006-.728-2.199-.728-3.579 0-1.036.138-1.967.415-2.794.281-.831.678-1.538 1.189-2.122a5.189 5.189 0 011.815-1.342 5.613 5.613 0 012.308-.467c.69 0 1.334.105 1.93.313a5.2 5.2 0 011.605.876c.473.375.867.825 1.182 1.349.316.52.533 1.097.652 1.732h-1.636zm3.561 9h-1.662l4.806-13.091h1.637L875.664 285h-1.662l-3.912-11.02h-.103L866.076 285zm.613-5.114h6.699v1.407h-6.699v-1.407zM885.036 276a4.61 4.61 0 00-.556-1.157 3.566 3.566 0 00-.812-.882 3.4 3.4 0 00-1.061-.556 4.222 4.222 0 00-1.304-.192c-.775 0-1.48.2-2.115.601-.635.4-1.14.991-1.515 1.771-.375.779-.563 1.736-.563 2.87 0 1.133.19 2.09.569 2.87.379.779.893 1.37 1.541 1.77.647.401 1.376.601 2.186.601.75 0 1.41-.16 1.981-.479a3.399 3.399 0 001.342-1.368c.324-.593.486-1.289.486-2.09l.486.102h-3.937v-1.406h4.985v1.406c0 1.078-.23 2.015-.69 2.812a4.772 4.772 0 01-1.892 1.854c-.801.435-1.722.652-2.761.652-1.159 0-2.178-.273-3.056-.818-.873-.546-1.555-1.321-2.045-2.327-.486-1.006-.729-2.199-.729-3.579 0-1.036.139-1.967.416-2.794.281-.831.677-1.538 1.188-2.122a5.201 5.201 0 011.816-1.342 5.612 5.612 0 012.307-.467c.691 0 1.334.105 1.931.313a5.195 5.195 0 011.604.876c.473.375.867.825 1.183 1.349a5.16 5.16 0 01.652 1.732h-1.637zm3.428 9v-13.091h7.901v1.406h-6.315v4.424h5.906v1.406h-5.906v4.449h6.417V285h-8.003zm9.758-13.091h1.892l4.449 10.867h.154l4.448-10.867h1.892V285h-1.483v-9.946h-.127L905.356 285h-1.432l-4.091-9.946h-.128V285h-1.483v-13.091zM913.236 285v-13.091h7.9v1.406h-6.315v4.424h5.906v1.406h-5.906v4.449h6.418V285h-8.003zm20.138-13.091V285h-1.534l-7.133-10.278h-.128V285h-1.585v-13.091h1.534l7.159 10.304h.128v-10.304h1.559zm1.456 1.406v-1.406h9.819v1.406h-4.117V285h-1.585v-11.685h-4.117zm15.328-1.406h1.892l4.449 10.867h.153l4.449-10.867h1.892V285h-1.483v-9.946h-.128L957.291 285h-1.432l-4.09-9.946h-.128V285h-1.483v-13.091zM965.171 285v-13.091h7.901v1.406h-6.315v4.424h5.906v1.406h-5.906v4.449h6.417V285h-8.003zm9.042-11.685v-1.406h9.818v1.406h-4.116V285h-1.585v-11.685h-4.117zM985.478 285v-13.091h4.423c1.023 0 1.863.175 2.519.524.656.345 1.142.821 1.457 1.426.316.605.473 1.293.473 2.064 0 .772-.157 1.456-.473 2.052-.315.597-.799 1.065-1.451 1.406-.652.337-1.485.505-2.499.505h-3.58v-1.431h3.529c.699 0 1.261-.103 1.687-.307.431-.205.742-.495.934-.87.196-.379.294-.831.294-1.355s-.098-.982-.294-1.374a2.012 2.012 0 00-.94-.908c-.431-.217-.999-.326-1.707-.326h-2.787V285h-1.585zm6.162-5.881l3.222 5.881h-1.841l-3.171-5.881h1.79zm5.937-7.21V285h-1.585v-13.091h1.585zM1010.29 276h-1.59a3.138 3.138 0 00-.49-1.202 3.295 3.295 0 00-.84-.869 3.577 3.577 0 00-1.09-.537 4.447 4.447 0 00-1.26-.179c-.79 0-1.51.2-2.15.601-.64.4-1.15.991-1.53 1.771-.37.779-.56 1.736-.56 2.87 0 1.133.19 2.09.56 2.87.38.779.89 1.37 1.53 1.77.64.401 1.36.601 2.15.601.44 0 .85-.06 1.26-.179.4-.119.76-.296 1.09-.53a3.4 3.4 0 00.84-.876c.24-.35.4-.75.49-1.202h1.59a5.404 5.404 0 01-.65 1.796c-.32.529-.71.978-1.18 1.349-.47.366-.99.646-1.58.837-.58.192-1.2.288-1.86.288-1.11 0-2.11-.273-2.98-.818-.87-.546-1.55-1.321-2.048-2.327-.499-1.006-.748-2.199-.748-3.579 0-1.381.249-2.574.748-3.58.498-1.006 1.178-1.781 2.048-2.327.87-.545 1.87-.818 2.98-.818.66 0 1.28.096 1.86.288a5.028 5.028 0 012.76 2.186c.31.524.53 1.123.65 1.796z" fill="#222B45"/><rect x="391" y="269" width="17.965" height="17.948" rx="8.974" fill="#4867AA"/><rect x="723" y="269" width="17.965" height="17.948" rx="8.974" fill="#0A66C2"/><path d="M103.282 273.315v-1.406h9.818v1.406h-4.117V285h-1.585v-11.685h-4.116zM116.924 285l-3.579-13.091h1.61l2.736 10.662h.128l2.787-10.662h1.79l2.787 10.662h.128l2.735-10.662h1.611L126.078 285h-1.637l-2.889-10.432h-.102L118.561 285h-1.637zm15.294-13.091V285h-1.586v-13.091h1.586zm1.462 1.406v-1.406h9.818v1.406h-4.116V285h-1.585v-11.685h-4.117zm10.549 0v-1.406h9.818v1.406h-4.116V285h-1.586v-11.685h-4.116zM155.494 285v-13.091h7.9v1.406h-6.315v4.424h5.906v1.406h-5.906v4.449h6.418V285h-8.003zm9.757 0v-13.091h4.424c1.023 0 1.862.175 2.518.524.656.345 1.142.821 1.458 1.426.315.605.473 1.293.473 2.064 0 .772-.158 1.456-.473 2.052-.316.597-.799 1.065-1.451 1.406-.652.337-1.485.505-2.5.505h-3.579v-1.431h3.528c.699 0 1.262-.103 1.688-.307.43-.205.741-.495.933-.87.196-.379.294-.831.294-1.355s-.098-.982-.294-1.374c-.196-.392-.509-.695-.94-.908-.43-.217-.999-.326-1.706-.326h-2.787V285h-1.586zm6.162-5.881l3.222 5.881h-1.841l-3.17-5.881h1.789zm8.415 5.881v-13.091h7.9v1.406h-6.315v4.424h5.906v1.406h-5.906v4.449h6.418V285h-8.003zm20.138-13.091V285h-1.534l-7.133-10.278h-.128V285h-1.586v-13.091h1.535l7.159 10.304h.127v-10.304h1.56zM211.087 276a4.644 4.644 0 00-.556-1.157 3.566 3.566 0 00-.812-.882 3.41 3.41 0 00-1.061-.556 4.222 4.222 0 00-1.304-.192c-.775 0-1.481.2-2.116.601-.635.4-1.14.991-1.515 1.771-.375.779-.562 1.736-.562 2.87 0 1.133.19 2.09.569 2.87.379.779.893 1.37 1.54 1.77.648.401 1.377.601 2.186.601.75 0 1.411-.16 1.982-.479a3.399 3.399 0 001.342-1.368c.324-.593.486-1.289.486-2.09l.486.102h-3.938v-1.406h4.986v1.406c0 1.078-.23 2.015-.69 2.812a4.772 4.772 0 01-1.892 1.854c-.801.435-1.722.652-2.762.652-1.159 0-2.177-.273-3.055-.818-.874-.546-1.555-1.321-2.045-2.327-.486-1.006-.729-2.199-.729-3.579 0-1.036.138-1.967.415-2.794.282-.831.678-1.538 1.189-2.122a5.201 5.201 0 011.816-1.342 5.609 5.609 0 012.307-.467c.69 0 1.334.105 1.931.313.6.205 1.135.497 1.604.876.473.375.867.825 1.182 1.349.316.52.533 1.097.652 1.732h-1.636zm3.561 9h-1.662l4.807-13.091h1.636L224.236 285h-1.662l-3.912-11.02h-.102L214.648 285zm.613-5.114h6.699v1.407h-6.699v-1.407zM233.609 276a4.612 4.612 0 00-.557-1.157 3.562 3.562 0 00-.811-.882 3.41 3.41 0 00-1.061-.556 4.227 4.227 0 00-1.304-.192c-.776 0-1.481.2-2.116.601-.635.4-1.14.991-1.515 1.771-.375.779-.563 1.736-.563 2.87 0 1.133.19 2.09.569 2.87.38.779.893 1.37 1.541 1.77.648.401 1.376.601 2.186.601.75 0 1.41-.16 1.981-.479a3.401 3.401 0 001.343-1.368c.324-.593.486-1.289.486-2.09l.485.102h-3.937v-1.406h4.986v1.406c0 1.078-.23 2.015-.691 2.812a4.766 4.766 0 01-1.892 1.854c-.801.435-1.721.652-2.761.652-1.159 0-2.178-.273-3.056-.818-.873-.546-1.555-1.321-2.045-2.327-.486-1.006-.729-2.199-.729-3.579 0-1.036.139-1.967.416-2.794.281-.831.677-1.538 1.189-2.122a5.189 5.189 0 011.815-1.342 5.613 5.613 0 012.308-.467c.69 0 1.333.105 1.93.313a5.183 5.183 0 011.604.876c.473.375.868.825 1.183 1.349.315.52.533 1.097.652 1.732h-1.636zm3.428 9v-13.091h7.9v1.406h-6.315v4.424h5.906v1.406h-5.906v4.449h6.417V285h-8.002zm9.757-13.091h1.893l4.448 10.867h.154l4.449-10.867h1.892V285h-1.483v-9.946h-.128L253.928 285h-1.432l-4.091-9.946h-.128V285h-1.483v-13.091zM261.808 285v-13.091h7.901v1.406h-6.316v4.424h5.907v1.406h-5.907v4.449h6.418V285h-8.003zm20.139-13.091V285h-1.534l-7.134-10.278h-.128V285h-1.585v-13.091h1.534l7.159 10.304h.128v-10.304h1.56zm1.456 1.406v-1.406h9.818v1.406h-4.117V285h-1.585v-11.685h-4.116zm15.327-1.406h1.892l4.449 10.867h.153l4.449-10.867h1.892V285h-1.483v-9.946h-.128l-4.09 9.946h-1.432l-4.091-9.946h-.128V285h-1.483v-13.091zM313.744 285v-13.091h7.9v1.406h-6.315v4.424h5.906v1.406h-5.906v4.449h6.418V285h-8.003zm9.042-11.685v-1.406h9.818v1.406h-4.117V285h-1.585v-11.685h-4.116zM334.05 285v-13.091h4.424c1.022 0 1.862.175 2.518.524.656.345 1.142.821 1.457 1.426.316.605.473 1.293.473 2.064 0 .772-.157 1.456-.473 2.052-.315.597-.799 1.065-1.451 1.406-.652.337-1.485.505-2.499.505h-3.579v-1.431h3.528c.699 0 1.261-.103 1.688-.307.43-.205.741-.495.933-.87.196-.379.294-.831.294-1.355s-.098-.982-.294-1.374c-.196-.392-.509-.695-.94-.908-.43-.217-.999-.326-1.707-.326h-2.786V285h-1.586zm6.162-5.881l3.222 5.881h-1.841l-3.171-5.881h1.79zm5.937-7.21V285h-1.585v-13.091h1.585zM358.862 276h-1.585a3.29 3.29 0 00-.493-1.202 3.275 3.275 0 00-.843-.869 3.582 3.582 0 00-1.093-.537 4.383 4.383 0 00-1.253-.179c-.793 0-1.511.2-2.154.601-.64.4-1.149.991-1.528 1.771-.375.779-.563 1.736-.563 2.87 0 1.133.188 2.09.563 2.87.379.779.888 1.37 1.528 1.77a3.987 3.987 0 002.154.601c.434 0 .852-.06 1.253-.179.4-.119.764-.296 1.093-.53a3.356 3.356 0 001.336-2.078h1.585a5.299 5.299 0 01-.652 1.796 4.929 4.929 0 01-1.176 1.349 5.145 5.145 0 01-1.579.837c-.58.192-1.2.288-1.86.288-1.117 0-2.11-.273-2.979-.818-.869-.546-1.553-1.321-2.052-2.327-.498-1.006-.748-2.199-.748-3.579 0-1.381.25-2.574.748-3.58.499-1.006 1.183-1.781 2.052-2.327.869-.545 1.862-.818 2.979-.818.66 0 1.28.096 1.86.288.584.192 1.11.473 1.579.844.468.366.86.813 1.176 1.342.315.524.532 1.123.652 1.796z" fill="#222B45"/><rect x="74" y="269" width="17.965" height="17.948" rx="8.974" fill="#55ACEF"/><path d="M89.761 197.455h2.103l4.943 12.073h.17l4.943-12.073h2.103V212h-1.648v-11.051h-.142L97.687 212h-1.59l-4.546-11.051h-.142V212h-1.648v-14.545zm20.998 14.772c-.985 0-1.849-.234-2.592-.703-.739-.469-1.317-1.124-1.733-1.967-.412-.843-.618-1.828-.618-2.955 0-1.136.206-2.128.618-2.976.416-.847.994-1.505 1.733-1.974.743-.469 1.607-.703 2.592-.703.985 0 1.846.234 2.585.703.743.469 1.321 1.127 1.733 1.974.417.848.625 1.84.625 2.976 0 1.127-.208 2.112-.625 2.955-.412.843-.99 1.498-1.733 1.967-.739.469-1.6.703-2.585.703zm0-1.505c.748 0 1.364-.192 1.846-.576a3.387 3.387 0 001.073-1.512 5.797 5.797 0 00.348-2.032 5.85 5.85 0 00-.348-2.038 3.433 3.433 0 00-1.073-1.527c-.482-.388-1.098-.582-1.846-.582s-1.364.194-1.847.582c-.483.388-.84.897-1.072 1.527a5.85 5.85 0 00-.348 2.038c0 .729.116 1.407.348 2.032.232.625.589 1.129 1.072 1.512.483.384 1.099.576 1.847.576zm8.178-5.284V212h-1.676v-10.909h1.619v1.704h.142a3.115 3.115 0 011.165-1.335c.521-.341 1.193-.511 2.017-.511.738 0 1.385.151 1.939.454.554.299.985.753 1.292 1.364.308.606.462 1.373.462 2.301V212h-1.676v-6.818c0-.857-.223-1.525-.668-2.003-.445-.483-1.056-.724-1.832-.724-.535 0-1.013.116-1.435.348a2.49 2.49 0 00-.987 1.015c-.241.445-.362.985-.362 1.62zm13.142 6.789c-.909 0-1.711-.229-2.407-.689-.697-.464-1.241-1.117-1.634-1.96-.393-.847-.589-1.849-.589-3.004 0-1.146.196-2.14.589-2.983.393-.843.94-1.494 1.641-1.953.7-.459 1.51-.689 2.429-.689.71 0 1.271.118 1.683.355.417.232.734.497.952.795.222.294.395.535.518.725h.142v-5.369h1.676V212h-1.619v-1.676h-.199c-.123.199-.298.45-.526.753-.227.298-.551.566-.973.802-.421.232-.982.348-1.683.348zm.227-1.505c.673 0 1.241-.176 1.705-.526.464-.355.817-.845 1.058-1.47.242-.63.362-1.357.362-2.181 0-.814-.118-1.527-.355-2.137-.236-.616-.587-1.094-1.051-1.435-.464-.346-1.037-.518-1.719-.518-.71 0-1.302.182-1.775.546-.469.36-.822.85-1.058 1.471-.232.615-.348 1.306-.348 2.073 0 .777.118 1.482.355 2.117.241.63.596 1.132 1.065 1.506.474.369 1.061.554 1.761.554zm10.286 1.534a4.438 4.438 0 01-1.882-.391 3.222 3.222 0 01-1.342-1.143c-.332-.502-.498-1.108-.498-1.819 0-.625.123-1.131.37-1.519a2.61 2.61 0 01.987-.924 5.203 5.203 0 011.364-.497 16.346 16.346 0 011.512-.27 72.061 72.061 0 011.613-.192c.416-.047.719-.125.909-.234.194-.109.291-.298.291-.568v-.057c0-.701-.192-1.245-.575-1.633-.379-.389-.955-.583-1.726-.583-.8 0-1.428.175-1.882.526-.455.35-.775.724-.959 1.122l-1.591-.568c.284-.663.663-1.179 1.136-1.549a4.259 4.259 0 011.563-.781 6.508 6.508 0 011.676-.227c.35 0 .753.042 1.207.128.46.08.902.248 1.328.504.431.256.789.642 1.073 1.158.284.516.426 1.207.426 2.073V212h-1.676v-1.477h-.085c-.114.236-.303.49-.569.76-.265.27-.617.499-1.058.689-.44.189-.978.284-1.612.284zm.256-1.506c.663 0 1.221-.13 1.676-.391.459-.26.805-.596 1.037-1.008.236-.412.355-.845.355-1.3v-1.534c-.071.085-.227.163-.469.234a7.689 7.689 0 01-.824.178c-.308.047-.608.09-.902.128-.289.033-.523.061-.703.085a6.396 6.396 0 00-1.221.277c-.375.123-.678.31-.91.561-.227.246-.34.582-.34 1.009 0 .582.215 1.022.646 1.321.435.293.987.44 1.655.44zm7.492 5.341a3.7 3.7 0 01-.76-.071 2 2 0 01-.461-.128l.426-1.477c.407.104.767.142 1.079.113a1.29 1.29 0 00.831-.419c.246-.246.471-.646.675-1.2l.312-.852-4.034-10.966h1.819l3.011 8.693h.114l3.011-8.693h1.818l-4.631 12.5c-.208.563-.466 1.03-.774 1.399a2.897 2.897 0 01-1.072.831c-.403.18-.857.27-1.364.27zm74.626-17.074v-1.562h10.909v1.562h-4.574V212h-1.761v-12.983h-4.574zm17.791 8.523v-6.449h1.676V212h-1.676v-1.847h-.114a3.58 3.58 0 01-1.193 1.414c-.54.383-1.222.575-2.046.575-.681 0-1.287-.149-1.818-.447-.53-.303-.947-.758-1.25-1.364-.303-.611-.454-1.38-.454-2.308v-6.932h1.676v6.818c0 .796.222 1.43.667 1.903.45.474 1.023.711 1.719.711.417 0 .841-.107 1.272-.32.435-.213.8-.54 1.093-.98.299-.44.448-1.001.448-1.683zm8.32 4.687c-1.051 0-1.958-.232-2.72-.696a4.672 4.672 0 01-1.755-1.96c-.407-.843-.611-1.823-.611-2.94 0-1.118.204-2.103.611-2.955.412-.857.985-1.524 1.719-2.003.739-.483 1.6-.724 2.585-.724.568 0 1.13.095 1.683.284a4.162 4.162 0 011.513.923c.455.422.817.98 1.087 1.676s.405 1.553.405 2.571v.711h-8.409v-1.449h6.704c0-.616-.123-1.165-.369-1.648a2.782 2.782 0 00-1.037-1.143c-.445-.28-.971-.419-1.577-.419-.667 0-1.245.165-1.733.497a3.272 3.272 0 00-1.115 1.278 3.762 3.762 0 00-.39 1.69v.966c0 .824.142 1.523.426 2.096a3.074 3.074 0 001.2 1.299c.511.294 1.106.441 1.783.441.44 0 .838-.062 1.193-.185.36-.128.67-.317.93-.568.261-.256.462-.573.604-.952l1.619.455a3.584 3.584 0 01-.859 1.448c-.403.412-.9.734-1.492.966-.591.228-1.257.341-1.995.341zm13.794-8.693l-1.506.426a2.78 2.78 0 00-.419-.731 2.025 2.025 0 00-.739-.597c-.312-.156-.712-.234-1.2-.234-.668 0-1.224.154-1.669.461-.44.303-.66.689-.66 1.158 0 .417.151.746.454.987.303.242.777.443 1.421.604l1.619.398c.975.236 1.702.599 2.18 1.086.478.483.718 1.106.718 1.868 0 .625-.18 1.184-.54 1.676-.355.493-.852.881-1.492 1.165-.639.284-1.382.426-2.23.426-1.112 0-2.033-.241-2.763-.724-.729-.483-1.19-1.189-1.384-2.117l1.59-.397c.152.587.438 1.027.86 1.321.426.293.982.44 1.669.44.781 0 1.401-.166 1.861-.497.464-.336.696-.739.696-1.208 0-.378-.133-.696-.398-.951-.265-.261-.672-.455-1.222-.583l-1.818-.426c-.999-.237-1.733-.603-2.202-1.101-.464-.502-.696-1.129-.696-1.882 0-.615.173-1.16.519-1.633.35-.474.826-.845 1.427-1.115.607-.27 1.293-.405 2.06-.405 1.08 0 1.927.237 2.543.71a3.839 3.839 0 011.321 1.875zm5.841 8.693c-.909 0-1.712-.229-2.408-.689-.696-.464-1.24-1.117-1.633-1.96-.393-.847-.59-1.849-.59-3.004 0-1.146.197-2.14.59-2.983.393-.843.94-1.494 1.64-1.953.701-.459 1.511-.689 2.429-.689.711 0 1.272.118 1.684.355.416.232.734.497.951.795.223.294.396.535.519.725h.142v-5.369h1.676V212h-1.619v-1.676h-.199c-.123.199-.298.45-.526.753-.227.298-.551.566-.973.802-.421.232-.982.348-1.683.348zm.227-1.505c.673 0 1.241-.176 1.705-.526.464-.355.817-.845 1.058-1.47.242-.63.362-1.357.362-2.181 0-.814-.118-1.527-.355-2.137-.237-.616-.587-1.094-1.051-1.435-.464-.346-1.037-.518-1.719-.518-.71 0-1.302.182-1.775.546-.469.36-.822.85-1.059 1.471-.232.615-.348 1.306-.348 2.073 0 .777.119 1.482.356 2.117.241.63.596 1.132 1.065 1.506.473.369 1.061.554 1.761.554zm10.286 1.534a4.435 4.435 0 01-1.882-.391 3.23 3.23 0 01-1.343-1.143c-.331-.502-.497-1.108-.497-1.819 0-.625.123-1.131.37-1.519a2.61 2.61 0 01.987-.924 5.21 5.21 0 011.363-.497 16.427 16.427 0 011.513-.27c.663-.085 1.2-.149 1.612-.192.417-.047.72-.125.909-.234.195-.109.292-.298.292-.568v-.057c0-.701-.192-1.245-.576-1.633-.378-.389-.954-.583-1.725-.583-.801 0-1.428.175-1.883.526-.454.35-.774.724-.958 1.122l-1.591-.568c.284-.663.663-1.179 1.136-1.549a4.259 4.259 0 011.563-.781 6.503 6.503 0 011.676-.227c.35 0 .753.042 1.207.128.459.08.902.248 1.328.504.431.256.789.642 1.073 1.158.284.516.426 1.207.426 2.073V212h-1.676v-1.477h-.086c-.113.236-.303.49-.568.76-.265.27-.618.499-1.058.689-.44.189-.978.284-1.612.284zm.255-1.506c.663 0 1.222-.13 1.677-.391.459-.26.805-.596 1.037-1.008.236-.412.355-.845.355-1.3v-1.534c-.071.085-.228.163-.469.234a7.689 7.689 0 01-.824.178c-.308.047-.608.09-.902.128-.289.033-.523.061-.703.085a6.406 6.406 0 00-1.222.277c-.374.123-.677.31-.909.561-.227.246-.341.582-.341 1.009 0 .582.216 1.022.647 1.321.435.293.987.44 1.654.44zm7.493 5.341a3.7 3.7 0 01-.76-.071 2.028 2.028 0 01-.462-.128l.427-1.477c.407.104.767.142 1.079.113a1.29 1.29 0 00.831-.419c.246-.246.471-.646.675-1.2l.312-.852-4.034-10.966h1.818l3.012 8.693h.113l3.012-8.693h1.818l-4.631 12.5c-.208.563-.466 1.03-.774 1.399a2.905 2.905 0 01-1.072.831c-.403.18-.857.27-1.364.27zm55.43-4.091l-3.977-14.545h1.79l3.04 11.846h.142l3.096-11.846h1.989l3.097 11.846h.142l3.039-11.846h1.79L354.574 212h-1.818l-3.211-11.591h-.113L346.222 212h-1.819zm18.674.227c-1.051 0-1.958-.232-2.72-.696a4.672 4.672 0 01-1.755-1.96c-.407-.843-.611-1.823-.611-2.94 0-1.118.204-2.103.611-2.955.412-.857.985-1.524 1.719-2.003.739-.483 1.6-.724 2.585-.724.568 0 1.13.095 1.683.284a4.162 4.162 0 011.513.923c.455.422.817.98 1.087 1.676s.405 1.553.405 2.571v.711h-8.409v-1.449h6.704c0-.616-.123-1.165-.369-1.648a2.782 2.782 0 00-1.037-1.143c-.445-.28-.971-.419-1.577-.419-.667 0-1.245.165-1.733.497a3.272 3.272 0 00-1.115 1.278 3.762 3.762 0 00-.39 1.69v.966c0 .824.142 1.523.426 2.096a3.074 3.074 0 001.2 1.299c.511.294 1.106.441 1.783.441.44 0 .838-.062 1.193-.185.36-.128.67-.317.93-.568.261-.256.462-.573.604-.952l1.619.455a3.584 3.584 0 01-.859 1.448c-.403.412-.9.734-1.492.966-.591.228-1.257.341-1.995.341zm10.186 0c-.909 0-1.712-.229-2.408-.689-.696-.464-1.24-1.117-1.633-1.96-.393-.847-.59-1.849-.59-3.004 0-1.146.197-2.14.59-2.983.393-.843.939-1.494 1.64-1.953.701-.459 1.511-.689 2.429-.689.71 0 1.272.118 1.683.355.417.232.734.497.952.795.223.294.395.535.519.725h.142v-5.369h1.676V212h-1.62v-1.676h-.198c-.124.199-.299.45-.526.753-.227.298-.552.566-.973.802-.421.232-.982.348-1.683.348zm.227-1.505c.672 0 1.241-.176 1.705-.526.464-.355.816-.845 1.058-1.47.241-.63.362-1.357.362-2.181 0-.814-.118-1.527-.355-2.137-.237-.616-.587-1.094-1.051-1.435-.464-.346-1.037-.518-1.719-.518-.71 0-1.302.182-1.776.546-.468.36-.821.85-1.058 1.471-.232.615-.348 1.306-.348 2.073 0 .777.119 1.482.355 2.117.242.63.597 1.132 1.066 1.506.473.369 1.06.554 1.761.554zm8.751-5.284V212h-1.676v-10.909h1.62v1.704h.142a3.113 3.113 0 011.164-1.335c.521-.341 1.194-.511 2.018-.511.738 0 1.384.151 1.938.454.554.299.985.753 1.293 1.364.308.606.462 1.373.462 2.301V212h-1.676v-6.818c0-.857-.223-1.525-.668-2.003-.445-.483-1.056-.724-1.832-.724-.535 0-1.014.116-1.435.348-.417.232-.746.57-.987 1.015-.242.445-.363.985-.363 1.62zm13.597 6.789c-1.051 0-1.957-.232-2.72-.696a4.677 4.677 0 01-1.754-1.96c-.407-.843-.611-1.823-.611-2.94 0-1.118.204-2.103.611-2.955.412-.857.985-1.524 1.719-2.003.738-.483 1.6-.724 2.585-.724.568 0 1.129.095 1.683.284a4.17 4.17 0 011.513.923c.455.422.817.98 1.087 1.676s.404 1.553.404 2.571v.711h-8.409v-1.449h6.705c0-.616-.123-1.165-.369-1.648a2.788 2.788 0 00-1.037-1.143c-.445-.28-.971-.419-1.577-.419-.668 0-1.245.165-1.733.497a3.264 3.264 0 00-1.115 1.278 3.762 3.762 0 00-.391 1.69v.966c0 .824.142 1.523.426 2.096a3.07 3.07 0 001.201 1.299c.511.294 1.105.441 1.782.441.441 0 .838-.062 1.194-.185.359-.128.67-.317.93-.568.26-.256.462-.573.604-.952l1.619.455a3.584 3.584 0 01-.859 1.448c-.403.412-.9.734-1.492.966-.592.228-1.257.341-1.996.341zm13.794-8.693l-1.505.426a2.808 2.808 0 00-.419-.731 2.025 2.025 0 00-.739-.597c-.312-.156-.712-.234-1.2-.234-.668 0-1.224.154-1.669.461-.441.303-.661.689-.661 1.158 0 .417.152.746.455.987.303.242.776.443 1.42.604l1.62.398c.975.236 1.702.599 2.18 1.086.478.483.717 1.106.717 1.868 0 .625-.18 1.184-.539 1.676-.356.493-.853.881-1.492 1.165-.639.284-1.383.426-2.23.426-1.113 0-2.034-.241-2.763-.724-.729-.483-1.191-1.189-1.385-2.117l1.591-.397c.152.587.438 1.027.86 1.321.426.293.982.44 1.669.44.781 0 1.401-.166 1.86-.497.464-.336.696-.739.696-1.208 0-.378-.132-.696-.397-.951-.266-.261-.673-.455-1.222-.583l-1.818-.426c-.999-.237-1.733-.603-2.202-1.101-.464-.502-.696-1.129-.696-1.882 0-.615.173-1.16.519-1.633.35-.474.826-.845 1.427-1.115.606-.27 1.293-.405 2.06-.405 1.079 0 1.927.237 2.542.71a3.826 3.826 0 011.321 1.875zm5.842 8.693c-.909 0-1.712-.229-2.408-.689-.696-.464-1.24-1.117-1.633-1.96-.393-.847-.59-1.849-.59-3.004 0-1.146.197-2.14.59-2.983.393-.843.939-1.494 1.64-1.953.701-.459 1.511-.689 2.429-.689.71 0 1.271.118 1.683.355.417.232.734.497.952.795.223.294.395.535.519.725h.142v-5.369h1.676V212h-1.62v-1.676h-.198c-.124.199-.299.45-.526.753-.227.298-.552.566-.973.802-.421.232-.983.348-1.683.348zm.227-1.505c.672 0 1.241-.176 1.705-.526.464-.355.816-.845 1.058-1.47.241-.63.362-1.357.362-2.181 0-.814-.118-1.527-.355-2.137-.237-.616-.587-1.094-1.051-1.435-.464-.346-1.037-.518-1.719-.518-.71 0-1.302.182-1.776.546-.468.36-.821.85-1.058 1.471-.232.615-.348 1.306-.348 2.073 0 .777.119 1.482.355 2.117.242.63.597 1.132 1.066 1.506.473.369 1.06.554 1.761.554zm10.286 1.534a4.443 4.443 0 01-1.883-.391 3.234 3.234 0 01-1.342-1.143c-.331-.502-.497-1.108-.497-1.819 0-.625.123-1.131.369-1.519.246-.393.576-.701.987-.924a5.216 5.216 0 011.364-.497 16.367 16.367 0 011.513-.27c.663-.085 1.2-.149 1.612-.192.417-.047.72-.125.909-.234.194-.109.291-.298.291-.568v-.057c0-.701-.191-1.245-.575-1.633-.379-.389-.954-.583-1.726-.583-.8 0-1.427.175-1.882.526-.454.35-.774.724-.959 1.122l-1.591-.568c.285-.663.663-1.179 1.137-1.549a4.262 4.262 0 011.562-.781 6.508 6.508 0 011.676-.227c.351 0 .753.042 1.208.128.459.08.902.248 1.328.504.431.256.788.642 1.072 1.158.284.516.427 1.207.427 2.073V212h-1.677v-1.477h-.085c-.113.236-.303.49-.568.76-.265.27-.618.499-1.058.689-.441.189-.978.284-1.612.284zm.255-1.506c.663 0 1.222-.13 1.676-.391.46-.26.805-.596 1.037-1.008.237-.412.355-.845.355-1.3v-1.534c-.071.085-.227.163-.468.234a7.743 7.743 0 01-.824.178c-.308.047-.609.09-.902.128-.289.033-.523.061-.703.085a6.406 6.406 0 00-1.222.277c-.374.123-.677.31-.909.561-.227.246-.341.582-.341 1.009 0 .582.215 1.022.646 1.321.436.293.988.44 1.655.44zm7.493 5.341c-.284 0-.538-.024-.76-.071a1.997 1.997 0 01-.462-.128l.426-1.477c.407.104.767.142 1.08.113.312-.028.589-.168.831-.419.246-.246.471-.646.675-1.2l.312-.852-4.034-10.966h1.818l3.011 8.693h.114l3.011-8.693h1.819l-4.631 12.5c-.208.563-.466 1.03-.774 1.399a2.9 2.9 0 01-1.073.831c-.402.18-.857.27-1.363.27zm43.231-17.074v-1.562h10.909v1.562h-4.574V212h-1.761v-12.983h-4.574zm14.076 6.421V212h-1.676v-14.545h1.676v5.34h.142c.256-.563.64-1.01 1.151-1.342.516-.336 1.203-.504 2.06-.504.743 0 1.394.149 1.953.447.558.294.992.746 1.299 1.357.313.606.469 1.378.469 2.315V212h-1.676v-6.818c0-.867-.225-1.537-.675-2.01-.445-.478-1.063-.717-1.853-.717-.55 0-1.042.116-1.478.348a2.54 2.54 0 00-1.022 1.015c-.247.445-.37.985-.37 1.62zm16.016 2.102v-6.449h1.676V212h-1.676v-1.847h-.114a3.587 3.587 0 01-1.193 1.414c-.54.383-1.222.575-2.046.575-.682 0-1.288-.149-1.818-.447-.53-.303-.947-.758-1.25-1.364-.303-.611-.454-1.38-.454-2.308v-6.932h1.676v6.818c0 .796.222 1.43.667 1.903.45.474 1.023.711 1.719.711.417 0 .84-.107 1.271-.32.436-.213.801-.54 1.094-.98.298-.44.448-1.001.448-1.683zm3.746 4.46v-10.909h1.619v1.648h.114c.198-.54.558-.978 1.079-1.314a3.18 3.18 0 011.761-.505c.124 0 .277.003.462.008.185.004.324.011.419.021v1.704a5.436 5.436 0 00-.39-.064 3.87 3.87 0 00-.633-.049c-.53 0-1.003.111-1.42.334-.412.217-.739.52-.98.909a2.445 2.445 0 00-.355 1.314V212h-1.676zm14.168-8.466l-1.505.426a2.808 2.808 0 00-.419-.731 2.033 2.033 0 00-.739-.597c-.313-.156-.713-.234-1.2-.234-.668 0-1.224.154-1.669.461-.441.303-.661.689-.661 1.158 0 .417.152.746.455.987.303.242.776.443 1.42.604l1.619.398c.976.236 1.703.599 2.181 1.086.478.483.717 1.106.717 1.868 0 .625-.18 1.184-.54 1.676-.355.493-.852.881-1.491 1.165-.639.284-1.383.426-2.23.426-1.113 0-2.034-.241-2.763-.724-.729-.483-1.191-1.189-1.385-2.117l1.591-.397c.151.587.438 1.027.859 1.321.426.293.983.44 1.669.44.782 0 1.402-.166 1.861-.497.464-.336.696-.739.696-1.208 0-.378-.132-.696-.398-.951-.265-.261-.672-.455-1.221-.583l-1.818-.426c-.999-.237-1.733-.603-2.202-1.101-.464-.502-.696-1.129-.696-1.882a2.7 2.7 0 01.518-1.633c.351-.474.827-.845 1.428-1.115.606-.27 1.293-.405 2.06-.405 1.079 0 1.927.237 2.542.71a3.826 3.826 0 011.321 1.875zm5.842 8.693c-.91 0-1.712-.229-2.408-.689-.696-.464-1.241-1.117-1.634-1.96-.393-.847-.589-1.849-.589-3.004 0-1.146.196-2.14.589-2.983.393-.843.94-1.494 1.641-1.953.701-.459 1.51-.689 2.429-.689.71 0 1.271.118 1.683.355.417.232.734.497.952.795.222.294.395.535.518.725h.142v-5.369h1.677V212h-1.62v-1.676h-.199c-.123.199-.298.45-.525.753-.227.298-.552.566-.973.802-.422.232-.983.348-1.683.348zm.227-1.505c.672 0 1.24-.176 1.704-.526.464-.355.817-.845 1.059-1.47.241-.63.362-1.357.362-2.181 0-.814-.119-1.527-.355-2.137-.237-.616-.587-1.094-1.051-1.435-.464-.346-1.037-.518-1.719-.518-.71 0-1.302.182-1.776.546-.468.36-.821.85-1.058 1.471-.232.615-.348 1.306-.348 2.073 0 .777.118 1.482.355 2.117.242.63.597 1.132 1.065 1.506.474.369 1.061.554 1.762.554zm10.285 1.534a4.442 4.442 0 01-1.882-.391 3.228 3.228 0 01-1.342-1.143c-.332-.502-.497-1.108-.497-1.819 0-.625.123-1.131.369-1.519a2.61 2.61 0 01.987-.924 5.216 5.216 0 011.364-.497 16.367 16.367 0 011.513-.27c.663-.085 1.2-.149 1.612-.192.417-.047.72-.125.909-.234.194-.109.291-.298.291-.568v-.057c0-.701-.192-1.245-.575-1.633-.379-.389-.954-.583-1.726-.583-.8 0-1.427.175-1.882.526-.455.35-.774.724-.959 1.122l-1.591-.568c.284-.663.663-1.179 1.137-1.549a4.262 4.262 0 011.562-.781 6.508 6.508 0 011.676-.227c.351 0 .753.042 1.208.128.459.08.902.248 1.328.504.431.256.788.642 1.072 1.158.284.516.426 1.207.426 2.073V212h-1.676v-1.477h-.085c-.114.236-.303.49-.568.76-.265.27-.618.499-1.058.689-.441.189-.978.284-1.613.284zm.256-1.506c.663 0 1.222-.13 1.676-.391.459-.26.805-.596 1.037-1.008.237-.412.355-.845.355-1.3v-1.534c-.071.085-.227.163-.469.234a7.666 7.666 0 01-.823.178c-.308.047-.609.09-.902.128-.289.033-.524.061-.704.085a6.413 6.413 0 00-1.221.277c-.374.123-.677.31-.909.561-.227.246-.341.582-.341 1.009 0 .582.215 1.022.646 1.321.436.293.987.44 1.655.44zm7.493 5.341c-.285 0-.538-.024-.76-.071a1.997 1.997 0 01-.462-.128l.426-1.477c.407.104.767.142 1.08.113.312-.028.589-.168.831-.419.246-.246.471-.646.674-1.2l.313-.852-4.034-10.966h1.818l3.011 8.693h.114l3.011-8.693h1.818l-4.63 12.5c-.209.563-.467 1.03-.774 1.399a2.908 2.908 0 01-1.073.831c-.402.18-.857.27-1.363.27zM628.761 212v-14.545h8.722v1.562h-6.96v4.915h6.307v1.562h-6.307V212h-1.762zm10.394 0v-10.909h1.62v1.648h.113c.199-.54.559-.978 1.08-1.314a3.18 3.18 0 011.761-.505c.123 0 .277.003.462.008.184.004.324.011.419.021v1.704a5.397 5.397 0 00-.391-.064 3.858 3.858 0 00-.632-.049 2.96 2.96 0 00-1.42.334c-.412.217-.739.52-.981.909a2.454 2.454 0 00-.355 1.314V212h-1.676zm6.442 0v-10.909h1.676V212h-1.676zm.852-12.727c-.327 0-.609-.112-.845-.334a1.073 1.073 0 01-.348-.803c0-.312.116-.58.348-.802.236-.223.518-.334.845-.334.327 0 .606.111.838.334.237.222.355.49.355.802 0 .313-.118.58-.355.803a1.169 1.169 0 01-.838.334zm7.013 12.954c-.909 0-1.712-.229-2.408-.689-.696-.464-1.24-1.117-1.633-1.96-.393-.847-.59-1.849-.59-3.004 0-1.146.197-2.14.59-2.983.393-.843.94-1.494 1.64-1.953.701-.459 1.511-.689 2.429-.689.711 0 1.272.118 1.684.355.416.232.734.497.951.795.223.294.396.535.519.725h.142v-5.369h1.676V212h-1.619v-1.676h-.199c-.123.199-.298.45-.526.753-.227.298-.551.566-.973.802-.421.232-.982.348-1.683.348zm.227-1.505c.673 0 1.241-.176 1.705-.526.464-.355.817-.845 1.058-1.47.242-.63.362-1.357.362-2.181 0-.814-.118-1.527-.355-2.137-.237-.616-.587-1.094-1.051-1.435-.464-.346-1.037-.518-1.719-.518-.71 0-1.302.182-1.775.546-.469.36-.822.85-1.059 1.471-.232.615-.348 1.306-.348 2.073 0 .777.119 1.482.356 2.117.241.63.596 1.132 1.065 1.506.473.369 1.061.554 1.761.554zm10.286 1.534a4.435 4.435 0 01-1.882-.391 3.23 3.23 0 01-1.343-1.143c-.331-.502-.497-1.108-.497-1.819 0-.625.123-1.131.37-1.519a2.61 2.61 0 01.987-.924 5.21 5.21 0 011.363-.497 16.427 16.427 0 011.513-.27c.663-.085 1.2-.149 1.612-.192.417-.047.72-.125.909-.234.195-.109.292-.298.292-.568v-.057c0-.701-.192-1.245-.576-1.633-.378-.389-.954-.583-1.725-.583-.801 0-1.428.175-1.883.526-.454.35-.774.724-.958 1.122l-1.591-.568c.284-.663.663-1.179 1.136-1.549a4.259 4.259 0 011.563-.781 6.503 6.503 0 011.676-.227c.35 0 .753.042 1.207.128.459.08.902.248 1.328.504.431.256.789.642 1.073 1.158.284.516.426 1.207.426 2.073V212h-1.676v-1.477h-.086c-.113.236-.303.49-.568.76-.265.27-.618.499-1.058.689-.44.189-.978.284-1.612.284zm.255-1.506c.663 0 1.222-.13 1.677-.391.459-.26.805-.596 1.037-1.008.236-.412.355-.845.355-1.3v-1.534c-.071.085-.228.163-.469.234a7.689 7.689 0 01-.824.178c-.308.047-.608.09-.902.128-.289.033-.523.061-.703.085a6.406 6.406 0 00-1.222.277c-.374.123-.677.31-.909.561-.227.246-.341.582-.341 1.009 0 .582.216 1.022.647 1.321.435.293.987.44 1.654.44zm7.493 5.341a3.7 3.7 0 01-.76-.071 2.028 2.028 0 01-.462-.128l.427-1.477c.407.104.767.142 1.079.113a1.29 1.29 0 00.831-.419c.246-.246.471-.646.675-1.2l.312-.852-4.034-10.966h1.818l3.012 8.693h.113l3.012-8.693h1.818l-4.631 12.5c-.208.563-.466 1.03-.774 1.399a2.905 2.905 0 01-1.072.831c-.403.18-.857.27-1.364.27zm81.993-15a2.227 2.227 0 00-1.037-1.676c-.606-.398-1.349-.597-2.23-.597-.644 0-1.208.104-1.69.313-.479.208-.853.494-1.123.859a2.061 2.061 0 00-.397 1.243c0 .388.092.722.277 1.001.189.275.43.505.724.689.294.18.601.329.923.448.322.113.618.206.888.277l1.477.397c.379.1.801.237 1.265.412.468.176.916.415 1.342.718a3.65 3.65 0 011.065 1.15c.28.469.419 1.044.419 1.726a3.83 3.83 0 01-.618 2.131c-.407.634-1.003 1.139-1.789 1.513-.782.374-1.731.561-2.848.561-1.042 0-1.944-.168-2.706-.505-.758-.336-1.354-.805-1.79-1.406-.431-.601-.675-1.3-.732-2.095h1.819c.047.549.232 1.004.554 1.364.326.355.738.62 1.235.795a4.992 4.992 0 001.62.256c.672 0 1.276-.109 1.811-.327.535-.222.959-.53 1.271-.923.313-.398.469-.862.469-1.392 0-.483-.135-.876-.405-1.179-.27-.303-.625-.549-1.065-.739a11.313 11.313 0 00-1.428-.497l-1.79-.511c-1.136-.327-2.036-.793-2.699-1.4-.662-.606-.994-1.399-.994-2.379 0-.814.22-1.524.661-2.13.445-.611 1.041-1.085 1.789-1.421.753-.341 1.594-.511 2.522-.511.937 0 1.771.168 2.5.504.729.331 1.307.786 1.733 1.364.431.577.658 1.233.681 1.967h-1.704zm6.782 11.165a4.442 4.442 0 01-1.882-.391 3.228 3.228 0 01-1.342-1.143c-.332-.502-.497-1.108-.497-1.819 0-.625.123-1.131.369-1.519a2.61 2.61 0 01.987-.924 5.216 5.216 0 011.364-.497 16.367 16.367 0 011.513-.27c.662-.085 1.2-.149 1.612-.192.416-.047.72-.125.909-.234.194-.109.291-.298.291-.568v-.057c0-.701-.192-1.245-.575-1.633-.379-.389-.954-.583-1.726-.583-.8 0-1.428.175-1.882.526-.455.35-.774.724-.959 1.122l-1.591-.568c.284-.663.663-1.179 1.136-1.549.479-.374 1-.634 1.563-.781a6.508 6.508 0 011.676-.227c.351 0 .753.042 1.208.128.459.08.902.248 1.328.504.431.256.788.642 1.072 1.158.284.516.426 1.207.426 2.073V212h-1.676v-1.477h-.085c-.114.236-.303.49-.568.76-.265.27-.618.499-1.059.689-.44.189-.977.284-1.612.284zm.256-1.506c.663 0 1.221-.13 1.676-.391.459-.26.805-.596 1.037-1.008.237-.412.355-.845.355-1.3v-1.534c-.071.085-.227.163-.469.234a7.636 7.636 0 01-.824.178c-.307.047-.608.09-.902.128a40.94 40.94 0 00-.703.085 6.413 6.413 0 00-1.221.277c-.374.123-.677.31-.909.561-.228.246-.341.582-.341 1.009 0 .582.215 1.022.646 1.321.436.293.987.44 1.655.44zm11.548-9.659v1.42h-5.654v-1.42h5.654zm-4.006-2.614h1.676v10.398c0 .473.069.829.206 1.065.142.232.322.389.54.469.223.076.457.114.703.114.185 0 .336-.01.455-.029l.284-.056.341 1.505a3.449 3.449 0 01-.476.128 3.529 3.529 0 01-.774.071c-.474 0-.938-.102-1.392-.305a2.764 2.764 0 01-1.122-.931c-.294-.416-.441-.942-.441-1.576v-10.853zm12.402 9.063v-6.449h1.676V212h-1.676v-1.847h-.113a3.582 3.582 0 01-1.194 1.414c-.539.383-1.221.575-2.045.575-.682 0-1.288-.149-1.818-.447-.531-.303-.947-.758-1.25-1.364-.303-.611-.455-1.38-.455-2.308v-6.932h1.676v6.818c0 .796.223 1.43.668 1.903.45.474 1.023.711 1.719.711.416 0 .84-.107 1.271-.32.436-.213.8-.54 1.094-.98.298-.44.447-1.001.447-1.683zm3.746 4.46v-10.909h1.62v1.648h.113c.199-.54.559-.978 1.08-1.314a3.18 3.18 0 011.761-.505c.123 0 .277.003.462.008.184.004.324.011.419.021v1.704a5.397 5.397 0 00-.391-.064 3.858 3.858 0 00-.632-.049 2.96 2.96 0 00-1.42.334c-.412.217-.739.52-.981.909a2.454 2.454 0 00-.355 1.314V212h-1.676zm10.229.227c-.909 0-1.712-.229-2.408-.689-.696-.464-1.24-1.117-1.633-1.96-.393-.847-.59-1.849-.59-3.004 0-1.146.197-2.14.59-2.983.393-.843.94-1.494 1.64-1.953.701-.459 1.511-.689 2.429-.689.711 0 1.272.118 1.684.355.416.232.733.497.951.795.223.294.396.535.519.725h.142v-5.369h1.676V212h-1.619v-1.676h-.199c-.123.199-.299.45-.526.753-.227.298-.551.566-.973.802-.421.232-.982.348-1.683.348zm.227-1.505c.673 0 1.241-.176 1.705-.526.464-.355.817-.845 1.058-1.47.241-.63.362-1.357.362-2.181 0-.814-.118-1.527-.355-2.137-.237-.616-.587-1.094-1.051-1.435-.464-.346-1.037-.518-1.719-.518-.71 0-1.302.182-1.775.546-.469.36-.822.85-1.059 1.471-.232.615-.348 1.306-.348 2.073 0 .777.119 1.482.356 2.117.241.63.596 1.132 1.065 1.506.473.369 1.06.554 1.761.554zm10.286 1.534a4.435 4.435 0 01-1.882-.391 3.23 3.23 0 01-1.343-1.143c-.331-.502-.497-1.108-.497-1.819 0-.625.123-1.131.369-1.519a2.62 2.62 0 01.988-.924 5.21 5.21 0 011.363-.497 16.367 16.367 0 011.513-.27c.663-.085 1.2-.149 1.612-.192.417-.047.72-.125.909-.234.195-.109.292-.298.292-.568v-.057c0-.701-.192-1.245-.576-1.633-.378-.389-.954-.583-1.726-.583-.8 0-1.427.175-1.882.526-.454.35-.774.724-.958 1.122l-1.591-.568c.284-.663.663-1.179 1.136-1.549a4.262 4.262 0 011.562-.781 6.516 6.516 0 011.677-.227c.35 0 .752.042 1.207.128.459.08.902.248 1.328.504.431.256.788.642 1.073 1.158.284.516.426 1.207.426 2.073V212h-1.676v-1.477h-.086c-.113.236-.303.49-.568.76-.265.27-.618.499-1.058.689-.44.189-.978.284-1.612.284zm.255-1.506c.663 0 1.222-.13 1.677-.391.459-.26.804-.596 1.036-1.008.237-.412.356-.845.356-1.3v-1.534c-.071.085-.228.163-.469.234a7.743 7.743 0 01-.824.178c-.308.047-.608.09-.902.128-.289.033-.523.061-.703.085a6.406 6.406 0 00-1.222.277c-.374.123-.677.31-.909.561-.227.246-.341.582-.341 1.009 0 .582.216 1.022.647 1.321.435.293.987.44 1.654.44zm7.493 5.341a3.7 3.7 0 01-.76-.071 2.012 2.012 0 01-.462-.128l.426-1.477c.408.104.768.142 1.08.113a1.29 1.29 0 00.831-.419c.246-.246.471-.646.675-1.2l.312-.852-4.034-10.966h1.818l3.012 8.693h.113l3.012-8.693h1.818l-4.631 12.5c-.208.563-.466 1.03-.774 1.399a2.905 2.905 0 01-1.072.831c-.403.18-.857.27-1.364.27zm76.782-15a2.227 2.227 0 00-1.037-1.676c-.606-.398-1.349-.597-2.23-.597-.644 0-1.208.104-1.69.313-.479.208-.853.494-1.123.859a2.061 2.061 0 00-.397 1.243c0 .388.092.722.277 1.001.189.275.43.505.724.689.294.18.601.329.923.448.322.113.618.206.888.277l1.477.397c.379.1.801.237 1.265.412.468.176.916.415 1.342.718a3.65 3.65 0 011.065 1.15c.28.469.419 1.044.419 1.726a3.83 3.83 0 01-.618 2.131c-.407.634-1.003 1.139-1.789 1.513-.782.374-1.731.561-2.848.561-1.042 0-1.944-.168-2.706-.505-.758-.336-1.354-.805-1.79-1.406-.431-.601-.675-1.3-.732-2.095h1.819c.047.549.232 1.004.554 1.364.326.355.738.62 1.235.795a4.992 4.992 0 001.62.256c.672 0 1.276-.109 1.811-.327.535-.222.959-.53 1.271-.923.313-.398.469-.862.469-1.392 0-.483-.135-.876-.405-1.179-.27-.303-.625-.549-1.065-.739a11.313 11.313 0 00-1.428-.497l-1.79-.511c-1.136-.327-2.036-.793-2.699-1.4-.662-.606-.994-1.399-.994-2.379 0-.814.22-1.524.661-2.13.445-.611 1.041-1.085 1.789-1.421.753-.341 1.594-.511 2.522-.511.937 0 1.771.168 2.5.504.729.331 1.307.786 1.733 1.364.431.577.658 1.233.681 1.967h-1.704zm10.447 6.449v-6.449h1.676V212h-1.676v-1.847h-.114a3.57 3.57 0 01-1.193 1.414c-.54.383-1.221.575-2.045.575-.682 0-1.288-.149-1.818-.447-.531-.303-.947-.758-1.25-1.364-.303-.611-.455-1.38-.455-2.308v-6.932h1.676v6.818c0 .796.223 1.43.668 1.903.45.474 1.022.711 1.718.711.417 0 .841-.107 1.272-.32.435-.213.8-.54 1.094-.98.298-.44.447-1.001.447-1.683zm5.422-2.102V212h-1.676v-10.909h1.619v1.704h.142a3.115 3.115 0 011.165-1.335c.521-.341 1.193-.511 2.017-.511.739 0 1.385.151 1.939.454.554.299.985.753 1.293 1.364.308.606.461 1.373.461 2.301V212h-1.676v-6.818c0-.857-.222-1.525-.667-2.003-.445-.483-1.056-.724-1.833-.724-.535 0-1.013.116-1.434.348-.417.232-.746.57-.988 1.015-.241.445-.362.985-.362 1.62zm13.143 6.789c-.909 0-1.712-.229-2.408-.689-.696-.464-1.241-1.117-1.634-1.96-.393-.847-.589-1.849-.589-3.004 0-1.146.196-2.14.589-2.983.393-.843.94-1.494 1.641-1.953.701-.459 1.51-.689 2.429-.689.71 0 1.271.118 1.683.355.417.232.734.497.952.795.223.294.395.535.518.725h.142v-5.369h1.677V212h-1.62v-1.676h-.199c-.123.199-.298.45-.525.753-.227.298-.552.566-.973.802-.422.232-.983.348-1.683.348zm.227-1.505c.672 0 1.24-.176 1.704-.526.464-.355.817-.845 1.059-1.47.241-.63.362-1.357.362-2.181 0-.814-.118-1.527-.355-2.137-.237-.616-.587-1.094-1.051-1.435-.464-.346-1.037-.518-1.719-.518-.71 0-1.302.182-1.776.546-.468.36-.821.85-1.058 1.471-.232.615-.348 1.306-.348 2.073 0 .777.118 1.482.355 2.117.242.63.597 1.132 1.066 1.506.473.369 1.06.554 1.761.554zm10.285 1.534a4.442 4.442 0 01-1.882-.391 3.228 3.228 0 01-1.342-1.143c-.331-.502-.497-1.108-.497-1.819 0-.625.123-1.131.369-1.519a2.61 2.61 0 01.987-.924 5.216 5.216 0 011.364-.497 16.367 16.367 0 011.513-.27c.663-.085 1.2-.149 1.612-.192.417-.047.72-.125.909-.234.194-.109.291-.298.291-.568v-.057c0-.701-.191-1.245-.575-1.633-.379-.389-.954-.583-1.726-.583-.8 0-1.427.175-1.882.526-.455.35-.774.724-.959 1.122l-1.591-.568c.284-.663.663-1.179 1.137-1.549a4.262 4.262 0 011.562-.781 6.508 6.508 0 011.676-.227c.351 0 .753.042 1.208.128.459.08.902.248 1.328.504.431.256.788.642 1.072 1.158.284.516.426 1.207.426 2.073V212h-1.676v-1.477h-.085c-.114.236-.303.49-.568.76-.265.27-.618.499-1.058.689-.441.189-.978.284-1.613.284zm.256-1.506c.663 0 1.222-.13 1.676-.391.46-.26.805-.596 1.037-1.008.237-.412.355-.845.355-1.3v-1.534c-.071.085-.227.163-.468.234a7.743 7.743 0 01-.824.178c-.308.047-.609.09-.902.128a38.62 38.62 0 00-.703.085 6.406 6.406 0 00-1.222.277c-.374.123-.677.31-.909.561-.227.246-.341.582-.341 1.009 0 .582.215 1.022.646 1.321.436.293.987.44 1.655.44zm7.493 5.341c-.284 0-.538-.024-.76-.071a1.997 1.997 0 01-.462-.128l.426-1.477c.407.104.767.142 1.08.113.312-.028.589-.168.831-.419.246-.246.471-.646.674-1.2l.313-.852-4.034-10.966h1.818l3.011 8.693H940l3.011-8.693h1.819l-4.631 12.5c-.208.563-.467 1.03-.774 1.399a2.908 2.908 0 01-1.073.831c-.402.18-.857.27-1.363.27z" fill="#7B91B0"/></svg>