<svg width="189" height="56" viewBox="0 0 189 56" fill="none" xmlns="http://www.w3.org/2000/svg"><path fill-rule="evenodd" clip-rule="evenodd" d="M30.334 3.576A2.713 2.713 0 0027.619.864a2.713 2.713 0 00-2.714 2.712v5.43H11.338C5.345 9.005.483 13.863.483 19.857v8.14c0 5.997 4.862 10.856 10.855 10.856H43.9c5.994 0 10.855-4.859 10.855-10.855v-8.141c0-5.994-4.861-10.853-10.855-10.853H30.334V3.576zm18.992 16.282a5.426 5.426 0 00-5.426-5.426H11.338a5.426 5.426 0 00-5.426 5.426V28c0 3 2.43 5.429 5.426 5.429H43.9A5.427 5.427 0 0049.326 28v-8.14zM18.123 28a4.07 4.07 0 10-.002-8.142A4.07 4.07 0 0018.123 28zm18.993 0a4.07 4.07 0 10-.001-8.14 4.07 4.07 0 000 8.14zM14.053 52.422a2.711 2.711 0 012.711-2.712h21.71a2.713 2.713 0 010 5.426h-21.71a2.713 2.713 0 01-2.711-2.714zm-5.43-10.853a2.713 2.713 0 000 5.426h37.992a2.713 2.713 0 000-5.426H8.624z" fill="#fff"/><path d="M184.341 45.075c.565-.287 1.273-.056 1.51.533l2.071 5.154a.98.98 0 01-.376 1.204c-2.837 1.77-6.256 2.655-10.147 2.655-8.483 0-12.828-5.035-12.828-14.62V24.886c0-.566-.458-1.024-1.024-1.024h-4.159a1.024 1.024 0 01-1.024-1.024V17.3c0-.565.459-1.024 1.024-1.024h4.297c.566 0 1.024-.458 1.024-1.024V4.06c0-.565.458-1.024 1.024-1.024h6.849c.565 0 1.024.459 1.024 1.024v11.193c0 .566.458 1.024 1.024 1.024h10.503c.566 0 1.024.459 1.024 1.024v5.539c0 .565-.458 1.024-1.024 1.024H174.63c-.566 0-1.024.458-1.024 1.024v14.769c0 4.482 1.793 6.758 5.448 6.758 1.728 0 3.504-.433 5.287-1.339zm-69.049-10.109c0-5.517 1.862-10.138 5.586-13.93 3.793-3.794 8.551-5.725 14.413-5.725s10.621 1.931 14.345 5.724c3.793 3.793 5.655 8.414 5.655 13.931 0 5.586-1.862 10.276-5.655 14.069-3.724 3.793-8.483 5.655-14.345 5.655s-10.62-1.862-14.413-5.655c-3.724-3.793-5.586-8.483-5.586-14.069zm30.965 0c0-3.103-1.035-5.793-3.173-8s-4.689-3.31-7.793-3.31c-3.103 0-5.655 1.103-7.793 3.31s-3.172 4.897-3.172 8c0 3.172 1.034 5.862 3.172 8.069 2.138 2.207 4.69 3.31 7.793 3.31 3.104 0 5.655-1.103 7.793-3.31s3.173-4.896 3.173-8.069zM91.651 15.38c5.31 0 9.725 1.862 13.242 5.655 3.586 3.793 5.379 8.414 5.379 14s-1.793 10.207-5.379 14c-3.517 3.724-8 5.586-13.31 5.586-3.869 0-7.206-1.24-10.012-3.756-.719-.644-1.988-.172-1.988.793V52.7c0 .566-.459 1.024-1.024 1.024h-6.78a1.024 1.024 0 01-1.024-1.024V2.335c0-.566.459-1.024 1.024-1.024h6.918c.565 0 1.024.459 1.024 1.024v15.949c0 .956 1.245 1.43 1.965.8 2.808-2.457 6.142-3.704 9.965-3.704zm9.449 19.586c0-3.172-1.035-5.862-3.035-8-2-2.207-4.551-3.31-7.793-3.31-3.241 0-5.862 1.103-7.862 3.31-2 2.138-3.034 4.828-3.034 8 0 3.241 1.034 5.931 3.034 8.138 2 2.138 4.62 3.241 7.862 3.241s5.793-1.103 7.793-3.241c2-2.207 3.035-4.897 3.035-8.138z" fill="#fff"/></svg>