<svg width="55" height="55" viewBox="0 0 55 55" fill="none" xmlns="http://www.w3.org/2000/svg"><path fill-rule="evenodd" clip-rule="evenodd" d="M29.85 2.712A2.713 2.713 0 0027.136 0a2.713 2.713 0 00-2.714 2.712v5.429H10.855C4.86 8.14 0 13 0 18.994v8.14C0 33.132 4.861 37.99 10.855 37.99h32.562c5.993 0 10.855-4.859 10.855-10.855v-8.141C54.272 13 49.411 8.14 43.417 8.14H29.85V2.712zm18.993 16.282a5.426 5.426 0 00-5.426-5.427H10.855a5.426 5.426 0 00-5.426 5.427v8.14c0 3 2.43 5.43 5.426 5.43h32.562a5.427 5.427 0 005.426-5.43v-8.14zm-31.203 8.14a4.07 4.07 0 10-.002-8.141 4.07 4.07 0 00.002 8.142zm18.992 0a4.07 4.07 0 10-.001-8.14 4.07 4.07 0 00.001 8.14zM13.57 51.558a2.711 2.711 0 012.712-2.712h21.71a2.713 2.713 0 010 5.426h-21.71a2.713 2.713 0 01-2.712-2.714zM8.141 40.706a2.713 2.713 0 000 5.426h37.99a2.713 2.713 0 000-5.426H8.142z" fill="#fff"/></svg>