<svg width="188" height="67" viewBox="0 0 188 67" fill="none" xmlns="http://www.w3.org/2000/svg"><path d="M101.228 47.362l-2.038-6.113H85.654l-2.038 6.113h-7.229L88.274 13.4h8.296l11.935 33.962h-7.277zM87.788 34.99h9.316l-4.658-13.876L87.79 34.99zm24.888-14.798c-1.035 0-1.94-.372-2.717-1.116-.744-.776-1.116-1.682-1.116-2.717 0-1.035.372-1.94 1.116-2.717.777-.776 1.682-1.164 2.717-1.164 1.068 0 1.973.388 2.717 1.164.777.777 1.165 1.682 1.165 2.717 0 1.035-.388 1.941-1.165 2.717-.744.744-1.649 1.116-2.717 1.116zm-3.105 27.17V23.103h6.259v24.259h-6.259zm30.861-17.612c2.975 1.714 4.463 4.302 4.463 7.763 0 2.879-1.019 5.24-3.056 7.083-2.038 1.844-4.545 2.766-7.521 2.766h-14.409V13.4H133.3c2.911 0 5.353.905 7.326 2.717 2.005 1.779 3.008 4.059 3.008 6.84 0 2.815-1.068 5.079-3.202 6.793zM133.3 19.659h-6.696v7.471h6.696c1.035 0 1.892-.356 2.571-1.067.712-.712 1.067-1.601 1.067-2.669 0-1.067-.339-1.957-1.018-2.668-.68-.712-1.553-1.067-2.62-1.067zm1.018 21.444c1.133 0 2.071-.372 2.814-1.116.744-.776 1.116-1.746 1.116-2.91 0-1.133-.372-2.07-1.116-2.815-.743-.776-1.681-1.164-2.814-1.164h-7.714v8.005h7.714zm33.782 3.251c-2.49 2.458-5.531 3.687-9.121 3.687-3.59 0-6.631-1.23-9.121-3.687-2.459-2.49-3.688-5.531-3.688-9.121 0-3.59 1.229-6.615 3.688-9.073 2.49-2.49 5.531-3.736 9.121-3.736 3.59 0 6.631 1.245 9.121 3.736 2.491 2.458 3.736 5.482 3.736 9.073 0 3.59-1.245 6.63-3.736 9.12zm-13.827-4.318c1.261 1.261 2.83 1.892 4.706 1.892 1.876 0 3.445-.63 4.706-1.892 1.261-1.262 1.892-2.863 1.892-4.803 0-1.941-.631-3.542-1.892-4.804-1.261-1.261-2.83-1.892-4.706-1.892-1.876 0-3.445.63-4.706 1.892-1.229 1.262-1.844 2.863-1.844 4.804 0 1.94.615 3.541 1.844 4.803zm33.38-10.916h-5.483v10.09c0 .842.211 1.456.631 1.845.421.388 1.035.614 1.844.679.808.032 1.811.016 3.008-.049v5.677c-4.302.485-7.342.08-9.121-1.213-1.747-1.294-2.62-3.607-2.62-6.938V29.119h-4.221v-6.016h4.221v-4.9l6.258-1.892v6.792h5.483v6.016z" fill="#000"/><path fill-rule="evenodd" clip-rule="evenodd" d="M0 16.172L20.583 6.47 32.345 0v16.172H69.31v34.656L48.727 60.53 36.966 67V50.828H0V16.172zm30.035 18.483a6.931 6.931 0 11-13.863 0 6.931 6.931 0 0113.863 0zm25.413 0a6.931 6.931 0 11-13.862 0 6.931 6.931 0 0113.862 0z" fill="#06F"/></svg>