<svg width="87" height="63" viewBox="0 0 87 63" fill="none" xmlns="http://www.w3.org/2000/svg"><g clip-path="url(#clip0_510_13643)"><path d="M80.599 44.194c-1.39-4.976 3.028-5.167 3.125-11.578.04-2.623-1.398-5.293-4.862-6.518-1.702-.602-3.399-1.016-4.912-1.973-3.452-2.18-3.388-6.332-4.33-9.87C67.555 6.482 51.357.305 43.303.505c-5.806.145-8.485 2.938-13.778 7.856-3.621 3.373-10.003 3.062-8.143 11.757 1.655 7.745-2.253 7.17-5.82 10.029-3.566 2.858-6.184 6.257-4.763 10.116 1.567 4.259-8.025 6.704-9.737 12.227-1.16 3.747 4.935 4.062 9.084 4.062 4.148 0 39.636-.319 54.646.123 4.041.12 16.931 1.218 18.754-3.808 1.231-3.418-1.977-5.198-2.947-8.673z" fill="#C3ECFE" opacity=".35"/><path d="M85.208 42.645C82.204 49.611 76.428 55.3 69.5 58.382" stroke="#C3ECFE" stroke-width="1.39" stroke-miterlimit="10"/><path d="M84.335 44.498a5.727 5.727 0 001.978-3.47c.053-.33.064-.704-.157-.954a.376.376 0 00-.233-.134.48.48 0 00-.375.202c-.522.584-.703 1.394-.793 2.171-.09.778-.259 1.347-.42 2.185zm-1.432 2.374a5.733 5.733 0 00.437-3.97c-.083-.323-.222-.671-.524-.812a.376.376 0 00-.268-.032.481.481 0 00-.263.336c-.246.75-.09 1.557.135 2.304.225.748.297 1.342.483 2.174zm-2.097 2.92a5.73 5.73 0 00.922-3.887c-.043-.33-.14-.694-.423-.87a.376.376 0 00-.26-.063c-.145.026-.239.166-.303.3-.336.708-.281 1.534-.148 2.304.133.77.131 1.366.212 2.216zm-2.409 2.558a5.73 5.73 0 00.92-3.887c-.042-.33-.137-.693-.42-.87a.375.375 0 00-.262-.065.478.478 0 00-.302.302c-.336.706-.282 1.532-.148 2.304.133.772.131 1.366.212 2.217zm-3.607 2.954a5.733 5.733 0 001.313-3.771c0-.334-.063-.705-.328-.909a.376.376 0 00-.254-.09.474.474 0 00-.33.266c-.407.67-.44 1.5-.386 2.279.052.779-.012 1.37-.02 2.225m-2.822 1.886a6.12 6.12 0 001.53-3.582c.028-.331.018-.706-.188-.936a.304.304 0 00-.209-.12c-.125 0-.232.108-.311.225-.42.612-.535 1.43-.573 2.212-.037.781-.157 1.36-.253 2.207M82.19 47.91a6.237 6.237 0 004.116-.787c.304-.188.62-.422.685-.75a.374.374 0 00-.037-.27.48.48 0 00-.406-.153c-.813-.011-1.594.388-2.29.837-.696.45-1.276.7-2.065 1.124m-1.699 2.216a6.258 6.258 0 004.188.217c.338-.1.702-.262.846-.573a.374.374 0 00.029-.27.48.48 0 00-.359-.247c-.786-.204-1.639 0-2.423.268-.785.268-1.406.375-2.28.607m-2.529 2.574a6.23 6.23 0 004.058 1.047c.35-.032.741-.116.938-.393a.374.374 0 00.081-.259c-.02-.146-.163-.243-.3-.31-.728-.36-1.607-.332-2.43-.224-.821.109-1.45.087-2.353.139m-3.535 2.975a6.24 6.24 0 004.19.124c.336-.108.698-.277.833-.592a.374.374 0 00.023-.272.474.474 0 00-.363-.236c-.79-.187-1.64.032-2.418.32-.777.29-1.396.406-2.265.657zm-2.855 1.708a6.24 6.24 0 003.687 1.991c.35.055.75.066 1.012-.153a.375.375 0 00.14-.233.47.47 0 00-.215-.374c-.622-.523-1.48-.709-2.304-.8-.824-.092-1.43-.266-2.32-.431z" fill="#C3ECFE"/><path d="M68.246 27.986a.077.077 0 01-.071-.07l-.026-.374a.076.076 0 01.098-.075.074.074 0 01.05.065l.026.375a.073.073 0 01-.07.079h-.007z" fill="#599FD2"/><path d="M69.922 44.92l-.985.07-1.098-15.88.492-.033.493-.036 1.099 15.88z" fill="#C3ECFE"/><path d="M68.338 27.758l-.199.013-.3 1.34.985-.07-.486-1.283z" fill="#C3ECFE"/><path d="M20.057 31.709c1.753 9.572 8.447 18.106 17.322 22.107" stroke="#C3ECFE" stroke-width="1.39" stroke-miterlimit="10"/><path d="M20.5 33.714a5.733 5.733 0 01-1.152-3.826c.02-.331.095-.7.366-.893a.376.376 0 01.257-.08.474.474 0 01.32.282c.376.686.376 1.514.288 2.291-.088.778-.049 1.372-.079 2.226zm.86 2.629a5.722 5.722 0 01.467-3.968c.152-.296.366-.605.693-.674a.362.362 0 01.266.028.477.477 0 01.188.386c.075.78-.26 1.536-.648 2.216-.388.68-.587 1.24-.953 2.012m1.377 3.322a5.725 5.725 0 01-.03-3.994c.115-.313.29-.645.605-.75a.376.376 0 01.27 0 .484.484 0 01.228.362c.169.765-.07 1.557-.376 2.278-.306.722-.431 1.312-.7 2.114m1.779 3.012a5.724 5.724 0 01-.028-3.994c.115-.313.29-.646.604-.75a.376.376 0 01.269 0 .477.477 0 01.227.36c.169.765-.067 1.56-.375 2.28-.308.722-.434 1.303-.702 2.114m2.864 3.673a5.736 5.736 0 01-.445-3.97c.083-.325.222-.673.524-.814a.377.377 0 01.267-.032.479.479 0 01.264.336c.248.75.094 1.555-.133 2.304-.227.75-.294 1.341-.477 2.175zm2.326 2.476a6.118 6.118 0 01-.693-3.831c.047-.33.141-.694.39-.88a.316.316 0 01.23-.07c.125.022.204.159.255.288.272.693.2 1.516.064 2.286-.137.77-.152 1.36-.246 2.207zm-7.884-11.324a6.23 6.23 0 01-3.837-1.686c-.257-.242-.51-.547-.5-.89a.364.364 0 01.098-.255.475.475 0 01.43-.06c.794.17 1.466.733 2.044 1.327.578.593 1.087.963 1.765 1.564zm1.151 2.53a6.228 6.228 0 01-4.13-.721c-.307-.174-.627-.41-.698-.75a.374.374 0 01.034-.27.476.476 0 01.403-.16c.811-.025 1.6.361 2.304.8.704.438 1.285.676 2.085 1.097m1.894 3.08a6.246 6.246 0 01-4.192.116c-.336-.108-.696-.277-.831-.592a.374.374 0 01-.023-.271.48.48 0 01.364-.236c.79-.188 1.64.033 2.416.322.777.288 1.397.408 2.266.661zm2.785 3.687a6.236 6.236 0 01-4.113-.813c-.304-.188-.617-.424-.68-.76a.36.36 0 01.038-.27.478.478 0 01.408-.153c.812 0 1.591.398 2.284.851.693.453 1.27.706 2.065 1.145m2.407 2.3a6.237 6.237 0 01-4.04 1.124c-.35-.024-.75-.1-.95-.374a.36.36 0 01-.086-.257c.017-.148.158-.247.295-.319.722-.374 1.599-.36 2.423-.267.824.091 1.453.06 2.358.097" fill="#C3ECFE"/><path d="M2.765 45.075c9.738-.445 19.57 4.14 25.478 11.88" stroke="#C3ECFE" stroke-width="1.39" stroke-miterlimit="10"/><path d="M4.82 45.056a5.767 5.767 0 00-3.994-.262c-.319.095-.66.249-.79.562a.374.374 0 00-.019.268.477.477 0 00.348.247c.75.213 1.561.022 2.301-.236.74-.259 1.329-.349 2.155-.58zm2.762.244a5.77 5.77 0 00-3.775 1.339c-.255.215-.509.493-.503.826a.374.374 0 00.088.253.481.481 0 00.417.09c.777-.103 1.443-.598 2.02-1.124.576-.527 1.077-.85 1.75-1.38m3.549.604a5.759 5.759 0 00-3.905.877c-.28.187-.563.425-.602.75a.374.374 0 00.056.263.481.481 0 00.404.139c.784 0 1.502-.416 2.142-.871.64-.455 1.175-.714 1.905-1.158zm3.357 1.047a5.764 5.764 0 00-3.906.87c-.28.187-.563.425-.6.749a.374.374 0 00.056.264.482.482 0 00.403.139c.783 0 1.502-.416 2.142-.871.64-.456 1.175-.714 1.905-1.158m4.237 1.959a5.763 5.763 0 00-3.976.461c-.296.152-.606.365-.676.691a.374.374 0 00.029.268.479.479 0 00.386.188c.781.075 1.541-.259 2.221-.647.68-.387 1.243-.588 2.016-.953m2.935 1.709a6.148 6.148 0 00-3.897.188c-.312.12-.646.292-.77.577a.316.316 0 00-.019.24c.051.116.201.16.34.187.738.108 1.524-.144 2.253-.45.728-.305 1.295-.453 2.1-.736M8.836 45.485a6.216 6.216 0 00-2.508-3.354c-.295-.187-.65-.374-.982-.285a.376.376 0 00-.227.152.475.475 0 00.04.431c.343.734 1.043 1.263 1.753 1.686.71.424 1.186.841 1.924 1.364m2.729.556a6.22 6.22 0 00-1.631-3.853c-.239-.259-.543-.518-.886-.51a.365.365 0 00-.255.094.47.47 0 00-.066.427c.158.796.711 1.474 1.297 2.06.586.587.952 1.1 1.541 1.782zm3.428 1.155a6.212 6.212 0 00-.826-4.102c-.188-.303-.428-.616-.766-.676a.376.376 0 00-.27.04.482.482 0 00-.15.406c0 .811.403 1.587.86 2.278.456.691.709 1.267 1.152 2.06m4.227 1.874a6.209 6.209 0 00-1.71-3.816c-.247-.255-.555-.506-.898-.49a.36.36 0 00-.253.099.474.474 0 00-.057.429c.175.79.751 1.457 1.344 2.03.593.574.974 1.078 1.58 1.748m2.788 1.837c.544-1.33.61-2.807.188-4.18-.103-.337-.267-.7-.58-.841a.36.36 0 00-.27-.026.476.476 0 00-.244.358c-.201.786 0 1.637.283 2.418.284.781.376 1.39.623 2.27z" fill="#C3ECFE"/><path d="M33.54 49.187a6.895 6.895 0 00-5.331-1.794c-1.303.13-2.722.826-3.003 2.098-.137.607-.089 1.412-.665 1.65-.576.238-1.108-.344-1.69-.54-.96-.322-2.064.776-1.734 1.738.147.436.518.816.486 1.275-.04.626-.816.952-1.438.855-.62-.098-1.169-.46-1.777-.613-.608-.154-1.399 0-1.613.59-.187.529.14 1.239-.275 1.617a1.128 1.128 0 01-.678.22c-5.273.5-11.075 1.444-10.491 2.379.161.254.574.174.876.168 11.225-.174 21.422-.34 32.641 0" fill="#C3ECFE"/><path d="M65.103 31.589l3.327 13.023-.633.16-4.116-12.821" fill="#88D2FF"/><path d="M62.023 31.887c-1.699.431-3.508-.884-4.032-2.932s.434-4.07 2.132-4.496c1.7-.428 3.509.884 4.032 2.932.524 2.047-.433 4.063-2.132 4.496zm-1.609-6.293c-1.068.272-1.644 1.649-1.28 3.07.364 1.423 1.528 2.356 2.598 2.082 1.07-.273 1.644-1.649 1.282-3.07-.362-1.423-1.53-2.356-2.6-2.082z" fill="#9BDFFF"/><path d="M63.773 28.267l1.011 3.959a.374.374 0 01-.722.185l-.115-.448s-.53-1.124-1.999-.665c0 0 1.752-.219 1.812-.213.06.005-.042-3.035.013-2.818z" fill="#C0EDFF"/><path d="M64.66 33.249a.965.965 0 01-1.169-.694 1.53 1.53 0 00-.188-.483c-.187-.27-.578-.375-1.287-.187l-.188-1c.375-.12.642-.299.939-.278l.405-.049c0-.307 0-.712-.011-1.02-.011-.31.422-.702.422-.938 0-.425-.437-.852.09-.923l.518-.07 1.147 4.478a.96.96 0 01-.677 1.164z" fill="#9BDFFF"/><path d="M65.594 31.47l.01 13.44h.652l.806-13.441" fill="#88D2FF"/><path d="M65.466 27.164c0-2.113 1.425-3.835 3.178-3.837 1.753-.002 3.181 1.718 3.19 3.833.01 2.116-1.424 3.835-3.177 3.837-1.753.002-3.19-1.718-3.191-3.833zm1.179 0c0 1.465.899 2.659 2.004 2.657 1.106-.002 2.001-1.194 2-2.66-.002-1.468-.901-2.66-2.005-2.657-1.104.002-2.001 1.193-2 2.66z" fill="#9BDFFF"/><path d="M66.056 27.924v4.086a.374.374 0 00.375.375.376.376 0 00.376-.375v-.463s.234-1.227 1.772-1.139c0 0-1.752.223-1.808.242-.056.019-.715-2.949-.715-2.726z" fill="#C0EDFF"/><path d="M66.432 32.97a.963.963 0 00.961-.961c-.01-.173.009-.347.056-.514.117-.307.468-.502 1.202-.502l-.075-1.015c-.39-.023-.697-.131-.982-.036l-.405.053c-.075-.296-.17-.69-.243-.991-.073-.302-.583-.58-.632-.804-.103-.41.212-.937-.315-.871l-.52.062v4.62a.96.96 0 00.953.959z" fill="#9BDFFF"/><path d="M72.45 27.518l1.262.228a.22.22 0 01.177.255l-2.631 14.537-1.694-.305 2.631-14.538a.22.22 0 01.256-.177z" fill="#88D2FF"/><path d="M72.45 27.517l1.262.228a.22.22 0 01.177.255l-.253 1.397-1.694-.305.253-1.398a.22.22 0 01.256-.177z" fill="#FE7D90"/><path d="M71.95 29.09l-.092.507 1.694.305.092-.507-1.694-.305z" fill="#599FD2" opacity=".5"/><path d="M78.483 30.942l-2.764-1.087-5.893 14.923 2.764 1.088 5.893-14.924z" fill="#C3ECFE"/><path d="M77.38 31.07l.91.358m-1.218.418l.912.357m-1.218.417l.912.359m-1.662.24l1.357.534m-1.219.417l.91.359m-1.216.417l.91.358m-1.216.416l.91.36m-1.661.241l1.355.532m-1.216.419l.911.357m-1.217.418l.91.358m-1.216.415l.91.36m-1.663.242l1.358.532m-1.217.418l.91.358m-1.218.418l.913.357m-1.218.417l.912.36m-1.663.241l1.357.531m-1.219.419l.91.358m-1.215.417l.91.358m-1.215.417l.91.36" stroke="#CCF3FF" stroke-width="1.39" stroke-miterlimit="10"/><path d="M74.608 59.491H60.826L58.51 38.684a.447.447 0 01.445-.496h17.521a.45.45 0 01.445.496l-2.314 20.807z" fill="#5BB7FF"/><path d="M57.326 60.398l24.902.339c.28 0 1.156-.268-.356-1.242-1.28-.825-5.332-.083-5.332-.083s.939-.374.939-.863c0-.49-.375-.915-.818-1.124a3.033 3.033 0 00-1.436-.188 9.158 9.158 0 00-2.895.647.838.838 0 10-.972-1.36c.621-.842 1.584-4.568-1.372-6.21-3.706-2.06-6.52-.365-7.12.874-.304-1.216-1.703-2.136-2.628-2.365-2.1-.52-3.47-.374-5.429.547-.694.325-1.622 1.428-2.083 2.039-.723.955-.836 2.225-.875 3.42-.03.898-.034 1.796-.011 2.695" fill="#CCF3FF"/><path opacity=".4" d="M62.184 61.723c0 .429-8.36.777-18.673.777-10.313 0-18.68-.352-18.68-.777 0-.425 8.36-.778 18.673-.778 10.312 0 18.68.349 18.68.778z" fill="#A1D7E5"/><path d="M43.858 7.475a1.88 1.88 0 00-1.877 1.873v2.402h3.755V9.354a1.871 1.871 0 00-1.158-1.736 1.88 1.88 0 00-.72-.143zm0 2.943a1.053 1.053 0 01-1.03-1.254 1.048 1.048 0 01.825-.824 1.053 1.053 0 011.257 1.029 1.048 1.048 0 01-1.051 1.049z" fill="#0862A7"/><path d="M44.916 9.369a1.048 1.048 0 00-1.21-1.034.776.776 0 01.427-.102 1.05 1.05 0 011.051 1.05.851.851 0 01-.674.914 1.15 1.15 0 00.406-.828zm-2.352 2.134V9.105a1.824 1.824 0 01.786-1.56 1.877 1.877 0 00-1.359 1.8v2.405h3.754v-.238l-3.181-.01z" fill="#0862A7" opacity=".45"/><g filter="url(#filter0_d_510_13643)"><path d="M59.335 11.866H27.67c-1.01 0-1.828.817-1.828 1.825v46.197c0 1.008.818 1.825 1.828 1.825h31.665c1.01 0 1.828-.817 1.828-1.825V13.691a1.827 1.827 0 00-1.828-1.825z" fill="#2F9DF2"/></g><path d="M59.117 13.822H27.89V59.76h31.227V13.822z" fill="#D8E5FE"/><path d="M57.919 15.226H29.091v43.13h28.827v-43.13z" fill="#D8E5FE"/><path d="M54.864 12.687v1.874H32.151v-1.874a1.312 1.312 0 011.314-1.311H53.55a1.315 1.315 0 011.314 1.311z" fill="#0862A7"/><path opacity=".45" d="M54.864 14.098v.463H32.15v-1.357a5.827 5.827 0 01.06-.908 1.312 1.312 0 011.254-.92h.161a1.956 1.956 0 00-.6 1.364v1.356l21.838.002z" fill="#0862A7"/><path d="M37.084 19.81h4.683m10.508 1.492h3.56m-18.751 0h13.648m-13.648 1.489h18.75m-5.959 1.489h5.96m-18.751 0h11.308m-5.089-4.47h12.531m-18.75 10.711h4.683m10.508 1.492h3.56m-18.751 0h13.648m-13.648 1.489h18.75m-5.959 1.489h5.96m-18.751 0h11.308m-5.089-4.47h12.531m-18.75 10.336h4.683m10.508 1.492h3.56m-18.751 0h13.648m-13.648 1.489h18.75m-5.959 1.489h5.96m-18.549.263h11.308m-5.291-4.733h12.531M37.084 51.38h4.683m10.508 1.49h3.56m-18.751 0h13.648m-13.648 1.491h18.75m-5.959 1.489h5.96m-18.751 0h11.308m-5.089-4.47h12.531" opacity=".15" stroke="#61A8DF" stroke-width=".6" stroke-linecap="round" stroke-linejoin="round"/><path d="M35.11 19.36h-3.505a.394.394 0 00-.394.394v3.498c0 .217.176.393.394.393h3.505a.394.394 0 00.394-.393v-3.498a.394.394 0 00-.394-.394zm0 10.678h-3.505a.394.394 0 00-.394.393v3.498c0 .218.176.394.394.394h3.505a.394.394 0 00.394-.394v-3.498a.394.394 0 00-.394-.393zm0 10.675h-3.505a.394.394 0 00-.394.393v3.498c0 .218.176.394.394.394h3.505a.394.394 0 00.394-.394v-3.498a.394.394 0 00-.394-.393zm0 10.677h-3.505a.394.394 0 00-.394.393v3.498c0 .217.176.393.394.393h3.505a.394.394 0 00.394-.393v-3.498a.394.394 0 00-.394-.393z" stroke="#446E8D" stroke-width=".3" stroke-miterlimit="10"/><path d="M31.74 20.748l1.618 1.95 3.113-4.902m-4.731 13.54l1.618 1.95 3.113-4.902" stroke="#0F3C5F" stroke-width=".8" stroke-linecap="round" stroke-linejoin="round"/></g><defs><clipPath id="clip0_510_13643"><path fill="#fff" transform="translate(0 .5)" d="M0 0h87v62H0z"/></clipPath><filter id="filter0_d_510_13643" x="3.842" y=".866" width="79.321" height="93.847" filterUnits="userSpaceOnUse" color-interpolation-filters="sRGB"><feFlood flood-opacity="0" result="BackgroundImageFix"/><feColorMatrix in="SourceAlpha" values="0 0 0 0 0 0 0 0 0 0 0 0 0 0 0 0 0 0 127 0" result="hardAlpha"/><feOffset dy="11"/><feGaussianBlur stdDeviation="11"/><feColorMatrix values="0 0 0 0 0.397708 0 0 0 0 0.47749 0 0 0 0 0.575 0 0 0 0.27 0"/><feBlend in2="BackgroundImageFix" result="effect1_dropShadow_510_13643"/><feBlend in="SourceGraphic" in2="effect1_dropShadow_510_13643" result="shape"/></filter></defs></svg>