<svg width="293" height="246" viewBox="0 0 293 246" fill="none" xmlns="http://www.w3.org/2000/svg"><path opacity=".15" d="M221.054.977c1.848.941 4.3.857 6.117 1.815 2.352 1.21 1.713 2.537 3.193 4.47 1.138-.03 2.089-.073 2.9-.073 2.729 0 3.947.465 5.564 3.35 3.5 6.251.084 6.184-.739 9.192 1.764 2.991 2.3.369 3.6 5.209l6.066-1.327c1.7 1.445 1.059 2.74 3.68 4.067l12.587 3.948c.705.057 1.369.071 2.009.071.6 0 1.189-.013 1.771-.013 1.43-.04 2.858.134 4.237.514 0 1.68-.438 2.706-.42 3.748-.044.66-.047 1.321-.009 1.981.022 0 .06-.037.128-.037.153 0 .452.194 1.023 1.467 2.117 4.757.168 10.486 7.294 11.394a17.349 17.349 0 017.41 2.59c-2.571 5.846-5.21-1.833-4.1 14.232.437 6.352 4.42 2.5 6.924 12.385.84 3.31.992 5.06 2.706 7.562v.59c-5.155.668-2.611 3.931-4.485 3.931a4.913 4.913 0 01-1.515-.353c-2.285-.807-2.252-3.78-3.63-5.982-3.377.3-4.6 1.8-7.226 2.891l.74-5.513c-2.807 1.127-2.958 2.723-5.866 3.127-1.932-1.85-1.966-3.967-3.932-5.093a3.822 3.822 0 00-1.835-.637c-1.49 0-1.676 1.867-3.721 1.867a3.979 3.979 0 01-.629-.053c-2.335-.369-8.218-6.688-9.931-8.217l-2.537 1.883c.07.159.155.31.253.453l.537 1.243c.02.111.031.224.034.337-.135.907.151.521-1.025.974l-9.512.924c-2.169.2-2.723.369-3.832 1.462 2.084 1.177 2.79 1.311 4.319 3.042.554 10.84-13.36 7.629-19.595 12.57-2.622 2.084-2.974 8.352-3.277 12.755-.656 10.285 3.714 5.8-4.151 10.117-.034 3.68 2.47 2.521-.941 4.2a54.7 54.7 0 00-5.025 2.79l.605 6.5c-2.672 2.3-6.94 1.933-8.5 3.731-1.815 2.083-2.336 6.3-2.353 9.293-9.125 5.226 1.177 2.235-12.251 11.042-4.789 3.159-2.806 2.369-4.47 7.142-.807 2.3-1.546 2.251-2.369 3.462l-1.295 3.881c0-.01-.007-.014-.011-.014-.033 0-.083.382-.174.518-2.857 1.529-5.445 1.395-9.042 1.882-3.7.5-4.486 2.1-7.175 3.176-2.033-.79-3.142-1.933-4.721-2.37-1.933-.538-4.84-.419-6.907-.47-2.37 3.008-2.219 4.2-5.278 6.6-2.722 2.134-4.638 2.319-5.714 5.966-.991 3.361-.252 6.554 1.95 8.352 3.5 2.856 5.7.69 8.57 2.421 2.421 2.823-5.7 9.478 1.8 15.594l4.991-1.059c1.025 2.857.319 4.42 1.176 6.554.554 1.395 1.882 2.37 2.689 4.471.907 2.335.572 3.175 1.866 5.344 2.05 3.478 1.311.251.05 4.183.176.391.378.771.605 1.135.02 0-.012-.131.057-.131s.212.112.564.541c.273.332.369.4.412.4.027 0 .033-.024.046-.024.013 0 .085.1.4.671-1.715 1.915-3.815 4.1-6.907 4.319l-1.816-2.773c-.05-.235-.184-.286-.284-.42-8.168.874-5.648.336-7.765 3.311h-.316c-3.813 0-5.423-1.666-8.564-1.666-.166 0-.339 0-.514.014-3.512.2-7.613.117-10.638.336-2.554 4.285 2.084 3.764-4.789 5.126l-7.63 2.083h-3.344c-4.6-2.336-5.361.941-6.2-6.47-1.6-14.168-9.159-10.067-11.848-13.377-2.974-3.646-.47-4.772-.454-9.529-3.068-2.088-4.561-2.93-5.588-2.93-1.451 0-1.97 1.687-4.7 3.922-1.371 1.131-1.66 1.137-1.887 1.137h-.007c-.291 0-.5.011-2.828 2.443-2.469-.1-3.821-1.023-5.807-1.023a6.941 6.941 0 00-1.553.182 19.967 19.967 0 00-3.274 1.149c-.37 0-.8-.469-3.012-1.821a4.09 4.09 0 00-2.162-.709c-1.834 0-3.055 1.645-5.29 1.645-1.3 0-2.952-.56-5.268-2.331-2.594.543-1.281 1.017-2.922 1.017-.645 0-1.745-.073-3.716-.244-.76-.066-1.246-.146-1.635-.146-.6 0-.964.186-1.726.885l-1.63 2.421c-1.9-.183-5.972-.521-10.028-.521-4.154 0-8.294.355-10.07 1.6l-1.43 1.261c-2.587-1.261-3.293-.942-5.444-2.639-1.445-7.344.924-8 2.269-12.907 1.559-5.745 2.208-7.166 3.3-7.166.781 0 1.79.724 3.519 1.117-.094-5.61 2.87-6.8 6.794-6.8 2.4 0 5.159.446 7.793.6.655-2.571 0-3.95.756-6.286.756-2.286 1.579-2.034 2.084-4.588a14.845 14.845 0 00-.808-.022c-2.289 0-4.128.526-5.722.526a4.744 4.744 0 01-1.722-.285c-.756-3.6 1.967-5.563.572-10.2-1.513-5.075-1.983-3.143-.924-9.393a7.755 7.755 0 01-2.47.494c-1.767 0-2.664-1.052-4.975-2.142-2.605-1.227-4.655-1.479-7.058-2.571-2.32-1.059-3.06-2.639-4.47-5.261-1.43-2.688-2.925-3.057-5.042-4.755.689-3.058.908-.975 1.4-4.117l-5.815-6.638v-2.319a5.23 5.23 0 012.024-.369c5.24 0 13.04 5.825 16.713 6.99a18.45 18.45 0 005.6.818c5.34 0 10.527-1.855 15.847-1.855 1.255-.006 2.508.11 3.74.348 3.3.655 4.274.962 4.774.962.717 0 .457-.636 4.739-1.786a14.742 14.742 0 013.842-.5c2.41 0 4.406.538 6.439.538a9.416 9.416 0 001.835-.172c4.218-.822 18.452-4 20.5-6.773-1.126-2.7-2.756-2.319-1.446-6.452 1.379-4.3.454-4.2.84-8.353.32-3.294 5.026-8.755 8.168-10.57.016 0 .386-.862 2.26-.862h.26l3.143 1.311 4.5.891c3.025-.471 3.126-.471 3.58-3.428l-2.4-.756c5.058-4.319 3.63-1.194 9.444-7.68 1.361 1.562.084 1.091 2.589 1.932 1.9-1.279 2.975-1.857 3.778-1.857 1.161 0 1.76 1.207 3.5 3.252.451.105.91.165 1.373.179a5.174 5.174 0 002.021-.583 23.911 23.911 0 012.168-2.638c1.184-1.123 1.434-1.329 1.66-1.329.181.035.363.058.547.071a5.435 5.435 0 001.726-.4c-.37-2.52-1.362-4.118-1.765-6.841-.806-5.444.017-3.546 2.37-6.3l-.975-3.277c1.026-1.7.992-.705 1.664-1.832.739-1.243.117-.217.554-1.344 2.336-6.05 6.571-.924 12.285-6.47-.017-1.175-.941-6.318-2.537-7.612-2.572-2.1-1.076.05-2.152-2.454a17.253 17.253 0 01-.94-4.571 46.137 46.137 0 0011.759 1.36c.554 0 1.136-.006 1.752-.016 1.294-1.848-1.026-1.159 1.126-2.386 1.731-.992 2.554 0 4.268-.992 3.076-1.764-.622-4.386-1.479-6.6-.033-3.764 7.093-6.839 10.134-13.578l-1.949-2.554c3.512-5.394 1.444-2.706 1.192-7.982-.184-4.018-3.158-3.328-5.579-6.269.79-2.2 2.824-3.31 4.269-4.857 1.539-1.646 1.859-2.394 2.657-2.394a6.052 6.052 0 011.981.631c-.335-4.6.639-2.974 3.966-3.9 3.832-1.058.857-2.722 2.034-4.639 1.061.133 2.13.195 3.2.184 7.566 0 19.542-2.205 21.988-2.205.069 0 .13 0 .184.006 1.141.072 1.871 1.083 3.921 1.083 1.722 0 4.381-.715 9-3.3h4.185" fill="#AFB1B7"/><path d="M95 208a6.966 6.966 0 00-4.962 2.038A6.952 6.952 0 0088 215a6.718 6.718 0 002.1 5c.1.1 4.1 3.7 4.2 3.8a1.05 1.05 0 001.3 0c.1-.1 4.2-3.7 4.2-3.8a6.732 6.732 0 002.1-5 6.825 6.825 0 00-1.958-4.971A6.828 6.828 0 0095 208zm0 9a1.998 1.998 0 01-1.962-2.39A2.001 2.001 0 0197 215a2.007 2.007 0 01-2 2z" fill="#A3A1FB"/><path d="M124 200a6.96 6.96 0 00-7 7 6.731 6.731 0 002.1 5c.1.1 4.1 3.7 4.2 3.8a1.05 1.05 0 001.3 0c.1-.1 4.2-3.7 4.2-3.8a6.731 6.731 0 002.1-5 6.825 6.825 0 00-1.958-4.971A6.816 6.816 0 00124 200zm0 9a2 2 0 110-3.998 2 2 0 010 3.998z" fill="#50D8BB"/><path d="M75.001 172.001a6.947 6.947 0 00-4.962 2.037A6.952 6.952 0 0068 179.001a6.725 6.725 0 002.1 5c.1.1 4.1 3.7 4.2 3.8a1.05 1.05 0 001.3 0c.1-.1 4.2-3.7 4.2-3.8a6.722 6.722 0 002.1-5 6.815 6.815 0 00-4.222-6.49 6.794 6.794 0 00-2.678-.51zm0 9a2.006 2.006 0 01-1.848-1.235 2 2 0 113.848-.765 2.005 2.005 0 01-2 2z" fill="#BCFBA1"/><path d="M157 152a6.96 6.96 0 00-7 7 6.731 6.731 0 002.1 5c.1.1 4.1 3.7 4.2 3.8a1.05 1.05 0 001.3 0c.1-.1 4.2-3.7 4.2-3.8a6.731 6.731 0 002.1-5 6.825 6.825 0 00-1.958-4.971A6.816 6.816 0 00157 152zm0 9a2 2 0 110-3.998 2 2 0 010 3.998z" fill="#F8FBA1"/><path d="M170.001 107.001a6.96 6.96 0 00-7 7 6.731 6.731 0 002.1 5c.1.1 4.1 3.7 4.2 3.8a1.049 1.049 0 001.3 0c.1-.1 4.2-3.7 4.2-3.8a6.731 6.731 0 002.1-5 6.833 6.833 0 00-.471-2.686 6.83 6.83 0 00-1.487-2.285 6.786 6.786 0 00-2.264-1.519 6.791 6.791 0 00-2.678-.51zm0 9a2.005 2.005 0 01-1.848-1.235 2.006 2.006 0 01.434-2.18 2.004 2.004 0 012.179-.433 2.002 2.002 0 011.235 1.848 2.01 2.01 0 01-2 2z" fill="#FBA1E9"/><path d="M138 112a6.96 6.96 0 00-7 7 6.731 6.731 0 002.1 5c.1.1 4.1 3.7 4.2 3.8a1.05 1.05 0 001.3 0c.1-.1 4.2-3.7 4.2-3.8a6.731 6.731 0 002.1-5 6.825 6.825 0 00-1.958-4.971A6.816 6.816 0 00138 112zm0 9a2 2 0 110-3.998 2 2 0 010 3.998z" fill="#A1D4FB"/><path d="M178 136a6.96 6.96 0 00-7 7 6.731 6.731 0 002.1 5c.1.1 4.1 3.7 4.2 3.8a1.05 1.05 0 001.3 0c.1-.1 4.2-3.7 4.2-3.8a6.731 6.731 0 002.1-5 6.825 6.825 0 00-1.958-4.971A6.816 6.816 0 00178 136zm0 9a2 2 0 110-3.998 2 2 0 010 3.998z" fill="#FBA1A1"/><path d="M210 97a6.952 6.952 0 00-4.962 2.038A6.95 6.95 0 00203 104a6.731 6.731 0 002.1 5c.1.1 4.1 3.7 4.2 3.8a1.05 1.05 0 001.3 0c.1-.1 4.2-3.7 4.2-3.8a6.731 6.731 0 002.1-5 6.825 6.825 0 00-.471-2.685A6.8 6.8 0 00210 97zm0 9a2 2 0 110-3.998 2 2 0 010 3.998z" fill="#FFA167"/><path d="M205 64a6.952 6.952 0 00-4.962 2.038A6.95 6.95 0 00198 71a6.73 6.73 0 002.1 5c.1.1 4.1 3.7 4.2 3.8a1.048 1.048 0 001.3 0c.1-.1 4.2-3.7 4.2-3.8a6.73 6.73 0 002.1-5 6.828 6.828 0 00-.471-2.685 6.829 6.829 0 00-3.751-3.805A6.81 6.81 0 00205 64zm0 9a2.002 2.002 0 01-1.962-2.39 2.005 2.005 0 011.572-1.572 1.998 1.998 0 011.803 3.375A2.008 2.008 0 01205 73z" fill="#81C9FF"/><path d="M242.001 50a6.952 6.952 0 00-4.962 2.038 6.95 6.95 0 00-2.038 4.963 6.731 6.731 0 002.1 5c.1.1 4.1 3.7 4.2 3.8a1.048 1.048 0 001.3 0c.1-.1 4.2-3.7 4.2-3.8a6.731 6.731 0 002.1-5 6.828 6.828 0 00-.471-2.686 6.828 6.828 0 00-3.751-3.804 6.81 6.81 0 00-2.678-.51zm0 9a1.998 1.998 0 01-1.414-3.414 2.001 2.001 0 013.414 1.415 2.008 2.008 0 01-2 2z" fill="#F8CF61"/><path d="M175 64a6.952 6.952 0 00-4.962 2.038A6.95 6.95 0 00168 71a6.73 6.73 0 002.1 5c.1.1 4.1 3.7 4.2 3.8a1.048 1.048 0 001.3 0c.1-.1 4.2-3.7 4.2-3.8a6.73 6.73 0 002.1-5 6.828 6.828 0 00-.471-2.685 6.829 6.829 0 00-3.751-3.805A6.81 6.81 0 00175 64zm0 9a2.002 2.002 0 01-1.962-2.39 2.005 2.005 0 011.572-1.572 1.998 1.998 0 011.803 3.375A2.008 2.008 0 01175 73z" fill="#A1FBD6"/><path d="M185 20a6.952 6.952 0 00-4.962 2.038A6.95 6.95 0 00178 27a6.73 6.73 0 002.1 5c.1.1 4.1 3.7 4.2 3.8a1.048 1.048 0 001.3 0c.1-.1 4.2-3.7 4.2-3.8a6.73 6.73 0 002.1-5 6.828 6.828 0 00-.471-2.685 6.829 6.829 0 00-3.751-3.805A6.81 6.81 0 00185 20zm0 9a2.002 2.002 0 01-1.962-2.39 2.005 2.005 0 011.572-1.572 1.998 1.998 0 011.803 3.375A2.008 2.008 0 01185 29z" fill="#D1A1FB"/><path d="M99 127a6.966 6.966 0 00-4.962 2.038A6.952 6.952 0 0092 134a6.718 6.718 0 002.1 5c.1.1 4.1 3.7 4.2 3.8a1.05 1.05 0 001.3 0c.1-.1 4.2-3.7 4.2-3.8a6.731 6.731 0 002.1-5 6.825 6.825 0 00-1.958-4.971A6.816 6.816 0 0099 127zm0 9a1.998 1.998 0 01-1.962-2.39A2.001 2.001 0 01101 134a2.008 2.008 0 01-2 2z" fill="#FBA1C8"/></svg>