<svg width="166" height="46" viewBox="0 0 166 46" fill="none" xmlns="http://www.w3.org/2000/svg"><path opacity=".16" d="M164.108 6.727s-9.014-9.014-17.319-3.928c-8.306 5.086-26.397 1.352-37.342 0C98.503 1.446 83.939 12.65 76.55 6.727 69.16.803 66.217.587 62.386 2.799c-3.83 2.212-5.086 9.66-14.745 3.928-9.658-5.732-9.252 0-13.522 0H0v39.242h164.108V6.727z" fill="url(#paint0_linear_190_16)"/><path d="M.463 6.726h34.123c4.266 0 3.863-5.73 13.522 0 9.658 5.73 10.912-1.715 14.745-3.928C66.686.585 69.625.803 77.017 6.726c7.391 5.923 21.95-5.28 32.897-3.928 10.947 1.352 29.036 5.087 37.341 0 8.306-5.087 17.32 3.928 17.32 3.928" stroke="#05AAFF" stroke-width="2"/><defs><linearGradient id="paint0_linear_190_16" x1="82.054" y1="-18.705" x2="82.054" y2="28.929" gradientUnits="userSpaceOnUse"><stop stop-color="#05AAFF"/><stop offset="1" stop-color="#05AAFF" stop-opacity="0"/></linearGradient></defs></svg>