<svg width="509" height="329" viewBox="0 0 509 329" fill="none" xmlns="http://www.w3.org/2000/svg"><path d="M464.254 4.758L462.02 14h-1.124l-1.897-6.748-.14-.691-.146.691L456.745 14h-1.123l-2.235-9.242h1.232l1.453 6.335.178 1.206.254-1.086 1.828-6.455h1.035l1.777 6.455.254 1.111.197-1.238 1.422-6.328h1.237zm.667 5.738c0-.664.127-1.261.381-1.79a2.96 2.96 0 011.085-1.244c.474-.305 1.024-.457 1.651-.457.634 0 1.189.152 1.663.457.474.3.838.715 1.091 1.244.254.529.381 1.126.381 1.79v.146c0 .665-.127 1.261-.381 1.79a2.99 2.99 0 01-1.091 1.244c-.47.3-1.02.451-1.651.451-.63 0-1.182-.15-1.656-.45a3.056 3.056 0 01-1.092-1.245c-.254-.529-.381-1.126-.381-1.79v-.146zm1.187.146c0 .466.072.89.216 1.276.148.385.368.692.66.92.292.225.647.337 1.066.337.415 0 .768-.112 1.06-.337.292-.228.51-.535.654-.92a3.53 3.53 0 00.222-1.276v-.146c0-.465-.074-.89-.222-1.276a2.09 2.09 0 00-.66-.92c-.292-.229-.647-.343-1.066-.343-.415 0-.768.114-1.06.343a2.111 2.111 0 00-.654.92c-.144.385-.216.81-.216 1.276v.146zm13.87-3.637c.753 0 1.324.2 1.713.603.39.402.584 1.028.584 1.879V14h-1.187V9.474c0-.546-.124-.929-.374-1.149-.246-.224-.607-.336-1.086-.336-.304 0-.571.065-.799.197-.229.127-.409.3-.54.52-.127.22-.205.468-.235.743V14h-1.187V9.48c0-.994-.489-1.491-1.466-1.491-.394 0-.72.087-.978.26-.258.17-.455.406-.59.711V14h-1.187V7.132h1.124l.038.743a2.35 2.35 0 01.863-.642 2.803 2.803 0 011.162-.228c.452 0 .848.09 1.187.273.342.178.6.45.774.819.237-.339.539-.605.908-.8a2.71 2.71 0 011.276-.292zm9.61 3.885h-4.647c.013.427.102.814.267 1.161.165.347.398.622.698.825.305.2.66.299 1.067.299.397 0 .74-.08 1.028-.241.292-.161.552-.392.781-.692l.717.558a3.02 3.02 0 01-1.016.959c-.423.245-.948.368-1.574.368-.626 0-1.178-.142-1.657-.425a2.9 2.9 0 01-1.11-1.181c-.259-.504-.388-1.075-.388-1.714v-.273c0-.715.14-1.34.419-1.872.28-.538.648-.948 1.105-1.232a2.775 2.775 0 011.479-.425c.639 0 1.168.144 1.587.432.423.283.736.677.939 1.18.203.504.305 1.086.305 1.746v.527zm-1.187-1.041c-.034-.538-.18-.986-.438-1.346-.254-.364-.656-.546-1.206-.546-.474 0-.87.174-1.187.52-.313.343-.51.83-.591 1.46h3.422V9.85zm5.764-2.844c1.468 0 2.202.831 2.202 2.495V14h-1.187V9.487c0-.525-.114-.906-.343-1.143-.224-.237-.565-.355-1.022-.355-.364 0-.691.1-.983.298a2.106 2.106 0 00-.686.8V14h-1.187V7.132h1.124l.038.844c.249-.309.548-.548.895-.717.347-.17.73-.254 1.149-.254z" fill="#4D4F5C"/><path d="M437 3h-8a5 5 0 000 10h8a5 5 0 000-10z" fill="#F8CF61"/><path d="M391.277 14h-1.225v-3.612l.114-3.853L387.138 14h-.933l-3.021-7.458.114 3.846V14h-1.225V4.758h1.587l3.015 7.554 3.015-7.554h1.587V14zm7.509-3.11h-4.646c.012.427.101.814.266 1.161.165.347.398.622.698.825a1.91 1.91 0 001.067.299c.398 0 .74-.08 1.028-.241.292-.161.552-.392.781-.692l.717.558c-.254.39-.592.71-1.015.959-.424.245-.948.368-1.575.368-.626 0-1.178-.142-1.656-.425a2.895 2.895 0 01-1.111-1.181c-.258-.504-.387-1.075-.387-1.714v-.273c0-.715.139-1.34.419-1.872.279-.538.647-.948 1.104-1.232a2.775 2.775 0 011.479-.425c.639 0 1.168.144 1.587.432.423.283.736.677.939 1.18.204.504.305 1.086.305 1.746v.527zm-1.187-1.041c-.034-.538-.18-.986-.438-1.346-.254-.364-.656-.546-1.206-.546-.474 0-.87.174-1.187.52-.313.343-.51.83-.59 1.46h3.421V9.85zm5.764-2.844c1.468 0 2.202.831 2.202 2.495V14h-1.187V9.487c0-.525-.114-.906-.342-1.143-.225-.237-.565-.355-1.022-.355-.364 0-.692.1-.984.298a2.115 2.115 0 00-.686.8V14h-1.187V7.132h1.124l.038.844c.25-.309.548-.548.895-.717.347-.17.73-.254 1.149-.254z" fill="#4D4F5C"/><path d="M365 3h-8a5 5 0 000 10h8a5 5 0 000-10z" fill="#6BCAC1"/><path d="M17.67 204v-6.633l-1.997.736v-.897l2.846-1.069h.156V204h-1.004zm7.391-4.017c.48.154.824.397 1.032.73.21.33.316.698.316 1.107 0 .476-.107.886-.322 1.23-.215.343-.51.606-.886.789a2.89 2.89 0 01-1.268.269c-.462 0-.88-.086-1.256-.258a2.135 2.135 0 01-.898-.747c-.218-.329-.327-.719-.327-1.171h1.004c0 .273.06.512.178.72.121.208.293.369.515.483.222.112.484.167.784.167.462 0 .822-.124 1.08-.371.261-.247.392-.61.392-1.09 0-.476-.147-.832-.44-1.069-.29-.24-.695-.36-1.214-.36h-.71v-.805h.71c.333 0 .614-.058.843-.172.233-.115.406-.274.521-.478.115-.204.172-.437.172-.698 0-.452-.115-.794-.344-1.026-.226-.237-.564-.355-1.015-.355-.28 0-.525.056-.736.167a1.208 1.208 0 00-.494.472 1.372 1.372 0 00-.177.709h-1.005c0-.397.1-.761.301-1.09.204-.329.489-.589.854-.779.365-.19.784-.284 1.257-.284.476 0 .892.084 1.246.252.355.168.628.419.822.752.197.329.295.73.295 1.203 0 .204-.044.415-.134.634-.09.218-.227.422-.414.612-.182.19-.41.342-.682.457zm4.995 1.095v-.811h2.627v.811h-2.627zM35.814 204v-6.633l-1.998.736v-.897l2.847-1.069h.156V204h-1.005zm5.742 0h-1.053l3.228-7.014h-4.227v-.806h5.29v.553L41.557 204zM23.75 59.966c.394.18.704.435.93.768.225.33.338.708.338 1.134 0 .472-.11.877-.333 1.213a2.106 2.106 0 01-.918.769 3.222 3.222 0 01-1.322.257 3.26 3.26 0 01-1.326-.257 2.111 2.111 0 01-.913-.769c-.222-.336-.333-.74-.333-1.213 0-.43.11-.81.333-1.139.222-.33.53-.584.923-.763a2.041 2.041 0 01-.8-.714c-.19-.3-.285-.637-.285-1.01 0-.455.102-.845.307-1.17a1.94 1.94 0 01.848-.742 2.87 2.87 0 011.246-.258c.47 0 .885.086 1.246.258.362.168.645.415.849.741.204.326.306.716.306 1.171a1.8 1.8 0 01-.295 1.01c-.194.3-.46.539-.8.714zm-1.305-2.82c-.326 0-.585.104-.779.312-.19.204-.284.482-.284.833 0 .347.095.626.284.837.194.212.453.317.78.317.329 0 .588-.103.778-.311.19-.212.285-.493.285-.843 0-.34-.097-.616-.29-.828-.19-.21-.448-.316-.774-.316zm0 5.887c.383 0 .684-.109.903-.327.218-.222.327-.527.327-.914 0-.254-.052-.476-.155-.666a1.044 1.044 0 00-.436-.445 1.277 1.277 0 00-.65-.161c-.247 0-.463.053-.65.16a1.062 1.062 0 00-.424.447c-.1.19-.15.411-.15.665 0 .387.11.692.328.914.222.218.524.327.907.327zm4.63-.44c.236 0 .425.07.564.21.14.139.21.316.21.531 0 .211-.07.387-.21.526-.14.136-.328.204-.564.204-.24 0-.43-.068-.57-.204a.714.714 0 01-.209-.526.72.72 0 01.21-.532c.14-.14.33-.21.57-.21zM29.25 64v-.924l2.546-2.76a9.42 9.42 0 00.656-.8c.157-.226.268-.429.333-.608.068-.179.102-.358.102-.537 0-.365-.102-.66-.306-.886-.201-.226-.48-.338-.838-.338-.423 0-.747.13-.973.392-.221.257-.332.601-.332 1.03H29.1c0-.461.106-.882.317-1.261a2.3 2.3 0 01.918-.903c.401-.222.876-.333 1.424-.333.519 0 .963.088 1.332.263.369.176.65.427.843.752.193.323.29.704.29 1.144 0 .459-.136.917-.408 1.375-.272.455-.67.956-1.193 1.504l-1.697 1.816h3.599V64H29.25zm8.267-2.481l-.586.596V64H35.6v-8.25h1.332v4.732l.398-.494 1.59-1.8h1.61l-2.153 2.417L40.756 64h-1.547l-1.692-2.481zM24.93 247.982c.447.154.779.393.993.715.215.322.323.693.323 1.112 0 .476-.115.888-.344 1.235-.23.347-.544.612-.946.795a3.3 3.3 0 01-1.358.268 3.24 3.24 0 01-1.284-.252 2.23 2.23 0 01-.94-.757c-.233-.333-.35-.734-.35-1.203h1.338a1.068 1.068 0 00.596.999c.19.093.41.139.661.139.405 0 .72-.107.945-.322.23-.215.344-.517.344-.908 0-.429-.125-.748-.376-.956-.247-.208-.596-.311-1.047-.311h-.779v-1.053h.779c.426 0 .75-.108.972-.322.222-.215.333-.503.333-.865 0-.365-.098-.648-.295-.849-.197-.2-.49-.301-.876-.301-.225 0-.428.045-.607.135-.179.086-.32.209-.424.37-.1.161-.15.349-.15.564H21.1c0-.408.107-.775.322-1.101.215-.326.512-.58.892-.762.383-.187.811-.28 1.284-.28.508 0 .952.084 1.332.253.38.168.673.419.88.752.212.333.317.739.317 1.219 0 .329-.103.65-.311.961a2.024 2.024 0 01-.886.725zM27.449 252v-.924l2.546-2.761c.279-.311.497-.578.655-.8a2.67 2.67 0 00.333-.607c.068-.179.102-.358.102-.537 0-.365-.102-.661-.306-.886-.2-.226-.48-.339-.838-.339-.423 0-.747.131-.972.393-.222.257-.333.601-.333 1.031h-1.338c0-.462.106-.883.317-1.262.212-.38.518-.681.919-.903.4-.222.875-.333 1.423-.333.52 0 .963.088 1.332.263.369.176.65.427.843.752.194.323.29.704.29 1.144 0 .459-.136.917-.408 1.375-.272.455-.67.956-1.192 1.504l-1.697 1.816h3.598V252H27.45zm8.491 0v-6.241l-1.906.639v-1.117l3.077-1.128h.167V252H35.94zm54.367-48v-6.633l-1.998.736v-.897l2.847-1.069h.155V204h-1.004zm7.525-4.028c.408.175.73.431.967.768.24.337.36.718.36 1.144 0 .462-.11.861-.328 1.198-.215.336-.51.592-.886.768-.376.172-.8.258-1.273.258-.473 0-.9-.086-1.279-.258a2.075 2.075 0 01-.886-.763c-.215-.336-.322-.737-.322-1.203 0-.43.116-.813.349-1.149.233-.341.553-.597.961-.768a2.033 2.033 0 01-.832-.715 1.86 1.86 0 01-.3-1.036c0-.444.097-.828.294-1.15.197-.326.47-.573.817-.741a2.74 2.74 0 011.198-.252c.447 0 .845.085 1.192.257.347.169.62.414.816.736.197.322.296.706.296 1.15 0 .383-.102.728-.306 1.036a2.06 2.06 0 01-.838.72zm-1.16-3.094c-.258 0-.486.056-.682.167a1.173 1.173 0 00-.462.472 1.515 1.515 0 00-.162.715c0 .268.054.503.162.703.107.201.26.357.456.468.2.111.43.166.688.166.257 0 .485-.055.682-.166.197-.111.349-.267.456-.468.108-.2.161-.435.161-.703 0-.258-.055-.489-.166-.693a1.169 1.169 0 00-.457-.484 1.291 1.291 0 00-.676-.177zm0 6.424c.462 0 .823-.127 1.085-.381.265-.255.397-.607.397-1.058 0-.287-.063-.543-.188-.769a1.321 1.321 0 00-.532-.526 1.57 1.57 0 00-.773-.188c-.297 0-.557.063-.779.188a1.303 1.303 0 00-.516.526 1.614 1.614 0 00-.177.769c0 .451.13.803.392 1.058.265.254.629.381 1.09.381zm6.021-2.224v-.811h2.626v.811h-2.626zm6.219 2.922v-.709l2.562-2.852c.319-.354.564-.651.736-.891.172-.244.292-.462.36-.656.072-.197.107-.401.107-.612 0-.261-.053-.498-.161-.709a1.199 1.199 0 00-.467-.505 1.361 1.361 0 00-.725-.188c-.508 0-.895.145-1.16.435-.265.29-.398.679-.398 1.166h-1.004c0-.448.098-.854.295-1.219.197-.366.489-.654.876-.865.387-.215.85-.322 1.391-.322.483 0 .902.087 1.257.263.354.172.626.415.816.73.19.315.285.681.285 1.096 0 .43-.133.874-.398 1.332a8.069 8.069 0 01-1.068 1.418l-2.095 2.283h3.921V204h-5.13zm11.473-1.821H119.3V204h-1.004v-1.821h-3.561v-.58l3.496-5.419h1.069v5.194h1.085v.805zm-2.089-.805v-3.841l-.119.21-2.309 3.631h2.428zM99.333 93.18h4.221v1.144h-3.115l-.209 1.847c.15-.082.329-.154.537-.215.211-.06.438-.09.682-.09.491 0 .911.105 1.262.316.355.211.625.516.811.913.19.394.285.861.285 1.402 0 .494-.097.938-.29 1.332-.19.394-.478.706-.865.935-.387.229-.861.343-1.423.343-.448 0-.861-.086-1.241-.257a2.294 2.294 0 01-.924-.763c-.236-.337-.369-.74-.397-1.209h1.3c.046.37.179.654.397.854.218.2.505.301.859.301.409 0 .718-.143.93-.43.214-.286.322-.67.322-1.149 0-.458-.12-.825-.36-1.101-.236-.28-.575-.419-1.015-.419-.19 0-.353.02-.489.06a1.09 1.09 0 00-.338.15c-.09.06-.19.143-.301.247l-1.069-.269.43-3.942zm7.503 5.339l-.585.596V101h-1.332v-8.25h1.332v4.732l.397-.494 1.59-1.8h1.611l-2.153 2.418 2.379 3.394h-1.547l-1.692-2.481zM93.894 307v-.924l2.546-2.761a9.09 9.09 0 00.655-.8 2.67 2.67 0 00.333-.607 1.5 1.5 0 00.102-.537c0-.365-.102-.661-.306-.886-.2-.226-.48-.339-.838-.339-.422 0-.746.131-.972.393-.222.257-.333.601-.333 1.031h-1.337c0-.462.105-.883.317-1.262.21-.38.517-.681.918-.903.401-.222.876-.333 1.423-.333.52 0 .964.088 1.332.263.37.176.65.427.844.752.193.323.29.704.29 1.144 0 .459-.136.917-.408 1.375-.273.455-.67.956-1.193 1.504l-1.697 1.816h3.599V307h-5.275zm7.181-1.407c.237 0 .425.07.564.209.14.14.21.317.21.532 0 .211-.07.387-.21.526-.139.136-.327.204-.564.204-.24 0-.429-.068-.569-.204a.711.711 0 01-.21-.526.72.72 0 01.21-.532c.14-.139.329-.209.569-.209zm2.938-6.413h4.222v1.144h-3.115l-.21 1.847c.151-.082.33-.154.537-.214.212-.061.439-.092.682-.092.491 0 .912.106 1.263.317.354.211.624.516.811.913.189.394.284.861.284 1.402 0 .494-.096.938-.29 1.332-.19.394-.478.706-.864.935-.387.229-.862.343-1.424.343a2.99 2.99 0 01-1.241-.257 2.293 2.293 0 01-.923-.763c-.237-.337-.369-.74-.398-1.209h1.3c.047.369.179.654.397.854.219.201.505.301.86.301.408 0 .718-.143.929-.429.215-.287.322-.67.322-1.15 0-.458-.12-.825-.36-1.101-.236-.279-.574-.419-1.015-.419-.19 0-.352.02-.488.059a1.079 1.079 0 00-.339.151c-.089.06-.19.143-.301.247l-1.069-.269.43-3.942zm7.504 5.339l-.586.596V307h-1.332v-8.25h1.332v4.732l.398-.494 1.589-1.8h1.612l-2.154 2.417 2.379 3.395h-1.547l-1.691-2.481zM163.04 204v-.709l2.562-2.852c.319-.354.564-.651.736-.891.172-.244.292-.462.36-.656.072-.197.107-.401.107-.612 0-.261-.053-.498-.161-.709a1.199 1.199 0 00-.467-.505 1.361 1.361 0 00-.725-.188c-.509 0-.895.145-1.16.435-.265.29-.398.679-.398 1.166h-1.004c0-.448.098-.854.295-1.219.197-.366.489-.654.876-.865.387-.215.85-.322 1.391-.322.483 0 .902.087 1.257.263.354.172.626.415.816.73.19.315.285.681.285 1.096 0 .43-.133.874-.398 1.332a8.069 8.069 0 01-1.068 1.418l-2.095 2.283h3.921V204h-5.13zm7.042-7.82h4.012v.908h-3.164l-.231 2.143c.162-.097.351-.178.57-.242.222-.064.465-.097.73-.097.477 0 .888.108 1.236.323.351.211.619.513.805.907.19.394.285.856.285 1.386 0 .509-.093.96-.279 1.354-.183.39-.46.696-.833.918-.369.218-.823.328-1.364.328a2.83 2.83 0 01-1.182-.242 2.123 2.123 0 01-.865-.725c-.222-.326-.354-.725-.397-1.198h.951c.061.444.218.783.472 1.015.258.229.598.344 1.021.344.308 0 .571-.072.789-.215a1.37 1.37 0 00.505-.618c.118-.268.178-.585.178-.95 0-.333-.061-.63-.183-.892a1.433 1.433 0 00-.537-.623 1.514 1.514 0 00-.838-.225c-.211 0-.39.019-.537.059a1.191 1.191 0 00-.371.155 3.472 3.472 0 00-.365.285l-.806-.204.398-3.894zm7.611 4.898v-.811h2.626v.811h-2.626zm9.689-1.095c.48.154.824.397 1.031.73.212.33.317.698.317 1.107 0 .476-.107.886-.322 1.23-.215.343-.51.606-.886.789a2.893 2.893 0 01-1.268.269c-.462 0-.881-.086-1.257-.258a2.135 2.135 0 01-.897-.747c-.218-.329-.327-.719-.327-1.171h1.004c0 .273.059.512.177.72.122.208.294.369.516.483.222.112.483.167.784.167.462 0 .822-.124 1.08-.371.261-.247.392-.61.392-1.09 0-.476-.147-.832-.441-1.069-.29-.24-.694-.36-1.213-.36h-.709v-.805h.709c.333 0 .614-.058.843-.172.233-.115.406-.274.521-.478.114-.204.172-.437.172-.698 0-.452-.115-.794-.344-1.026-.226-.237-.564-.355-1.015-.355-.28 0-.525.056-.736.167a1.208 1.208 0 00-.494.472 1.374 1.374 0 00-.177.709h-1.005c0-.397.1-.761.301-1.09.204-.329.489-.589.854-.779.365-.19.784-.284 1.257-.284.476 0 .891.084 1.246.252.354.168.628.419.822.752.197.329.295.73.295 1.203 0 .204-.045.415-.134.634-.09.218-.228.422-.414.612-.182.19-.41.342-.682.457zm8.003 2.196H194.3V204h-1.004v-1.821h-3.561v-.58l3.496-5.419h1.069v5.194h1.085v.805zm-2.089-.805v-3.841l-.119.21-2.309 3.631h2.428zM171.123 126v-6.241l-1.907.639v-1.117l3.078-1.128h.166V126h-1.337zm4.952-1.407c.237 0 .425.07.564.209.14.14.21.317.21.532 0 .211-.07.387-.21.526-.139.136-.327.204-.564.204-.24 0-.429-.068-.569-.204a.711.711 0 01-.21-.526.72.72 0 01.21-.532c.14-.139.329-.209.569-.209zM178.25 126v-.924l2.546-2.761c.28-.311.498-.578.656-.8.157-.225.268-.428.333-.607.068-.179.102-.358.102-.537 0-.365-.102-.661-.306-.886-.201-.226-.48-.339-.838-.339-.423 0-.747.131-.972.393-.222.257-.333.601-.333 1.031H178.1c0-.462.106-.883.317-1.262.211-.38.517-.681.918-.903.401-.222.876-.333 1.424-.333.519 0 .963.088 1.332.263.369.176.65.427.843.752.193.323.29.704.29 1.144 0 .459-.136.917-.408 1.375-.272.455-.67.956-1.192 1.504l-1.698 1.816h3.599V126h-5.275zm8.267-2.481l-.586.596V126h-1.332v-8.25h1.332v4.732l.398-.494 1.589-1.8h1.612l-2.154 2.417 2.379 3.395h-1.547l-1.691-2.481zm-13.879 196.463c.447.154.779.393.993.715.215.322.323.693.323 1.112 0 .476-.115.888-.344 1.235a2.196 2.196 0 01-.945.795 3.3 3.3 0 01-1.359.268 3.24 3.24 0 01-1.284-.252 2.229 2.229 0 01-.94-.757c-.233-.333-.349-.734-.349-1.203h1.337c0 .222.052.42.156.596.104.172.251.306.441.403.189.093.409.139.66.139.405 0 .72-.107.945-.322.23-.215.344-.517.344-.908 0-.429-.125-.748-.376-.956-.247-.208-.596-.311-1.047-.311h-.779v-1.053h.779c.426 0 .75-.108.972-.322.222-.215.333-.503.333-.865 0-.365-.098-.648-.295-.849-.197-.2-.489-.301-.876-.301-.225 0-.428.045-.607.135-.179.086-.32.209-.424.37-.1.161-.15.349-.15.564h-1.338c0-.408.108-.775.322-1.101.215-.326.512-.58.892-.762.383-.187.811-.28 1.284-.28.508 0 .952.084 1.332.253.379.168.673.419.881.752.211.333.316.739.316 1.219 0 .329-.103.65-.311.961a2.026 2.026 0 01-.886.725zm3.437 2.611c.237 0 .425.07.564.209.14.14.21.317.21.532 0 .211-.07.387-.21.526-.139.136-.327.204-.564.204-.24 0-.429-.068-.569-.204a.711.711 0 01-.21-.526.72.72 0 01.21-.532c.14-.139.329-.209.569-.209zm5.919-2.611c.448.154.779.393.994.715.215.322.322.693.322 1.112 0 .476-.115.888-.344 1.235a2.196 2.196 0 01-.945.795 3.3 3.3 0 01-1.359.268 3.24 3.24 0 01-1.284-.252 2.235 2.235 0 01-.94-.757c-.232-.333-.349-.734-.349-1.203h1.338c0 .222.052.42.156.596.103.172.25.306.44.403.19.093.41.139.661.139.404 0 .719-.107.945-.322.229-.215.344-.517.344-.908 0-.429-.126-.748-.376-.956-.247-.208-.597-.311-1.048-.311h-.778v-1.053h.778c.426 0 .75-.108.972-.322.222-.215.333-.503.333-.865 0-.365-.098-.648-.295-.849-.197-.2-.489-.301-.875-.301-.226 0-.428.045-.607.135a1.02 1.02 0 00-.425.37c-.1.161-.15.349-.15.564h-1.337c0-.408.107-.775.322-1.101a2.16 2.16 0 01.891-.762 2.89 2.89 0 011.284-.28c.509 0 .953.084 1.332.253.38.168.673.419.881.752.211.333.317.739.317 1.219 0 .329-.104.65-.312.961a2.02 2.02 0 01-.886.725zm4.523 1.537l-.586.596V324h-1.332v-8.25h1.332v4.732l.398-.494 1.589-1.8h1.612l-2.154 2.417 2.379 3.395h-1.547l-1.691-2.481zm52.682-121.912c.344 0 .629-.059.854-.178.23-.118.4-.277.511-.478.114-.204.172-.435.172-.692 0-.298-.051-.548-.151-.752a.999.999 0 00-.451-.468c-.2-.107-.453-.161-.757-.161-.28 0-.525.056-.736.167a1.216 1.216 0 00-.494.467c-.118.2-.178.439-.178.714h-1.004c0-.401.1-.762.301-1.085.2-.325.481-.585.843-.778.362-.194.784-.29 1.268-.29.472 0 .886.084 1.24.252.355.165.631.412.828.741.197.326.295.731.295 1.214 0 .201-.047.412-.14.634a1.927 1.927 0 01-.424.628c-.19.194-.437.353-.741.478-.305.122-.67.183-1.096.183h-.849v-.596h.709zm-.709.215h.849c.498 0 .91.059 1.235.177.326.118.582.275.769.472.189.194.322.409.397.645.079.236.118.471.118.704 0 .487-.109.9-.327 1.24-.215.34-.511.6-.887.779a2.875 2.875 0 01-1.262.269c-.34 0-.661-.049-.961-.145a2.494 2.494 0 01-.795-.419 1.989 1.989 0 01-.532-.682 2.148 2.148 0 01-.193-.93h1.004c0 .273.059.512.177.72.122.204.292.364.511.478.222.115.485.172.789.172.455 0 .813-.122 1.074-.365.265-.244.398-.609.398-1.096 0-.326-.068-.594-.204-.806a1.2 1.2 0 00-.575-.467 2.248 2.248 0 00-.876-.156h-.709v-.59zm5.194.252l.398-3.894h4.012v.908h-3.164l-.231 2.143c.14-.083.319-.16.538-.231.222-.072.476-.108.762-.108.48 0 .894.108 1.241.323a2.1 2.1 0 01.8.907c.19.391.285.853.285 1.386 0 .498-.091.944-.274 1.337a2.079 2.079 0 01-.816.924c-.366.226-.828.339-1.386.339-.315 0-.614-.043-.897-.129a2.322 2.322 0 01-.752-.403 2.18 2.18 0 01-.537-.677 2.562 2.562 0 01-.258-.956h.951c.061.444.22.783.478 1.015.258.229.596.344 1.015.344.311 0 .576-.072.795-.215.222-.147.39-.353.505-.618.114-.268.172-.585.172-.95 0-.33-.061-.625-.183-.886a1.437 1.437 0 00-.526-.623c-.23-.154-.512-.231-.849-.231-.333 0-.584.044-.752.134a2.603 2.603 0 00-.521.365l-.806-.204zm10.635 1.004h-2.626v-.811h2.626v.811zm8.879 1.101h-5.651v-.58l3.497-5.419h.816l-.87 1.563-2.31 3.631h4.518v.805zM262.113 204h-1.005v-7.82h1.005V204zm7.272-1.821h-5.65v-.58l3.496-5.419h.817l-.871 1.563-2.309 3.631h4.517v.805zM268.3 204h-1.004v-7.82h1.004V204zm-20.258-73.034c.394.179.704.435.93.768.225.33.338.708.338 1.134 0 .472-.111.877-.333 1.214a2.114 2.114 0 01-.918.768 3.241 3.241 0 01-1.322.257 3.27 3.27 0 01-1.326-.257 2.117 2.117 0 01-.913-.768c-.222-.337-.333-.742-.333-1.214 0-.43.111-.81.333-1.139a2.17 2.17 0 01.923-.763 2.033 2.033 0 01-.8-.714 1.851 1.851 0 01-.285-1.01c0-.455.102-.845.307-1.171.204-.326.487-.573.848-.741a2.87 2.87 0 011.246-.258c.469 0 .885.086 1.246.258.362.168.645.415.849.741.204.326.306.716.306 1.171 0 .373-.098.709-.295 1.01-.194.301-.46.539-.801.714zm-1.305-2.82c-.326 0-.585.104-.779.312-.189.204-.284.482-.284.833 0 .347.095.626.284.837.194.212.453.317.779.317.33 0 .589-.104.779-.311.19-.211.285-.493.285-.843 0-.341-.097-.616-.29-.828-.19-.211-.448-.317-.774-.317zm0 5.887c.383 0 .684-.109.903-.327.218-.222.327-.527.327-.914 0-.254-.052-.476-.155-.666a1.052 1.052 0 00-.436-.445 1.268 1.268 0 00-.649-.161c-.248 0-.464.053-.65.161a1.068 1.068 0 00-.425.445c-.1.19-.15.412-.15.666 0 .387.109.692.328.914.222.218.524.327.907.327zm5.823.967h-1.408l3.11-6.746h-4.023v-1.074h5.43v.741L252.56 135zm7.154-5.188c.487 0 .899.119 1.235.359.337.24.587.559.752.956.165.398.247.833.247 1.306 0 .505-.102.961-.306 1.369a2.296 2.296 0 01-.886.956c-.383.233-.836.349-1.359.349-.544 0-1.017-.137-1.418-.413a2.68 2.68 0 01-.918-1.117 3.76 3.76 0 01-.312-1.542v-.521c0-.823.134-1.563.403-2.218a3.395 3.395 0 011.273-1.574c.58-.39 1.316-.585 2.207-.585h.161v1.101h-.091c-.537 0-.99.096-1.359.29a2.118 2.118 0 00-.854.789c-.197.33-.32.711-.37 1.144.197-.211.431-.372.703-.483.272-.111.57-.166.892-.166zm-.333 4.216c.254 0 .474-.066.661-.199.186-.132.329-.317.429-.553.1-.236.151-.507.151-.811 0-.294-.049-.559-.145-.795a1.28 1.28 0 00-.43-.569c-.186-.14-.41-.21-.672-.21-.29 0-.551.081-.784.242a1.356 1.356 0 00-.499.612v.414c0 .397.057.737.172 1.02.114.279.268.491.462.634.197.143.415.215.655.215zM246.297 266h-1.407l3.11-6.746h-4.023v-1.074h5.43v.741l-3.11 7.079zm8.008-4.034c.394.179.704.435.929.768.226.33.339.708.339 1.134 0 .472-.111.877-.333 1.214a2.111 2.111 0 01-.919.768 3.233 3.233 0 01-1.321.257 3.28 3.28 0 01-1.327-.257 2.123 2.123 0 01-.913-.768c-.222-.337-.333-.742-.333-1.214 0-.43.111-.81.333-1.139.222-.329.53-.584.924-.763a2.033 2.033 0 01-.8-.714 1.851 1.851 0 01-.285-1.01c0-.455.102-.845.306-1.171a1.94 1.94 0 01.849-.741 2.87 2.87 0 011.246-.258c.469 0 .884.086 1.246.258.362.168.645.415.849.741.204.326.306.716.306 1.171 0 .373-.099.709-.296 1.01-.193.301-.46.539-.8.714zm-1.305-2.82c-.326 0-.585.104-.779.312-.19.204-.284.482-.284.833 0 .347.094.626.284.837.194.212.453.317.779.317.329 0 .589-.104.779-.311.19-.211.284-.493.284-.843 0-.341-.096-.616-.29-.828-.189-.211-.447-.317-.773-.317zm0 5.887c.383 0 .684-.109.902-.327.219-.222.328-.527.328-.914 0-.254-.052-.476-.156-.666a1.044 1.044 0 00-.435-.445 1.272 1.272 0 00-.65-.161c-.247 0-.463.053-.65.161a1.065 1.065 0 00-.424.445c-.1.19-.15.412-.15.666 0 .387.109.692.327.914.222.218.525.327.908.327zm6.714-4.221c.487 0 .899.119 1.235.359.337.24.587.559.752.956.165.398.247.833.247 1.306 0 .505-.102.961-.306 1.369a2.296 2.296 0 01-.886.956c-.383.233-.836.349-1.359.349-.544 0-1.017-.137-1.418-.413a2.68 2.68 0 01-.918-1.117 3.76 3.76 0 01-.312-1.542v-.521c0-.823.134-1.563.403-2.218a3.395 3.395 0 011.273-1.574c.58-.39 1.316-.585 2.207-.585h.161v1.101h-.091c-.537 0-.99.096-1.359.29a2.118 2.118 0 00-.854.789c-.197.33-.32.711-.37 1.144.197-.211.431-.372.703-.483.272-.111.57-.166.892-.166zm-.333 4.216c.254 0 .474-.066.661-.199.186-.132.329-.317.429-.553.1-.236.151-.507.151-.811 0-.294-.049-.559-.145-.795a1.28 1.28 0 00-.43-.569c-.186-.14-.41-.21-.672-.21-.29 0-.551.081-.784.242a1.356 1.356 0 00-.499.612v.414c0 .397.057.737.172 1.02.114.279.268.491.462.634.197.143.415.215.655.215zm56.944-62.849h-1.085V204h-1.004v-1.821h-3.561v-.58l3.496-5.419h1.069v5.194h1.085v.805zm-2.089-.805v-3.841l-.118.21-2.31 3.631h2.428zm3.846-5.194h4.012v.907h-3.164l-.231 2.143c.161-.096.351-.177.57-.241.222-.065.465-.097.73-.097.476 0 .888.108 1.235.322.351.212.62.514.806.908.19.394.285.856.285 1.386 0 .508-.093.959-.28 1.353-.182.391-.46.697-.832.919-.369.218-.824.327-1.364.327-.434 0-.828-.08-1.182-.241a2.123 2.123 0 01-.865-.725c-.222-.326-.354-.725-.397-1.198h.95c.061.444.219.782.473 1.015.258.229.598.344 1.021.344.308 0 .571-.072.789-.215.222-.147.39-.353.505-.618.118-.268.177-.585.177-.95a2.1 2.1 0 00-.182-.892 1.427 1.427 0 00-.537-.623 1.514 1.514 0 00-.838-.226c-.212 0-.391.02-.537.059a1.206 1.206 0 00-.371.156 3.371 3.371 0 00-.365.285l-.806-.204.398-3.894zm7.61 4.898v-.811h2.627v.811h-2.627zm7.074-4.898h4.012v.907h-3.163l-.231 2.143c.161-.096.351-.177.569-.241.222-.065.466-.097.731-.097.476 0 .888.108 1.235.322.351.212.619.514.806.908.189.394.284.856.284 1.386 0 .508-.093.959-.279 1.353-.183.391-.46.697-.833.919-.368.218-.823.327-1.364.327a2.82 2.82 0 01-1.181-.241 2.116 2.116 0 01-.865-.725c-.222-.326-.355-.725-.398-1.198h.951c.061.444.218.782.473 1.015.258.229.598.344 1.02.344.308 0 .571-.072.79-.215.222-.147.39-.353.505-.618.118-.268.177-.585.177-.95 0-.333-.061-.631-.183-.892a1.42 1.42 0 00-.537-.623 1.514 1.514 0 00-.838-.226c-.211 0-.39.02-.537.059a1.2 1.2 0 00-.37.156 3.47 3.47 0 00-.366.285l-.805-.204.397-3.894zm10.619 5.999H342.3V204h-1.005v-1.821h-3.561v-.58l3.497-5.419h1.069v5.194h1.085v.805zm-2.09-.805v-3.841l-.118.21-2.309 3.631h2.427zM320.297 144h-1.407l3.11-6.746h-4.023v-1.074h5.43v.741l-3.11 7.079zm9.555-1.735h-.967V144h-1.337v-1.735h-3.357l-.038-.816 3.357-5.269h1.375v5.011h.967v1.074zm-2.304-1.074v-3.201l-.097.172-1.907 3.029h2.004zm3.926-5.011h4.222v1.144h-3.115l-.21 1.847c.15-.082.33-.154.537-.214a2.45 2.45 0 01.682-.092c.491 0 .912.106 1.263.317.354.211.624.516.811.913.189.394.284.861.284 1.402 0 .494-.096.938-.29 1.332-.19.394-.478.706-.865.935-.386.229-.861.343-1.423.343a2.99 2.99 0 01-1.241-.257 2.293 2.293 0 01-.923-.763c-.237-.337-.369-.74-.398-1.209h1.3c.046.369.179.654.397.854.219.201.505.301.86.301.408 0 .718-.143.929-.429.215-.287.322-.67.322-1.15 0-.458-.12-.825-.36-1.101-.236-.279-.574-.419-1.015-.419-.19 0-.352.02-.489.059a1.083 1.083 0 00-.338.151c-.089.06-.19.143-.301.247l-1.069-.269.43-3.942zm-7.885 106.085h-.966V244h-1.338v-1.735h-3.357l-.037-.816 3.357-5.269h1.375v5.011h.966v1.074zm-2.304-1.074v-3.201l-.097.172-1.906 3.029h2.003zm3.164 2.809v-.924l2.546-2.761c.279-.311.497-.578.655-.8.157-.225.268-.428.333-.607.068-.179.102-.358.102-.537 0-.365-.102-.661-.306-.886-.201-.226-.48-.339-.838-.339-.423 0-.747.131-.972.393-.222.257-.333.601-.333 1.031h-1.338c0-.462.106-.883.317-1.262.211-.38.518-.681.919-.903.401-.222.875-.333 1.423-.333.519 0 .963.088 1.332.263.369.176.65.427.843.752.194.323.29.704.29 1.144 0 .459-.136.917-.408 1.375-.272.455-.669.956-1.192 1.504l-1.697 1.816h3.598V244h-5.274zm10.006-4.018c.448.154.779.393.994.715.215.322.322.693.322 1.112 0 .476-.115.888-.344 1.235a2.196 2.196 0 01-.945.795 3.3 3.3 0 01-1.359.268 3.24 3.24 0 01-1.284-.252 2.235 2.235 0 01-.94-.757c-.232-.333-.349-.734-.349-1.203h1.338c0 .222.052.42.155.596.104.172.251.306.441.403.19.093.41.139.661.139.404 0 .719-.107.945-.322.229-.215.344-.517.344-.908 0-.429-.126-.748-.376-.956-.247-.208-.597-.311-1.048-.311h-.779v-1.053h.779c.426 0 .75-.108.972-.322.222-.215.333-.503.333-.865 0-.365-.098-.648-.295-.849-.197-.2-.489-.301-.875-.301-.226 0-.428.045-.607.135a1.02 1.02 0 00-.425.37c-.1.161-.15.349-.15.564h-1.338c0-.408.108-.775.323-1.101a2.16 2.16 0 01.891-.762c.383-.187.811-.28 1.284-.28.509 0 .953.084 1.332.253.38.168.673.419.881.752.211.333.317.739.317 1.219 0 .329-.104.65-.312.961a2.02 2.02 0 01-.886.725zm53.439-43.802h4.012v.907h-3.163l-.231 2.143c.161-.096.351-.177.569-.241.222-.065.466-.097.731-.097.476 0 .888.108 1.235.322.351.212.619.514.806.908.189.394.284.856.284 1.386 0 .508-.093.959-.279 1.353-.183.391-.46.697-.833.919-.368.218-.823.327-1.364.327-.433 0-.827-.08-1.182-.241a2.12 2.12 0 01-.864-.725c-.222-.326-.355-.725-.398-1.198h.951c.061.444.218.782.473 1.015.257.229.598.344 1.02.344.308 0 .571-.072.79-.215.222-.147.39-.353.505-.618.118-.268.177-.585.177-.95 0-.333-.061-.631-.183-.892a1.427 1.427 0 00-.537-.623 1.514 1.514 0 00-.838-.226c-.211 0-.39.02-.537.059a1.216 1.216 0 00-.371.156 3.579 3.579 0 00-.365.285l-.805-.204.397-3.894zm6.188 0h4.012v.907h-3.164l-.231 2.143c.161-.096.351-.177.57-.241.222-.065.465-.097.73-.097.476 0 .888.108 1.235.322.351.212.62.514.806.908.19.394.285.856.285 1.386 0 .508-.093.959-.28 1.353-.182.391-.46.697-.832.919-.369.218-.824.327-1.364.327-.434 0-.828-.08-1.182-.241a2.123 2.123 0 01-.865-.725c-.222-.326-.354-.725-.397-1.198h.95c.061.444.219.782.473 1.015.258.229.598.344 1.021.344.308 0 .571-.072.789-.215.222-.147.39-.353.505-.618.118-.268.177-.585.177-.95a2.1 2.1 0 00-.182-.892 1.427 1.427 0 00-.537-.623 1.514 1.514 0 00-.838-.226c-.212 0-.391.02-.537.059a1.206 1.206 0 00-.371.156 3.371 3.371 0 00-.365.285l-.806-.204.398-3.894zm7.61 4.898v-.811h2.627v.811h-2.627zm8.986-2.207c.494 0 .91.121 1.246.365.337.24.586.557.747.951.165.39.247.811.247 1.262 0 .501-.093.954-.279 1.359a2.202 2.202 0 01-.827.95c-.366.233-.806.349-1.322.349-.537 0-.995-.143-1.375-.429a2.685 2.685 0 01-.854-1.117 3.753 3.753 0 01-.284-1.451v-.472c0-1.304.277-2.374.832-3.212.559-.838 1.531-1.257 2.917-1.257h.086v.838h-.086c-.885 0-1.544.242-1.977.725-.433.48-.682 1.094-.747 1.842.208-.236.453-.412.736-.526.287-.118.6-.177.94-.177zm-.188 4.42c.301 0 .559-.075.774-.226a1.42 1.42 0 00.494-.633c.114-.272.172-.584.172-.935a2.46 2.46 0 00-.161-.897 1.467 1.467 0 00-.478-.661 1.214 1.214 0 00-.779-.252c-.226 0-.443.048-.65.145a1.664 1.664 0 00-.881.929v.376c0 .448.07.835.209 1.16.14.326.324.573.554.742.232.168.481.252.746.252zm8.895-1.112H418.3V204h-1.005v-1.821h-3.561v-.58l3.497-5.419h1.069v5.194h1.085v.805zm-2.09-.805v-3.841l-.118.21-2.309 3.631h2.427zm-18.706-36.109h-.966V167h-1.338v-1.735h-3.357l-.037-.816 3.357-5.269h1.375v5.011h.966v1.074zm-2.304-1.074v-3.201l-.097.172-1.906 3.029h2.003zm5.393 2.809v-6.241l-1.907.639v-1.117l3.078-1.128h.166V167h-1.337zm7.777-4.018c.448.154.779.393.994.715.215.322.322.693.322 1.112 0 .476-.115.888-.344 1.235a2.196 2.196 0 01-.945.795 3.3 3.3 0 01-1.359.268 3.24 3.24 0 01-1.284-.252 2.235 2.235 0 01-.94-.757c-.232-.333-.349-.734-.349-1.203h1.338c0 .222.052.42.155.596.104.172.251.306.441.403.19.093.41.139.661.139.404 0 .719-.107.945-.322.229-.215.344-.517.344-.908 0-.429-.126-.748-.376-.956-.247-.208-.597-.311-1.048-.311h-.779v-1.053h.779c.426 0 .75-.108.972-.322.222-.215.333-.503.333-.865 0-.365-.098-.648-.295-.849-.197-.2-.489-.301-.875-.301-.226 0-.428.045-.607.135a1.02 1.02 0 00-.425.37c-.1.161-.15.349-.15.564h-1.338c0-.408.108-.775.323-1.101a2.16 2.16 0 01.891-.762c.383-.187.811-.28 1.284-.28.509 0 .953.084 1.332.253.38.168.673.419.881.752.211.333.317.739.317 1.219 0 .329-.104.65-.312.961a2.02 2.02 0 01-.886.725zM395.415 238v-6.241l-1.907.639v-1.117l3.078-1.128h.166V238h-1.337zm4.034 0v-.924l2.546-2.761c.279-.311.497-.578.655-.8.157-.225.268-.428.333-.607.068-.179.102-.358.102-.537 0-.365-.102-.661-.306-.886-.201-.226-.48-.339-.838-.339-.423 0-.747.131-.972.393-.222.257-.333.601-.333 1.031h-1.338c0-.462.106-.883.317-1.262.211-.38.518-.681.919-.903.401-.222.875-.333 1.423-.333.519 0 .963.088 1.332.263.369.176.65.427.843.752.194.323.29.704.29 1.144 0 .459-.136.917-.408 1.375-.272.455-.669.956-1.192 1.504l-1.697 1.816h3.598V238h-5.274zm7.025-7.82h4.222v1.144h-3.115l-.21 1.847c.15-.082.33-.154.537-.214a2.45 2.45 0 01.682-.092c.491 0 .912.106 1.263.317.354.211.624.516.811.913.189.394.284.861.284 1.402 0 .494-.096.938-.29 1.332-.19.394-.478.706-.865.935-.386.229-.861.343-1.423.343a2.99 2.99 0 01-1.241-.257 2.293 2.293 0 01-.923-.763c-.237-.337-.369-.74-.398-1.209h1.3c.046.369.179.654.397.854.219.201.505.301.86.301.408 0 .718-.143.929-.429.215-.287.322-.67.322-1.15 0-.458-.12-.825-.36-1.101-.236-.279-.574-.419-1.015-.419-.19 0-.352.02-.489.059a1.083 1.083 0 00-.338.151c-.089.06-.19.143-.301.247l-1.069-.269.43-3.942zm62.639-31.309c.494 0 .91.121 1.246.365.337.24.586.557.747.951.164.39.247.811.247 1.262 0 .501-.093.954-.28 1.359a2.19 2.19 0 01-.827.95c-.365.233-.805.349-1.321.349-.537 0-.995-.143-1.375-.429a2.677 2.677 0 01-.854-1.117 3.754 3.754 0 01-.285-1.451v-.472c0-1.304.278-2.374.833-3.212.558-.838 1.531-1.257 2.916-1.257h.086v.838h-.086c-.884 0-1.543.242-1.976.725-.433.48-.682 1.094-.747 1.842.208-.236.453-.412.736-.526.287-.118.6-.177.94-.177zm-.188 4.42c.301 0 .559-.075.773-.226.219-.154.384-.365.495-.633.114-.272.172-.584.172-.935a2.44 2.44 0 00-.162-.897 1.452 1.452 0 00-.478-.661 1.211 1.211 0 00-.778-.252c-.226 0-.443.048-.65.145a1.664 1.664 0 00-.881.929v.376c0 .448.07.835.209 1.16.14.326.324.573.553.742.233.168.482.252.747.252zm4.463-7.111h4.013v.907h-3.164l-.231 2.143c.161-.096.351-.177.569-.241.222-.065.466-.097.731-.097.476 0 .888.108 1.235.322.351.212.62.514.806.908.19.394.285.856.285 1.386 0 .508-.094.959-.28 1.353-.182.391-.46.697-.832.919-.369.218-.824.327-1.364.327-.434 0-.828-.08-1.182-.241a2.123 2.123 0 01-.865-.725c-.222-.326-.354-.725-.397-1.198h.95c.061.444.219.782.473 1.015.258.229.598.344 1.021.344.307 0 .571-.072.789-.215.222-.147.39-.353.505-.618.118-.268.177-.585.177-.95a2.1 2.1 0 00-.182-.892 1.423 1.423 0 00-.538-.623 1.511 1.511 0 00-.837-.226c-.212 0-.391.02-.538.059a1.21 1.21 0 00-.37.156 3.371 3.371 0 00-.365.285l-.806-.204.397-3.894zm10.463 4.56h-2.175v2.476h-1.004v-2.476h-2.181v-.929h2.181v-2.289h1.004v2.289h2.175v.929zM468.415 171v-6.241l-1.907.639v-1.117l3.078-1.128h.166V171h-1.337zm4.034 0v-.924l2.546-2.761c.279-.311.497-.578.655-.8.157-.225.268-.428.333-.607.068-.179.102-.358.102-.537 0-.365-.102-.661-.306-.886-.201-.226-.48-.339-.838-.339-.423 0-.747.131-.972.393-.222.257-.333.601-.333 1.031h-1.338c0-.462.106-.883.317-1.262.211-.38.518-.681.919-.903.401-.222.875-.333 1.423-.333.519 0 .963.088 1.332.263.369.176.65.427.843.752.194.323.29.704.29 1.144 0 .459-.136.917-.408 1.375-.272.455-.669.956-1.192 1.504l-1.697 1.816h3.598V171h-5.274zm10.006-4.018c.448.154.779.393.994.715.215.322.322.693.322 1.112 0 .476-.115.888-.344 1.235a2.196 2.196 0 01-.945.795 3.3 3.3 0 01-1.359.268 3.24 3.24 0 01-1.284-.252 2.235 2.235 0 01-.94-.757c-.232-.333-.349-.734-.349-1.203h1.338c0 .222.052.42.155.596.104.172.251.306.441.403.19.093.41.139.661.139.404 0 .719-.107.945-.322.229-.215.344-.517.344-.908 0-.429-.126-.748-.376-.956-.247-.208-.597-.311-1.048-.311h-.779v-1.053h.779c.426 0 .75-.108.972-.322.222-.215.333-.503.333-.865 0-.365-.098-.648-.295-.849-.197-.2-.489-.301-.875-.301-.226 0-.428.045-.607.135a1.02 1.02 0 00-.425.37c-.1.161-.15.349-.15.564h-1.338c0-.408.108-.775.323-1.101a2.16 2.16 0 01.891-.762c.383-.187.811-.28 1.284-.28.509 0 .953.084 1.332.253.38.168.673.419.881.752.211.333.317.739.317 1.219 0 .329-.104.65-.312.961a2.02 2.02 0 01-.886.725zM468.415 238v-6.241l-1.907.639v-1.117l3.078-1.128h.166V238h-1.337zm7.89-4.034c.394.179.704.435.929.768.226.33.339.708.339 1.134 0 .472-.111.877-.333 1.214a2.111 2.111 0 01-.919.768 3.233 3.233 0 01-1.321.257 3.28 3.28 0 01-1.327-.257 2.123 2.123 0 01-.913-.768c-.222-.337-.333-.742-.333-1.214 0-.43.111-.81.333-1.139.222-.329.53-.584.924-.763a2.033 2.033 0 01-.8-.714 1.851 1.851 0 01-.285-1.01c0-.455.102-.845.306-1.171a1.94 1.94 0 01.849-.741 2.87 2.87 0 011.246-.258c.469 0 .884.086 1.246.258.362.168.645.415.849.741.204.326.306.716.306 1.171 0 .373-.099.709-.296 1.01-.193.301-.46.539-.8.714zm-1.305-2.82c-.326 0-.585.104-.779.312-.19.204-.284.482-.284.833 0 .347.094.626.284.837.194.212.453.317.779.317.329 0 .589-.104.779-.311.19-.211.284-.493.284-.843 0-.341-.096-.616-.29-.828-.189-.211-.447-.317-.773-.317zm0 5.887c.383 0 .684-.109.902-.327.219-.222.328-.527.328-.914 0-.254-.052-.476-.156-.666a1.044 1.044 0 00-.435-.445 1.272 1.272 0 00-.65-.161c-.247 0-.463.053-.65.161a1.065 1.065 0 00-.424.445c-.1.19-.15.412-.15.666 0 .387.109.692.327.914.222.218.525.327.908.327zm6.171-6.961c.548 0 1.016.142 1.402.425.391.279.684.66.881 1.144.197.479.296 1.017.296 1.611v.44c0 1.289-.301 2.337-.903 3.142-.598.806-1.588 1.209-2.97 1.209h-.107v-1.117h.096c.863 0 1.49-.192 1.88-.575.394-.383.614-.918.661-1.606a2.266 2.266 0 01-.699.5 1.931 1.931 0 01-.821.182c-.487 0-.901-.118-1.241-.354a2.24 2.24 0 01-.763-.956 3.337 3.337 0 01-.252-1.311c0-.508.1-.97.301-1.386.204-.415.497-.743.88-.982.384-.244.837-.366 1.359-.366zm.006 4.308c.272 0 .517-.075.736-.226a1.47 1.47 0 00.504-.596v-.526c0-.398-.057-.738-.171-1.021-.111-.283-.262-.496-.452-.639a1 1 0 00-.628-.22c-.251 0-.467.073-.65.22a1.343 1.343 0 00-.419.586 2.169 2.169 0 00-.145.811c0 .29.045.558.134.805.094.244.231.439.414.586.186.146.412.22.677.22z" fill="#43425D"/><path d="M456 217h37v3a3.995 3.995 0 01-1.172 2.828A3.995 3.995 0 01489 224h-29a3.995 3.995 0 01-2.828-1.172A3.995 3.995 0 01456 220v-3zm-148 0h38v6a3.995 3.995 0 01-1.172 2.828A3.995 3.995 0 01342 227h-30a3.995 3.995 0 01-2.828-1.172A3.995 3.995 0 01308 223v-6zm-73 0h36v32a3.995 3.995 0 01-1.172 2.828A3.995 3.995 0 01267 253h-28a3.995 3.995 0 01-2.828-1.172A3.995 3.995 0 01235 249v-32zm148 0h37v1a3.995 3.995 0 01-1.172 2.828A3.995 3.995 0 01416 222h-29a3.995 3.995 0 01-2.828-1.172A3.995 3.995 0 01383 218v-1zm-223 0h37v86a3.995 3.995 0 01-1.172 2.828A3.995 3.995 0 01193 307h-29a3.995 3.995 0 01-2.828-1.172A3.995 3.995 0 01160 303v-86zm-148 0h37v15a3.998 3.998 0 01-4 4H16a3.997 3.997 0 01-4-4v-15zm74 0h37v67a3.995 3.995 0 01-1.172 2.828A3.995 3.995 0 01119 288H90a3.997 3.997 0 01-4-4v-67z" fill="#F8CF61"/><path d="M460 178h30c1.061 0 2.078.421 2.828 1.172A3.995 3.995 0 01494 182v1h-38v-1c0-1.061.421-2.078 1.172-2.828A3.995 3.995 0 01460 178zm-74-5h30c1.061 0 2.078.421 2.828 1.172A3.995 3.995 0 01420 177v6h-38v-6c0-1.061.421-2.078 1.172-2.828A3.995 3.995 0 01386 173zm-74-20h30c1.061 0 2.078.421 2.828 1.172A3.995 3.995 0 01346 157v26h-38v-26c0-1.061.421-2.078 1.172-2.828A3.995 3.995 0 01312 153zm-73-9h28c1.061 0 2.078.421 2.828 1.172A3.995 3.995 0 01271 148v35h-36v-35c0-1.061.421-2.078 1.172-2.828A3.995 3.995 0 01239 144zm-75-9h29c1.061 0 2.078.421 2.828 1.172A3.995 3.995 0 01197 139v44h-37v-44c0-1.061.421-2.078 1.172-2.828A3.995 3.995 0 01164 135zm-74-23h29c1.061 0 2.078.421 2.828 1.172A3.995 3.995 0 01123 116v67H86v-67a3.998 3.998 0 014-4zM16 73h29a4 4 0 014 4v106H12V77a4 4 0 014-4z" fill="#6BCAC1"/><path opacity=".49" d="M.5 183.5h508m-508 34h508" stroke="#AFB1B7"/></svg>