<svg width="27" height="15" viewBox="0 0 27 15" fill="none" xmlns="http://www.w3.org/2000/svg"><path d="M13.734 9.8c.547.247.848.848.711 1.423l-.574 2.57a1.235 1.235 0 01-1.23.957C5.94 14.75.5 9.309.5 2.61c0-.602.383-1.094.957-1.204l2.57-.601a1.253 1.253 0 011.422.71l1.176 2.79a1.264 1.264 0 01-.328 1.449l-1.121.902a8.923 8.923 0 003.418 3.418l.93-1.094c.328-.437.93-.574 1.421-.382l2.79 1.203zm-.738 3.802l.602-2.57c.054-.192-.055-.356-.22-.438l-2.76-1.176c-.165-.055-.329-.027-.438.11l-1.121 1.367c-.137.164-.356.218-.52.109a9.401 9.401 0 01-4.293-4.266.424.424 0 01.11-.547l1.367-1.12c.136-.11.164-.274.109-.438L4.656 1.87c-.082-.137-.218-.246-.355-.246-.028 0-.055.027-.082.027l-2.57.602c-.165.027-.274.164-.274.355 0 6.207 5.059 11.293 11.266 11.293a.356.356 0 00.355-.3zM26.613 8.05l-4.539 4.812c-.082.11-.219.137-.328.137a.41.41 0 01-.3-.11.407.407 0 01-.028-.6l3.828-4.102H14.938c-.247 0-.438-.192-.438-.41 0-.22.191-.465.438-.465h10.308l-3.828-4.075a.407.407 0 01.027-.601c.192-.164.465-.164.63.027l4.538 4.813a.397.397 0 010 .574z" fill="#fff"/></svg>