<svg width="87" height="87" viewBox="0 0 87 87" fill="none" xmlns="http://www.w3.org/2000/svg"><path d="M28.893 51.086a27.935 27.935 0 008.646 6.558 28.47 28.47 0 0021.38 1.44 28.127 28.127 0 009.477-5.338 27.563 27.563 0 006.678-8.492 27.033 27.033 0 001.468-20.997 27.375 27.375 0 00-5.434-9.307 27.942 27.942 0 00-8.647-6.56A28.475 28.475 0 0041.08 6.949a28.13 28.13 0 00-9.48 5.338c-5.597 4.793-9.027 11.573-9.534 18.85-.508 7.276 1.948 14.452 6.827 19.95z" fill="#E9EDF8" style="mix-blend-mode:screen"/><path d="M57.065 33.777a.89.89 0 01-.167.66.907.907 0 01-.587.354l-24.01 3.493a.907.907 0 01-.667-.164.89.89 0 01-.356-.582L26.486 5.232a.887.887 0 01.166-.66.903.903 0 01.588-.354L51.25.723a.908.908 0 01.667.164c.192.14.32.35.356.583l4.792 32.307z" fill="#EAEEF9"/><path d="M31.715 7.513c.432-.063.87.047 1.22.305s.583.642.646 1.07a1.62 1.62 0 01-.308 1.208 1.65 1.65 0 01-2.946-.734 1.618 1.618 0 01.308-1.21 1.65 1.65 0 011.08-.639zm-.044-.356a2.021 2.021 0 00-1.325.781 1.98 1.98 0 00-.376 1.482 1.975 1.975 0 00.793 1.304 2.014 2.014 0 001.492.364 2.018 2.018 0 001.318-.78 1.978 1.978 0 00.375-1.474 1.986 1.986 0 00-.788-1.304 2.023 2.023 0 00-1.488-.373h-.001zm1.186 8.055c.431-.063.87.047 1.22.305s.582.644.646 1.071c.063.428-.047.863-.308 1.21-.26.346-.648.576-1.08.639a1.658 1.658 0 01-1.22-.305 1.628 1.628 0 01-.646-1.07 1.622 1.622 0 01.308-1.209 1.65 1.65 0 011.08-.641zm-.045-.354a2.019 2.019 0 00-1.317.78 1.979 1.979 0 00-.114 2.204 1.992 1.992 0 001.231.908 2.02 2.02 0 002.1-.74 1.977 1.977 0 00.374-1.475 1.985 1.985 0 00-.787-1.305 2.021 2.021 0 00-1.488-.372h.001zm1.085 7.324c.43-.063.87.047 1.22.305a1.618 1.618 0 01.338 2.28 1.658 1.658 0 01-2.3.335 1.618 1.618 0 01-.339-2.279c.26-.348.65-.578 1.08-.641zm-.045-.356c-.526.077-1 .358-1.318.781a1.976 1.976 0 00.412 2.78 2.009 2.009 0 002.804-.414c.316-.424.449-.955.37-1.476a1.986 1.986 0 00-.788-1.304 2.022 2.022 0 00-1.488-.373l.008.006zm1.072 7.327c.431-.062.87.048 1.22.306s.582.643.646 1.07a1.62 1.62 0 01-.308 1.209 1.65 1.65 0 01-2.946-.735 1.621 1.621 0 01.308-1.209 1.65 1.65 0 011.08-.641zm-.044-.354a2.01 2.01 0 00-1.319.78 1.974 1.974 0 00.412 2.78 2.014 2.014 0 001.49.371c.523-.08.994-.36 1.309-.783a1.972 1.972 0 00-.417-2.775 2.02 2.02 0 00-1.488-.372l.013-.001z" fill="#F3F3F3"/><path d="M36.084 7.35l13.724-1.998a.092.092 0 00.06-.035.091.091 0 00.017-.067.09.09 0 00-.036-.058.092.092 0 00-.067-.016L36.058 7.173a.092.092 0 00-.06.035.091.091 0 00-.017.066.09.09 0 00.067.075.092.092 0 00.036.002z" fill="url(#paint0_linear_510_13311)"/><path d="M36.266 8.587l12.817-1.864a.089.089 0 00.063-.135.09.09 0 00-.09-.042L36.24 8.411a.092.092 0 00-.06.035.09.09 0 00-.005.1.088.088 0 00.055.04.09.09 0 00.035.001z" fill="url(#paint1_linear_510_13311)"/><path d="M36.266 8.587l12.817-1.864a.089.089 0 00.063-.135.09.09 0 00-.09-.042L36.24 8.411a.092.092 0 00-.06.035.09.09 0 00-.005.1.088.088 0 00.055.04.09.09 0 00.035.001z" fill="#09528A"/><path d="M36.45 9.824l6.12-.89a.09.09 0 00.008-.176.092.092 0 00-.036-.002l-6.119.891a.09.09 0 00-.059.035.087.087 0 00-.016.067.088.088 0 00.068.073.09.09 0 00.035.002z" fill="url(#paint2_linear_510_13311)"/><path d="M36.45 9.824l6.12-.89a.09.09 0 00.008-.176.092.092 0 00-.036-.002l-6.119.891a.09.09 0 00-.059.035.087.087 0 00-.016.067.088.088 0 00.068.073.09.09 0 00.035.002z" fill="#09528A"/><path d="M43.286 8.649a.09.09 0 00-.059.034.087.087 0 00-.005.099.09.09 0 00.056.041.092.092 0 00.035.002l3.72-.542a.09.09 0 00.075-.066.087.087 0 00.001-.035.088.088 0 00-.066-.073.09.09 0 00-.035-.002l-3.722.542z" fill="url(#paint3_linear_510_13311)"/><path d="M43.286 8.649a.09.09 0 00-.059.034.087.087 0 00-.005.099.09.09 0 00.056.041.092.092 0 00.035.002l3.72-.542a.09.09 0 00.075-.066.087.087 0 00.001-.035.088.088 0 00-.066-.073.09.09 0 00-.035-.002l-3.722.542z" fill="#09528A"/><path d="M37.225 15.05l10.583-1.54a.09.09 0 00.064-.134.088.088 0 00-.054-.042.09.09 0 00-.036-.002L37.2 14.872a.091.091 0 00-.075.067.088.088 0 00.01.069.09.09 0 00.091.043z" fill="url(#paint4_linear_510_13311)"/><path d="M37.225 15.05l10.583-1.54a.09.09 0 00.064-.134.088.088 0 00-.054-.042.09.09 0 00-.036-.002L37.2 14.872a.091.091 0 00-.075.067.088.088 0 00.01.069.09.09 0 00.091.043z" fill="#09528A"/><path d="M37.408 16.286l8.724-1.268a.09.09 0 00.04-.161.09.09 0 00-.067-.017l-8.722 1.27a.093.093 0 00-.06.035.09.09 0 00-.017.067.091.091 0 00.103.075z" fill="url(#paint5_linear_510_13311)"/><path d="M37.408 16.286l8.724-1.268a.09.09 0 00.04-.161.09.09 0 00-.067-.017l-8.722 1.27a.093.093 0 00-.06.035.09.09 0 00-.017.067.091.091 0 00.103.075z" fill="#09528A"/><path d="M37.592 17.524l6.119-.89a.09.09 0 00.075-.102.088.088 0 00-.066-.075.09.09 0 00-.035-.001l-6.12.891a.09.09 0 00-.059.035.089.089 0 00.051.14.092.092 0 00.035.002z" fill="url(#paint6_linear_510_13311)"/><path d="M37.592 17.524l6.119-.89a.09.09 0 00.075-.102.088.088 0 00-.066-.075.09.09 0 00-.035-.001l-6.12.891a.09.09 0 00-.059.035.089.089 0 00.051.14.092.092 0 00.035.002z" fill="#09528A"/><path d="M50.617 15.537a.086.086 0 00-.034-.059.089.089 0 00-.067-.016l-6.087.885a.093.093 0 00-.06.035.09.09 0 00-.017.067.089.089 0 00.035.059.09.09 0 00.068.017l6.087-.886a.092.092 0 00.059-.035.088.088 0 00.016-.067z" fill="url(#paint7_linear_510_13311)"/><path d="M50.617 15.537a.086.086 0 00-.034-.059.089.089 0 00-.067-.016l-6.087.885a.093.093 0 00-.06.035.09.09 0 00-.017.067.089.089 0 00.035.059.09.09 0 00.068.017l6.087-.886a.092.092 0 00.059-.035.088.088 0 00.016-.067z" fill="#09528A"/><path d="M46.743 14.839a.088.088 0 00.103.074l4.978-.724a.093.093 0 00.06-.035.087.087 0 00.017-.067.087.087 0 00-.035-.058.091.091 0 00-.067-.016l-4.98.724a.09.09 0 00-.06.035.088.088 0 00-.016.067z" fill="url(#paint8_linear_510_13311)"/><path d="M46.743 14.839a.088.088 0 00.103.074l4.978-.724a.093.093 0 00.06-.035.087.087 0 00.017-.067.087.087 0 00-.035-.058.091.091 0 00-.067-.016l-4.98.724a.09.09 0 00-.06.035.088.088 0 00-.016.067z" fill="#09528A"/><path d="M38.257 22.014l9.15-1.331a.093.093 0 00.06-.036.089.089 0 00-.086-.141l-9.15 1.331a.09.09 0 00-.073.067.087.087 0 00-.002.035.088.088 0 00.067.073.088.088 0 00.034.002z" fill="url(#paint9_linear_510_13311)"/><path d="M38.257 22.014l9.15-1.331a.093.093 0 00.06-.036.089.089 0 00-.086-.141l-9.15 1.331a.09.09 0 00-.073.067.087.087 0 00-.002.035.088.088 0 00.067.073.088.088 0 00.034.002z" fill="#09528A"/><path d="M38.442 23.258l12.815-1.864a.092.092 0 00.077-.104.088.088 0 00-.068-.073.089.089 0 00-.035-.002l-12.816 1.867a.091.091 0 00-.059.034.087.087 0 00-.005.099.09.09 0 00.091.043z" fill="url(#paint10_linear_510_13311)"/><path d="M38.442 23.258l12.815-1.864a.092.092 0 00.077-.104.088.088 0 00-.068-.073.089.089 0 00-.035-.002l-12.816 1.867a.091.091 0 00-.059.034.087.087 0 00-.005.099.09.09 0 00.091.043z" fill="#09528A"/><path d="M38.625 24.494l6.119-.89a.091.091 0 00.075-.067.088.088 0 00.002-.035.09.09 0 00-.036-.058.092.092 0 00-.067-.017l-6.118.89a.091.091 0 00-.075.067.09.09 0 00-.002.035.09.09 0 00.036.058c.019.014.043.02.066.017z" fill="url(#paint11_linear_510_13311)"/><path d="M38.625 24.494l6.119-.89a.091.091 0 00.075-.067.088.088 0 00.002-.035.09.09 0 00-.036-.058.092.092 0 00-.067-.017l-6.118.89a.091.091 0 00-.075.067.09.09 0 00-.002.035.09.09 0 00.036.058c.019.014.043.02.066.017z" fill="#09528A"/><path d="M48.255 20.564l3.73-.54a.09.09 0 00.04-.162.088.088 0 00-.067-.017l-3.73.543a.093.093 0 00-.076.102.088.088 0 00.102.074z" fill="url(#paint12_linear_510_13311)"/><path d="M48.255 20.564l3.73-.54a.09.09 0 00.04-.162.088.088 0 00-.067-.017l-3.73.543a.093.093 0 00-.076.102.088.088 0 00.102.074z" fill="#09528A"/><path d="M39.293 28.992l5.881-.857a.088.088 0 00.075-.102.088.088 0 00-.066-.073.09.09 0 00-.034-.002l-5.882.856a.09.09 0 00-.077.102.092.092 0 00.103.076z" fill="url(#paint13_linear_510_13311)"/><path d="M39.293 28.992l5.881-.857a.088.088 0 00.075-.102.088.088 0 00-.066-.073.09.09 0 00-.034-.002l-5.882.856a.09.09 0 00-.077.102.092.092 0 00.103.076z" fill="#09528A"/><path d="M39.475 30.228l8.995-1.31a.092.092 0 00.06-.034.089.089 0 00.004-.1.089.089 0 00-.091-.041l-8.995 1.308a.09.09 0 00-.075.067.09.09 0 00-.002.035.091.091 0 00.069.074.092.092 0 00.035 0z" fill="url(#paint14_linear_510_13311)"/><path d="M39.475 30.228l8.995-1.31a.092.092 0 00.06-.034.089.089 0 00.004-.1.089.089 0 00-.091-.041l-8.995 1.308a.09.09 0 00-.075.067.09.09 0 00-.002.035.091.091 0 00.069.074.092.092 0 00.035 0z" fill="#09528A"/><path d="M44.924 30.517l-5.291.771a.091.091 0 00-.059.035.089.089 0 00.05.14.092.092 0 00.036.002l5.292-.771a.09.09 0 00.074-.066.087.087 0 00.001-.034.087.087 0 00-.035-.06.092.092 0 00-.068-.017z" fill="url(#paint15_linear_510_13311)"/><path d="M44.924 30.517l-5.291.771a.091.091 0 00-.059.035.089.089 0 00.05.14.092.092 0 00.036.002l5.292-.771a.09.09 0 00.074-.066.087.087 0 00.001-.034.087.087 0 00-.035-.06.092.092 0 00-.068-.017z" fill="#09528A"/><path d="M52.584 29.404l-6.088.884a.091.091 0 00-.075.067.09.09 0 00.1.111l6.088-.886a.09.09 0 00.041-.16.088.088 0 00-.066-.016z" fill="url(#paint16_linear_510_13311)"/><path d="M52.584 29.404l-6.088.884a.091.091 0 00-.075.067.09.09 0 00.1.111l6.088-.886a.09.09 0 00.041-.16.088.088 0 00-.066-.016z" fill="#09528A"/><path d="M53.683 26.716l-7.553 1.101a.093.093 0 00-.06.035.092.092 0 00-.018.067.09.09 0 00.036.058c.02.014.044.02.067.017l7.554-1.1a.09.09 0 00.074-.068.09.09 0 00-.01-.067.09.09 0 00-.09-.043z" fill="url(#paint17_linear_510_13311)"/><path d="M53.866 27.952l-4.96.721a.089.089 0 00-.04.16.09.09 0 00.068.017l4.957-.722a.09.09 0 00.042-.16.092.092 0 00-.067-.016z" fill="url(#paint18_linear_510_13311)"/><path d="M53.866 27.952l-4.96.721a.089.089 0 00-.04.16.09.09 0 00.068.017l4.957-.722a.09.09 0 00.042-.16.092.092 0 00-.067-.016z" fill="#09528A"/><path d="M33.247 17.88a.405.405 0 01-.283-.065l-2.372-1.6a.397.397 0 01-.166-.407.395.395 0 01.316-.308.401.401 0 01.299.061l2.027 1.367 2.438-3.916a.4.4 0 01.727.116.393.393 0 01-.048.298l-2.657 4.27a.397.397 0 01-.255.18l-.026.004z" fill="url(#paint19_linear_510_13311)"/><path d="M33.247 17.88a.405.405 0 01-.283-.065l-2.372-1.6a.397.397 0 01-.166-.407.395.395 0 01.316-.308.401.401 0 01.299.061l2.027 1.367 2.438-3.916a.4.4 0 01.727.116.393.393 0 01-.048.298l-2.657 4.27a.397.397 0 01-.255.18l-.026.004z" fill="#0F3C5F"/><path d="M32.04 9.756a.405.405 0 01-.282-.065l-2.371-1.595a.396.396 0 01-.167-.407.393.393 0 01.316-.308.402.402 0 01.3.061l2.026 1.366 2.436-3.92a.4.4 0 01.727.118.394.394 0 01-.048.298l-2.656 4.27a.396.396 0 01-.256.177l-.024.005z" fill="url(#paint20_linear_510_13311)"/><path d="M32.04 9.756a.405.405 0 01-.282-.065l-2.371-1.595a.396.396 0 01-.167-.407.393.393 0 01.316-.308.402.402 0 01.3.061l2.026 1.366 2.436-3.92a.4.4 0 01.727.118.394.394 0 01-.048.298l-2.656 4.27a.396.396 0 01-.256.177l-.024.005z" fill="#0F3C5F"/><path d="M34.266 24.761a.398.398 0 01-.282-.063l-2.372-1.6a.398.398 0 01-.166-.408.394.394 0 01.316-.308.401.401 0 01.298.062l2.028 1.367 2.437-3.918a.4.4 0 01.728.117.393.393 0 01-.049.299l-2.656 4.27a.406.406 0 01-.256.179l-.026.003z" fill="url(#paint21_linear_510_13311)"/><path d="M34.266 24.761a.398.398 0 01-.282-.063l-2.372-1.6a.398.398 0 01-.166-.408.394.394 0 01.316-.308.401.401 0 01.298.062l2.028 1.367 2.437-3.918a.4.4 0 01.728.117.393.393 0 01-.049.299l-2.656 4.27a.406.406 0 01-.256.179l-.026.003zm.999 6.726a.402.402 0 01-.283-.065l-2.373-1.6a.394.394 0 01.15-.715.403.403 0 01.3.061l2.027 1.367 2.437-3.916a.394.394 0 01.247-.177.403.403 0 01.481.292.391.391 0 01-.048.3l-2.656 4.269a.402.402 0 01-.258.18l-.024.004z" fill="#0F3C5F"/><g filter="url(#filter0_d_510_13311)"><path d="M63.323 29.482H39.41a2 2 0 01-2-2v-1.09c0-.25-.101-.49-.28-.666a.958.958 0 00-.671-.277H22.95c-.252 0-.494.1-.672.277a.94.94 0 00-.279.665v25.827c0 .25.1.489.279.665.178.177.42.276.672.277h40.377a.955.955 0 00.669-.278.938.938 0 00.277-.664V30.424a.933.933 0 00-.278-.666.952.952 0 00-.673-.276z" fill="#2F9DF2"/></g><path d="M66 44.534l1.955-1.686-5.994-6.737-1.954 1.687L66 44.534z" fill="#0F3C5F"/><path d="M60.984 36.954l-.977.843L66 44.534l.977-.844-5.994-6.736z" fill="#0F3C5F" opacity=".5"/><path d="M74.837 56.2a2.37 2.37 0 001.627.801 2.392 2.392 0 001.72-.573 2.351 2.351 0 00.81-1.61 2.327 2.327 0 00-.579-1.706l-10.117-11.5a2.37 2.37 0 00-1.626-.803 2.392 2.392 0 00-1.723.574 2.337 2.337 0 00-.229 3.318l10.117 11.5z" fill="#0E6EA9"/><path d="M43.621 37.095a13.28 13.28 0 009.07 4.465 13.314 13.314 0 009.602-3.196 13.125 13.125 0 003.156-4.048 12.998 12.998 0 00.693-10.01 13.08 13.08 0 00-2.568-4.438 13.28 13.28 0 00-9.068-4.464c-3.5-.238-6.954.91-9.6 3.193a13.069 13.069 0 00-4.508 8.985 13.035 13.035 0 003.223 9.513zm2.755-16.822a11.016 11.016 0 013.72-2.113 11.086 11.086 0 018.392.571 10.977 10.977 0 013.394 2.597 10.861 10.861 0 012.133 3.685 10.79 10.79 0 01-.576 8.313 10.899 10.899 0 01-2.621 3.362 11.013 11.013 0 01-3.72 2.113 11.087 11.087 0 01-8.39-.57 10.975 10.975 0 01-3.395-2.596 10.824 10.824 0 01-2.68-7.899c.2-2.88 1.546-5.565 3.743-7.463z" fill="#0F3C5F"/><path d="M44.01 36.76a12.703 12.703 0 003.929 3.003 12.812 12.812 0 009.711.656 12.747 12.747 0 004.304-2.446 12.615 12.615 0 003.033-3.892 12.508 12.508 0 00.667-9.62 12.571 12.571 0 00-2.468-4.266 12.703 12.703 0 00-3.927-3.005 12.829 12.829 0 00-9.711-.66 12.748 12.748 0 00-4.306 2.444 12.617 12.617 0 00-3.036 3.893 12.494 12.494 0 00-.667 9.627 12.574 12.574 0 002.47 4.266zm2.367-16.487a11.016 11.016 0 013.72-2.113 11.085 11.085 0 018.392.57 10.976 10.976 0 013.394 2.598 10.86 10.86 0 012.132 3.685 10.79 10.79 0 01-.576 8.313 10.898 10.898 0 01-2.621 3.362 11.013 11.013 0 01-3.72 2.113 11.083 11.083 0 01-8.39-.57 10.975 10.975 0 01-3.394-2.596 10.825 10.825 0 01-2.68-7.9c.2-2.88 1.546-5.564 3.743-7.462z" fill="#0E6EA9"/><path style="mix-blend-mode:screen" opacity=".7" d="M45.314 35.635a10.975 10.975 0 003.393 2.596 11.065 11.065 0 008.391.57 11.014 11.014 0 003.72-2.113 10.899 10.899 0 002.621-3.362 10.805 10.805 0 00-1.557-11.998 10.977 10.977 0 00-3.393-2.597 11.07 11.07 0 00-8.392-.571 11.016 11.016 0 00-3.72 2.113 10.853 10.853 0 00-3.743 7.463c-.2 2.88.765 5.722 2.68 7.899z" fill="url(#paint22_linear_510_13311)"/><path d="M59.886 35.593a.659.659 0 01-.127.928 10.208 10.208 0 01-7.342 1.988c-.517-.06-1.03-.159-1.533-.296a.669.669 0 01-.403-.312.658.658 0 01.358-.951c.13-.046.27-.05.402-.015.436.12.88.206 1.33.256a8.868 8.868 0 006.371-1.731.673.673 0 01.944.133zm-11.42.021a.662.662 0 01-.54 1.186.673.673 0 01-.238-.107 10.046 10.046 0 01-2.807-3.005.658.658 0 01.028-.727.697.697 0 01.706-.25.672.672 0 01.411.302 8.738 8.738 0 002.44 2.6z" fill="#fff"/><defs><linearGradient id="paint0_linear_510_13311" x1="54.425" y1="3.025" x2="22.4" y2="12.221" gradientUnits="userSpaceOnUse"><stop stop-color="#6986D9"/><stop offset="1" stop-color="#8FB3FF"/></linearGradient><linearGradient id="paint1_linear_510_13311" x1="54.75" y1="4.16" x2="22.726" y2="13.356" gradientUnits="userSpaceOnUse"><stop stop-color="#6986D9"/><stop offset="1" stop-color="#8FB3FF"/></linearGradient><linearGradient id="paint2_linear_510_13311" x1="54.972" y1="4.928" x2="22.947" y2="14.124" gradientUnits="userSpaceOnUse"><stop stop-color="#6986D9"/><stop offset="1" stop-color="#8FB3FF"/></linearGradient><linearGradient id="paint3_linear_510_13311" x1="55.177" y1="5.642" x2="23.152" y2="14.84" gradientUnits="userSpaceOnUse"><stop stop-color="#6986D9"/><stop offset="1" stop-color="#8FB3FF"/></linearGradient><linearGradient id="paint4_linear_510_13311" x1="56.499" y1="10.248" x2="24.476" y2="19.444" gradientUnits="userSpaceOnUse"><stop stop-color="#6986D9"/><stop offset="1" stop-color="#8FB3FF"/></linearGradient><linearGradient id="paint5_linear_510_13311" x1="56.809" y1="11.322" x2="24.784" y2="20.519" gradientUnits="userSpaceOnUse"><stop stop-color="#6986D9"/><stop offset="1" stop-color="#8FB3FF"/></linearGradient><linearGradient id="paint6_linear_510_13311" x1="57.104" y1="12.349" x2="25.078" y2="21.547" gradientUnits="userSpaceOnUse"><stop stop-color="#6986D9"/><stop offset="1" stop-color="#8FB3FF"/></linearGradient><linearGradient id="paint7_linear_510_13311" x1="57.35" y1="13.213" x2="25.328" y2="22.41" gradientUnits="userSpaceOnUse"><stop stop-color="#6986D9"/><stop offset="1" stop-color="#8FB3FF"/></linearGradient><linearGradient id="paint8_linear_510_13311" x1="57.082" y1="12.276" x2="25.06" y2="21.473" gradientUnits="userSpaceOnUse"><stop stop-color="#6986D9"/><stop offset="1" stop-color="#8FB3FF"/></linearGradient><linearGradient id="paint9_linear_510_13311" x1="58.402" y1="16.876" x2="26.379" y2="26.071" gradientUnits="userSpaceOnUse"><stop stop-color="#6986D9"/><stop offset="1" stop-color="#8FB3FF"/></linearGradient><linearGradient id="paint10_linear_510_13311" x1="58.812" y1="18.298" x2="26.788" y2="27.496" gradientUnits="userSpaceOnUse"><stop stop-color="#6986D9"/><stop offset="1" stop-color="#8FB3FF"/></linearGradient><linearGradient id="paint11_linear_510_13311" x1="59.033" y1="19.068" x2="27.009" y2="28.266" gradientUnits="userSpaceOnUse"><stop stop-color="#6986D9"/><stop offset="1" stop-color="#8FB3FF"/></linearGradient><linearGradient id="paint12_linear_510_13311" x1="58.667" y1="17.794" x2="26.643" y2="26.99" gradientUnits="userSpaceOnUse"><stop stop-color="#6986D9"/><stop offset="1" stop-color="#8FB3FF"/></linearGradient><linearGradient id="paint13_linear_510_13311" x1="60.274" y1="23.389" x2="28.25" y2="32.585" gradientUnits="userSpaceOnUse"><stop stop-color="#6986D9"/><stop offset="1" stop-color="#8FB3FF"/></linearGradient><linearGradient id="paint14_linear_510_13311" x1="60.672" y1="24.777" x2="28.648" y2="33.973" gradientUnits="userSpaceOnUse"><stop stop-color="#6986D9"/><stop offset="1" stop-color="#8FB3FF"/></linearGradient><linearGradient id="paint15_linear_510_13311" x1="60.949" y1="25.734" x2="28.923" y2="34.931" gradientUnits="userSpaceOnUse"><stop stop-color="#6986D9"/><stop offset="1" stop-color="#8FB3FF"/></linearGradient><linearGradient id="paint16_linear_510_13311" x1="61.209" y1="26.65" x2="29.185" y2="35.846" gradientUnits="userSpaceOnUse"><stop stop-color="#6986D9"/><stop offset="1" stop-color="#8FB3FF"/></linearGradient><linearGradient id="paint17_linear_510_13311" x1="60.552" y1="24.359" x2="28.527" y2="33.555" gradientUnits="userSpaceOnUse"><stop stop-color="#0F3C5F"/><stop offset="1" stop-color="#0F3C5F"/></linearGradient><linearGradient id="paint18_linear_510_13311" x1="60.942" y1="25.714" x2="28.917" y2="34.91" gradientUnits="userSpaceOnUse"><stop stop-color="#6986D9"/><stop offset="1" stop-color="#8FB3FF"/></linearGradient><linearGradient id="paint19_linear_510_13311" x1="30.418" y1="15.952" x2="36.515" y2="15.048" gradientUnits="userSpaceOnUse"><stop stop-color="#6986D9"/><stop offset="1" stop-color="#8FB3FF"/></linearGradient><linearGradient id="paint20_linear_510_13311" x1="29.21" y1="7.829" x2="35.309" y2="6.925" gradientUnits="userSpaceOnUse"><stop stop-color="#6986D9"/><stop offset="1" stop-color="#8FB3FF"/></linearGradient><linearGradient id="paint21_linear_510_13311" x1="31.437" y1="22.835" x2="37.535" y2="21.931" gradientUnits="userSpaceOnUse"><stop stop-color="#6986D9"/><stop offset="1" stop-color="#8FB3FF"/></linearGradient><linearGradient id="paint22_linear_510_13311" x1="38.204" y1="24.408" x2="67.588" y2="33.3" gradientUnits="userSpaceOnUse"><stop offset=".01" stop-color="#fff"/><stop offset="1" stop-color="#E1E7FF"/></linearGradient><filter id="filter0_d_510_13311" x="0" y="14.449" width="86.273" height="71.71" filterUnits="userSpaceOnUse" color-interpolation-filters="sRGB"><feFlood flood-opacity="0" result="BackgroundImageFix"/><feColorMatrix in="SourceAlpha" values="0 0 0 0 0 0 0 0 0 0 0 0 0 0 0 0 0 0 127 0" result="hardAlpha"/><feOffset dy="11"/><feGaussianBlur stdDeviation="11"/><feColorMatrix values="0 0 0 0 0.397708 0 0 0 0 0.47749 0 0 0 0 0.575 0 0 0 0.27 0"/><feBlend in2="BackgroundImageFix" result="effect1_dropShadow_510_13311"/><feBlend in="SourceGraphic" in2="effect1_dropShadow_510_13311" result="shape"/></filter></defs></svg>