<svg width="537" height="272" viewBox="0 0 537 272" fill="none" xmlns="http://www.w3.org/2000/svg"><path d="M496.027 9.24c.483.207.864.51 1.143.907.283.398.425.848.425 1.352 0 .546-.129 1.018-.387 1.416-.254.397-.603.7-1.047.907a3.583 3.583 0 01-1.505.305 3.62 3.62 0 01-1.51-.305 2.447 2.447 0 01-1.048-.901c-.254-.398-.381-.872-.381-1.422 0-.508.138-.96.413-1.358a2.53 2.53 0 011.136-.908 2.404 2.404 0 01-.984-.844 2.196 2.196 0 01-.355-1.225c0-.525.116-.978.349-1.359.233-.385.554-.677.965-.876a3.23 3.23 0 011.415-.298c.529 0 .999.101 1.409.305.411.198.733.488.965.87.233.38.349.833.349 1.358 0 .452-.12.86-.361 1.225a2.44 2.44 0 01-.991.85zm-1.371-3.657c-.304 0-.573.066-.806.197a1.385 1.385 0 00-.546.558 1.79 1.79 0 00-.19.845c0 .317.063.594.19.831s.307.421.54.552c.237.132.508.197.812.197.305 0 .574-.065.806-.197.233-.13.413-.315.54-.552.127-.237.19-.514.19-.831 0-.305-.065-.578-.196-.82a1.378 1.378 0 00-.54-.57 1.524 1.524 0 00-.8-.21zm0 7.592c.546 0 .974-.15 1.282-.45.314-.301.47-.718.47-1.251 0-.339-.074-.642-.222-.908a1.564 1.564 0 00-.628-.622 1.853 1.853 0 00-.914-.222c-.352 0-.658.074-.921.222a1.542 1.542 0 00-.609.622 1.9 1.9 0 00-.21.908c0 .533.155.95.464 1.25.313.3.742.45 1.288.45zm6.475-2.362l-.736.762V14h-1.187V4.25h1.187v5.89l.628-.742 2.12-2.266h1.441l-2.672 2.863L504.901 14h-1.396l-2.374-3.187zm15.12-6.055L512.83 14h-1.092l-3.415-9.242h1.339l2.615 7.617 2.635-7.617h1.339zm1.771-.127c.22 0 .391.063.514.19a.654.654 0 01.191.483c0 .19-.064.349-.191.476-.123.123-.294.184-.514.184-.22 0-.391-.061-.514-.184a.669.669 0 01-.178-.476c0-.195.059-.356.178-.483.123-.127.294-.19.514-.19zM517.419 14V7.132h1.187V14h-1.187zm5.865-6.995c.076 0 .172.01.286.032a.896.896 0 01.235.057v1.085a3.161 3.161 0 00-.578-.05c-.389 0-.715.086-.977.26a1.59 1.59 0 00-.584.73V14h-1.187V7.132h1.155l.025.78a1.83 1.83 0 011.625-.908zm6.633 5.497c0 .241.022.49.064.749.042.254.102.47.178.647V14h-1.238c-.072-.165-.127-.404-.165-.717a2.76 2.76 0 01-.857.615c-.33.153-.694.229-1.092.229-.457 0-.863-.089-1.219-.267a2.062 2.062 0 01-.818-.736 1.916 1.916 0 01-.286-1.028c0-.487.125-.9.374-1.238.254-.339.612-.593 1.073-.762.466-.173 1.014-.26 1.644-.26h1.155V9.29c0-.419-.124-.747-.374-.984-.245-.241-.601-.362-1.066-.362a1.82 1.82 0 00-.762.153c-.224.097-.4.23-.527.4a.883.883 0 00-.184.54h-1.187c0-.335.114-.659.343-.972.228-.313.55-.567.965-.762.414-.199.888-.298 1.421-.298.508 0 .953.087 1.333.26.385.17.686.428.902.775.216.342.323.763.323 1.263v3.199zm-2.938.61c.27 0 .522-.047.755-.14.237-.098.44-.225.609-.381.17-.157.299-.326.387-.508v-1.422h-.964c-.677 0-1.196.108-1.556.324a1.03 1.03 0 00-.539.946c0 .224.051.425.152.603.102.177.25.32.445.425.194.101.431.152.711.152zm4.887.888V4.25h1.187V14h-1.187z" fill="#4D4F5C"/><path d="M475 3h-8a5 5 0 000 10h8a5 5 0 000-10z" fill="#56D9FE"/><path d="M371.777 4.758h4.742V5.83h-3.739l-.273 2.532c.191-.114.415-.21.673-.285a3.09 3.09 0 01.863-.115c.563 0 1.05.127 1.46.381.415.25.733.607.953 1.073.224.465.336 1.011.336 1.638 0 .6-.11 1.134-.33 1.6a2.444 2.444 0 01-.984 1.085c-.436.258-.973.387-1.612.387a3.34 3.34 0 01-1.397-.286 2.512 2.512 0 01-1.022-.857c-.262-.385-.419-.857-.469-1.415h1.123c.072.525.258.924.559 1.2.304.27.706.406 1.206.406.364 0 .675-.085.933-.254.262-.174.461-.417.597-.73.139-.318.209-.692.209-1.124 0-.393-.072-.744-.216-1.053a1.682 1.682 0 00-.635-.737c-.275-.177-.605-.266-.99-.266-.25 0-.461.023-.635.07a1.428 1.428 0 00-.438.184c-.122.08-.266.192-.431.336l-.952-.241.469-4.602zm8.354 6.055l-.736.762V14h-1.187V4.25h1.187v5.89l.628-.742 2.12-2.266h1.441l-2.672 2.863L383.901 14h-1.396l-2.374-3.187zm15.196-1.136c0 .914-.152 1.706-.457 2.374-.3.669-.73 1.183-1.288 1.543-.559.355-1.213.533-1.962.533-.728 0-1.375-.18-1.942-.54-.563-.36-1.003-.873-1.321-1.542-.313-.673-.469-1.462-.469-2.368v-.59c0-.906.156-1.695.469-2.368.314-.673.752-1.189 1.314-1.549.563-.36 1.209-.54 1.936-.54.749 0 1.403.18 1.962.54.563.36.996.876 1.301 1.55.305.668.457 1.457.457 2.367v.59zm-1.219-.603c0-.728-.099-1.345-.298-1.853-.195-.512-.48-.9-.857-1.162-.372-.262-.821-.393-1.346-.393-.503 0-.943.133-1.32.4-.377.262-.666.649-.87 1.161-.203.508-.304 1.124-.304 1.847v.603c0 .728.101 1.348.304 1.86.208.512.5.901.876 1.168.377.262.819.394 1.327.394.796 0 1.409-.294 1.841-.883.432-.588.647-1.434.647-2.539v-.603zm5.675-2.07c.076 0 .172.011.286.033a.896.896 0 01.235.057v1.085a3.161 3.161 0 00-.578-.05c-.389 0-.715.086-.977.26a1.59 1.59 0 00-.584.73V14h-1.187V7.132h1.155l.025.78a1.83 1.83 0 011.625-.908zm7.129.128v6.722c0 .597-.123 1.109-.369 1.536-.245.432-.588.76-1.028.984-.436.224-.941.336-1.517.336a3.6 3.6 0 01-.876-.12 3.613 3.613 0 01-.933-.387 2.286 2.286 0 01-.736-.686l.615-.692c.508.622 1.122.933 1.841.933.563 0 1.005-.16 1.327-.482.326-.317.489-.772.489-1.365v-.59c-.466.537-1.105.806-1.917.806-.542 0-1.018-.15-1.429-.45-.406-.301-.721-.714-.945-1.239-.22-.529-.33-1.127-.33-1.796v-.133c0-.694.11-1.306.33-1.835.22-.529.535-.94.945-1.231.411-.292.891-.438 1.441-.438.838 0 1.492.294 1.962.882l.051-.755h1.079zm-2.812 6.005c.736 0 1.278-.337 1.625-1.01V8.973a1.886 1.886 0 00-.642-.718c-.266-.177-.59-.266-.971-.266-.41 0-.753.112-1.028.336-.271.22-.472.52-.603.902a4.04 4.04 0 00-.19 1.282v.133c0 .474.063.9.19 1.276.131.372.332.669.603.889.271.22.609.33 1.016.33zm9.819-.635c0 .241.022.49.064.749.042.254.101.47.178.647V14h-1.238c-.072-.165-.127-.404-.165-.717a2.76 2.76 0 01-.857.615c-.33.153-.694.229-1.092.229-.457 0-.863-.089-1.219-.267a2.072 2.072 0 01-.819-.736 1.924 1.924 0 01-.285-1.028c0-.487.125-.9.374-1.238.254-.339.612-.593 1.073-.762.466-.173 1.014-.26 1.644-.26h1.155V9.29c0-.419-.124-.747-.374-.984-.246-.241-.601-.362-1.066-.362a1.82 1.82 0 00-.762.153c-.224.097-.4.23-.527.4a.883.883 0 00-.184.54h-1.187c0-.335.114-.659.343-.972.228-.313.55-.567.964-.762.415-.199.889-.298 1.422-.298.508 0 .952.087 1.333.26.385.17.686.428.902.775.216.342.323.763.323 1.263v3.199zm-2.939.61c.271 0 .523-.047.756-.14.237-.098.44-.225.609-.381.169-.157.299-.326.387-.508v-1.422h-.964c-.678 0-1.196.108-1.556.324a1.03 1.03 0 00-.539.946c0 .224.051.425.152.603.102.177.25.32.445.425.194.101.431.152.71.152zm7.992-6.107c1.469 0 2.203.831 2.203 2.495V14h-1.187V9.487c0-.525-.114-.906-.343-1.143-.224-.237-.565-.355-1.022-.355-.364 0-.692.1-.984.298a2.104 2.104 0 00-.685.8V14h-1.187V7.132h1.123l.038.844c.25-.309.548-.548.895-.717.347-.17.73-.254 1.149-.254zm4.685-2.374c.22 0 .391.063.514.19.127.127.19.288.19.483 0 .19-.063.349-.19.476-.123.123-.294.184-.514.184-.22 0-.392-.061-.514-.184a.669.669 0 01-.178-.476c0-.195.059-.356.178-.483.122-.127.294-.19.514-.19zM423.054 14V7.132h1.187V14h-1.187zm8.556-2.17c-.021.401-.158.78-.412 1.135a2.76 2.76 0 01-1.003.845 2.856 2.856 0 01-1.327.317c-.664 0-1.227-.152-1.688-.457a2.863 2.863 0 01-1.029-1.238 4.273 4.273 0 01-.342-1.733v-.266c0-.635.114-1.21.342-1.727a2.82 2.82 0 011.029-1.238c.461-.309 1.024-.463 1.688-.463.525 0 .99.108 1.397.324.41.215.732.514.964.895.233.376.36.8.381 1.27h-1.123a1.74 1.74 0 00-.241-.775 1.525 1.525 0 00-.565-.559 1.61 1.61 0 00-.813-.203c-.453 0-.819.119-1.098.356a1.909 1.909 0 00-.597.907 3.955 3.955 0 00-.177 1.213v.266c0 .703.143 1.29.431 1.765.292.474.773.71 1.441.71.275 0 .531-.056.768-.17.241-.12.438-.28.591-.483.152-.207.239-.438.26-.692h1.123z" fill="#4D4F5C"/><path d="M354 3h-8a5 5 0 000 10h8a5 5 0 000-10z" fill="#A3A0FB"/><path d="M288.57 10.058c0 1.447-.25 2.488-.749 3.123-.495.63-1.215.946-2.158.946-.94 0-1.663-.317-2.171-.952-.508-.635-.762-1.674-.762-3.117V8.643c0-1.44.25-2.468.749-3.085.504-.618 1.227-.927 2.171-.927.948 0 1.671.309 2.171.927.499.617.749 1.646.749 3.085v1.415zm-1.187-1.612c0-1.016-.144-1.746-.432-2.19-.283-.449-.717-.673-1.301-.673-.576 0-1.009.224-1.301.673-.288.448-.432 1.178-.432 2.19v1.796c0 1.012.148 1.754.444 2.228.297.47.73.705 1.302.705.579 0 1.011-.233 1.295-.698.283-.47.425-1.215.425-2.235V8.446zm9.642-3.688c.681 0 1.265.12 1.752.362.491.237.861.567 1.111.99.254.423.381.912.381 1.466 0 .593-.125 1.098-.375 1.517-.25.42-.618.739-1.104.959-.483.216-1.071.324-1.765.324h-2.184V14h-1.231V4.758h3.415zm0 4.627c.685 0 1.191-.16 1.517-.482.33-.322.495-.76.495-1.314a1.94 1.94 0 00-.216-.914 1.534 1.534 0 00-.666-.667c-.301-.169-.677-.254-1.13-.254h-2.184v3.631h2.184zm9.775 3.117c0 .241.021.49.064.749.042.254.101.47.178.647V14h-1.238c-.072-.165-.127-.404-.165-.717a2.76 2.76 0 01-.857.615c-.33.153-.694.229-1.092.229-.457 0-.863-.089-1.219-.267a2.072 2.072 0 01-.819-.736 1.924 1.924 0 01-.285-1.028c0-.487.125-.9.374-1.238.254-.339.612-.593 1.073-.762.465-.173 1.013-.26 1.644-.26h1.155V9.29c0-.419-.125-.747-.374-.984-.246-.241-.601-.362-1.067-.362-.283 0-.537.051-.761.153-.225.097-.4.23-.527.4a.883.883 0 00-.184.54h-1.187c0-.335.114-.659.342-.972.229-.313.551-.567.965-.762.415-.199.889-.298 1.422-.298.508 0 .952.087 1.333.26.385.17.686.428.902.775.215.342.323.763.323 1.263v3.199zm-2.939.61c.271 0 .523-.047.756-.14.237-.098.44-.225.609-.381.169-.157.298-.326.387-.508v-1.422h-.965c-.677 0-1.195.108-1.555.324a1.03 1.03 0 00-.539.946 1.112 1.112 0 00.596 1.028c.195.101.432.152.711.152zm5.491-8.481c.22 0 .391.063.514.19a.654.654 0 01.191.483c0 .19-.064.349-.191.476-.123.123-.294.184-.514.184-.22 0-.391-.061-.514-.184a.669.669 0 01-.178-.476c0-.195.059-.356.178-.483.123-.127.294-.19.514-.19zM308.749 14V7.132h1.187V14h-1.187zm8.576-9.75V14h-1.086l-.057-.73c-.465.571-1.117.857-1.955.857-.529 0-.999-.15-1.409-.45-.411-.301-.73-.716-.959-1.245-.224-.529-.336-1.126-.336-1.79v-.133c0-.694.112-1.306.336-1.835.225-.529.542-.94.953-1.231.41-.292.886-.438 1.428-.438.808 0 1.441.269 1.898.806V4.25h1.187zm-2.806 8.887c.732 0 1.272-.332 1.619-.997V8.96a1.904 1.904 0 00-.641-.711c-.263-.173-.584-.26-.965-.26-.411 0-.754.112-1.029.336-.27.22-.471.52-.603.902a4.04 4.04 0 00-.19 1.282v.133c0 .474.063.9.19 1.276.132.372.333.669.603.889.271.22.61.33 1.016.33z" fill="#4D4F5C"/><path d="M266 3h-8a5 5 0 000 10h8a5 5 0 000-10z" fill="#6A67CF"/><mask id="a" style="mask-type:luminance" maskUnits="userSpaceOnUse" x="34" y="54" width="503" height="193"><path d="M536.551 54.993h-502v191.854h502V54.993z" fill="#fff"/></mask><g mask="url(#a)" stroke="#EAF0F4"><path d="M34.551 246.848V54.995m78 191.853V54.995m78 191.853V54.995m78 191.853V54.995m78 191.853V54.995m78 191.853V54.995m78 191.853V54.995"/></g><path d="M5.99 57.18H4.905V59H3.901v-1.82H.34v-.58l3.496-5.42h1.069v5.194H5.99v.805zm-2.09-.806v-3.84l-.118.209-2.31 3.63h2.429zm7.902-.71c0 1.225-.212 2.106-.634 2.643-.42.534-1.028.8-1.826.8-.795 0-1.408-.268-1.837-.805-.43-.537-.645-1.416-.645-2.637v-1.198c0-1.218.211-2.088.634-2.61.426-.523 1.038-.785 1.837-.785.802 0 1.414.262 1.837.784.422.523.634 1.393.634 2.61v1.199zM10.797 54.3c0-.86-.122-1.477-.365-1.853-.24-.38-.607-.57-1.101-.57-.487 0-.854.19-1.101.57-.244.38-.366.997-.366 1.853v1.52c0 .856.126 1.484.376 1.886.251.397.618.596 1.102.596.49 0 .855-.197 1.095-.591.24-.398.36-1.028.36-1.89V54.3zm4.018 2.004l-.623.644V59h-1.005v-8.25h1.005v4.984l.531-.628 1.794-1.918h1.22l-2.262 2.423L18.005 59h-1.181l-2.01-2.696z" fill="#43425D"/><path d="M503.048 54.63H34v1.172h469.048V54.63z" fill="#EAF0F4"/><path d="M4.175 102.982c.48.154.823.398 1.03.731a2 2 0 01.318 1.106c0 .477-.108.887-.323 1.23-.214.344-.51.607-.886.79a2.89 2.89 0 01-1.267.268c-.462 0-.881-.086-1.257-.257a2.135 2.135 0 01-.897-.747c-.219-.329-.328-.72-.328-1.171H1.57c0 .272.059.512.177.72.122.208.293.369.515.483.222.111.484.167.785.167.462 0 .821-.124 1.08-.371.26-.247.391-.61.391-1.09 0-.476-.146-.833-.44-1.069-.29-.24-.695-.36-1.214-.36h-.709v-.806h.709c.333 0 .614-.057.843-.171.233-.115.407-.274.521-.478.115-.205.172-.437.172-.699 0-.451-.114-.793-.344-1.026-.225-.236-.564-.354-1.015-.354-.279 0-.524.055-.736.166a1.21 1.21 0 00-.494.473 1.373 1.373 0 00-.177.709H.63a2.056 2.056 0 011.154-1.87 2.7 2.7 0 011.257-.284c.477 0 .892.084 1.246.253.355.168.629.419.822.752.197.329.296.73.296 1.203 0 .204-.045.415-.135.634-.09.218-.227.422-.413.612-.183.19-.41.342-.682.456zm7.627.683c0 1.224-.212 2.105-.634 2.642-.42.534-1.028.8-1.826.8-.795 0-1.408-.268-1.837-.805-.43-.537-.645-1.416-.645-2.637v-1.198c0-1.218.211-2.088.634-2.61.426-.523 1.038-.785 1.837-.785.802 0 1.414.262 1.837.784.422.523.634 1.393.634 2.611v1.198zm-1.005-1.365c0-.859-.122-1.477-.365-1.853-.24-.379-.607-.57-1.101-.57-.487 0-.854.191-1.101.57-.244.38-.366.997-.366 1.853v1.52c0 .856.126 1.485.376 1.886.251.397.618.596 1.102.596.49 0 .855-.197 1.095-.591.24-.398.36-1.028.36-1.891v-1.52zm4.018 2.004l-.623.644V107h-1.005v-8.25h1.005v4.984l.531-.628 1.794-1.918h1.22l-2.262 2.423 2.53 3.389h-1.181l-2.01-2.696z" fill="#43425D"/><path d="M503.048 102.63H34v1.172h469.048v-1.172z" fill="#EAF0F4"/><path d="M.705 155v-.709l2.562-2.852c.319-.355.564-.652.736-.892a2.77 2.77 0 00.36-.655c.071-.197.107-.401.107-.612a1.54 1.54 0 00-.161-.709 1.202 1.202 0 00-.467-.505 1.361 1.361 0 00-.726-.188c-.508 0-.895.145-1.16.435-.265.29-.397.679-.397 1.166H.554c0-.448.099-.854.296-1.22.197-.365.489-.653.875-.864.387-.215.85-.323 1.391-.323.484 0 .903.088 1.257.263.355.172.627.416.817.731.19.315.284.68.284 1.096 0 .429-.132.873-.397 1.332a8.125 8.125 0 01-1.069 1.418l-2.095 2.282h3.921V155H.704zm11.097-3.335c0 1.224-.212 2.105-.634 2.642-.42.534-1.028.8-1.826.8-.795 0-1.408-.268-1.837-.805-.43-.537-.645-1.416-.645-2.637v-1.198c0-1.218.211-2.088.634-2.611.426-.522 1.038-.784 1.837-.784.802 0 1.414.262 1.837.784.422.523.634 1.393.634 2.611v1.198zm-1.005-1.365c0-.859-.122-1.477-.365-1.853-.24-.379-.607-.569-1.101-.569-.487 0-.854.19-1.101.569-.244.38-.366.997-.366 1.853v1.52c0 .856.126 1.485.376 1.886.251.397.618.596 1.102.596.49 0 .855-.197 1.095-.591.24-.398.36-1.028.36-1.891v-1.52zm4.018 2.004l-.623.644V155h-1.005v-8.25h1.005v4.984l.531-.628 1.794-1.918h1.22l-2.262 2.423 2.53 3.389h-1.181l-2.01-2.696z" fill="#43425D"/><path d="M503.048 150.63H34v1.172h469.048v-1.172z" fill="#EAF0F4"/><path d="M2.971 203v-6.633l-1.998.736v-.897l2.847-1.069h.156V203H2.97zm8.83-3.335c0 1.224-.21 2.105-.633 2.642-.42.534-1.028.8-1.826.8-.795 0-1.408-.268-1.837-.805-.43-.537-.645-1.416-.645-2.637v-1.198c0-1.218.211-2.088.634-2.611.426-.522 1.038-.784 1.837-.784.802 0 1.414.262 1.837.784.422.523.634 1.393.634 2.611v1.198zm-1.004-1.365c0-.859-.122-1.477-.365-1.853-.24-.379-.607-.569-1.101-.569-.487 0-.854.19-1.101.569-.244.38-.366.997-.366 1.853v1.52c0 .856.126 1.485.376 1.886.251.397.618.596 1.102.596.49 0 .855-.197 1.095-.591.24-.398.36-1.028.36-1.891v-1.52zm4.018 2.004l-.623.644V203h-1.005v-8.25h1.005v4.984l.531-.628 1.794-1.918h1.22l-2.262 2.423 2.53 3.389h-1.181l-2.01-2.696z" fill="#43425D"/><path d="M503.048 198.63H34v1.172h469.048v-1.172z" fill="#EAF0F4"/><path d="M11.796 247.665c0 1.224-.211 2.105-.634 2.642-.419.534-1.027.8-1.826.8-.795 0-1.407-.268-1.837-.805-.43-.537-.644-1.416-.644-2.637v-1.198c0-1.218.211-2.088.634-2.611.426-.522 1.038-.784 1.836-.784.803 0 1.415.262 1.837.784.423.523.634 1.393.634 2.611v1.198zm-1.004-1.365c0-.859-.122-1.477-.365-1.853-.24-.379-.607-.569-1.102-.569-.487 0-.854.19-1.1.569-.244.38-.366.997-.366 1.853v1.52c0 .856.125 1.485.376 1.886.25.397.618.596 1.101.596.49 0 .856-.197 1.096-.591.24-.398.36-1.028.36-1.891v-1.52zm4.017 2.004l-.623.644V251h-1.004v-8.25h1.004v4.984l.532-.628 1.794-1.918h1.22l-2.262 2.423L18 251h-1.182l-2.009-2.696z" fill="#43425D"/><path d="M503.048 246.63H34v1.172h469.048v-1.172z" fill="#EAF0F4"/><path d="M50.56 259.18L48.668 267h-.951l-1.606-5.709-.118-.586-.124.586L44.205 267h-.95l-1.891-7.82h1.042l1.23 5.36.15 1.021.215-.919 1.547-5.462h.876l1.504 5.462.214.94.167-1.047 1.203-5.355h1.047zm5.677 5.188h-3.932c.01.362.086.689.226.983.14.294.336.526.59.698.258.169.559.253.903.253.336 0 .626-.068.87-.204.247-.136.467-.332.66-.586l.607.473c-.215.329-.5.6-.859.811-.358.208-.802.311-1.332.311s-.997-.12-1.402-.359a2.457 2.457 0 01-.94-.999 3.138 3.138 0 01-.328-1.451v-.231c0-.605.119-1.133.355-1.584.236-.455.548-.802.935-1.042.39-.24.807-.36 1.251-.36.54 0 .988.122 1.343.365.358.24.623.573.795.999.172.426.258.919.258 1.477v.446zm-1.005-.881c-.029-.454-.152-.834-.37-1.138-.215-.308-.555-.462-1.02-.462-.402 0-.737.147-1.005.44-.265.29-.432.702-.5 1.235h2.895v-.075zm6.848.881h-3.93c.01.362.086.689.225.983.14.294.337.526.591.698.258.169.559.253.902.253.337 0 .627-.068.87-.204a2.12 2.12 0 00.661-.586l.607.473c-.215.329-.501.6-.86.811-.357.208-.801.311-1.331.311-.53 0-.998-.12-1.402-.359a2.456 2.456 0 01-.94-.999 3.139 3.139 0 01-.328-1.451v-.231c0-.605.119-1.133.355-1.584.236-.455.548-.802.934-1.042.39-.24.808-.36 1.252-.36.54 0 .988.122 1.343.365.358.24.623.573.794.999.172.426.258.919.258 1.477v.446zm-1.004-.881c-.029-.454-.152-.834-.37-1.138-.216-.308-.556-.462-1.021-.462-.401 0-.736.147-1.005.44-.265.29-.431.702-.5 1.235h2.896v-.075zm3.797.817l-.623.644V267h-1.004v-8.25h1.004v4.984l.532-.628 1.794-1.918h1.22l-2.262 2.423 2.53 3.389h-1.182l-2.009-2.696zM73.72 267v-6.633l-1.998.736v-.897l2.847-1.069h.156V267H73.72zm116.839-7.82l-1.89 7.82h-.951l-1.606-5.709-.118-.586-.124.586-1.665 5.709h-.95l-1.891-7.82h1.042l1.23 5.36.15 1.021.215-.919 1.547-5.462h.876l1.503 5.462.215.94.167-1.047 1.203-5.355h1.047zm5.678 5.188h-3.932c.011.362.086.689.226.983.139.294.336.526.59.698.258.169.559.253.903.253.336 0 .626-.068.87-.204.247-.136.467-.332.66-.586l.607.473c-.214.329-.501.6-.859.811-.358.208-.802.311-1.332.311s-.997-.12-1.402-.359a2.454 2.454 0 01-.94-.999 3.144 3.144 0 01-.327-1.451v-.231c0-.605.118-1.133.354-1.584.236-.455.548-.802.935-1.042.39-.24.807-.36 1.251-.36.541 0 .988.122 1.343.365.358.24.623.573.795.999.172.426.258.919.258 1.477v.446zm-1.005-.881c-.028-.454-.152-.834-.37-1.138-.215-.308-.555-.462-1.021-.462-.401 0-.736.147-1.004.44-.265.29-.432.702-.5 1.235h2.895v-.075zm6.848.881h-3.931c.01.362.086.689.225.983.14.294.337.526.591.698.258.169.559.253.902.253.337 0 .627-.068.871-.204.247-.136.467-.332.66-.586l.607.473c-.215.329-.501.6-.859.811-.358.208-.802.311-1.332.311s-.998-.12-1.402-.359a2.454 2.454 0 01-.94-.999 3.131 3.131 0 01-.328-1.451v-.231c0-.605.118-1.133.355-1.584.236-.455.548-.802.934-1.042.391-.24.808-.36 1.252-.36.541 0 .988.122 1.343.365.358.24.623.573.795.999.171.426.257.919.257 1.477v.446zm-1.004-.881c-.029-.454-.152-.834-.371-1.138-.215-.308-.555-.462-1.02-.462-.401 0-.736.147-1.005.44-.265.29-.431.702-.499 1.235h2.895v-.075zm3.797.817l-.623.644V267h-1.004v-8.25h1.004v4.984l.532-.628 1.794-1.918h1.219l-2.261 2.423 2.53 3.389h-1.182l-2.009-2.696zm6.58 2.696v-.709l2.562-2.852c.319-.355.564-.652.736-.892.172-.243.292-.462.36-.655.071-.197.107-.401.107-.612 0-.262-.054-.498-.161-.709a1.205 1.205 0 00-.467-.505 1.364 1.364 0 00-.725-.188c-.509 0-.896.145-1.161.435-.265.29-.397.679-.397 1.166h-1.005c0-.448.099-.854.296-1.22.197-.365.489-.653.875-.864.387-.215.851-.323 1.392-.323.483 0 .902.088 1.256.263.355.172.627.416.817.731.19.315.284.68.284 1.096 0 .429-.132.873-.397 1.332a8.115 8.115 0 01-1.069 1.418l-2.095 2.282h3.921V267h-5.129zm120.106-7.82l-1.891 7.82h-.95l-1.606-5.709-.118-.586-.124.586-1.665 5.709h-.951l-1.89-7.82h1.042l1.23 5.36.15 1.021.215-.919 1.547-5.462h.875l1.504 5.462.215.94.167-1.047 1.203-5.355h1.047zm5.677 5.188h-3.931c.01.362.086.689.225.983.14.294.337.526.591.698.258.169.559.253.902.253.337 0 .627-.068.871-.204.247-.136.467-.332.66-.586l.607.473c-.215.329-.501.6-.859.811-.358.208-.802.311-1.332.311s-.998-.12-1.402-.359a2.454 2.454 0 01-.94-.999 3.144 3.144 0 01-.328-1.451v-.231c0-.605.118-1.133.355-1.584.236-.455.548-.802.934-1.042.391-.24.808-.36 1.252-.36.541 0 .988.122 1.343.365.358.24.623.573.795.999.171.426.257.919.257 1.477v.446zm-1.004-.881c-.029-.454-.152-.834-.371-1.138-.215-.308-.555-.462-1.02-.462-.401 0-.736.147-1.005.44-.265.29-.431.702-.499 1.235h2.895v-.075zm6.848.881h-3.932c.011.362.086.689.226.983.14.294.337.526.591.698.258.169.558.253.902.253.337 0 .627-.068.87-.204.247-.136.468-.332.661-.586l.607.473c-.215.329-.501.6-.859.811-.359.208-.803.311-1.333.311-.529 0-.997-.12-1.401-.359a2.454 2.454 0 01-.94-.999 3.131 3.131 0 01-.328-1.451v-.231c0-.605.118-1.133.355-1.584.236-.455.547-.802.934-1.042.39-.24.808-.36 1.252-.36.54 0 .988.122 1.342.365.358.24.623.573.795.999.172.426.258.919.258 1.477v.446zm-1.004-.881c-.029-.454-.152-.834-.371-1.138-.215-.308-.555-.462-1.02-.462-.401 0-.736.147-1.005.44-.265.29-.431.702-.499 1.235h2.895v-.075zm3.797.817l-.623.644V267h-1.004v-8.25h1.004v4.984l.532-.628 1.794-1.918h1.219l-2.261 2.423 2.529 3.389h-1.181l-2.009-2.696zm10.049-1.322c.48.154.824.398 1.032.731.211.329.317.698.317 1.106 0 .477-.108.887-.323 1.23-.215.344-.51.607-.886.79a2.89 2.89 0 01-1.268.268 3 3 0 01-1.256-.257 2.135 2.135 0 01-.897-.747c-.219-.329-.328-.72-.328-1.171h1.004c0 .272.059.512.178.72.121.208.293.369.515.483.222.111.484.167.784.167.462 0 .822-.124 1.08-.371.261-.247.392-.61.392-1.09 0-.476-.147-.833-.44-1.069-.29-.24-.695-.36-1.214-.36h-.709v-.806h.709c.333 0 .614-.057.843-.171.233-.115.406-.274.521-.478.115-.205.172-.437.172-.699 0-.451-.115-.793-.344-1.026-.225-.236-.564-.354-1.015-.354a1.56 1.56 0 00-.736.166 1.21 1.21 0 00-.494.473 1.374 1.374 0 00-.177.709h-1.005c0-.397.101-.761.301-1.09a2.14 2.14 0 01.854-.779c.365-.19.784-.285 1.257-.285.476 0 .892.084 1.246.253.355.168.629.419.822.752.197.329.295.73.295 1.203 0 .204-.044.415-.134.634a1.895 1.895 0 01-.414.612c-.182.19-.41.342-.682.456zm115.637-3.802l-1.891 7.82h-.95l-1.606-5.709-.118-.586-.124.586-1.665 5.709h-.951l-1.89-7.82h1.042l1.23 5.36.15 1.021.215-.919 1.547-5.462h.875l1.504 5.462.215.94.167-1.047 1.203-5.355h1.047zm5.677 5.188h-3.931c.01.362.086.689.225.983.14.294.337.526.591.698.258.169.559.253.902.253.337 0 .627-.068.871-.204.247-.136.467-.332.66-.586l.607.473c-.215.329-.501.6-.859.811-.358.208-.802.311-1.332.311s-.998-.12-1.402-.359a2.454 2.454 0 01-.94-.999 3.144 3.144 0 01-.328-1.451v-.231c0-.605.118-1.133.355-1.584.236-.455.548-.802.934-1.042.391-.24.808-.36 1.252-.36.541 0 .988.122 1.343.365.358.24.623.573.795.999.171.426.257.919.257 1.477v.446zm-1.004-.881c-.029-.454-.152-.834-.371-1.138-.215-.308-.555-.462-1.02-.462-.401 0-.736.147-1.005.44-.265.29-.431.702-.499 1.235h2.895v-.075zm6.848.881h-3.932c.011.362.086.689.226.983.14.294.337.526.591.698.258.169.558.253.902.253.337 0 .627-.068.87-.204.247-.136.468-.332.661-.586l.607.473c-.215.329-.501.6-.859.811-.359.208-.803.311-1.333.311-.529 0-.997-.12-1.401-.359a2.454 2.454 0 01-.94-.999 3.131 3.131 0 01-.328-1.451v-.231c0-.605.118-1.133.355-1.584.236-.455.547-.802.934-1.042.39-.24.808-.36 1.252-.36.54 0 .988.122 1.342.365.358.24.623.573.795.999.172.426.258.919.258 1.477v.446zm-1.004-.881c-.029-.454-.152-.834-.371-1.138-.215-.308-.555-.462-1.02-.462-.401 0-.736.147-1.005.44-.265.29-.431.702-.499 1.235h2.895v-.075zm3.797.817l-.623.644V267h-1.004v-8.25h1.004v4.984l.532-.628 1.794-1.918h1.219l-2.261 2.423 2.529 3.389h-1.181l-2.009-2.696zm11.865.875h-1.085V267h-1.005v-1.821h-3.561v-.58l3.497-5.419h1.069v5.194h1.085v.805zm-2.09-.805v-3.841l-.118.21-2.309 3.631h2.427z" fill="#43425D"/><path d="M56 187h8a2 2 0 012 2v58H54v-58a2 2 0 012-2zm26-20h8a2 2 0 012 2v78H80v-78a2 2 0 012-2zm26-26h8a2 2 0 012 2v104h-12V143a2 2 0 012-2zm26 76h8a2 2 0 012 2v28h-12v-28a2 2 0 012-2zm27-50h8a2 2 0 012 2v78h-12v-78a2 2 0 012-2zm26-26h8a2 2 0 012 2v104h-12V143a2 2 0 012-2zm26 36h8a2 2 0 012 2v68h-12v-68a2 2 0 012-2zm26-20h8a2 2 0 012 2v88h-12v-88a2 2 0 012-2zm26 60h8a2 2 0 012 2v28h-12v-28a2 2 0 012-2zm25.162-70h8a2.003 2.003 0 012 2v98h-12v-98a2 2 0 012-2zm26.165 40h8a1.999 1.999 0 012 2v58h-12v-58a2 2 0 012-2zm27.163-64h8a2 2 0 012 2v109h-12V125a2 2 0 012-2zm26.164 78h8a2 2 0 012 2v44h-12v-44a2 2 0 012-2zm26.165 11h8a2 2 0 012 2v33h-12v-33a2 2 0 012-2zm26.164 5h8a2 2 0 012 2v28h-12v-28a2 2 0 012-2zm26.165-15h8a2 2 0 012 2v43h-12v-43a2 2 0 012-2z" fill="#56D9FE"/><path d="M56 211h8a2 2 0 012 2v34H54v-34a2 2 0 012-2zm26-19h8a2 2 0 012 2v53H80v-53a2 2 0 012-2zm26 7h8a2 2 0 012 2v46h-12v-46a2 2 0 012-2zm26 38h8a2 2 0 012 2v8h-12v-8a2 2 0 012-2zm27-35h8a2 2 0 012 2v43h-12v-43a2 2 0 012-2zm26-30h8a2 2 0 012 2v73h-12v-73a2 2 0 012-2zm26 17h8a2 2 0 012 2v56h-12v-56a2 2 0 012-2zm26 24h8a2 2 0 012 2v32h-12v-32a2 2 0 012-2zm26.001 13h8a2 2 0 012 2v19h-12v-19a2 2 0 012-2zm25.161-53h8a2.003 2.003 0 012 2v72h-12v-72a2 2 0 012-2zm26.164 32h8a1.999 1.999 0 012 2v40h-12v-40a2 2 0 012-2zm27.164-62h8a2 2 0 012 2v102h-12V145a2 2 0 012-2zm26.164 71h8a2 2 0 012 2v31h-12v-31a2 2 0 012-2zm26.165 21h8a2 2 0 012 2v10h-12v-10a2 2 0 012-2zm26.164-10h8a2 2 0 012 2v20h-12v-20a2 2 0 012-2zm26.165-11h8a2 2 0 012 2v31h-12v-31a2 2 0 012-2z" fill="#A3A0FB"/><path d="M474.312 217h8a2 2 0 012 2v28h-12v-28a2 2 0 012-2z" fill="#56D9FE"/><path d="M474.312 232h8a2 2 0 012 2v13h-12v-13a2 2 0 012-2z" fill="#A3A0FB"/><path d="M108 230h8c.53 0 1.039.075 1.414.207.375.133.586.313.586.501V247h-12v-16.292c0-.188.211-.368.586-.501.375-.132.884-.207 1.414-.207z" fill="#6D69D5"/></svg>