<svg width="95" height="108" viewBox="0 0 95 108" fill="none" xmlns="http://www.w3.org/2000/svg"><path d="M29.167 59.095a27.937 27.937 0 008.647 6.558 28.47 28.47 0 0021.38 1.44 28.127 28.127 0 009.476-5.339 27.563 27.563 0 006.678-8.49 27.037 27.037 0 001.468-20.997 27.376 27.376 0 00-5.434-9.309 27.941 27.941 0 00-8.647-6.558 28.473 28.473 0 00-21.381-1.442 28.13 28.13 0 00-9.479 5.337c-5.597 4.793-9.027 11.573-9.535 18.85-.508 7.276 1.948 14.452 6.827 19.95z" fill="#E9EDF8" style="mix-blend-mode:screen"/><g filter="url(#filter0_d_510_13401)"><path d="M72.964 67.164c.042.277-.027.559-.193.785a1.065 1.065 0 01-.694.42l-39.898 6.12a1.066 1.066 0 01-1.07-.496 1.05 1.05 0 01-.142-.387l-8.44-54.442a1.051 1.051 0 01.194-.784c.167-.225.416-.376.694-.419l39.898-6.121a1.057 1.057 0 011.212.881l8.439 54.443z" fill="#2F9DF2"/></g><path d="M70.526 62.994a1.064 1.064 0 01-.887 1.205L33.24 69.781a1.066 1.066 0 01-1.07-.494 1.051 1.051 0 01-.142-.388L24.49 20.292a1.054 1.054 0 01.193-.785c.166-.225.416-.377.694-.42l36.398-5.591a1.06 1.06 0 011.211.882l7.539 48.616z" fill="#D8E5FE"/><path d="M49.035 12.362l-3.176.488a2.776 2.776 0 00-1.107-1.812 2.79 2.79 0 00-3.891.592 2.762 2.762 0 00-.508 2.06l-3.176.486a2.125 2.125 0 00-1.388.84 2.103 2.103 0 00-.386 1.568l.027.176c.086.554.39 1.05.844 1.381a2.13 2.13 0 001.579.384l11.853-1.82a2.127 2.127 0 001.387-.838 2.105 2.105 0 00.387-1.569l-.027-.176a2.11 2.11 0 00-.844-1.376 2.133 2.133 0 00-1.574-.384zm-5.74 2.105a1.283 1.283 0 01-.949-.23 1.27 1.27 0 01-.486-1.324 1.266 1.266 0 01.577-.783 1.278 1.278 0 011.924.891c.051.332-.032.671-.232.942-.2.272-.5.453-.834.505z" fill="#0862A7"/><g opacity=".5"><path d="M42.432 24.146a.95.95 0 01-.8 1.09l-10.414 1.597a.967.967 0 01-.968-.448.95.95 0 01.047-1.06.96.96 0 01.628-.378L41.34 23.35a.962.962 0 01.966.447.947.947 0 01.127.35z" fill="url(#paint0_linear_510_13401)"/><path d="M42.432 24.146a.95.95 0 01-.8 1.09l-10.414 1.597a.967.967 0 01-.968-.448.95.95 0 01.047-1.06.96.96 0 01.628-.378L41.34 23.35a.962.962 0 01.966.447.947.947 0 01.127.35z" fill="#61A8DF"/><path d="M38.104 30.845a.952.952 0 01-.175.71.963.963 0 01-.628.38l-6.146.943a.965.965 0 01-1.096-.799.948.948 0 01.45-.962.965.965 0 01.353-.128l6.146-.943a.966.966 0 01.714.174.96.96 0 01.382.625z" fill="url(#paint1_linear_510_13401)"/><path d="M38.104 30.845a.952.952 0 01-.175.71.963.963 0 01-.628.38l-6.146.943a.965.965 0 01-1.096-.799.948.948 0 01.45-.962.965.965 0 01.353-.128l6.146-.943a.966.966 0 01.714.174.96.96 0 01.382.625z" fill="#61A8DF"/><path d="M50.885 28.885a.953.953 0 01-.175.71.963.963 0 01-.628.38l-10.293 1.58a.963.963 0 01-1.094-.8.948.948 0 01.449-.962.962.962 0 01.352-.127l10.293-1.58a.965.965 0 011.096.799z" fill="url(#paint2_linear_510_13401)"/><path d="M50.885 28.885a.953.953 0 01-.175.71.963.963 0 01-.628.38l-10.293 1.58a.963.963 0 01-1.094-.8.948.948 0 01.449-.962.962.962 0 01.352-.127l10.293-1.58a.965.965 0 011.096.799z" fill="#61A8DF"/><path d="M50.432 36.218a.945.945 0 01-.449.961.958.958 0 01-.352.127l-17.373 2.667a.966.966 0 01-.714-.174.953.953 0 01-.207-1.335.963.963 0 01.628-.38l17.371-2.665a.963.963 0 011.096.8z" fill="url(#paint3_linear_510_13401)"/><path d="M50.432 36.218a.945.945 0 01-.449.961.958.958 0 01-.352.127l-17.373 2.667a.966.966 0 01-.714-.174.953.953 0 01-.207-1.335.963.963 0 01.628-.38l17.371-2.665a.963.963 0 011.096.8z" fill="#61A8DF"/><path d="M44.08 41.2a.95.95 0 01-.176.71.96.96 0 01-.628.378l-10.413 1.598a.966.966 0 01-.967-.447.953.953 0 01.674-1.44l10.413-1.597a.966.966 0 01.968.448.952.952 0 01.128.35z" fill="url(#paint4_linear_510_13401)"/><path d="M44.08 41.2a.95.95 0 01-.176.71.96.96 0 01-.628.378l-10.413 1.598a.966.966 0 01-.967-.447.953.953 0 01.674-1.44l10.413-1.597a.966.966 0 01.968.448.952.952 0 01.128.35z" fill="#61A8DF"/><path d="M53.54 39.747a.952.952 0 01-.175.71.963.963 0 01-.628.38l-6.012.923a.966.966 0 01-.714-.174.953.953 0 01-.207-1.335.963.963 0 01.628-.38l6.012-.922a.965.965 0 01.714.174c.206.15.343.374.382.624z" fill="url(#paint5_linear_510_13401)"/><path d="M53.54 39.747a.952.952 0 01-.175.71.963.963 0 01-.628.38l-6.012.923a.966.966 0 01-.714-.174.953.953 0 01-.207-1.335.963.963 0 01.628-.38l6.012-.922a.965.965 0 01.714.174c.206.15.343.374.382.624z" fill="#61A8DF"/><path d="M47.483 46.604a.95.95 0 01-.449.962.962.962 0 01-.352.128l-12.915 1.98a.965.965 0 01-1.096-.798.953.953 0 01.175-.71.963.963 0 01.628-.38l12.916-1.98a.963.963 0 01.966.448.95.95 0 01.127.35z" fill="url(#paint6_linear_510_13401)"/><path d="M47.483 46.604a.95.95 0 01-.449.962.962.962 0 01-.352.128l-12.915 1.98a.965.965 0 01-1.096-.798.953.953 0 01.175-.71.963.963 0 01.628-.38l12.916-1.98a.963.963 0 01.966.448.95.95 0 01.127.35z" fill="#61A8DF"/><path d="M54.438 45.536a.953.953 0 01-.175.71.963.963 0 01-.628.38l-4.28.657a.966.966 0 01-.715-.174.956.956 0 01-.207-1.336.958.958 0 01.629-.379l4.28-.657a.966.966 0 01.714.175c.206.15.343.374.382.624z" fill="url(#paint7_linear_510_13401)"/><path d="M54.438 45.536a.953.953 0 01-.175.71.963.963 0 01-.628.38l-4.28.657a.966.966 0 01-.715-.174.956.956 0 01-.207-1.336.958.958 0 01.629-.379l4.28-.657a.966.966 0 01.714.175c.206.15.343.374.382.624z" fill="#61A8DF"/><path d="M51.09 50.056a.95.95 0 01-.45.962.963.963 0 01-.353.128l-15.92 2.441a.961.961 0 01-.967-.446.95.95 0 01.323-1.313.963.963 0 01.352-.127l15.92-2.444a.965.965 0 011.095.799z" fill="url(#paint8_linear_510_13401)"/><path d="M51.09 50.056a.95.95 0 01-.45.962.963.963 0 01-.353.128l-15.92 2.441a.961.961 0 01-.967-.446.95.95 0 01.323-1.313.963.963 0 01.352-.127l15.92-2.444a.965.965 0 011.095.799z" fill="#61A8DF"/><path d="M44.812 56.945a.949.949 0 01-.451.962.961.961 0 01-.352.128l-8.746 1.354a.966.966 0 01-.714-.174.953.953 0 01-.207-1.335.963.963 0 01.628-.38l8.746-1.34a.964.964 0 01.967.447c.066.107.11.225.129.35v-.012z" fill="url(#paint9_linear_510_13401)"/><path d="M44.812 56.945a.949.949 0 01-.451.962.961.961 0 01-.352.128l-8.746 1.354a.966.966 0 01-.714-.174.953.953 0 01-.207-1.335.963.963 0 01.628-.38l8.746-1.34a.964.964 0 01.967.447c.066.107.11.225.129.35v-.012z" fill="#61A8DF"/><path d="M56.407 55.167a.95.95 0 01-.45.963.964.964 0 01-.353.127l-9.122 1.399a.967.967 0 01-.968-.448.95.95 0 01.323-1.312.961.961 0 01.352-.126l9.123-1.402a.966.966 0 01.714.174c.205.15.342.375.381.625z" fill="url(#paint10_linear_510_13401)"/><path d="M56.407 55.167a.95.95 0 01-.45.963.964.964 0 01-.353.127l-9.122 1.399a.967.967 0 01-.968-.448.95.95 0 01.323-1.312.961.961 0 01.352-.126l9.123-1.402a.966.966 0 01.714.174c.205.15.342.375.381.625z" fill="#61A8DF"/><path d="M42.852 61.254a.953.953 0 01-.175.71.963.963 0 01-.628.38l-6.178.947a.965.965 0 01-1.093-.805.953.953 0 01.175-.71.963.963 0 01.628-.38l6.177-.947a.965.965 0 011.096.798l-.002.007z" fill="url(#paint11_linear_510_13401)"/><path d="M42.852 61.254a.953.953 0 01-.175.71.963.963 0 01-.628.38l-6.178.947a.965.965 0 01-1.093-.805.953.953 0 01.175-.71.963.963 0 01.628-.38l6.177-.947a.965.965 0 011.096.798l-.002.007z" fill="#61A8DF"/></g><path d="M58.062 24.374a.64.64 0 01.64.296.63.63 0 01.086.232l.546 3.522a.632.632 0 01-.533.722l-3.539.544a.643.643 0 01-.726-.53l-.547-3.52a.632.632 0 01.534-.722l3.539-.544zm-.064-.418l-3.539.544a1.063 1.063 0 00-.695.418 1.052 1.052 0 00-.194.785l.546 3.52a1.061 1.061 0 001.212.884l3.539-.543a1.06 1.06 0 00.887-1.205l-.547-3.52a1.056 1.056 0 00-.42-.69 1.066 1.066 0 00-.789-.193z" fill="url(#paint12_linear_510_13401)"/><path d="M58.062 24.374a.64.64 0 01.64.296.63.63 0 01.086.232l.546 3.522a.632.632 0 01-.533.722l-3.539.544a.643.643 0 01-.726-.53l-.547-3.52a.632.632 0 01.534-.722l3.539-.544zm-.064-.418l-3.539.544a1.063 1.063 0 00-.695.418 1.052 1.052 0 00-.194.785l.546 3.52a1.061 1.061 0 001.212.884l3.539-.543a1.06 1.06 0 00.887-1.205l-.547-3.52a1.056 1.056 0 00-.42-.69 1.066 1.066 0 00-.789-.193z" fill="#446E8D"/><path d="M59.598 34.282a.64.64 0 01.726.53l.547 3.52a.632.632 0 01-.534.723l-3.539.543a.64.64 0 01-.64-.296.63.63 0 01-.086-.232l-.546-3.522a.632.632 0 01.533-.722l3.539-.544zm-.066-.417l-3.54.544a1.064 1.064 0 00-.693.42 1.054 1.054 0 00-.193.785l.547 3.52a1.059 1.059 0 001.209.882l3.552-.544a1.054 1.054 0 00.888-1.203l-.547-3.52a1.052 1.052 0 00-.422-.692 1.063 1.063 0 00-.79-.192h-.011z" fill="url(#paint13_linear_510_13401)"/><path d="M59.598 34.282a.64.64 0 01.726.53l.547 3.52a.632.632 0 01-.534.723l-3.539.543a.64.64 0 01-.64-.296.63.63 0 01-.086-.232l-.546-3.522a.632.632 0 01.533-.722l3.539-.544zm-.066-.417l-3.54.544a1.064 1.064 0 00-.693.42 1.054 1.054 0 00-.193.785l.547 3.52a1.059 1.059 0 001.209.882l3.552-.544a1.054 1.054 0 00.888-1.203l-.547-3.52a1.052 1.052 0 00-.422-.692 1.063 1.063 0 00-.79-.192h-.011z" fill="#446E8D"/><path d="M61.131 44.169a.642.642 0 01.728.53l.545 3.52a.628.628 0 01-.53.722l-3.542.544a.642.642 0 01-.726-.53l-.545-3.52a.628.628 0 01.531-.722l3.54-.544zm-.063-.418l-3.54.544a1.063 1.063 0 00-.694.418 1.046 1.046 0 00-.192.785l.544 3.522a1.06 1.06 0 001.212.882l3.539-.544a1.062 1.062 0 00.87-.792c.032-.135.038-.275.017-.412l-.545-3.52a1.057 1.057 0 00-.422-.69 1.069 1.069 0 00-.79-.193z" fill="url(#paint14_linear_510_13401)"/><path d="M61.131 44.169a.642.642 0 01.728.53l.545 3.52a.628.628 0 01-.53.722l-3.542.544a.642.642 0 01-.726-.53l-.545-3.52a.628.628 0 01.531-.722l3.54-.544zm-.063-.418l-3.54.544a1.063 1.063 0 00-.694.418 1.046 1.046 0 00-.192.785l.544 3.522a1.06 1.06 0 001.212.882l3.539-.544a1.062 1.062 0 00.87-.792c.032-.135.038-.275.017-.412l-.545-3.52a1.057 1.057 0 00-.422-.69 1.069 1.069 0 00-.79-.193z" fill="#446E8D"/><path d="M62.666 54.068a.639.639 0 01.726.528l.547 3.52a.634.634 0 01-.533.724l-3.54.542a.637.637 0 01-.725-.528l-.547-3.523a.634.634 0 01.533-.722l3.54-.541zm-.066-.418l-3.539.542a1.065 1.065 0 00-.693.42 1.054 1.054 0 00-.194.785l.547 3.52a1.05 1.05 0 00.797.865c.136.033.277.039.414.017l3.54-.541a1.06 1.06 0 00.887-1.205l-.547-3.52a1.05 1.05 0 00-.797-.866 1.064 1.064 0 00-.415-.017z" fill="url(#paint15_linear_510_13401)"/><path d="M62.666 54.068a.639.639 0 01.726.528l.547 3.52a.634.634 0 01-.533.724l-3.54.542a.637.637 0 01-.725-.528l-.547-3.523a.634.634 0 01.533-.722l3.54-.541zm-.066-.418l-3.539.542a1.065 1.065 0 00-.693.42 1.054 1.054 0 00-.194.785l.547 3.52a1.05 1.05 0 00.797.865c.136.033.277.039.414.017l3.54-.541a1.06 1.06 0 00.887-1.205l-.547-3.52a1.05 1.05 0 00-.797-.866 1.064 1.064 0 00-.415-.017z" fill="#446E8D"/><path d="M56.975 28.15a.62.62 0 01-.43-.094l-3.63-2.426a.606.606 0 01-.258-.621.61.61 0 01.936-.385l3.108 2.071 3.675-6.024a.606.606 0 01.614-.285.61.61 0 01.51.69.6.6 0 01-.083.222l-4.006 6.568a.607.607 0 01-.388.278l-.048.007z" fill="#6986D9"/><path d="M56.975 28.15a.62.62 0 01-.43-.094l-3.63-2.426a.606.606 0 01-.258-.621.61.61 0 01.936-.385l3.108 2.071 3.675-6.024a.606.606 0 01.614-.285.61.61 0 01.51.69.6.6 0 01-.083.222l-4.006 6.568a.607.607 0 01-.388.278l-.048.007z" fill="#0F3C5F"/><path d="M58.551 38.324a.62.62 0 01-.43-.094l-3.63-2.426a.607.607 0 01-.26-.621.605.605 0 01.48-.475.615.615 0 01.458.09l3.108 2.071 3.675-6.024a.605.605 0 01.614-.285.61.61 0 01.498.455.603.603 0 01-.07.457l-4.007 6.568a.606.606 0 01-.39.278l-.046.006z" fill="#6986D9"/><path d="M58.551 38.324a.62.62 0 01-.43-.094l-3.63-2.426a.607.607 0 01-.26-.621.605.605 0 01.48-.475.615.615 0 01.458.09l3.108 2.071 3.675-6.024a.605.605 0 01.614-.285.61.61 0 01.498.455.603.603 0 01-.07.457l-4.007 6.568a.606.606 0 01-.39.278l-.046.006z" fill="#0F3C5F"/><path d="M60.13 48.496a.597.597 0 01-.43-.095l-3.63-2.423a.607.607 0 11.678-1.006l3.108 2.071 3.675-6.027a.606.606 0 01.614-.284.61.61 0 01.51.692.603.603 0 01-.082.222l-4.004 6.566a.61.61 0 01-.438.284z" fill="#6986D9"/><path d="M60.13 48.496a.597.597 0 01-.43-.095l-3.63-2.423a.607.607 0 11.678-1.006l3.108 2.071 3.675-6.027a.606.606 0 01.614-.284.61.61 0 01.51.692.603.603 0 01-.082.222l-4.004 6.566a.61.61 0 01-.438.284z" fill="#0F3C5F"/><path d="M61.707 58.675a.608.608 0 01-.431-.097l-3.63-2.423a.606.606 0 11.678-1.006l3.108 2.071 3.675-6.027a.61.61 0 011.112.172.604.604 0 01-.07.458l-4.007 6.568a.61.61 0 01-.39.275l-.045.01z" fill="#6986D9"/><path d="M61.707 58.675a.608.608 0 01-.431-.097l-3.63-2.423a.606.606 0 11.678-1.006l3.108 2.071 3.675-6.027a.61.61 0 011.112.172.604.604 0 01-.07.458l-4.007 6.568a.61.61 0 01-.39.275l-.045.01z" fill="#0F3C5F"/><g clip-path="url(#clip0_510_13401)"><path d="M58.005 39.885c-.441-.41 1.747-4.215 2.468-4.923l16.438-16.018c.72-.71 3.378 1.746 2.65 2.457L63.124 37.417c-.72.71-4.677 2.878-5.119 2.468z" fill="#fff"/><path d="M60.422 35.015c.167.479.562.985 1.08 1.463.517.478 1.058.842 1.567.994l.055-.052 14.74-14.364a2.846 2.846 0 00-.912-1.63 3.12 3.12 0 00-1.734-.83L60.475 34.961a.601.601 0 00-.054.053z" fill="#146DB3"/><path d="M77.767 20.626c.473.428.808.975.966 1.58l.827-.805c.73-.711-1.922-3.168-2.65-2.457l-.826.81c.64.133 1.222.435 1.683.872z" fill="#2F9DF2"/><path d="M58.178 38.846c-.208.532-.3.922-.173 1.039.127.116.544.022 1.09-.19a1.01 1.01 0 00-.31-.57 1.092 1.092 0 00-.607-.279z" fill="#235175"/><path d="M76.953 21.422a3.12 3.12 0 00-1.735-.827L60.477 34.96a.61.61 0 00-.052.053c.168.479.563.985 1.08 1.463" fill="#4C99D5"/></g><defs><linearGradient id="paint0_linear_510_13401" x1="20.96" y1="26.715" x2="57.946" y2="21.081" gradientUnits="userSpaceOnUse"><stop stop-color="#6986D9"/><stop offset="1" stop-color="#8FB3FF"/></linearGradient><linearGradient id="paint1_linear_510_13401" x1="21.859" y1="32.616" x2="58.85" y2="26.981" gradientUnits="userSpaceOnUse"><stop stop-color="#6986D9"/><stop offset="1" stop-color="#8FB3FF"/></linearGradient><linearGradient id="paint2_linear_510_13401" x1="21.859" y1="32.617" x2="58.849" y2="26.982" gradientUnits="userSpaceOnUse"><stop stop-color="#6986D9"/><stop offset="1" stop-color="#8FB3FF"/></linearGradient><linearGradient id="paint3_linear_510_13401" x1="22.943" y1="39.725" x2="59.933" y2="34.09" gradientUnits="userSpaceOnUse"><stop stop-color="#6986D9"/><stop offset="1" stop-color="#8FB3FF"/></linearGradient><linearGradient id="paint4_linear_510_13401" x1="23.541" y1="43.646" x2="60.525" y2="38.012" gradientUnits="userSpaceOnUse"><stop stop-color="#6986D9"/><stop offset="1" stop-color="#8FB3FF"/></linearGradient><linearGradient id="paint5_linear_510_13401" x1="23.542" y1="43.645" x2="60.53" y2="38.011" gradientUnits="userSpaceOnUse"><stop stop-color="#6986D9"/><stop offset="1" stop-color="#8FB3FF"/></linearGradient><linearGradient id="paint6_linear_510_13401" x1="24.426" y1="49.444" x2="61.414" y2="43.809" gradientUnits="userSpaceOnUse"><stop stop-color="#6986D9"/><stop offset="1" stop-color="#8FB3FF"/></linearGradient><linearGradient id="paint7_linear_510_13401" x1="24.423" y1="49.444" x2="61.414" y2="43.809" gradientUnits="userSpaceOnUse"><stop stop-color="#6986D9"/><stop offset="1" stop-color="#8FB3FF"/></linearGradient><linearGradient id="paint8_linear_510_13401" x1="25.023" y1="53.364" x2="62.011" y2="47.729" gradientUnits="userSpaceOnUse"><stop stop-color="#6986D9"/><stop offset="1" stop-color="#8FB3FF"/></linearGradient><linearGradient id="paint9_linear_510_13401" x1="25.905" y1="59.163" x2="62.894" y2="53.529" gradientUnits="userSpaceOnUse"><stop stop-color="#6986D9"/><stop offset="1" stop-color="#8FB3FF"/></linearGradient><linearGradient id="paint10_linear_510_13401" x1="25.906" y1="59.163" x2="62.894" y2="53.529" gradientUnits="userSpaceOnUse"><stop stop-color="#6986D9"/><stop offset="1" stop-color="#8FB3FF"/></linearGradient><linearGradient id="paint11_linear_510_13401" x1="26.503" y1="63.083" x2="63.491" y2="57.448" gradientUnits="userSpaceOnUse"><stop stop-color="#6986D9"/><stop offset="1" stop-color="#8FB3FF"/></linearGradient><linearGradient id="paint12_linear_510_13401" x1="60.25" y1="52.774" x2="55.795" y2="23.211" gradientUnits="userSpaceOnUse"><stop stop-color="#6986D9"/><stop offset="1" stop-color="#8FB3FF"/></linearGradient><linearGradient id="paint13_linear_510_13401" x1="60.251" y1="52.775" x2="55.795" y2="23.21" gradientUnits="userSpaceOnUse"><stop stop-color="#6986D9"/><stop offset="1" stop-color="#8FB3FF"/></linearGradient><linearGradient id="paint14_linear_510_13401" x1="60.251" y1="52.774" x2="55.795" y2="23.211" gradientUnits="userSpaceOnUse"><stop stop-color="#6986D9"/><stop offset="1" stop-color="#8FB3FF"/></linearGradient><linearGradient id="paint15_linear_510_13401" x1="60.249" y1="52.774" x2="55.794" y2="23.209" gradientUnits="userSpaceOnUse"><stop stop-color="#6986D9"/><stop offset="1" stop-color="#8FB3FF"/></linearGradient><clipPath id="clip0_510_13401"><path fill="#fff" transform="rotate(-19.334 102.37 -139.402)" d="M0 0h28.787v17.027H0z"/></clipPath><filter id="filter0_d_510_13401" x=".516" y=".827" width="94.461" height="106.674" filterUnits="userSpaceOnUse" color-interpolation-filters="sRGB"><feFlood flood-opacity="0" result="BackgroundImageFix"/><feColorMatrix in="SourceAlpha" values="0 0 0 0 0 0 0 0 0 0 0 0 0 0 0 0 0 0 127 0" result="hardAlpha"/><feOffset dy="11"/><feGaussianBlur stdDeviation="11"/><feColorMatrix values="0 0 0 0 0.397708 0 0 0 0 0.47749 0 0 0 0 0.575 0 0 0 0.27 0"/><feBlend in2="BackgroundImageFix" result="effect1_dropShadow_510_13401"/><feBlend in="SourceGraphic" in2="effect1_dropShadow_510_13401" result="shape"/></filter></defs></svg>