<svg width="235" height="235" viewBox="0 0 235 235" fill="none" xmlns="http://www.w3.org/2000/svg"><path d="M106.143 122H88.898v-3.006l8.333-9.053c.913-1.007 1.628-1.88 2.144-2.619.527-.738.896-1.4 1.107-1.986a5.217 5.217 0 00.317-1.74c0-1.184-.328-2.151-.985-2.901-.644-.761-1.57-1.142-2.777-1.142-.937 0-1.728.205-2.373.615a3.695 3.695 0 00-1.424 1.652c-.316.703-.474 1.512-.474 2.426h-4.36c0-1.5.34-2.871 1.02-4.113.68-1.242 1.67-2.233 2.97-2.97 1.301-.74 2.866-1.108 4.694-1.108 2.578 0 4.57.638 5.976 1.916 1.407 1.277 2.11 3 2.11 5.168a7.857 7.857 0 01-.686 3.181c-.457 1.043-1.084 2.086-1.881 3.129a42.402 42.402 0 01-2.742 3.182l-5.467 5.871h11.743V122zm10.793-14.783c.972 0 1.775-.164 2.408-.492.633-.329 1.107-.786 1.424-1.371.316-.586.474-1.26.474-2.022 0-.773-.14-1.441-.422-2.004a2.906 2.906 0 00-1.283-1.318c-.574-.305-1.295-.457-2.162-.457-.727 0-1.389.146-1.986.44a3.454 3.454 0 00-1.407 1.212c-.339.516-.509 1.137-.509 1.863h-4.36c0-1.371.358-2.584 1.073-3.638.714-1.055 1.687-1.881 2.918-2.479 1.242-.597 2.642-.896 4.201-.896 1.652 0 3.099.275 4.341.826 1.243.539 2.209 1.347 2.901 2.426.703 1.078 1.055 2.414 1.055 4.007 0 .75-.17 1.5-.51 2.25-.34.739-.844 1.418-1.512 2.04-.668.621-1.5 1.119-2.496 1.494s-2.15.562-3.463.562h-3.217v-2.443h2.532zm-2.532 1.037h3.217c1.5 0 2.777.176 3.832.527 1.067.34 1.934.815 2.602 1.424a5.489 5.489 0 011.459 2.109c.316.797.474 1.635.474 2.514 0 1.606-.381 2.971-1.142 4.096-.762 1.113-1.799 1.963-3.112 2.549-1.3.586-2.777.879-4.429.879a11.01 11.01 0 01-3.164-.457 8.6 8.6 0 01-2.725-1.354 6.796 6.796 0 01-1.881-2.268c-.457-.914-.685-1.974-.685-3.181h4.359c0 .726.176 1.377.527 1.951a3.748 3.748 0 001.459 1.336c.633.316 1.366.475 2.198.475 1.312 0 2.343-.352 3.093-1.055.762-.715 1.143-1.705 1.143-2.971 0-.973-.193-1.764-.58-2.373a3.232 3.232 0 00-1.617-1.353c-.703-.293-1.536-.44-2.496-.44h-2.532v-2.408zM135.094 122h-4.535V96.406h4.535V122zm5.027-13.201l-5.941 6.293-.791-4.535 4.183-5.274 7.348-8.877h5.537L140.121 108.8zm-2.865 1.16l3.129-3.094L150.932 122h-5.397l-8.279-12.041zM84.162 146v-9.242h1.231V146h-1.231zm6.474-6.995c1.469 0 2.203.831 2.203 2.495v4.5h-1.187v-4.513c0-.525-.114-.906-.343-1.143-.224-.237-.565-.355-1.022-.355-.364 0-.692.099-.984.298a2.113 2.113 0 00-.685.8V146H87.43v-6.868h1.123l.038.844c.25-.309.548-.548.895-.717a2.59 2.59 0 011.15-.254zM97.53 146a3.028 3.028 0 01-.908.127c-.478 0-.863-.144-1.155-.432-.288-.287-.432-.755-.432-1.403v-4.265h-1.25v-.895h1.25v-1.67h1.187v1.67h1.282v.895h-1.282v4.272c0 .326.068.546.203.66.136.11.32.165.553.165a2.4 2.4 0 00.291-.019 2.64 2.64 0 00.254-.051l.007.946zm6.874-3.11h-4.646c.013.427.101.814.266 1.161.165.347.398.622.699.825.304.199.66.299 1.066.299.398 0 .741-.081 1.028-.241.292-.161.553-.392.781-.692l.717.558c-.253.39-.592.709-1.015.959-.423.245-.948.368-1.574.368-.627 0-1.179-.142-1.657-.425a2.903 2.903 0 01-1.111-1.181c-.258-.504-.387-1.075-.387-1.714v-.273c0-.715.14-1.339.419-1.872.279-.538.647-.948 1.104-1.232a2.784 2.784 0 011.479-.425c.639 0 1.168.144 1.587.432.423.283.736.677.94 1.18.203.504.304 1.086.304 1.746v.527zm-1.187-1.041c-.034-.538-.18-.986-.438-1.346-.254-.364-.656-.546-1.206-.546-.474 0-.869.174-1.187.521-.313.342-.51.829-.59 1.46h3.421v-.089zm5.364-2.844c.076 0 .171.01.286.032a.907.907 0 01.235.057v1.085a3.147 3.147 0 00-.578-.051c-.389 0-.715.087-.978.261a1.601 1.601 0 00-.584.73V146h-1.187v-6.868h1.156l.025.781c.178-.288.402-.51.673-.667.271-.161.588-.241.952-.241zm6.633 5.497c0 .241.022.491.064.749.042.254.101.47.178.647V146h-1.238c-.072-.165-.127-.404-.165-.717a2.749 2.749 0 01-.857.615c-.33.153-.694.229-1.092.229-.457 0-.863-.089-1.219-.267a2.07 2.07 0 01-.819-.736 1.925 1.925 0 01-.285-1.028c0-.487.125-.9.374-1.238.254-.339.612-.593 1.073-.762.466-.173 1.014-.26 1.644-.26h1.155v-.546c0-.419-.124-.747-.374-.984-.246-.241-.601-.362-1.067-.362-.283 0-.537.051-.761.153-.225.097-.4.23-.527.4a.88.88 0 00-.184.539h-1.187c0-.334.114-.658.343-.971.228-.313.55-.567.964-.762.415-.199.889-.298 1.422-.298.508 0 .952.087 1.333.26.385.169.686.428.902.775.215.342.323.763.323 1.263v3.199zm-2.939.609c.271 0 .523-.046.756-.139.237-.098.44-.225.609-.381.169-.157.298-.326.387-.508v-1.422h-.965c-.677 0-1.195.108-1.555.324a1.03 1.03 0 00-.539.946c0 .224.051.425.152.603.102.177.25.319.444.425.195.102.432.152.711.152zm10.284-1.282a2.123 2.123 0 01-.413 1.136 2.758 2.758 0 01-1.003.845 2.86 2.86 0 01-1.327.317c-.664 0-1.227-.152-1.688-.457a2.856 2.856 0 01-1.028-1.238 4.255 4.255 0 01-.343-1.733v-.266c0-.635.114-1.211.343-1.727.228-.52.571-.933 1.028-1.238.461-.309 1.024-.463 1.688-.463.525 0 .991.108 1.397.324.41.215.732.514.965.895.232.376.359.799.381 1.269h-1.124a1.737 1.737 0 00-.241-.774 1.53 1.53 0 00-.565-.559 1.614 1.614 0 00-.813-.203c-.452 0-.818.119-1.098.355a1.904 1.904 0 00-.596.908 3.928 3.928 0 00-.178 1.213v.266c0 .703.144 1.291.431 1.765.292.474.773.711 1.441.711.275 0 .531-.057.768-.172a1.61 1.61 0 00.591-.482c.152-.207.239-.438.26-.692h1.124zm4.233 2.171c-.27.085-.573.127-.907.127-.478 0-.864-.144-1.156-.432-.287-.287-.431-.755-.431-1.403v-4.265h-1.251v-.895h1.251v-1.67h1.187v1.67h1.282v.895h-1.282v4.272c0 .326.068.546.203.66.135.11.319.165.552.165.089 0 .186-.006.292-.019.106-.017.191-.034.254-.051l.006.946zm2.044-9.369c.22 0 .392.063.515.19.127.127.19.288.19.483 0 .19-.063.349-.19.476-.123.123-.295.184-.515.184-.22 0-.391-.061-.514-.184a.673.673 0 01-.177-.476c0-.195.059-.356.177-.483.123-.127.294-.19.514-.19zm-.603 9.369v-6.868h1.187V146h-1.187zm2.755-3.504c0-.664.127-1.261.381-1.79a2.96 2.96 0 011.086-1.244c.474-.305 1.024-.457 1.65-.457.635 0 1.189.152 1.663.457.474.3.838.715 1.092 1.244.254.529.381 1.126.381 1.79v.146c0 .664-.127 1.261-.381 1.79-.254.525-.618.94-1.092 1.244-.47.301-1.02.451-1.65.451-.631 0-1.183-.15-1.657-.451a3.05 3.05 0 01-1.092-1.244c-.254-.529-.381-1.126-.381-1.79v-.146zm1.187.146c0 .466.072.891.216 1.276.148.385.368.692.66.92.292.225.648.337 1.067.337.414 0 .768-.112 1.06-.337.292-.228.51-.535.654-.92.148-.385.222-.81.222-1.276v-.146c0-.465-.074-.891-.222-1.276a2.096 2.096 0 00-.661-.92c-.292-.229-.647-.343-1.066-.343-.415 0-.768.114-1.06.343a2.108 2.108 0 00-.654.92 3.62 3.62 0 00-.216 1.276v.146zm9.75-3.637c1.469 0 2.203.831 2.203 2.495v4.5h-1.187v-4.513c0-.525-.114-.906-.343-1.143-.224-.237-.565-.355-1.022-.355-.364 0-.692.099-.984.298a2.116 2.116 0 00-.685.8V146h-1.187v-6.868h1.123l.038.844c.25-.309.548-.548.895-.717a2.59 2.59 0 011.149-.254zm6.405 3.98c-.817-.169-1.434-.406-1.853-.711-.415-.305-.623-.726-.623-1.263 0-.364.106-.699.318-1.003.211-.305.51-.548.895-.73a3.113 3.113 0 011.333-.273c.533 0 .999.095 1.396.286.398.19.701.448.908.774.212.322.317.681.317 1.079h-1.187a1.05 1.05 0 00-.171-.565 1.254 1.254 0 00-.501-.444 1.555 1.555 0 00-.762-.178c-.309 0-.565.049-.768.146a1 1 0 00-.451.375.93.93 0 00-.139.495.79.79 0 00.126.457c.089.118.246.226.47.323.229.098.557.193.984.286.576.131 1.043.286 1.403.463.36.178.626.396.8.654.177.258.266.572.266.94 0 .397-.11.751-.33 1.06-.22.304-.531.544-.933.717-.402.169-.867.254-1.396.254-.584 0-1.09-.104-1.517-.311-.424-.212-.745-.489-.965-.832a1.994 1.994 0 01-.33-1.098h1.187c.017.305.105.555.266.749.161.191.36.328.597.413a2.3 2.3 0 00.762.127c.309 0 .573-.043.793-.127.224-.089.394-.208.508-.356a.834.834 0 00.171-.514.98.98 0 00-.12-.495c-.081-.14-.235-.269-.464-.387-.228-.119-.558-.222-.99-.311z" fill="#4D4F5C"/><path d="M235 117.5c0 64.893-52.607 117.5-117.5 117.5C52.606 235 0 182.393 0 117.5 0 52.606 52.606 0 117.5 0 182.393 0 235 52.606 235 117.5zm-197.212 0c0 44.024 35.688 79.712 79.712 79.712s79.712-35.688 79.712-79.712-35.688-79.712-79.712-79.712S37.788 73.476 37.788 117.5z" fill="#F8CF61"/><path d="M130.884 234.235a117.493 117.493 0 00102.842-99.48 117.491 117.491 0 00-3.6-50.745l-36.22 10.77a79.712 79.712 0 01-67.327 101.913l4.305 37.542z" fill="#6CD5B1"/><path d="M230.184 84.206A117.497 117.497 0 00131.048.784l-4.357 37.535a79.717 79.717 0 0167.254 56.595l36.239-10.708z" fill="#F36B7F"/></svg>