<svg width="180" height="96" viewBox="0 0 180 96" fill="none" xmlns="http://www.w3.org/2000/svg"><path opacity=".15" d="M5.08 90.792a84.9 84.9 0 0152.404-78.434 84.885 84.885 0 0192.513 18.403 84.902 84.902 0 0124.863 60.03" stroke="#AFB1B7" stroke-width="10" stroke-miterlimit="10" stroke-linecap="round"/><path d="M16.756 90.624a.584.584 0 01-.584-.584c0-2.35.111-4.721.33-7.048a.584.584 0 111.163.11 74.195 74.195 0 00-.325 6.936.585.585 0 01-.584.586zm147.257-.175a.584.584 0 01-.584-.583 74.368 74.368 0 00-.341-6.937.576.576 0 01.308-.572.585.585 0 01.856.462c.224 2.325.341 4.697.351 7.048a.59.59 0 01-.359.54.58.58 0 01-.223.045l-.008-.004zM18.072 76.698a.585.585 0 01-.575-.693 73.281 73.281 0 011.657-6.861.584.584 0 111.122.328 72.607 72.607 0 00-1.63 6.752.584.584 0 01-.574.473v.002zm144.591-.175a.586.586 0 01-.572-.473 73.165 73.165 0 00-1.646-6.748.58.58 0 01.395-.726.584.584 0 01.725.395 73.77 73.77 0 011.674 6.857.589.589 0 01-.576.695zM22 63.274a.583.583 0 01-.542-.802 73.913 73.913 0 012.934-6.42.584.584 0 01.97-.11.583.583 0 01.072.648 72.58 72.58 0 00-2.888 6.323.583.583 0 01-.543.36H22zm136.698-.165a.581.581 0 01-.541-.367 73.308 73.308 0 00-2.902-6.31.584.584 0 01.696-.83.578.578 0 01.343.289 74.715 74.715 0 012.949 6.41.591.591 0 01-.133.635.584.584 0 01-.19.125.593.593 0 01-.219.048h-.003zM28.415 50.839a.579.579 0 01-.48-.252.584.584 0 01-.01-.648 75.172 75.172 0 014.095-5.75.586.586 0 011.04.292.585.585 0 01-.121.43 73.045 73.045 0 00-4.032 5.659.585.585 0 01-.49.27l-.002-.001zm123.839-.148a.586.586 0 01-.491-.263 73.512 73.512 0 00-4.045-5.65.584.584 0 01.917-.723 75.837 75.837 0 014.109 5.74.582.582 0 01-.487.897h-.003zM37.064 39.842a.581.581 0 01-.583-.57.584.584 0 01.16-.417 75.739 75.739 0 015.105-4.874.584.584 0 11.765.881 73.85 73.85 0 00-5.025 4.8.584.584 0 01-.421.18zm106.514-.126a.578.578 0 01-.421-.176 73.72 73.72 0 00-5.037-4.787.592.592 0 01-.2-.4.578.578 0 01.141-.424.586.586 0 01.625-.173.58.58 0 01.198.112 74.916 74.916 0 015.117 4.863.585.585 0 01-.019.826.58.58 0 01-.401.159h-.003zM47.63 30.67a.582.582 0 01-.57-.452.581.581 0 01.23-.608 74.526 74.526 0 015.93-3.826.585.585 0 01.587 1.01 73.258 73.258 0 00-5.839 3.766.58.58 0 01-.336.108l-.002.002zm85.362-.102a.579.579 0 01-.338-.108 73.277 73.277 0 00-5.847-3.752.584.584 0 01.584-1.01 74.689 74.689 0 015.94 3.81.584.584 0 01-.07.994.585.585 0 01-.267.064l-.002.002zm-73.259-6.912a.584.584 0 01-.243-1.115 75.052 75.052 0 016.549-2.635.585.585 0 01.383 1.104 72.415 72.415 0 00-6.444 2.59.58.58 0 01-.242.053l-.003.003zm61.137-.073a.581.581 0 01-.241-.053 72.732 72.732 0 00-6.453-2.574.587.587 0 01-.362-.742.581.581 0 01.742-.362 73.775 73.775 0 016.556 2.616.592.592 0 01.306.326.575.575 0 01-.016.447.585.585 0 01-.529.34l-.003.002zM72.947 19.07a.584.584 0 01-.497-.885.584.584 0 01.36-.263 74.042 74.042 0 016.929-1.336.584.584 0 01.167 1.157 71.806 71.806 0 00-6.821 1.317.563.563 0 01-.135.007l-.003.003zm34.697-.04a.582.582 0 01-.137-.018 72.793 72.793 0 00-6.823-1.297.582.582 0 01-.269-1.043.587.587 0 01.431-.114c2.323.328 4.654.771 6.937 1.317a.584.584 0 01-.136 1.15l-.003.004zm-20.853-1.95a.584.584 0 01-.25-1.114.582.582 0 01.222-.056 75.943 75.943 0 017.057-.009.583.583 0 01.557.61.597.597 0 01-.61.557 74.503 74.503 0 00-6.948.01l-.028.003zm1.665 68.816a6.423 6.423 0 100-12.846 6.423 6.423 0 000 12.846z" fill="#AFB1B7" opacity=".3"/><path d="M65.711 53.21l24.256 23.499c1.797 1.742 2.1 4.382.643 5.605-1.43 1.2-3.92.497-5.342-1.51L65.711 53.21z" fill="#FF8373"/><path d="M88.677 80.01a.292.292 0 10-.584 0 .292.292 0 00.584 0z" fill="#fff"/><path d="M5.88 92a2.873 2.873 0 01-2.036-.848A2.904 2.904 0 013 89.104C3.026 66.01 12.162 43.87 28.404 27.54 44.645 11.21 66.666 2.026 89.636 2a86.21 86.21 0 0150.689 16.414c14.76 10.694 25.792 25.793 31.528 43.151a2.912 2.912 0 01-.158 2.211 2.885 2.885 0 01-1.666 1.452 2.867 2.867 0 01-2.199-.157 2.896 2.896 0 01-1.445-1.675 81.18 81.18 0 00-29.43-40.282 80.478 80.478 0 00-47.32-15.323c-21.441.025-41.998 8.6-57.16 23.843-15.161 15.244-23.69 35.912-23.714 57.47a2.91 2.91 0 01-.844 2.048A2.879 2.879 0 015.88 92z" fill="url(#paint0_linear_190_14)"/><defs><linearGradient id="paint0_linear_190_14" x1="150.875" y1="37.37" x2="69.656" y2="143.17" gradientUnits="userSpaceOnUse"><stop stop-color="#FF8373"/><stop offset=".439" stop-color="#EFCF66"/><stop offset="1" stop-color="#6CD5B1"/></linearGradient></defs></svg>