<svg width="98" height="93" viewBox="0 0 98 93" fill="none" xmlns="http://www.w3.org/2000/svg"><rect y=".25" width="92" height="92" rx="46" fill="#F5F5F5"/><path opacity=".25" d="M46 33.25a4.333 4.333 0 003.754-6.5h7.08a8.667 8.667 0 018.666 8.667v26a8.667 8.667 0 01-8.667 8.666H35.167a8.667 8.667 0 01-8.667-8.666v-26a8.667 8.667 0 018.667-8.667h7.08A4.333 4.333 0 0046 33.25z" fill="#B5B5B5"/><path d="M37.333 39.75a2.167 2.167 0 100 4.333h17.334a2.167 2.167 0 100-4.333H37.333z" fill="url(#paint0_linear_81_1044)"/><path d="M35.167 50.583c0-1.196.97-2.166 2.166-2.166h17.334a2.167 2.167 0 110 4.333H37.333a2.167 2.167 0 01-2.166-2.167z" fill="url(#paint1_linear_81_1044)"/><path d="M35.167 59.25c0-1.197.97-2.167 2.166-2.167H46a2.167 2.167 0 010 4.334h-8.667a2.167 2.167 0 01-2.166-2.167z" fill="url(#paint2_linear_81_1044)"/><path fill-rule="evenodd" clip-rule="evenodd" d="M43.833 28.917a2.167 2.167 0 104.334 0 2.167 2.167 0 00-4.334 0zm2.167-6.5a6.5 6.5 0 100 13 6.5 6.5 0 000-13z" fill="url(#paint3_linear_81_1044)"/><rect x="62" y="3.25" width="36" height="36" rx="18" fill="#36C66A"/><mask id="a" style="mask-type:alpha" maskUnits="userSpaceOnUse" x="69" y="13" width="23" height="16"><path fill-rule="evenodd" clip-rule="evenodd" d="M90.849 13.601a1.2 1.2 0 010 1.697l-13.2 13.2a1.2 1.2 0 01-1.698 0l-6-6a1.2 1.2 0 111.698-1.697l5.151 5.152 12.351-12.351a1.2 1.2 0 011.698 0z" fill="#061938"/></mask><g mask="url(#a)"><path fill="#fff" d="M66 7.25h28.8v28.8H66z"/></g><defs><linearGradient id="paint0_linear_81_1044" x1="35.167" y1="50.583" x2="58.167" y2="50.583" gradientUnits="userSpaceOnUse"><stop stop-color="#FF5A5F"/><stop offset="1" stop-color="#FF477E"/></linearGradient><linearGradient id="paint1_linear_81_1044" x1="35.167" y1="50.583" x2="58.167" y2="50.583" gradientUnits="userSpaceOnUse"><stop stop-color="#FF5A5F"/><stop offset="1" stop-color="#FF477E"/></linearGradient><linearGradient id="paint2_linear_81_1044" x1="35.167" y1="50.583" x2="58.167" y2="50.583" gradientUnits="userSpaceOnUse"><stop stop-color="#FF5A5F"/><stop offset="1" stop-color="#FF477E"/></linearGradient><linearGradient id="paint3_linear_81_1044" x1="39.5" y1="28.917" x2="53.3" y2="28.917" gradientUnits="userSpaceOnUse"><stop stop-color="#FF5A5F"/><stop offset="1" stop-color="#FF477E"/></linearGradient></defs></svg>