<svg xmlns="http://www.w3.org/2000/svg" fill="none" viewBox="0 0 100 100" height="100" width="100"><path fill="#2F2E41" d="M28.84 82.066c1.54 0 2.788-.467 2.788-1.044 0-.576-1.248-1.043-2.787-1.043-1.54 0-2.787.468-2.787 1.043 0 .577 1.248 1.044 2.787 1.044zm6.689-.139c1.539 0 2.787-.467 2.787-1.043 0-.576-1.248-1.043-2.787-1.043-1.54 0-2.787.467-2.787 1.043 0 .576 1.248 1.043 2.787 1.043zm8.879-17.532c2.633-1.515 4.381-3.412 3.905-4.237-.477-.825-2.998-.266-5.631 1.25-2.634 1.514-4.382 3.412-3.906 4.237.477.825 2.998.266 5.632-1.25z"/><path fill="#2F2E41" d="M41.936 68.11c.974-5.989-3.102-11.632-9.103-12.604-6-.972-11.655 3.096-12.628 9.085-.974 5.99 3.101 11.633 9.102 12.605 6 .972 11.655-3.096 12.629-9.085z"/><path fill="#2F2E41" d="M29.398 74.973h-3.344v5.98h3.344v-5.98zm6.688 0h-3.344v5.98h3.344v-5.98z"/><path fill="#fff" d="M31.349 67.324a3.759 3.759 0 003.762-3.755 3.759 3.759 0 00-3.762-3.755 3.759 3.759 0 00-3.763 3.755 3.759 3.759 0 003.763 3.755z"/><path fill="#3F3D56" d="M31.349 64.821a1.253 1.253 0 10-1.255-1.252c0 .692.562 1.252 1.255 1.252z"/><path fill="#E6E6E6" d="M20.392 56.134c-.888-3.973 1.953-7.988 6.346-8.967 4.394-.98 8.676 1.448 9.565 5.42.889 3.974-2.023 5.439-6.416 6.418-4.394.98-8.606 1.101-9.495-2.871z"/><path fill="#2F2E41" d="M23.645 63.607c.409-.86-1.486-2.612-4.233-3.912-2.746-1.3-5.304-1.657-5.713-.796-.409.86 1.486 2.612 4.233 3.912 2.746 1.3 5.304 1.657 5.713.796z"/><path fill="#fff" d="M25.663 70.314c0 1.076 2.774 3.199 5.852 3.199 3.078 0 5.964-3.027 5.964-4.103 0-1.075-2.886.209-5.964.209-3.078 0-5.852-.38-5.852.695z"/><path fill="#2F2E41" d="M69.453 82.066c1.539 0 2.786-.467 2.786-1.044 0-.576-1.247-1.043-2.786-1.043-1.54 0-2.787.468-2.787 1.043 0 .577 1.248 1.044 2.787 1.044zm-6.688-.139c1.539 0 2.787-.467 2.787-1.043 0-.576-1.248-1.043-2.787-1.043-1.54 0-2.787.467-2.787 1.043 0 .576 1.248 1.043 2.787 1.043zm-3.248-16.282c.476-.825-1.272-2.722-3.906-4.238-2.633-1.515-5.154-2.074-5.63-1.25-.477.826 1.271 2.723 3.905 4.238 2.633 1.516 5.154 2.075 5.63 1.25z"/><path fill="#2F2E41" d="M67.223 77.337c6.08 0 11.008-4.919 11.008-10.986 0-6.068-4.928-10.987-11.008-10.987-6.08 0-11.007 4.919-11.007 10.987 0 6.067 4.928 10.986 11.007 10.986z"/><path fill="#2F2E41" d="M72.24 74.973h-3.345v5.98h3.344v-5.98zm-6.689 0h-3.344v5.98h3.344v-5.98z"/><path fill="#fff" d="M64.644 67.324a3.759 3.759 0 003.763-3.755 3.759 3.759 0 00-3.763-3.755 3.759 3.759 0 00-3.762 3.755 3.759 3.759 0 003.762 3.755z"/><path fill="#3F3D56" d="M63.738 63.94a1.25 1.25 0 00.007-1.768 1.255 1.255 0 00-1.773.005 1.25 1.25 0 00-.007 1.77 1.257 1.257 0 001.773-.006z"/><path fill="#6C63FF" d="M68.407 59.005c-4.394-.98-7.305-2.445-6.417-6.417.89-3.973 5.172-6.4 9.565-5.421 4.394.98 7.235 4.994 6.346 8.966-.889 3.973-5.1 3.851-9.494 2.872z"/><path fill="#2F2E41" d="M78.734 74.725c.922-.244 1.038-2.82.257-5.751-.78-2.933-2.16-5.111-3.083-4.867-.922.245-1.037 2.82-.257 5.752.78 2.932 2.16 5.11 3.083 4.866z"/><path fill="#fff" d="M64.73 69.62c-2.021 0-3.916-1.285-3.916-.21 0 1.076 1.895 4.103 3.916 4.103 2.02 0 3.842-2.123 3.842-3.198 0-1.076-1.822-.696-3.842-.696z"/><path fill="#6C63FF" d="M50.504 48.135h-.978a3.31 3.31 0 01-2.334-.967 3.297 3.297 0 01-.969-2.33v-.82c0-2.028.386-3.727 1.145-5.048a26.561 26.561 0 013.206-4.3 18.948 18.948 0 002.18-2.621 4.404 4.404 0 00.688-2.44c0-2.035-1.329-3.024-4.062-3.024a16.519 16.519 0 00-4.476.67 3.776 3.776 0 01-4.408-1.94 3.755 3.755 0 01-.396-1.677V21.98a3.685 3.685 0 012.181-3.381 19.99 19.99 0 018.13-1.597c2.925 0 5.566.49 7.849 1.458 2.287.969 4.094 2.335 5.37 4.062a9.77 9.77 0 011.926 5.93c0 2.29-.626 4.285-1.862 5.93-1.222 1.627-2.975 3.409-5.208 5.296a37.105 37.105 0 00-3.339 3.14 5.792 5.792 0 00-1.388 2.579 3.286 3.286 0 01-1.125 1.964 3.298 3.298 0 01-2.13.774zm-.544 15.503h-.129a6.128 6.128 0 01-4.326-1.791 6.104 6.104 0 010-8.638 6.128 6.128 0 014.326-1.791h.13a6.13 6.13 0 014.33 1.788 6.108 6.108 0 011.795 4.322 6.1 6.1 0 01-1.794 4.321 6.123 6.123 0 01-4.332 1.789z"/><path fill="#CCC" d="M89.744 82.182H10.256a.256.256 0 110-.511h79.488a.256.256 0 110 .51z"/><path fill="#F2F2F2" d="M25.647 38.976c.913 0 1.653-.739 1.653-1.65a1.652 1.652 0 00-3.306 0c0 .911.74 1.65 1.653 1.65z"/></svg>