<svg width="100" height="100" viewBox="0 0 100 100" fill="none" xmlns="http://www.w3.org/2000/svg"><path d="M85.215 57.379a2.131 2.131 0 01-.177-.697 2.28 2.28 0 01.057-.732c.058-.236.154-.452.28-.632.126-.18.28-.32.45-.41l-.177-6.037 1.978 1.623-.135 5.483c.093.399.075.83-.05 1.212-.125.383-.35.69-.63.862a.956.956 0 01-.892.076c-.294-.124-.545-.39-.704-.748z" fill="#A0616A"/><path d="M87.855 53.466l-1.758.381a.416.416 0 01-.222-.012.512.512 0 01-.201-.129.732.732 0 01-.149-.224.952.952 0 01-.072-.285l-.744-7.612-3.677-6.835a2.746 2.746 0 01-.284-.847 3.104 3.104 0 01-.012-.93 2.8 2.8 0 01.26-.862c.13-.26.296-.48.49-.65.378-.327.836-.438 1.274-.307.438.131.82.493 1.06 1.006l3.756 7.982.747 8.482c.005.054.006.11.002.163a.903.903 0 01-.15.449.534.534 0 01-.32.23z" fill="#6C63FF"/><path d="M81.792 81.719h-1.526l-.726-7.994h2.252v7.994z" fill="#A0616A"/><path d="M79.176 81.126h2.943v2.517h-4.796c0-.667.196-1.308.543-1.78.347-.471.819-.737 1.31-.737z" fill="#2F2E41"/><path d="M88.23 78.171l-1.14 1.378-4.25-5.692 1.478-1.658 3.911 5.972z" fill="#A0616A"/><path d="M85.985 80.09l2.199-2.656 1.231 1.88-3.583 4.329a2.824 2.824 0 01-.366-.847 3.357 3.357 0 01.083-1.923c.106-.297.254-.563.436-.783z" fill="#2F2E41"/><path d="M66.459 36.008a.93.93 0 01.542-.007c.18.051.348.155.494.304.146.15.266.34.352.56.087.22.136.462.146.71l4.272 1.678-1.759 2.038-3.787-1.907c-.308-.005-.604-.165-.831-.447-.228-.282-.37-.667-.403-1.084-.032-.416.05-.833.229-1.173.18-.34.444-.58.745-.672zm13.319-5.792c1.688 0 3.057-1.859 3.057-4.152s-1.368-4.152-3.057-4.152c-1.688 0-3.056 1.859-3.056 4.152s1.368 4.152 3.056 4.152z" fill="#A0616A"/><path d="M81.98 80.222l-2.125-.231a.517.517 0 01-.36-.233.916.916 0 01-.155-.5l-.592-24.314a.943.943 0 01.13-.515.542.542 0 01.352-.264l4.234-.802a.422.422 0 01.26.034.573.573 0 01.22.19.85.85 0 01.132.304c.026.114.032.236.017.353l-1.62 12.89a.816.816 0 00-.006.107l.117 12.213c0 .1-.013.2-.04.294a.827.827 0 01-.122.25.587.587 0 01-.182.167.435.435 0 01-.26.057z" fill="#2F2E41"/><path d="M84.699 77.306l-7.296-11.028a.859.859 0 01-.116-.275 1.03 1.03 0 01-.024-.314l.921-11.733a.868.868 0 01.197-.502.472.472 0 01.398-.176l4.477.405a.462.462 0 01.243.1.68.68 0 01.185.237.942.942 0 01.09.322c.011.116.003.233-.025.344l-2.682 10.78a.793.793 0 00-.013.318.675.675 0 00.112.281l6.197 8.724a.846.846 0 01.129.291c.026.11.034.225.023.34a.941.941 0 01-.089.317.681.681 0 01-.181.235l-1.845 1.48a.441.441 0 01-.37.097.54.54 0 01-.331-.243z" fill="#2F2E41"/><path d="M79.23 32.78s1.867-2.197 2.739-1.014c0 0 4.044 3.465 2.302 12.932 0 0 1.493 9.128.871 9.466-.622.338-6.907 1.606-7.405.592-.498-1.015-.747-16.566 1.494-21.976z" fill="#6C63FF"/><path d="M68.358 40.647l.289-2.387a.939.939 0 01.079-.282.711.711 0 01.153-.218.499.499 0 01.204-.12.415.415 0 01.222-.004l5.552 1.446 5.936-2.58c.22-.095.452-.129.681-.098.23.031.453.126.654.278.202.152.379.359.52.607.14.249.242.534.298.838a3.02 3.02 0 01-.187 1.738c-.23.523-.603.9-1.037 1.049l-6.762 2.318-6.162-1.716a.47.47 0 01-.114-.05.67.67 0 01-.267-.333.999.999 0 01-.059-.486z" fill="#6C63FF"/><path d="M81.09 29.432c.28-.878.516-2.048-.02-2.669-.31-.36-.758-.36-1.166-.405a3.53 3.53 0 01-2.888-2.209c-.561-1.365-.248-3.395.81-4.01.713-.416 1.53-.133 2.277.154l2.24.864c.666.256 1.366.539 1.845 1.217.764 1.081.707 2.91.1 4.161-.607 1.252-1.522 2.558-2.568 3.034l-.63-.137z" fill="#2F2E41"/><path d="M97.876 84H67.01a.11.11 0 01-.088-.05.203.203 0 01-.037-.12c0-.044.014-.087.037-.119a.11.11 0 01.088-.05h30.865a.11.11 0 01.087.05.203.203 0 01.037.12.203.203 0 01-.037.12.11.11 0 01-.087.049zM65.078 13H.922c-.244 0-.479.13-.652.362-.172.232-.27.546-.27.873v63.53c0 .327.098.641.27.873.173.231.408.362.652.362h64.156c.244 0 .479-.13.652-.362.172-.232.27-.546.27-.873v-63.53c0-.327-.097-.641-.27-.873-.173-.231-.408-.362-.652-.362zm.659 64.765c0 .234-.07.458-.194.623a.59.59 0 01-.465.26H.922c-.175-.001-.342-.094-.466-.26a1.053 1.053 0 01-.193-.623v-63.53c0-.234.07-.458.193-.623.124-.166.291-.259.466-.26h64.156a.59.59 0 01.465.26c.124.165.194.39.194.623v63.53z" fill="#3F3D56"/><path d="M2.5 17c.276 0 .5-.448.5-1s-.224-1-.5-1-.5.448-.5 1 .224 1 .5 1zm2 0c.276 0 .5-.448.5-1s-.224-1-.5-1-.5.448-.5 1 .224 1 .5 1zm2 0c.276 0 .5-.448.5-1s-.224-1-.5-1-.5.448-.5 1 .224 1 .5 1zm33.364 41a.115.115 0 01-.069-.023l-7.728-5.658a.171.171 0 01-.063-.105.209.209 0 01.015-.13.145.145 0 01.082-.078.112.112 0 01.103.017l7.728 5.658a.165.165 0 01.058.083.212.212 0 01.005.11.177.177 0 01-.048.09.12.12 0 01-.083.036z" fill="#3F3D56"/><path d="M25.12 58a.098.098 0 01-.073-.035.187.187 0 01-.043-.091.243.243 0 01.005-.11.168.168 0 01.05-.083l6.762-5.658a.088.088 0 01.09-.017c.031.011.057.04.073.079.016.039.02.085.012.13a.177.177 0 01-.055.103l-6.762 5.659a.093.093 0 01-.06.023zm22.744 9a.105.105 0 01-.069-.027l-7.728-6.601a.208.208 0 01-.063-.122.282.282 0 01.015-.15.157.157 0 01.082-.093.1.1 0 01.103.02l7.728 6.601a.195.195 0 01.058.097.29.29 0 01.005.128.22.22 0 01-.048.106.112.112 0 01-.083.041z" fill="#3F3D56"/><path d="M32.136 67a.112.112 0 01-.083-.041.22.22 0 01-.048-.106.287.287 0 01.005-.128.195.195 0 01.058-.097l7.728-6.601a.1.1 0 01.103-.02.157.157 0 01.082.092c.019.046.024.1.015.15a.209.209 0 01-.063.122l-7.728 6.602a.105.105 0 01-.069.027z" fill="#3F3D56"/><path d="M34.358 52h-3.716a.585.585 0 01-.454-.236.919.919 0 01-.188-.568v-2.392c0-.213.068-.417.188-.568a.585.585 0 01.454-.236h3.716c.17 0 .333.085.454.236.12.15.188.355.188.568v2.392a.919.919 0 01-.188.568.585.585 0 01-.454.236z" fill="#CCC"/><path d="M17.875 40a.1.1 0 01-.064-.025l-6.75-5.646a.184.184 0 01-.057-.108.242.242 0 01.014-.134.14.14 0 01.076-.081.094.094 0 01.095.019l6.75 5.646c.023.02.042.05.052.086.01.036.012.075.005.113a.192.192 0 01-.045.094.104.104 0 01-.076.036z" fill="#3F3D56"/><path d="M11.126 46a.104.104 0 01-.077-.036.192.192 0 01-.044-.094.246.246 0 01.004-.113.173.173 0 01.053-.086l6.749-5.646a.095.095 0 01.095-.02.14.14 0 01.077.082c.016.04.021.088.013.134a.184.184 0 01-.057.108l-6.75 5.646a.1.1 0 01-.063.025z" fill="#3F3D56"/><path d="M20.397 43h-1.794a.547.547 0 01-.426-.226.89.89 0 01-.177-.544v-4.46c0-.204.064-.4.177-.544a.547.547 0 01.426-.226h1.794c.16 0 .313.081.426.226a.89.89 0 01.177.544v4.46a.89.89 0 01-.177.544.547.547 0 01-.426.226zm13.961-11h-3.716a.585.585 0 01-.454-.236.919.919 0 01-.188-.568v-2.392c0-.213.068-.417.188-.568a.585.585 0 01.454-.236h3.716c.17 0 .333.085.454.236.12.15.188.355.188.568v2.392a.919.919 0 01-.188.568.585.585 0 01-.454.236zm-23.961 5H8.603a.547.547 0 01-.426-.226A.89.89 0 018 36.23v-4.46c0-.204.064-.4.177-.544A.547.547 0 018.603 31h1.794c.16 0 .313.081.426.226a.89.89 0 01.177.544v4.46a.89.89 0 01-.177.544.547.547 0 01-.426.226zm0 12H8.603c-.16 0-.313-.095-.426-.264A1.159 1.159 0 018 48.102V42.9c0-.239.064-.467.177-.636.113-.168.266-.263.426-.263h1.794c.16 0 .313.095.426.264.113.168.177.396.177.635v5.2c0 .239-.064.467-.177.636-.113.168-.266.263-.426.263z" fill="#CCC"/><path d="M46.144 40a.127.127 0 01-.087-.036.183.183 0 01-.052-.094.217.217 0 01.005-.113.172.172 0 01.06-.086l7.714-5.646a.127.127 0 01.052-.023.117.117 0 01.056.003.133.133 0 01.05.03.169.169 0 01.038.052.206.206 0 01.016.134.196.196 0 01-.025.062.159.159 0 01-.041.046l-7.714 5.646a.123.123 0 01-.072.025z" fill="#3F3D56"/><path d="M53.856 46a.123.123 0 01-.072-.025L46.07 40.33a.178.178 0 01-.066-.108.214.214 0 01.016-.134c.02-.04.051-.07.088-.082a.12.12 0 01.108.02l7.714 5.646c.027.02.048.05.06.086a.217.217 0 01.005.113.183.183 0 01-.051.094.127.127 0 01-.088.036zM66 18H0v.5h66V18z" fill="#3F3D56"/><path d="M45.397 43h-1.794a.547.547 0 01-.426-.226.89.89 0 01-.177-.544v-4.46c0-.204.064-.4.177-.544a.547.547 0 01.426-.226h1.794c.16 0 .313.081.426.226a.89.89 0 01.177.544v4.46a.89.89 0 01-.177.544.547.547 0 01-.426.226zm10-6h-1.794a.547.547 0 01-.426-.226.89.89 0 01-.177-.544v-4.46c0-.204.064-.4.177-.544a.547.547 0 01.426-.226h1.794c.16 0 .313.081.426.226a.89.89 0 01.177.544v4.46a.89.89 0 01-.177.544.547.547 0 01-.426.226zm0 12h-1.794c-.16 0-.313-.095-.426-.264a1.159 1.159 0 01-.177-.635V42.9c0-.239.064-.467.177-.636.113-.168.266-.263.426-.263h1.794c.16 0 .313.095.426.264.113.168.177.396.177.635v5.2c0 .239-.064.467-.177.636-.113.168-.266.263-.426.263zM26.358 61h-3.716a.585.585 0 01-.454-.236.919.919 0 01-.188-.568v-2.392c0-.213.068-.417.188-.568a.585.585 0 01.454-.236h3.716c.17 0 .333.085.454.236.12.15.188.355.188.568v2.392a.919.919 0 01-.188.568.585.585 0 01-.454.236zm15.128 0h-2.972c-.137 0-.267-.085-.363-.236a1.077 1.077 0 01-.151-.568v-2.392c0-.213.054-.417.15-.568.097-.15.227-.236.364-.236h2.972c.137 0 .267.085.363.236.097.15.15.355.151.568v2.392c0 .213-.054.417-.15.568-.097.151-.227.236-.364.236zm-7 9h-2.972c-.137 0-.267-.085-.363-.236a1.077 1.077 0 01-.151-.568v-2.392c0-.213.054-.417.15-.568.097-.151.227-.236.364-.236h2.973c.136 0 .266.085.362.236.097.15.15.355.151.568v2.392c0 .213-.054.417-.15.568-.097.15-.227.236-.364.236zm14.872 0h-3.716a.585.585 0 01-.454-.236.919.919 0 01-.188-.568v-2.392c0-.213.068-.417.188-.568a.585.585 0 01.454-.236h3.716c.17 0 .333.085.454.236.12.15.188.355.188.568v2.392a.919.919 0 01-.188.568.585.585 0 01-.454.236zm-7.872 0h-2.972c-.137 0-.267-.085-.363-.236a1.077 1.077 0 01-.151-.568v-2.392c0-.213.054-.417.15-.568.097-.151.227-.236.364-.236h2.972c.137 0 .267.085.363.236.097.15.15.355.151.568v2.392c0 .213-.054.417-.15.568-.097.15-.227.236-.364.236z" fill="#CCC"/><path d="M36.378 43h-8.756a.568.568 0 01-.44-.228.884.884 0 01-.182-.548v-4.448c0-.206.066-.403.182-.548a.568.568 0 01.44-.228h8.756c.165 0 .323.082.44.228a.884.884 0 01.182.548v4.448a.884.884 0 01-.182.548.568.568 0 01-.44.228z" fill="#6C63FF"/></svg>