<svg xmlns="http://www.w3.org/2000/svg" fill="none" viewBox="0 0 100 100" height="100" width="100"><path fill="#FFB8B8" d="M16.246 48.156a2.65 2.65 0 100-5.301 2.65 2.65 0 000 5.301zM7.29 77.269l.67 1.14 4.718-2.046-.99-1.683-4.399 2.589z"/><path fill="#2F2E41" d="M7.49 76.759l1.322 2.245a1.66 1.66 0 01-.589 2.274l-.046.027-2.164-3.676 1.477-.87z"/><path fill="#FFB8B8" d="M15.066 81.376h1.323l.63-5.103h-1.954v5.103z"/><path fill="#2F2E41" d="M14.728 80.944h2.606a1.662 1.662 0 011.66 1.66v.055h-4.266v-1.715zm-4.982-2.659a.486.486 0 01-.39-.198l-1.277-1.733a.484.484 0 01.122-.692l5.678-3.793-3.426-9.008 7.326.605.247 7.741a3.89 3.89 0 01-1.948 3.5l-6.09 3.512a.485.485 0 01-.242.066z"/><path fill="#2F2E41" d="M15.105 80.34a.485.485 0 01-.484-.468l-.269-7.541 3.325-.176-.264 7.596a.484.484 0 01-.454.468l-1.82.12a.524.524 0 01-.034.001z"/><path fill="#2F45C5" d="M18.627 64.963c-.846 0-3.8-.951-4.826-1.29-.154.122-.997.753-1.98.638-.608-.072-1.142-.415-1.59-1.022-.987-1.34.233-7.085 1.43-11.669a3.698 3.698 0 014.373-2.685 3.73 3.73 0 012.816 2.739c.225.917.031 1.996-.11 2.784-.067.37-.12.662-.102.806.07.556.456 9.27.207 9.642-.026.04-.102.057-.218.057z"/><path fill="#FFB8B8" d="M15.532 64.979a1.16 1.16 0 00.102-1.775l.052-10.56-2.486.415.73 10.249a1.166 1.166 0 001.602 1.67z"/><path fill="#2F45C5" d="M16.108 59.426h-2.68a.487.487 0 01-.485-.481l-.066-7.263a1.899 1.899 0 113.8.005l-.084 7.259a.487.487 0 01-.485.48z"/><path fill="#2F2E41" d="M15.57 48.145c-1.213.002-2.358-.957-2.568-2.152-.075-.47-.041-.95.1-1.405a3.772 3.772 0 015.172-2.369c.325.147.645.358.793.682.149.324.056.777-.27.922-.212.096-.478.049-.667.185-.27.197-.201.615-.08.926.12.312.258.69.055.956-.189.248-.567.24-.864.147-.297-.094-.59-.25-.9-.218-.453.046-.778.496-.838.947-.06.45.081.9.221 1.333l-.153.046z"/><path fill="#CCC" d="M27.951 82.76H.108a.108.108 0 010-.215H27.95a.108.108 0 01.076.184.108.108 0 01-.076.031z"/><path fill="#F2F2F2" d="M98.22 64.896H29.06a1.782 1.782 0 01-1.78-1.78V20.47a1.306 1.306 0 011.304-1.305h70.089A1.329 1.329 0 01100 20.493v42.622a1.782 1.782 0 01-1.78 1.78z"/><path fill="#fff" d="M95.983 62.648H31.53c-.945 0-1.713-.72-1.713-1.605V23.908c0-.656.57-1.19 1.27-1.19h65.32c.712 0 1.29.542 1.29 1.21v37.115c0 .885-.768 1.605-1.713 1.605z"/><path fill="#3F3D56" d="M99.975 20.693h-72.72v-.907A1.789 1.789 0 0129.042 18h69.146a1.788 1.788 0 011.787 1.786v.907z"/><path fill="#fff" d="M30.503 19.811a.462.462 0 100-.924.462.462 0 000 .924zm1.755 0a.462.462 0 100-.924.462.462 0 000 .924zm1.754 0a.462.462 0 100-.924.462.462 0 000 .924z"/><path fill="#CCC" d="M62.227 30.837H49.621a.709.709 0 110-1.417h12.606a.709.709 0 010 1.417zm15.664 0H65.285a.709.709 0 110-1.417h12.606a.709.709 0 010 1.417zm0 2.686h-21.93a.709.709 0 010-1.418h21.93a.709.709 0 110 1.418zm-15.664-5.408H49.621a.709.709 0 010-1.417h12.606a.71.71 0 01.502 1.21.709.709 0 01-.502.207zm6.937.037h-3.58a.709.709 0 110-1.417h3.58a.709.709 0 010 1.417zm-15.962 5.371h-3.58a.708.708 0 010-1.418h3.58a.708.708 0 110 1.418zm9.025 22.46H49.621a.709.709 0 110-1.418h12.606a.709.709 0 110 1.418zm15.664 0H65.285a.709.709 0 110-1.418h12.606a.709.709 0 110 1.418zm0 2.685h-21.93a.708.708 0 110-1.417h21.93a.708.708 0 110 1.417zM62.227 53.26H49.621a.709.709 0 010-1.417h12.606a.709.709 0 110 1.417zm6.937.037h-3.58a.709.709 0 010-1.417h3.58a.709.709 0 110 1.417zm-15.962 5.371h-3.58a.709.709 0 110-1.417h3.58a.708.708 0 110 1.417z"/><path fill="#2F45C5" d="M58.935 48.375c-.268 0-.524-.105-.715-.292l-4.738-4.68a.987.987 0 010-1.405l4.72-4.66a1.047 1.047 0 011.471.004 1.046 1.046 0 010 1.477l-3.507 3.507a.584.584 0 000 .825l3.489 3.488a1.017 1.017 0 01-.72 1.736zm7.551 0a1.016 1.016 0 01-.72-1.736l3.488-3.488a.584.584 0 000-.825l-3.507-3.507a1.043 1.043 0 010-1.477 1.047 1.047 0 011.472-.005l4.72 4.66a.988.988 0 010 1.406l-4.739 4.68a1.01 1.01 0 01-.715.292z"/></svg>