<svg viewBox="0 0 12 13" width="1em" height="1em" fill="currentColor" class="x1lliihq x1k90msu x2h7rmj x1qfuztq x1qq9wsj x1kpxq89 xsmyaan"><path d="M8.853 5.354l-3.5 3.5a.499.499 0 01-.706 0l-1.5-1.5a.5.5 0 11.706-.708L5 7.793l3.147-3.147a.5.5 0 11.706.708m3.078 2.295L11.342 6.5l.588-1.15a.633.633 0 00-.219-.82l-1.085-.7-.065-1.287a.627.627 0 00-.6-.603l-1.29-.066L7.968.787a.636.636 0 00-.82-.217L6 1.158 4.85.57a.631.631 0 00-.82.22l-.701 1.085-1.289.065a.626.626 0 00-.6.6l-.066 1.29-1.088.702a.634.634 0 00-.216.82l.588 1.149-.588 1.15a.632.632 0 00.219.819l1.085.701.065 1.286c.014.33.274.59.6.604l1.29.065.703 1.088c.177.27.53.362.82.216L6 11.842l1.15.589a.629.629 0 00.82-.22l.701-1.085 1.286-.064a.627.627 0 00.604-.601l.065-1.29 1.088-.703a.633.633 0 00.216-.819" fill-rule="evenodd"/></svg>