<svg width="48" height="48" viewBox="0 0 48 48" fill="none" xmlns="http://www.w3.org/2000/svg"><path d="M12.366 29.838l2.604-2.1a2.521 2.521 0 013.066-.084l2.478 1.806a.833.833 0 001.092-.084l4.074-3.696 3.738-4.116a.833.833 0 00.084-1.092l-1.806-2.478a2.521 2.521 0 01.084-3.066l2.1-2.604c.924-1.176 2.688-1.26 3.738-.21l2.268 2.268c.504.504.756 1.218.756 1.89-.294 5.334-2.73 10.416-6.3 13.986-3.57 3.57-8.61 6.006-13.986 6.3-.714.042-1.386-.252-1.89-.756l-2.268-2.268c-1.134-1.008-1.008-2.772.168-3.696z" fill="#3CC2CC"/></svg>