<svg width="264" height="264" viewBox="0 0 264 264" fill="none" xmlns="http://www.w3.org/2000/svg"><path opacity=".12" d="M132 264c72.902 0 132-59.098 132-132S204.902 0 132 0 0 59.098 0 132s59.098 132 132 132z" fill="#AFB1B7"/><path d="M79.206 43.782a101.543 101.543 0 0152.925-14.785" stroke="#6CD5B1" stroke-width="30" stroke-miterlimit="10"/><path d="M104.898 136v-3.023l8.332-9.036c.915-1.019 1.629-1.892 2.145-2.619.516-.738.879-1.4 1.09-1.986a4.912 4.912 0 00.334-1.758c0-1.195-.334-2.162-1.002-2.9-.656-.739-1.57-1.108-2.742-1.108-1.383 0-2.444.428-3.182 1.284-.727.843-1.09 1.968-1.09 3.375h-4.377c0-1.512.346-2.889 1.037-4.131.692-1.243 1.694-2.227 3.006-2.953 1.313-.727 2.865-1.09 4.658-1.09 1.7 0 3.153.287 4.36.861 1.207.574 2.127 1.395 2.76 2.461.632 1.055.949 2.303.949 3.744 0 1.5-.446 3-1.336 4.5-.891 1.488-2.192 3.129-3.902 4.922l-5.555 5.941h11.777V136h-17.262zm32.748-13.148c1.465.503 2.549 1.283 3.252 2.337.704 1.055 1.055 2.268 1.055 3.639 0 1.559-.375 2.906-1.125 4.043s-1.781 2.004-3.094 2.602c-1.312.586-2.795.879-4.447.879-1.512 0-2.912-.276-4.201-.827-1.277-.562-2.303-1.388-3.076-2.478-.762-1.09-1.143-2.402-1.143-3.938h4.377c0 .727.17 1.377.51 1.952a3.5 3.5 0 001.441 1.318c.621.305 1.342.457 2.162.457 1.325 0 2.356-.352 3.094-1.055.75-.703 1.125-1.693 1.125-2.97 0-1.407-.41-2.45-1.23-3.129-.809-.68-1.951-1.02-3.428-1.02h-2.549v-3.445h2.549c1.394 0 2.455-.352 3.182-1.055.726-.703 1.089-1.646 1.089-2.83 0-1.195-.322-2.121-.966-2.777-.645-.657-1.6-.985-2.866-.985-.738 0-1.4.147-1.986.44a3.324 3.324 0 00-1.389 1.213c-.328.527-.492 1.142-.492 1.845h-4.377c0-1.336.352-2.537 1.055-3.603.703-1.067 1.676-1.899 2.918-2.496 1.254-.61 2.654-.914 4.201-.914 1.664 0 3.117.275 4.359.826 1.243.551 2.204 1.371 2.883 2.461.692 1.09 1.037 2.42 1.037 3.99 0 1.078-.339 2.127-1.019 3.147-.68 1.019-1.647 1.81-2.901 2.373zm16.348 2.179l-2.883 3.059V136h-4.552v-25.594h4.552v11.953l2.461-3.058 7.348-8.895h5.537L157 121.727 166.949 136h-5.414l-7.541-10.969zM100.162 160v-9.242h1.231V160h-1.231zm6.474-6.995c1.469 0 2.203.831 2.203 2.495v4.5h-1.187v-4.513c0-.525-.114-.906-.343-1.143-.224-.237-.565-.355-1.022-.355-.364 0-.692.099-.984.298a2.116 2.116 0 00-.685.8V160h-1.187v-6.868h1.123l.038.844c.25-.309.548-.548.895-.717a2.59 2.59 0 011.149-.254zM113.53 160a3.024 3.024 0 01-.908.127c-.478 0-.863-.144-1.155-.432-.288-.287-.432-.755-.432-1.403v-4.265h-1.25v-.895h1.25v-1.67h1.187v1.67h1.283v.895h-1.283v4.272c0 .326.068.546.203.66.136.11.32.165.553.165.089 0 .186-.006.292-.019.106-.017.19-.034.254-.051l.006.946zm6.874-3.11h-4.646c.013.427.102.814.267 1.161.165.347.397.622.698.825.305.199.66.299 1.066.299.398 0 .741-.081 1.029-.241a2.5 2.5 0 00.78-.692l.718.558c-.254.39-.593.709-1.016.959-.423.245-.948.368-1.574.368-.627 0-1.179-.142-1.657-.425a2.909 2.909 0 01-1.111-1.181c-.258-.504-.387-1.075-.387-1.714v-.273c0-.715.14-1.339.419-1.872.279-.538.647-.948 1.104-1.232a2.784 2.784 0 011.479-.425c.639 0 1.168.144 1.587.432.424.283.737.677.94 1.18.203.504.304 1.086.304 1.746v.527zm-1.187-1.041c-.033-.538-.179-.986-.438-1.346-.253-.364-.655-.546-1.206-.546-.474 0-.869.174-1.187.521-.313.342-.51.829-.59 1.46h3.421v-.089zm5.364-2.844c.076 0 .172.01.286.032a.907.907 0 01.235.057v1.085a3.147 3.147 0 00-.578-.051c-.389 0-.715.087-.977.261a1.589 1.589 0 00-.584.73V160h-1.187v-6.868h1.155l.025.781c.178-.288.402-.51.673-.667.271-.161.588-.241.952-.241zm6.634 5.497c0 .241.021.491.063.749.042.254.102.47.178.647V160h-1.238c-.072-.165-.127-.404-.165-.717a2.749 2.749 0 01-.857.615c-.33.153-.694.229-1.092.229-.457 0-.863-.089-1.219-.267a2.06 2.06 0 01-.818-.736 1.917 1.917 0 01-.286-1.028c0-.487.125-.9.374-1.238.254-.339.612-.593 1.073-.762.466-.173 1.014-.26 1.644-.26h1.156v-.546c0-.419-.125-.747-.375-.984-.245-.241-.601-.362-1.066-.362a1.82 1.82 0 00-.762.153c-.224.097-.4.23-.527.4a.88.88 0 00-.184.539h-1.187c0-.334.114-.658.343-.971.228-.313.55-.567.965-.762.414-.199.888-.298 1.421-.298.508 0 .953.087 1.333.26.386.169.686.428.902.775.216.342.324.763.324 1.263v3.199zm-2.939.609c.27 0 .522-.046.755-.139.237-.098.44-.225.609-.381.17-.157.299-.326.388-.508v-1.422h-.965c-.677 0-1.196.108-1.555.324a1.03 1.03 0 00-.54.946c0 .224.051.425.152.603.102.177.25.319.445.425.194.102.431.152.711.152zm10.283-1.282a2.115 2.115 0 01-.413 1.136 2.758 2.758 0 01-1.003.845c-.41.211-.852.317-1.326.317-.665 0-1.228-.152-1.689-.457a2.856 2.856 0 01-1.028-1.238 4.255 4.255 0 01-.343-1.733v-.266c0-.635.114-1.211.343-1.727.228-.52.571-.933 1.028-1.238.461-.309 1.024-.463 1.689-.463.524 0 .99.108 1.396.324.411.215.732.514.965.895.233.376.36.799.381 1.269h-1.124a1.725 1.725 0 00-.241-.774 1.53 1.53 0 00-.565-.559 1.613 1.613 0 00-.812-.203c-.453 0-.819.119-1.099.355a1.904 1.904 0 00-.596.908 3.928 3.928 0 00-.178 1.213v.266c0 .703.144 1.291.432 1.765.292.474.772.711 1.441.711.275 0 .531-.057.768-.172.241-.118.438-.279.59-.482.152-.207.239-.438.26-.692h1.124zm4.234 2.171a3.028 3.028 0 01-.908.127c-.478 0-.863-.144-1.155-.432-.288-.287-.432-.755-.432-1.403v-4.265h-1.25v-.895h1.25v-1.67h1.187v1.67h1.282v.895h-1.282v4.272c0 .326.068.546.203.66.136.11.32.165.552.165.089 0 .187-.006.292-.019.106-.017.191-.034.254-.051l.007.946zm2.044-9.369c.22 0 .391.063.514.19.127.127.19.288.19.483 0 .19-.063.349-.19.476-.123.123-.294.184-.514.184-.22 0-.392-.061-.515-.184a.673.673 0 01-.177-.476c0-.195.059-.356.177-.483.123-.127.295-.19.515-.19zm-.603 9.369v-6.868h1.187V160h-1.187zm2.754-3.504c0-.664.127-1.261.381-1.79a2.96 2.96 0 011.086-1.244c.474-.305 1.024-.457 1.65-.457.635 0 1.189.152 1.663.457.474.3.838.715 1.092 1.244.254.529.381 1.126.381 1.79v.146c0 .664-.127 1.261-.381 1.79-.254.525-.618.94-1.092 1.244-.469.301-1.02.451-1.65.451-.631 0-1.183-.15-1.657-.451a3.05 3.05 0 01-1.092-1.244c-.254-.529-.381-1.126-.381-1.79v-.146zm1.187.146c0 .466.072.891.216 1.276.148.385.368.692.66.92.292.225.648.337 1.067.337.415 0 .768-.112 1.06-.337.292-.228.51-.535.654-.92.148-.385.222-.81.222-1.276v-.146c0-.465-.074-.891-.222-1.276a2.087 2.087 0 00-.66-.92c-.292-.229-.648-.343-1.067-.343-.415 0-.768.114-1.06.343a2.108 2.108 0 00-.654.92 3.62 3.62 0 00-.216 1.276v.146zm9.75-3.637c1.469 0 2.203.831 2.203 2.495v4.5h-1.187v-4.513c0-.525-.114-.906-.343-1.143-.224-.237-.565-.355-1.022-.355-.364 0-.692.099-.984.298a2.116 2.116 0 00-.685.8V160h-1.187v-6.868h1.123l.039.844c.249-.309.548-.548.895-.717.347-.169.73-.254 1.148-.254zm6.405 3.98c-.816-.169-1.434-.406-1.853-.711-.415-.305-.622-.726-.622-1.263 0-.364.105-.699.317-1.003.212-.305.51-.548.895-.73a3.113 3.113 0 011.333-.273c.533 0 .999.095 1.397.286.397.19.7.448.907.774.212.322.318.681.318 1.079h-1.187c0-.195-.057-.383-.172-.565a1.254 1.254 0 00-.501-.444 1.555 1.555 0 00-.762-.178c-.309 0-.565.049-.768.146a1.005 1.005 0 00-.451.375.93.93 0 00-.139.495c0 .182.042.334.127.457.089.118.245.226.469.323.229.098.557.193.984.286.576.131 1.043.286 1.403.463.36.178.626.396.8.654.178.258.266.572.266.94 0 .397-.11.751-.33 1.06-.22.304-.531.544-.933.717-.402.169-.867.254-1.396.254-.584 0-1.09-.104-1.517-.311-.423-.212-.745-.489-.965-.832a1.994 1.994 0 01-.33-1.098h1.187c.017.305.106.555.266.749.161.191.36.328.597.413a2.3 2.3 0 00.762.127c.309 0 .573-.043.793-.127a1.16 1.16 0 00.508-.356.834.834 0 00.171-.514.98.98 0 00-.12-.495c-.081-.14-.235-.269-.464-.387-.228-.119-.558-.222-.99-.311z" fill="#4D4F5C"/><path d="M132.02 28.824a102.043 102.043 0 0194 62.308" stroke="#FF8373" stroke-width="30" stroke-miterlimit="10"/><path d="M36.46 166.505a101.798 101.798 0 01-6.343-35.49 101.958 101.958 0 0149.092-87.233" stroke="#6CD5B1" stroke-width="30" stroke-miterlimit="10"/><path d="M220.562 181.797a101.976 101.976 0 01-88.5 51.234 102.064 102.064 0 01-95.675-66.527" stroke="#A3A0FB" stroke-width="30" stroke-miterlimit="10"/><path d="M226.063 91.305a101.7 101.7 0 018.017 39.71 101.545 101.545 0 01-13.518 50.783" stroke="#F8CF61" stroke-width="30" stroke-miterlimit="10"/></svg>