<svg width="15" height="11" viewBox="0 0 15 11" fill="none" xmlns="http://www.w3.org/2000/svg">
<path d="M14.6634 1.73462V5.15962C14.664 5.3975 14.5938 5.6302 14.4619 5.82814C14.3299 6.02609 14.1421 6.18035 13.9223 6.27133C13.7025 6.36232 13.4607 6.38592 13.2274 6.33914C12.9942 6.29237 12.7801 6.17732 12.6124 6.00862L11.3124 4.70862L7.82237 8.19862C7.78091 8.23905 7.72529 8.26169 7.66738 8.26169C7.60946 8.26169 7.55384 8.23905 7.51238 8.19862L5.34738 6.03462L1.24738 10.3916C1.20737 10.4336 1.15254 10.4582 1.09461 10.4602C1.03669 10.4623 0.980254 10.4416 0.937373 10.4026L0.405375 9.90262C0.363435 9.86261 0.338804 9.80778 0.336749 9.74986C0.334693 9.69193 0.355375 9.6355 0.394373 9.59262L5.16638 4.52461C5.18663 4.50353 5.21093 4.48676 5.23782 4.47531C5.26471 4.46385 5.29364 4.45794 5.32287 4.45794C5.3521 4.45794 5.38104 4.46385 5.40793 4.47531C5.43482 4.48676 5.45912 4.50353 5.47937 4.52461L7.66538 6.71062L10.4854 3.89062L9.18537 2.59062C9.01667 2.4229 8.90162 2.20882 8.85485 1.97558C8.80807 1.74234 8.83167 1.50045 8.92266 1.28065C9.01364 1.06085 9.1679 0.873049 9.36585 0.741106C9.56379 0.609164 9.79649 0.539036 10.0344 0.539621H13.4594C13.7775 0.538558 14.083 0.663825 14.3087 0.887903C14.5345 1.11198 14.6621 1.41653 14.6634 1.73462ZM13.6144 1.73462C13.6145 1.71502 13.6107 1.69558 13.6033 1.67744C13.5959 1.6593 13.5849 1.64282 13.571 1.62896C13.5572 1.6151 13.5407 1.60413 13.5226 1.59669C13.5044 1.58925 13.485 1.58549 13.4654 1.58562H10.0404C10.0107 1.58536 9.98166 1.59396 9.95692 1.61032C9.93218 1.62667 9.91288 1.65003 9.9015 1.67742C9.89012 1.7048 9.88716 1.73497 9.89302 1.76404C9.89887 1.79311 9.91327 1.81977 9.93437 1.84062L13.3594 5.26562C13.3802 5.28672 13.4069 5.30112 13.436 5.30698C13.465 5.31284 13.4952 5.30988 13.5226 5.29849C13.55 5.28711 13.5733 5.26782 13.5897 5.24307C13.606 5.21833 13.6146 5.18927 13.6144 5.15962V1.73462Z" fill="#00BC32"/>
</svg>
