<svg width="15" height="15" viewBox="0 0 15 15" fill="none" xmlns="http://www.w3.org/2000/svg">
<path d="M7.5 0.5C6.11553 0.5 4.76216 0.910542 3.61101 1.67971C2.45987 2.44888 1.56266 3.54213 1.03285 4.82122C0.503033 6.1003 0.36441 7.50777 0.634506 8.86563C0.904603 10.2235 1.57129 11.4708 2.55026 12.4497C3.52922 13.4287 4.7765 14.0954 6.13437 14.3655C7.49224 14.6356 8.8997 14.497 10.1788 13.9672C11.4579 13.4373 12.5511 12.5401 13.3203 11.389C14.0895 10.2378 14.5 8.88447 14.5 7.5C14.5 5.64348 13.7625 3.86301 12.4497 2.55025C11.137 1.2375 9.35652 0.5 7.5 0.5ZM13.6 7.5C13.6 8.70647 13.2422 9.88584 12.572 10.889C11.9017 11.8921 10.949 12.674 9.83437 13.1357C8.71974 13.5974 7.49324 13.7182 6.30995 13.4828C5.12667 13.2474 4.03975 12.6665 3.18665 11.8134C2.33355 10.9603 1.75258 9.87333 1.51721 8.69005C1.28184 7.50677 1.40264 6.28026 1.86434 5.16563C2.32603 4.051 3.10788 3.09831 4.11102 2.42804C5.11416 1.75776 6.29354 1.4 7.5 1.4C8.30107 1.4 9.09429 1.55778 9.83437 1.86434C10.5745 2.17089 11.2469 2.62021 11.8134 3.18665C12.3798 3.75309 12.8291 4.42555 13.1357 5.16563C13.4422 5.90572 13.6 6.69894 13.6 7.5ZM9.4 9.992L7.1 8.327C7.0572 8.29528 7.02241 8.25398 6.99845 8.2064C6.97448 8.15881 6.962 8.10628 6.962 8.053V3.553C6.96227 3.46317 6.99807 3.3771 7.06159 3.31358C7.1251 3.25006 7.21118 3.21426 7.301 3.214H7.701C7.79083 3.21426 7.8769 3.25006 7.94042 3.31358C8.00394 3.3771 8.03974 3.46317 8.04 3.553V7.682L10.03 9.13C10.0659 9.15632 10.0963 9.18946 10.1194 9.22753C10.1426 9.2656 10.1579 9.30785 10.1647 9.35187C10.1715 9.39589 10.1695 9.44082 10.1589 9.48408C10.1484 9.52734 10.1293 9.56809 10.103 9.604L9.872 9.923C9.81852 9.99512 9.73875 10.0432 9.65 10.0569C9.56126 10.0706 9.47071 10.0487 9.398 9.996L9.4 9.992Z" fill="#D8001D"/>
</svg>
