<svg width="16" height="16" viewBox="0 0 16 16" fill="none" xmlns="http://www.w3.org/2000/svg">
<path d="M10.7827 4.86984C10.5763 4.86984 10.3745 4.93104 10.2029 5.04571C10.0313 5.16037 9.89753 5.32336 9.81854 5.51404C9.73956 5.70473 9.7189 5.91455 9.75916 6.11698C9.79943 6.31941 9.89882 6.50535 10.0448 6.6513C10.1907 6.79724 10.3766 6.89663 10.5791 6.9369C10.7815 6.97716 10.9913 6.9565 11.182 6.87751C11.3727 6.79853 11.5357 6.66477 11.6503 6.49316C11.765 6.32155 11.8262 6.11979 11.8262 5.91339C11.8259 5.63673 11.7158 5.37151 11.5202 5.17588C11.3246 4.98025 11.0593 4.87019 10.7827 4.86984ZM10.7827 6.26095C10.7138 6.26095 10.6466 6.24054 10.5893 6.2023C10.5321 6.16406 10.4875 6.10971 10.4612 6.04612C10.4348 5.98253 10.4279 5.91256 10.4414 5.84506C10.4548 5.77755 10.4879 5.71554 10.5366 5.66687C10.5853 5.61821 10.6473 5.58506 10.7148 5.57164C10.7823 5.55821 10.8523 5.5651 10.9158 5.59144C10.9794 5.61778 11.0338 5.66238 11.072 5.71961C11.1103 5.77684 11.1307 5.84412 11.1307 5.91295C11.1307 6.00524 11.094 6.09376 11.0287 6.15902C10.9635 6.22428 10.875 6.26095 10.7827 6.26095Z" fill="#53C485"/>
<path d="M5.21733 6.95872C5.42365 6.95872 5.62534 6.89756 5.79691 6.78298C5.96849 6.66839 6.10224 6.50551 6.18128 6.31493C6.26032 6.12435 6.28108 5.91461 6.24096 5.71223C6.20084 5.50985 6.10163 5.32391 5.95586 5.17789C5.8101 5.03188 5.62432 4.93235 5.42201 4.89188C5.21969 4.85142 5.00993 4.87183 4.81921 4.95054C4.62849 5.02925 4.46539 5.16273 4.35051 5.33411C4.23563 5.50548 4.17413 5.70707 4.17378 5.91339C4.17366 6.19036 4.28351 6.45604 4.47919 6.65206C4.67487 6.84807 4.94036 6.95837 5.21733 6.95872ZM5.21733 5.56761C5.28616 5.56761 5.35344 5.58802 5.41067 5.62626C5.4679 5.6645 5.5125 5.71885 5.53884 5.78244C5.56518 5.84603 5.57207 5.916 5.55864 5.9835C5.54522 6.05101 5.51207 6.11302 5.46341 6.16169C5.41474 6.21035 5.35273 6.2435 5.28522 6.25693C5.21772 6.27035 5.14775 6.26346 5.08416 6.23712C5.02057 6.21079 4.96622 6.16618 4.92798 6.10895C4.88974 6.05172 4.86933 5.98444 4.86933 5.91561C4.86904 5.86973 4.87782 5.82424 4.89518 5.78176C4.91254 5.73928 4.93812 5.70065 4.97047 5.6681C5.00281 5.63555 5.04128 5.60972 5.08364 5.59209C5.12601 5.57446 5.17144 5.56539 5.21733 5.56539V5.56761Z" fill="#53C485"/>
<path d="M8 6.10352e-05C6.41775 6.10352e-05 4.87103 0.469253 3.55544 1.3483C2.23985 2.22735 1.21447 3.47678 0.608967 4.93859C0.00346629 6.4004 -0.15496 8.00893 0.153721 9.56078C0.462403 11.1126 1.22433 12.5381 2.34315 13.6569C3.46197 14.7757 4.88743 15.5377 6.43928 15.8463C7.99113 16.155 9.59966 15.9966 11.0615 15.3911C12.5233 14.7856 13.7727 13.7602 14.6518 12.4446C15.5308 11.129 16 9.58231 16 8.00006C15.9976 5.87905 15.154 3.84559 13.6543 2.3458C12.1545 0.846024 10.121 0.00241379 8 6.10352e-05ZM8 15.3045C6.55532 15.3045 5.14308 14.8761 3.94187 14.0735C2.74066 13.2709 1.80443 12.1301 1.25158 10.7953C0.698721 9.46063 0.554068 7.99196 0.835912 6.57503C1.11776 5.15811 1.81344 3.85658 2.83498 2.83504C3.85653 1.81349 5.15805 1.11781 6.57498 0.835969C7.9919 0.554126 9.46058 0.698778 10.7953 1.25163C12.13 1.80449 13.2708 2.74072 14.0734 3.94193C14.876 5.14314 15.3044 6.55538 15.3044 8.00006C15.3023 9.93667 14.5321 11.7934 13.1627 13.1627C11.7933 14.5321 9.93661 15.3024 8 15.3045Z" fill="#53C485"/>
<path d="M11.4782 9.04361H4.52177C4.47606 9.04355 4.43078 9.05252 4.38853 9.06999C4.34628 9.08746 4.3079 9.11308 4.27557 9.14541C4.24325 9.17773 4.21761 9.21612 4.20015 9.25837C4.18268 9.30062 4.17372 9.3459 4.17378 9.39162C4.16832 9.89752 4.26326 10.3995 4.45309 10.8685C4.64291 11.3374 4.92387 11.7641 5.27969 12.1238C5.63551 12.4835 6.05912 12.769 6.52602 12.9639C6.99292 13.1587 7.49384 13.2591 7.99977 13.2591C8.50571 13.2591 9.00662 13.1587 9.47352 12.9639C9.94043 12.769 10.364 12.4835 10.7199 12.1238C11.0757 11.7641 11.3566 11.3374 11.5465 10.8685C11.7363 10.3995 11.8312 9.89752 11.8258 9.39162C11.8258 9.34594 11.8169 9.30069 11.7994 9.25847C11.782 9.21625 11.7564 9.17789 11.7241 9.14557C11.6919 9.11325 11.6535 9.0876 11.6113 9.07011C11.5691 9.05262 11.5239 9.04361 11.4782 9.04361ZM8 12.5218C7.23022 12.5209 6.4877 12.2368 5.91395 11.7236C5.34019 11.2104 4.97533 10.5041 4.88889 9.73917H11.1111C11.0247 10.5041 10.6598 11.2104 10.086 11.7236C9.51229 12.2368 8.76977 12.5209 8 12.5218Z" fill="#53C485"/>
</svg>
