<svg width="16" height="16" viewBox="0 0 16 16" fill="none" xmlns="http://www.w3.org/2000/svg">
<path d="M8 6.10352e-05C6.41775 6.10352e-05 4.87103 0.469253 3.55544 1.3483C2.23985 2.22735 1.21447 3.47678 0.608967 4.93859C0.00346623 6.4004 -0.15496 8.00893 0.153721 9.56078C0.462403 11.1126 1.22433 12.5381 2.34315 13.6569C3.46197 14.7757 4.88743 15.5377 6.43928 15.8463C7.99113 16.155 9.59966 15.9966 11.0615 15.3911C12.5233 14.7856 13.7727 13.7602 14.6518 12.4446C15.5308 11.129 16 9.58231 16 8.00006C15.9975 5.87908 15.1539 3.84568 13.6541 2.34593C12.1544 0.846168 10.121 0.00252299 8 6.10352e-05ZM8 15.3046C6.5553 15.3046 5.14304 14.8762 3.94182 14.0736C2.74059 13.2709 1.80435 12.1301 1.25149 10.7954C0.698625 9.46065 0.55397 7.99196 0.835818 6.57501C1.11766 5.15807 1.81335 3.85653 2.83491 2.83497C3.85647 1.81341 5.15802 1.11772 6.57496 0.835875C7.9919 0.554028 9.4606 0.698682 10.7953 1.25155C12.1301 1.80441 13.2709 2.74065 14.0735 3.94187C14.8761 5.1431 15.3045 6.55536 15.3045 8.00006C15.3024 9.93669 14.5322 11.7934 13.1628 13.1628C11.7934 14.5322 9.93664 15.3025 8 15.3046Z" fill="#FFA723"/>
<path d="M6.26091 6.60914C6.26091 6.40273 6.1997 6.20095 6.08502 6.02933C5.97035 5.8577 5.80735 5.72394 5.61665 5.64495C5.42596 5.56596 5.21612 5.54529 5.01367 5.58556C4.81123 5.62583 4.62527 5.72523 4.47932 5.87118C4.33336 6.01714 4.23397 6.20309 4.1937 6.40554C4.15343 6.60798 4.17409 6.81782 4.25308 7.00852C4.33207 7.19922 4.46584 7.36221 4.63746 7.47689C4.80909 7.59156 5.01087 7.65277 5.21728 7.65277C5.49396 7.65242 5.7592 7.54236 5.95485 7.34671C6.15049 7.15107 6.26055 6.88582 6.26091 6.60914ZM4.86955 6.60914C4.86955 6.54037 4.88994 6.47313 4.92815 6.41595C4.96636 6.35877 5.02067 6.3142 5.08421 6.28788C5.14774 6.26156 5.21766 6.25468 5.28511 6.26809C5.35257 6.28151 5.41453 6.31463 5.46316 6.36326C5.51179 6.41189 5.54491 6.47385 5.55832 6.5413C5.57174 6.60875 5.56485 6.67867 5.53854 6.74221C5.51222 6.80575 5.46765 6.86005 5.41046 6.89826C5.35328 6.93647 5.28605 6.95687 5.21728 6.95687C5.12512 6.95664 5.03681 6.91992 4.97165 6.85476C4.90649 6.7896 4.86978 6.70129 4.86955 6.60914Z" fill="#FFA723"/>
<path d="M10.7827 5.56551C10.5763 5.56551 10.3745 5.62672 10.2029 5.74139C10.0313 5.85607 9.89752 6.01906 9.81853 6.20976C9.73954 6.40046 9.71888 6.6103 9.75914 6.81274C9.79941 7.01518 9.89881 7.20114 10.0448 7.3471C10.1907 7.49305 10.3767 7.59245 10.5791 7.63272C10.7816 7.67299 10.9914 7.65232 11.1821 7.57333C11.3728 7.49434 11.5358 7.36057 11.6505 7.18895C11.7651 7.01732 11.8264 6.81555 11.8264 6.60914C11.826 6.33246 11.7159 6.06721 11.5203 5.87157C11.3247 5.67593 11.0594 5.56586 10.7827 5.56551ZM10.7827 6.95687C10.7139 6.95687 10.6467 6.93647 10.5895 6.89826C10.5323 6.86005 10.4878 6.80575 10.4615 6.74221C10.4351 6.67867 10.4283 6.60875 10.4417 6.5413C10.4551 6.47385 10.4882 6.41189 10.5368 6.36326C10.5855 6.31463 10.6474 6.28151 10.7149 6.26809C10.7823 6.25468 10.8523 6.26156 10.9158 6.28788C10.9793 6.3142 11.0336 6.35877 11.0718 6.41595C11.1101 6.47313 11.1305 6.54037 11.1305 6.60914C11.1303 6.70133 11.0937 6.7897 11.0285 6.85489C10.9633 6.92008 10.8749 6.95676 10.7827 6.95687Z" fill="#FFA723"/>
<path d="M8 9.73915C7.36093 9.73808 6.72879 9.87164 6.14477 10.1311C5.56076 10.3906 5.03795 10.7702 4.61041 11.2452C4.57996 11.2793 4.5565 11.319 4.54139 11.3621C4.52628 11.4051 4.51981 11.4508 4.52234 11.4964C4.52486 11.542 4.53635 11.5866 4.55614 11.6278C4.57592 11.669 4.60362 11.7058 4.63765 11.7363C4.67168 11.7667 4.71138 11.7902 4.75447 11.8053C4.79756 11.8204 4.84321 11.8269 4.88881 11.8243C4.93441 11.8218 4.97906 11.8103 5.02021 11.7905C5.06137 11.7708 5.09823 11.7431 5.12868 11.709C5.4915 11.3075 5.9345 10.9865 6.42908 10.7668C6.92366 10.5471 7.45882 10.4336 8 10.4336C8.54118 10.4336 9.07634 10.5471 9.57092 10.7668C10.0655 10.9865 10.5085 11.3075 10.8713 11.709C10.9018 11.7431 10.9386 11.7708 10.9798 11.7905C11.0209 11.8103 11.0656 11.8218 11.1112 11.8243C11.1568 11.8269 11.2024 11.8204 11.2455 11.8053C11.2886 11.7902 11.3283 11.7667 11.3623 11.7363C11.3964 11.7058 11.4241 11.669 11.4439 11.6278C11.4636 11.5866 11.4751 11.542 11.4777 11.4964C11.4802 11.4508 11.4737 11.4051 11.4586 11.3621C11.4435 11.319 11.42 11.2793 11.3896 11.2452C10.962 10.7703 10.4392 10.3907 9.85519 10.1312C9.27118 9.87172 8.63906 9.73813 8 9.73915Z" fill="#FFA723"/>
</svg>
