<svg width="16" height="16" viewBox="0 0 16 16" fill="none" xmlns="http://www.w3.org/2000/svg">
<path d="M8 6.10352e-05C6.41775 6.10352e-05 4.87103 0.469253 3.55544 1.3483C2.23985 2.22735 1.21447 3.47678 0.608967 4.93859C0.00346629 6.4004 -0.15496 8.00893 0.153721 9.56078C0.462403 11.1126 1.22433 12.5381 2.34315 13.6569C3.46197 14.7757 4.88743 15.5377 6.43928 15.8463C7.99113 16.155 9.59966 15.9966 11.0615 15.3911C12.5233 14.7856 13.7727 13.7602 14.6518 12.4446C15.5308 11.129 16 9.58231 16 8.00006C15.9975 5.87909 15.1539 3.84569 13.6541 2.34593C12.1544 0.846179 10.121 0.00253118 8 6.10352e-05ZM8 15.3045C6.55532 15.3045 5.14308 14.8761 3.94187 14.0735C2.74066 13.2709 1.80443 12.1301 1.25158 10.7953C0.698721 9.46063 0.554068 7.99196 0.835912 6.57503C1.11776 5.15811 1.81344 3.85658 2.83498 2.83504C3.85653 1.81349 5.15805 1.11781 6.57498 0.835969C7.9919 0.554126 9.46058 0.698778 10.7953 1.25163C12.13 1.80449 13.2708 2.74072 14.0734 3.94193C14.876 5.14314 15.3044 6.55538 15.3044 8.00006C15.3023 9.93667 14.5321 11.7934 13.1627 13.1627C11.7933 14.5321 9.93661 15.3024 8 15.3045Z" fill="#FF5061"/>
<path d="M6.26266 7.30451C6.26266 7.09811 6.20146 6.89634 6.08679 6.72473C5.97213 6.55312 5.80915 6.41937 5.61846 6.34038C5.42778 6.2614 5.21795 6.24074 5.01552 6.281C4.81309 6.32127 4.62715 6.42065 4.4812 6.5666C4.33526 6.71254 4.23587 6.89848 4.19561 7.10091C4.15534 7.30334 4.17601 7.51317 4.25499 7.70385C4.33397 7.89454 4.46773 8.05752 4.63934 8.17219C4.81095 8.28685 5.01271 8.34806 5.21911 8.34806C5.49577 8.3477 5.761 8.23765 5.95663 8.04202C6.15225 7.84639 6.26231 7.58117 6.26266 7.30451ZM4.87155 7.30451C4.87155 7.23568 4.89196 7.1684 4.9302 7.11117C4.96844 7.05394 5.02279 7.00933 5.08638 6.98299C5.14997 6.95665 5.21994 6.94976 5.28744 6.96319C5.35495 6.97662 5.41696 7.00976 5.46563 7.05843C5.51429 7.1071 5.54744 7.16911 5.56087 7.23661C5.57429 7.30412 5.5674 7.37409 5.54106 7.43768C5.51473 7.50127 5.47012 7.55561 5.41289 7.59385C5.35566 7.63209 5.28838 7.6525 5.21955 7.6525C5.17368 7.65274 5.12822 7.64391 5.08577 7.62653C5.04331 7.60916 5.00471 7.58356 4.97217 7.55123C4.93963 7.5189 4.9138 7.48046 4.89615 7.43812C4.8785 7.39578 4.86939 7.35038 4.86933 7.30451H4.87155Z" fill="#FF5061"/>
<path d="M10.7827 6.26095C10.5763 6.26095 10.3745 6.32215 10.2029 6.43682C10.0313 6.55148 9.89753 6.71447 9.81854 6.90515C9.73956 7.09584 9.7189 7.30566 9.75916 7.50809C9.79943 7.71052 9.89882 7.89646 10.0448 8.04241C10.1907 8.18835 10.3766 8.28774 10.5791 8.328C10.7815 8.36827 10.9913 8.34761 11.182 8.26862C11.3727 8.18964 11.5357 8.05588 11.6503 7.88427C11.765 7.71266 11.8262 7.5109 11.8262 7.30451C11.8259 7.02785 11.7158 6.76261 11.5202 6.56698C11.3246 6.37136 11.0593 6.2613 10.7827 6.26095ZM10.7827 7.65206C10.7138 7.65206 10.6466 7.63165 10.5893 7.59341C10.5321 7.55517 10.4875 7.50082 10.4612 7.43723C10.4348 7.37364 10.4279 7.30367 10.4414 7.23617C10.4548 7.16866 10.4879 7.10665 10.5366 7.05799C10.5853 7.00932 10.6473 6.97617 10.7148 6.96274C10.7823 6.94932 10.8523 6.95621 10.9158 6.98255C10.9794 7.00889 11.0338 7.05349 11.072 7.11072C11.1103 7.16795 11.1307 7.23523 11.1307 7.30406C11.1307 7.39635 11.094 7.48487 11.0287 7.55013C10.9635 7.61539 10.875 7.65206 10.7827 7.65206Z" fill="#FF5061"/>
<path d="M9.39155 4.86939C9.44538 4.86937 9.49847 4.8569 9.54667 4.83295L10.9378 4.13739C10.9801 4.11785 11.018 4.09001 11.0494 4.05552C11.0807 4.02103 11.1048 3.98059 11.1203 3.93661C11.1357 3.89263 11.1421 3.84599 11.1392 3.79948C11.1362 3.75296 11.124 3.70751 11.1031 3.66583C11.0823 3.62414 11.0533 3.58706 11.0178 3.5568C10.9824 3.52654 10.9412 3.5037 10.8968 3.48965C10.8523 3.4756 10.8055 3.47062 10.7591 3.475C10.7127 3.47938 10.6677 3.49305 10.6267 3.51517L9.23555 4.21073C9.16535 4.24569 9.10903 4.30337 9.07576 4.3744C9.04249 4.44543 9.03421 4.52562 9.05229 4.60194C9.07036 4.67826 9.11372 4.74622 9.17532 4.79478C9.23692 4.84334 9.31312 4.86963 9.39155 4.86939Z" fill="#FF5061"/>
<path d="M5.06222 4.13739L6.45333 4.83295C6.53543 4.87086 6.62906 4.87533 6.71439 4.84541C6.79973 4.81549 6.87006 4.75353 6.9105 4.67264C6.95094 4.59176 6.95831 4.49832 6.93105 4.4121C6.90378 4.32588 6.84403 4.25366 6.76444 4.21073L5.37333 3.51517C5.29124 3.47726 5.19761 3.47279 5.11227 3.50271C5.02694 3.53263 4.95661 3.5946 4.91616 3.67548C4.87572 3.75636 4.86835 3.84981 4.89562 3.93603C4.92288 4.02225 4.98263 4.09447 5.06222 4.13739Z" fill="#FF5061"/>
<path d="M8 9.73917C7.36082 9.73823 6.72862 9.87195 6.14457 10.1316C5.56051 10.3913 5.03771 10.7711 4.61022 11.2463C4.5779 11.28 4.55269 11.3199 4.5361 11.3635C4.51951 11.4072 4.51188 11.4537 4.51365 11.5004C4.51543 11.547 4.52658 11.5929 4.54644 11.6351C4.5663 11.6774 4.59447 11.7153 4.62926 11.7464C4.66406 11.7776 4.70476 11.8014 4.74896 11.8165C4.79316 11.8316 4.83994 11.8376 4.88652 11.8342C4.9331 11.8309 4.97852 11.8181 5.02009 11.7969C5.06165 11.7756 5.0985 11.7461 5.12844 11.7103C5.49126 11.3087 5.93426 10.9877 6.42885 10.7681C6.92343 10.5484 7.45859 10.4348 7.99978 10.4348C8.54096 10.4348 9.07612 10.5484 9.57071 10.7681C10.0653 10.9877 10.5083 11.3087 10.8711 11.7103C10.9011 11.7461 10.9379 11.7756 10.9795 11.7969C11.021 11.8181 11.0665 11.8309 11.113 11.8342C11.1596 11.8376 11.2064 11.8316 11.2506 11.8165C11.2948 11.8014 11.3355 11.7776 11.3703 11.7464C11.4051 11.7153 11.4332 11.6774 11.4531 11.6351C11.473 11.5929 11.4841 11.547 11.4859 11.5004C11.4877 11.4537 11.48 11.4072 11.4635 11.3635C11.4469 11.3199 11.4217 11.28 11.3893 11.2463C10.9619 10.7712 10.4391 10.3914 9.85517 10.1318C9.27121 9.87208 8.6391 9.73832 8 9.73917Z" fill="#FF5061"/>
</svg>
