<svg width="11" height="15" viewBox="0 0 11 15" fill="none" xmlns="http://www.w3.org/2000/svg">
<path d="M10.313 1.375H10.422C10.509 1.375 10.5924 1.34044 10.6539 1.27893C10.7154 1.21742 10.75 1.13399 10.75 1.047V0.828C10.75 0.741009 10.7154 0.657581 10.6539 0.596069C10.5924 0.534557 10.509 0.5 10.422 0.5H0.578C0.491009 0.5 0.407581 0.534557 0.346069 0.596069C0.284557 0.657581 0.25 0.741009 0.25 0.828L0.25 1.047C0.25 1.13399 0.284557 1.21742 0.346069 1.27893C0.407581 1.34044 0.491009 1.375 0.578 1.375H0.688C0.688 3.886 1.894 6.67 4.233 7.5C1.886 8.332 0.688 11.122 0.688 13.625H0.578C0.491009 13.625 0.407581 13.6596 0.346069 13.7211C0.284557 13.7826 0.25 13.866 0.25 13.953L0.25 14.172C0.25 14.2151 0.258484 14.2577 0.274968 14.2975C0.291451 14.3373 0.315611 14.3735 0.346069 14.4039C0.376527 14.4344 0.412685 14.4585 0.45248 14.475C0.492275 14.4915 0.534926 14.5 0.578 14.5H10.422C10.509 14.5 10.5924 14.4654 10.6539 14.4039C10.7154 14.3424 10.75 14.259 10.75 14.172V13.953C10.75 13.866 10.7154 13.7826 10.6539 13.7211C10.5924 13.6596 10.509 13.625 10.422 13.625H10.313C10.313 11.114 9.107 8.325 6.768 7.5C9.114 6.668 10.313 3.878 10.313 1.375ZM1.563 1.375H9.438C9.438 4.395 7.675 6.844 5.501 6.844C3.327 6.844 1.563 4.4 1.563 1.375ZM9.438 13.625H1.563C1.563 10.605 3.326 8.156 5.501 8.156C7.676 8.156 9.438 10.6 9.438 13.625Z" fill="#F28100"/>
</svg>
