<svg width="35" height="25" viewBox="0 0 35 25" fill="none" xmlns="http://www.w3.org/2000/svg">
<g clip-path="url(#clip0_2274_29657)">
<mask id="mask0_2274_29657" style="mask-type:luminance" maskUnits="userSpaceOnUse" x="0" y="0" width="35" height="25">
<path d="M35 0H0V25H35V0Z" fill="white"/>
</mask>
<g mask="url(#mask0_2274_29657)">
<path d="M18.846 19.907C18.7153 20.0433 18.5585 20.1517 18.3848 20.2258C18.2112 20.2999 18.0243 20.338 17.8355 20.338C17.6467 20.338 17.4599 20.2999 17.2862 20.2258C17.1126 20.1517 16.9557 20.0433 16.825 19.907C16.5591 19.622 16.4112 19.2468 16.4112 18.857C16.4112 18.4672 16.5591 18.092 16.825 17.807C16.9557 17.6707 17.1126 17.5623 17.2862 17.4882C17.4599 17.4142 17.6467 17.376 17.8355 17.376C18.0243 17.376 18.2112 17.4142 18.3848 17.4882C18.5585 17.5623 18.7153 17.6707 18.846 17.807C19.1119 18.092 19.2598 18.4672 19.2598 18.857C19.2598 19.2468 19.1119 19.622 18.846 19.907Z" fill="#5454FB"/>
<path d="M14.717 15.144H3.81703C4.02853 16.086 4.57517 16.9191 5.35518 17.4881C6.13519 18.0571 7.0954 18.3233 8.05703 18.237C9.72815 18.1997 11.3548 17.6916 12.75 16.771L14.243 19.411C12.3849 20.7168 10.1681 21.4154 7.89703 21.411C2.45703 21.411 0.00402949 17.705 0.00402949 13.811C-0.0406029 12.8021 0.124317 11.7949 0.488386 10.853C0.852455 9.91102 1.40777 9.05472 2.11932 8.33811C2.83086 7.62149 3.68318 7.06011 4.62253 6.68935C5.56187 6.3186 6.56786 6.14653 7.57703 6.18399C8.55015 6.12709 9.52428 6.2773 10.4351 6.62469C11.3458 6.97208 12.1726 7.50876 12.8606 8.19926C13.5487 8.88977 14.0824 9.71839 14.4265 10.6304C14.7707 11.5424 14.9174 12.5171 14.857 13.49C14.8524 14.0441 14.8056 14.597 14.717 15.144ZM3.81103 12.344H11.198C11.08 11.4769 10.643 10.685 9.97225 10.123C9.30153 9.56106 8.44535 9.26937 7.57103 9.30499C6.68618 9.28261 5.82231 9.57621 5.13435 10.1331C4.44639 10.6901 3.97936 11.4739 3.81703 12.344H3.81103Z" fill="#5454FB"/>
<path d="M22.6505 10.0875C23.0915 9.1565 23.7693 8.397 24.684 7.809C25.615 7.221 26.7093 6.927 27.967 6.927C29.192 6.927 30.2863 7.21283 31.25 7.7845C32.2137 8.33983 32.965 9.14017 33.504 10.1855C34.0593 11.2145 34.337 12.415 34.337 13.787C34.337 15.159 34.0593 16.3677 33.504 17.413C32.965 18.4583 32.2055 19.2668 31.2255 19.8385C30.2618 20.4102 29.1757 20.696 27.967 20.696C26.693 20.696 25.5905 20.4102 24.6595 19.8385C23.7448 19.2505 23.0752 18.491 22.6505 17.56V20.5H20.96V2.37H22.6505V10.0875ZM32.5975 13.787C32.5975 12.6763 32.377 11.7208 31.936 10.9205C31.5113 10.1038 30.9233 9.48317 30.172 9.0585C29.4207 8.63383 28.5713 8.4215 27.624 8.4215C26.7093 8.4215 25.8682 8.642 25.1005 9.083C24.3492 9.524 23.753 10.1528 23.312 10.9695C22.871 11.7862 22.6505 12.7335 22.6505 13.8115C22.6505 14.8895 22.871 15.8368 23.312 16.6535C23.753 17.4702 24.3492 18.099 25.1005 18.54C25.8682 18.981 26.7093 19.2015 27.624 19.2015C28.5713 19.2015 29.4207 18.9892 30.172 18.5645C30.9233 18.1235 31.5113 17.4947 31.936 16.678C32.377 15.845 32.5975 14.8813 32.5975 13.787Z" fill="#5454FB"/>
</g>
</g>
<defs>
<clipPath id="clip0_2274_29657">
<rect width="35" height="25" fill="white"/>
</clipPath>
</defs>
</svg>
