<svg width="25" height="26" viewBox="0 0 25 26" fill="none" xmlns="http://www.w3.org/2000/svg">
<mask id="mask0_0_1895" style="mask-type:alpha" maskUnits="userSpaceOnUse" x="2" y="5" width="21" height="15">
<path d="M4.625 5.75H20.375C21.6055 5.75 22.625 6.76953 22.625 8V10.25C22.625 10.5664 22.3438 10.8125 22.0625 10.918C21.3945 11.1641 20.9375 11.7617 20.9375 12.5C20.9375 13.2383 21.3945 13.8711 22.0625 14.1172C22.3438 14.2227 22.625 14.4688 22.625 14.75V17C22.625 18.2656 21.6055 19.25 20.375 19.25H4.625C3.35938 19.25 2.375 18.2656 2.375 17V14.75C2.375 14.4688 2.62109 14.2227 2.90234 14.1172C3.57031 13.8711 4.0625 13.2383 4.0625 12.5C4.0625 11.7617 3.57031 11.1641 2.90234 10.918C2.62109 10.8125 2.375 10.5664 2.375 10.25V8C2.375 6.76953 3.35938 5.75 4.625 5.75ZM6.875 9.6875C6.875 9.40625 7.12109 9.125 7.4375 9.125H17.5625C17.8438 9.125 18.125 9.40625 18.125 9.6875V15.3125C18.125 15.6289 17.8438 15.875 17.5625 15.875H7.4375C7.12109 15.875 6.875 15.6289 6.875 15.3125V9.6875ZM5.75 9.125V15.875C5.75 16.5078 6.24219 17 6.875 17H18.125C18.7227 17 19.25 16.5078 19.25 15.875V9.125C19.25 8.52734 18.7227 8 18.125 8H6.875C6.24219 8 5.75 8.52734 5.75 9.125Z" fill="#061938"/>
</mask>
<g mask="url(#mask0_0_1895)">
<rect y="1" width="24" height="24" fill="#5454FB"/>
</g>
</svg>
